<svg xmlns="http://www.w3.org/2000/svg" width="2148" height="869" viewBox="0 0 2148 869">
  <g id="Gruppe_562" data-name="Gruppe 562" transform="translate(-4549 -3758)">
    <rect id="Rechteck_1815" data-name="Rechteck 1815" width="2148" height="869" transform="translate(4549 3758)" fill="none"/>
    <g id="Icon_ionic-ios-desktop" data-name="Icon ionic-ios-desktop" transform="translate(4714.3 4013.627)">
      <path id="Pfad_3051" data-name="Pfad 3051" d="M231.114,76.439a5.83,5.83,0,0,0-4.809-4.923l-25.531-2.175c-13.51-3.549-23.47-18.547-25.531-32.4l-1.374-8.816H68.541l-1.374,8.7c-2.175,13.853-12.021,28.851-25.531,32.4L16.105,71.4A6.247,6.247,0,0,0,11.3,76.325a5.872,5.872,0,0,0,5.839,6.64H225.275A5.785,5.785,0,0,0,231.114,76.439Z" transform="translate(135.248 356.555)" fill="#fff"/>
      <path id="Pfad_3052" data-name="Pfad 3052" d="M507.028,12.514A27.656,27.656,0,0,0,487.565,4.5H29.956a27.457,27.457,0,0,0-19.463,8.014A27.883,27.883,0,0,0,2.25,31.977V343.385a27.678,27.678,0,0,0,8.243,19.463,27.125,27.125,0,0,0,19.234,8.014H487.68a26.928,26.928,0,0,0,19.234-8.014,27.883,27.883,0,0,0,8.243-19.463V31.977A27.288,27.288,0,0,0,507.028,12.514ZM258.7,343.385a9.159,9.159,0,1,1,9.159-9.159A9.186,9.186,0,0,1,258.7,343.385Zm233.441-45.8H25.377a4.593,4.593,0,0,1-4.58-4.58V36.557A13.779,13.779,0,0,1,34.536,22.818h448.45a13.779,13.779,0,0,1,13.738,13.739V293.01A4.593,4.593,0,0,1,492.145,297.59Z" transform="translate(-2.25 -4.5)" fill="#fff"/>
    </g>
    <path id="Icon_ionic-ios-phone-portrait" data-name="Icon ionic-ios-phone-portrait" d="M256.435,2.25H52.654A42.279,42.279,0,0,0,10.125,44.522V534.057c0,23.642,19.016,43.814,42.529,43.814H256.306c23.513,0,41.5-20.172,41.5-43.814V44.522C297.936,21.009,279.948,2.25,256.435,2.25ZM134.757,31.8H173.3a5.139,5.139,0,1,1,0,10.279H134.757a5.139,5.139,0,1,1,0-10.279Zm19.915,526.8a22.357,22.357,0,1,1,22.357-22.357A22.373,22.373,0,0,1,154.673,558.6ZM274.808,495.64H33.253a2.577,2.577,0,0,1-2.57-2.57V70.348a2.577,2.577,0,0,1,2.57-2.57H274.808a2.577,2.577,0,0,1,2.57,2.57V493.07A2.577,2.577,0,0,1,274.808,495.64Z" transform="translate(6166.293 3915.439)" fill="#fff"/>
    <path id="Icon_ionic-ios-phone-portrait-2" data-name="Icon ionic-ios-phone-portrait" d="M246.309,0H42.529A42.279,42.279,0,0,0,0,42.272V531.808c0,23.642,19.016,43.814,42.529,43.814H246.181c23.513,0,41.5-20.172,41.5-43.814V42.272C287.811,18.759,269.823,0,246.309,0ZM124.632,29.552h38.546a5.139,5.139,0,1,1,0,10.279H124.632a5.139,5.139,0,1,1,0-10.279Zm19.915,526.8A22.357,22.357,0,1,1,166.9,533.992,22.373,22.373,0,0,1,144.548,556.349ZM264.683,493.39H23.128a2.577,2.577,0,0,1-2.57-2.57V68.1a2.577,2.577,0,0,1,2.57-2.57H264.683a2.577,2.577,0,0,1,2.57,2.57V490.82A2.577,2.577,0,0,1,264.683,493.39Z" transform="translate(5393.74 4349.341) rotate(-90)" fill="#fff"/>
    <line id="Linie_16" data-name="Linie 16" x2="512.622" y2="512.622" transform="translate(4714.666 3949.189)" fill="none" stroke="#fff" stroke-linecap="round" stroke-width="20"/>
    <line id="Linie_17" data-name="Linie 17" x2="512.622" y2="512.622" transform="translate(5227.287 3949.189) rotate(90)" fill="none" stroke="#fff" stroke-linecap="round" stroke-width="20"/>
    <path id="Differenzmenge_54" data-name="Differenzmenge 54" d="M201.375,116.384a2.027,2.027,0,0,1-.506-.065l-93.4-24.168a2,2,0,0,1-.812-3.444L128.81,69.45A110.3,110.3,0,0,0,14.586,57.058a17.193,17.193,0,0,1-4.773.721,9.915,9.915,0,0,1-7.426-2.855C-1.978,50.323-.2,41.4,6.437,34.62l.006-.007H6.4A109.214,109.214,0,0,1,73.216.79,111.456,111.456,0,0,1,86.454,0c2.533,0,5.093.088,7.609.261a111.045,111.045,0,0,1,20.57,3.377,109.8,109.8,0,0,1,19.676,7.239A107.785,107.785,0,0,1,167.589,35.74l21.537-18.721a1.962,1.962,0,0,1,1.3-.493,2,2,0,0,1,2,1.775l10.933,95.855a2,2,0,0,1-1.982,2.228Z" transform="matrix(0.985, -0.174, 0.174, 0.985, 5564, 4120.043)" fill="#fff"/>
    <path id="Differenzmenge_58" data-name="Differenzmenge 58" d="M201.377,116.384a2.026,2.026,0,0,1-.507-.065l-93.4-24.167a2,2,0,0,1-.812-3.446L128.81,69.45A110.287,110.287,0,0,0,14.586,57.058a17.191,17.191,0,0,1-4.773.721,9.912,9.912,0,0,1-7.426-2.855C-1.978,50.323-.2,41.4,6.437,34.62l.007-.007H6.4A109.2,109.2,0,0,1,73.216.79,111.523,111.523,0,0,1,86.462,0c2.531,0,5.089.088,7.6.26a111.219,111.219,0,0,1,20.57,3.378,109.849,109.849,0,0,1,19.676,7.239A107.784,107.784,0,0,1,167.589,35.74l21.536-18.721a1.964,1.964,0,0,1,1.3-.493,2.006,2.006,0,0,1,2,1.776l10.932,95.854a2,2,0,0,1-1.981,2.228Z" transform="matrix(-0.985, 0.174, -0.174, -0.985, 5791.797, 4288.616)" fill="#fff"/>
    <path id="Icon_awesome-check" data-name="Icon awesome-check" d="M67.89,150.707,2.927,85.744a9.995,9.995,0,0,1,0-14.134L17.061,57.476a9.994,9.994,0,0,1,14.134,0l43.762,43.762L168.691,7.5a9.995,9.995,0,0,1,14.134,0l14.134,14.134a9.995,9.995,0,0,1,0,14.134L82.024,150.707A9.994,9.994,0,0,1,67.89,150.707Z" transform="translate(6220.317 4126.394)" fill="#fff"/>
  </g>
</svg>
