<svg xmlns="http://www.w3.org/2000/svg" width="208.975" height="184.409" viewBox="0 0 208.975 184.409">
  <g id="Gruppe_509" data-name="Gruppe 509" transform="translate(0)">
    <path id="Pfad_2207" data-name="Pfad 2207" d="M540.141,134.377c-1.581-2.614-3.454-5.405-6.387-6.259-3.4-.988-6.886.975-9.846,2.913a286.884,286.884,0,0,0-25.534,18.813l.009.1,19.053-1.314c4.589-.316,9.335-.677,13.39-2.847,1.539-.824,3.039-1.924,4.782-2,2.167-.1,4.055,1.418,5.54,3,8.781,9.351,11.322,23.65,21.173,31.865A312.61,312.61,0,0,0,540.141,134.377Z" transform="translate(-418.185 -112.671)" fill="#fff"/>
    <path id="Pfad_2208" data-name="Pfad 2208" d="M527.012,194.269c-.971-1.226-1.368-1.513-2.326-2.751q-11.7-15.131-21.992-31.283-6.991-10.97-13.289-22.362-3-5.416-5.832-10.916-2.2-4.265-4.3-8.581c-.4-.822-.789-1.647-1.177-2.475-.913-1.946-1.808-3.9-2.77-5.821a16.011,16.011,0,0,0-4.442-5.951,6.061,6.061,0,0,0-3.157-1.215,8.807,8.807,0,0,0-4.57,1.309,147.124,147.124,0,0,0-28.929,19.949,150.6,150.6,0,0,0-23.5,26.09c-.208.3-.7.013-.489-.285q1.239-1.751,2.526-3.465a151.439,151.439,0,0,1,38.663-36.063q3.761-2.437,7.663-4.646c1.311-.743,2.628-1.476,3.967-2.163a9.668,9.668,0,0,1,4.208-1.3c5.1-.079,7.748,5.7,9.564,9.592q.856,1.836,1.732,3.661,3.313,6.929,6.881,13.731,2.2,4.2,4.5,8.351Q497.092,150.6,505.145,163c7.111,10.952,14.166,20.627,22.267,30.869C527.635,194.152,527.236,194.556,527.012,194.269Z" transform="translate(-351.08 -93.253)" fill="#e4e4e4"/>
    <path id="Pfad_2209" data-name="Pfad 2209" d="M362.719,151.95c-.3-.331-.591-.661-.89-.992-2.354-2.6-4.88-5.177-8.113-6.669a11.771,11.771,0,0,0-4.931-1.143,14.075,14.075,0,0,0-5.12,1.117c-.771.308-1.525.657-2.267,1.03-.848.427-1.681.882-2.511,1.341q-2.335,1.292-4.61,2.7-4.526,2.8-8.768,6.021-2.2,1.672-4.308,3.454-1.961,1.655-3.843,3.4c-.268.247-.669-.153-.4-.4.331-.308.665-.614,1-.916q1.417-1.281,2.879-2.513,2.667-2.25,5.471-4.327,4.361-3.231,9.023-6.023,2.329-1.394,4.723-2.671c.482-.257.969-.508,1.462-.746a23.31,23.31,0,0,1,3.476-1.415,12.366,12.366,0,0,1,5.25-.516,13.67,13.67,0,0,1,4.844,1.676c3.174,1.774,5.636,4.517,8.031,7.195C363.361,151.82,362.962,152.222,362.719,151.95Z" transform="translate(-280.076 -123.887)" fill="#e4e4e4"/>
    <path id="Pfad_2210" data-name="Pfad 2210" d="M779.55,274.677l7.606-2.782,3.776-1.381a38.6,38.6,0,0,1,3.728-1.284,5.881,5.881,0,0,1,3.374.043,7.777,7.777,0,0,1,2.632,1.631,21.371,21.371,0,0,1,2.159,2.305c.822.988,1.632,1.987,2.446,2.982q5.037,6.16,10.008,12.374t9.876,12.48q4.917,6.282,9.766,12.616l1.187,1.553c.218.286.711,0,.49-.286q-4.885-6.4-9.838-12.744-4.965-6.361-10-12.668t-10.135-12.559q-1.271-1.557-2.546-3.112c-.717-.874-1.426-1.757-2.213-2.571a7.976,7.976,0,0,0-5.407-2.849,10.437,10.437,0,0,0-3.678.809c-1.271.46-2.54.929-3.81,1.393l-7.659,2.8-1.915.7c-.34.124-.193.672.151.547Z" transform="translate(-631.872 -219.634)" fill="#e4e4e4"/>
    <path id="Pfad_2211" data-name="Pfad 2211" d="M427.439,159.355a12.279,12.279,0,0,0-12.367.884,176.385,176.385,0,0,1,20.067,4.684C432.4,163.319,430.261,160.805,427.439,159.355Z" transform="translate(-354.8 -135.677)" fill="#fff"/>
    <path id="Pfad_2212" data-name="Pfad 2212" d="M412.546,167.059l-.744.6c.252-.212.513-.41.782-.6Z" transform="translate(-352.311 -142.503)" fill="#f2f2f2"/>
    <path id="Pfad_2213" data-name="Pfad 2213" d="M855.916,287.57a6.331,6.331,0,0,0-2.678-2.236l-1.046.041a118.594,118.594,0,0,0,31.587,36.112Z" transform="translate(-687.408 -232.5)" fill="#f2f2f2"/>
    <path id="Pfad_2214" data-name="Pfad 2214" d="M602.69,581.007a.244.244,0,0,1-.083-.015l-20.146-7.4a.239.239,0,0,1,.165-.449l20.146,7.4a.239.239,0,0,1-.082.464Z" transform="translate(-482.048 -451.485)"/>
    <path id="Pfad_2215" data-name="Pfad 2215" d="M448.689,523.007a.24.24,0,0,1-.082-.015l-20.146-7.4a.239.239,0,0,1,.165-.449l20.146,7.4a.239.239,0,0,1-.082.464Z" transform="translate(-364.868 -407.352)"/>
    <path id="Pfad_2216" data-name="Pfad 2216" d="M291.689,465.007a.238.238,0,0,1-.083-.015l-20.146-7.4a.239.239,0,0,1,.165-.449l20.146,7.4a.239.239,0,0,1-.082.464Z" transform="translate(-245.405 -363.219)"/>
    <path id="Pfad_2217" data-name="Pfad 2217" d="M296.3,337.933c-.84-.188-1.69-.336-2.53-.439l-.122-.015c-5.576-.664-10.283,1.664-10.949,5.414l-.118.679c-.074.429-.154.891-.249,1.4-.046.252.207.51.576.592l134.1,29.977c9.47,2.047,18.909,4.07,28.054,6.012a42.5,42.5,0,0,0,5.191.84c2.612.221,4.525-.07,5.848-.891h0c1.644-1.017,2.058-2.668,2.4-4.561.68-3.825,1.405-7.841,2.127-11.844.636-3.529,1.271-7.048,1.873-10.418.353-2,.546-3.794-.688-5.473-1.338-1.817-4.2-3.226-8.517-4.191l-.157-.035c-13.531-2.967-28.122-.61-36.307,5.865-.943.745-1.849,1.567-2.726,2.361a38,38,0,0,1-4.137,3.4,16,16,0,0,1-2.55,1.431c-.061.03-.131.061-.2.089-.169.076-.343.147-.51.207a14.831,14.831,0,0,1-3.026.812l-.1.015c-.078.013-.162.026-.246.035a16.334,16.334,0,0,1-1.788.141,24.054,24.054,0,0,1-8.366-1.406,36.279,36.279,0,0,1-7.789-3.766,86.939,86.939,0,0,1-7.207-5.323c-1-.793-2.03-1.612-3.067-2.4-.195-.149-.387-.294-.582-.441-1.27-.949-2.433-1.758-3.556-2.474a34.969,34.969,0,0,0-8.881-4.073,20.656,20.656,0,0,0-9.069-.783,14.481,14.481,0,0,0-2.212.543c-3.329,1.1-5.718,3.285-8.029,5.4-2.874,2.63-5.846,5.349-10.666,6.026-5.562.783-12.872-1.693-17.858-4.271-1.568-.811-3.119-1.687-4.619-2.535q-.909-.514-1.82-1.023c-1.194-.666-2.175-1.191-3.089-1.653l-.289-.147c-.161-.081-.322-.161-.486-.241-1.088-.535-2.11-.993-3.126-1.4l-.24-.1c-.483-.188-.937-.355-1.384-.511l-.179-.062A26.125,26.125,0,0,0,296.3,337.933Z" transform="translate(-253.794 -272.091)" fill="#fff"/>
    <path id="Pfad_2218" data-name="Pfad 2218" d="M446.145,407.68a.229.229,0,0,1-.05-.005L269.168,370.327a.239.239,0,0,1,.1-.468l176.927,37.348a.239.239,0,0,1-.049.473Z" transform="translate(-243.636 -296.812)"/>
    <circle id="Ellipse_220" data-name="Ellipse 220" cx="12.194" cy="12.194" r="12.194" transform="translate(153.616)" fill="#f0ff65"/>
    <path id="Pfad_2219" data-name="Pfad 2219" d="M872.094,75.838c-5.91-.8-12.656,2.4-14.188,8.159a5.163,5.163,0,0,0-9.825.5l.677.485a89.009,89.009,0,0,0,38.412-.174C883.059,80.492,878,76.637,872.094,75.838Z" transform="translate(-684.28 -73)" fill="#fff"/>
    <path id="Pfad_2220" data-name="Pfad 2220" d="M766.094,143.838c-5.909-.8-12.656,2.4-14.188,8.159a5.164,5.164,0,0,0-9.825.5l.677.485a89.008,89.008,0,0,0,38.412-.174C777.059,148.492,772,144.637,766.094,143.838Z" transform="translate(-603.624 -124.742)" fill="#f0f0f0"/>
    <path id="Pfad_2221" data-name="Pfad 2221" d="M876.08,483.364a2.333,2.333,0,0,1,.325-3.563l-3.715-18.455,4.1,1.317,2.974,17.85a2.346,2.346,0,0,1-3.686,2.851Z" transform="translate(-703.005 -366.429)" fill="#9e616a"/>
    <path id="Pfad_2222" data-name="Pfad 2222" d="M858.3,384.012l2.546-1.922s2.246-.159,2.644,3.891,1.214,11.943,1.214,11.943l3.9,18.042L863.2,417.15l-4.172-19.471-2.5-5.782Z" transform="translate(-690.708 -306.122)" fill="#2f2e41"/>
    <path id="Pfad_2223" data-name="Pfad 2223" d="M669.041,417.042,654.7,416.8l-1.2-9.8h15.541Z" transform="translate(-497.254 -309.69)" fill="#9e616a"/>
    <path id="Pfad_2224" data-name="Pfad 2224" d="M647.478,659.178h-3.311L642.591,646.4h4.888Z" transform="translate(-488.954 -491.855)" fill="#9e616a"/>
    <path id="Pfad_2225" data-name="Pfad 2225" d="M736.008,639.884l-3.312-.023-1.486-12.785,4.307.988Z" transform="translate(-556.385 -477.148)" fill="#9e616a"/>
    <path id="Pfad_2226" data-name="Pfad 2226" d="M663.126,366.915l.75,1.951-.15,1.951L649.04,375.9l.729-8.538,1.651-1.951Z" transform="translate(-493.861 -278.047)" fill="#ffb6b6"/>
    <circle id="Ellipse_221" data-name="Ellipse 221" cx="5.245" cy="5.245" r="5.245" transform="translate(157.719 60.82)" fill="#9e616a"/>
    <path id="Pfad_2227" data-name="Pfad 2227" d="M795.681,764.28h-2.35l-.42-2.219-1.074,2.219H785.6a1.4,1.4,0,0,1-.8-2.554l4.977-3.437v-2.243l5.235.313Z" transform="translate(-635.675 -590.669)" fill="#2f2e41"/>
    <path id="Pfad_2228" data-name="Pfad 2228" d="M885.028,745.015l-2.35-.017-.4-2.221-1.09,2.211-6.232-.044a1.4,1.4,0,0,1-.778-2.56l5-3.4.016-2.243,5.233.349Z" transform="translate(-703.667 -575.978)" fill="#2f2e41"/>
    <path id="Pfad_2229" data-name="Pfad 2229" d="M828.137,544.429,825.726,529.7l-2.869-20.323c2.1-3.9-2.63-16.019-2.63-16.019l-.668.032-15.115,2.852,0-.014c-3.092,8.432-4.116,12.6-3.946,21.577l.609,32.28h-.191a1.2,1.2,0,0,0,0,2.391H806.9a1.2,1.2,0,1,0,0-2.391h-.154l5.486-38.435,4.651,16.138,5.26,16.5c-1.913-.478-1.616.63-1.616,1.257a1.2,1.2,0,0,0,1.2,1.2H827.7a1.194,1.194,0,0,0,.441-2.3Z" transform="translate(-647.484 -390.784)" fill="#2f2e41"/>
    <path id="Pfad_2230" data-name="Pfad 2230" d="M824.69,402.831l-.478-4.782a.953.953,0,0,0-.862-.716c-.2-2.278-1.037-12.1-1.088-12.534l0-.018-.381-8.143a1.2,1.2,0,0,0-1.124-1.146l-2.013-.131a.107.107,0,0,1-.1-.107,1.693,1.693,0,0,0-1.693-1.693h-5.961a1.585,1.585,0,0,0-1.572,1.388.105.105,0,0,1-.107.095h0a2.832,2.832,0,0,0-2.849,2.349c-.815,4.742-2.448,15.5-1.641,21.485.281,2.083-.325.433-.431,2.176a1.283,1.283,0,0,0,.319.93.925.925,0,0,0-.557,1.175l-.1-.026a.957.957,0,0,0,1.161.694l18.315-4.617C824.031,399.081,824.819,403.343,824.69,402.831Z" transform="translate(-650.77 -299.633)" fill="#2f2e41"/>
    <path id="Pfad_2231" data-name="Pfad 2231" d="M793.294,483.364a2.334,2.334,0,0,0-.324-3.564l3.715-18.455-4.1,1.318-2.974,17.85a2.346,2.346,0,0,0,3.686,2.851Z" transform="translate(-639.533 -366.429)" fill="#9e616a"/>
    <path id="Pfad_2232" data-name="Pfad 2232" d="M796.257,384.012l-2.546-1.922s-2.246-.159-2.644,3.891-1.214,11.943-1.214,11.943l-3.9,18.042,5.392,1.184,4.172-19.471,2.5-5.782Z" transform="translate(-637.01 -306.122)" fill="#2f2e41"/>
    <path id="Pfad_2233" data-name="Pfad 2233" d="M864.717,293.519c.977.291,1.889-.527,2.569-1.3l-.242.287a9.334,9.334,0,0,1,3.177,4.82c.621,1.856.967,3.8,1.667,5.629a8.251,8.251,0,0,0,3.563,4.507c2.319,1.221,5.16.666,7.627-.215l.1-.035a15.718,15.718,0,0,1-1.8-6.023,14.292,14.292,0,0,0,4.273,5.013,32.787,32.787,0,0,0,4.634-2.577,3.963,3.963,0,0,0,2.067-2.6,2.99,2.99,0,0,0-1.731-2.712,16.467,16.467,0,0,0-3.235-1.057,4.583,4.583,0,0,1-2.77-1.844c-1.317-2.262.9-5.451-.514-7.656a5.142,5.142,0,0,0-3.3-1.819,43.671,43.671,0,0,0-5.814-.981,12.216,12.216,0,0,0-5.13.318,5.082,5.082,0,0,0-3.468,3.53,5.51,5.51,0,0,0-2.477,2.01A1.908,1.908,0,0,0,864.717,293.519Z" transform="translate(-696.135 -232.118)" fill="#2f2e41"/>
    <path id="Pfad_2234" data-name="Pfad 2234" d="M828.293,310.766a5.992,5.992,0,0,1,1.445,3.2c1.944,3.553-.836,6.6-4.389,8.548a7.279,7.279,0,0,1-4.65.811l-.149-.634-.2.572s-2.313,7.64-3.076,8.088c.29-1.36.621-7.655.782-8.982.223-1.806-.555-4.495-1.116-6.13a9.648,9.648,0,0,1-.528-3.132v-.047l-.546,1.755-1.989-.849c.37-2.123,0-4.532,4.436-4.323a7.4,7.4,0,0,1,6.248-1.433c.224-.346,1.516.3,1.889.12" transform="translate(-658.253 -249.746)" fill="#2f2e41"/>
    <path id="Pfad_2235" data-name="Pfad 2235" d="M831.546,397.168a3.4,3.4,0,0,1-2.922,2.988l-10.8,1.463A3.4,3.4,0,0,1,814,398.708l-1.557-11.51a3.39,3.39,0,0,1,.43-2.161l-.074-.559a1.791,1.791,0,0,1-.426-3.142l1.334-6.181a.957.957,0,0,1,.913-1.085.983.983,0,0,1,.988.868l.122.909a4.782,4.782,0,0,0,9.521-.636,4.947,4.947,0,0,0-.043-.648l-.12-.894a.992.992,0,0,1,.76-1.121.956.956,0,0,1,1.126.813l.772,5.69a1.791,1.791,0,0,1,.8,3.445,3.387,3.387,0,0,1,1.427,2.329l1.559,11.512A3.345,3.345,0,0,1,831.546,397.168Z" transform="translate(-656.539 -298.848)" fill="#fafcff"/>
    <path id="Pfad_2236" data-name="Pfad 2236" d="M815.9,415.083a.359.359,0,0,1,.307-.4l14.72-2.256a.359.359,0,1,1,.1.711l-14.72,2.256A.359.359,0,0,1,815.9,415.083Z" transform="translate(-659.787 -329.201)" fill="#3f3d56"/>
    <path id="Pfad_2237" data-name="Pfad 2237" d="M821.522,427.855l-.487-3.6a1.055,1.055,0,0,1,.9-1.187l14.059-1.8a1.055,1.055,0,0,1,1.187.9l.486,3.6a1.055,1.055,0,0,1-.9,1.187l-5.615.773a1.093,1.093,0,0,1,.028.117l.5,3.672,4.738-.641a.239.239,0,0,1,.064.474l-4.739.641-2.132.289-4.5.609a.239.239,0,0,1-.064-.474l4.5-.609-.5-3.672a1.011,1.011,0,0,1,0-.12l-6.335.741A1.055,1.055,0,0,1,821.522,427.855Z" transform="translate(-663.693 -335.931)" fill="#3f3d56"/>
    <path id="Pfad_2238" data-name="Pfad 2238" d="M265.55,540.571a.239.239,0,0,1-.16-.061L163.059,448.271a.239.239,0,1,1,.32-.355L265.71,540.155a.239.239,0,0,1-.16.417Z" transform="translate(-162.98 -356.163)"/>
    <path id="Pfad_2239" data-name="Pfad 2239" d="M801.256,444.286a.485.485,0,0,0-.514-.519.459.459,0,0,0-.077.009l-3.027.684a.5.5,0,0,0-.32.246.617.617,0,0,0-.131.019.735.735,0,0,0,.325,1.434.743.743,0,0,0,.3-.143l1.026,2.888a.482.482,0,0,0,.528.232l1.968-.445a.488.488,0,0,0,.376-.435Zm-3.79,1.669a.526.526,0,1,1-.234-1.026c.01,0,.019,0,.029,0a.493.493,0,0,0,.065.249l.375.655A.5.5,0,0,1,797.466,445.955Z" transform="translate(-645.118 -353.052)" fill="#ccc"/>
    <path id="Pfad_2240" data-name="Pfad 2240" d="M803.585,443.77c.029.383-.626.823-1.5,1-.806.165-1.528.05-1.731-.251a.457.457,0,0,1,.131-.053l3.027-.684A.459.459,0,0,1,803.585,443.77Z" transform="translate(-647.961 -353.055)" fill="#e6e6e6"/>
    <path id="Pfad_2241" data-name="Pfad 2241" d="M804.02,460.716l-.879-1.828c-.515-1.071.427-2.21,2.1-2.54L807.3,456l.862,6.025-.178.035C806.315,462.39,804.535,461.787,804.02,460.716Z" transform="translate(-649.978 -362.361)" fill="#fafcff"/>
    <g id="Gruppe_500" data-name="Gruppe 500" transform="translate(157.97 97.663)" opacity="0.2">
      <path id="Pfad_2242" data-name="Pfad 2242" d="M840.728,473.488a3.4,3.4,0,0,1-2.922,2.989l-10.8,1.463a3.4,3.4,0,0,1-3.316-1.535,3.471,3.471,0,0,1,2.477-1.253,11.644,11.644,0,0,1,2.735.433,9.466,9.466,0,0,0,6.415-1.064,17.412,17.412,0,0,1,2.532-1.466,2.723,2.723,0,0,1,2.8.342A.929.929,0,0,1,840.728,473.488Z" transform="translate(-823.69 -472.831)"/>
    </g>
  </g>
</svg>
