<svg xmlns="http://www.w3.org/2000/svg" xmlns:xlink="http://www.w3.org/1999/xlink" width="277.39" height="161.072" viewBox="0 0 277.39 161.072">
  <defs>
    <linearGradient id="linear-gradient" x1="0.5" y1="1" x2="0.5" y2="-0.001" gradientUnits="objectBoundingBox">
      <stop offset="0" stop-color="gray" stop-opacity="0.251"/>
      <stop offset="0.54" stop-color="gray" stop-opacity="0.122"/>
      <stop offset="1" stop-color="gray" stop-opacity="0.102"/>
    </linearGradient>
  </defs>
  <g id="Gruppe_522" data-name="Gruppe 522" transform="translate(0 -0.043)">
    <g id="Gruppe_519" data-name="Gruppe 519" transform="translate(178.145 0.043)">
      <ellipse id="Ellipse_248" data-name="Ellipse 248" cx="5.361" cy="7.016" rx="5.361" ry="7.016" transform="translate(20.439 144.659)" fill="#3f3d56"/>
      <path id="Pfad_2525" data-name="Pfad 2525" d="M856.419,584.214a8.453,8.453,0,0,0,1.128-4.288c0-3.883-2.4-7.016-5.361-7.016s-5.359,3.14-5.359,7.016a8.452,8.452,0,0,0,1.119,4.288,8.773,8.773,0,0,0,0,8.574,8.778,8.778,0,0,0,0,8.577,8.453,8.453,0,0,0-1.119,4.288c0,3.883,2.4,7.016,5.359,7.016s5.361-3.14,5.361-7.016a8.453,8.453,0,0,0-1.119-4.288,8.778,8.778,0,0,0,0-8.576,8.773,8.773,0,0,0,0-8.574Z" transform="translate(-826.377 -462.554)" fill="#3f3d56"/>
      <ellipse id="Ellipse_249" data-name="Ellipse 249" cx="5.361" cy="7.016" rx="5.361" ry="7.016" transform="translate(20.439 101.782)" fill="#3f3d56"/>
      <ellipse id="Ellipse_250" data-name="Ellipse 250" cx="5.361" cy="7.016" rx="5.361" ry="7.016" transform="translate(20.439 93.205)" fill="#3f3d56"/>
      <path id="Pfad_2526" data-name="Pfad 2526" d="M808.424,159.718a25.823,25.823,0,0,0,1.995-2.939l-14.076-2.313,15.233.114a25.724,25.724,0,0,0,.485-20.342l-20.439,10.6,18.852-13.848a25.676,25.676,0,1,0-42.409,28.732,25.729,25.729,0,0,0-2.927,4.681l18.281,9.5-19.492-6.553a25.676,25.676,0,0,0,4.126,24.108,25.674,25.674,0,1,0,40.359,0,25.674,25.674,0,0,0,0-31.746Z" transform="translate(-762.558 -118.183)" fill="#fafcff"/>
      <path id="Pfad_2527" data-name="Pfad 2527" d="M762.609,353.558A25.557,25.557,0,0,0,768.1,369.43a25.674,25.674,0,1,0,40.359,0C811.9,365.062,762.609,350.675,762.609,353.558Z" transform="translate(-762.596 -296.149)" opacity="0.1"/>
    </g>
    <g id="Gruppe_520" data-name="Gruppe 520" transform="translate(38.029 54.631)">
      <ellipse id="Ellipse_251" data-name="Ellipse 251" cx="3.262" cy="4.271" rx="3.262" ry="4.271" transform="translate(12.297 88.057)" fill="#3f3d56"/>
      <path id="Pfad_2528" data-name="Pfad 2528" d="M241.763,626.793a5.152,5.152,0,0,0,.682-2.611c0-2.359-1.456-4.271-3.264-4.271s-3.262,1.912-3.262,4.271a5.152,5.152,0,0,0,.68,2.611,5.354,5.354,0,0,0,0,5.22,5.354,5.354,0,0,0,0,5.22,5.135,5.135,0,0,0-.68,2.609c0,2.361,1.456,4.274,3.262,4.274s3.264-1.912,3.264-4.274a5.135,5.135,0,0,0-.682-2.609,1785887.715,1785887.715,0,0,1,0-10.44Z" transform="translate(-223.61 -552.736)" fill="#3f3d56"/>
      <ellipse id="Ellipse_252" data-name="Ellipse 252" cx="3.262" cy="4.271" rx="3.262" ry="4.271" transform="translate(12.297 61.954)" fill="#3f3d56"/>
      <ellipse id="Ellipse_253" data-name="Ellipse 253" cx="3.262" cy="4.271" rx="3.262" ry="4.271" transform="translate(12.297 56.734)" fill="#3f3d56"/>
      <path id="Pfad_2529" data-name="Pfad 2529" d="M188.548,368.391a15.554,15.554,0,0,1-1.213-1.789l8.574-1.408-9.273.07a15.67,15.67,0,0,1-.3-12.377l12.433,6.458L187.3,350.9a15.629,15.629,0,1,1,25.814,17.49,15.612,15.612,0,0,1,1.781,2.847l-11.13,5.786,11.867-3.982a15.639,15.639,0,0,1-2.519,14.678,15.629,15.629,0,1,1-24.569,0,15.634,15.634,0,0,1,0-19.328Z" transform="translate(-185.199 -343.114)" fill="#fafcff"/>
      <path id="Pfad_2530" data-name="Pfad 2530" d="M216.457,486.372a15.568,15.568,0,0,1-3.344,9.664,15.629,15.629,0,1,1-24.57,0C186.449,493.388,216.457,484.617,216.457,486.372Z" transform="translate(-185.199 -451.431)" opacity="0.1"/>
    </g>
    <g id="Gruppe_521" data-name="Gruppe 521" transform="translate(106.301 25.614)">
      <ellipse id="Ellipse_254" data-name="Ellipse 254" cx="4.366" cy="5.715" rx="4.366" ry="5.715" transform="translate(16.454 117.905)" fill="#3f3d56"/>
      <path id="Pfad_2531" data-name="Pfad 2531" d="M542.125,603.43a6.9,6.9,0,0,0,.91-3.495c0-3.155-1.942-5.715-4.368-5.715s-4.368,2.56-4.368,5.715a6.873,6.873,0,0,0,.912,3.495,7.145,7.145,0,0,0,0,6.987,7.14,7.14,0,0,0,0,6.984,6.873,6.873,0,0,0-.912,3.495c0,3.155,1.956,5.715,4.368,5.715s4.368-2.56,4.368-5.715a6.9,6.9,0,0,0-.91-3.495,7.154,7.154,0,0,0,0-6.984A7.16,7.16,0,0,0,542.125,603.43Z" transform="translate(-517.849 -504.263)" fill="#3f3d56"/>
      <ellipse id="Ellipse_255" data-name="Ellipse 255" cx="4.366" cy="5.715" rx="4.366" ry="5.715" transform="translate(16.454 82.972)" fill="#3f3d56"/>
      <ellipse id="Ellipse_256" data-name="Ellipse 256" cx="4.366" cy="5.715" rx="4.366" ry="5.715" transform="translate(16.454 75.986)" fill="#3f3d56"/>
      <path id="Pfad_2532" data-name="Pfad 2532" d="M471,257.439a20.851,20.851,0,0,1-1.626-2.393l11.472-1.883-12.406.092a20.956,20.956,0,0,1-.4-16.573l16.648,8.635-15.355-11.285a20.917,20.917,0,1,1,34.537,23.407,20.95,20.95,0,0,1,2.383,3.815l-14.891,7.737,15.879-5.339a20.925,20.925,0,0,1-3.371,19.641,20.915,20.915,0,1,1-32.879,0,20.922,20.922,0,0,1,0-25.863Z" transform="translate(-466.519 -223.547)" fill="#fafcff"/>
      <path id="Pfad_2533" data-name="Pfad 2533" d="M508.348,415.527a20.824,20.824,0,0,1-4.475,12.93,20.915,20.915,0,1,1-32.879,0C468.191,424.9,508.348,413.178,508.348,415.527Z" transform="translate(-466.519 -368.703)" opacity="0.1"/>
    </g>
    <path id="Pfad_2534" data-name="Pfad 2534" d="M340.158,733.557c0,1.667-12.188,3.191-32.338,4.368-3.665.211-7.591.412-11.756.6q-5.4.243-11.314.459-5.732.2-11.9.379c-12.993.371-27.358.638-42.618.772q-5.555.051-11.258.078-5.941.027-12.018.024c-73.568,0-133.2-2.987-133.2-6.674s59.635-6.674,133.2-6.674c31.673,0,60.759.556,83.62,1.478l2.5.1h.015C321.884,729.691,340.158,731.528,340.158,733.557Z" transform="translate(-62.768 -579.122)" fill="#3f3d56"/>
    <path id="Pfad_2535" data-name="Pfad 2535" d="M340.158,733.557c0,1.667-12.188,3.191-32.338,4.368-3.665.211-7.591.412-11.756.6q-5.4.243-11.314.459-5.732.2-11.9.379c-12.993.371-27.358.638-42.618.772q-5.555.051-11.258.078-5.941.027-12.018.024c-73.568,0-133.2-2.987-133.2-6.674s59.635-6.674,133.2-6.674c31.673,0,60.759.556,83.62,1.478l2.5.1h.015C321.884,729.691,340.158,731.528,340.158,733.557Z" transform="translate(-62.768 -579.122)" opacity="0.15"/>
    <path id="Pfad_2536" data-name="Pfad 2536" d="M294.908,732.079c0,1.393-12.188,2.67-32.338,3.64-3.662.177-7.591.345-11.753.5q-5.4.2-11.314.383-5.732.17-11.9.318c-13,.311-27.36.534-42.62.646q-5.55.041-11.258.063-5.941.022-12.015.022c-73.568,0-133.205-2.5-133.205-5.582s59.638-5.582,133.205-5.582c31.67,0,60.756.464,83.617,1.235l2.5.085h.017C276.646,728.846,294.908,730.373,294.908,732.079Z" transform="translate(-28.5 -578.819)" fill="#3f3d56"/>
    <path id="Pfad_2537" data-name="Pfad 2537" d="M159.824,505.9l-3.344-10.239,80.086-.876,3.281,10.137Z" transform="translate(-125.421 -403.35)" fill="#3f3d56"/>
    <path id="Pfad_2538" data-name="Pfad 2538" d="M159.824,505.9l-3.344-10.239,80.086-.876,3.281,10.137Z" transform="translate(-125.421 -403.35)" opacity="0.15"/>
    <path id="Pfad_2539" data-name="Pfad 2539" d="M137.824,505.9l-3.344-10.239,80.086-.876,3.281,10.137Z" transform="translate(-108.76 -403.35)" fill="#3f3d56"/>
    <path id="Pfad_2540" data-name="Pfad 2540" d="M628.184,265.749q-12.421,0-19.577-9.86T601.45,232q0-14.124,6.921-23.841T627.9,198.45q13.367,0,20.143,10.239a41.967,41.967,0,0,1,6.778,23.7,39.662,39.662,0,0,1-7.014,23.366Q640.792,265.756,628.184,265.749Zm.243-7.395a13.171,13.171,0,0,0,12.214-7.123q4.043-7.123,4.043-17.959,0-12.061-4.138-19.752t-12.692-7.693q-16.26,0-16.26,25.831,0,26.7,16.828,26.7Zm2.728,70.813H619.178l78.407-129.4h11.751Zm69.364,1.327q-12.608,0-19.658-9.95t-7.079-23.892q0-14.03,6.873-23.747T700.23,263.2q13.272,0,20,10.239a42.173,42.173,0,0,1,6.732,23.7A39.9,39.9,0,0,1,720,320.458Q713.03,330.5,700.514,330.5Zm.141-7.584a13.12,13.12,0,0,0,12.149-7q4.017-7,4.016-17.886,0-11.649-4.065-19.539t-12.666-7.9q-16.355,0-16.355,25.831,0,26.5,16.915,26.5Z" transform="translate(-462.403 -178.927)" fill="#3f3d56"/>
    <path id="Pfad_2541" data-name="Pfad 2541" d="M628.184,265.749q-12.421,0-19.577-9.86T601.45,232q0-14.124,6.921-23.841T627.9,198.45q13.367,0,20.143,10.239a41.967,41.967,0,0,1,6.778,23.7,39.662,39.662,0,0,1-7.014,23.366Q640.792,265.756,628.184,265.749Zm.243-7.395a13.171,13.171,0,0,0,12.214-7.123q4.043-7.123,4.043-17.959,0-12.061-4.138-19.752t-12.692-7.693q-16.26,0-16.26,25.831,0,26.7,16.828,26.7Zm2.728,70.813H619.178l78.407-129.4h11.751Zm69.364,1.327q-12.608,0-19.658-9.95t-7.079-23.892q0-14.03,6.873-23.747T700.23,263.2q13.272,0,20,10.239a42.173,42.173,0,0,1,6.732,23.7A39.9,39.9,0,0,1,720,320.458Q713.03,330.5,700.514,330.5Zm.141-7.584a13.12,13.12,0,0,0,12.149-7q4.017-7,4.016-17.886,0-11.649-4.065-19.539t-12.666-7.9q-16.355,0-16.355,25.831,0,26.5,16.915,26.5Z" transform="translate(-462.403 -178.927)" fill="#3f3d56"/>
    <path id="Pfad_2542" data-name="Pfad 2542" d="M628.184,265.749q-12.421,0-19.577-9.86T601.45,232q0-14.124,6.921-23.841T627.9,198.45q13.367,0,20.143,10.239a41.967,41.967,0,0,1,6.778,23.7,39.662,39.662,0,0,1-7.014,23.366Q640.792,265.756,628.184,265.749Zm.243-7.395a13.171,13.171,0,0,0,12.214-7.123q4.043-7.123,4.043-17.959,0-12.061-4.138-19.752t-12.692-7.693q-16.26,0-16.26,25.831,0,26.7,16.828,26.7Zm2.728,70.813H619.178l78.407-129.4h11.751Zm69.364,1.327q-12.608,0-19.658-9.95t-7.079-23.892q0-14.03,6.873-23.747T700.23,263.2q13.272,0,20,10.239a42.173,42.173,0,0,1,6.732,23.7A39.9,39.9,0,0,1,720,320.458Q713.03,330.5,700.514,330.5Zm.141-7.584a13.12,13.12,0,0,0,12.149-7q4.017-7,4.016-17.886,0-11.649-4.065-19.539t-12.666-7.9q-16.355,0-16.355,25.831,0,26.5,16.915,26.5Z" transform="translate(-462.403 -178.927)" opacity="0.15"/>
    <path id="Pfad_2543" data-name="Pfad 2543" d="M597.184,265.749q-12.421,0-19.577-9.86T570.45,232q0-14.124,6.921-23.841T596.9,198.45q13.367,0,20.143,10.239a41.968,41.968,0,0,1,6.778,23.7,39.662,39.662,0,0,1-7.014,23.366Q609.792,265.756,597.184,265.749Zm.243-7.395a13.171,13.171,0,0,0,12.214-7.123q4.043-7.123,4.043-17.959,0-12.061-4.138-19.752t-12.693-7.693q-16.26,0-16.26,25.831,0,26.7,16.828,26.7Zm2.728,70.813H588.178l78.407-129.4h11.751Zm69.364,1.327q-12.607,0-19.658-9.95t-7.079-23.892q0-14.03,6.873-23.747T669.23,263.2q13.272,0,20,10.239a42.173,42.173,0,0,1,6.732,23.7A39.9,39.9,0,0,1,689,320.458Q682.03,330.5,669.514,330.5Zm.141-7.584a13.12,13.12,0,0,0,12.149-7q4.017-7,4.016-17.886,0-11.649-4.065-19.539t-12.671-7.9q-16.355,0-16.355,25.831,0,26.5,16.92,26.5Z" transform="translate(-438.927 -178.927)" fill="#3f3d56"/>
    <path id="Pfad_2544" data-name="Pfad 2544" d="M775.134,623.065c1-1.854-.136-4.126-1.442-5.781s-2.9-3.373-2.864-5.482c.049-3.026,3.262-4.815,5.824-6.421a28.416,28.416,0,0,0,5.237-4.208,7.69,7.69,0,0,0,1.609-2.155,8.806,8.806,0,0,0,.485-3.827q-.168-6.485-.641-12.95" transform="translate(-590.675 -469.577)" fill="none" stroke="#3f3d56" stroke-miterlimit="10" stroke-width="4"/>
    <path id="Pfad_2545" data-name="Pfad 2545" d="M813.061,567.212a4.715,4.715,0,0,0-2.357-3.868l-1.058,2.092.032-2.534a4.781,4.781,0,0,0-1.556-.187,4.723,4.723,0,1,0,4.939,4.5Z" transform="translate(-615.51 -454.786)" fill="#fafcff"/>
    <path id="Pfad_2546" data-name="Pfad 2546" d="M779.993,691.529a4.72,4.72,0,1,1,.228-3.8l-2.951,2.4,3.252-.757A4.709,4.709,0,0,1,779.993,691.529Z" transform="translate(-590.863 -547.132)" fill="#fafcff"/>
    <path id="Pfad_2547" data-name="Pfad 2547" d="M782.781,645.706a4.723,4.723,0,0,1-4.939-4.5,4.67,4.67,0,0,1,.408-2.153,4.73,4.73,0,0,1,3.024-2.619l-.027,1.942,1.07-2.116h0a4.723,4.723,0,1,1,.442,9.436Z" transform="translate(-595.983 -510.486)" fill="#fafcff"/>
    <path id="Pfad_2548" data-name="Pfad 2548" d="M830.016,614.288a4.725,4.725,0,1,1,2.087-8.839l-.835,2.286,1.718-1.648a4.708,4.708,0,0,1,1.531,3.259,4.606,4.606,0,0,1-.121,1.3,4.725,4.725,0,0,1-4.38,3.64Z" transform="translate(-631.754 -486.695)" fill="#fafcff"/>
    <path id="Pfad_2549" data-name="Pfad 2549" d="M812.433,576.544c-1.09.119-2.148.459-3.242.527a3.522,3.522,0,0,1-2.987-1.046,14.429,14.429,0,0,1-.874-1.536,3.347,3.347,0,0,0-1.189-1.119,4.723,4.723,0,1,0,8.829,3.133C812.789,576.513,812.612,576.525,812.433,576.544Z" transform="translate(-615.518 -462.859)" opacity="0.1"/>
    <path id="Pfad_2550" data-name="Pfad 2550" d="M830.026,622.737A4.728,4.728,0,0,1,825.534,616a3.538,3.538,0,0,1,.949.951,15.541,15.541,0,0,0,.937,1.56,3.85,3.85,0,0,0,3.131,1.1c1.138-.051,2.24-.376,3.376-.485.158-.015.318-.024.485-.029A4.725,4.725,0,0,1,830.026,622.737Z" transform="translate(-631.764 -495.144)" opacity="0.1"/>
    <path id="Pfad_2551" data-name="Pfad 2551" d="M782.781,654.44a4.723,4.723,0,0,1-4.939-4.5,4.669,4.669,0,0,1,.408-2.153,3.8,3.8,0,0,1,1,.971,16.153,16.153,0,0,0,1.027,1.592,4.368,4.368,0,0,0,3.342,1.17c1.206-.029,2.3-.311,3.458-.4a4.725,4.725,0,0,1-4.293,3.318Z" transform="translate(-595.983 -519.219)" opacity="0.1"/>
    <path id="Pfad_2552" data-name="Pfad 2552" d="M779.945,700.974a13.406,13.406,0,1,0-7.574-2.929,18.527,18.527,0,0,0,1.264,1.679,5.934,5.934,0,0,0,3.912,1.374A20.106,20.106,0,0,0,779.945,700.974Z" transform="translate(-590.815 -556.577)" opacity="0.1"/>
    <path id="Pfad_2553" data-name="Pfad 2553" d="M1076.134,622.065c1-1.854-.136-4.126-1.442-5.781s-2.9-3.373-2.864-5.482c.048-3.026,3.262-4.815,5.824-6.421a28.412,28.412,0,0,0,5.237-4.208,7.688,7.688,0,0,0,1.609-2.155,8.808,8.808,0,0,0,.485-3.827q-.167-6.484-.641-12.95" transform="translate(-818.627 -468.819)" fill="none" stroke="#3f3d56" stroke-miterlimit="10" stroke-width="4"/>
    <path id="Pfad_2554" data-name="Pfad 2554" d="M1114.061,566.212a4.715,4.715,0,0,0-2.357-3.868l-1.058,2.092.032-2.534a4.779,4.779,0,0,0-1.556-.187,4.723,4.723,0,1,0,4.939,4.5Z" transform="translate(-843.462 -454.029)" fill="#fafcff"/>
    <path id="Pfad_2555" data-name="Pfad 2555" d="M1080.993,690.529a4.72,4.72,0,1,1,.228-3.8l-2.951,2.4,3.252-.757A4.709,4.709,0,0,1,1080.993,690.529Z" transform="translate(-818.815 -546.375)" fill="#fafcff"/>
    <path id="Pfad_2556" data-name="Pfad 2556" d="M1083.781,644.706a4.722,4.722,0,0,1-4.938-4.5,4.669,4.669,0,0,1,.407-2.153,4.73,4.73,0,0,1,3.024-2.619l-.027,1.941,1.07-2.116h.012a4.723,4.723,0,1,1,.442,9.436Z" transform="translate(-823.935 -509.728)" fill="#fafcff"/>
    <path id="Pfad_2557" data-name="Pfad 2557" d="M1131.016,613.288a4.725,4.725,0,1,1,2.087-8.839l-.835,2.286,1.718-1.648a4.708,4.708,0,0,1,1.531,3.259,4.6,4.6,0,0,1-.121,1.3A4.725,4.725,0,0,1,1131.016,613.288Z" transform="translate(-859.705 -485.937)" fill="#fafcff"/>
    <path id="Pfad_2558" data-name="Pfad 2558" d="M1113.433,575.544c-1.09.119-2.148.459-3.242.527a3.523,3.523,0,0,1-2.988-1.046,14.45,14.45,0,0,1-.874-1.536,3.345,3.345,0,0,0-1.189-1.119,4.723,4.723,0,1,0,8.829,3.133C1113.789,575.513,1113.612,575.525,1113.433,575.544Z" transform="translate(-843.469 -462.102)" opacity="0.1"/>
    <path id="Pfad_2559" data-name="Pfad 2559" d="M1131.026,621.737a4.728,4.728,0,0,1-4.492-6.737,3.539,3.539,0,0,1,.949.951,15.521,15.521,0,0,0,.937,1.56,3.849,3.849,0,0,0,3.131,1.1c1.138-.051,2.24-.376,3.376-.485.158-.015.318-.024.485-.029A4.725,4.725,0,0,1,1131.026,621.737Z" transform="translate(-859.716 -494.386)" opacity="0.1"/>
    <path id="Pfad_2560" data-name="Pfad 2560" d="M1083.781,653.44a4.722,4.722,0,0,1-4.938-4.5,4.669,4.669,0,0,1,.407-2.153,3.8,3.8,0,0,1,1,.971,16.153,16.153,0,0,0,1.026,1.592,4.369,4.369,0,0,0,3.342,1.17c1.17-.024,2.3-.311,3.458-.4A4.725,4.725,0,0,1,1083.781,653.44Z" transform="translate(-823.935 -518.461)" opacity="0.1"/>
    <path id="Pfad_2561" data-name="Pfad 2561" d="M1080.944,699.974a13.409,13.409,0,1,0-7.574-2.929,18.5,18.5,0,0,0,1.264,1.679,5.933,5.933,0,0,0,3.912,1.374A20.119,20.119,0,0,0,1080.944,699.974Z" transform="translate(-818.766 -555.82)" opacity="0.1"/>
    <path id="Pfad_2562" data-name="Pfad 2562" d="M110.774,609.065c-1-1.854.136-4.126,1.442-5.781s2.9-3.373,2.864-5.482c-.049-3.026-3.262-4.815-5.824-6.421a28.413,28.413,0,0,1-5.237-4.208,7.688,7.688,0,0,1-1.609-2.155,8.807,8.807,0,0,1-.485-3.827q.167-6.485.641-12.95" transform="translate(-84.096 -458.974)" fill="none" stroke="#3f3d56" stroke-miterlimit="10" stroke-width="4"/>
    <path id="Pfad_2563" data-name="Pfad 2563" d="M84.464,553.212a4.715,4.715,0,0,1,2.356-3.868l1.058,2.092-.032-2.534a4.779,4.779,0,0,1,1.556-.187,4.723,4.723,0,1,1-4.939,4.5Z" transform="translate(-70.878 -444.184)" fill="#fafcff"/>
    <path id="Pfad_2564" data-name="Pfad 2564" d="M117.529,677.529a4.72,4.72,0,1,0-.228-3.8l2.951,2.4L117,675.369A4.708,4.708,0,0,0,117.529,677.529Z" transform="translate(-95.522 -536.529)" fill="#fafcff"/>
    <path id="Pfad_2565" data-name="Pfad 2565" d="M114.809,631.706a4.723,4.723,0,0,0,4.939-4.5,4.669,4.669,0,0,0-.408-2.153,4.73,4.73,0,0,0-3.024-2.619l.027,1.941-1.07-2.116h0a4.723,4.723,0,1,0-.442,9.436Z" transform="translate(-90.47 -499.883)" fill="#fafcff"/>
    <path id="Pfad_2566" data-name="Pfad 2566" d="M67.484,600.29a4.725,4.725,0,1,0-2.075-8.839l.835,2.286-1.73-1.641a4.708,4.708,0,0,0-1.531,3.252,4.611,4.611,0,0,0,.121,1.3A4.725,4.725,0,0,0,67.484,600.29Z" transform="translate(-54.61 -476.094)" fill="#fafcff"/>
    <path id="Pfad_2567" data-name="Pfad 2567" d="M85.426,562.544c1.09.119,2.148.459,3.242.527a3.523,3.523,0,0,0,2.987-1.046,14.426,14.426,0,0,0,.874-1.536,3.347,3.347,0,0,1,1.189-1.119A4.723,4.723,0,1,1,84.89,562.5C85.07,562.513,85.247,562.525,85.426,562.544Z" transform="translate(-71.205 -452.257)" opacity="0.1"/>
    <path id="Pfad_2568" data-name="Pfad 2568" d="M67.865,608.737A4.727,4.727,0,0,0,72.357,602a3.538,3.538,0,0,0-.949.951,15.52,15.52,0,0,1-.937,1.56,3.85,3.85,0,0,1-3.131,1.1c-1.138-.051-2.24-.376-3.376-.485-.158-.015-.318-.024-.485-.029A4.725,4.725,0,0,0,67.865,608.737Z" transform="translate(-54.991 -484.541)" opacity="0.1"/>
    <path id="Pfad_2569" data-name="Pfad 2569" d="M115.393,640.44a4.723,4.723,0,0,0,4.939-4.5,4.669,4.669,0,0,0-.408-2.153,3.8,3.8,0,0,0-1,.971,16.169,16.169,0,0,1-1.027,1.592,4.369,4.369,0,0,1-3.342,1.17c-1.17-.024-2.3-.311-3.458-.4A4.725,4.725,0,0,0,115.393,640.44Z" transform="translate(-91.054 -508.616)" opacity="0.1"/>
    <path id="Pfad_2570" data-name="Pfad 2570" d="M119.18,686.974a4.723,4.723,0,0,0,8.61-3.854,4.755,4.755,0,0,0-1.036.925,18.529,18.529,0,0,1-1.264,1.679,5.933,5.933,0,0,1-3.912,1.374A20.094,20.094,0,0,1,119.18,686.974Z" transform="translate(-97.173 -545.974)" opacity="0.1"/>
    <path id="Pfad_2571" data-name="Pfad 2571" d="M541.424,609.095a3.769,3.769,0,0,0-1.5-3.038,216.485,216.485,0,0,0-6.618-7.606h0a3.715,3.715,0,0,0-.546-.129h-.053l-.095-.012h-.5A4.317,4.317,0,0,0,527.94,602c-1.347-.311-2.582.092-2.8.944a1.153,1.153,0,0,0,.036.682,2.953,2.953,0,0,0,1.978,1.6l.131.039c.066.019.131.034.2.049h.044a3.4,3.4,0,0,0,1.483,4.443.752.752,0,0,0-.087.056,1.213,1.213,0,0,0-.291.408,5.913,5.913,0,0,0-.563,1.357c-.1.405-.114.83-.243,1.23a11,11,0,0,0-.854,2.141c-.029.344.027.75-.219.985a1.609,1.609,0,0,1-.194.143,1.5,1.5,0,0,0-.427.447,1.428,1.428,0,0,1-.284.393c-.221.167-.585.15-.694.408s.172.561.107.842c-.053.228-.3.333-.485.485a1.72,1.72,0,0,0-.413.784,2.509,2.509,0,0,1-2.07-.527,3.882,3.882,0,0,1,.214.774,3.262,3.262,0,0,0-1.116-.558,3.566,3.566,0,0,1-1.189-.883l.636-.087-2.815-4.271-.83-.17.745,1.429a.447.447,0,0,0-.243.306,1.3,1.3,0,0,0-.029.485,8.986,8.986,0,0,0,.192,1.138l.216,1a2.6,2.6,0,0,0,.07.279,2.828,2.828,0,0,0-.835.095,7.334,7.334,0,0,0-1.73-.41.882.882,0,0,0-.391.019.945.945,0,0,0-.364.3,11.644,11.644,0,0,0-1.286,1.81,60.789,60.789,0,0,1-5.422,7.3c-1.306.531-2.621,1.036-3.939,1.536l-2.832,1.08a4.255,4.255,0,0,1-1.755.4c-.272-.017-.6-.058-.755.172a1.46,1.46,0,0,0-.172.369c-.1,0-.2.024-.291.029h-.017a3.362,3.362,0,0,0-.68-1.25.422.422,0,0,0-.32.243c-.068.126-.109.265-.187.381-.153.223-.417.333-.607.522s-.308.485-.512.67a2.032,2.032,0,0,1-.971.376,6.13,6.13,0,0,0-1.507.573,2.578,2.578,0,0,1-.558.257,2.1,2.1,0,0,1-.653.022l-1.5-.109a1.168,1.168,0,0,0-.4.017.745.745,0,0,0-.485.769,1.2,1.2,0,0,0,.473.825,3.155,3.155,0,0,0,.854.444,24.815,24.815,0,0,0,4.016,1.177v.3a6.811,6.811,0,0,0,3.06.728.456.456,0,0,0,.228-.041.507.507,0,0,0,.192-.3,12.375,12.375,0,0,0,.6-2.939h0a1.514,1.514,0,0,0,.541-.138c.517-.141,1.029.214,1.56.272a4.274,4.274,0,0,0,1.883-.546c.09-.034.18-.063.269-.092a3.016,3.016,0,0,1-.619.6c-.257.184-.546.32-.8.512a5.317,5.317,0,0,1-.672.522,4.056,4.056,0,0,1-.517.2,3.51,3.51,0,0,0-.728.366,1.515,1.515,0,0,0-.5.485.663.663,0,0,0,.451,1.034,2.084,2.084,0,0,0,.614.017c.811-.061,1.619-.136,2.427-.209a6.784,6.784,0,0,0,1.017-.146c.177-.044.352-.1.529-.148a4.282,4.282,0,0,1,.925-.138.769.769,0,0,1,.269.027c.189.061.323.243.514.291a.794.794,0,0,0,.366-.051,8.417,8.417,0,0,1,1.8-.192c.265-.015.575-.066.7-.311.15-.3-.1-.643-.2-.971a2.926,2.926,0,0,1-.083-.636,3.965,3.965,0,0,0-.447-1.512,4.1,4.1,0,0,1-.332-.689,17.536,17.536,0,0,0,3.31-1.679,6,6,0,0,1,1.888-.908,5.07,5.07,0,0,1,2.371.274,53.307,53.307,0,0,1,5.434,1.9,26.97,26.97,0,0,0,2.568.971,4,4,0,0,0,.91.888,4.207,4.207,0,0,0,1.978.539,25.953,25.953,0,0,0,2.781.1,4.7,4.7,0,0,0,2.073-.383,2.4,2.4,0,0,0,.434-.286,1.719,1.719,0,0,0,1.364-.5,3.3,3.3,0,0,0,1.044-1.638c.223-.876.051-1.9.59-2.614.143-.192.33-.347.471-.541a1.456,1.456,0,0,0,.243-.881l.024-.036a3.274,3.274,0,0,0,.243-.883,5.06,5.06,0,0,1,.243-.7,21.028,21.028,0,0,0,.713-2.07,11.359,11.359,0,0,0,.33-1.42c.058-.383.092-.769.124-1.155a6.966,6.966,0,0,1,.349-1.774,14.492,14.492,0,0,0,.8-4.252v-.085a2.847,2.847,0,0,0,2.536-2.874,3.042,3.042,0,0,0-.262-1.24,3.849,3.849,0,0,0,.5-1.929ZM527.7,625.77c.041.148.09.3.138.444-.223-.221-.444-.449-.67-.667.09.027.18.056.267.087a1.606,1.606,0,0,1,.267.136Zm-1.087-.728c-1.325-1.15-2.859-2.043-4.215-3.155.728.366,1.456.791,2.184,1.2q1.272.728,2.573,1.393a2.091,2.091,0,0,1-.534.553Zm.566-2.9.063-.066v.454c-.119-.039-.243-.078-.357-.121a3.02,3.02,0,0,0,.3-.277Zm-11.666,3.116a11,11,0,0,0,1.415-2.017,13.221,13.221,0,0,0,2.106,2.352c-1.17-.165-2.342-.294-3.519-.345Z" transform="translate(-377.975 -481.747)" fill="url(#linear-gradient)"/>
    <path id="Pfad_2572" data-name="Pfad 2572" d="M574.53,545.12l.837.17,2.852,4.213-1.26.17Z" transform="translate(-435.1 -412.794)" fill="#2f2e41"/>
    <path id="Pfad_2573" data-name="Pfad 2573" d="M519.48,733.526a16.589,16.589,0,0,0,.832,2.184,20.181,20.181,0,0,0,2.781-.794,7.573,7.573,0,0,0-.578-.784,2.724,2.724,0,0,0-.786-.6,2.14,2.14,0,0,0-.954-.015Q520.128,733.538,519.48,733.526Z" transform="translate(-400.326 -584.101)" fill="#fbbebe"/>
    <path id="Pfad_2574" data-name="Pfad 2574" d="M499.391,730.938a1.746,1.746,0,0,1-.951-1.082,3.518,3.518,0,0,0-.711-1.3.425.425,0,0,0-.32.243c-.07.121-.112.26-.192.376-.15.218-.417.325-.609.512s-.311.471-.517.658a2.056,2.056,0,0,1-.971.374,6.149,6.149,0,0,0-1.519.563,2.594,2.594,0,0,1-.563.243,2.134,2.134,0,0,1-.658.022l-1.512-.109a1.179,1.179,0,0,0-.4.019.728.728,0,0,0-.485.757,1.175,1.175,0,0,0,.485.813,3.221,3.221,0,0,0,.859.437,25.9,25.9,0,0,0,4.053,1.158v.3a7.017,7.017,0,0,0,3.085.728.486.486,0,0,0,.243-.041.5.5,0,0,0,.194-.3,11.935,11.935,0,0,0,.629-3.286,2.466,2.466,0,0,0-.063-.844c-.083-.272.2-.158-.063-.265" transform="translate(-377.983 -580.387)" fill="#2f2e41"/>
    <path id="Pfad_2575" data-name="Pfad 2575" d="M555.38,711.146c-4.482.272-8.909-1.044-13.4-1.184a6.7,6.7,0,0,0-1.665.107,8.181,8.181,0,0,0-1.65.641c-2.4,1.119-4.895,2.046-7.383,2.973l-2.854,1.063a4.443,4.443,0,0,1-1.772.391c-.272-.017-.6-.058-.76.17a2.8,2.8,0,0,0,.063,2.471c.1.243.267.522.534.551a1.573,1.573,0,0,0,.546-.138c.519-.138,1.039.211,1.573.267a4.385,4.385,0,0,0,1.9-.536,17.714,17.714,0,0,1,3.252-.551,14.531,14.531,0,0,0,5.1-2.116,5.983,5.983,0,0,1,1.9-.893,5.208,5.208,0,0,1,2.39.269,55.128,55.128,0,0,1,5.477,1.866,25.236,25.236,0,0,0,2.864,1.044,10.353,10.353,0,0,0,6.417-.374c.728-.284,1.495-.784,1.536-1.558.024-.442-.318-.83-.546-1.214-.148-.243-.294-.485-.454-.716C557.679,712.551,556.742,711.063,555.38,711.146Z" transform="translate(-404.986 -566.293)" fill="#2f2e41"/>
    <path id="Pfad_2576" data-name="Pfad 2576" d="M555.38,711.146c-4.482.272-8.909-1.044-13.4-1.184a6.7,6.7,0,0,0-1.665.107,8.181,8.181,0,0,0-1.65.641c-2.4,1.119-4.895,2.046-7.383,2.973l-2.854,1.063a4.443,4.443,0,0,1-1.772.391c-.272-.017-.6-.058-.76.17a2.8,2.8,0,0,0,.063,2.471c.1.243.267.522.534.551a1.573,1.573,0,0,0,.546-.138c.519-.138,1.039.211,1.573.267a4.385,4.385,0,0,0,1.9-.536,17.714,17.714,0,0,1,3.252-.551,14.531,14.531,0,0,0,5.1-2.116,5.983,5.983,0,0,1,1.9-.893,5.208,5.208,0,0,1,2.39.269,55.128,55.128,0,0,1,5.477,1.866,25.236,25.236,0,0,0,2.864,1.044,10.353,10.353,0,0,0,6.417-.374c.728-.284,1.495-.784,1.536-1.558.024-.442-.318-.83-.546-1.214-.148-.243-.294-.485-.454-.716C557.679,712.551,556.742,711.063,555.38,711.146Z" transform="translate(-404.986 -566.293)" opacity="0.1"/>
    <path id="Pfad_2577" data-name="Pfad 2577" d="M554.93,728.807q1.053.357,2.121.66c.4-.658,1.148-1.114,1.318-1.864a.175.175,0,0,0,0-.1.18.18,0,0,0-.08-.073,3.968,3.968,0,0,0-1.662-.485c-.461-.029-.67.451-.879.789C555.675,727.871,555.117,728.87,554.93,728.807Z" transform="translate(-427.173 -579.164)" fill="#fbbebe"/>
    <path id="Pfad_2578" data-name="Pfad 2578" d="M537.383,729.3a1.526,1.526,0,0,1-1.031-.677c-.1-.172-.2-.405-.4-.393s-.267.231-.308.413a11.79,11.79,0,0,1-.58,1.992,3.735,3.735,0,0,1-1.24,1.628c-.26.18-.549.315-.8.5a5.306,5.306,0,0,1-.68.514,3.84,3.84,0,0,1-.522.194,3.586,3.586,0,0,0-.745.362,1.517,1.517,0,0,0-.507.485.653.653,0,0,0,.442,1.022,2.2,2.2,0,0,0,.619.015c.818-.061,1.633-.133,2.449-.206a6.951,6.951,0,0,0,1.027-.141c.18-.044.354-.1.531-.148a4.5,4.5,0,0,1,.934-.136.79.79,0,0,1,.272.027c.189.061.323.243.517.286a.8.8,0,0,0,.369-.048,8.736,8.736,0,0,1,1.815-.189c.267-.015.582-.066.7-.306.153-.3-.1-.633-.2-.954a3,3,0,0,1-.085-.626,3.812,3.812,0,0,0-.449-1.488c-.209-.383-.485-.806-.347-1.213a1.061,1.061,0,0,0,.138-.415C539.264,729.143,537.752,729.386,537.383,729.3Z" transform="translate(-408.639 -580.136)" fill="#2f2e41"/>
    <path id="Pfad_2579" data-name="Pfad 2579" d="M608.7,672.96a3.514,3.514,0,0,1-1.786-1.774c-.073-.17-.136-.347-.206-.519a3.974,3.974,0,0,0-1.068-1.48.512.512,0,0,0-.4-.167.422.422,0,0,0-.291.311,1.273,1.273,0,0,0-.032.485,9.137,9.137,0,0,0,.194,1.119l.218.99a1.942,1.942,0,0,0,.136.442,1.538,1.538,0,0,0,.364.434c.2.184.4.362.6.534a2.142,2.142,0,0,0,.366.267,2.245,2.245,0,0,0,.682.2,5.882,5.882,0,0,1,2.546.971s0-.662-.017-.728a.971.971,0,0,0-.189-.531A3.208,3.208,0,0,0,608.7,672.96Z" transform="translate(-465.022 -535.296)" fill="#fbbebe"/>
    <path id="Pfad_2580" data-name="Pfad 2580" d="M608.7,672.96a3.514,3.514,0,0,1-1.786-1.774c-.073-.17-.136-.347-.206-.519a3.974,3.974,0,0,0-1.068-1.48.512.512,0,0,0-.4-.167.422.422,0,0,0-.291.311,1.273,1.273,0,0,0-.032.485,9.137,9.137,0,0,0,.194,1.119l.218.99a1.942,1.942,0,0,0,.136.442,1.538,1.538,0,0,0,.364.434c.2.184.4.362.6.534a2.142,2.142,0,0,0,.366.267,2.245,2.245,0,0,0,.682.2,5.882,5.882,0,0,1,2.546.971s0-.662-.017-.728a.971.971,0,0,0-.189-.531A3.208,3.208,0,0,0,608.7,672.96Z" transform="translate(-465.022 -535.296)" opacity="0.1"/>
    <ellipse id="Ellipse_257" data-name="Ellipse 257" cx="1.09" cy="1.097" rx="1.09" ry="1.097" transform="translate(151.71 127.899)" fill="#2f2e41"/>
    <path id="Pfad_2581" data-name="Pfad 2581" d="M631.765,646.715a1.213,1.213,0,0,0-.862.124,1.159,1.159,0,0,0-.294.4,5.721,5.721,0,0,0-.568,1.335c-.1.4-.114.818-.243,1.213-.223.728-.8,1.347-.862,2.107-.029.34.027.74-.221.971a1.424,1.424,0,0,1-.2.138,1.491,1.491,0,0,0-.43.442,1.4,1.4,0,0,1-.3.42c-.223.165-.59.148-.7.4s.172.551.107.828c-.053.226-.306.33-.485.485a1.68,1.68,0,0,0-.415.774,2.57,2.57,0,0,1-2.085-.522,6.572,6.572,0,0,1,.323,2.386.985.985,0,0,1-.192.728,12.33,12.33,0,0,1,2.56.444,1.757,1.757,0,0,0,1.116,0,1.845,1.845,0,0,0,.512-.408,3.251,3.251,0,0,0,1.056-1.624,8.829,8.829,0,0,0,.019-1.1,6.337,6.337,0,0,1,.279-1.337,15.635,15.635,0,0,0,.485-2.754c.051-.575.546-1.036.808-1.551a7.662,7.662,0,0,0,1.034-3.065C632.245,647.2,632.124,646.761,631.765,646.715Z" transform="translate(-479.64 -518.382)" fill="#2f2e41"/>
    <path id="Pfad_2582" data-name="Pfad 2582" d="M631.765,646.715a1.213,1.213,0,0,0-.862.124,1.159,1.159,0,0,0-.294.4,5.721,5.721,0,0,0-.568,1.335c-.1.4-.114.818-.243,1.213-.223.728-.8,1.347-.862,2.107-.029.34.027.74-.221.971a1.424,1.424,0,0,1-.2.138,1.491,1.491,0,0,0-.43.442,1.4,1.4,0,0,1-.3.42c-.223.165-.59.148-.7.4s.172.551.107.828c-.053.226-.306.33-.485.485a1.68,1.68,0,0,0-.415.774,2.57,2.57,0,0,1-2.085-.522,6.572,6.572,0,0,1,.323,2.386.985.985,0,0,1-.192.728,12.33,12.33,0,0,1,2.56.444,1.757,1.757,0,0,0,1.116,0,1.845,1.845,0,0,0,.512-.408,3.251,3.251,0,0,0,1.056-1.624,8.829,8.829,0,0,0,.019-1.1,6.337,6.337,0,0,1,.279-1.337,15.635,15.635,0,0,0,.485-2.754c.051-.575.546-1.036.808-1.551a7.662,7.662,0,0,0,1.034-3.065C632.245,647.2,632.124,646.761,631.765,646.715Z" transform="translate(-479.64 -518.382)" opacity="0.1"/>
    <path id="Pfad_2583" data-name="Pfad 2583" d="M581.256,689.988a10.059,10.059,0,0,1-2.371-1.98c-1.442-1.354-3.2-2.31-4.718-3.58a30.276,30.276,0,0,0-3-2.521,7.46,7.46,0,0,0-3.218-1.128.892.892,0,0,0-.393.019.944.944,0,0,0-.366.291,11.443,11.443,0,0,0-1.3,1.784c-1.92,3.257-4.645,6-6.9,9.028a.405.405,0,0,0-.027.548l.459.9c.257.5.67,1.09,1.213.99a1.346,1.346,0,0,0,.643-.41l2.063-1.973,2.162-2.068a16.682,16.682,0,0,0,3.383-4c.646,1.119,1.791,1.852,2.577,2.878.3.388.541.818.808,1.23.43.663.915,1.284,1.4,1.9l2.483,3.167a4.8,4.8,0,0,0,1.148,1.165,4.4,4.4,0,0,0,1.995.531,25.7,25.7,0,0,0,2.8.1,4.81,4.81,0,0,0,2.087-.376,1.922,1.922,0,0,0,1.133-1.682,2.5,2.5,0,0,0-.357-1.051A8.283,8.283,0,0,0,581.256,689.988Z" transform="translate(-430.151 -544.191)" fill="#2f2e41"/>
    <ellipse id="Ellipse_258" data-name="Ellipse 258" cx="0.837" cy="0.842" rx="0.837" ry="0.842" transform="translate(152.632 128.914)" fill="#e8e8f0"/>
    <path id="Pfad_2584" data-name="Pfad 2584" d="M656.538,641.851a1.6,1.6,0,0,1,.092,1.213,4.693,4.693,0,0,1-.539,1.116,5.566,5.566,0,0,1-.7,1,7.192,7.192,0,0,0,3.689-1.061,5.3,5.3,0,0,0,2.327-2.029,1.078,1.078,0,0,1-.857-.158,3.21,3.21,0,0,1-.658-.612l-.648-.728a2.912,2.912,0,0,1-.4-.527,1.456,1.456,0,0,1-.172-.847,4.85,4.85,0,0,1-.859.714c-.464.3-.971.522-1.439.82-.165.107-.531.279-.437.485S656.407,641.618,656.538,641.851Z" transform="translate(-503.253 -512.728)" fill="#fbbebe"/>
    <path id="Pfad_2585" data-name="Pfad 2585" d="M656.538,641.851a1.6,1.6,0,0,1,.092,1.213,4.693,4.693,0,0,1-.539,1.116,5.566,5.566,0,0,1-.7,1,7.192,7.192,0,0,0,3.689-1.061,5.3,5.3,0,0,0,2.327-2.029,1.078,1.078,0,0,1-.857-.158,3.21,3.21,0,0,1-.658-.612l-.648-.728a2.912,2.912,0,0,1-.4-.527,1.456,1.456,0,0,1-.172-.847,4.85,4.85,0,0,1-.859.714c-.464.3-.971.522-1.439.82-.165.107-.531.279-.437.485S656.407,641.618,656.538,641.851Z" transform="translate(-503.253 -512.728)" opacity="0.1"/>
    <path id="Pfad_2586" data-name="Pfad 2586" d="M644.211,650.134a1.094,1.094,0,0,0,0,1.264c.036.046.175.335.243.337a.221.221,0,0,0,.148-.075,10.3,10.3,0,0,0,.82-.971,1.81,1.81,0,0,1,1.044-.684,2.283,2.283,0,0,1,1.439.447,1.374,1.374,0,0,1,.485.4,1.322,1.322,0,0,1,.163.548,25.671,25.671,0,0,1,.146,3.485,13.408,13.408,0,0,1-.165,2.507c-.083.427-.206.845-.265,1.277a8.579,8.579,0,0,0-.051,1.145v1.6a4.072,4.072,0,0,0,.063.876,10.71,10.71,0,0,0,.352,1.017,6.708,6.708,0,0,1,.243,1.213l.218,1.658a2.025,2.025,0,0,1-.2,1.514c-.141.192-.33.342-.485.531-.546.694-.364,1.7-.607,2.563a3.244,3.244,0,0,1-1.053,1.614,1.7,1.7,0,0,1-1.386.485,1.9,1.9,0,0,1-1.262-1.49,5.782,5.782,0,0,0-.648-1.941,5.119,5.119,0,0,0-1.281-1.073,2.222,2.222,0,0,1-1-1.3c-.044-.243-.017-.485-.041-.728a1.735,1.735,0,0,0-1.073-1.408c-.345-.133-.772-.182-.971-.485a2.337,2.337,0,0,0,1.01-1.357,6.967,6.967,0,0,0,.243-1.7l.116-1.927a6.382,6.382,0,0,1,.454-2.49c.17-.345.381-.67.556-1.012a11.233,11.233,0,0,0,.6-1.485c.274-.789.551-1.58.8-2.378a4.708,4.708,0,0,1,.437-1.109C643.524,650.643,643.822,650.207,644.211,650.134Z" transform="translate(-490.909 -520.885)" fill="#e8e8f0"/>
    <path id="Pfad_2587" data-name="Pfad 2587" d="M642.391,661.624l.51.017.109-.769a1.663,1.663,0,0,1,.107-.449,2.866,2.866,0,0,1,.294-.43,5.574,5.574,0,0,0,.59-2.512,12.484,12.484,0,0,1,1.121-3.284l.99-2.206a3.176,3.176,0,0,0,.211-.565,3.109,3.109,0,0,0,.061-.653c0-.34.112-1.58.119-1.922,0-.126-.277-.056-.335-.167-.124-.243-.294.417-.527.563a1.292,1.292,0,0,0-.456.667c-.214.556-.344,1.141-.544,1.7a3.492,3.492,0,0,1-.925,1.5c-.2.18-.437.32-.629.51a3.439,3.439,0,0,0-.7,2.427C642.377,656.584,642.277,661.624,642.391,661.624Z" transform="translate(-493.368 -519.856)" fill="#2f2e41"/>
    <path id="Pfad_2588" data-name="Pfad 2588" d="M658.294,646.614a1.765,1.765,0,0,0-.905,1.247,6.1,6.1,0,0,1-.464,1.529c-.621,1.082-2.206,1.4-2.645,2.568a4.693,4.693,0,0,0-.177,1.213c-.078.837-.354,1.648-.437,2.485a10.961,10.961,0,0,0,.046,1.954l.556,6.608a8.735,8.735,0,0,1-.167,2.912,2.8,2.8,0,0,0,1.665-.274c.522-.243,1-.563,1.5-.84a15.213,15.213,0,0,0,2.565-1.456,1.52,1.52,0,0,0,.347-.381,3.28,3.28,0,0,0,.243-.871,4.9,4.9,0,0,1,.243-.684,20.331,20.331,0,0,0,.728-2.039,10.973,10.973,0,0,0,.332-1.4c.061-.376.092-.757.126-1.136a6.69,6.69,0,0,1,.352-1.747,14.009,14.009,0,0,0,.808-4.186,2.1,2.1,0,0,0-.041-.616,3.3,3.3,0,0,0-.335-.7c-.231-.435-.369-.913-.587-1.352a6.578,6.578,0,0,0-2.267-2.383C659.311,646.758,658.8,646.423,658.294,646.614Z" transform="translate(-501.93 -518.286)" fill="#2f2e41"/>
    <path id="Pfad_2589" data-name="Pfad 2589" d="M606.256,684.3a3.98,3.98,0,0,1-1.056-.8c-.138-.163-.243-.345-.393-.5a2.594,2.594,0,0,0-1.327-.757,6.406,6.406,0,0,0-1.539-.148,2.733,2.733,0,0,0-1.022.124,1.032,1.032,0,0,0-.68.728,1.2,1.2,0,0,0,.517,1.075,2.5,2.5,0,0,0,1.031.5,8.551,8.551,0,0,0,.932.109,13.546,13.546,0,0,1,5.079,2.1q2.119,1.2,4.32,2.24a8.632,8.632,0,0,0,.073-1.325c0-.33-.024-.835-.337-1.029a6.914,6.914,0,0,0-1.374-.415,21.787,21.787,0,0,1-2.764-1.116C607.21,684.837,606.725,684.577,606.256,684.3Z" transform="translate(-461.477 -545.189)" fill="#fbbebe"/>
    <ellipse id="Ellipse_259" data-name="Ellipse 259" cx="3.269" cy="3.288" rx="3.269" ry="3.288" transform="translate(149.531 122.169)" fill="#fbbebe"/>
    <path id="Pfad_2590" data-name="Pfad 2590" d="M651.54,660.846a5.316,5.316,0,0,0-.633,1.182,25.246,25.246,0,0,0-1.354,2.427c-.335.915-.323,2-.971,2.725a.939.939,0,0,0-.284.413,2.051,2.051,0,0,1-.034.3c-.092.262-.522.274-.6.541-.022.078,0,.163-.039.243-.066.172-.291.2-.444.3-.318.216-.243.716-.485,1.027a.862.862,0,0,1-.815.286,3.025,3.025,0,0,1-.849-.318.761.761,0,0,0-.3-.095.618.618,0,0,0-.352.119,2.173,2.173,0,0,0-.883,1.864,6.067,6.067,0,0,0,.5,2.082.876.876,0,0,0,.167.311.729.729,0,0,0,.815.058,3.8,3.8,0,0,1,.794-.354c.5-.092,1,.257,1.512.228a2.131,2.131,0,0,0,1.022-.451,5.655,5.655,0,0,0,1.378-1.177c.223-.294.388-.629.585-.942a10.671,10.671,0,0,1,.825-1.1l1.886-2.308a4.96,4.96,0,0,0,.507-.7,5.141,5.141,0,0,0,.4-1.053,8.325,8.325,0,0,0,.391-1.876,7.489,7.489,0,0,0-.138-1.575,5.472,5.472,0,0,0-.405-1.5C653.306,660.651,652.309,659.948,651.54,660.846Z" transform="translate(-494.241 -528.789)" fill="#2f2e41"/>
    <path id="Pfad_2591" data-name="Pfad 2591" d="M652.356,611.24a3.682,3.682,0,0,0-1.514-2.992,4.368,4.368,0,0,0-3.715-4.259,4.247,4.247,0,0,0-8.365.226c-1.359-.306-2.6.092-2.827.93-.243.876.728,1.9,2.165,2.289a3.978,3.978,0,0,0,1.386.138,4.259,4.259,0,0,0,2.927,1.82,4.351,4.351,0,0,0,3.191,3.293,3.64,3.64,0,0,0,.985,1.364c0,.1-.017.206-.017.313a2.769,2.769,0,1,0,5.533,0,2.913,2.913,0,0,0-.265-1.214A3.72,3.72,0,0,0,652.356,611.24Z" transform="translate(-488.49 -483.467)" fill="#f86d70"/>
    <path id="Pfad_2592" data-name="Pfad 2592" d="M636.826,605.249c.226-.837,1.456-1.235,2.827-.93a4.317,4.317,0,0,1,4.206-3.64h.281a4.124,4.124,0,0,0-1.213-.18,4.317,4.317,0,0,0-4.206,3.64c-1.359-.306-2.6.092-2.827.93-.243.876.728,1.9,2.165,2.289a4.153,4.153,0,0,0,.818.141C637.513,607.1,636.6,606.106,636.826,605.249Z" transform="translate(-488.46 -483.405)" opacity="0.1"/>
    <path id="Pfad_2593" data-name="Pfad 2593" d="M659.022,636.795a1.952,1.952,0,0,1,.017-.315,3.626,3.626,0,0,1-.985-1.361,4.369,4.369,0,0,1-3.191-3.3,4.252,4.252,0,0,1-2.927-1.82,3.859,3.859,0,0,1-.815-.022,4.245,4.245,0,0,0,2.82,1.675,4.351,4.351,0,0,0,3.191,3.293,3.641,3.641,0,0,0,.985,1.364c0,.1-.017.206-.017.313a2.818,2.818,0,0,0,2.752,2.864A2.859,2.859,0,0,1,659.022,636.795Z" transform="translate(-500.019 -505.731)" opacity="0.1"/>
    <ellipse id="Ellipse_260" data-name="Ellipse 260" cx="0.505" cy="0.672" rx="0.505" ry="0.672" transform="translate(153.081 125.897) rotate(-37.22)" fill="#fbbebe"/>
    <path id="Pfad_2594" data-name="Pfad 2594" d="M307.236,689.422l3.233-1.9a7.766,7.766,0,0,0-1.653-1.978l-6.1,1.9,4.776-2.808a7.766,7.766,0,0,0-11.5,6.812c0,4.288,3.478,4.436,7.766,4.436s7.766-.148,7.766-4.436a7.706,7.706,0,0,0-.667-3.155Z" transform="translate(-231.082 -546.396)" fill="#fafcff"/>
    <path id="Pfad_2595" data-name="Pfad 2595" d="M308.059,709.1a6.062,6.062,0,0,0-1.146-.9,5.288,5.288,0,0,0-1.886-.92,14.243,14.243,0,0,0-1.852-.053,4.327,4.327,0,0,1-2.837-1.3,8.7,8.7,0,0,0-1.32-1.366,2.888,2.888,0,0,0-1.975-.362,4.794,4.794,0,0,0-.585.119,7.765,7.765,0,0,0-.459,2.636c0,4.288,3.478,4.436,7.766,4.436a16.29,16.29,0,0,0,5.366-.561l-.243-.434A6.039,6.039,0,0,0,308.059,709.1Z" transform="translate(-231.082 -561.901)" opacity="0.1"/>
  </g>
</svg>
