<svg xmlns="http://www.w3.org/2000/svg" width="237.442" height="197.394" viewBox="0 0 237.442 197.394">
  <g id="Gruppe_508" data-name="Gruppe 508" transform="translate(0)">
    <path id="Pfad_2186" data-name="Pfad 2186" d="M323.508,427.929l-23.871,11.3,21.126-15.8a119.221,119.221,0,0,0-11.535-15.178l-103.52,25.73,93.508-35.67a119.191,119.191,0,0,0-13.579-10.35L127.9,413.37a118.217,118.217,0,0,0-25.891,73.775H339.448A118.156,118.156,0,0,0,323.508,427.929Z" transform="translate(-102.006 -304.055)" fill="#fff"/>
    <path id="Pfad_2187" data-name="Pfad 2187" d="M360.528,318.966a118.8,118.8,0,0,0-143.238,30.79C254.582,341.585,319.51,327.441,360.528,318.966Z" transform="translate(-189.807 -242.393)" fill="#fff"/>
    <path id="Pfad_2188" data-name="Pfad 2188" d="M688.953,716.814q-4.915-.833-9.455-1.43l1.2-2.32c-.4-.14-2.176,1.188-2.176,1.188l1.57-6.732c-2.029.245-3.06,7.119-3.06,7.119l-2.267-2.324,1.1,2.613a209.322,209.322,0,0,0-23.988-1.51l1.024-1.985c-.4-.14-2.176,1.188-2.176,1.188l1.57-6.733c-2.029.245-3.06,7.119-3.06,7.119l-2.267-2.324,1.162,2.768a134.727,134.727,0,0,0-13.79.937c1.036-3.093,4.554-6.034,4.554-6.034a7.874,7.874,0,0,0-4.833,3.386A54.23,54.23,0,0,1,637.191,693s-5.553,12.085-4.845,20.2l.085,1.44a55.29,55.29,0,0,0-7.075,1.375Z" transform="translate(-500.59 -536.375)" fill="#3f3d56"/>
    <path id="Pfad_2189" data-name="Pfad 2189" d="M380.8,715q-4.915-.833-9.455-1.43l1.2-2.319c-.4-.14-2.176,1.188-2.176,1.188l1.57-6.733c-2.029.245-3.06,7.119-3.06,7.119l-2.267-2.324,1.1,2.613a209.306,209.306,0,0,0-23.988-1.51l1.024-1.985c-.4-.14-2.176,1.188-2.176,1.188l1.57-6.733c-2.029.245-3.06,7.119-3.06,7.119l-2.267-2.324,1.162,2.768a134.829,134.829,0,0,0-13.79.937c1.036-3.092,4.554-6.034,4.554-6.034a7.874,7.874,0,0,0-4.832,3.386,54.224,54.224,0,0,1,3.134-18.735s-5.553,12.084-4.845,20.2l.085,1.44A55.351,55.351,0,0,0,317.2,714.2Z" transform="translate(-265.898 -534.993)" fill="#3f3d56"/>
    <path id="Pfad_2190" data-name="Pfad 2190" d="M428.055,797.734c0,3.687-34.262,14.781-76.526,14.781S275,801.421,275,797.734s34.262,1.43,76.526,1.43S428.055,794.048,428.055,797.734Z" transform="translate(-233.761 -615.121)" fill="#3f3d56"/>
    <path id="Pfad_2191" data-name="Pfad 2191" d="M428.055,797.734c0,3.687-34.262,14.781-76.526,14.781S275,801.421,275,797.734s34.262,1.43,76.526,1.43S428.055,794.048,428.055,797.734Z" transform="translate(-233.761 -615.121)" opacity="0.1"/>
    <ellipse id="Ellipse_216" data-name="Ellipse 216" cx="76.556" cy="6.755" rx="76.556" ry="6.755" transform="translate(40.529 176.379)" fill="#3f3d56"/>
    <ellipse id="Ellipse_217" data-name="Ellipse 217" cx="65.298" cy="3.753" rx="65.298" ry="3.753" transform="translate(57.041 177.88)" opacity="0.1"/>
    <path id="Pfad_2192" data-name="Pfad 2192" d="M388.122,582.635c.107,15.187-8.885,20.553-20.021,20.632q-.388,0-.772,0-.774-.011-1.533-.06c-10.056-.641-17.905-6.161-18-20.285-.1-14.617,18.449-33.194,19.84-34.568h0l.08-.079S388.015,567.448,388.122,582.635Z" transform="translate(-289.197 -426.146)" fill="#fafcff"/>
    <path id="Pfad_2193" data-name="Pfad 2193" d="M403.358,600.949l7.3-10.357-7.313,11.488-.011,1.183q-.774-.011-1.533-.06l.688-15.2-.007-.118.013-.022.065-1.436-7.493-11.412,7.508,10.337.021.3.519-11.484-6.429-11.8,6.493,9.784.457-23.8,0-.079v.078l.028,18.77,6.263-7.485-6.279,9.1-.095,10.28,5.83-9.906-5.843,11.417-.053,5.716,8.466-13.791-8.485,15.785Z" transform="translate(-325.204 -426.147)" fill="#3f3d56"/>
    <path id="Pfad_2194" data-name="Pfad 2194" d="M479.155,214.671h18.851l-6.262-10.121-4.411-.368,2.585-2.585-15.753-25.461v-4.158h-2.118l-12.852-30.772,2.218-3.049-2.218-1.663h-1.231l-7.195-65.286h1.08l1.663-4.713V57.346h-2.218V52.911h-2.772V44.317h-.554V36h-.554v8.317h-.832v8.594h-2.495v4.436h-2.5v9.148l1.941,4.713h1.121l-5.4,65.286h-.023l-3.6,1.109,1.94,3.327.139.277h-.139l-10.789,30.772h-2.8l.277,4.158-23.287,38.534h19.129v-4.436H419s3.6-24.4,29.663-26.613c26.613-.554,31.6,26.059,31.6,26.059h-1.109Zm12.983-9.01.739,2.587-3.327-2.218Zm-4.066.739,4.066,2.587-4.436-.37Zm-4.805,2.587,2.587-2.957,1.109,2.957Zm-4.33-16.356.951,2.218-4.119-2.218Zm-1.228-1.426.317-1.9,3.485,2.218Zm5.927,10.02,1.109,2.587-4.805-2.587Zm-5.016-1.941,2.218-2.535.951,2.535Zm3.8-.317.317-1.9,3.485,2.218Zm3.8,5.214-1.479-2.957h4.066Zm.634-5.531-2.851-1.9,2.218-.317Zm-.951-3.168-3.8-.317,2.218-2.218Zm-4.752-.317-1.267-2.535h3.485Zm.99-4.277-2.851-1.9,2.218-.317Zm-.95-3.168-3.8-.317,2.218-2.218Zm-4.753-.317-1.267-2.535h3.485Zm-4.277-4.238.317-1.9,3.485,2.218Zm3.01,3.921-4.119-2.218h3.168Zm1.426-4.238-2.852-1.9,2.218-.317Zm-.951-3.168-3.8-.317,2.218-2.218Zm-2.534-2.851-2.218,2.535-1.267-2.535Zm-3.485,2.218-4.119-2.218h3.168ZM438.5,171.978l5.728-25.5H453.1l7.582,25.5Zm19.491,7.346-4.119-2.218h3.168Zm-7.287-.554-1.109,1.267-.634-1.267Zm-1.743,1.109L446.9,178.77h1.584Zm-13.742-15.8,4.158-2.495-1.109,4.713Zm2.218,2.772h-6.653l3.6-2.218Zm10.2-88.456-1.173,1.173-1.173-1.173Zm-2.346-.512,1.173-1.173,1.173,1.173Zm2.346,3.327h-2.346l1.173-1.173ZM446.7,79.8l1.173-1.173v2.346Zm1.13,2.5v2.772l-1.386-1.386Zm-1.13-5.822,1.173-1.173v2.346Zm.3-3.049.924-.924v1.848Zm.739,1.109h-1.848l.924-.924Zm-.924-1.294-.924-.924h1.848Zm-.185.185-.924.924V72.5Zm1.009,1.642-1.173,1.173-1.173-1.173Zm-1.408,1.407-1.173,1.173V75.3Zm0,3.327-1.173,1.173V78.629Zm1.322,2.218-1.386,1.386-1.386-1.386Zm0,3.327h-2.772l1.386-1.386Zm.277,1.109v2.772l-1.386-1.386Zm-.277-.277-1.386,1.386-1.386-1.386Zm0,3.327h-2.772l1.386-1.386Zm.213,1.343V94.26l-1.706-1.706Zm-.341,3.753h-3.412l1.706-1.706Zm.341,1.237V99.25l-1.706-1.706Zm-.341-.341L445.717,97.2,444.011,95.5Zm0,4.094h-3.412l1.706-1.706Zm.267,1.418v4.158l-2.079-2.079Zm-.416,4.574h-4.158L445.2,103.5Zm.416,1.525v4.158l-2.079-2.079Zm-.416-.416-2.079,2.079-2.079-2.079Zm0,4.99h-4.158L445.2,109.6Zm.341,1.706v4.9l-2.452-2.452Zm-.49,5.4h-4.9l2.452-2.452Zm.427,2.6v5.544l-2.772-2.772Zm-.555,6.1h-5.544l2.772-2.772Zm.512,2.282v5.971l-2.986-2.985Zm-.6-.6-2.985,2.985-2.986-2.985Zm0,7.165h-5.971l2.986-2.985ZM440.2,153.82h-5.544l3.327-1.941Zm-1.663-2.495,3.6-2.218-.832,4.99Zm2.218,3.881-.832,4.713-2.218-2.495Zm-1.386-.554L436.6,156.87l-1.94-2.218ZM439.1,160.2h-5.822l3.049-2.218ZM441,176.83l-1.267,2.535-2.218-2.535Zm.95,0h3.168L441,179.047Zm20.866-13.387-2.892,2.42-1.427-4.627Zm-4.985-3.828-1.15-4.645,3.193,2.005Zm3.464-2.181,3.193,2.006-5.808.4Zm-.352-1.087-2.917-2.024,4.7-.32Zm-3.8-2.8,2.081-2.087,3.451,1.71Zm-1.088.352-1.169-4.922,3.746,1.968ZM449.3,136.334l2.986-2.986,2.985,2.986Zm-.6-.6v-5.971l2.985,2.985Zm.6-6.568h5.971l-2.985,2.985Zm-.085-1.685,2.772-2.772,2.772,2.772Zm-.555-.554v-5.544l2.772,2.772Zm-.064-8.637v-4.9l2.452,2.452Zm2.943-1.962,2.452,2.452h-4.9ZM449.513,79.8l-1.173,1.173V78.629Zm-.938-1.407h2.346l-1.173,1.173Zm-.192,8.061,1.386,1.386-1.386,1.386Zm.277-.277h2.772l-1.386,1.386Zm-.213,9.66,1.706,1.706-1.706,1.706Zm.341-.341H452.2L450.494,97.2Zm-.267,11.612,2.079,2.079-2.079,2.079Zm.416-.416H453.1l-2.079,2.079Zm2.079,2.911,2.079,2.079h-4.158Zm.416-.416,2.079-2.079v4.158Zm-2.5-3.6,2.079-2.079,2.079,2.079Zm-.416-.416v-4.158l2.079,2.079Zm1.973-7.282,1.706,1.706h-3.412Zm.341-.341,1.706-1.706V99.25ZM448.788,94.6l1.706-1.706L452.2,94.6Zm-.341-.341V90.848l1.706,1.706Zm1.6-6.142,1.386,1.386H448.66Zm.277-.277,1.386-1.386v2.772Zm-1.663-2.5,1.386-1.386,1.386,1.386Zm-.277-.277V82.3l1.386,1.386Zm1.365-5.033,1.173,1.173h-2.346Zm.235-.235,1.173-1.173v2.346Zm-1.407-1.919,1.173-1.173,1.173,1.173Zm-.235-.235V75.3l1.173,1.173Zm1.244-4.222.924-.924v1.848Zm.739,1.109h-1.848l.924-.924ZM449.4,73.24l-.924-.924h1.848Zm-.185.185-.924.924V72.5Zm12.257,103.682-2.218,2.535-1.267-2.535Zm-.682-10.748,2.892-2.42,3.746,1.968Zm7.135-1.319-3.765-2.244,2.1-1.81Zm-4.633-2.741-3.451-1.71,5.531-.377Zm1.691-3.727-3.174-1.729,1.785-2.344Zm-2.093-6.248-3.174-1.729,1.8-2.068Zm-1.684-4.331-2.062,2.363-3.746-1.968Zm-5.338-12.255-2.986-2.986,2.986-2.985Zm-.555-8.807-2.772-2.772,2.772-2.772Zm-3.327-3.327-2.772-2.772h5.544Zm2.495-5.31-2.452-2.452,2.452-2.452Zm-2.943-2.943-2.452-2.452h4.9Zm1.973-10.183-2.079-2.079,2.079-2.079Zm-2.5-2.5-2.079-2.079H453.1Zm1.525-8.413-1.706-1.706,1.706-1.706Zm-2.047-2.047-1.706-1.706H452.2Zm1.216-7.144-1.386-1.386L451.71,82.3Zm-1.663-1.663-1.386-1.386h2.772Zm1.109-5.758-1.173-1.173,1.173-1.173Zm-1.408-1.407-1.173-1.173h2.346ZM444.5,82.3l1.386,1.386L444.5,85.069Zm0,4.158,1.386,1.386L444.5,89.227Zm2.921,4.052-1.706,1.706-1.706-1.706Zm-3.753.341,1.706,1.706L443.67,94.26Zm0,4.99,1.706,1.706L443.67,99.25Zm3.6,4.755-2.079,2.079-2.079-2.079Zm-4.574.416,2.079,2.079-2.079,2.079Zm0,6.1,2.079,2.079-2.079,2.079Zm4.425,5.79-2.452,2.452L442.22,112.9Zm-5.4.49,2.452,2.452-2.452,2.452ZM447,120.831l-2.772,2.772-2.772-2.772Zm-6.1.554,2.772,2.772L440.9,126.93Zm-.554,8.381,2.985,2.985-2.985,2.986Zm1.247,18.787-3.6,2.218-2.218-2.218Zm-6.1.554,1.941,1.941-3.05,1.941Zm-1.663,6.1,1.941,2.218-3.049,1.941Zm4.158,5.822-3.327,1.941-2.218-1.941Zm-6.376.832,2.218,1.663-3.6,2.495Zm1.584,14.97-4.119,2.218.95-2.218Zm-4.119,0-1.267,2.535-2.218-2.535Zm-4.436.317,2.218,2.218-3.8.317Zm3.564,7.723-4.119,2.218.951-2.218Zm-5.465-1.386,3.485-2.218.317,1.9Zm0-2.851,2.218.317-2.851,1.9Zm1.346,4.238-1.267,2.535-2.218-2.535Zm-4.436.317,2.218,2.218-3.8.317Zm-.33,16.039-4.805,2.587,1.109-2.587Zm-6.284-1.941,3.485-2.218.317,1.9Zm4.436,0,.951-2.535,2.218,2.535Zm6.02-6.653-4.119,2.218.951-2.218Zm-5.742-1.109,3.485-2.218.317,1.9Zm0-2.851,2.218.317-2.851,1.9Zm1.624,3.96-1.267,2.535-2.218-2.535Zm-4.436.317,2.218,2.218-3.8.317Zm-1.9,3.485,2.218.317-2.851,1.9Zm1.479,4.792-1.479,2.957-2.587-2.957Zm-7.393,4.436,2.587.37-3.327,2.218Zm0,3.327,4.066-2.587.37,2.218Zm.37-4.436,1.848-2.957,2.587,2.587Zm4.805,4.436,1.109-2.957,2.587,2.957Zm5.175-.37-2.588-2.957,4.436-.37Zm2.218-4.436h-4.066L420.8,201.6Zm2.218-5.214-2.218-2.535,3.8-.317Zm1.9-3.8h-3.485l4.436-2.218Zm-1.624-3.643.951-2.535,2.218,2.535Zm4.436-.317-2.218-2.535,3.8-.317Zm1.9-3.8h-3.485l4.436-2.218Zm-1.347-3.921.951-2.535,2.218,2.535Zm4.436-.317-2.218-2.535,3.8-.317Zm-1.584-3.8,4.435-2.218-.95,2.218Zm4.633,1.267,2.218.317-2.852,1.9Zm0,2.851,3.485-2.218.317,1.9Zm.317-3.8,1.584-2.535,2.218,2.218Zm4.119,3.8.95-2.535,2.218,2.535Zm4.435-.317-2.218-2.535,3.8-.317Zm-1.584-3.8,4.436-2.218-.951,2.218Zm4.317-.436,2.218,1.109H446.74Zm.633,1.584,1.9.158-1.109,1.267Zm1.426,1.584,1.109-1.267.475,1.267Zm2.852-3.168.792,1.267-1.9-.158Zm-.951,3.01.159-.95,1.742,1.109Zm.792-1.109,1.109-.158.317,1.109Zm1.584-3.406,4.436,2.218h-3.485Zm1.267,3.168,3.8.317-2.218,2.535Zm2.852,3.168,2.218-2.535.95,2.535Zm5.7-6.337,1.584,2.535-3.8-.317Zm-1.9,6.02.317-1.9,3.485,2.218Zm1.584-2.218,2.218-.317.634,2.218Zm2.139-4.079,4.435,2.218h-3.485Zm1.267,3.168,3.8.317-2.218,2.535Zm5.069.634.951,2.535h-3.168Zm.158,6.455-.951-2.218,4.436,2.218Zm.317.951,3.8.317-2.218,2.535Zm5.069.634.951,2.535h-3.168Zm-1.624,3.96,4.436,2.218h-3.485Zm1.267,3.168,3.8.317-2.218,2.535Zm2.693,5.479,5.175,2.587h-4.066Zm1.479,3.7,4.436.37-2.587,2.957Z" transform="translate(-329.704 -36)" fill="#3f3d56"/>
    <rect id="Rechteck_1721" data-name="Rechteck 1721" width="3.604" height="1.663" transform="translate(112.996 22.455)" opacity="0.1"/>
    <rect id="Rechteck_1722" data-name="Rechteck 1722" width="3.604" height="1.663" transform="translate(118.818 22.455)" opacity="0.1"/>
    <path id="Pfad_2195" data-name="Pfad 2195" d="M863.778,765.082a10.764,10.764,0,0,0-4.164,5.3,9.267,9.267,0,0,0,10.821-6.381A10.763,10.763,0,0,0,863.778,765.082Z" transform="translate(-679.001 -590.35)" fill="#3f3d56"/>
    <path id="Pfad_2196" data-name="Pfad 2196" d="M864.328,752.166a10.764,10.764,0,0,1-5.179,4.318,9.266,9.266,0,0,1,6.06-11A10.764,10.764,0,0,1,864.328,752.166Z" transform="translate(-678.505 -576.341)" fill="#fafcff"/>
  </g>
</svg>
