<svg xmlns="http://www.w3.org/2000/svg" width="183.593" height="160.107" viewBox="0 0 183.593 160.107">
  <g id="Gruppe_510" data-name="Gruppe 510" transform="translate(0)">
    <path id="Pfad_2244" data-name="Pfad 2244" d="M344.486,352.958a8.4,8.4,0,0,1-1.293.03.282.282,0,0,0-.31.245l-.825,6.186a2.511,2.511,0,0,1-.532,1.225,2.671,2.671,0,0,0-.6,2.041v10.508s-.053,1.4,1.023,1.4a15.562,15.562,0,0,0,3.88,0s.862-.163.862-1.456V362.792a2.531,2.531,0,0,0-.532-2.057,2.575,2.575,0,0,1-.516-1.218l-.857-6.315a.282.282,0,0,0-.3-.243Z" transform="translate(-314.035 -297.221)" fill="#fff"/>
    <path id="Pfad_2245" data-name="Pfad 2245" d="M343.356,374.362a15.705,15.705,0,0,1-1.949-.121,1.047,1.047,0,0,1-.776-.318,1.937,1.937,0,0,1-.412-1.267v-10.49a2.858,2.858,0,0,1,.642-2.166,2.333,2.333,0,0,0,.493-1.137l.825-6.185a.462.462,0,0,1,.505-.4,8.187,8.187,0,0,0,1.256-.03h0a.459.459,0,0,1,.488.4l.857,6.316a2.4,2.4,0,0,0,.48,1.133,2.7,2.7,0,0,1,.569,2.182v10.331c0,1.423-1,1.628-1.006,1.63A15.822,15.822,0,0,1,343.356,374.362Zm-.716-21.728a.106.106,0,0,0-.11.091l-.825,6.187a2.69,2.69,0,0,1-.57,1.313,2.5,2.5,0,0,0-.563,1.908v10.53a1.609,1.609,0,0,0,.314,1.015.7.7,0,0,0,.532.208h.022a15.4,15.4,0,0,0,3.836,0c.017,0,.707-.161.707-1.28l0-10.378a2.35,2.35,0,0,0-.495-1.913,2.76,2.76,0,0,1-.554-1.306l-.857-6.316a.105.105,0,0,0-.109-.09,8.607,8.607,0,0,1-1.317.03h-.014Z" transform="translate(-313.506 -296.691)" fill="#3f3d56"/>
    <path id="Pfad_2246" data-name="Pfad 2246" d="M110.463,261.989h1.307a1.96,1.96,0,0,1,1.96,1.96v4.918a1.96,1.96,0,0,1-1.96,1.96h-1.307a1.96,1.96,0,0,1-1.96-1.96v-4.918a1.96,1.96,0,0,1,1.96-1.96Z" transform="translate(-81.314 -196.337)" fill="#fafcff"/>
    <path id="Pfad_2247" data-name="Pfad 2247" d="M20.43,573.282h4.261l2.027-16.436H20.429Z" transform="translate(-15.31 -417.306)" fill="#9f616a"/>
    <path id="Pfad_2248" data-name="Pfad 2248" d="M249.773,747.424h8.392a5.348,5.348,0,0,1,5.348,5.348v.174h-13.74Z" transform="translate(-245.74 -592.839)" fill="#2f2e41"/>
    <path id="Pfad_2249" data-name="Pfad 2249" d="M241.767,518.7s-1.847,2.088,1.211,10.225l-.539,44.621,9.91-.193,2.178-21.766,3.966-31.762Z" transform="translate(-239.326 -421.432)" fill="#2f2e41"/>
    <path id="Pfad_2250" data-name="Pfad 2250" d="M256.246,383.416l-.109-.017c-12.678-1.934-22.245-3.787-22.34-3.806l-.119-.023L237,371.487c-.026-.845-.746-24.564.632-31.378,1.333-6.6,7.617-7.678,8.333-7.78l.719-2.382,9.084,4.727,1.584,5.453.322,14.945Z" transform="translate(-233.679 -279.977)" fill="#3f3d56"/>
    <path id="Pfad_2251" data-name="Pfad 2251" d="M276.666,420.57a2.965,2.965,0,0,0-2.178.953H259.219l-5.593,1.191.918,7.083,19.9-4.279a2.975,2.975,0,1,0,2.226-4.947Z" transform="translate(-248.627 -347.891)" fill="#9f616a"/>
    <circle id="Ellipse_222" data-name="Ellipse 222" cx="7.359" cy="7.359" r="7.359" transform="translate(11.727 46.69) rotate(-61.337)" fill="#9f616a"/>
    <path id="Pfad_2252" data-name="Pfad 2252" d="M287.229,269.477l-.357-.718,1.8-.892s1.98-3.222,5.564-2.317,5.2,1.447,5.2,1.447l1.791.9-.9.894,1.612.542-1.077.535,1.253.72-.675,3.693s-1.12-2.8-3.275-1.73-6.094-.553-6.094-.553l-3.423,6.625s-.706-2.322-1.965-1.7C286.675,276.921,283.458,271.8,287.229,269.477Z" transform="translate(-272.436 -231.598)" fill="#2f2e41"/>
    <path id="Pfad_2253" data-name="Pfad 2253" d="M251.195,373.45l-1.746-5.194-.422-17.314.744-2.457a6.863,6.863,0,1,1,12.962,4.485l-3.988,10.219.2.393,8.64-.07,3.069,5.524Z" transform="translate(-245.18 -290.218)" fill="#3f3d56"/>
    <path id="Pfad_2254" data-name="Pfad 2254" d="M590.122,416.814a2.659,2.659,0,0,0,.425-4.055l4.259-8.435-4.878.566-3.3,7.924a2.674,2.674,0,0,0,3.491,4Z" transform="translate(-497.668 -335.716)" fill="#ffb7b7"/>
    <path id="Pfad_2255" data-name="Pfad 2255" d="M488.3,517.8h-3.838L482.638,503H488.3Z" transform="translate(-361.694 -376.953)" fill="#ffb7b7"/>
    <path id="Pfad_2256" data-name="Pfad 2256" d="M705.815,692.586H693.44v-.157a4.817,4.817,0,0,1,4.816-4.816h7.559Z" transform="translate(-578.229 -548.016)" fill="#2f2e41"/>
    <path id="Pfad_2257" data-name="Pfad 2257" d="M404.6,517.8h-3.838L398.938,503H404.6Z" transform="translate(-298.968 -376.953)" fill="#ffb7b7"/>
    <path id="Pfad_2258" data-name="Pfad 2258" d="M618.368,692.586H605.993v-.156a4.817,4.817,0,0,1,4.816-4.817h7.559Z" transform="translate(-512.695 -548.015)" fill="#2f2e41"/>
    <path id="Pfad_2259" data-name="Pfad 2259" d="M399.783,312.572l-3.757,8.654-3.1,49.744,7.826-.313,2.138-23.713,6.594-21.12,3.791,23.546,1.565,20.661,6.476.28,2.581-57.739Z" transform="translate(-294.464 -234.245)" fill="#2f2e41"/>
    <path id="Pfad_2260" data-name="Pfad 2260" d="M664.25,272.694l-10.888.272-6.392,3.282-.351,24.21-3.987,16.715s24.91,1.714,28.353-.79l-4.07-19.1,5.458-20.637Z" transform="translate(-540.152 -237.072)" fill="#fff"/>
    <path id="Pfad_2261" data-name="Pfad 2261" d="M610.27,286.431l-1.013-.685s-4.2,1.259-5.44,6.858c0,0-.95,2.809-1.366,4.741-.478,2.215-11.033,22.563-11.033,22.563l6.319,1.813,11.585-18.736Z" transform="translate(-501.772 -246.853)" fill="#fff"/>
    <path id="Pfad_2262" data-name="Pfad 2262" d="M757.476,426.788a2.659,2.659,0,0,1,.71-4.015l-1.767-9.283,4.533,1.889.983,8.525a2.673,2.673,0,0,1-4.459,2.883Z" transform="translate(-625.425 -342.585)" fill="#ffb7b7"/>
    <path id="Pfad_2263" data-name="Pfad 2263" d="M745.793,288.5l1.163-.378s3.689,2.368,3.338,8.092c0,0,.138,2.962.006,4.934-.151,2.261,1.878,24.731,1.878,24.731H745.6l-2.817-20.348Z" transform="translate(-615.21 -248.636)" fill="#fff"/>
    <path id="Pfad_2264" data-name="Pfad 2264" d="M694.421,209.588a7.548,7.548,0,1,1-7.548-7.548h0a7.529,7.529,0,0,1,7.548,7.51Z" transform="translate(-567.651 -184.123)" fill="#ffb7b7"/>
    <path id="Pfad_2265" data-name="Pfad 2265" d="M678.457,185.585c.884-1.9,2.6-1.525,4.092-.881,1.9-.42,3.7-1.679,5.739-.935,2.011,2.925,8.764,2.065,7.327,6.827,0,1.141,2.147.477,1.772,2.346,1.138,3.6-4.109,10.408-7.122,8.974.745-1.366,2.447-4.467-.134-4.775-5.553,5.167-.573-9.839-7.55-5.475C680.27,193.781,677.107,187.7,678.457,185.585Z" transform="translate(-566.758 -170.258)" fill="#2f2e41"/>
    <path id="Pfad_2266" data-name="Pfad 2266" d="M759.807,398.852a2.508,2.508,0,0,0,3-2.4l18.951-17.838-4.264-3.4-17.32,18.648a2.522,2.522,0,0,0-.369,4.995Z" transform="translate(-626.435 -313.897)" fill="#9f616a"/>
    <path id="Pfad_2267" data-name="Pfad 2267" d="M830.97,371.13l-3.687-4.321a1.125,1.125,0,0,1,.259-1.683l4.8-3a3.123,3.123,0,0,1,4.041,4.764l-3.71,4.255a1.125,1.125,0,0,1-1.7-.009Z" transform="translate(-678.33 -303.533)" fill="#cbcbcb"/>
    <path id="Pfad_2268" data-name="Pfad 2268" d="M549.108,567.548h-4.634l-2.2-17.872h6.839Z" transform="translate(-406.383 -411.932)" fill="#9f616a"/>
    <path id="Pfad_2269" data-name="Pfad 2269" d="M763.271,751.5H748.33v-.189a5.816,5.816,0,0,1,5.815-5.815h9.126Z" transform="translate(-619.364 -591.396)" fill="#2f2e41"/>
    <path id="Pfad_2270" data-name="Pfad 2270" d="M696.916,567.548h-4.633l-2.2-17.872h6.839Z" transform="translate(-517.151 -411.932)" fill="#9f616a"/>
    <path id="Pfad_2271" data-name="Pfad 2271" d="M911.079,751.5H896.138v-.189a5.816,5.816,0,0,1,5.815-5.815h9.126Z" transform="translate(-730.132 -591.396)" fill="#2f2e41"/>
    <path id="Pfad_2272" data-name="Pfad 2272" d="M785.007,376.3l4.671-17.256-6.059-3.406H775.16l-3.29,3.519s-5.5,3.824-4.166,8.061l2.146,9.65L766.569,392.2l-16.537,22.933-3.914,22.526,15.409,4.04,16.663-32.81,8.079,36.329,15.03-.756-5.179-44.049s-1.476-13.419-9.215-21.8Z" transform="translate(-617.706 -299.233)" fill="#2f2e41"/>
    <path id="Pfad_2273" data-name="Pfad 2273" d="M912.445,414.448a2.508,2.508,0,0,0-.321-3.833L908.5,386.166l-5.2,1.642,5.207,23.547a2.522,2.522,0,0,0,3.94,3.092Z" transform="translate(-735.498 -322.109)" fill="#9f616a"/>
    <path id="Pfad_2274" data-name="Pfad 2274" d="M907.005,372.664l-5.643.651a1.125,1.125,0,0,1-1.253-1.153l.183-5.66a3.123,3.123,0,1,1,6.208-.7l1.463,5.452a1.125,1.125,0,0,1-.958,1.408Z" transform="translate(-733.108 -304.769)" fill="#cbcbcb"/>
    <path id="Pfad_2275" data-name="Pfad 2275" d="M841.146,285.178v-7.271a9.743,9.743,0,0,1,19.486,0v7.271a1.31,1.31,0,0,1-1.309,1.309H842.455A1.31,1.31,0,0,1,841.146,285.178Z" transform="translate(-688.921 -233.677)" fill="#2f2e41"/>
    <circle id="Ellipse_223" data-name="Ellipse 223" cx="7.143" cy="7.143" r="7.143" transform="translate(150.271 42.655) rotate(-28.663)" fill="#9f616a"/>
    <path id="Pfad_2276" data-name="Pfad 2276" d="M831.948,286.316a7.716,7.716,0,0,1,7.707-7.707h1.454a7.716,7.716,0,0,1,7.707,7.707v.145h-3.073l-1.048-2.935-.21,2.935H842.9l-.529-1.481-.106,1.481H831.948Z" transform="translate(-682.028 -241.504)" fill="#2f2e41"/>
    <path id="Pfad_2277" data-name="Pfad 2277" d="M868.477,304.781a1.289,1.289,0,0,1-.1-1.369c1.541-2.931,3.7-8.347.835-11.687l-.206-.24h8.314v12.483l-7.553,1.333a1.34,1.34,0,0,1-.232.02,1.3,1.3,0,0,1-1.056-.54Z" transform="translate(-709.214 -251.154)" fill="#2f2e41"/>
    <path id="Pfad_2278" data-name="Pfad 2278" d="M504.208,362.484a2.88,2.88,0,0,0-.289.349l-13.547-.331-1.58-2.888-4.67,1.815,2.3,5.384a2.186,2.186,0,0,0,2.272,1.311L504,366.275a2.868,2.868,0,1,0,.208-3.791Z" transform="translate(-421.363 -302.21)" fill="#ffb7b7"/>
    <path id="Pfad_2279" data-name="Pfad 2279" d="M154.372,517.456h4.454l2.119-17.181h-6.574Z" transform="translate(-115.687 -374.911)" fill="#ffb7b7"/>
    <path id="Pfad_2280" data-name="Pfad 2280" d="M383.519,693.572h8.772a5.59,5.59,0,0,1,5.59,5.59v.182H383.519Z" transform="translate(-345.97 -552.482)" fill="#2f2e41"/>
    <path id="Pfad_2281" data-name="Pfad 2281" d="M295.593,513.468l4.1-1.75-4.8-16.632-6.045,2.583Z" transform="translate(-216.462 -371.022)" fill="#ffb7b7"/>
    <path id="Pfad_2282" data-name="Pfad 2282" d="M543.007,683.771l8.067-3.446h0a5.59,5.59,0,0,1,7.337,2.945l.071.167-13.208,5.642Z" transform="translate(-465.492 -542.216)" fill="#2f2e41"/>
    <path id="Pfad_2283" data-name="Pfad 2283" d="M184.118,253.454l.322,5.22-9.415,1.008-9.852,1.054,2.9-7.926Z" transform="translate(-123.782 -189.458)" fill="#ffb7b7"/>
    <path id="Pfad_2284" data-name="Pfad 2284" d="M417.517,313.5c-.107-.042-10.741-4.178-17.273-.8l-.161.083-1.3-6.414-.742-13.79,4.832-2.283,1.33-2.98,9.061-.536,1.862,2.554,6.34,2.078-3.789,22.146Z" transform="translate(-356.851 -247.629)" fill="#fff"/>
    <path id="Pfad_2285" data-name="Pfad 2285" d="M477.1,315.064l1.121-8.806,2.552-.777.043.016a3.213,3.213,0,0,1,1.826,2.473c.364,1.843,3.109,13.312,3.137,13.428l.028.115-6.448,2.58Z" transform="translate(-416.101 -261.642)" fill="#fff"/>
    <path id="Pfad_2286" data-name="Pfad 2286" d="M420.589,470.813l8.584-1.761L415.454,431.2l-4.7-12.913s-2.978-10.353-4.324-14.36l-.812-5.376L386.4,400.675s-5.369,7.884-3.738,20.735l-.738,48.3,8.584.44,7.19-48.715,12.619,26.705s3.977,11.4,6.823,13.866Z" transform="translate(-344.776 -331.387)" fill="#2f2e41"/>
    <path id="Pfad_2287" data-name="Pfad 2287" d="M384.323,368a2.876,2.876,0,0,0-.452.025L374.9,357.863l1.043-3.122-4.506-2.19-2.384,5.348a2.186,2.186,0,0,0,.583,2.558l11.762,9.966A2.868,2.868,0,1,0,384.323,368Z" transform="translate(-334.99 -296.917)" fill="#ffb7b7"/>
    <path id="Pfad_2288" data-name="Pfad 2288" d="M375.895,322.1l3.506-9.986c.394-1.177.888-1.892,1.467-2.126a.905.905,0,0,1,.727-.007l1.572,1.986,1.459,6.129-3.741,8.8Z" transform="translate(-340.257 -264.96)" fill="#fff"/>
    <path id="Pfad_2289" data-name="Pfad 2289" d="M418.9,228.543h-15.39a1.2,1.2,0,0,1-1.194-1.194v-6.634a8.889,8.889,0,1,1,17.778,0v6.634A1.2,1.2,0,0,1,418.9,228.543Z" transform="translate(-360.056 -191.456)" fill="#2f2e41"/>
    <circle id="Ellipse_224" data-name="Ellipse 224" cx="6.517" cy="6.517" r="6.517" transform="translate(46.457 23.898)" fill="#ffb7b7"/>
    <path id="Pfad_2290" data-name="Pfad 2290" d="M435.627,228.52h-9.411l-.1-1.351-.482,1.351h-1.449L424,225.842l-.956,2.678h-2.8v-.133a7.04,7.04,0,0,1,7.032-7.032H428.6a7.04,7.04,0,0,1,7.032,7.032Z" transform="translate(-373.487 -198.598)" fill="#2f2e41"/>
    <path id="Pfad_2291" data-name="Pfad 2291" d="M422.551,245.727a1.223,1.223,0,0,1-.211-.019l-6.891-1.216V233.1h7.586l-.188.219c-2.613,3.047-.644,7.989.762,10.663a1.176,1.176,0,0,1-.093,1.249A1.189,1.189,0,0,1,422.551,245.727Z" transform="translate(-369.899 -207.402)" fill="#2f2e41"/>
    <path id="Pfad_2292" data-name="Pfad 2292" d="M762.487,392.718a8.4,8.4,0,0,1-1.293.03.282.282,0,0,0-.31.245l-.825,6.186a2.511,2.511,0,0,1-.532,1.225,2.671,2.671,0,0,0-.6,2.041v10.508s-.053,1.4,1.023,1.4a15.563,15.563,0,0,0,3.88,0s.862-.163.862-1.456V402.552a2.531,2.531,0,0,0-.532-2.057,2.574,2.574,0,0,1-.516-1.218l-.857-6.315A.282.282,0,0,0,762.487,392.718Z" transform="translate(-627.289 -327.018)" fill="#fff"/>
    <path id="Pfad_2293" data-name="Pfad 2293" d="M761.356,414.122a15.706,15.706,0,0,1-1.949-.121,1.047,1.047,0,0,1-.776-.318,1.937,1.937,0,0,1-.412-1.267v-10.49a2.858,2.858,0,0,1,.642-2.166,2.333,2.333,0,0,0,.493-1.137l.825-6.185a.462.462,0,0,1,.505-.4,8.183,8.183,0,0,0,1.256-.03h0a.459.459,0,0,1,.488.4l.857,6.316a2.4,2.4,0,0,0,.48,1.133,2.7,2.7,0,0,1,.569,2.182v10.331c0,1.423-1,1.628-1.006,1.63A15.83,15.83,0,0,1,761.356,414.122Zm-.716-21.728a.106.106,0,0,0-.11.091l-.825,6.187a2.689,2.689,0,0,1-.57,1.313,2.5,2.5,0,0,0-.563,1.908v10.53a1.609,1.609,0,0,0,.314,1.015.7.7,0,0,0,.532.208h.022a15.4,15.4,0,0,0,3.836,0c.017,0,.707-.161.707-1.28l0-10.378a2.35,2.35,0,0,0-.495-1.913,2.76,2.76,0,0,1-.554-1.306l-.857-6.316a.105.105,0,0,0-.109-.09,8.611,8.611,0,0,1-1.317.03h-.014Z" transform="translate(-626.759 -326.488)" fill="#3f3d56"/>
    <path id="Pfad_2294" data-name="Pfad 2294" d="M528.463,301.749h1.307a1.96,1.96,0,0,1,1.96,1.96v4.918a1.96,1.96,0,0,1-1.96,1.96h-1.307a1.96,1.96,0,0,1-1.96-1.96v-4.918a1.96,1.96,0,0,1,1.96-1.96Z" transform="translate(-394.567 -226.134)" fill="#fafcff"/>
    <path id="Pfad_2295" data-name="Pfad 2295" d="M585.486,358.718a8.4,8.4,0,0,1-1.293.03.282.282,0,0,0-.31.245l-.825,6.186a2.512,2.512,0,0,1-.532,1.225,2.671,2.671,0,0,0-.6,2.041v10.508s-.053,1.4,1.023,1.4a15.563,15.563,0,0,0,3.88,0s.862-.163.862-1.456V368.552a2.531,2.531,0,0,0-.532-2.057,2.575,2.575,0,0,1-.516-1.218l-.857-6.315A.282.282,0,0,0,585.486,358.718Z" transform="translate(-494.643 -301.538)" fill="#fff"/>
    <path id="Pfad_2296" data-name="Pfad 2296" d="M584.356,380.122a15.711,15.711,0,0,1-1.949-.121,1.047,1.047,0,0,1-.776-.318,1.937,1.937,0,0,1-.412-1.267v-10.49a2.857,2.857,0,0,1,.642-2.166,2.333,2.333,0,0,0,.492-1.137l.825-6.185a.462.462,0,0,1,.505-.4,8.183,8.183,0,0,0,1.256-.03h0a.459.459,0,0,1,.488.4l.857,6.316a2.4,2.4,0,0,0,.48,1.133,2.7,2.7,0,0,1,.569,2.182v10.331c0,1.423-1,1.628-1.006,1.63A15.812,15.812,0,0,1,584.356,380.122Zm-.716-21.728a.106.106,0,0,0-.11.091l-.825,6.187a2.69,2.69,0,0,1-.57,1.313,2.5,2.5,0,0,0-.563,1.908v10.53a1.608,1.608,0,0,0,.314,1.015.7.7,0,0,0,.532.208h.022a15.4,15.4,0,0,0,3.836,0c.017,0,.707-.161.707-1.28l0-10.378a2.349,2.349,0,0,0-.495-1.913,2.76,2.76,0,0,1-.554-1.306l-.857-6.316a.105.105,0,0,0-.109-.09,8.612,8.612,0,0,1-1.317.03h-.015Z" transform="translate(-494.114 -301.008)" fill="#3f3d56"/>
    <path id="Pfad_2297" data-name="Pfad 2297" d="M351.463,267.749h1.307a1.96,1.96,0,0,1,1.96,1.96v4.918a1.96,1.96,0,0,1-1.96,1.96h-1.307a1.96,1.96,0,0,1-1.96-1.96v-4.918a1.96,1.96,0,0,1,1.96-1.96Z" transform="translate(-261.922 -200.654)" fill="#fafcff"/>
    <path id="Pfad_2298" data-name="Pfad 2298" d="M555.487,322.718a8.394,8.394,0,0,1-1.293.03.282.282,0,0,0-.31.245l-.825,6.186a2.511,2.511,0,0,1-.532,1.225,2.671,2.671,0,0,0-.6,2.041v10.508s-.053,1.4,1.023,1.4a15.559,15.559,0,0,0,3.88,0s.862-.163.862-1.456V332.552a2.531,2.531,0,0,0-.532-2.057,2.575,2.575,0,0,1-.516-1.218l-.857-6.315A.282.282,0,0,0,555.487,322.718Z" transform="translate(-472.161 -274.559)" fill="#fff"/>
    <path id="Pfad_2299" data-name="Pfad 2299" d="M554.356,344.122a15.706,15.706,0,0,1-1.949-.121,1.047,1.047,0,0,1-.776-.318,1.938,1.938,0,0,1-.412-1.267v-10.49a2.858,2.858,0,0,1,.642-2.166,2.332,2.332,0,0,0,.492-1.137l.825-6.185a.462.462,0,0,1,.505-.4,8.183,8.183,0,0,0,1.256-.03h0a.459.459,0,0,1,.488.4l.857,6.316a2.4,2.4,0,0,0,.48,1.133,2.7,2.7,0,0,1,.569,2.182v10.331c0,1.423-1,1.628-1.006,1.63A15.829,15.829,0,0,1,554.356,344.122Zm-.716-21.728a.106.106,0,0,0-.11.091l-.825,6.187a2.69,2.69,0,0,1-.57,1.313,2.5,2.5,0,0,0-.563,1.908v10.53a1.609,1.609,0,0,0,.314,1.015.7.7,0,0,0,.532.208h.022a15.4,15.4,0,0,0,3.836,0c.017,0,.707-.161.707-1.28l0-10.378a2.35,2.35,0,0,0-.495-1.913,2.759,2.759,0,0,1-.554-1.306l-.857-6.316a.105.105,0,0,0-.109-.09,8.615,8.615,0,0,1-1.317.03h-.014Z" transform="translate(-471.632 -274.029)" fill="#3f3d56"/>
    <path id="Pfad_2300" data-name="Pfad 2300" d="M321.463,231.749h1.307a1.96,1.96,0,0,1,1.96,1.96v4.918a1.96,1.96,0,0,1-1.96,1.96h-1.307a1.96,1.96,0,0,1-1.96-1.96v-4.918a1.96,1.96,0,0,1,1.96-1.96Z" transform="translate(-239.439 -173.675)" fill="#fafcff"/>
    <circle id="Ellipse_225" data-name="Ellipse 225" cx="6.265" cy="6.265" r="6.265" transform="translate(7.815 5.262)" fill="#fff"/>
    <circle id="Ellipse_226" data-name="Ellipse 226" cx="6.265" cy="6.265" r="6.265" transform="translate(152.155)" fill="#fff"/>
    <circle id="Ellipse_227" data-name="Ellipse 227" cx="4.511" cy="4.511" r="4.511" transform="translate(82.24 19.295)" fill="#fff"/>
  </g>
</svg>
