<svg xmlns="http://www.w3.org/2000/svg" xmlns:xlink="http://www.w3.org/1999/xlink" width="248.791" height="145.475" viewBox="0 0 248.791 145.475">
  <defs>
    <linearGradient id="linear-gradient" x1="0.5" y1="1" x2="0.5" gradientUnits="objectBoundingBox">
      <stop offset="0" stop-color="gray" stop-opacity="0.251"/>
      <stop offset="0.54" stop-color="gray" stop-opacity="0.122"/>
      <stop offset="1" stop-color="gray" stop-opacity="0.102"/>
    </linearGradient>
  </defs>
  <g id="Gruppe_531" data-name="Gruppe 531" transform="translate(0 0)">
    <path id="Pfad_2732" data-name="Pfad 2732" d="M627.193,621.095a4.419,4.419,0,0,1-5.422,0c-.757-5,1.165-14.817,1.618-17.031l.094-.444h2.19a1.522,1.522,0,0,1,.338.508C627.5,607.33,627.193,621.095,627.193,621.095Z" transform="translate(-451.924 -536.34)" fill="#535f89"/>
    <path id="Pfad_2733" data-name="Pfad 2733" d="M631.4,596.917v2.016h-.912v-2.016a2.646,2.646,0,0,1,.444-.037A2.979,2.979,0,0,1,631.4,596.917Z" transform="translate(-458.113 -531.649)" opacity="0.1"/>
    <path id="Pfad_2734" data-name="Pfad 2734" d="M630.11,604.179a2.584,2.584,0,0,1-1.253.3,2.479,2.479,0,0,1-1.347-.359l.094-.444h2.184A1.518,1.518,0,0,1,630.11,604.179Z" transform="translate(-456.04 -536.381)" opacity="0.1"/>
    <ellipse id="Ellipse_278" data-name="Ellipse 278" cx="1.828" cy="1.086" rx="1.828" ry="1.086" transform="translate(170.99 65.577)" fill="#dce2ed"/>
    <path id="Pfad_2744" data-name="Pfad 2744" d="M846.227,660.466a2.919,2.919,0,0,1-3.582,0c-.5-3.3.769-9.8,1.067-11.252.04-.192.064-.3.064-.3h1.432a1.017,1.017,0,0,1,.225.335C846.425,651.37,846.227,660.466,846.227,660.466Z" transform="translate(-605.667 -567.856)" fill="#535f89"/>
    <path id="Pfad_2745" data-name="Pfad 2745" d="M848.978,644.494v1.335h-.608v-1.335a1.525,1.525,0,0,1,.3-.024A2.037,2.037,0,0,1,848.978,644.494Z" transform="translate(-609.732 -564.766)" opacity="0.1"/>
    <path id="Pfad_2746" data-name="Pfad 2746" d="M848.141,649.214a1.737,1.737,0,0,1-.83.195,1.672,1.672,0,0,1-.891-.234c.039-.192.064-.3.064-.3h1.432A1.015,1.015,0,0,1,848.141,649.214Z" transform="translate(-608.375 -567.828)" opacity="0.1"/>
    <ellipse id="Ellipse_280" data-name="Ellipse 280" cx="1.207" cy="0.718" rx="1.207" ry="0.718" transform="translate(237.729 79.932)" fill="#dce2ed"/>
    <path id="Pfad_2755" data-name="Pfad 2755" d="M848.992,445.912v.931h-.158a1.871,1.871,0,0,1-.444-.052V445.9Z" transform="translate(-609.746 -426.585)" opacity="0.1"/>
    <path id="Pfad_2757" data-name="Pfad 2757" d="M391.685,698.531a13.655,13.655,0,0,0-9.218-1.153c-5.322,1.153-13.475.541-14.217.414" transform="translate(-275.625 -601.35)" opacity="0.1"/>
    <path id="Pfad_2758" data-name="Pfad 2758" d="M388.489,496.14s-1.3,20.431,1.007,24.46Z" transform="translate(-289.456 -461.546)" opacity="0.1"/>
    <path id="Pfad_2759" data-name="Pfad 2759" d="M373.6,576.57s1.66,19.135,2.81,22.876S373.6,576.57,373.6,576.57Z" transform="translate(-279.348 -517.516)" opacity="0.1"/>
    <path id="Pfad_2760" data-name="Pfad 2760" d="M356.069,421.86c-1.177.432-6.213,10.644-5.2,13.67S356.069,421.86,356.069,421.86Z" transform="translate(-263.435 -409.856)" opacity="0.1"/>
    <path id="Pfad_2761" data-name="Pfad 2761" d="M404.559,387c-.544.246-2.889,6.131-2.433,7.871S404.559,387,404.559,387Z" transform="translate(-299.158 -385.598)" opacity="0.1"/>
    <path id="Pfad_2762" data-name="Pfad 2762" d="M338.56,499.81c.584,5.933.912,9.817.529,14.567a56.17,56.17,0,0,0,.158,11.079" transform="translate(-254.964 -464.1)" opacity="0.1"/>
    <path id="Pfad_2774" data-name="Pfad 2774" d="M263.239,619.722a5.511,5.511,0,0,1-6.767,0c-.943-6.237,1.454-18.5,2.019-21.246l.119-.557h2.707a2,2,0,0,1,.423.633C263.613,602.543,263.239,619.722,263.239,619.722Z" transform="translate(-197.69 -532.373)" fill="#535f89"/>
    <path id="Pfad_2775" data-name="Pfad 2775" d="M268.46,589.535v2.518h-1.14v-2.521a3.3,3.3,0,0,1,.557-.043A3.647,3.647,0,0,1,268.46,589.535Z" transform="translate(-205.39 -526.507)" opacity="0.1"/>
    <path id="Pfad_2776" data-name="Pfad 2776" d="M266.858,598.553a3.236,3.236,0,0,1-1.563.368,3.12,3.12,0,0,1-1.685-.444l.119-.557h2.707a2,2,0,0,1,.423.633Z" transform="translate(-202.808 -532.373)" opacity="0.1"/>
    <ellipse id="Ellipse_283" data-name="Ellipse 283" cx="2.281" cy="1.353" rx="2.281" ry="1.353" transform="translate(60.206 63.412)" fill="#dce2ed"/>
    <path id="Pfad_2793" data-name="Pfad 2793" d="M711.21,567.506a7.834,7.834,0,0,1,5.289-.66,32.324,32.324,0,0,0,8.166.237" transform="translate(-514.285 -510.615)" opacity="0.1"/>
    <path id="Pfad_2794" data-name="Pfad 2794" d="M742.048,451.26s.742,11.736-.578,14.047Z" transform="translate(-535.342 -430.315)" opacity="0.1"/>
    <path id="Pfad_2795" data-name="Pfad 2795" d="M748.427,497.45s-.952,10.991-1.612,13.141S748.427,497.45,748.427,497.45Z" transform="translate(-538.978 -462.458)" opacity="0.1"/>
    <path id="Pfad_2796" data-name="Pfad 2796" d="M755.45,408.6c.675.249,3.567,6.116,2.99,7.849S755.45,408.6,755.45,408.6Z" transform="translate(-545.071 -400.629)" opacity="0.1"/>
    <path id="Pfad_2798" data-name="Pfad 2798" d="M771.615,453.37a44.651,44.651,0,0,0-.3,8.366,32.059,32.059,0,0,1-.091,6.362" transform="translate(-556.044 -431.783)" opacity="0.1"/>
    <path id="Pfad_2810" data-name="Pfad 2810" d="M386.146,405.72c-4.994,6.733-9.105,26.54-10.258,32.51l-8.7-.344c.547-5.137,11.064-25.877,13.989-31.567C382.746,406.109,384.421,405.9,386.146,405.72Z" transform="translate(-274.887 -398.624)" fill="#fafcff"/>
    <rect id="Rechteck_1787" data-name="Rechteck 1787" width="3.856" height="5.432" transform="translate(216.069 4.705)" fill="#dce0ed"/>
    <path id="Pfad_2811" data-name="Pfad 2811" d="M778.023,397.86v1.767a2.97,2.97,0,0,1-.836.112l-3.017-.024V397.86Z" transform="translate(-558.098 -393.155)" opacity="0.1"/>
    <rect id="Rechteck_1788" data-name="Rechteck 1788" width="3.856" height="4.753" transform="translate(181.826 4.769)" fill="#dce0ed"/>
    <path id="Pfad_2813" data-name="Pfad 2813" d="M665.416,398.07v1.521a2.975,2.975,0,0,1-.839.113l-3.017-.027v-1.6Z" transform="translate(-479.734 -393.301)" opacity="0.1"/>
    <ellipse id="Ellipse_290" data-name="Ellipse 290" cx="22.745" cy="24.929" rx="22.745" ry="24.929" transform="translate(12.335 77.116)" fill="#636780"/>
    <path id="Pfad_2816" data-name="Pfad 2816" d="M158.248,641.07c-11.9.8-21.328,11.633-21.328,24.88,0,10.678,6.125,19.786,14.734,23.335,11.9-.8,21.331-11.632,21.331-24.88C172.985,653.727,166.857,644.619,158.248,641.07Z" transform="translate(-114.646 -562.4)" opacity="0.1"/>
    <ellipse id="Ellipse_291" data-name="Ellipse 291" cx="18.46" cy="24.071" rx="18.46" ry="24.071" transform="translate(194.632 23.487)" fill="#636780"/>
    <path id="Pfad_2817" data-name="Pfad 2817" d="M717.1,462.93c-7.658,2.935-13.247,12.165-13.247,23.1,0,11.684,6.386,21.422,14.853,23.612,7.655-2.935,13.247-12.165,13.247-23.1C731.95,474.857,725.564,465.12,717.1,462.93Z" transform="translate(-509.163 -438.436)" opacity="0.1"/>
    <path id="Pfad_2818" data-name="Pfad 2818" d="M512.388,491.2l.344-8.737s-1.715-3.771-3.428-4.112-5.654-.557-5.654-.557-3.084,12.548-1.028,16.319S512.388,491.2,512.388,491.2Z" transform="translate(-368.641 -448.777)" fill="#fafcff"/>
    <path id="Pfad_2819" data-name="Pfad 2819" d="M512.388,491.2l.344-8.737s-1.715-3.771-3.428-4.112-5.654-.557-5.654-.557-3.084,12.548-1.028,16.319S512.388,491.2,512.388,491.2Z" transform="translate(-368.641 -448.777)" opacity="0.1"/>
    <path id="Pfad_2820" data-name="Pfad 2820" d="M432.268,489.047s-1.061-12.116,5.6-12.335c.858-.027,1.715-.049,2.57-.131,4.613-.447,17.2-1.417,15.692,1.457,0,0-3,10.538-.943,13.193Z" transform="translate(-320.131 -447.571)" fill="#fafcff"/>
    <path id="Pfad_2821" data-name="Pfad 2821" d="M739.016,528.988l8.929.258s1.542-16.45,2.056-17.733.772-7.454-.9-8.351-7.256-1.992-7.256-1.992l-4.118,9.376-.319,8.482Z" transform="translate(-532.517 -465.046)" fill="#fafcff"/>
    <path id="Pfad_2822" data-name="Pfad 2822" d="M739.016,528.988l8.929.258s1.542-16.45,2.056-17.733.772-7.454-.9-8.351-7.256-1.992-7.256-1.992l-4.118,9.376-.319,8.482Z" transform="translate(-532.517 -465.046)" opacity="0.1"/>
    <path id="Pfad_2823" data-name="Pfad 2823" d="M635.389,496.219l-.04-1.825a1.055,1.055,0,0,1,1.1-1.077c4.428.185,20.534.958,23.353,2.4,0,0-3.084,22.936.322,28.4l-1.156,18.375-39.45-2.956Z" transform="translate(-450.479 -459.581)" fill="#fafcff"/>
    <path id="Pfad_2824" data-name="Pfad 2824" d="M661.56,406.831c1.095-.109,2.4-.225,3.856-.341v2.193H661.56Z" transform="translate(-479.734 -399.16)" opacity="0.1"/>
    <path id="Pfad_2825" data-name="Pfad 2825" d="M778.023,411.62v.277H774.17V410.23A16.461,16.461,0,0,1,778.023,411.62Z" transform="translate(-558.098 -401.763)" opacity="0.1"/>
    <path id="Pfad_2826" data-name="Pfad 2826" d="M341.821,484.809a.359.359,0,0,1,.146-.228.514.514,0,0,1,.265-.024h0v.155h0a5.947,5.947,0,0,0-.55.563C341.735,485.119,341.775,484.964,341.821,484.809Zm13.956-4.093a.465.465,0,0,0,0-.064,13.474,13.474,0,0,1,.666-1.423A13.841,13.841,0,0,0,355.777,480.715Zm2.08-3.935c-.328.49-.727,1.122-1.119,1.855a8.617,8.617,0,0,1,1.119-1.855ZM303.52,519.338c1.548.061,2.837.033,2.837.033A11.379,11.379,0,0,1,303.52,519.338Zm2.84.03a3.241,3.241,0,0,1,1.965-.237,5.417,5.417,0,0,0-1.965.237Zm51.946-23.393.566-9.732s-.21,4.969-.14,7.119a6.994,6.994,0,0,1-.426,2.615Z" transform="translate(-230.58 -448.074)" fill="url(#linear-gradient)"/>
    <path id="Pfad_2827" data-name="Pfad 2827" d="M353.66,594.736s-.161.5-.374,1.131a14.772,14.772,0,0,1-1,2.564,14.464,14.464,0,0,1-2.874.3,8.886,8.886,0,0,1-6.058-1.925s.739-.532,1.521-1.15a8.6,8.6,0,0,0,1.77-1.66,8.23,8.23,0,0,1,2.378-1.74c.362-.207.608-.341.608-.341Z" transform="translate(-258.298 -528.198)" fill="#f899a5"/>
    <path id="Pfad_2828" data-name="Pfad 2828" d="M334.73,602.046s-14.221-.654-15.069-.842a1.517,1.517,0,0,1-1.022-1.186c-.283-.663,1.216-.52,1.216-.52h0c.152.024,1.825.3,3.4.5h0a10.363,10.363,0,0,0,2.737.152h0a5.373,5.373,0,0,1,1.9-.152,4.509,4.509,0,0,0-3.838-3.087l.058-.058a4.779,4.779,0,0,1,.812-.608c2.9.119,4.431,4.115,4.431,4.115h.024c.328.1,3.823,1.186,4.516,1.286h0C334.623,601.764,334.73,602.046,334.73,602.046Z" transform="translate(-241.077 -531.211)" fill="#f3b4b4"/>
    <path id="Pfad_2829" data-name="Pfad 2829" d="M308.254,598.986c-.055.179-.3.3-.712.338a4.622,4.622,0,0,1-.663,0h0a15.06,15.06,0,0,1-3.954-.888c-.219-.076-.426-.143-.626-.2h-.024a8.613,8.613,0,0,0-1.478-.3,3.021,3.021,0,0,0-1.895.237h0s-1.247.027-2.737-.033h0a22.242,22.242,0,0,1-3.415-.359h0c-.161-.034-.3-.073-.453-.113a3.159,3.159,0,0,1-.763-.3c-1.569-.943,3.716-1.578,3.716-1.578a2.755,2.755,0,0,0,1.6-.772l.055-.061.134-.134h0a7.29,7.29,0,0,1,.642-.5l.195-.131c1.052-.712,2.469-1.472,2.469-1.472a6,6,0,0,0,2.618-1.5,3.1,3.1,0,0,0,.365-.432h0l2.923-.754,2.013,4.836s.015.261.03.654A23,23,0,0,1,308.254,598.986Z" transform="translate(-222.037 -526.883)" fill="#f899a5"/>
    <path id="Pfad_2830" data-name="Pfad 2830" d="M309.955,608.823a4.613,4.613,0,0,1-.663,0h0a15.06,15.06,0,0,1-3.954-.888c-.219-.076-.426-.143-.626-.2h-.024a8.612,8.612,0,0,0-1.478-.3,3.021,3.021,0,0,0-1.895.237h0s-1.247.027-2.737-.033h0a22.242,22.242,0,0,1-3.415-.359h0c-.161-.034-.3-.073-.453-.113a3.62,3.62,0,0,1,.587-.024h0c.149.018,1.84.225,3.415.356h0a10.309,10.309,0,0,0,2.737.033h0a5.105,5.105,0,0,1,1.895-.237,4.519,4.519,0,0,0-3.969-2.917c.018-.021.04-.04.055-.061h0a5.018,5.018,0,0,1,.776-.633h.061c2.862.046,4.547,3.914,4.547,3.914h.024c.331.088,3.871,1.022,4.562,1.092h0A1.742,1.742,0,0,1,309.955,608.823Z" transform="translate(-224.45 -536.381)" opacity="0.1"/>
    <path id="Pfad_2831" data-name="Pfad 2831" d="M308.31,609.512s-14.236-.036-15.09-.185-1.074-1.144-1.074-1.144c-.3-.648,1.183-.569,1.183-.569h0c.149.018,1.825.225,3.415.359h0a10.6,10.6,0,0,0,2.737.033h0a5.08,5.08,0,0,1,1.895-.237,4.522,4.522,0,0,0-3.969-2.917l.055-.061a5.206,5.206,0,0,1,.785-.642c2.9,0,4.607,3.917,4.607,3.917h.024c.331.085,3.871,1.019,4.562,1.089h0C308.191,609.232,308.31,609.512,308.31,609.512Z" transform="translate(-222.637 -536.708)" fill="#f3b4b4"/>
    <path id="Pfad_2832" data-name="Pfad 2832" d="M366.61,594.757s-.161.5-.374,1.131a27.01,27.01,0,0,1-3.954-3.145,2.314,2.314,0,0,1-.322-.453c.362-.207.608-.341.608-.341Z" transform="translate(-271.248 -528.219)" opacity="0.1"/>
    <path id="Pfad_2833" data-name="Pfad 2833" d="M375.228,568.367l-.5,1.633-4.835,2.634A7.412,7.412,0,0,0,368.367,574a1.363,1.363,0,0,1-.772.608,10.73,10.73,0,0,0-.669.931,27.037,27.037,0,0,1-3.954-3.145c-.335-.383-.5-.706-.344-.885a50.783,50.783,0,0,1,4.428-3.491s2.317-3.041,2.418-2.986a15.391,15.391,0,0,0,1.949-1.7l.468-.438Z" transform="translate(-271.673 -507.996)" fill="#bdd3e8"/>
    <path id="Pfad_2834" data-name="Pfad 2834" d="M444.225,455.6l-4.708,8.327-1.727,3.294-9.2-1.341.207-.441.779-1.633.356-.748.055-.1L431,461.106l.058-.076.739-1.046,1.487-2.1a1.344,1.344,0,0,0,.487-.128,1.149,1.149,0,0,0,.557-.633c.526-1.3-.438-3.8-.438-3.8s3.491-8.515,4.7-3.829a8.92,8.92,0,0,0,4.866,5.778A6.685,6.685,0,0,0,444.225,455.6Z" transform="translate(-317.614 -428.103)" fill="#f899a5"/>
    <path id="Pfad_2835" data-name="Pfad 2835" d="M428,566.92v.806s3.041,2.91,2.64,5.283a14.363,14.363,0,0,0,.447,5.328l3.059-.219-.462-10.839Z" transform="translate(-317.204 -510.801)" fill="#bdd3e8"/>
    <path id="Pfad_2836" data-name="Pfad 2836" d="M434.146,578.118l-3.059.219a14.353,14.353,0,0,1-.447-5.328c.4-2.375-2.64-5.283-2.64-5.283v-.806l5.684.359.03.706Z" transform="translate(-317.204 -510.801)" opacity="0.05"/>
    <path id="Pfad_2837" data-name="Pfad 2837" d="M371.69,564.791a25.546,25.546,0,0,0-2.682,2.91c-1.077,1.432-2.91,3.491-2.91,3.491l-2.193,1.3-.912.885c-.335-.383-.5-.706-.344-.885A50.791,50.791,0,0,1,367.076,569s2.317-3.041,2.418-2.986a15.368,15.368,0,0,0,1.949-1.7Z" transform="translate(-271.687 -508.984)" opacity="0.05"/>
    <path id="Pfad_2838" data-name="Pfad 2838" d="M335.068,595.533a2.95,2.95,0,0,0-.252.243s-.046,1.429-1.165-1.928-3.9-2.552-3.9-2.552a.052.052,0,0,1-.021-.061c0-.091.161-.249.365-.432h0l2.923-.754,2.013,4.835S335.052,595.141,335.068,595.533Z" transform="translate(-248.82 -526.896)" opacity="0.1"/>
    <path id="Pfad_2839" data-name="Pfad 2839" d="M345.991,545.28l-1.7.046-1.165,1.657s-1.925,2.059-2.506,2.573-4.343,4.051-5.416,5.888c0,0-.985.493-.985.985s-1.879,1.925-1.879,1.925-1.971,1.341-1.7,1.521c0,0,2.777-.806,3.9,2.552s1.165,1.925,1.165,1.925a2.614,2.614,0,0,1,.672-.529c.268-.1,1.542-1.931,1.934-1.977a1.935,1.935,0,0,0,.8-.359l2.281-2.238,2.2-1.3s1.825-2.059,2.907-3.491a25.764,25.764,0,0,1,2.685-2.91Z" transform="translate(-249.43 -495.742)" fill="#bdd3e8"/>
    <path id="Pfad_2840" data-name="Pfad 2840" d="M353.22,580.91s3.041,1.475,2.91,1.788S353.22,580.91,353.22,580.91Z" transform="translate(-265.166 -520.536)" opacity="0.1"/>
    <path id="Pfad_2841" data-name="Pfad 2841" d="M361.12,579.73s.237,1.329,1.448,1.268S361.12,579.73,361.12,579.73Z" transform="translate(-270.663 -519.715)" opacity="0.1"/>
    <path id="Pfad_2842" data-name="Pfad 2842" d="M347.18,592a1.374,1.374,0,0,0,1.3.894C349.6,593.028,347.18,592,347.18,592Z" transform="translate(-260.963 -528.253)" opacity="0.1"/>
    <path id="Pfad_2843" data-name="Pfad 2843" d="M384.65,580.91s1.475.608,1.609,1.454S384.65,580.91,384.65,580.91Z" transform="translate(-287.037 -520.536)" opacity="0.1"/>
    <path id="Pfad_2844" data-name="Pfad 2844" d="M372.72,591.21A8.2,8.2,0,0,1,374.9,593.5,20.565,20.565,0,0,1,372.72,591.21Z" transform="translate(-278.736 -527.704)" opacity="0.1"/>
    <path id="Pfad_2845" data-name="Pfad 2845" d="M381.33,586.769a.989.989,0,0,1,1.01.213C382.75,587.408,381.33,586.769,381.33,586.769Z" transform="translate(-284.727 -524.574)" opacity="0.1"/>
    <path id="Pfad_2846" data-name="Pfad 2846" d="M404.885,536.93s-5.708-1.849-5.27,0,5.27,2.886,5.27,2.886Z" transform="translate(-297.435 -489.359)" fill="#f899a5"/>
    <path id="Pfad_2847" data-name="Pfad 2847" d="M444.225,472.073l-4.708,8.327-1.727,3.294-9.2-1.341.207-.441a5.308,5.308,0,0,1,.733-.821,3.043,3.043,0,0,1,.046-.812,1.579,1.579,0,0,1,.411-.849l.036-.033a5.675,5.675,0,0,0,1.04-1.889c.079-.21.122-.35.122-.35l.608-.7,1.974-2.229.556-.633.523-.59-1.873,2.664s-.894,1.612-.94,1.825-1.521,2.193-1.521,2.193-2.506,2.2,1.971,2.238,7.208-4.318,7.208-4.318l3.777-5.851A6.694,6.694,0,0,0,444.225,472.073Z" transform="translate(-317.614 -444.581)" opacity="0.1"/>
    <path id="Pfad_2848" data-name="Pfad 2848" d="M385.277,535.061l-1.755-.122-3.963-.331V534l5.687.356Z" transform="translate(-268.767 -477.878)" opacity="0.1"/>
    <path id="Pfad_2849" data-name="Pfad 2849" d="M441.028,470.21a2.982,2.982,0,0,0,1.612.94,10.76,10.76,0,0,0-2.016,3.09s-2.512,4.227-.715,5.684a9.158,9.158,0,0,0,2.84,1.746l-.544,9.732s1.329,6.691,1.825,7.189a2.325,2.325,0,0,1,.359,1.612s-.325,1.119.015,1.521a7.74,7.74,0,0,1,.432,2.463,14.074,14.074,0,0,0-2.433-1.031c-.42,0-1.521-2.1-1.521-2.1l-10.948-.76-4.814-.4.76-13.381s-2.193-3.6.806-6.365a2.281,2.281,0,0,1,.493-1.694,6.951,6.951,0,0,0,1.165-2.238l3.671-4.148h0l-1.879,2.673s-.9,1.612-.94,1.825-1.521,2.2-1.521,2.2-2.506,2.193,1.971,2.238,7.208-4.343,7.208-4.343Z" transform="translate(-315.191 -443.502)" fill="#e6ebef"/>
    <path id="Pfad_2850" data-name="Pfad 2850" d="M465.68,528.21A6.631,6.631,0,0,0,468.9,529.4C470.57,529.442,465.68,528.21,465.68,528.21Z" transform="translate(-343.425 -483.863)" opacity="0.1"/>
    <path id="Pfad_2851" data-name="Pfad 2851" d="M472.3,515.627s1.232-.608,1.925-.1S472.3,515.627,472.3,515.627Z" transform="translate(-348.031 -474.896)" opacity="0.1"/>
    <path id="Pfad_2852" data-name="Pfad 2852" d="M470.39,523s.079.718,1.9.806S470.39,523,470.39,523Z" transform="translate(-346.702 -480.238)" opacity="0.1"/>
    <path id="Pfad_2853" data-name="Pfad 2853" d="M464.44,473.3l.383.2a8.547,8.547,0,0,0,2.415.514,3.865,3.865,0,0,1,3.157,3.02c.067.353.122.824.167,1.329a27.3,27.3,0,0,1-.085,5.474,17.4,17.4,0,0,0-.216,2.95c.134.4-.739,6.648-.739,6.648s-.2,5.1-1.478,5.574-8.394.468-8.394.468l-3.02-5.237,7.049.335a6.9,6.9,0,0,0,.873-3.625c-.067-2.15.134-7.119.134-7.119s-4.258-.912-3.394-4.236A20.372,20.372,0,0,1,464.44,473.3Z" transform="translate(-337.127 -445.652)" fill="#f899a5"/>
    <path id="Pfad_2854" data-name="Pfad 2854" d="M394.6,555.173s-2.844.94-3.954.447a27.279,27.279,0,0,1-3.525-2.372s-1.551-1.521-3.026-3.221l-.189-.219h0c-1.277-1.487-2.433-3.041-2.433-3.811a3.239,3.239,0,0,0-.119-.946,3.952,3.952,0,0,0-.608-1.238,3.7,3.7,0,0,0-.523-.59l-4.656-6s1.344-1.432,1.344-1.825,1.612-2.594,3.671-1.429a44.5,44.5,0,0,1,5.048,4.239c2.9,2.664,5.876,5.562,5.876,5.562s.21.225.517.575c.788.912,2.211,2.631,2.323,3.5C394.513,549.039,394.6,555.173,394.6,555.173Z" transform="translate(-280.719 -487.637)" fill="#bdd3e8"/>
    <path id="Pfad_2855" data-name="Pfad 2855" d="M403.827,554.746c-2.2,2.2-5.523,5.14-7.931,5.7l-.064.015-.125-.234h0l-2.542-4.756-.645-1.216.033-.033,4.884-5.617c2.9,2.664,5.876,5.562,5.876,5.562Z" transform="translate(-292.514 -498.052)" opacity="0.05"/>
    <path id="Pfad_2856" data-name="Pfad 2856" d="M421.032,533.858v1.019s1.411,4.981-1.14,6.386c-1.289.715-4.036.885-6.438.879a6.818,6.818,0,0,1-6.73-5.611,4.074,4.074,0,0,1-.027-1.445s-1.14-8.159-1.411-8.211c0,0-6.414,7.344-10.34,8.19l-3.315-6.2,5.295-6.082s3.929-6.243,5.07-6.815a8.242,8.242,0,0,0,2.284-2.171s4.6-3.838,7.655,2.643,5.036,11.715,5.778,13.658c0,0,1.077,2.2,1.746,2.2h.021a1.569,1.569,0,0,1,1.554,1.563Z" transform="translate(-291.895 -473.049)" fill="#bdd3e8"/>
    <path id="Pfad_2857" data-name="Pfad 2857" d="M436.09,551.939a6.636,6.636,0,0,0,1.375-2.351c.508-1.478-.152,1.5-1.241,2.685Z" transform="translate(-322.834 -498.46)" opacity="0.1"/>
    <path id="Pfad_2858" data-name="Pfad 2858" d="M416.421,426.825a2.236,2.236,0,0,0,.693,1.162,22.2,22.2,0,0,0,2.244,2.114,2.33,2.33,0,0,1,.821.946,1.488,1.488,0,0,1-.055.821,14.077,14.077,0,0,1-1.192,2.962,1.825,1.825,0,0,0-.331,1.01c.082.8,1.216,1.244,2.044,1.77a3.326,3.326,0,0,1,1.673,2.822c-.067,1.651-1.633,3.078-2,4.708a7.907,7.907,0,0,0,2.959-.608,2.227,2.227,0,0,0,1.484-1.886.532.532,0,0,1,.046-.35.751.751,0,0,1,.426-.219c.812-.2,1.8-.134,2.4-.587s.459-1.25.2-1.886c-.693-1.74-1.7-3.412-2.3-5.17a3.71,3.71,0,0,1-.262-1.849,6.2,6.2,0,0,1,.8-1.767,11.251,11.251,0,0,0,1.332-4.057,3.777,3.777,0,0,0-.328-2.381,4.013,4.013,0,0,0-2.655-1.758c-2.284-.5-3.5.608-5.286,1.347C417.808,424.535,416.287,425.547,416.421,426.825Z" transform="translate(-309.141 -410.298)" fill="#4b3648"/>
    <path id="Pfad_2859" data-name="Pfad 2859" d="M420.315,444.662c.185,0,.371-.021.557-.036.38-1.615,1.922-3.041,1.989-4.668a3.33,3.33,0,0,0-1.673-2.825c-.815-.526-1.962-.973-2.044-1.767a1.84,1.84,0,0,1,.332-1.013,14.076,14.076,0,0,0,1.192-2.962,1.487,1.487,0,0,0,.055-.821,2.3,2.3,0,0,0-.821-.943,22.589,22.589,0,0,1-2.244-2.129,2.218,2.218,0,0,1-.693-1.159c-.14-1.277,1.372-2.293,2.716-2.856,1.4-.59,2.433-1.387,3.935-1.466-1.788-.116-2.917.809-4.48,1.466-1.344.563-2.856,1.578-2.716,2.856a2.217,2.217,0,0,0,.693,1.159,22.583,22.583,0,0,0,2.244,2.129,2.3,2.3,0,0,1,.821.943,1.487,1.487,0,0,1-.055.821,14.077,14.077,0,0,1-1.192,2.962,1.84,1.84,0,0,0-.332,1.013c.082.794,1.216,1.241,2.044,1.767a3.331,3.331,0,0,1,1.673,2.825C422.249,441.606,420.683,443.035,420.315,444.662Z" transform="translate(-309.139 -409.959)" opacity="0.1"/>
    <ellipse id="Ellipse_292" data-name="Ellipse 292" cx="7.153" cy="7.153" rx="7.153" ry="7.153" transform="translate(109.148 12.907)" opacity="0.1"/>
    <ellipse id="Ellipse_293" data-name="Ellipse 293" cx="7.153" cy="7.153" rx="7.153" ry="7.153" transform="translate(109.282 12.64)" fill="#f899a5"/>
    <path id="Pfad_2860" data-name="Pfad 2860" d="M427.891,418.6a2.834,2.834,0,0,1-1.521-.867,1.422,1.422,0,0,1,.036-1.8,3.146,3.146,0,0,1,.861-.374c1.2-.532,1.4-2.4,2.22-3.561a2.67,2.67,0,0,1,2.463-1.186,11.856,11.856,0,0,1,1.487.438c1.189.322,2.46.067,3.668.286,2.372.435,4.188,2.667,5.17,5.17.453,1.153.769,2.372,1.128,3.573a47.326,47.326,0,0,0,1.946,5.292,3.72,3.72,0,0,0,.666,1.122c.76.776,2.1.718,2.573,1.761a3.7,3.7,0,0,1,.052,1.94,15.437,15.437,0,0,0,.56,6.578c.514,1.63,1.5,3.278,3,3.513a1.666,1.666,0,0,1-2.412.152,7.885,7.885,0,0,1-1.615-2.342,14.9,14.9,0,0,0-1.378-2.022,2.844,2.844,0,0,0-1.043-.9c-1.022-.414-2.108.432-3.02,1.168a5.2,5.2,0,0,1-2.46,1.292,1.977,1.977,0,0,1-2.174-1.335c-.344-1.165.35-2.737-.408-3.583a5.405,5.405,0,0,0-1-.651c-.967-.687-1.086-2.26-.955-3.592s.4-2.761-.113-3.932a4.736,4.736,0,0,0-1.216-1.521,26.762,26.762,0,0,0-7.347-4.823" transform="translate(-315.861 -402.163)" fill="#4b3648"/>
    <g id="Gruppe_529" data-name="Gruppe 529" transform="translate(110.163 8.689)" opacity="0.1">
      <path id="Pfad_2861" data-name="Pfad 2861" d="M440.933,437.734a1.977,1.977,0,0,1-2.177-1.335c-.344-1.162.353-2.737-.408-3.583a5.314,5.314,0,0,0-1-.648c-.97-.687-1.089-2.26-.955-3.592s.4-2.764-.116-3.935a4.769,4.769,0,0,0-1.216-1.521,26.764,26.764,0,0,0-7.347-4.851l.845.2a2.843,2.843,0,0,1-1.521-.867,1.426,1.426,0,0,1,.04-1.8,3.121,3.121,0,0,1,.858-.371c1.216-.532,1.405-2.4,2.22-3.561a2.937,2.937,0,0,1,1.025-.912,2.8,2.8,0,0,0-1.84,1.177c-.815,1.165-1.016,3.041-2.22,3.561a3.145,3.145,0,0,0-.861.374,1.41,1.41,0,0,0-.036,1.8,2.934,2.934,0,0,0,1.521.867l-.842-.2a26.764,26.764,0,0,1,7.344,4.842,4.735,4.735,0,0,1,1.216,1.521c.52,1.171.246,2.6.113,3.932s0,2.9.955,3.592a5.115,5.115,0,0,1,1,.651c.757.848.064,2.418.408,3.583a1.977,1.977,0,0,0,2.174,1.335,3.157,3.157,0,0,0,.979-.3A1.5,1.5,0,0,1,440.933,437.734Z" transform="translate(-425.919 -410.96)"/>
      <path id="Pfad_2862" data-name="Pfad 2862" d="M493.675,495.894a7.846,7.846,0,0,1-1.612-2.339,14.45,14.45,0,0,0-1.381-2.022,2.792,2.792,0,0,0-1.043-.9,1.886,1.886,0,0,0-1.6.176,1.549,1.549,0,0,1,.785.094,2.819,2.819,0,0,1,1.043.9,14.9,14.9,0,0,1,1.378,2.022,8.057,8.057,0,0,0,1.615,2.342,1.774,1.774,0,0,0,2.1.167A1.974,1.974,0,0,1,493.675,495.894Z" transform="translate(-469.148 -466.334)"/>
    </g>
    <path id="Pfad_2863" data-name="Pfad 2863" d="M756.524,482.234l-5.827.085L738.66,460.444l-2.01-3.652,1.542-9.251,1.186,2.238Z" transform="translate(-517.26 -417.712)" fill="#dce0ed"/>
    <path id="Pfad_2864" data-name="Pfad 2864" d="M599.359,442.983l-2.4,3.6-7.171-9.7-3.281-4.44,1.971-2.655,1.508,1.831Z" transform="translate(-412.78 -405.36)" fill="#dce0ed"/>
    <path id="Pfad_2865" data-name="Pfad 2865" d="M638.419,464.548c0,.186.021.377.033.569l-.231,4.7-3.281-4.44,1.971-2.655Z" transform="translate(-461.21 -438.29)" opacity="0.1"/>
    <path id="Pfad_2866" data-name="Pfad 2866" d="M739.378,449.778l-.718,10.665-2.01-3.652,1.542-9.251Z" transform="translate(-517.26 -417.712)" opacity="0.1"/>
    <path id="Pfad_2867" data-name="Pfad 2867" d="M623.173,431.494s-2.877-21.486,7.6-24.7a2.659,2.659,0,0,1,.411-.085c2.412-.289,24.877-2.88,36.54.2,0,0,7.968,1.2,7.883,5.474l-3.534,52.351h-5.739l1.883-34.609s2.737-15.078-1.8-16.118-25.187-2.737-32.468-.684c0,0-5.313-1.2-4.455,11.906l-.344,7.025Z" transform="translate(-452.77 -398.412)" fill="#dce0ed"/>
    <path id="Pfad_2868" data-name="Pfad 2868" d="M648.637,496.569a3.309,3.309,0,0,0-1.35-2.956c-1.606-1.216-6.554-3.853-6.554-3.853l-1.606.128L634.31,501.84l.319,25.379,8.673,10.729Z" transform="translate(-460.771 -457.106)" fill="#fafcff"/>
    <path id="Pfad_2869" data-name="Pfad 2869" d="M648.637,496.569a3.309,3.309,0,0,0-1.35-2.956c-1.606-1.216-6.554-3.853-6.554-3.853l-1.606.128L634.31,501.84l.319,25.379,8.673,10.729Z" transform="translate(-460.771 -457.106)" opacity="0.1"/>
    <path id="Pfad_2870" data-name="Pfad 2870" d="M567.62,516.5l.17-26.045s-.769-10.109,5.27-10.279c0,0,14.242.1,20.431,2.114a1.381,1.381,0,0,1,.779,1.995c-1.216,2.144-3.309,7.822-4.312,22.383v15.613Z" transform="translate(-414.363 -450.44)" fill="#fafcff"/>
    <path id="Pfad_2871" data-name="Pfad 2871" d="M529.488,580.388l-25.917-.605h-.024l-12.736-.295,1.475-17.028,7.068.258,22.489,5.012,6.873,10.793Z" transform="translate(-346.184 -497.682)" fill="#fafcff"/>
    <path id="Pfad_2872" data-name="Pfad 2872" d="M529.488,580.388l-25.917-.605h-.024l-12.736-.295,1.475-17.028,7.068.258,22.489,5.012,6.873,10.793Z" transform="translate(-346.184 -497.682)" opacity="0.1"/>
    <path id="Pfad_2873" data-name="Pfad 2873" d="M557.713,592.447l-25.917-.605-.426-11.41,18.7-.642,6.873,10.793Z" transform="translate(-374.409 -509.742)" fill="#fafcff"/>
    <path id="Pfad_2874" data-name="Pfad 2874" d="M551.976,612.685l-12.736-.3,1.478-17.031s3.984,6.362,10.857,5.912Z" transform="translate(-394.614 -530.585)" fill="#fff" opacity="0.1"/>
    <path id="Pfad_2875" data-name="Pfad 2875" d="M856.412,688.131c-.514,4.884-3.984,4.112-3.984,4.112l-.648-.058-6.42-.584.258-7.582a27.937,27.937,0,0,1,6.511.392C854.538,684.911,856.64,685.963,856.412,688.131Z" transform="translate(-607.638 -592.258)" fill="#dce0ed"/>
    <path id="Pfad_2876" data-name="Pfad 2876" d="M544.139,454.27s-11.821,5.392-12.679,6.937-6.691,8.211-6.691,8.211l2.527,4.258,11.693-9.3Z" transform="translate(-384.544 -432.41)" fill="#4c4981"/>
    <path id="Pfad_2877" data-name="Pfad 2877" d="M456.534,543.048l-5.474-.818-4.027,4.75s-5.611,2.783-6.265,4-2.694,4.781-3.595,4.808-1.743,1.341-1.749,1.861-3.427,6.493-4.276,6.837a5.944,5.944,0,0,0-2.284,2.667c.036.383-3.193,4.2-3.193,4.2s-5.474,8.567-6.289,8.841-3.969,5.806-4.769,6.462-3.041,1.247-2.767,1.779,5.778,8.056,5.444,10.188c0,0,4.1-3.242,4.258-4.239s5.231-6.259,5.231-6.259l26.553-27.577,5.118-17.38Z" transform="translate(-305.947 -493.619)" fill="#ceddf9"/>
    <path id="Pfad_2878" data-name="Pfad 2878" d="M471.907,544.127s1.092,12.536-2.527,14.433-6.082,1.679-6.779,2.515-4.939,1.575-5.389,2.336-12.338,7.405-12.338,7.405-8.132,4.793-9.406,5.836-8.211,4.093-9.394,5.529-8.61,6.14-8.61,6.14-2.174-6.691-4.674-7.278c0,0,6.009-1.183,6.365-2.129s2.15-1.962,2.15-1.962,8.555-4.963,8.819-6.082,2.372-2.713,2.372-2.713,3.4-4.644,4.647-5.091,8.661-8.056,8.661-8.056,5.039-2.664,5.6-3.54,10.109-5.839,10.109-5.839l-10.884-13.524,3.443-1.058,10.2,2.737,1.825,3.306Z" transform="translate(-306.619 -485.839)" opacity="0.1"/>
    <path id="Pfad_2879" data-name="Pfad 2879" d="M473.927,544.671s1.095,12.536-2.524,14.433-6.082,1.682-6.782,2.515-4.939,1.578-5.389,2.336-12.335,7.408-12.335,7.408-8.132,4.79-9.409,5.824-8.211,4.1-9.394,5.532-8.61,6.137-8.61,6.137-2.184-6.672-4.674-7.281c0,0,6.012-1.18,6.365-2.129s2.15-1.965,2.15-1.965,8.555-4.963,8.819-6.082,2.375-2.716,2.375-2.716,3.4-4.644,4.647-5.088,8.658-8.059,8.658-8.059,5.039-2.664,5.6-3.54-4.318-12.469-4.318-12.469l3.552-6.9,3.443-1.055,10.2,2.737,1.825,3.306Z" transform="translate(-308.025 -486.201)" fill="#ceddf9"/>
    <path id="Pfad_2880" data-name="Pfad 2880" d="M613.927,439.505l-8.318,5.778s-10.051-3.728-6.082-5.225c2.6-.982,3.54-6.052,3.874-9.428.176-1.758.185-3.041.185-3.041s11.341-.018,9.254,3.6a5.7,5.7,0,0,0-.693,3.272A11.337,11.337,0,0,0,613.927,439.505Z" transform="translate(-435.921 -413.843)" fill="#fec2be"/>
    <path id="Pfad_2881" data-name="Pfad 2881" d="M623.076,434.494a7.974,7.974,0,0,1-8.746-3.823c.176-1.758.185-3.041.185-3.041s11.341-.018,9.254,3.6A5.7,5.7,0,0,0,623.076,434.494Z" transform="translate(-446.868 -413.871)" opacity="0.1"/>
    <path id="Pfad_2882" data-name="Pfad 2882" d="M626.6,408.026a7.992,7.992,0,1,1,.179-.733C626.731,407.536,626.673,407.783,626.6,408.026Z" transform="translate(-444.51 -393.09)" fill="#fec2be"/>
    <path id="Pfad_2883" data-name="Pfad 2883" d="M565.409,456.11s-1.4,0-1.484,1.986-1.5,1.84-1.5,1.84l-6.557,6.809s-2.944,7.049-2.919,7.335-.663,1.478-.508,2.08-.061,2.433-.608,2.272a1.294,1.294,0,0,0-1.448,1.3c.012.9-4.607,3.649-4.419,4.318s13.153,7.557,13.153,7.557l5.4,4.182,5.036-9.382,4.2-12.928,2.333-7.506,1.931-2.159-.888-5.067s-.8-2.193-1.448-1.886-3.041,2.889-5.286,3.114-3.555.5-4.078,0S562.611,459.118,565.409,456.11Z" transform="translate(-399.291 -433.69)" opacity="0.1"/>
    <path id="Pfad_2884" data-name="Pfad 2884" d="M566.276,453.94a1.906,1.906,0,0,0-1.752,2.031c-.091,1.983-1.5,1.84-1.5,1.84l-6.557,6.809s-2.944,7.046-2.916,7.335-.666,1.475-.511,2.08-.058,2.433-.608,2.272a1.3,1.3,0,0,0-1.451,1.3c.012.9-4.607,3.649-4.416,4.318s13.15,7.557,13.15,7.557l5.4,4.182,5.036-9.385,4.2-12.928,2.354-7.5,1.928-2.159-.888-5.067s-.8-2.193-1.448-1.885-3.041,2.889-5.282,3.111-3.555.5-4.078,0S566.724,456.781,566.276,453.94Z" transform="translate(-399.708 -432.18)" opacity="0.1"/>
    <path id="Pfad_2885" data-name="Pfad 2885" d="M566.083,454.61a1.9,1.9,0,0,0-1.752,2.031c-.088,1.983-1.5,1.843-1.5,1.843l-6.557,6.806s-2.944,7.049-2.917,7.335-.666,1.478-.511,2.08-.058,2.433-.608,2.272a1.293,1.293,0,0,0-1.448,1.3c.012.9-4.607,3.649-4.416,4.318s13.15,7.56,13.15,7.56l5.4,4.179,5.036-9.382,4.2-12.928,2.351-7.506,1.931-2.159-.888-5.067s-.8-2.193-1.448-1.882-3.041,2.886-5.282,3.111-3.558.5-4.081,0S566.531,457.466,566.083,454.61Z" transform="translate(-399.576 -432.646)" fill="#fff"/>
    <path id="Pfad_2886" data-name="Pfad 2886" d="M547.5,453.2a12.329,12.329,0,0,1-2.3-.45,16.021,16.021,0,0,0-3.774-.067s-3.412.21-4.042,1.2-3.345,6.316-4.276,6.651-6.432,9.19-7.557,9.969-5.973,10.276-5.973,10.276,3.583-1.691,5.222.785c.043.064.085.128.125.2,1.575,2.761,3.041.633,3.041.633s5.216-4.75,5.632-5.578,3.5-7.049,4.294-8.768,7.515-10.206,7.74-10.583S547.5,453.2,547.5,453.2Z" transform="translate(-380.933 -431.241)" opacity="0.1"/>
    <path id="Pfad_2887" data-name="Pfad 2887" d="M546.558,452.917a19.239,19.239,0,0,1-2.7-.572,16.048,16.048,0,0,0-3.777-.067s-3.412.21-4.042,1.192-3.345,6.32-4.276,6.651-6.432,9.19-7.557,9.972-5.973,10.276-5.973,10.276,3.583-1.691,5.225.785c.04.061.082.128.122.2,1.575,2.758,3.041.633,3.041.633s5.219-4.753,5.632-5.578,3.5-7.049,4.294-8.768,7.515-10.206,7.74-10.586S546.558,452.917,546.558,452.917Z" transform="translate(-379.993 -430.962)" fill="#4c4981"/>
    <path id="Pfad_2888" data-name="Pfad 2888" d="M611.506,455.62s4.312,3.129,4.866,4.078,6.2,3.917,6.2,3.917,2.129,3.929,1.809,5.343-.657,2.761-.38,3.516.447.748.036,1.743-.268,1.092.3,1.986-8.515,3.649-8.515,3.649-1.216.189-1.347.769-7.1,15.911-8.1,18.347-4.188,12.165-6.858,12.3-.608.036-.608.036.411-7.907-1.232-10.644,1.6-13.3,1.6-13.3S610.07,456.307,611.506,455.62Z" transform="translate(-434.957 -433.349)" opacity="0.1"/>
    <path id="Pfad_2889" data-name="Pfad 2889" d="M612.438,455.62s4.723,3.254,5.276,4.2,6.216,3.917,6.216,3.917,2.129,3.929,1.809,5.343-.657,2.764-.38,3.516.447.748.036,1.743-.271,1.092.3,1.989-8.515,3.649-8.515,3.649-1.216.192-1.347.769-7.113,15.917-8.126,18.35-4.188,12.15-6.858,12.292-.608.036-.608.036.411-7.907-1.232-10.644,1.627-13.305,1.627-13.305S611,456.307,612.438,455.62Z" transform="translate(-435.889 -433.349)" fill="#4c4981"/>
    <path id="Pfad_2890" data-name="Pfad 2890" d="M627.616,558.55s-9.568,2.129-9.866,2.737-8.211,5.325-4.06,7.6,10.675-3.208,10.675-3.208l5.17-3.3Z" transform="translate(-445.586 -504.976)" fill="#fec2be"/>
    <path id="Pfad_2891" data-name="Pfad 2891" d="M661.168,516.61c.155.046,3.488,2.159,3.488,2.159s1.569,5.213,1.913,6.49a37.759,37.759,0,0,1,1.159,3.975c-.058.426.949,2.795-.657,3.877s-3.291.912-4.063,1.636-6.1,3.041-6.77,3.224,3.321-7.94-1.609-9.19c0,0,3.531.332,3.713-.286s.386-2.229-.274-2.816-3.509-3.394-3.509-3.394Z" transform="translate(-474.863 -475.791)" fill="#4c4981"/>
    <path id="Pfad_2892" data-name="Pfad 2892" d="M626.865,407.327a2.2,2.2,0,0,1-.952-1c-.325-.633-.651-1.405-1.344-1.566-.389-.094-.861.021-1.149-.255a1.216,1.216,0,0,1-.222-.888,3.613,3.613,0,0,0-.581-2.016,2.11,2.11,0,0,0-1.8-.94c-.988.067-1.849.967-2.822.788-.429-.079-.839-.368-1.259-.255a1.236,1.236,0,0,0-.444.249,6.468,6.468,0,0,0-2.028,2.737c-.4,1.022-.535,2.129-1.016,3.129-.192.389-.56.806-.973.684-.645-.192-.3-1-.663-1.359a.982.982,0,0,0-.508-.2,7.971,7.971,0,1,1,15.765.894Z" transform="translate(-444.602 -393.124)" opacity="0.1"/>
    <path id="Pfad_2893" data-name="Pfad 2893" d="M606.539,397.053c.414.122.782-.3.973-.681.481-.988.608-2.108,1.016-3.129a6.456,6.456,0,0,1,2.031-2.737,1.234,1.234,0,0,1,.441-.252c.42-.109.833.176,1.259.255.973.182,1.825-.721,2.822-.788a2.11,2.11,0,0,1,1.8.943,3.57,3.57,0,0,1,.581,2.013,1.214,1.214,0,0,0,.225.888c.286.28.757.164,1.15.255.693.164,1.016.934,1.344,1.566s.988,1.3,1.648,1.022a6.321,6.321,0,0,1,.563-.3c.374-.125.821.079,1.156-.128.426-.262.3-.912.027-1.347s-.608-.912-.435-1.378a1.869,1.869,0,0,1,.459-.59,2.923,2.923,0,0,0-.176-4.011c-.271-.243-.587-.432-.852-.681a8.959,8.959,0,0,1-1.216-1.825,5.558,5.558,0,0,0-1.937-1.825,2.767,2.767,0,0,0-1.125-.392,9.5,9.5,0,0,0-1.642.219c-1.843.186-3.427-1.271-5.231-1.685a1.484,1.484,0,0,0-1.238.146c-.359.28-.435.782-.608,1.216a3.655,3.655,0,0,1-2.168,1.94c-1.074.411-2.433.633-2.88,1.688-.389.912.116,1.959-.088,2.92a5.88,5.88,0,0,1-1.156,1.971,2.125,2.125,0,0,0-.377,2.153,1.916,1.916,0,0,0,.985.769c.5.207,1.63.1,1.971.432S605.894,396.868,606.539,397.053Z" transform="translate(-438.803 -382.388)" fill="#9a5e7f"/>
    <path id="Pfad_2894" data-name="Pfad 2894" d="M674.47,546.66c.182.018,3.507.608,4.288,1.727S674.47,546.66,674.47,546.66Z" transform="translate(-488.718 -496.702)" opacity="0.1"/>
    <path id="Pfad_2895" data-name="Pfad 2895" d="M669,535a26.785,26.785,0,0,1,4.045,1.171C673.464,536.521,669,535,669,535Z" transform="translate(-484.912 -488.588)" opacity="0.1"/>
    <path id="Pfad_2896" data-name="Pfad 2896" d="M672.92,505.57s2.667,1.168,2.971,1.892S672.92,505.57,672.92,505.57Z" transform="translate(-487.639 -468.108)" opacity="0.1"/>
    <path id="Pfad_2897" data-name="Pfad 2897" d="M560.84,605c.277.195,6.827,5.054,6.292,5.231S560.84,605,560.84,605Z" transform="translate(-409.645 -537.3)" opacity="0.1"/>
    <path id="Pfad_2898" data-name="Pfad 2898" d="M560.68,615s3.838,1.855,3.2,2.631S560.68,615,560.68,615Z" transform="translate(-409.534 -544.259)" opacity="0.1"/>
    <g id="Gruppe_530" data-name="Gruppe 530" transform="translate(163.95 5.049)" opacity="0.1">
      <path id="Pfad_2899" data-name="Pfad 2899" d="M608.372,401.514c.173-.824-.173-1.715-.03-2.524v.015c-.383.888.1,1.925-.079,2.874A2.55,2.55,0,0,0,608.372,401.514Z" transform="translate(-606.545 -398.99)"/>
      <path id="Pfad_2900" data-name="Pfad 2900" d="M670.132,413.448a.783.783,0,0,0-.043.249,3.36,3.36,0,0,1,.38-.429,2.652,2.652,0,0,0,.642-1.259,2.575,2.575,0,0,1-.52.849,1.87,1.87,0,0,0-.459.59Z" transform="translate(-649.62 -408.05)"/>
      <path id="Pfad_2901" data-name="Pfad 2901" d="M636.5,411.385c-.335.207-.785,0-1.159.128-.2.07-.365.228-.563.3-.66.274-1.323-.386-1.648-1.019s-.651-1.405-1.344-1.569c-.389-.091-.864.024-1.15-.255a1.22,1.22,0,0,1-.225-.885,3.6,3.6,0,0,0-.578-2.016,2.129,2.129,0,0,0-1.806-.943c-.985.067-1.846.97-2.819.791-.429-.082-.842-.368-1.262-.258a1.28,1.28,0,0,0-.441.252,6.456,6.456,0,0,0-2.032,2.737,9.278,9.278,0,0,0-.3.891c.052-.161.106-.322.17-.48a6.456,6.456,0,0,1,2.031-2.737,1.234,1.234,0,0,1,.441-.252c.42-.109.833.176,1.259.255.973.182,1.825-.721,2.822-.788a2.11,2.11,0,0,1,1.8.943,3.57,3.57,0,0,1,.581,2.013,1.214,1.214,0,0,0,.225.888c.286.28.757.164,1.15.255.693.164,1.016.934,1.344,1.566s.988,1.3,1.648,1.022a6.313,6.313,0,0,1,.563-.3c.374-.125.821.079,1.156-.128a.608.608,0,0,0,.274-.547A.539.539,0,0,1,636.5,411.385Z" transform="translate(-615.577 -403.262)"/>
      <path id="Pfad_2902" data-name="Pfad 2902" d="M607.661,420.347c-.189.389-.56.8-.973.681-.645-.189-.3-1-.66-1.356s-1.466-.225-1.971-.432a1.928,1.928,0,0,1-.985-.769,1.457,1.457,0,0,1-.128-1.031,1.664,1.664,0,0,0,0,1.442,1.916,1.916,0,0,0,.985.769c.5.207,1.63.1,1.971.432s.015,1.168.66,1.356c.414.122.782-.3.973-.681a7.952,7.952,0,0,0,.471-1.314,6.52,6.52,0,0,1-.344.9Z" transform="translate(-602.78 -411.829)"/>
    </g>
    <path id="Pfad_2903" data-name="Pfad 2903" d="M568.876,477.3s-2.618,3.908-2.305,4.726S568.876,477.3,568.876,477.3Z" transform="translate(-413.615 -448.436)" opacity="0.1"/>
    <path id="Pfad_2904" data-name="Pfad 2904" d="M575.47,519.17a7.343,7.343,0,0,1,1.9,1.125C577.876,520.84,575.47,519.17,575.47,519.17Z" transform="translate(-419.826 -477.572)" opacity="0.1"/>
    <path id="Pfad_2905" data-name="Pfad 2905" d="M585.51,532.27s2.968.718,3.221,1.183S585.51,532.27,585.51,532.27Z" transform="translate(-426.812 -486.688)" opacity="0.1"/>
    <path id="Pfad_2906" data-name="Pfad 2906" d="M587.21,545.63s2.685.353,2.99,1.393S587.21,545.63,587.21,545.63Z" transform="translate(-427.995 -495.985)" opacity="0.1"/>
    <path id="Pfad_2907" data-name="Pfad 2907" d="M868.76,689.129c-.514,4.884-3.984,4.112-3.984,4.112l-.648-.058a6.559,6.559,0,0,1-1.022-3.668,6.16,6.16,0,0,1,1.372-4.106C866.886,685.909,868.988,686.961,868.76,689.129Z" transform="translate(-619.985 -593.256)" opacity="0.1"/>
    <path id="Pfad_2908" data-name="Pfad 2908" d="M530.92,487.22c-5.866,0-10.62,6.426-10.62,14.351s4.753,14.348,10.62,14.348,10.623-6.426,10.623-14.348S536.789,487.22,530.92,487.22Zm-1.5,25.7c-4.471,0-8.093-4.659-8.093-10.41s3.622-10.407,8.093-10.407,8.1,4.659,8.1,10.407S533.894,512.921,529.421,512.921Z" transform="translate(-381.434 -455.339)" fill="#636780"/>
    <path id="Pfad_2909" data-name="Pfad 2909" d="M507.5,507.556l4.969,4.881,1.8-4.37-7.2-4.2Z" transform="translate(-357.499 -456.911)" fill="#636780"/>
    <path id="Pfad_2910" data-name="Pfad 2910" d="M465.069,357.07l4.325.526L471,359.5l-2.433,10.948L463.4,388.09,460,400.2l-2.384,7.354-1.521,9.732-1.521,6.691-4.562,4.562-9.276-10.948-1.521-3.649-3.649-7.451,9.428-4.41,10.34-.912L460.2,388.7l3.954-14.446Z" transform="translate(-307.743 -354.755)" fill="#fafcff"/>
    <path id="Pfad_2911" data-name="Pfad 2911" d="M231.884,515.139,226.23,562.6l71.188-3-8.223-23.3-13.707-8.911,31.355.514.17-13.019-12.679-2.743-25.528-2.056-19.19-.855-18.332,5.994" transform="translate(-162.067 -460.641)" fill="#fafcff"/>
    <path id="Pfad_2912" data-name="Pfad 2912" d="M231.884,515.139,226.23,562.6l71.188-3-8.223-23.3-13.707-8.911,31.355.514.17-13.019-12.679-2.743-25.528-2.056-19.19-.855-18.332,5.994" transform="translate(-162.067 -460.641)" opacity="0.24"/>
    <path id="Pfad_2913" data-name="Pfad 2913" d="M545.371,670.04c0,11.794-3.92,22.529-14.792,21.355-13.713-.3-14.789-9.561-14.789-21.355s6.621-20.57,14.789-20.57S545.371,658.247,545.371,670.04Z" transform="translate(-378.295 -568.246)" fill="#636780"/>
    <path id="Pfad_2914" data-name="Pfad 2914" d="M562.464,673.033c0-9.124-3.969-16.453-9.552-19.293-7.171,1.362-12.682,9.61-12.682,20.376,0,9.665.724,17.639,8.534,20.355C558.808,694.826,562.464,684.422,562.464,673.033Z" transform="translate(-395.303 -571.217)" opacity="0.1"/>
    <path id="Pfad_2915" data-name="Pfad 2915" d="M601,576.87l-4.182,4.79,7.527-1.293,5.626-5.17,5.018-10.036,7.071-4.334,17.335,2.357,16.042.608,5.921-5.258-6.605-.9-6.691-.152-16.8-.38-20-.532-4.106,10.948-3.117,7.527Z" transform="translate(-419.955 -493.584)" fill="#fafcff"/>
    <path id="Pfad_2916" data-name="Pfad 2916" d="M334.41,491.682c-.344.514-11.556,2.229-11.556,2.229l-31.02,5.654-53.275.769-6.253-5.313-3.284.584-.134.024-43.878,7.788-.715-.1-11.958-1.706-62.457-8.9.7-9.066.414-5.352.855-11.109.608-2.913,5.562-.511,2.6-.237,40.536-3.719,5.3-.487,2.971-.271,28.955-3.953,42.233,1.028.17-13.022,16.705-51.4c3.683.608,3.6,3.084,3.6,3.084l-14.224,48.4-.173,29.728c29.575,2.986,30.53-3.458,35.208-1.286l5.657-18.074,49.684.258C339.221,456.216,334.41,491.682,334.41,491.682Z" transform="translate(-95.83 -388.868)" fill="#fafcff"/>
    <path id="Pfad_2917" data-name="Pfad 2917" d="M394.4,598.8l15.762,33.839,5.31,1.712,1.286-5.483-5.912-18.761-6.082-10.878Z" transform="translate(-279.094 -522.971)" fill="#fafcff"/>
    <path id="Pfad_2918" data-name="Pfad 2918" d="M394.4,598.8l15.762,33.839,5.31,1.712,1.286-5.483-5.912-18.761-6.082-10.878Z" transform="translate(-279.094 -522.971)" opacity="0.15"/>
    <ellipse id="Ellipse_294" data-name="Ellipse 294" cx="28.548" cy="32.382" rx="28.548" ry="32.382" transform="translate(76.498 80.71)" fill="#636780"/>
    <path id="Pfad_2919" data-name="Pfad 2919" d="M381.342,654.43c-14.938,1.04-26.762,15.109-26.762,32.316,0,13.871,7.688,25.7,18.493,30.314,14.938-1.04,26.762-15.109,26.762-32.316C399.836,670.874,392.148,659.041,381.342,654.43Z" transform="translate(-266.112 -571.697)" opacity="0.1"/>
    <path id="Pfad_2920" data-name="Pfad 2920" d="M101.332,568.07l-1.414,6.669-4.325,20.409L77,593.348s-1.113-3.424,1.8-4.711c0,0,.955-11.6,4.391-15.248a3.463,3.463,0,0,1,1.347-.94Z" transform="translate(-72.805 -511.601)" fill="#fafcff"/>
    <path id="Pfad_2921" data-name="Pfad 2921" d="M99.917,586.91,95.593,607.32,77,605.519s-1.113-3.424,1.8-4.711c0,0,.955-11.6,4.391-15.248Z" transform="translate(-72.805 -523.772)" fill="#fff" opacity="0.1"/>
    <path id="Pfad_2922" data-name="Pfad 2922" d="M182.908,539.094c2.4,4.02-3.415,41.114-3.415,41.114l-45.672-7.539,1.627-32.468c.943-5.824,4.37-6.508,4.37-6.508,16.118-8.138,53.111-9.853,53.111-9.853,33.757,1.283,64.506,11.222,64.506,11.222C219.058,529.153,182.908,539.094,182.908,539.094Z" transform="translate(-112.489 -480.822)" fill="#fafcff"/>
    <path id="Pfad_2923" data-name="Pfad 2923" d="M179.492,601.442,133.82,593.9l1.627-32.468c.943-5.824,4.37-6.508,4.37-6.508s33.322-3.172,43.09,5.4C185.3,564.349,179.492,601.442,179.492,601.442Z" transform="translate(-112.489 -502.056)" opacity="0.24"/>
    <path id="Pfad_2924" data-name="Pfad 2924" d="M180.729,610.216l-38.179-6.432,1.353-27.7c.788-4.969,3.649-5.553,3.649-5.553s27.863-2.707,36.029,4.6C185.6,578.567,180.729,610.216,180.729,610.216Z" transform="translate(-118.564 -512.971)" fill="#fafcff"/>
    <ellipse id="Ellipse_295" data-name="Ellipse 295" cx="5.225" cy="9.51" rx="5.225" ry="9.51" transform="translate(53.798 64.948)" opacity="0.1"/>
    <ellipse id="Ellipse_296" data-name="Ellipse 296" cx="5.225" cy="9.51" rx="5.225" ry="9.51" transform="translate(53.798 64.692)" fill="#dce0ed"/>
    <path id="Pfad_2925" data-name="Pfad 2925" d="M256.925,603.28s-2.129.341-1.028,3.169a20.461,20.461,0,0,1,1.283,4.282s2.129,1.116,2.056-2.57S256.925,603.28,256.925,603.28Z" transform="translate(-197.22 -536.103)" fill="#f0f0f4"/>
    <ellipse id="Ellipse_297" data-name="Ellipse 297" cx="4.884" cy="8.886" rx="4.884" ry="8.886" transform="translate(26.127 61.803)" opacity="0.1"/>
    <ellipse id="Ellipse_298" data-name="Ellipse 298" cx="4.884" cy="8.886" rx="4.884" ry="8.886" transform="translate(26.127 61.545)" fill="#dce0ed"/>
    <path id="Pfad_2926" data-name="Pfad 2926" d="M164.825,590.88s-2.129.344-1.028,3.172a20.639,20.639,0,0,1,1.286,4.282s2.129,1.113,2.056-2.57S164.825,590.88,164.825,590.88Z" transform="translate(-133.13 -527.474)" fill="#f0f0f4"/>
    <path id="Pfad_2927" data-name="Pfad 2927" d="M198.015,591.867c-.341,3.513-2.056,29.554-2.056,29.554l-2.907-.487-1.615-.265-2.153-.362-.262-.043-8.482-1.414,1.676-27.623a3.455,3.455,0,0,1,3.51-3.236,2.484,2.484,0,0,1,.258,0c.587.052,1.216.113,1.876.185.277.03.56.061.842.1.815.1,1.657.216,2.482.35.42.073.833.149,1.244.228.69.137,1.359.289,1.977.462.417.116.815.24,1.18.377C197.117,590.246,198.118,590.96,198.015,591.867Z" transform="translate(-145.001 -525.462)" opacity="0.1"/>
    <path id="Pfad_2928" data-name="Pfad 2928" d="M191.633,587.993l-1.66,31.02-.943-.085,1.645-30.841a3.434,3.434,0,0,1,.958-.094Z" transform="translate(-150.909 -525.463)" fill="#fafcff"/>
    <path id="Pfad_2929" data-name="Pfad 2929" d="M200.491,588.69l-1.554,31.348H197.48l2.168-31.449C199.925,588.623,200.208,588.654,200.491,588.69Z" transform="translate(-156.789 -525.88)" fill="#fafcff"/>
    <path id="Pfad_2930" data-name="Pfad 2930" d="M211.857,590.333l-2.451,31.458h-.946v-.043l2.15-31.628C211.033,590.178,211.446,590.254,211.857,590.333Z" transform="translate(-164.43 -526.945)" fill="#fafcff"/>
    <path id="Pfad_2931" data-name="Pfad 2931" d="M220.508,592.717l-2.521,31.245v.061l-1.627-.173V623.7l2.956-31.357C219.748,592.456,220.146,592.58,220.508,592.717Z" transform="translate(-169.927 -528.49)" fill="#fafcff"/>
    <path id="Pfad_2932" data-name="Pfad 2932" d="M113.872,633.587s-3.148-16.255,4.048-17.091,30.841.912,30.132,7.582-1.469,16.833-1.469,16.833l-4.881-1.092s3.649-15.291-2.056-15.869-19.725-2.187-19.725-2.187-3.792-.642-1.606,12.773Z" transform="translate(-98.131 -545.165)" opacity="0.1"/>
    <path id="Pfad_2933" data-name="Pfad 2933" d="M113.872,636.305s-3.148-17.283,4.048-18.119,30.841.912,30.132,7.582-1.469,16.833-1.469,16.833l-4.881-1.092s3.649-15.291-2.056-15.869-19.734-2.171-19.734-2.171-3.792.386-1.606,13.816Z" transform="translate(-98.131 -546.341)" fill="#dce0ed"/>
    <path id="Pfad_2934" data-name="Pfad 2934" d="M353.973,643.545l-6.338-.085c-4.626-20.376-12.253-33.067-12.253-33.067-2.579-1.372-30.676-1.186-30.676-1.186-2.913.514-3.683,9.768-3.683,9.768s2.485,2.129.085,3.513c-1.07.608-4.6.727-8.661.517a68.532,68.532,0,0,1-13.953-1.974c-5.474-1.715-1.116-4.884-1.116-4.884s.772-1.028,1.286-6.691a22.885,22.885,0,0,1,3.126-9.333c.237-.392.386-.608.386-.608a2.934,2.934,0,0,1,1-.626c7.262-3.041,42.859-.146,42.859-.146l13.193,4.2c.365.146.928,1.077,1.621,2.564C345.02,614.444,353.973,643.545,353.973,643.545Z" transform="translate(-211.244 -532.079)" fill="#fafcff"/>
    <path id="Pfad_2935" data-name="Pfad 2935" d="M353.973,643.545l-6.338-.085c-4.626-20.376-12.253-33.067-12.253-33.067-2.579-1.372-30.676-1.186-30.676-1.186-2.913.514-3.683,9.768-3.683,9.768s2.485,2.129.085,3.513c-1.07.608-4.6.727-8.661.517a68.532,68.532,0,0,1-13.953-1.974c-5.474-1.715-1.116-4.884-1.116-4.884s.772-1.028,1.286-6.691a22.885,22.885,0,0,1,3.126-9.333c.237-.392.386-.608.386-.608a2.934,2.934,0,0,1,1-.626c7.262-3.041,42.859-.146,42.859-.146l13.193,4.2c.365.146.928,1.077,1.621,2.564C345.02,614.444,353.973,643.545,353.973,643.545Z" transform="translate(-211.244 -532.079)" opacity="0.24"/>
    <path id="Pfad_2936" data-name="Pfad 2936" d="M354.71,605.489c-12.165-4.732-45.739-2.22-45.739-2.22-3.564-3.041-10.27-3.248-13.32-3.166.237-.392.386-.608.386-.608a2.934,2.934,0,0,1,1-.626c7.262-3.041,42.859-.146,42.859-.146l13.193,4.2C353.454,603.071,354.016,604,354.71,605.489Z" transform="translate(-225.104 -532.065)" fill="#fafcff"/>
    <path id="Pfad_2937" data-name="Pfad 2937" d="M297.1,607.72c-.769,2.655-3.932,13.281-3.932,13.281a44.958,44.958,0,0,0-.7,5.143,68.527,68.527,0,0,1-13.953-1.974c-5.474-1.715-1.116-4.884-1.116-4.884s.772-1.028,1.286-6.69a22.769,22.769,0,0,1,3.513-9.939,2.936,2.936,0,0,1,1-.627C287.954,603.161,297.679,605.71,297.1,607.72Z" transform="translate(-211.258 -535.233)" fill="#fafcff"/>
    <path id="Pfad_2938" data-name="Pfad 2938" d="M297.1,607.72c-.769,2.655-3.932,13.281-3.932,13.281a44.958,44.958,0,0,0-.7,5.143,68.527,68.527,0,0,1-13.953-1.974c-5.474-1.715-1.116-4.884-1.116-4.884s.772-1.028,1.286-6.69a22.769,22.769,0,0,1,3.513-9.939,2.936,2.936,0,0,1,1-.627C287.954,603.161,297.679,605.71,297.1,607.72Z" transform="translate(-211.258 -535.233)" fill="#fff" opacity="0.1"/>
    <path id="Pfad_2939" data-name="Pfad 2939" d="M339.365,387.956c-3.406.514-4.884,7.582-4.884,7.582l-9.251,30.9,65.4,10.729,16.705-51.4C391.984,378.832,339.365,387.956,339.365,387.956Zm52.612,33.024s-.386,2.956-2.892,3.215l-42.4-1.657-8.7-.344-2.916-.112h-.207s-3.215.578-2.7-2.129c0,0,3.534-25.7,9.768-27.626,0,0,.648-.137,1.782-.35,1.782-.338,4.756-.867,8.26-1.35,1.569-.216,3.245-.423,4.969-.608a74.673,74.673,0,0,1,13.965-.335s31.224-2.892,28.976,4.048c.006.009-6.548,25.129-7.9,27.249Z" transform="translate(-245.688 -382.931)" fill="#fafcff"/>
    <path id="Pfad_2940" data-name="Pfad 2940" d="M350.82,442.235h-.207s-3.215.578-2.7-2.129c0,0,3.534-25.7,9.768-27.626,0,0,.648-.137,1.782-.35C357.2,416.546,349.938,431.663,350.82,442.235Z" transform="translate(-261.434 -403.085)" fill="#fafcff"/>
    <path id="Pfad_2941" data-name="Pfad 2941" d="M350.82,442.235h-.207s-3.215.578-2.7-2.129c0,0,3.534-25.7,9.768-27.626,0,0,.648-.137,1.782-.35C357.2,416.546,349.938,431.663,350.82,442.235Z" transform="translate(-261.434 -403.085)" opacity="0.1"/>
    <path id="Pfad_2942" data-name="Pfad 2942" d="M192.573,689.523a4.136,4.136,0,0,1-3.871,2.171l-1.311-.058-12.35-.532-4.452-.192-4.112-.341-54.3-8.819.414-5.352,6.244.894,2.585.371,38.334,5.474,5.045.742,2.448.35,10.367-.076,11.222-.082a4.222,4.222,0,0,1,1.654.3,4.023,4.023,0,0,1,2.174,2.065,3.379,3.379,0,0,1-.094,3.081Z" transform="translate(-97.43 -586.986)" opacity="0.1"/>
    <path id="Pfad_2943" data-name="Pfad 2943" d="M159.93,676.363a4.136,4.136,0,0,1-3.871,2.171l-18.113-.782-4.112-.344-57.9-9.394-4.562-.739-2.469-.414c-4.881-1.028-3.424-5.912-3.424-5.912.341-2.229,8.737-4.285,11.477-4.2,1.843.058,2.1,2.9,2.068,4.753a12.256,12.256,0,0,1-.1,1.584l2.71.389,52.974,7.579L156.2,670.9a4.148,4.148,0,0,1,3.829,2.384,3.379,3.379,0,0,1-.1,3.078Z" transform="translate(-64.787 -573.313)" fill="#dce0ed"/>
    <path id="Pfad_2944" data-name="Pfad 2944" d="M90.72,666.94a9.948,9.948,0,0,0,5.912,3.254A6.474,6.474,0,0,0,90.72,666.94Z" transform="translate(-82.497 -580.403)" opacity="0.1"/>
    <path id="Pfad_2945" data-name="Pfad 2945" d="M71.3,693.138s-7.624-.173-7.624,3.954,4.8,4.8,4.8,4.8l68.1,13.1,19.36.341s6.767-5.4-.258-7.795l-19.527.5L71.219,696.136S72.931,693.822,71.3,693.138Z" transform="translate(-63.68 -598.633)" opacity="0.1"/>
    <path id="Pfad_2946" data-name="Pfad 2946" d="M155.943,716.993l-19.36-.341L76.027,705l-4.431-.855-3.117-.608s-4.8-.687-4.8-4.8c0-2.95,3.929-3.7,6.146-3.881.873-.07,1.478-.058,1.478-.058,1.627.684-.085,3-.085,3l2.363.435,62.575,11.483,19.53-.514C162.71,711.585,155.943,716.993,155.943,716.993Z" transform="translate(-63.68 -599.788)" fill="#dce0ed"/>
    <path id="Pfad_2947" data-name="Pfad 2947" d="M97.627,677.836l4.027-1.8,2.056-.085-.17,17.3L97.2,691.971l-2.658-1.712-1.283-7.2a19.576,19.576,0,0,1,.769-3.254C94.285,679.554,97.627,677.836,97.627,677.836Z" transform="translate(-84.264 -586.673)" fill="#dce0ed"/>
    <path id="Pfad_2948" data-name="Pfad 2948" d="M97.627,677.836l4.027-1.8,2.056-.085-.17,17.3L97.2,691.971l-2.658-1.712-1.283-7.2a19.576,19.576,0,0,1,.769-3.254C94.285,679.554,97.627,677.836,97.627,677.836Z" transform="translate(-84.264 -586.673)" opacity="0.1"/>
    <path id="Pfad_2949" data-name="Pfad 2949" d="M89.157,705.005l.073.088-4.452-.858-.052-.085c-2.345-3.786-2.549-6.852-1.77-9.285.873-.07,1.478-.058,1.478-.058,1.627.684-.085,3-.085,3l2.363.435A10.852,10.852,0,0,0,89.157,705.005Z" transform="translate(-76.81 -599.795)" opacity="0.1"/>
    <path id="Pfad_2950" data-name="Pfad 2950" d="M97.673,673.077q-1.131.432-2.089.912a13.628,13.628,0,0,0-5.7,4.522l-4.562-.739c1.974-4.1,6.691-5.973,6.691-5.973l.955.216Z" transform="translate(-78.739 -583.785)" opacity="0.1"/>
    <path id="Pfad_2951" data-name="Pfad 2951" d="M91.743,671.73s-12.505,4.969-5.31,16.447l4.455.858s-8.819-10.109,6.508-16.021Z" transform="translate(-77.96 -583.736)" fill="#dce0ed"/>
    <path id="Pfad_2952" data-name="Pfad 2952" d="M137.454,656.72l4.626-.17-.772,18.588-7.454-1.369-3.169-1.542-1.457-3.686-1.028-3.683,2.485-3.342,2.828-1.883Z" transform="translate(-93.85 -563.158)" fill="#dce0ed"/>
    <path id="Pfad_2953" data-name="Pfad 2953" d="M137.454,656.72l4.626-.17-.772,18.588-7.454-1.369-3.169-1.542-1.457-3.686-1.028-3.683,2.485-3.342,2.828-1.883Z" transform="translate(-93.85 -563.158)" opacity="0.1"/>
    <ellipse id="Ellipse_299" data-name="Ellipse 299" cx="2.226" cy="3.768" rx="2.226" ry="3.768" transform="translate(40.864 99.389)" fill="#dce0ed"/>
    <path id="Pfad_2954" data-name="Pfad 2954" d="M122.941,746.658a4.958,4.958,0,0,0-3.148-3.984s-4.82-1.411-4.948,3.935c0,0,.064,3.278,2.25,4.306l.128,3.649s.192,3.406-1.737,3.084-1.67-3.345-1.67-3.345-1.028-3.211-3.534-1.542c0,0-.578,1.8.709,2.7a2.465,2.465,0,0,1,.669,2.4,3.485,3.485,0,0,0,.8,2.792,3.239,3.239,0,0,0,3.09,1.107,4.793,4.793,0,0,0,2.676-1.539,7.019,7.019,0,0,0,1.855-4.68l.094-4.7S123.583,749.937,122.941,746.658Zm-3.954,3.309a3.748,3.748,0,1,0,0-.012Z" transform="translate(-96.021 -632.988)" fill="#dce0ed"/>
    <path id="Pfad_2955" data-name="Pfad 2955" d="M133.809,730.964a1.216,1.216,0,0,0-.608,1.688,8.469,8.469,0,0,1,1.052,2.491c-.1.544,1.125.1,1.283-.033s2.378,0,2.506-1.521a2.6,2.6,0,0,0-1.186-2.314l.514-3.309-3.041-.255.033,3.02Z" transform="translate(-111.962 -622.692)" fill="#636780"/>
    <path id="Pfad_2956" data-name="Pfad 2956" d="M133.809,730.964a1.216,1.216,0,0,0-.608,1.688,8.469,8.469,0,0,1,1.052,2.491c-.1.544,1.125.1,1.283-.033s2.378,0,2.506-1.521a2.6,2.6,0,0,0-1.186-2.314l.514-3.309-3.041-.255.033,3.02Z" transform="translate(-111.962 -622.692)" opacity="0.1"/>
    <path id="Pfad_2957" data-name="Pfad 2957" d="M138.26,738.21s1.028,3.534.578,3.649S138.26,738.21,138.26,738.21Z" transform="translate(-115.579 -629.998)" opacity="0.1"/>
    <path id="Pfad_2958" data-name="Pfad 2958" d="M142.06,735.46s1.028,3.534.578,3.649S142.06,735.46,142.06,735.46Z" transform="translate(-118.223 -628.085)" opacity="0.1"/>
    <path id="Pfad_2959" data-name="Pfad 2959" d="M130.233,693.6l-1.715,10.623s-2.129-.289-3.291-.541a2.374,2.374,0,0,1-.736-.228c-.061-.061-.186-.055-.353-.021h0c-.572.116-1.587.587-1.785.189a.284.284,0,0,0-.058-.082h0c-.2-.219-.59-.061-.967,0a.821.821,0,0,1-.608-.079c-.3-.213-.958.128-1.481.24-.332.073-.608.058-.748-.24a.69.69,0,0,0-.511-.365h0c-.493-.125-1.183-.04-1.581-.125a.361.361,0,0,1-.3-.2c-.079-.231-.52-.341-.991-.432-.575-.11-1.192-.192-1.238-.423,0-.079-.07-.112-.155-.116a5.312,5.312,0,0,0-.937.231h0c-.255.067-.471.067-.532-.116s-.362-.182-.7-.1c-.271.067-.572.173-.8.228s-.359.055-.383-.046c-.085-.341-1.2.432-1.454-.255s-3.777-5.243.785-11.143c0,0,1.216.085,2.165.255a3.4,3.4,0,0,1,.912.255h0a5.24,5.24,0,0,0,1.651.192,2.13,2.13,0,0,1,.912.219.609.609,0,0,1,.258.274c.143.325.471.392.83.374.487-.03,1.028-.213,1.216-.116h.018c.359.155,1.7,0,1.931.228l.018.021c.1.143.608,0,1.162-.079h0a1.3,1.3,0,0,1,1.064.167,1.162,1.162,0,0,0,.833.246,4.906,4.906,0,0,1,1.092.043.466.466,0,0,1,.216.137c.216.271.739.234,1.216.259a1.241,1.241,0,0,1,.681.17.639.639,0,0,0,.246.1,7.326,7.326,0,0,0,2.065-.1Z" transform="translate(-94.079 -596.867)" fill="#636780"/>
    <path id="Pfad_2960" data-name="Pfad 2960" d="M115.536,702.394c-.271.067-.572.173-.8.228a8.46,8.46,0,0,1,1.1-11.182,3.4,3.4,0,0,1,.912.255C113.243,695.728,114.867,700.764,115.536,702.394Z" transform="translate(-98.074 -597.452)" opacity="0.1"/>
    <path id="Pfad_2961" data-name="Pfad 2961" d="M123.229,703.409a5.317,5.317,0,0,0-.937.231h0a8.461,8.461,0,0,1,1.633-10.72,2.128,2.128,0,0,1,.912.219C121.508,696.782,122.5,701.317,123.229,703.409Z" transform="translate(-103.596 -598.482)" opacity="0.1"/>
    <path id="Pfad_2962" data-name="Pfad 2962" d="M131.417,706.231a.361.361,0,0,1-.3-.2c-.079-.231-.52-.341-.991-.432a8.339,8.339,0,0,1,1.308-10.161c.487-.03,1.028-.213,1.216-.116h.018C128.99,699.464,130.77,704.7,131.417,706.231Z" transform="translate(-109.098 -600.136)" opacity="0.1"/>
    <path id="Pfad_2963" data-name="Pfad 2963" d="M140.595,707.429c-.331.073-.608.058-.748-.24a.69.69,0,0,0-.511-.365h0a8.474,8.474,0,0,1,1.609-10.8l.018.021c.1.143.608,0,1.162-.079C137.794,700.34,140.02,706.143,140.595,707.429Z" transform="translate(-115.432 -600.604)" opacity="0.1"/>
    <path id="Pfad_2964" data-name="Pfad 2964" d="M150.979,708.195c-.2-.219-.59-.061-.967,0a8.44,8.44,0,0,1,1.347-10.884,4.906,4.906,0,0,1,1.092.043C148.744,701.34,150.273,706.422,150.979,708.195Z" transform="translate(-122.769 -601.528)" opacity="0.1"/>
    <path id="Pfad_2965" data-name="Pfad 2965" d="M160.544,709.377a2.371,2.371,0,0,1-.736-.228c-.061-.061-.186-.055-.353-.021h0a8.324,8.324,0,0,1,1.046-10.34,1.24,1.24,0,0,1,.681.17.638.638,0,0,0,.246.1C158.352,703.027,159.906,707.808,160.544,709.377Z" transform="translate(-129.397 -602.564)" opacity="0.1"/>
    <ellipse id="Ellipse_300" data-name="Ellipse 300" cx="13.962" cy="20.558" rx="13.962" ry="20.558" transform="translate(100.231 94.079)" fill="#636780"/>
    <ellipse id="Ellipse_301" data-name="Ellipse 301" cx="10.151" cy="16.663" rx="10.151" ry="16.663" transform="translate(103.57 98.273)" opacity="0.1"/>
    <ellipse id="Ellipse_302" data-name="Ellipse 302" cx="10.151" cy="16.663" rx="10.151" ry="16.663" transform="translate(103.57 97.759)" fill="#f0f0f4"/>
    <ellipse id="Ellipse_303" data-name="Ellipse 303" cx="1.198" cy="2.056" rx="1.198" ry="2.056" transform="translate(114.363 101.186)" fill="#636780"/>
    <ellipse id="Ellipse_304" data-name="Ellipse 304" cx="1.198" cy="2.056" rx="1.198" ry="2.056" transform="translate(119.162 119.178)" fill="#636780"/>
    <ellipse id="Ellipse_305" data-name="Ellipse 305" cx="1.198" cy="2.056" rx="1.198" ry="2.056" transform="translate(106.225 110.611)" fill="#636780"/>
    <ellipse id="Ellipse_306" data-name="Ellipse 306" cx="1.198" cy="2.056" rx="1.198" ry="2.056" transform="translate(109.738 122.602)" fill="#636780"/>
    <path id="Pfad_2966" data-name="Pfad 2966" d="M775.22,634.26s10.036,26.729,9.51,28.4c0,0,4.239,2.57,5.267,1.928s.131-12.469.131-12.469L788.2,641.711l-2.187-6.168Z" transform="translate(-558.828 -557.661)" fill="#fafcff"/>
    <path id="Pfad_2967" data-name="Pfad 2967" d="M775.22,634.26s10.036,26.729,9.51,28.4c0,0,4.239,2.57,5.267,1.928s.131-12.469.131-12.469L788.2,641.711l-2.187-6.168Z" transform="translate(-558.828 -557.661)" opacity="0.15"/>
    <ellipse id="Ellipse_307" data-name="Ellipse 307" cx="1.198" cy="2.056" rx="1.198" ry="2.056" transform="translate(120.875 108.041)" fill="#636780"/>
    <ellipse id="Ellipse_308" data-name="Ellipse 308" cx="3.513" cy="4.884" rx="3.513" ry="4.884" transform="translate(112.049 110.179)" fill="#636780"/>
    <path id="Pfad_2968" data-name="Pfad 2968" d="M723.206,689.984c0,15.47-5.14,29.554-19.4,28.012-17.989-.386-19.4-12.542-19.4-28.012S693.08,663,703.8,663,723.206,674.511,723.206,689.984Z" transform="translate(-495.628 -577.661)" fill="#636780"/>
    <path id="Pfad_2969" data-name="Pfad 2969" d="M745.608,693.9c0-11.976-5.206-21.592-12.533-25.309-9.406,1.788-16.635,12.609-16.635,26.723,0,12.679.952,23.113,11.195,26.7C740.812,722.489,745.608,708.858,745.608,693.9Z" transform="translate(-517.924 -581.551)" opacity="0.1"/>
    <path id="Pfad_2970" data-name="Pfad 2970" d="M616.113,649.515s-2.57,2.184-3.984.642c0,0-3.47-27.757-7.837-27.885l-15.036-.128s-1.8.769-2.57,4.112l-9.732,27.675-53.266.766-4.069-8.515,44.076.128v-.018c.237-.855,7.6-27.152,12.551-30.412h0a2.132,2.132,0,0,1,.544-.265s18.375-2.433,24.414-.772c0,0,6.3,1.414,7.837,3.345h0c.207.216,2.591,2.9,3.33,10.644Z" transform="translate(-380.961 -543.746)" opacity="0.1"/>
    <path id="Pfad_2971" data-name="Pfad 2971" d="M616.113,651.205s-2.57,2.184-3.984.642c0,0-3.47-27.757-7.837-27.885l-15.036-.128s-1.8.769-2.57,4.112l-9.732,27.675-53.266.766-4.069-8.515L563.7,648v-.018c.237-.855,7.6-27.152,12.551-30.412h0a2.13,2.13,0,0,1,.544-.265s18.375-2.433,24.414-.772c0,0,6.3,1.414,7.837,3.345v.015c.207.216,2.591,2.9,3.33,10.644Z" transform="translate(-380.961 -544.922)" fill="#fafcff"/>
    <path id="Pfad_2972" data-name="Pfad 2972" d="M616.113,651.205s-2.57,2.184-3.984.642c0,0-3.47-27.757-7.837-27.885l-15.036-.128s-1.8.769-2.57,4.112l-9.732,27.675-53.266.766-4.069-8.515L563.7,648v-.018c.237-.855,7.6-27.152,12.551-30.412h0a2.13,2.13,0,0,1,.544-.265s18.375-2.433,24.414-.772c0,0,6.3,1.414,7.837,3.345v.015c.207.216,2.591,2.9,3.33,10.644Z" transform="translate(-380.961 -544.922)" opacity="0.24"/>
    <path id="Pfad_2973" data-name="Pfad 2973" d="M684.309,624.558c-1.286,2.433-12.335,32.51-12.335,32.51l-7.454-5.4v-.018c.237-.855,7.6-27.179,12.557-30.412C680.3,621.775,685.182,622.9,684.309,624.558Z" transform="translate(-481.794 -548.601)" fill="#fafcff"/>
    <path id="Pfad_2974" data-name="Pfad 2974" d="M596.412,586.94l-6.04,19.786-31.482-.912.255,2.956s24.673,3.6,35.208-1.286l5.657-18.074,49.684.255-9.464-2.226Z" transform="translate(-408.288 -524.732)" fill="#fafcff"/>
    <path id="Pfad_2975" data-name="Pfad 2975" d="M596.412,586.94l-6.04,19.786-31.482-.912.255,2.956s24.673,3.6,35.208-1.286l5.657-18.074,49.684.255-9.464-2.226Z" transform="translate(-408.288 -524.732)" fill="#fff" opacity="0.1"/>
    <path id="Pfad_2976" data-name="Pfad 2976" d="M176.362,689.47s-16.875,8.482-4.37,16.45l3.345.769s-12.25-8.819,8.211-17.219Z" transform="translate(-135.841 -596.081)" opacity="0.1"/>
    <path id="Pfad_2977" data-name="Pfad 2977" d="M178.052,689.47s-16.875,8.482-4.37,16.45l3.345.769s-12.25-8.819,8.211-17.219Z" transform="translate(-137.017 -596.081)" fill="#dce0ed"/>
    <ellipse id="Ellipse_309" data-name="Ellipse 309" cx="9.379" cy="16.063" rx="9.379" ry="16.063" transform="translate(206.24 98.443)" fill="#636780"/>
    <ellipse id="Ellipse_310" data-name="Ellipse 310" cx="6.818" cy="13.016" rx="6.818" ry="13.016" transform="translate(208.485 101.837)" opacity="0.1"/>
    <ellipse id="Ellipse_311" data-name="Ellipse 311" cx="6.818" cy="13.016" rx="6.818" ry="13.016" transform="translate(208.485 101.323)" fill="#f0f0f4"/>
    <ellipse id="Ellipse_312" data-name="Ellipse 312" cx="0.806" cy="1.606" rx="0.806" ry="1.606" transform="translate(215.735 104)" fill="#636780"/>
    <ellipse id="Ellipse_313" data-name="Ellipse 313" cx="0.806" cy="1.606" rx="0.806" ry="1.606" transform="translate(218.958 118.056)" fill="#636780"/>
    <ellipse id="Ellipse_314" data-name="Ellipse 314" cx="0.806" cy="1.606" rx="0.806" ry="1.606" transform="translate(210.267 111.362)" fill="#636780"/>
    <ellipse id="Ellipse_315" data-name="Ellipse 315" cx="0.806" cy="1.606" rx="0.806" ry="1.606" transform="translate(212.627 120.732)" fill="#636780"/>
    <ellipse id="Ellipse_316" data-name="Ellipse 316" cx="0.806" cy="1.606" rx="0.806" ry="1.606" transform="translate(220.108 109.355)" fill="#636780"/>
    <ellipse id="Ellipse_317" data-name="Ellipse 317" cx="2.36" cy="3.814" rx="2.36" ry="3.814" transform="translate(214.181 111.028)" fill="#636780"/>
    <path id="Pfad_2978" data-name="Pfad 2978" d="M324.8,524s28.529,1.028,65.534,11.179Z" transform="translate(-245.389 -480.933)" opacity="0.1"/>
    <path id="Pfad_2980" data-name="Pfad 2980" d="M521.06,494.2l-.018.024a2.9,2.9,0,0,0-.608,1.4c-.249,1.624-.487,4.951,1.876,4.4a7.3,7.3,0,0,0,3.522-1.913,2.886,2.886,0,0,0,.782-2.129h0a2.22,2.22,0,0,0-.976-1.855l-.879-.5a1.521,1.521,0,0,0-.821-.213l-1.521.055A1.9,1.9,0,0,0,521.06,494.2Z" transform="translate(-381.422 -459.645)" fill="#fec2be"/>
    <path id="Pfad_2981" data-name="Pfad 2981" d="M561.255,404.5l-4.54,22.559-3.215,6.788,2.129,3.954,4.714-11.1s5.17-16.27,5.17-16.726S561.255,404.5,561.255,404.5Z" transform="translate(-404.537 -397.775)" fill="#fafcff"/>
  </g>
</svg>
