<svg xmlns="http://www.w3.org/2000/svg" width="263.197" height="186.544" viewBox="0 0 263.197 186.544">
  <g id="Gruppe_525" data-name="Gruppe 525" transform="translate(0)">
    <path id="Pfad_2641" data-name="Pfad 2641" d="M150.925,526.349l4.216,1.142,6.412-15.72-6.223-1.686Z" transform="translate(-103.016 -348.168)" fill="#ffb6b6"/>
    <path id="Pfad_2642" data-name="Pfad 2642" d="M303.076,719.225l12.966,3.512.044-.164a5.229,5.229,0,0,0-3.68-6.414h0l-1.882-2.438-4.906.6-1.132-.307Z" transform="translate(-256.508 -536.685)" fill="#2f2e41"/>
    <path id="Pfad_2643" data-name="Pfad 2643" d="M242.638,536.614h4.368l2.078-16.85h-6.447Z" transform="translate(-165.616 -354.774)" fill="#ffb6b6"/>
    <path id="Pfad_2644" data-name="Pfad 2644" d="M398.527,727.6h13.434v-.17a5.229,5.229,0,0,0-5.228-5.229h0l-2.454-1.862L399.7,722.2h-1.173Z" transform="translate(-321.66 -541.204)" fill="#2f2e41"/>
    <path id="Pfad_2645" data-name="Pfad 2645" d="M321.314,422.773l5.862,83.033-9.441.837-13.171-61.538,1.459,35.605-5.227,28-7.991-3.864.133-29.159-10.491-47.12,2.792-5.8Z" transform="translate(-242.427 -338.094)" fill="#2f2e41"/>
    <path id="Pfad_2646" data-name="Pfad 2646" d="M274.224,306.137l-.059-.082c-3.129-4.38,1.577-14.906,2.287-16.432h0a3.831,3.831,0,0,1-2.622-4.091l.306-2.6.319-2.551L272.17,278.1l-.006-.057-1.315-11.5-1.912-7.641a16.776,16.776,0,0,1,4.762-16.258l4.419-.7,5.37-5.174h8.66l2.969,2.837c5.543.972,6.5.655,11.257,6.369l-2.164,17.764-.54,2.444,0,3.315,1.372,1.525a4.746,4.746,0,0,1,1.126,4.1l-.18.9h0c1.415.607,2.766,11.385,3.088,12.89l.482,2.249c.412.544,3.134,4.173,3.134,5.165,0,.149-.11.293-.346.453-1.855,1.256-9.249,10.165-13.786,8.349-4.833-1.932-24.045.967-24.238,1Z" transform="translate(-232.865 -211.127)" fill="#3f3d56"/>
    <path id="Pfad_2647" data-name="Pfad 2647" d="M263.853,353.054s2.224-12.569-.017-17.3l-8.888.635,1.353,17.931,7.77,19.909a3.541,3.541,0,1,0,5.739-2.052Z" transform="translate(-223.657 -278.701)" fill="#ffb6b6"/>
    <path id="Pfad_2648" data-name="Pfad 2648" d="M251.534,273.122l.55-5.99a17.175,17.175,0,0,1,6.159-11.666h0a7.519,7.519,0,0,1,7.868-1.039h0a7.5,7.5,0,0,1,3.874,9.481c-2.054,5.388-1.312,11.085-5.318,11.78l.435,2.07-3.939,12.853-11.217-1.3Z" transform="translate(-220.243 -222.73)" fill="#3f3d56"/>
    <path id="Pfad_2649" data-name="Pfad 2649" d="M390.5,362.221a3.541,3.541,0,1,0,6.029.887l3.718-21.045-2.187-17.848-8.84,1.119c-1.271,5.074,3.373,16.963,3.373,16.963Z" transform="translate(-315.157 -270.821)" fill="#ffb6b6"/>
    <path id="Pfad_2650" data-name="Pfad 2650" d="M372.505,280.919l-10.745,3.472-4.137-6.454.021-2.116c-4.064.1-6.7-11.007-9.767-15.887a7.5,7.5,0,0,1,1.941-10.056h0a7.519,7.519,0,0,1,7.919-.523h0a17.175,17.175,0,0,1,8.326,10.233l1.713,5.766Z" transform="translate(-286.303 -219.12)" fill="#3f3d56"/>
    <circle id="Ellipse_264" data-name="Ellipse 264" cx="9.618" cy="9.618" r="9.618" transform="translate(44.751 3.897)" fill="#ffb6b6"/>
    <path id="Pfad_2651" data-name="Pfad 2651" d="M305.119,219.451c-.084-.074-.163-.152-.245-.228,0,.008,0,.016-.007.023Z" transform="translate(-257.73 -199.157)" fill="#2f2e41"/>
    <path id="Pfad_2652" data-name="Pfad 2652" d="M310.079,159.369a5.454,5.454,0,0,0-1.926-1.857,8.057,8.057,0,0,0-1.684-.6l-1.522-.415a12.066,12.066,0,0,0-2.395-.482,6.164,6.164,0,0,0-5.63,3.055c-.46.816-.829,1.832-1.716,2.13-.716.241-1.5-.1-2.249-.033a2.708,2.708,0,0,0-2.056,1.514,5.834,5.834,0,0,0-.539,2.584,14.481,14.481,0,0,0,4.61,10.808c.248-.654-.161-1.361-.484-1.987s-.529-1.516.019-1.972c.609-.508,1.586-.015,2.307-.346a1.61,1.61,0,0,0,.805-1.294c.07-.526,0-1.06.03-1.59a3.981,3.981,0,0,1,4.221-3.726l.036,0c1.641.117,3.233,1.238,4.812.777a14.284,14.284,0,0,1,2.14-.86,3.774,3.774,0,0,1,2.368.836,8.443,8.443,0,0,0-1.147-6.548Z" transform="translate(-247.829 -156.01)" fill="#2f2e41"/>
    <path id="Pfad_2653" data-name="Pfad 2653" d="M484.983,711.119l-2.447-3.933-.489,2.247c-.086.394-.171.794-.251,1.19-.7-.594-1.435-1.143-2.158-1.67q-3.333-2.419-6.663-4.844l.7,4.031a28.6,28.6,0,0,0,1.936,7.285c.117.257.244.511.381.759h10.329a3.33,3.33,0,0,0,.171-.711.242.242,0,0,0,0-.048C486.653,713.887,485.8,712.436,484.983,711.119Z" transform="translate(-372.475 -530.126)" fill="#f0f0f0"/>
    <path id="Pfad_2654" data-name="Pfad 2654" d="M332.6,741.743l-100.1.1a.378.378,0,1,1,0-.756l100.1-.1a.378.378,0,0,1,0,.756Z" transform="translate(-208.073 -555.296)" fill="#fff"/>
    <path id="Pfad_2655" data-name="Pfad 2655" d="M683.222,253.5a44.506,44.506,0,1,1-2.818-15.672c.1.261.192.523.284.787v0q.616,1.74,1.085,3.545A44.807,44.807,0,0,1,683.222,253.5Z" transform="translate(-455.222 -192.109)" fill="#3f3d56"/>
    <path id="Pfad_2656" data-name="Pfad 2656" d="M680.192,250.281a15.033,15.033,0,0,0-13.2-.54,7.119,7.119,0,0,0-4.4,4.845c2.49-1.469,5.713.852,6.353,4.576l-.15.041a9.109,9.109,0,0,0,1.879,6.987,4.915,4.915,0,0,1,2.359-3.5,9.347,9.347,0,0,0,3.083-2.434c.972-1.439,1.219-3.543,1.605-5.462S678.84,250.815,680.192,250.281Z" transform="translate(-501.9 -219.121)" fill="#fafcff"/>
    <path id="Pfad_2657" data-name="Pfad 2657" d="M623.213,269.938a15.865,15.865,0,0,1-2.437,2.494A5.61,5.61,0,0,0,619,275.745c-.1.9.057,1.817.035,2.728s-.326,1.937-.946,2.163c-.978.353-1.725-1.464-2.731-1.591-.8-.1-1.518,1.158-1.287,2.248s1.319,1.573,1.944.861c.565.948.167,2.668-.682,2.96-.09.6-.179,1.192-.266,1.79a29.443,29.443,0,0,1-6.138-5.225,15.86,15.86,0,0,1-3.614-8.543c-.237-2.527.115-5.417-1.045-7.361a3.992,3.992,0,0,0-3.956-1.8c-.261.017-.525.047-.787.08a44.316,44.316,0,0,1,3.209-7.343,3.144,3.144,0,0,0,.8-.5c1.334-1.133,1.927-3.425,3.009-5.011q.1-.153.217-.3a10.317,10.317,0,0,1,4.025-2.883c3.174-1.541,6.44-3.1,9.79-2.888l-.953.092q-1.669,4.675-3.341,9.35-.254.717-.513,1.436a14.777,14.777,0,0,0-1.187,5.643c.057,1.175.465,2.43,1.242,2.833.724.373,1.516-.085,2.215-.538.3-.189.59-.378.886-.57,1.063-.685,2.24-1.386,3.363-.928a3.968,3.968,0,0,1,1.932,3.321,6.639,6.639,0,0,1-1.016,4.169Z" transform="translate(-458.858 -216.827)" fill="#fafcff"/>
    <path id="Pfad_2658" data-name="Pfad 2658" d="M668.806,377.731,659.493,372l.053-.136c-1.93.735-2.732,4.166-2.412,6.972s1.4,5.314,1.947,8.048a21.361,21.361,0,0,1-.805,11.209,91.8,91.8,0,0,0,10.784-14.859,7.95,7.95,0,0,0,.975-2.163,3.441,3.441,0,0,0-.228-2.447A2.724,2.724,0,0,0,668.806,377.731Z" transform="translate(-498.129 -303.343)" fill="#fafcff"/>
    <path id="Pfad_2659" data-name="Pfad 2659" d="M654.765,275.58a3.433,3.433,0,0,0-.157,2.5,2.767,2.767,0,0,0,1.546,1.432l1.715.85a2.214,2.214,0,0,0,1.767.336,2.357,2.357,0,0,0,1.062-2.4,4.275,4.275,0,0,0-1.452-2.471l-2.66-2.672-.5.612A6.673,6.673,0,0,0,654.765,275.58Z" transform="translate(-496.34 -235.966)" fill="#fafcff"/>
    <path id="Pfad_2660" data-name="Pfad 2660" d="M761.339,275.964l2.315.545c-.134,2.606-1.426,5.018-3.159,5.892a5.9,5.9,0,0,0-2.123,1.177,6.458,6.458,0,0,0-1.065,2.5l-1.322,4.809c-.473,1.728-1.08,3.647-2.31,4.269-1.055.535-2.263-.12-3.074-1.217a14.646,14.646,0,0,1-1.787-4.013,4.13,4.13,0,0,1-1.733,3.652,2.263,2.263,0,0,1-2.987-1.165c-.5-.874-.7-2.026-1.192-2.912s-1.511-1.394-2.044-.563a7.559,7.559,0,0,0-.48,2.1,2.281,2.281,0,0,1-1.907,1.835,3.18,3.18,0,0,1-2.283-1.043,10.34,10.34,0,0,1-2.835-5.718,6.822,6.822,0,0,1,.08-3.126c.306-.968,1.045-1.715,1.78-1.531.483-1.021-.47-2.375-1.329-2.255s-1.536,1.043-2.243,1.752-1.69,1.225-2.4.52a.973.973,0,0,1-.912,1.031q-.038,0-.077,0a3.529,3.529,0,0,1-1.287-.682c-1.625-1.013-3.689-.341-4.844,1.576.722-3.072,1.78-6.6,4-7.318.906-.3,1.894-.052,2.751-.565,1.516-.909,1.822-4.341.513-5.758a5.52,5.52,0,0,1-.573,3.819,1.212,1.212,0,0,1-2.1-1.036.907.907,0,0,1-1.688.358,3.261,3.261,0,0,1-.1-2.746,6.467,6.467,0,0,1,1.451-2.061,17.8,17.8,0,0,1,3.751-3.346,4.252,4.252,0,0,1,4.329-.274c.724.418,1.362,1.115,2.1,1.484a1.557,1.557,0,0,0,2.144-.5l.024-.041c.55-.966.291-2.4.5-3.607.366-2.133,2.5-3.131,3.682-1.723-.884-.227-1.8.819-1.907,2.086a3.01,3.01,0,0,0,1.384,2.93c1.439.637,2.848-.966,3.936-2.449q1.7-2.33,3.41-4.657a5.628,5.628,0,0,1,.61-.742,1.962,1.962,0,0,1,2.681-.055c1.15.938,1.69,2.863,2.634,4.187,1.369,1.924,3.418,2.392,5.325,2.766q2.132.414,4.267.834a44.206,44.206,0,0,1,2.477,5.469A14.99,14.99,0,0,0,761.339,275.964Z" transform="translate(-542.534 -224.733)" fill="#fafcff"/>
    <path id="Pfad_2661" data-name="Pfad 2661" d="M866.7,306.064a8.973,8.973,0,0,0-.473,2.666,6.7,6.7,0,0,1-.612-6.211Q866.234,304.259,866.7,306.064Z" transform="translate(-640.151 -256.013)" fill="#fafcff"/>
    <path id="Pfad_2662" data-name="Pfad 2662" d="M838.069,406.342a44.623,44.623,0,0,1-3.709,6.206c-.9-.383-1.859.3-2.7.943-.876.672-1.929,1.327-2.828.714-.919-.627-1.215-2.382-.924-3.774a10.056,10.056,0,0,1,1.723-3.545,6.95,6.95,0,0,1,2.584-2.706,2.014,2.014,0,0,1,2.681,1.658l.737-.025c-.413-.568-.2-1.742.358-1.949.64-.241,1.195.637,1.573,1.414C837.736,405.63,837.907,405.984,838.069,406.342Z" transform="translate(-614.669 -325.161)" fill="#fafcff"/>
    <path id="Pfad_2663" data-name="Pfad 2663" d="M731.063,352.539c-1.584.1-2.838-1.85-3.672-3.768s-1.594-4.111-3.023-5.088a8.832,8.832,0,0,0-2.633-.9,3.26,3.26,0,0,1-2.236-1.969l-1-.406a15.088,15.088,0,0,0-3.814,2.72,8.525,8.525,0,0,0-2.273,4.969c-.192,2.011.517,4.253,1.841,5.009,1.046.6,2.264.221,3.324.767,1.324.683,2.11,2.666,2.408,4.624s.222,3.993.435,5.974.8,4.041,2.014,5.056c1.52,1.27,3.749.215,4.431-2.1.334-1.134.323-2.414.573-3.591.44-2.073,1.629-3.611,2.572-5.311S731.69,354.513,731.063,352.539Z" transform="translate(-535.882 -281.871)" fill="#fafcff"/>
    <path id="Pfad_2664" data-name="Pfad 2664" d="M721.431,307.059a4.231,4.231,0,0,1,.412.438,1.438,1.438,0,0,1-.025,1.485,1.382,1.382,0,0,0,.99-.5,6.362,6.362,0,0,0,.759-1.069,1.165,1.165,0,0,0,.224-.932c-.075-.214-.252-.3-.376-.465a3.162,3.162,0,0,1-.347-1.008,1.818,1.818,0,0,0-1.318-1.389l.079.015a.753.753,0,0,0-.353.8c.048.311.248.569.228.885-.029.456-.484.669-.512,1.125A.87.87,0,0,0,721.431,307.059Z" transform="translate(-541.901 -256.761)" fill="#fafcff"/>
    <path id="Pfad_2665" data-name="Pfad 2665" d="M713.4,289.762h.007a1.271,1.271,0,0,0,.135-.144Z" transform="translate(-536.579 -247.205)" fill="#fafcff"/>
    <path id="Pfad_2666" data-name="Pfad 2666" d="M709.515,292.175a1.381,1.381,0,0,0,.43-1.369c-.115-.518-.522-.866-.9-.771a.915.915,0,0,1-.851.25c-.232-.06-.487-.214-.689-.039a1.041,1.041,0,0,0-.234.458l-.224.686a.433.433,0,0,0-.026.26.22.22,0,0,0,.169.134l1.342.4a1.156,1.156,0,0,0,.981-.006Z" transform="translate(-532.222 -247.481)" fill="#fafcff"/>
    <path id="Pfad_2667" data-name="Pfad 2667" d="M815.952,385.059l-.62-1.015a3.392,3.392,0,0,0-.817-1.026.724.724,0,0,0-1.02.09l-.011.013.025.193a4.366,4.366,0,0,1,1.089,2.125c.047.346.031.7.072,1.051a1.226,1.226,0,0,0,.383.858c.326.217.708-.1.939-.494a1.7,1.7,0,0,0,.264-1.084,1.9,1.9,0,0,0-.3-.711Z" transform="translate(-604.895 -310.843)" fill="#fafcff"/>
    <path id="Pfad_2668" data-name="Pfad 2668" d="M827.855,382.833a2.343,2.343,0,0,0-.076-.945,2.075,2.075,0,0,1,.316-1.176,3.823,3.823,0,0,0,.492-1.078.9.9,0,0,0-.024-.528c-.068-.154-.234-.224-.329-.1l.2.131a1.853,1.853,0,0,0-.826.04,1.022,1.022,0,0,0-.626.705,4.361,4.361,0,0,1-.164.732c-.121.249-.356.332-.5.551a1.319,1.319,0,0,0,.021,1.252,1.462,1.462,0,0,0,.827.65C827.414,383.154,827.741,383.159,827.855,382.833Z" transform="translate(-613.554 -308.175)" fill="#fafcff"/>
    <path id="Pfad_2669" data-name="Pfad 2669" d="M845.38,392.383a2.845,2.845,0,0,0,.358.657c.277.279.652.107.988.04a1.708,1.708,0,0,1,1.625.652,4.135,4.135,0,0,0-2.378-2.967,6.988,6.988,0,0,0-2.446-.382l-.142.036C843.746,391.471,844.883,391.448,845.38,392.383Z" transform="translate(-625.305 -315.983)" fill="#fafcff"/>
    <path id="Pfad_2670" data-name="Pfad 2670" d="M772.61,403.319l0,0,.041-.08Z" transform="translate(-576.996 -324.764)" fill="#fafcff"/>
    <path id="Pfad_2671" data-name="Pfad 2671" d="M767.97,405.185a7.784,7.784,0,0,0-.492,1.08,9.4,9.4,0,0,0-.356,1.848c-.044.356-.058.811.165.984a.316.316,0,0,0,.414-.056,1.636,1.636,0,0,0,.3-.446,10.278,10.278,0,0,0,1.013-2.4,4.184,4.184,0,0,0-.166-2.7Z" transform="translate(-573.232 -324.935)" fill="#fafcff"/>
    <path id="Pfad_2672" data-name="Pfad 2672" d="M742.186,258.71a1,1,0,0,0,1.075.21,3.55,3.55,0,0,0,1.012-.668,2.381,2.381,0,0,0,.613-.669,1.357,1.357,0,0,0,.125-1.033,1.05,1.05,0,0,0-.8-.633l-1.489-.442.359-.324c-.369-.2-.778.17-1.009.625a3.367,3.367,0,0,0-.306.943A2.421,2.421,0,0,0,742.186,258.71Z" transform="translate(-555.901 -223.643)" fill="#fafcff"/>
    <path id="Pfad_2673" data-name="Pfad 2673" d="M770.122,252.754a.82.82,0,0,0,1.118.091,1.25,1.25,0,0,0,.494-.89c.035-.391-.158-.825-.434-.858l.063-.366c-.531-.1-1.185-.115-1.47.53A1.514,1.514,0,0,0,770.122,252.754Z" transform="translate(-575.072 -220.629)" fill="#fafcff"/>
    <path id="Pfad_2675" data-name="Pfad 2675" d="M384.5,362.012q-6.148,0-13.477-.465c-25.272-1.6-58.007-7.184-92.175-15.71S213.158,326.856,190.1,316.4c-11.235-5.094-19.857-9.915-25.628-14.331-6.11-4.675-8.782-8.75-7.943-12.111,1.634-6.548,16.1-7.981,27.954-8.03l0,.952c-16.274.067-25.875,2.662-27.034,7.308-1.477,5.917,10.566,15.154,33.041,25.344,23.012,10.433,54.473,20.868,88.587,29.38s66.788,14.082,92,15.684c24.626,1.564,39.6-.932,41.074-6.85,1.226-4.913-6.856-12.15-22.757-20.379l.438-.846c11.554,5.979,24.965,14.555,23.243,21.455-.839,3.361-5.112,5.7-12.7,6.959A99.492,99.492,0,0,1,384.5,362.012Z" transform="translate(-156.373 -241.957)" fill="#fafcff"/>
    <path id="Pfad_2676" data-name="Pfad 2676" d="M228.112,423.953c-11.3,0-21.806-.387-31.211-1.17-12.293-1.023-22.034-2.667-28.953-4.887-7.325-2.351-11.211-5.291-11.551-8.738-.661-6.716,12.486-12.927,23.631-16.955l.324.9c-15.306,5.531-23.476,11.2-23.007,15.966.6,6.069,15.044,10.723,39.635,12.77,25.18,2.1,58.318,1.353,93.308-2.092s67.637-9.176,91.925-16.14c23.72-6.8,36.982-14.183,36.385-20.252-.5-5.039-10.54-9.14-28.281-11.548l.128-.944c12.891,1.75,28.4,5.321,29.1,12.4.339,3.448-2.9,7.089-9.625,10.822-6.353,3.526-15.587,7.038-27.445,10.438-24.342,6.98-57.049,12.723-92.095,16.173C268.4,422.853,247.133,423.953,228.112,423.953Z" transform="translate(-156.373 -302.659)" fill="#fafcff"/>
    <circle id="Ellipse_265" data-name="Ellipse 265" cx="5.55" cy="5.55" r="5.55" transform="translate(133.438 130.309)" fill="#fafcff"/>
    <circle id="Ellipse_266" data-name="Ellipse 266" cx="5.55" cy="5.55" r="5.55" transform="translate(24.154 97.544)" fill="#e6e6e6"/>
    <circle id="Ellipse_267" data-name="Ellipse 267" cx="3.397" cy="3.397" r="3.397" transform="translate(124.804 18.838)" fill="#fff"/>
    <circle id="Ellipse_268" data-name="Ellipse 268" cx="5.55" cy="5.55" r="5.55" transform="translate(97.5 36.211)" fill="#e6e6e6"/>
  </g>
</svg>
