<svg xmlns="http://www.w3.org/2000/svg" width="226.173" height="192.284" viewBox="0 0 226.173 192.284">
  <g id="Gruppe_527" data-name="Gruppe 527" transform="translate(-40.523 -14.783)">
    <path id="Path_482" data-name="Path 482" d="M708.977,734.031s-4.088-10.062,8.175-17.608Z" transform="translate(-540.253 -527.491)" fill="#e6e6e6"/>
    <path id="Path_483" data-name="Path 483" d="M671.578,755.713s-1.247-7.172-10.9-7.11Z" transform="translate(-507.882 -549.356)" fill="#e6e6e6"/>
    <path id="Path_482-2" data-name="Path 482" d="M980.487,722.045s-5.4-13.293,10.8-23.263Z" transform="translate(-724.592 -515.504)" fill="#e6e6e6"/>
    <path id="Path_483-2" data-name="Path 483" d="M931.078,750.689s-1.647-9.475-14.4-9.393" transform="translate(-681.824 -544.39)" fill="#e6e6e6"/>
    <path id="Pfad_2677" data-name="Pfad 2677" d="M471.909,173.114l-5.333-2.833.4-.212,5.333,2.833Z" transform="translate(-276.497 -100.772)" fill="#cbcbcb"/>
    <path id="Pfad_2678" data-name="Pfad 2678" d="M467.856,173.114l-.4-.212,5.333-2.833.4.212Z" transform="translate(-277.096 -100.772)" fill="#cbcbcb"/>
    <rect id="Rechteck_1776" data-name="Rechteck 1776" width="0.564" height="1.693" transform="translate(150.808 50.885) rotate(-62.868)" fill="#cbcbcb"/>
    <path id="Pfad_2679" data-name="Pfad 2679" d="M569.089,259.6l-3-1.537.257-.5,3,1.537Zm-6-3.073-3-1.537.257-.5,3,1.537Zm-6-3.073-3-1.537.257-.5,3,1.537Zm-6-3.073-3-1.537.257-.5,3,1.537Zm-6-3.073-3-1.537.257-.5,3,1.537Z" transform="translate(-386.787 -192.573)" fill="#cbcbcb"/>
    <rect id="Rechteck_1777" data-name="Rechteck 1777" width="0.564" height="1.693" transform="translate(185.302 68.56) rotate(-62.868)" fill="#cbcbcb"/>
    <path id="Pfad_2680" data-name="Pfad 2680" d="M247.677,338.988q0,.264-.017.524a7.943,7.943,0,0,1-.744,2.884l-.01.022c-.02.042-.04.084-.061.125a7.85,7.85,0,0,1-.423.746,7.983,7.983,0,0,1-6.551,3.687l.079,4.544,1.031-.543.184.35-1.207.635.148,8.44,0,.113-.8.177,0-.113.251-13.6a7.967,7.967,0,0,1-5.636-2.452c-.05-.052-.1-.106-.149-.159l-.006-.006a8,8,0,0,1-1.455-2.252l.024.026a7.992,7.992,0,0,1,3.789-10.3l.083-.041a8,8,0,0,1,10.362,3.146c.049.082.1.165.141.249a7.949,7.949,0,0,1,.961,3.8Z" transform="translate(-175.879 -250.828)" fill="#e5e5e5"/>
    <circle id="Ellipse_269" data-name="Ellipse 269" cx="10.473" cy="10.473" r="10.473" transform="translate(60.25 70.649)" fill="#e5e5e5"/>
    <path id="Pfad_2681" data-name="Pfad 2681" d="M248.45,312.138A10.474,10.474,0,0,0,265.9,323.223a10.474,10.474,0,1,1-17.452-11.085Z" transform="translate(-185.46 -238.011)" opacity="0.2"/>
    <path id="Pfad_2682" data-name="Pfad 2682" d="M93.716,236.139l-1.07-.3,0-.115.321-17.421.016-.869v-.025l.056-3.044.081-4.412h0l.055-2.99h.029l.056,3.24.073,4.217.053,2.992v.022l0,.123h0l.1,5.832.011.58.21,12.054Z" transform="translate(-22.426 -125.839)" fill="#3f3d56"/>
    <rect id="Rechteck_1778" data-name="Rechteck 1778" width="1.957" height="0.518" transform="translate(70.686 97.75) rotate(-27.766)" fill="#3f3d56"/>
    <path id="Pfad_2683" data-name="Pfad 2683" d="M349.95,227.23a266.773,266.773,0,0,0-39.667.61,150.375,150.375,0,0,0-19.054,2.582c-5.026,1.117-10.858,3-13.99,7.4a7.145,7.145,0,0,0-1.116,6.255,13.487,13.487,0,0,0,4.582,6.227c4.552,3.761,10.2,5.949,15.247,8.937,9.212,5.455,17.643,12.809,23.055,22.149,2.381,4.11,4.646,9.576,1.995,14.1-2.6,4.437-8.4,5.966-13.126,6.687a76.759,76.759,0,0,1-17.986.153,187.4,187.4,0,0,1-19.441-2.847c-12.589-2.417-25.064-5.492-37.828-6.891a109.551,109.551,0,0,0-19.287-.558,58.776,58.776,0,0,0-17.126,3.406c-4.206,1.614-8.688,4.056-10.96,8.129-2.19,3.926-1.336,8.454,1.049,12.076,2.869,4.359,7.343,7.345,11.994,9.528a87.031,87.031,0,0,0,16.632,5.467c2.876.695,5.768,1.323,8.661,1.948.6.13.861-.8.256-.927-5.833-1.26-11.682-2.525-17.37-4.349-5.263-1.688-10.65-3.851-14.96-7.4-3.487-2.868-6.8-7.057-6.6-11.82.207-4.8,4.236-8.154,8.185-10.217a46.546,46.546,0,0,1,16.034-4.491,97.423,97.423,0,0,1,18.941-.258c12.734.969,25.183,3.87,37.668,6.4,12.129,2.458,24.637,4.734,37.067,4.1,4.927-.25,10.206-.956,14.556-3.443a11.587,11.587,0,0,0,4.8-4.834,10.826,10.826,0,0,0,.827-6.361c-.705-4.734-3.517-9.124-6.323-12.9a62.316,62.316,0,0,0-10.622-11,83.788,83.788,0,0,0-14.055-9.156c-2.641-1.39-5.319-2.727-7.835-4.337a18.639,18.639,0,0,1-6.267-5.908,6.488,6.488,0,0,1-.181-6.841,14.02,14.02,0,0,1,5.937-4.908c5.5-2.731,11.886-3.462,17.9-4.211a264.733,264.733,0,0,1,38.93-1.941q4.742.112,9.478.393c.618.036.616-.925,0-.962Z" transform="translate(-143.462 -180.003)"/>
    <path id="Pfad_2684" data-name="Pfad 2684" d="M669.268,128.619l2-1.6a2.116,2.116,0,0,0-2.449,1.344,3.4,3.4,0,0,0-2.531.156l4,1.45a3.023,3.023,0,0,0-1.011-1.354Z" transform="translate(-471.166 -112.216)" fill="#3f3d56"/>
    <path id="Pfad_2685" data-name="Pfad 2685" d="M639.036,144.392l2-1.6a2.116,2.116,0,0,0-2.449,1.344,3.4,3.4,0,0,0-2.531.156l4,1.45A3.023,3.023,0,0,0,639.036,144.392Z" transform="translate(-450.625 -122.934)" fill="#3f3d56"/>
    <path id="Pfad_2686" data-name="Pfad 2686" d="M669.268,169.367l2-1.6a2.116,2.116,0,0,0-2.449,1.344,3.4,3.4,0,0,0-2.531.156l4,1.45A3.023,3.023,0,0,0,669.268,169.367Z" transform="translate(-471.166 -139.903)" fill="#3f3d56"/>
    <g id="Group_27" data-name="Group 27" transform="translate(157.409 19.671)">
      <circle id="Ellipse_7" data-name="Ellipse 7" cx="6.016" cy="6.016" r="6.016" transform="translate(4.742 0.127)" fill="#f0ff65"/>
      <path id="Path_63" data-name="Path 63" d="M578.265,166.929H548.752a.6.6,0,0,1-.11-.009L562.6,142.744a.977.977,0,0,1,1.7,0l9.367,16.224.449.776Z" transform="translate(-548.642 -142.248)" fill="#fafcff"/>
      <path id="Path_65" data-name="Path 65" d="M638.213,182.03H612.687l4.946-7.185.356-.518,6.445-9.363a1.3,1.3,0,0,1,1.937-.116,1.172,1.172,0,0,1,.093.116Z" transform="translate(-592.158 -157.349)" fill="#fafcff"/>
    </g>
    <path id="Pfad_2687" data-name="Pfad 2687" d="M509.465,392.235c2.8,1.4,4.5,3.245,4.5,5.27,0,4.363-7.9,7.9-17.634,7.9a33.122,33.122,0,0,1-11.159-1.784,30.433,30.433,0,0,0,13.134,2.63c9.739,0,17.634-3.537,17.634-7.9C515.941,395.885,513.417,393.684,509.465,392.235Z" transform="translate(-348.107 -292.434)" fill="#f1f1f1"/>
    <path id="Pfad_2688" data-name="Pfad 2688" d="M522.267,401.585c3.157,1.578,5.078,3.661,5.078,5.947,0,4.923-8.909,8.914-19.9,8.914a37.374,37.374,0,0,1-12.591-2.012c3.643,1.821,8.932,2.968,14.82,2.968,10.989,0,19.9-3.991,19.9-8.914C529.574,405.7,526.727,403.22,522.267,401.585Z" transform="translate(-354.687 -298.787)" fill="#f1f1f1"/>
    <path id="Pfad_2689" data-name="Pfad 2689" d="M517.252,396.353c1.971.985,3.171,2.286,3.171,3.713,0,3.074-5.562,5.566-12.424,5.566a23.336,23.336,0,0,1-7.862-1.257,21.442,21.442,0,0,0,9.253,1.853c6.861,0,12.424-2.492,12.424-5.566C521.814,398.925,520.036,397.374,517.252,396.353Z" transform="translate(-358.275 -295.232)" fill="#f1f1f1"/>
    <path id="Pfad_2690" data-name="Pfad 2690" d="M467.141,394.593s.433,6.33,12.848,6.33,16.121-6.33,16.121-6.33Z" transform="translate(-335.856 -294.036)" fill="#3f3d56"/>
    <path id="Pfad_2691" data-name="Pfad 2691" d="M506.563,339.014a8.714,8.714,0,0,0-6.277-1.717,8.745,8.745,0,0,1-1.059,17.19,8.747,8.747,0,0,0,7.336-15.473Z" transform="translate(-357.657 -255.066)" fill="#3f3d56"/>
    <rect id="Rechteck_1779" data-name="Rechteck 1779" width="0.846" height="20.148" transform="translate(143.992 81.089)" fill="#3f3d56"/>
    <path id="Pfad_2692" data-name="Pfad 2692" d="M678.018,258.386l0-.008-.011-.492,2.652-3.85L678,257.518l-.01.1-.091-3.935,2.29-3.992-2.3,3.3.024-8.153v0l-.152,6.426-2.087-2.61,2.081,3.164-.046,3.52-1.921-3.435,1.914,3.953-.025,1.957-.07,5.423-.005.405q.265,0,.525-.009l-.12-5.209Z" transform="translate(-477.551 -192.268)" fill="#cbcbcb"/>
    <path id="Pfad_2693" data-name="Pfad 2693" d="M638.407,263.667l0-.008-.011-.492,2.652-3.85-2.649,3.482-.01.1-.091-3.935,2.29-3.992-2.3,3.3.024-8.153v0l-.152,6.426-2.087-2.61,2.081,3.164-.046,3.52-1.921-3.435,1.914,3.953-.025,1.957L638,268.52l-.005.405q.265,0,.525-.009l-.12-5.209Z" transform="translate(-450.638 -195.856)" fill="#cbcbcb"/>
    <path id="Pfad_2694" data-name="Pfad 2694" d="M657.773,246.943l0-.008-.011-.492,2.652-3.85-2.649,3.482-.01.1-.091-3.935,2.29-3.992-2.3,3.3.024-8.153v0l-.152,6.426-2.087-2.61,2.081,3.164-.046,3.52-1.921-3.435,1.914,3.953-.026,1.957-.07,5.423-.005.405q.265,0,.525-.009l-.12-5.209Z" transform="translate(-463.796 -184.493)" fill="#cbcbcb"/>
    <circle id="Ellipse_270" data-name="Ellipse 270" cx="3.386" cy="3.386" r="3.386" transform="translate(85.728 149.369)" fill="#fafcff"/>
    <path id="Pfad_2695" data-name="Pfad 2695" d="M696.07,599.79l-3.135,1.164-5.984-11.536,4.626-1.719Z" transform="translate(-466.758 -399.32)" fill="#ffb7b7"/>
    <path id="Pfad_2696" data-name="Pfad 2696" d="M883.316,752.361l-10.107,3.755-.048-.128a4.2,4.2,0,0,1,2.472-5.4h0l6.173-2.294Z" transform="translate(-652.076 -549.149)" fill="#2f2e41"/>
    <path id="Pfad_2697" data-name="Pfad 2697" d="M608.7,608.233h-3.344l-1.591-12.9H608.7Z" transform="translate(-410.237 -404.508)" fill="#ffb7b7"/>
    <path id="Pfad_2698" data-name="Pfad 2698" d="M782.1,763.5H771.32v-.136a4.2,4.2,0,0,1,4.2-4.2H782.1Z" transform="translate(-583.058 -556.534)" fill="#2f2e41"/>
    <path id="Pfad_2699" data-name="Pfad 2699" d="M804.078,478.88l-1.091-2.182-9.274,4.637.273,1.909-1.773,2.318s-3,1.637-2.455,7.092l.545,5.182.682,6.682-4.773,16.5-2.455,21.82-1.773,17.593,8.592-.409,7.91-28.639,13.91,30.821,9.546-2.455L808.851,529.2l-1.636-12.819s1.091-6.819-4.091-11.456l.818-2.455v-3.025l2.727-14.431Z" transform="translate(-590.304 -364.606)" fill="#2f2e41"/>
    <rect id="Rechteck_1780" data-name="Rechteck 1780" width="22.105" height="0.321" transform="translate(208.028 166.734) rotate(-74.249)" opacity="0.2"/>
    <rect id="Rechteck_1781" data-name="Rechteck 1781" width="13.365" height="1.364" transform="translate(200.136 139.912)" fill="#3f3d56"/>
    <ellipse id="Ellipse_271" data-name="Ellipse 271" cx="0.546" cy="1.364" rx="0.546" ry="1.364" transform="translate(199.591 139.366)" fill="#3f3d56"/>
    <circle id="Ellipse_272" data-name="Ellipse 272" cx="7.27" cy="7.27" r="7.27" transform="translate(196.296 101.474) rotate(-28.663)" fill="#ffb7b7"/>
    <circle id="Ellipse_273" data-name="Ellipse 273" cx="6.432" cy="6.432" r="6.432" transform="translate(210.857 88.907)" fill="#2f2e41"/>
    <path id="Pfad_2700" data-name="Pfad 2700" d="M860.743,422.285a6.432,6.432,0,1,1-12.547,2.638,6.432,6.432,0,0,0,12.547-2.638Z" transform="translate(-635.292 -327.635)" fill="#2f2e41"/>
    <path id="Pfad_2701" data-name="Pfad 2701" d="M802.582,432a7.6,7.6,0,1,0,4.538-6.122c-1.27-1.024-2.845-.707-4.125.374a11.788,11.788,0,0,0-3,4.072C801.1,430.477,801.478,431.843,802.582,432Z" transform="translate(-602.541 -329.65)" fill="#2f2e41"/>
    <path id="Pfad_2702" data-name="Pfad 2702" d="M861.089,490.954c-.081,2.155-.243,6.4-.243,6.612s-3.215,6.885-4.6,9.75h0c-.1.2-.187.385-.266.546a1.291,1.291,0,0,1-1.187.729l-6.07-.109a1.294,1.294,0,0,1-1.271-1.261l-.677-26.706a.66.66,0,0,1,.66-.677h7.828a1.76,1.76,0,0,1,1.584.994l3.757,7.773a4.97,4.97,0,0,1,.49,2.346Z" transform="translate(-634.324 -366.742)" fill="#fafcff"/>
    <path id="Pfad_2703" data-name="Pfad 2703" d="M829.452,507.966a17.386,17.386,0,0,1-4.148-3.505,19.236,19.236,0,0,1-4.794-11.183c-.309-3.549.4-6.187,2.093-7.841a6.909,6.909,0,0,1,5.219-1.783l.131.015,1.99,1.684-.563.665-1.78-1.507a6.083,6.083,0,0,0-4.4,1.557c-1.5,1.463-2.11,3.864-1.826,7.134a18.369,18.369,0,0,0,4.554,10.654,16.877,16.877,0,0,0,3.94,3.347Z" transform="translate(-616.433 -369.317)" fill="#fafcff"/>
    <rect id="Rechteck_1782" data-name="Rechteck 1782" width="10.828" height="0.291" transform="matrix(0.98, -0.201, 0.201, 0.98, 213.707, 130.682)" fill="#3f3d56"/>
    <rect id="Rechteck_1783" data-name="Rechteck 1783" width="0.291" height="16.891" transform="matrix(0.999, -0.041, 0.041, 0.999, 217.034, 113.106)" fill="#3f3d56"/>
    <path id="Pfad_2704" data-name="Pfad 2704" d="M881.167,511.912c-.081,2.155-.243,6.4-.243,6.612s-3.215,6.885-4.6,9.75l2.589-15.033a3.314,3.314,0,0,1,2.152-2.556A4.877,4.877,0,0,1,881.167,511.912Z" transform="translate(-654.401 -387.7)" fill="#3f3d56"/>
    <path id="Pfad_2705" data-name="Pfad 2705" d="M832.036,589.831A2.558,2.558,0,0,0,831.2,586l.526-5.821-3.459-1.182-.628,8.231a2.571,2.571,0,0,0,4.393,2.605Z" transform="translate(-621.177 -434.114)" fill="#ffb7b7"/>
    <path id="Pfad_2706" data-name="Pfad 2706" d="M830.232,523.653l-6.13-.222.259-29.561a3.99,3.99,0,0,1,2.7-3.8,3.625,3.625,0,0,1,2.28,0,3.991,3.991,0,0,1,2.7,4.084Z" transform="translate(-618.921 -373.568)" fill="#cbcbcb"/>
    <path id="Pfad_2707" data-name="Pfad 2707" d="M751.435,771.641H629.311a.321.321,0,0,1,0-.641H751.435a.321.321,0,0,1,0,.641Z" transform="translate(-486.35 -564.574)" fill="#fff"/>
  </g>
</svg>
