<svg xmlns="http://www.w3.org/2000/svg" width="246.412" height="178.382" viewBox="0 0 246.412 178.382">
  <g id="Gruppe_535" data-name="Gruppe 535" transform="translate(-1283.794 -467.747)">
    <path id="Pfad_2207" data-name="Pfad 2207" d="M540.141,134.377c-1.581-2.614-3.454-5.405-6.387-6.259-3.4-.988-6.886.975-9.846,2.913a286.884,286.884,0,0,0-25.534,18.813l.009.1,19.053-1.314c4.589-.316,9.335-.677,13.39-2.847,1.539-.824,3.039-1.924,4.782-2,2.167-.1,4.055,1.418,5.54,3,8.781,9.351,11.322,23.65,21.173,31.865A312.61,312.61,0,0,0,540.141,134.377Z" transform="translate(865.609 355.076)" fill="#fff"/>
    <path id="Pfad_2208" data-name="Pfad 2208" d="M527.012,194.269c-.971-1.226-1.368-1.513-2.326-2.751q-11.7-15.131-21.992-31.283-6.991-10.97-13.289-22.362-3-5.416-5.832-10.916-2.2-4.265-4.3-8.581c-.4-.822-.789-1.647-1.177-2.475-.913-1.946-1.808-3.9-2.77-5.821a16.011,16.011,0,0,0-4.442-5.951,6.061,6.061,0,0,0-3.157-1.215,8.807,8.807,0,0,0-4.57,1.309,147.124,147.124,0,0,0-28.929,19.949,150.6,150.6,0,0,0-23.5,26.09c-.208.3-.7.013-.489-.285q1.239-1.751,2.526-3.465a151.439,151.439,0,0,1,38.663-36.063q3.761-2.437,7.663-4.646c1.311-.743,2.628-1.476,3.967-2.163a9.668,9.668,0,0,1,4.208-1.3c5.1-.079,7.748,5.7,9.564,9.592q.856,1.836,1.732,3.661,3.313,6.929,6.881,13.731,2.2,4.2,4.5,8.351Q497.092,150.6,505.145,163c7.111,10.952,14.166,20.627,22.267,30.869C527.635,194.152,527.236,194.556,527.012,194.269Z" transform="translate(932.714 374.494)" fill="#e4e4e4"/>
    <path id="Pfad_2209" data-name="Pfad 2209" d="M362.719,151.95c-.3-.331-.591-.661-.89-.992-2.354-2.6-4.88-5.177-8.113-6.669a11.771,11.771,0,0,0-4.931-1.143,14.075,14.075,0,0,0-5.12,1.117c-.771.308-1.525.657-2.267,1.03-.848.427-1.681.882-2.511,1.341q-2.335,1.292-4.61,2.7-4.526,2.8-8.768,6.021-2.2,1.672-4.308,3.454-1.961,1.655-3.843,3.4c-.268.247-.669-.153-.4-.4.331-.308.665-.614,1-.916q1.417-1.281,2.879-2.513,2.667-2.25,5.471-4.327,4.361-3.231,9.023-6.023,2.329-1.394,4.723-2.671c.482-.257.969-.508,1.462-.746a23.31,23.31,0,0,1,3.476-1.415,12.366,12.366,0,0,1,5.25-.516,13.67,13.67,0,0,1,4.844,1.676c3.174,1.774,5.636,4.517,8.031,7.195C363.361,151.82,362.962,152.222,362.719,151.95Z" transform="translate(1003.718 343.861)" fill="#e4e4e4"/>
    <path id="Pfad_2210" data-name="Pfad 2210" d="M779.55,274.677l7.606-2.782,3.776-1.381a38.6,38.6,0,0,1,3.728-1.284,5.881,5.881,0,0,1,3.374.043,7.777,7.777,0,0,1,2.632,1.631,21.371,21.371,0,0,1,2.159,2.305c.822.988,1.632,1.987,2.446,2.982q5.037,6.16,10.008,12.374t9.876,12.48q4.917,6.282,9.766,12.616l1.187,1.553c.218.286.711,0,.49-.286q-4.885-6.4-9.838-12.744-4.965-6.361-10-12.668t-10.135-12.559q-1.271-1.557-2.546-3.112c-.717-.874-1.426-1.757-2.213-2.571a7.976,7.976,0,0,0-5.407-2.849,10.437,10.437,0,0,0-3.678.809c-1.271.46-2.54.929-3.81,1.393l-7.659,2.8-1.915.7c-.34.124-.193.672.151.547Z" transform="translate(651.922 248.113)" fill="#e4e4e4"/>
    <path id="Pfad_2211" data-name="Pfad 2211" d="M427.439,159.355a12.279,12.279,0,0,0-12.367.884,176.385,176.385,0,0,1,20.067,4.684C432.4,163.319,430.261,160.805,427.439,159.355Z" transform="translate(928.994 332.071)" fill="#fff"/>
    <path id="Pfad_2212" data-name="Pfad 2212" d="M412.546,167.059l-.744.6c.252-.212.513-.41.782-.6Z" transform="translate(931.483 325.244)" fill="#f2f2f2"/>
    <path id="Pfad_2213" data-name="Pfad 2213" d="M855.916,287.57a6.331,6.331,0,0,0-2.678-2.236l-1.046.041a118.594,118.594,0,0,0,31.587,36.112Z" transform="translate(596.386 235.248)" fill="#f2f2f2"/>
    <path id="Pfad_2214" data-name="Pfad 2214" d="M602.69,581.007a.244.244,0,0,1-.083-.015l-20.146-7.4a.239.239,0,0,1,.165-.449l20.146,7.4a.239.239,0,0,1-.082.464Z" transform="translate(810.194 11.121)" fill="#fff"/>
    <path id="Pfad_2215" data-name="Pfad 2215" d="M448.689,523.007a.24.24,0,0,1-.082-.015l-20.146-7.4a.239.239,0,0,1,.165-.449l20.146,7.4a.239.239,0,0,1-.082.464Z" transform="translate(924.638 55.364)" fill="#fff"/>
    <path id="Pfad_2216" data-name="Pfad 2216" d="M291.689,465.007a.238.238,0,0,1-.083-.015l-20.146-7.4a.239.239,0,0,1,.165-.449l20.146,7.4a.239.239,0,0,1-.082.464Z" transform="translate(1041.31 99.606)" fill="#fff"/>
    <path id="Pfad_2217" data-name="Pfad 2217" d="M296.3,337.933c-.84-.188-1.69-.336-2.53-.439l-.122-.015c-5.576-.664-10.283,1.664-10.949,5.414l-.118.679c-.074.429-.154.891-.249,1.4-.046.252.207.51.576.592l134.1,29.977c9.47,2.047,18.909,4.07,28.054,6.012a42.5,42.5,0,0,0,5.191.84c2.612.221,4.525-.07,5.848-.891h0c1.644-1.017,2.058-2.668,2.4-4.561.68-3.825,1.405-7.841,2.127-11.844.636-3.529,1.271-7.048,1.873-10.418.353-2,.546-3.794-.688-5.473-1.338-1.817-4.2-3.226-8.517-4.191l-.157-.035c-13.531-2.967-28.122-.61-36.307,5.865-.943.745-1.849,1.567-2.726,2.361a38,38,0,0,1-4.137,3.4,16,16,0,0,1-2.55,1.431c-.061.03-.131.061-.2.089-.169.076-.343.147-.51.207a14.831,14.831,0,0,1-3.026.812l-.1.015c-.078.013-.162.026-.246.035a16.334,16.334,0,0,1-1.788.141,24.054,24.054,0,0,1-8.366-1.406,36.279,36.279,0,0,1-7.789-3.766,86.939,86.939,0,0,1-7.207-5.323c-1-.793-2.03-1.612-3.067-2.4-.195-.149-.387-.294-.582-.441-1.27-.949-2.433-1.758-3.556-2.474a34.969,34.969,0,0,0-8.881-4.073,20.656,20.656,0,0,0-9.069-.783,14.481,14.481,0,0,0-2.212.543c-3.329,1.1-5.718,3.285-8.029,5.4-2.874,2.63-5.846,5.349-10.666,6.026-5.562.783-12.872-1.693-17.858-4.271-1.568-.811-3.119-1.687-4.619-2.535q-.909-.514-1.82-1.023c-1.194-.666-2.175-1.191-3.089-1.653l-.289-.147c-.161-.081-.322-.161-.486-.241-1.088-.535-2.11-.993-3.126-1.4l-.24-.1c-.483-.188-.937-.355-1.384-.511l-.179-.062A26.125,26.125,0,0,0,296.3,337.933Z" transform="translate(1030 195.656)" fill="#fff"/>
    <path id="Pfad_2218" data-name="Pfad 2218" d="M439.184,407.834a.209.209,0,0,1-.048-.005l-169.975-37.5a.24.24,0,0,1-.177-.285.23.23,0,0,1,.272-.185l169.975,37.5a.239.239,0,0,1,.181.26A.234.234,0,0,1,439.184,407.834Z" transform="translate(1040.752 170.287)" fill="#fff"/>
    <circle id="Ellipse_220" data-name="Ellipse 220" cx="12.194" cy="12.194" r="12.194" transform="translate(1437.41 467.747)" fill="#f0ff65"/>
    <path id="Pfad_2219" data-name="Pfad 2219" d="M872.094,75.838c-5.91-.8-12.656,2.4-14.188,8.159a5.163,5.163,0,0,0-9.825.5l.677.485a89.009,89.009,0,0,0,38.412-.174C883.059,80.492,878,76.637,872.094,75.838Z" transform="translate(599.514 394.747)" fill="#fff"/>
    <path id="Pfad_2220" data-name="Pfad 2220" d="M766.094,143.838c-5.909-.8-12.656,2.4-14.188,8.159a5.164,5.164,0,0,0-9.825.5l.677.485a89.008,89.008,0,0,0,38.412-.174C777.059,148.492,772,144.637,766.094,143.838Z" transform="translate(680.17 343.005)" fill="#f0f0f0"/>
    <path id="Pfad_2221" data-name="Pfad 2221" d="M876.413,485.529a2.563,2.563,0,0,1,.356-3.914l-4.081-20.269,4.506,1.447,3.266,19.6a2.577,2.577,0,0,1-4.049,3.131Z" transform="translate(628.367 82.061)" fill="#9e616a"/>
    <path id="Pfad_2222" data-name="Pfad 2222" d="M858.472,384.2l2.8-2.11s2.466-.175,2.9,4.273S865.5,399.48,865.5,399.48l4.278,19.816-5.922,1.3-4.583-21.385-2.749-6.351Z" transform="translate(640.284 140.505)" fill="#2f2e41"/>
    <path id="Pfad_2223" data-name="Pfad 2223" d="M670.569,418.029l-15.755-.263L653.5,407h17.068Z" transform="translate(832.797 139.035)" fill="#9e616a"/>
    <path id="Pfad_2224" data-name="Pfad 2224" d="M647.959,660.434h-3.637l-1.731-14.03h5.368Z" transform="translate(840.841 -37.503)" fill="#9e616a"/>
    <path id="Pfad_2225" data-name="Pfad 2225" d="M736.479,641.143l-3.637-.026-1.632-14.041,4.731,1.086Z" transform="translate(775.493 -23.251)" fill="#9e616a"/>
    <path id="Pfad_2226" data-name="Pfad 2226" d="M664.51,367.062l.824,2.143-.165,2.143-16.13,5.587.8-9.378,1.813-2.143Z" transform="translate(836.085 169.7)" fill="#ffb6b6"/>
    <ellipse id="Ellipse_221" data-name="Ellipse 221" cx="5.761" cy="5.761" rx="5.761" ry="5.761" transform="translate(1487.915 505.958)" fill="#9e616a"/>
    <path id="Pfad_2227" data-name="Pfad 2227" d="M796.809,765.09h-2.581l-.461-2.437-1.18,2.437h-6.845a1.539,1.539,0,0,1-.875-2.805l5.466-3.775v-2.464l5.75.343Z" transform="translate(693.618 -135.253)" fill="#2f2e41"/>
    <path id="Pfad_2228" data-name="Pfad 2228" d="M886.155,745.828l-2.581-.018-.444-2.44-1.2,2.428-6.845-.048a1.539,1.539,0,0,1-.855-2.811l5.493-3.737.017-2.464,5.747.384Z" transform="translate(627.725 -121.016)" fill="#2f2e41"/>
    <path id="Pfad_2229" data-name="Pfad 2229" d="M830.93,549.449l-2.648-16.181-3.151-22.32c2.308-4.286-2.888-17.594-2.888-17.594l-.734.035-16.6,3.132,0-.016c-3.4,9.261-4.521,13.836-4.334,23.7l.669,35.453h-.21a1.313,1.313,0,0,0,0,2.626H807.6a1.313,1.313,0,1,0,0-2.626h-.169l6.026-42.214,5.109,17.725,5.777,18.119c-2.1-.525-1.775.692-1.775,1.381a1.313,1.313,0,0,0,1.313,1.313h6.565a1.312,1.312,0,0,0,.484-2.531Z" transform="translate(682.173 58.457)" fill="#2f2e41"/>
    <path id="Pfad_2230" data-name="Pfad 2230" d="M826.72,405.708l-.525-5.252a1.047,1.047,0,0,0-.947-.787c-.219-2.5-1.139-13.295-1.194-13.766l0-.02-.419-8.943a1.323,1.323,0,0,0-1.235-1.258l-2.211-.144a.117.117,0,0,1-.113-.117,1.859,1.859,0,0,0-1.859-1.859h-6.547a1.741,1.741,0,0,0-1.727,1.524.116.116,0,0,1-.117.1h0a3.11,3.11,0,0,0-3.129,2.579c-.9,5.208-2.689,17.027-1.8,23.6.309,2.288-.357.476-.474,2.39a1.409,1.409,0,0,0,.351,1.021,1.016,1.016,0,0,0-.611,1.291l-.115-.029a1.051,1.051,0,0,0,1.275.762l20.115-5.071C826,401.59,826.862,406.27,826.72,405.708Z" transform="translate(678.988 146.793)" fill="#2f2e41"/>
    <path id="Pfad_2231" data-name="Pfad 2231" d="M793.69,485.529a2.563,2.563,0,0,0-.356-3.914l4.081-20.269-4.506,1.447-3.266,19.6a2.577,2.577,0,0,0,4.048,3.131Z" transform="translate(689.878 82.061)" fill="#9e616a"/>
    <path id="Pfad_2232" data-name="Pfad 2232" d="M797.269,384.2l-2.8-2.11s-2.466-.175-2.9,4.273-1.334,13.117-1.334,13.117L785.957,419.3l5.923,1.3,4.583-21.385,2.749-6.351Z" transform="translate(692.324 140.505)" fill="#2f2e41"/>
    <path id="Pfad_2233" data-name="Pfad 2233" d="M864.82,294.373c1.073.319,2.074-.578,2.821-1.429l-.266.315a10.252,10.252,0,0,1,3.49,5.294c.682,2.038,1.062,4.174,1.831,6.183a9.061,9.061,0,0,0,3.913,4.95c2.547,1.341,5.667.731,8.377-.236l.106-.038a17.263,17.263,0,0,1-1.975-6.615,15.7,15.7,0,0,0,4.693,5.506,36.01,36.01,0,0,0,5.089-2.831c1.046-.7,2.149-1.6,2.271-2.857a3.284,3.284,0,0,0-1.9-2.979,18.087,18.087,0,0,0-3.553-1.161,5.033,5.033,0,0,1-3.042-2.025c-1.447-2.484.988-5.987-.565-8.408a5.648,5.648,0,0,0-3.627-2,47.963,47.963,0,0,0-6.385-1.078,13.416,13.416,0,0,0-5.634.349,5.581,5.581,0,0,0-3.809,3.877,6.051,6.051,0,0,0-2.72,2.207C863.372,292.443,863.684,294.036,864.82,294.373Z" transform="translate(635.025 212.223)" fill="#2f2e41"/>
    <path id="Pfad_2234" data-name="Pfad 2234" d="M829.711,311.038a6.581,6.581,0,0,1,1.587,3.513c2.135,3.9-.918,7.254-4.82,9.388a7.994,7.994,0,0,1-5.107.89l-.163-.7-.221.628s-2.541,8.391-3.378,8.883c.318-1.493.682-8.407.859-9.865.245-1.983-.609-4.936-1.225-6.732a10.6,10.6,0,0,1-.58-3.44v-.051l-.6,1.927-2.185-.932c.406-2.331,0-4.978,4.872-4.748,2.635-1.812,4.956-2.089,6.862-1.574.246-.38,1.665.332,2.075.132" transform="translate(671.737 195.139)" fill="#2f2e41"/>
    <path id="Pfad_2235" data-name="Pfad 2235" d="M833.5,399.59a3.731,3.731,0,0,1-3.209,3.282l-11.861,1.607a3.735,3.735,0,0,1-4.2-3.2l-1.71-12.641a3.723,3.723,0,0,1,.473-2.374l-.081-.614a1.967,1.967,0,0,1-.468-3.451l1.465-6.788a1.051,1.051,0,0,1,1-1.192,1.08,1.08,0,0,1,1.085.953l.134,1a5.252,5.252,0,0,0,10.457-.7,5.43,5.43,0,0,0-.047-.712l-.131-.982a1.09,1.09,0,0,1,.835-1.232,1.05,1.05,0,0,1,1.237.893l.848,6.25a1.968,1.968,0,0,1,.88,3.784,3.72,3.72,0,0,1,1.567,2.558l1.712,12.644A3.675,3.675,0,0,1,833.5,399.59Z" transform="translate(673.398 147.554)" fill="#fafcff"/>
    <path id="Pfad_2236" data-name="Pfad 2236" d="M815.9,415.345a.394.394,0,0,1,.338-.443l16.167-2.478a.394.394,0,1,1,.106.781l-16.167,2.478A.394.394,0,0,1,815.9,415.345Z" transform="translate(670.25 118.139)" fill="#3f3d56"/>
    <path id="Pfad_2237" data-name="Pfad 2237" d="M821.571,428.5l-.535-3.948a1.159,1.159,0,0,1,.993-1.3l15.441-1.975a1.159,1.159,0,0,1,1.3.993l.534,3.948a1.159,1.159,0,0,1-.993,1.3l-6.167.848a1.183,1.183,0,0,1,.031.128l.546,4.033,5.2-.7a.263.263,0,0,1,.071.52l-5.2.7-2.342.317-4.944.669a.263.263,0,0,1-.07-.52l4.944-.669-.546-4.033a1.106,1.106,0,0,1,0-.132l-6.958.813A1.159,1.159,0,0,1,821.571,428.5Z" transform="translate(666.464 111.617)" fill="#3f3d56"/>
    <path id="Pfad_2238" data-name="Pfad 2238" d="M320.615,534.544a.521.521,0,0,1-.246-.057L163.1,448.244c-.151-.083-.163-.224-.027-.316a.547.547,0,0,1,.519-.016l157.267,86.243c.113.062.152.16.1.247A.411.411,0,0,1,320.615,534.544Z" transform="translate(1120.814 111.584)" fill="#fff"/>
    <path id="Pfad_2239" data-name="Pfad 2239" d="M801.712,444.337a.532.532,0,0,0-.564-.57.506.506,0,0,0-.084.01l-3.324.751a.547.547,0,0,0-.352.27.676.676,0,0,0-.144.021.808.808,0,0,0,.357,1.575.816.816,0,0,0,.325-.158l1.127,3.172a.529.529,0,0,0,.58.255l2.161-.489a.537.537,0,0,0,.412-.478Zm-4.162,1.833a.578.578,0,1,1-.257-1.126c.01,0,.021,0,.031,0a.542.542,0,0,0,.071.273l.412.72A.545.545,0,0,1,797.55,446.17Z" transform="translate(684.466 95.024)" fill="#ccc"/>
    <path id="Pfad_2240" data-name="Pfad 2240" d="M803.9,443.77c.032.42-.688.9-1.652,1.1-.885.181-1.678.055-1.9-.276a.5.5,0,0,1,.144-.058l3.324-.751A.506.506,0,0,1,803.9,443.77Z" transform="translate(681.711 95.021)" fill="#e6e6e6"/>
    <path id="Pfad_2241" data-name="Pfad 2241" d="M804.12,461.179l-.965-2.008c-.566-1.176.47-2.428,2.308-2.79l2.264-.382.947,6.618-.2.039C806.64,463.018,804.685,462.356,804.12,461.179Z" transform="translate(679.757 86.003)" fill="#fafcff"/>
    <g id="Gruppe_500" data-name="Gruppe 500" transform="translate(1488.19 546.422)" opacity="0.2">
      <path id="Pfad_2242" data-name="Pfad 2242" d="M842.4,473.553a3.732,3.732,0,0,1-3.209,3.282l-11.862,1.607a3.731,3.731,0,0,1-3.642-1.686,3.812,3.812,0,0,1,2.721-1.376,12.788,12.788,0,0,1,3,.475,10.4,10.4,0,0,0,7.045-1.169,19.123,19.123,0,0,1,2.781-1.61,2.99,2.99,0,0,1,3.072.376A1.018,1.018,0,0,1,842.4,473.553Z" transform="translate(-823.69 -472.831)"/>
    </g>
    <path id="Pfad_3031" data-name="Pfad 3031" d="M602.69,581.007a.244.244,0,0,1-.083-.015l-20.146-7.4a.239.239,0,0,1,.165-.449l20.146,7.4a.239.239,0,0,1-.082.464Z" transform="translate(853.168 26.002)" fill="#fff"/>
  </g>
</svg>
