<svg xmlns="http://www.w3.org/2000/svg" xmlns:xlink="http://www.w3.org/1999/xlink" width="242.96" height="169.304" viewBox="0 0 242.96 169.304">
  <defs>
    <linearGradient id="linear-gradient" x1="0.5" y1="1" x2="0.5" gradientUnits="objectBoundingBox">
      <stop offset="0" stop-color="gray" stop-opacity="0.251"/>
      <stop offset="0.54" stop-color="gray" stop-opacity="0.122"/>
      <stop offset="1" stop-color="gray" stop-opacity="0.102"/>
    </linearGradient>
  </defs>
  <g id="Gruppe_534" data-name="Gruppe 534" transform="translate(0 0.018)">
    <path id="Pfad_2982" data-name="Pfad 2982" d="M373.476,103.186a56.921,56.921,0,0,0-9.267-14.767L235.633,87.153,341.494,72.286a60.065,60.065,0,0,0-21.478-4.261,60.2,60.2,0,0,0-71.921-2.438,59.945,59.945,0,0,0-27.522-6.628c-28.567,0-52.372,19.786-57.713,46.025Z" transform="translate(-135.028 -54.86)" fill="#fff" opacity="0.4"/>
    <path id="Pfad_2983" data-name="Pfad 2983" d="M310.1,307.057a55.575,55.575,0,0,0-4.006-20.767L83.253,309.679a55.926,55.926,0,0,0-5.219,13.181l69,10.283-70.579,7.5c2.123,29.7,27.588,53.158,58.7,53.158a59.554,59.554,0,0,0,40.429-15.639,59.787,59.787,0,0,0,93.954-16.753,58.01,58.01,0,0,0,38.679-39.977l-87.27-13.524h89.134C310.084,307.625,310.1,307.342,310.1,307.057Z" transform="translate(-67.137 -236.726)" fill="#fff" opacity="0.4"/>
    <ellipse id="Ellipse_318" data-name="Ellipse 318" cx="89.134" cy="8.462" rx="89.134" ry="8.462" transform="translate(15.105 149.148)" fill="#fafcff"/>
    <path id="Pfad_2984" data-name="Pfad 2984" d="M334.343,481.609a13.986,13.986,0,0,1-2.6,1.285l-.244.1a.788.788,0,0,0,.293-.508c0-2.057-15.658,2.054-18.691,2.054a13.161,13.161,0,0,1-4.18-.857,34.651,34.651,0,0,0-6.776-1.682h0a23.806,23.806,0,0,0-3.115-1.626v-.015c.062-.122.12-.246.169-.371a.2.2,0,0,1,.024-.062l.077-.2c.024-.064.047-.128.066-.193.919-2.71.386-5.746-.587-8.46-.482-1.339-1.071-2.757-.739-4.139a3.884,3.884,0,0,1,.266-.743h0a3.373,3.373,0,0,1,.159-.3c.026-.049.056-.1.086-.15.077-.131.156-.261.24-.39.056-.084.111-.169.169-.253.156-.229.317-.461.469-.694l.019-.028c.051-.077.1-.156.148-.236s.077-.124.114-.186l.054-.094a.305.305,0,0,0,.026-.036c.024-.045.051-.094.075-.141l.028-.056a3.939,3.939,0,0,0,.167-.362c.021-.058.045-.114.062-.169s.015-.054.024-.079c.021-.069.043-.135.062-.214l.013-.049.013-.051c.011-.043.024-.086.032-.129a.134.134,0,0,1,0,.017,8.165,8.165,0,0,0-.073-3.353,23.579,23.579,0,0,0-.831-3.126,6.784,6.784,0,0,1-.6-3.316,4.879,4.879,0,0,1,.317-.979h0c.092-.214.189-.428.276-.656.051-.129.1-.259.144-.39l.039-.118c.021-.064.036-.129.054-.193l.013-.06v-.03h0a6.878,6.878,0,0,0,.1-2.054,9.42,9.42,0,0,0-1.386-4.587,5.909,5.909,0,0,0-2.007-1.883,4.457,4.457,0,0,0-.838-.362c.024-.043.051-.084.075-.124a1.6,1.6,0,0,0,.169-.428,2.414,2.414,0,0,0-.081-1.06,18.174,18.174,0,0,0-1.459-4.428,6.1,6.1,0,0,0-3.381-3.061,20.145,20.145,0,0,1-2.26-.6c-.3-.137-.583-.321-.876-.48a5.784,5.784,0,0,0-2.571-.7c-.176-.011-.347,0-.521,0h-.109a3.753,3.753,0,0,0-.428.041c-.178.024-.358.043-.525.075a.743.743,0,0,0-.683.561v.024a.175.175,0,0,1-.015.077c-.094-.015-.191-.03-.287-.041a9.561,9.561,0,0,0-1.054-.058,9.2,9.2,0,0,0-9.1,8.012,4.887,4.887,0,0,1-.6.047,9.855,9.855,0,0,1-2.4-.3L268,438.65h0s.013-.034.043-.1l.251-.191-.186.036c.309-.709,1.174-2.7,1.654-3.657.587-1.174,4.794-2.641,4.794-2.641,5.784-.293,10.283-4.5,10.283-4.5s12.022,1.956,19.456,1.362,9.981,1.763,9.981,1.763,4.9,13.409,13.019,9.769c6.112-2.736-4.792-10.546-10.561-14.244.332.186.66.379.981.585s.692.446,1.058.686c-.686-.461-1.339-.889-1.939-1.273a19.708,19.708,0,0,0-6.56-2.691l-21.234-4.484h-.1a65.284,65.284,0,0,0-16.316,3.94c-6.3,2.41-13.618,5.75-14.317,6.427a33.911,33.911,0,0,1-4.7,3.62c-2.074.3-4.82,2.217-6.673,3.689l-.3.242c-.034-.163-.045-.261-.045-.261s-2.607,1.579-2.644,2.459-5.321,5.141-5.321,5.141-2.973,4.707-4.589,4.934-3.965,5.321-3.965,5.321l-2.785,5.469s-1.467,1.5-1.285,2.423-1.138,2.018-1.138,2.018-2.129,1.834-2.093,2.459-1.1,1.285-1.1,1.285a33.744,33.744,0,0,0-2.054,4.332.585.585,0,0,0,0,.353l-.028.013s-1.33,3-1.285,4.184a4.666,4.666,0,0,1-.722,2.264l-.1.036h.079c-.06.1-.1.161-.1.165h0a19.711,19.711,0,0,0-14.582-2.166c-8.661,1.9-8.083,6.975-8.083,6.975s.343,6.238,2.839,8.378,4.07,2.239,5.48,3.856,8.76,2.357,8.76,2.357,14.533.733,22.363,0,11.371-.735,11.371-.735,8.6-1.071,12.466-.392a55.522,55.522,0,0,0,9.347.491,2.225,2.225,0,0,0,.214-.587h.079a2.192,2.192,0,0,0,.214-.566,39,39,0,0,1,5.654-.805,23.719,23.719,0,0,0,7.532-1.761s3.014.026,7.539,3.156,18.01,1.345,18.01,1.345l7.44-.587s4.891-.784,6.459,1.272,5.381,2.839,6.654,0,7.243-8.318,7.243-8.318,5.482-3.134,7.926-11.253S335.417,480.635,334.343,481.609Zm-42.732-32.37c.413-.441.752-.951,1.168-1.392.561-.593,1.26-1.045,1.814-1.643a3.426,3.426,0,0,0,.686-1.071l.013.024.116.306c.015.049.026.1.039.146s.026.114.036.171.013.064.017.1c.013.088.021.178.026.268v.431a1.363,1.363,0,0,1-.026.263,1.038,1.038,0,0,1-.024.161c-.009.054-.015.092-.024.137s-.015.086-.026.129v.013c-.021.094-.043.189-.066.283h0a6.5,6.5,0,0,1-.238.741c-.161.428-.349.857-.514,1.285h0c-.045.116-.088.234-.129.349-.017.051-.034.1-.054.152s-.036.118-.056.176v.026a5.858,5.858,0,0,0-.156.643.4.4,0,0,0,0,.049c0,.015,0,.032,0,.047l-.019.146v.1a1.382,1.382,0,0,1-.015.249v.124a1.994,1.994,0,0,0,.015.3.319.319,0,0,0,.015.118c.015.039,0,.094.015.141a.08.08,0,0,1,0,.021.67.67,0,0,0,.024.131c.009.043.024.126.036.191l.019.081a.481.481,0,0,0,.03.131c.013.043.015.06.024.09s0,.045.017.066l.032.116a.367.367,0,0,0,.028.094l.064.214c.021.062.041.124.06.186a6.526,6.526,0,0,1,.555,2.965h0a2.32,2.32,0,0,1-.045.238,5.666,5.666,0,0,1-1.315,2.123,36.64,36.64,0,0,0-2.224,2.95,8.41,8.41,0,0,0-.754,1.275h0c-.051.114-.1.229-.141.345l-.054.144a7.762,7.762,0,0,0,.028,3.61l.818,4.914c.026.152.051.3.075.458l.026.169.019.133c.03.214.056.441.073.662v.066a1.874,1.874,0,0,0,.013.268v.428a1.608,1.608,0,0,1-.024.332v.026c-.013.114-.03.227-.051.339h0a3.175,3.175,0,0,1-.1.4,6.57,6.57,0,0,1-.872,1.635h0l-.538-.193s-4.5-5.784-6.36-8.417-1.273-3.914-1.273-3.914a10.238,10.238,0,0,0-4.991-9,5.12,5.12,0,0,1-1.757-1.791,2.6,2.6,0,0,1,.484.03l-.126-.308a.366.366,0,0,1,.126.015l-2.044-4.974a5.882,5.882,0,0,1,1.547-.439c.163-.026.328-.049.491-.069a9.137,9.137,0,0,0,4.115,1.658c.092.013.184.017.276.028-.024.032-.045.066-.064.1l-.026.051a.414.414,0,0,0-.028.064.43.43,0,0,0-.021.075v.047a.448.448,0,0,0,0,.131,3.419,3.419,0,0,1,2.4.857,1.513,1.513,0,0,0,.407.4,1.026,1.026,0,0,0,.441.066h.949a16.815,16.815,0,0,0,3.312-.268A7.112,7.112,0,0,0,291.611,449.24Zm-18.008-.491a2.124,2.124,0,0,1,.446-.285C274,448.492,273.846,448.591,273.6,448.749Zm6.225,32.473c-4.368-2.637-7.046-1.566-7.046-1.566h-.488c-2.142,0-18.891-.874-18.891-.874h-.291a1.647,1.647,0,0,1,.291,0,4.99,4.99,0,0,0-.493-1.53,1.366,1.366,0,0,0-.1-.135,18.1,18.1,0,0,0,.518-4.447c-.111-2.091,0-4,0-4,4.552,1.566,10.836-1.587,10.926-1.637,4.927-1.382,6.855-.3,6.855-.3.392,1.761,4.8,9.2,4.8,9.2s4.012,3.033,5.57,5.383a6.709,6.709,0,0,0,.769.938c-.244-.084-.478-.167-.7-.251a11.018,11.018,0,0,1-1.72-.786Z" transform="translate(-160.104 -341.061)" fill="url(#linear-gradient)"/>
    <path id="Pfad_2985" data-name="Pfad 2985" d="M511.619,443.268c-7.991,3.58-12.8-9.608-12.8-9.608s-2.5-2.312-9.818-1.733-19.156-1.35-19.156-1.35-4.428,4.143-10.107,4.426c0,0-4.139,1.444-4.713,2.6-.469.938-1.322,2.9-1.626,3.595a1.354,1.354,0,0,1-.062.152c-.03.066-.043.1-.043.1l-.238.111h0l-4.769,2.29-6.545,1.832-4.141.48L430.57,441.3s.812-.758,2.005-1.714c1.823-1.446,4.524-3.336,6.564-3.627a33.421,33.421,0,0,0,4.621-3.56c.688-.675,7.89-3.959,14.081-6.33a64.268,64.268,0,0,1,16.048-3.875l20.885,4.411a19.441,19.441,0,0,1,6.459,2.641C506.9,432.891,517.639,440.573,511.619,443.268Z" transform="translate(-345.387 -343.512)" fill="#ffc1c7"/>
    <g id="Gruppe_532" data-name="Gruppe 532" transform="translate(85.282 78.701)" opacity="0.1">
      <path id="Pfad_2986" data-name="Pfad 2986" d="M431.9,441.968s.812-.761,2.005-1.714c1.823-1.446,4.524-3.336,6.564-3.627a33.419,33.419,0,0,0,4.621-3.56c.688-.677,7.89-3.959,14.081-6.33a64.175,64.175,0,0,1,16.048-3.858l20.885,4.409a19.416,19.416,0,0,1,6.457,2.644q.5.319,1.041.675c-.675-.454-1.317-.876-1.907-1.253a19.431,19.431,0,0,0-6.457-2.641L474.349,422.3a64.247,64.247,0,0,0-16.048,3.875c-6.193,2.371-13.4,5.656-14.081,6.33a33.559,33.559,0,0,1-4.621,3.56c-2.039.291-4.743,2.181-6.564,3.627-1.193.949-2.005,1.714-2.005,1.714l7.027,4.869h.028Z" transform="translate(-431.03 -422.3)"/>
      <path id="Pfad_2987" data-name="Pfad 2987" d="M750.517,476.432a4.27,4.27,0,0,0-.857-.542c.193.51,2.631,6.825,6.789,9.25C752.657,482.293,750.517,476.432,750.517,476.432Z" transform="translate(-681.401 -464.41)"/>
    </g>
    <path id="Pfad_2988" data-name="Pfad 2988" d="M646.016,545.73a3.369,3.369,0,0,1-.1.328c-.017.056-.041.111-.06.165a4.1,4.1,0,0,1-.184.392c-.028.058-.06.116-.088.171a.27.27,0,0,1-.024.036c-.03.056-.06.107-.092.159-.214.364-.463.711-.7,1.071-.079.116-.159.234-.234.353a.647.647,0,0,1-.045.071c-.041.066-.084.137-.122.214s-.068.116-.1.174-.034.06-.049.09l-.092.178a3.81,3.81,0,0,0-.255.7c-.33,1.36.253,2.755.726,4.07.955,2.669,1.482,5.656.578,8.321-.021.062-.043.126-.066.191s-.064.169-.1.253c-.051.129-.109.255-.174.381a2.648,2.648,0,0,1-2.356,1.714c-1.416-.124-2.1-1.859-3.393-2.451-1.12-.514-2.536-.094-3.593-.728a4.053,4.053,0,0,1,.358-.829c.191-.351.428-.688.643-1.022a6.539,6.539,0,0,0,.857-1.609,3.464,3.464,0,0,0,.1-.39.124.124,0,0,0,0-.03c.011-.066.024-.129.032-.195s.017-.126.024-.195a.161.161,0,0,0,0-.034,1.166,1.166,0,0,1,.015-.227,10.623,10.623,0,0,0-.214-2.155q-.4-2.416-.806-4.833a7.594,7.594,0,0,1-.026-3.55c.028-.081.058-.163.088-.242s.067-.161.1-.238a8.406,8.406,0,0,1,.741-1.253q1.02-1.5,2.187-2.9a5.514,5.514,0,0,0,1.285-2.087,1.863,1.863,0,0,0,.047-.236,4.93,4.93,0,0,0-.351-2.318q-.049-.135-.09-.27c-.09-.266-.18-.533-.257-.806-.026-.088-.049-.178-.073-.268a5.47,5.47,0,0,1-.109-.546,3.912,3.912,0,0,1-.047-.548v-.259a.683.683,0,0,1,.017-.195,1.974,1.974,0,0,0,.03-.214c.011-.077.017-.1.028-.154s.032-.156.054-.231a1.342,1.342,0,0,1,.049-.182c.011-.049.026-.1.039-.146l.056-.171.088-.249c.028-.081.06-.165.092-.246.161-.428.345-.857.506-1.268a7.353,7.353,0,0,0,.234-.726h0a.711.711,0,0,1,.034-.141,1.441,1.441,0,0,0,.032-.143,1.578,1.578,0,0,0,.034-.18c.015-.079.03-.163.039-.244s.017-.165.024-.249,0-.165,0-.246a2.815,2.815,0,0,0-.122-.857,2.04,2.04,0,0,0-.124-.33h0q-.056-.11-.122-.214c-.274-.446-.7-.786-.949-1.251a1.941,1.941,0,0,1-.214-.923,1.766,1.766,0,0,1,.017-.261,1.64,1.64,0,0,1,.06-.261.7.7,0,0,1,.034-.1l.045-.1a1.176,1.176,0,0,1,.071-.124c.021-.028.041-.058.062-.084a.952.952,0,0,1,1.09-.283l.122.041a4.515,4.515,0,0,1,.823.358,5.818,5.818,0,0,1,1.975,1.851,9.274,9.274,0,0,1,1.363,4.512,6.884,6.884,0,0,1-.1,2.022.645.645,0,0,1-.019.088c-.017.064-.032.129-.054.191a11.822,11.822,0,0,1-.45,1.144h0a4.863,4.863,0,0,0-.313.964,6.7,6.7,0,0,0,.594,3.26,23.322,23.322,0,0,1,.8,3.078A7.381,7.381,0,0,1,646.016,545.73Z" transform="translate(-506.415 -424.061)" fill="#965d7b"/>
    <g id="Gruppe_533" data-name="Gruppe 533" transform="translate(129.083 100.979)" opacity="0.1">
      <path id="Pfad_2989" data-name="Pfad 2989" d="M679.37,567.4a11.7,11.7,0,0,0,.452-1.148c.028-.092.054-.184.075-.278A8.36,8.36,0,0,0,679.37,567.4Z" transform="translate(-669.97 -557.469)"/>
      <path id="Pfad_2990" data-name="Pfad 2990" d="M657.071,529.4a3.332,3.332,0,0,1,.193,2.62c.017-.047.036-.092.054-.139a3.891,3.891,0,0,0,.043-3.346c-.276-.446-.7-.788-.951-1.251a1.967,1.967,0,0,1-.214-.992,1.8,1.8,0,0,0-.064,1.859C656.367,528.612,656.795,528.953,657.071,529.4Z" transform="translate(-651.531 -526.29)"/>
      <path id="Pfad_2991" data-name="Pfad 2991" d="M675.9,625.483c-.011.047-.019.094-.028.143.471-1,1.3-1.849,1.714-2.886a4.163,4.163,0,0,0,.2-.671C677.237,623.25,676.193,624.208,675.9,625.483Z" transform="translate(-667.219 -601.551)"/>
      <path id="Pfad_2992" data-name="Pfad 2992" d="M645.3,694.068c-.441,1.088-1.36,2.2-2.532,2.093-1.416-.122-2.1-1.857-3.393-2.451-1.1-.5-2.476-.114-3.524-.69a4.175,4.175,0,0,0-.358.829c1.056.643,2.472.214,3.593.726,1.285.593,1.977,2.331,3.393,2.453,1.172.1,2.091-1.007,2.532-2.1a8.059,8.059,0,0,0,.3-.9Z" transform="translate(-635.49 -657.302)"/>
      <path id="Pfad_2993" data-name="Pfad 2993" d="M640.251,633.165a7.975,7.975,0,0,1,.126,2.836,4.13,4.13,0,0,0,.186-.476,6.932,6.932,0,0,0-.023-3.226q-.4-2.416-.806-4.835a8.581,8.581,0,0,1-.124-3.164,4.267,4.267,0,0,0-.191.482,7.612,7.612,0,0,0,.026,3.548Q639.85,630.75,640.251,633.165Z" transform="translate(-638.417 -603.304)"/>
      <path id="Pfad_2994" data-name="Pfad 2994" d="M657.828,568.516c.413-1.658-.857-3.284-.881-4.992a4.434,4.434,0,0,1,.169-1.174,5.557,5.557,0,0,0-.456,2.042c.015,1.628,1.174,3.181.923,4.762A3.073,3.073,0,0,0,657.828,568.516Z" transform="translate(-652.125 -554.625)"/>
    </g>
    <path id="Pfad_2995" data-name="Pfad 2995" d="M497.032,690.547c-2.406,7.989-7.8,11.069-7.8,11.069s-5.872,5.392-7.125,8.19-5,2.022-6.543,0-6.354-1.249-6.354-1.249l-7.318.576s-13.261,1.759-17.712-1.322-7.412-3.1-7.412-3.1a23.437,23.437,0,0,1-7.41,1.733,38,38,0,0,0-5.57.788c-1.022.214-1.915.428-2.556.581s-1.022.266-1.022.266l-9.8-.988-9.259-.936-5-.677-1.313-2.858-1.264-2.746-.428-.938.6-9.814h15.789s16.466.857,18.58.857h.48s2.633-1.054,6.93,1.538a10.936,10.936,0,0,0,1.714.776c6.83,2.551,26.018,5.868,26.018,5.868l12.425-.771s6.986-2.545,10.926-4.222a14.049,14.049,0,0,0,2.551-1.264C490.2,690.932,499.438,682.556,497.032,690.547Z" transform="translate(-315.975 -551.69)" fill="#ffc1c7"/>
    <path id="Pfad_2996" data-name="Pfad 2996" d="M399.174,706.045l.76,2.708-2.6,1.41-2.492-.274-1.264-2.746-.428-.938.6-9.814h15.778C406.235,696.686,399.174,706.045,399.174,706.045Z" transform="translate(-315.983 -558.971)" opacity="0.1"/>
    <path id="Pfad_2997" data-name="Pfad 2997" d="M329.226,681.066l.76,2.708-2.6,1.41-6.57-.722-3.539-2.851c-5.784-9.385-12.779-9.426-12.779-9.426a4.893,4.893,0,0,0,.831-2.421,15.935,15.935,0,0,1,1.273-4.115l.124-.06c.441-.214,1.939-.955,2.033-.988,0,0,29.707,4.8,30.285,4.983a.679.679,0,0,1,.345.319,4.863,4.863,0,0,1,.486,1.5C336.741,671.112,329.226,681.066,329.226,681.066Z" transform="translate(-246.324 -533.991)" fill="#565988"/>
    <path id="Pfad_2998" data-name="Pfad 2998" d="M482.785,520.615a15.564,15.564,0,0,0-2.609.165c-1.437.234-2.815.78-2.2,2.05,1.155,2.406-6.161,6.641-6.161,6.641L461.6,536.018l-6.354-9.627,3.276-7.8,9.143-4.621,5.009-2.4a12.072,12.072,0,0,0,3.728.681,2.949,2.949,0,0,0,2.048-.681C479.991,510.028,482.785,520.615,482.785,520.615Z" transform="translate(-364.78 -413.623)" fill="#ffc1c7"/>
    <path id="Pfad_2999" data-name="Pfad 2999" d="M560.128,520.615a15.564,15.564,0,0,0-2.609.165,9.028,9.028,0,0,1-3.839-7.4,8.928,8.928,0,0,1,.069-1.129,2.949,2.949,0,0,0,2.048-.681C557.335,510.028,560.128,520.615,560.128,520.615Z" transform="translate(-442.123 -413.623)" opacity="0.1"/>
    <path id="Pfad_3000" data-name="Pfad 3000" d="M574.425,487.389a9.049,9.049,0,0,1-9.049,9.051,8.945,8.945,0,0,1-1.252-.088,9.049,9.049,0,0,1,1.254-18.012,9.8,9.8,0,0,1,1.037.058A9.053,9.053,0,0,1,574.425,487.389Z" transform="translate(-444.196 -387.633)" fill="#ffc1c7"/>
    <path id="Pfad_3001" data-name="Pfad 3001" d="M648.379,712.264c0,1.148-6.1,3.481-11.367,5.281a32.777,32.777,0,0,1-11.463,1.664,3.356,3.356,0,0,0-.936.084c-1.444.383-20.215-4.045-20.215-4.045s-3.833-1.778-5.418-4.038c6.83,2.551,26.018,5.868,26.018,5.868l12.425-.771s6.986-2.545,10.926-4.222A.338.338,0,0,1,648.379,712.264Z" transform="translate(-477.719 -570.616)" opacity="0.1"/>
    <path id="Pfad_3002" data-name="Pfad 3002" d="M513.981,568.84s1.347,3.541,3.081,4.407a10.09,10.09,0,0,1,4.91,8.856s-.578,1.253,1.251,3.856,6.258,8.278,6.258,8.278,9.047,3.177,11.935,5.1h.011a33.829,33.829,0,0,1,6.66,1.66,13.231,13.231,0,0,0,4.111.842c2.984,0,18.387-4.042,18.387-2.022,0,1.15-6.1,3.483-11.369,5.283a32.811,32.811,0,0,1-11.461,1.658,3.439,3.439,0,0,0-.936.083c-1.444.384-20.217-4.045-20.217-4.045s-3.957-1.827-5.5-4.147-5.484-5.285-5.484-5.285-4.332-7.316-4.713-9.049c0,0-2.213-1.251-7.991.673s-1.258-4.334-1.258-4.334l6.45-7.5Z" transform="translate(-399.924 -458.746)" fill="#ffc1c7"/>
    <path id="Pfad_3003" data-name="Pfad 3003" d="M441.142,522.688l-2.012-4.893a32.032,32.032,0,0,0-5.208,4.122c-2.408,2.406-4.045,3.856-5.2,4.139s-5.1,2.292-6.737-1.838-.964-6.922.576-8.269,11.963-7.684,11.963-7.684l-1.369-.1s-9.529,3.336-12.513,1.812c0,0-5.3.885-6.45-1.041s-2.245-2.23-2.245-2.23l-7,9.45,2.5,20.889H413.9l6.93-2.695,9.242-.771s3.466-3.273,3.948-4.814S438.166,522.206,441.142,522.688Z" transform="translate(-325.255 -409.918)" opacity="0.1"/>
    <path id="Pfad_3004" data-name="Pfad 3004" d="M441.142,521.342l-2.012-4.893a32.022,32.022,0,0,0-5.208,4.122c-2.408,2.408-4.045,3.856-5.2,4.139s-5.1,2.292-6.737-1.838-.964-6.922.576-8.269,11.963-7.4,11.963-7.4l-1.369-.392s-9.529,3.333-12.513,1.81c0,0-5.3.885-6.45-1.041s-2.245-2.23-2.245-2.23l-7,9.45,2.5,20.889H413.9l6.93-2.695,9.242-.771s3.466-3.271,3.948-4.812S438.166,520.856,441.142,521.342Z" transform="translate(-325.255 -408.857)" fill="#565988"/>
    <path id="Pfad_3005" data-name="Pfad 3005" d="M347.078,669.954c-.111.531-.2.872-.2.872s-.4-.146-5.268.795a28.924,28.924,0,0,1-9.711,0,55.971,55.971,0,0,1-8.376-1.626c-4.186-1.191-9.674-2.6-9.212-4.07.03-.086.06-.182.1-.276.441-.214,1.939-.956,2.033-.988,0,0,29.707,4.8,30.285,4.983A.679.679,0,0,1,347.078,669.954Z" transform="translate(-254.011 -534.039)" opacity="0.1"/>
    <path id="Pfad_3006" data-name="Pfad 3006" d="M368.982,516.263l1.671,3.777s-2.571-1.365-5.857,4.231-3.719,6.39-3.719,6.39-2.309,1.577-1.731,3.586c0,0-6.842,2.357-11.354.8a17.756,17.756,0,0,0-.9,5.109,29.474,29.474,0,0,1,.017,3.3s1.285-.975-3.59-.034a44.858,44.858,0,0,1-9.711.666,71.35,71.35,0,0,1-7.888-1.75c-4.188-1.191-10.686-.885-10.216-2.357a33.633,33.633,0,0,1,2.022-4.259s1.118-.643,1.071-1.264,2.059-2.419,2.059-2.419,1.3-1.082,1.118-1.986,1.264-2.382,1.264-2.382l2.744-5.377s2.309-5.019,3.9-5.236,4.512-4.837,4.512-4.837,5.2-4.186,5.234-5.054,2.6-2.419,2.6-2.419.413,3.543,3.856,3.689,7.991,0,7.991,0l8.931-2.1s-3.912,3.537-4.816,3.79-3.62,2.2-5,2.571-4.2,2.258-4.087,4.957a8.244,8.244,0,0,0,1.048,4.07s2.815,5.356,5.63,4.713c0,0,3.145.169,4.4-1.7S368.982,516.263,368.982,516.263Z" transform="translate(-255.107 -408.386)" opacity="0.1"/>
    <path id="Pfad_3007" data-name="Pfad 3007" d="M453.556,504.981l-.244.186-.281.214h0l-4.769,2.29-6.545,1.832-4.141.48-7.027-4.869s.812-.758,2.005-1.714a4.043,4.043,0,0,0,3.794,3.383c3.438.148,7.991,0,7.991,0l9.036-1.776Z" transform="translate(-345.371 -407.325)" opacity="0.1"/>
    <path id="Pfad_3008" data-name="Pfad 3008" d="M367.886,514.881l1.671,4.07s-2.86-1.652-6.146,3.944-3.717,6.388-3.717,6.388-2.022,1.866-1.444,3.875c0,0-6.247,3.164-10.759,1.611,0,0-.107,1.879,0,3.935a19.281,19.281,0,0,1-.613,4.8s-.4-.143-5.272.795a28.973,28.973,0,0,1-9.709,0,55.8,55.8,0,0,1-8.376-1.624c-4.186-1.191-9.675-2.6-9.212-4.07a32.958,32.958,0,0,1,2.022-4.261s1.118-.643,1.084-1.264,2.057-2.419,2.057-2.419,1.3-1.071,1.118-1.984,1.264-2.384,1.264-2.384l2.744-5.377s2.309-5.019,3.9-5.236,4.512-4.837,4.512-4.837,5.206-4.2,5.24-5.066,2.6-2.419,2.6-2.419.411,3.543,3.856,3.689,7.993,0,7.993,0l9.212-1.81s-4.2,3.248-5.1,3.5-3.623,2.2-5.007,2.571-4.2,2.275-4.092,4.983a8.173,8.173,0,0,0,1.048,4.07s2.815,5.343,5.632,4.694c0,0,3.143.167,4.4-1.7S367.886,514.881,367.886,514.881Z" transform="translate(-254.011 -407.293)" fill="#e8f4ff"/>
    <path id="Pfad_3009" data-name="Pfad 3009" d="M433.75,618.28s3.537,6.57,5.161,7.284,1.3-.506,1.3-.506S434.256,619.72,433.75,618.28Z" transform="translate(-347.885 -497.594)" opacity="0.1"/>
    <path id="Pfad_3010" data-name="Pfad 3010" d="M401.9,641.54s3.466,5.523,6.028,5.523Z" transform="translate(-322.859 -515.871)" opacity="0.1"/>
    <path id="Pfad_3011" data-name="Pfad 3011" d="M366.34,609.69s4.045,12.779,11.48,13.79C377.82,623.48,368.11,616.333,366.34,609.69Z" transform="translate(-294.917 -490.845)" opacity="0.1"/>
    <path id="Pfad_3012" data-name="Pfad 3012" d="M369.71,661.25s6.68,5.306,10.758,4.514C380.469,665.764,373.5,664.573,369.71,661.25Z" transform="translate(-297.565 -531.359)" opacity="0.1"/>
    <path id="Pfad_3013" data-name="Pfad 3013" d="M346.57,703.75s6.677,5.306,10.759,4.512C357.329,708.262,350.36,707.071,346.57,703.75Z" transform="translate(-279.382 -564.754)" opacity="0.1"/>
    <path id="Pfad_3014" data-name="Pfad 3014" d="M354.72,717.81s6.677,5.306,10.756,4.514C365.476,722.324,358.51,721.133,354.72,717.81Z" transform="translate(-285.786 -575.802)" opacity="0.1"/>
    <path id="Pfad_3015" data-name="Pfad 3015" d="M359.43,695s6.677,5.3,10.756,4.5C370.186,699.5,363.22,698.314,359.43,695Z" transform="translate(-289.487 -557.879)" opacity="0.1"/>
    <path id="Pfad_3016" data-name="Pfad 3016" d="M454.706,493.49l-4.186,5.379.576,1.082Z" transform="translate(-354.006 -387.785)" opacity="0.1"/>
    <path id="Pfad_3017" data-name="Pfad 3017" d="M602.177,487.64a9.049,9.049,0,0,1-9.049,9.051,8.946,8.946,0,0,1-1.252-.088,2.189,2.189,0,0,0,.333-.505c.268-.748-.857-1.527-.5-2.243a1.178,1.178,0,0,1,1.095-.488,1.743,1.743,0,0,0,1.2-.291c.354-.341.3-.9.394-1.384a3.49,3.49,0,0,1,1.215-1.842,16.111,16.111,0,0,0,1.667-1.5,5.587,5.587,0,0,0,1.178-3.171,3.49,3.49,0,0,0-.39-2.142,5.236,5.236,0,0,0-1.836-1.442,5.035,5.035,0,0,1-1.6-1.395,2.353,2.353,0,0,1-.461-1.54A9.053,9.053,0,0,1,602.177,487.64Z" transform="translate(-471.948 -387.885)" opacity="0.1"/>
    <path id="Pfad_3018" data-name="Pfad 3018" d="M608.259,485.356a1.6,1.6,0,0,1-.169.428c-.021.039-.047.079-.071.12l-.131.2a1.928,1.928,0,0,0-.4.889,2.843,2.843,0,0,0,.332,1.135l.024.066h0a1.59,1.59,0,0,1,.049.163,1.868,1.868,0,0,1-.083,1.118h0a3.356,3.356,0,0,1-.675,1.071c-.546.589-1.234,1.035-1.785,1.617-.411.428-.743.936-1.15,1.369a6.91,6.91,0,0,1-3.687,1.883,16.784,16.784,0,0,1-3.258.263h-.932a1.024,1.024,0,0,1-.428-.066,1.5,1.5,0,0,1-.4-.4,3.4,3.4,0,0,0-2.357-.838.6.6,0,0,1,.141-.456,2.631,2.631,0,0,0,.351-.538c.27-.75-.857-1.527-.5-2.247a.613.613,0,0,1,.133-.18.744.744,0,0,1,.118-.1,1.673,1.673,0,0,1,.844-.214,4.077,4.077,0,0,0,.484-.019,1.144,1.144,0,0,0,.694-.27h0c.353-.336.3-.9.394-1.38a3.466,3.466,0,0,1,1.215-1.842,15.858,15.858,0,0,0,1.667-1.5,5.586,5.586,0,0,0,1.178-3.168,3.487,3.487,0,0,0-.39-2.142,4.4,4.4,0,0,0-1.583-1.285l-.253-.15a5.937,5.937,0,0,1-1.266-.979,3.924,3.924,0,0,1-.319-.45,2.413,2.413,0,0,1-.467-1.5.529.529,0,0,1,.017-.1c.126-.551.671-.557,1.187-.626.139-.017.276-.032.416-.041a5.391,5.391,0,0,1,.617,0,5.713,5.713,0,0,1,2.515.69c.287.156.561.338.857.473a20.46,20.46,0,0,0,2.224.587,5.987,5.987,0,0,1,3.325,3.012,17.915,17.915,0,0,1,1.435,4.355,2.393,2.393,0,0,1,.086,1.041Z" transform="translate(-473.069 -385.157)" fill="#965d7b"/>
    <path id="Pfad_3019" data-name="Pfad 3019" d="M425.308,746.682a2.119,2.119,0,0,1-.214.557s-.956.034-2.357.024a44.725,44.725,0,0,1-6.855-.5,22.33,22.33,0,0,0-3.978-.214l-9.259-.936-5-.677-2.571-5.6c1.487.081,2.768.024,2.768.024,2.843-2.695,5.489-2.262,6.932-1.093a14.4,14.4,0,0,0,4.332,2.1c.129,0,4.385.09,7.123.146a12.841,12.841,0,0,1,6.054,1.62C425.475,743.912,425.522,745.78,425.308,746.682Z" transform="translate(-317.492 -591.152)" opacity="0.1"/>
    <path id="Pfad_3020" data-name="Pfad 3020" d="M224.835,689.583l-2.1.771a19.368,19.368,0,0,0-14.343-2.129c-8.52,1.877-7.941,6.883-7.941,6.883s.336,6.135,2.785,8.241,4,2.2,5.39,3.792,8.616,2.309,8.616,2.309,14.3.722,22,0,11.178-.722,11.178-.722,8.458-1.058,12.26-.386a54.063,54.063,0,0,0,9.195.482s1.59-2.631-2.8-5.118a12.808,12.808,0,0,0-6.054-1.62c-2.736-.058-6.992-.146-7.123-.146a14.378,14.378,0,0,1-4.332-2.1c-1.444-1.17-4.09-1.6-6.93,1.09,0,0-6.3.289-7.172-1.3a71.06,71.06,0,0,0-5.343-6.57Z" transform="translate(-164.558 -552.162)" fill="#ffc1c7"/>
    <path id="Pfad_3021" data-name="Pfad 3021" d="M316.1,706.343s-.047.872,1.9.728c1.8-.135-5.343-6.57-5.343-6.57l-7.284-3.481-2.1.773S310.32,696.958,316.1,706.343Z" transform="translate(-245.358 -559.466)" opacity="0.1"/>
    <path id="Pfad_3022" data-name="Pfad 3022" d="M317.438,704.993s-.047.872,1.9.728c1.8-.133-5.343-6.57-5.343-6.57l-7.284-3.481-2.1.773S311.662,695.608,317.438,704.993Z" transform="translate(-246.411 -558.405)" fill="#565988"/>
    <path id="Pfad_3023" data-name="Pfad 3023" d="M267.88,709.941a6.256,6.256,0,0,1,5.1.266,24.418,24.418,0,0,0,3.338,1.159,21.448,21.448,0,0,1,5.214,2.179c2.112,1.228,4.979,2.7,6.573,2.7" transform="translate(-217.549 -569.304)" fill="none" stroke="#000" stroke-miterlimit="10" stroke-width="1" opacity="0.1"/>
    <path id="Pfad_3024" data-name="Pfad 3024" d="M596.868,495.68a.983.983,0,0,1-.428-.066,1.44,1.44,0,0,1-.4-.4,3.4,3.4,0,0,0-2.357-.835c-.069-.373.362-.643.491-.994.272-.75-.857-1.527-.5-2.245a1.187,1.187,0,0,1,1.1-.486,1.724,1.724,0,0,0,1.2-.293c.354-.338.3-.9.4-1.382a3.458,3.458,0,0,1,1.213-1.842,15.887,15.887,0,0,0,1.669-1.5,5.611,5.611,0,0,0,1.178-3.168,3.517,3.517,0,0,0-.392-2.153,5.285,5.285,0,0,0-1.836-1.442,5.035,5.035,0,0,1-1.6-1.395,2.275,2.275,0,0,1-.45-1.6c.12-.525.673-.557,1.189-.626.152-.021.3-.034.456-.043a5.965,5.965,0,0,0-1.035.043c-.516.069-1.071.075-1.189.626a2.241,2.241,0,0,0,.452,1.6,5.034,5.034,0,0,0,1.6,1.395,5.554,5.554,0,0,1,1.823,1.431,3.457,3.457,0,0,1,.392,2.153,5.52,5.52,0,0,1-1.178,3.168,15.184,15.184,0,0,1-1.667,1.5,3.479,3.479,0,0,0-1.215,1.842c-.092.48-.043,1.043-.394,1.382a1.741,1.741,0,0,1-1.2.293,1.187,1.187,0,0,0-1.1.486c-.347.718.773,1.5.5,2.245-.131.356-.559.621-.493.994a3.341,3.341,0,0,1,2.357.835,1.383,1.383,0,0,0,.4.4.968.968,0,0,0,.428.066h.936Z" transform="translate(-473.032 -385.175)" opacity="0.1"/>
    <path id="Pfad_3025" data-name="Pfad 3025" d="M662.051,528.641h0c.086-.274.182-.581.276-.906a17.55,17.55,0,0,0,.628-2.637,4.511,4.511,0,0,0-.823-.358c.024-.041.049-.081.071-.12l-.193.079v.24c-.015.407-.045,1.268-.064,2.024V527c-.015.6-.024,1.127,0,1.315h0Z" transform="translate(-527.184 -423.999)" fill="#565988"/>
    <ellipse id="Ellipse_319" data-name="Ellipse 319" cx="9.323" cy="1.281" rx="9.323" ry="1.281" transform="translate(187.252 149.662)" fill="#fafcff" opacity="0.1"/>
    <path id="Pfad_3026" data-name="Pfad 3026" d="M937.094,736.62a2.656,2.656,0,0,0,.872-1.315,1.171,1.171,0,0,0-.61-1.341c-.559-.214-1.157.176-1.609.566a2.156,2.156,0,0,1-1.566.756,2.382,2.382,0,0,0,.731-2.23.919.919,0,0,0-.214-.454c-.311-.332-.874-.189-1.245.073-1.182.831-1.512,2.438-1.519,3.884a7.265,7.265,0,0,1-.021-1.6,1.646,1.646,0,0,0-.6-1.416,1.816,1.816,0,0,0-.917-.214,1.874,1.874,0,0,0-1.487.429,1.477,1.477,0,0,0,.06,1.825,5.757,5.757,0,0,0,1.538,1.232,3.426,3.426,0,0,1,1.1,1.05,1.141,1.141,0,0,1,.081.186h3.333a9.224,9.224,0,0,0,2.076-1.429Z" transform="translate(-736.738 -587.273)" fill="#fafcff"/>
    <ellipse id="Ellipse_320" data-name="Ellipse 320" cx="9.323" cy="1.281" rx="9.323" ry="1.281" transform="translate(217.062 155.161)" fill="#fafcff" opacity="0.1"/>
    <path id="Pfad_3027" data-name="Pfad 3027" d="M1076.268,762.288a2.654,2.654,0,0,0,.872-1.315,1.171,1.171,0,0,0-.611-1.341,1.706,1.706,0,0,0-1.609.566,2.149,2.149,0,0,1-1.566.756,2.384,2.384,0,0,0,.737-2.232.921.921,0,0,0-.214-.452c-.311-.332-.874-.191-1.245.073-1.182.831-1.513,2.438-1.519,3.882a7.246,7.246,0,0,1-.021-1.6,1.648,1.648,0,0,0-.6-1.416,1.811,1.811,0,0,0-.917-.214,1.881,1.881,0,0,0-1.487.428,1.478,1.478,0,0,0,.06,1.825,5.758,5.758,0,0,0,1.538,1.232,3.409,3.409,0,0,1,1.1,1.05.98.98,0,0,1,.081.186h3.333A9.3,9.3,0,0,0,1076.268,762.288Z" transform="translate(-846.102 -607.441)" fill="#fafcff"/>
    <ellipse id="Ellipse_321" data-name="Ellipse 321" cx="9.323" cy="1.281" rx="9.323" ry="1.281" transform="translate(198.413 166.723)" fill="#fafcff" opacity="0.1"/>
    <path id="Pfad_3028" data-name="Pfad 3028" d="M989.222,816.26a2.656,2.656,0,0,0,.872-1.315,1.167,1.167,0,0,0-.608-1.339,1.713,1.713,0,0,0-1.611.563,2.156,2.156,0,0,1-1.566.756,2.382,2.382,0,0,0,.737-2.23.919.919,0,0,0-.214-.454c-.311-.332-.872-.189-1.245.073-1.183.831-1.512,2.438-1.519,3.884a7.265,7.265,0,0,1-.021-1.6,1.646,1.646,0,0,0-.6-1.416,1.808,1.808,0,0,0-.915-.214,1.877,1.877,0,0,0-1.487.428,1.477,1.477,0,0,0,.058,1.825,5.757,5.757,0,0,0,1.538,1.232,3.411,3.411,0,0,1,1.1,1.05.861.861,0,0,1,.081.186h3.333A9.226,9.226,0,0,0,989.222,816.26Z" transform="translate(-777.704 -649.852)" fill="#fafcff"/>
    <ellipse id="Ellipse_322" data-name="Ellipse 322" cx="9.323" cy="1.281" rx="9.323" ry="1.281" transform="translate(9.325 147.571)" fill="#fafcff" opacity="0.1"/>
    <path id="Pfad_3029" data-name="Pfad 3029" d="M106.554,726.858a2.642,2.642,0,0,0,.872-1.315,1.172,1.172,0,0,0-.608-1.341c-.559-.214-1.157.174-1.611.566a2.152,2.152,0,0,1-1.566.756,2.38,2.38,0,0,0,.737-2.232.936.936,0,0,0-.214-.452c-.311-.332-.874-.191-1.247.073-1.183.831-1.512,2.438-1.519,3.882a7.516,7.516,0,0,1-.021-1.6,1.658,1.658,0,0,0-.6-1.416,1.816,1.816,0,0,0-.917-.214,1.879,1.879,0,0,0-1.487.428,1.477,1.477,0,0,0,.058,1.825,5.733,5.733,0,0,0,1.54,1.232,3.409,3.409,0,0,1,1.1,1.05,1.136,1.136,0,0,1,.081.186h3.34A9.3,9.3,0,0,0,106.554,726.858Z" transform="translate(-84.127 -579.602)" fill="#fafcff"/>
    <ellipse id="Ellipse_323" data-name="Ellipse 323" cx="9.323" cy="1.281" rx="9.323" ry="1.281" transform="translate(0 165.74)" fill="#fafcff" opacity="0.1"/>
    <path id="Pfad_3030" data-name="Pfad 3030" d="M63.081,811.668a2.656,2.656,0,0,0,.872-1.315,1.17,1.17,0,0,0-.608-1.341,1.709,1.709,0,0,0-1.611.566,2.148,2.148,0,0,1-1.566.756,2.384,2.384,0,0,0,.748-2.232.921.921,0,0,0-.214-.452c-.311-.332-.872-.191-1.245.073-1.183.831-1.512,2.438-1.519,3.884a7.264,7.264,0,0,1-.021-1.6,1.646,1.646,0,0,0-.6-1.416,1.787,1.787,0,0,0-.915-.214,1.861,1.861,0,0,0-1.487.428,1.477,1.477,0,0,0,.058,1.825,5.756,5.756,0,0,0,1.538,1.232,3.388,3.388,0,0,1,1.1,1.05.855.855,0,0,1,.081.186H61.02a9.3,9.3,0,0,0,2.061-1.429Z" transform="translate(-49.977 -646.243)" fill="#fafcff"/>
  </g>
</svg>
