<svg id="Gruppe_507" data-name="Gruppe 507" xmlns="http://www.w3.org/2000/svg" width="230.142" height="162.654" viewBox="0 0 230.142 162.654">
  <path id="Pfad_2197" data-name="Pfad 2197" d="M565.819,135.687c-36.7-28.29-87.763-29.446-125.015-1.882-19.692,14.572-34.959,36.865-32.181,70.808.982,12.006,3.714,21.856,7.7,29.919,16.146,32.687,82.459,31.429,86.142,31.424q3.579,0,7.158.16a156.97,156.97,0,0,1,24.861,3.143c11.677,2.434,26.542,3.657,39.824-.953a46.169,46.169,0,0,0,6.559-2.852c7.3-3.879,15.47-7.586,20.246-16.786,3.59-6.9,6.205-15.563,7.464-26.346C613.156,183.051,590.265,154.531,565.819,135.687Z" transform="translate(-392.386 -113.785)" fill="#fff"/>
  <ellipse id="Ellipse_218" data-name="Ellipse 218" cx="104.951" cy="9.852" rx="104.951" ry="9.852" transform="translate(12.447 142.95)" fill="#3f3d56"/>
  <ellipse id="Ellipse_219" data-name="Ellipse 219" cx="97.612" cy="4.624" rx="97.612" ry="4.624" transform="translate(14.659 148.178)" opacity="0.1"/>
  <path id="Pfad_2198" data-name="Pfad 2198" d="M862.238,73.342V84.395H847.849V204.932h30.03V73.342Z" transform="translate(-695.967 -52.481)" fill="#575a89"/>
  <path id="Pfad_2199" data-name="Pfad 2199" d="M556.342,286.616V267.639H537.99v18.977h-6.882v57.557h31.906V286.616Z" transform="translate(-469.318 -191.515)" fill="#575a89"/>
  <rect id="Rechteck_1725" data-name="Rechteck 1725" width="24.816" height="26.902" transform="translate(65.337 125.965)" fill="#3f3d56"/>
  <rect id="Rechteck_1726" data-name="Rechteck 1726" width="3.962" height="26.902" transform="translate(65.337 125.965)" opacity="0.1"/>
  <path id="Pfad_2200" data-name="Pfad 2200" d="M690.835,52.079v6.465h-36.7V52.079H643.287V190.133H701.47V52.079Z" transform="translate(-549.588 -37.266)" fill="#3f3d56"/>
  <rect id="Rechteck_1727" data-name="Rechteck 1727" width="8.133" height="6.465" transform="translate(141.246 14.813)" opacity="0.1"/>
  <rect id="Rechteck_1728" data-name="Rechteck 1728" width="8.133" height="138.054" transform="translate(93.698 14.813)" opacity="0.1"/>
  <path id="Pfad_2201" data-name="Pfad 2201" d="M459.082,177.537v-5.214H453.66v5.214h-9.8v98.64h24.817v-98.64Z" transform="translate(-406.883 -123.31)" fill="#3f3d56"/>
  <rect id="Rechteck_1729" data-name="Rechteck 1729" width="2.92" height="5.214" transform="translate(46.777 49.014)" opacity="0.1"/>
  <rect id="Rechteck_1730" data-name="Rechteck 1730" width="2.92" height="98.64" transform="translate(36.975 54.227)" opacity="0.1"/>
  <rect id="Rechteck_1731" data-name="Rechteck 1731" width="8.133" height="84.876" transform="translate(141.246 67.991)" opacity="0.1"/>
  <rect id="Rechteck_1732" data-name="Rechteck 1732" width="7.507" height="18.143" transform="translate(54.284 54.227)" opacity="0.1"/>
  <path id="Pfad_2243" data-name="Pfad 2243" d="M0,0H11.678V5H0Z" transform="translate(102.665 32.33)" fill="#2f9edc"/>
  <rect id="Rechteck_1734" data-name="Rechteck 1734" width="11.678" height="5.005" transform="translate(127.483 83.84)" fill="#2f9edc"/>
  <rect id="Rechteck_1735" data-name="Rechteck 1735" width="11.678" height="5.005" transform="translate(102.665 119.918)" fill="#2f9edc"/>
  <rect id="Rechteck_1736" data-name="Rechteck 1736" width="11.678" height="5.005" transform="translate(43.649 76.75)" fill="#2f9edc"/>
  <rect id="Rechteck_1737" data-name="Rechteck 1737" width="11.678" height="5.005" transform="translate(72.01 128.885)" fill="#2f9edc"/>
  <rect id="Rechteck_1738" data-name="Rechteck 1738" width="20.02" height="8.342" transform="translate(67.839 99.481)" opacity="0.1"/>
  <rect id="Rechteck_1739" data-name="Rechteck 1739" width="20.02" height="8.342" transform="translate(155.426 41.506)" opacity="0.1"/>
  <rect id="Rechteck_1740" data-name="Rechteck 1740" width="20.02" height="8.342" transform="translate(155.426 59.232)" opacity="0.1"/>
  <rect id="Rechteck_1741" data-name="Rechteck 1741" width="20.02" height="8.342" transform="translate(155.426 76.958)" opacity="0.1"/>
  <rect id="Rechteck_1742" data-name="Rechteck 1742" width="20.02" height="8.342" transform="translate(155.426 94.685)" opacity="0.1"/>
  <rect id="Rechteck_1743" data-name="Rechteck 1743" width="20.02" height="8.342" transform="translate(155.426 112.41)" opacity="0.1"/>
  <rect id="Rechteck_1744" data-name="Rechteck 1744" width="20.02" height="8.342" transform="translate(155.426 130.136)" opacity="0.1"/>
  <path id="Pfad_2202" data-name="Pfad 2202" d="M927.781,221.449V198.718h-14.6v22.731H907.97v73.615h24.817V221.449Z" transform="translate(-738.989 -142.197)" fill="#3f3d56"/>
  <rect id="Rechteck_1745" data-name="Rechteck 1745" width="4.588" height="22.731" transform="translate(174.195 56.521)" opacity="0.1"/>
  <rect id="Rechteck_1746" data-name="Rechteck 1746" width="4.588" height="73.615" transform="translate(168.982 79.252)" opacity="0.1"/>
  <rect id="Rechteck_1747" data-name="Rechteck 1747" width="12.304" height="7.299" transform="translate(181.494 116.164)" opacity="0.1"/>
  <rect id="Rechteck_1748" data-name="Rechteck 1748" width="11.678" height="5.005" transform="translate(181.912 105.32)" fill="#ff6584"/>
  <path id="Pfad_2203" data-name="Pfad 2203" d="M1037.37,395.63c0,18.579-11.045,25.066-24.67,25.066s-24.67-6.487-24.67-25.066,24.67-42.215,24.67-42.215S1037.37,377.051,1037.37,395.63Z" transform="translate(-807.228 -285.257)" fill="#fff"/>
  <path id="Pfad_2204" data-name="Pfad 2204" d="M1008.162,304.069l.251-15.549,10.515-19.236-10.476,16.8.114-6.992,7.247-13.917-7.216,12.068h0l.2-12.575,7.759-11.08-7.728,9.1.128-23.057-.8,30.524.065-1.259-7.889-12.077,7.764,14.494-.736,14.044-.023-.373-9.094-12.709,9.069,14.026-.093,1.756-.018.026.008.144-1.863,35.63h2.492l.3-18.4,9.045-13.991Z" transform="translate(-803.588 -171.472)" fill="#3f3d56"/>
  <path id="Pfad_2205" data-name="Pfad 2205" d="M401.7,396.337c0,18.579-11.045,25.066-24.67,25.066s-24.67-6.487-24.67-25.066,24.67-42.215,24.67-42.215S401.7,377.758,401.7,396.337Z" transform="translate(-352.358 -285.763)" fill="#fff"/>
  <path id="Pfad_2206" data-name="Pfad 2206" d="M372.488,304.776l.253-15.549,10.515-19.236-10.475,16.8.113-6.992,7.247-13.917-7.216,12.067h0l.2-12.575,7.76-11.08-7.728,9.1.128-23.058-.8,30.524.066-1.259-7.89-12.076,7.763,14.494-.735,14.044-.022-.373-9.1-12.709,9.068,14.026-.092,1.756-.016.026.007.144-1.865,35.63h2.492l.3-18.4,9.046-13.991Z" transform="translate(-348.717 -171.979)" fill="#3f3d56"/>
</svg>
