<svg xmlns="http://www.w3.org/2000/svg" width="270.7" height="191.318" viewBox="0 0 270.7 191.318">
  <g id="Gruppe_507" data-name="Gruppe 507" transform="translate(0 0)">
    <path id="Pfad_2197" data-name="Pfad 2197" d="M593.579,139.546c-43.17-33.276-103.23-34.636-147.047-2.213-23.163,17.139-41.119,43.361-37.853,83.287,1.155,14.122,4.369,25.708,9.057,35.192,18.991,38.448,96.991,36.967,101.323,36.962q4.21,0,8.419.188a184.635,184.635,0,0,1,29.242,3.7c13.734,2.863,31.22,4.3,46.842-1.121a54.307,54.307,0,0,0,7.715-3.354c8.585-4.562,18.2-8.922,23.814-19.744,4.222-8.122,7.3-18.305,8.779-30.989C649.259,195.258,622.334,161.712,593.579,139.546Z" transform="translate(-389.582 -113.785)" fill="#fff"/>
    <ellipse id="Ellipse_218" data-name="Ellipse 218" cx="123.447" cy="11.588" rx="123.447" ry="11.588" transform="translate(14.64 168.143)" fill="#3f3d56"/>
    <ellipse id="Ellipse_219" data-name="Ellipse 219" cx="114.815" cy="5.439" rx="114.815" ry="5.439" transform="translate(17.242 174.291)" opacity="0.1"/>
    <path id="Pfad_2198" data-name="Pfad 2198" d="M864.774,73.342v13H847.849V228.122h35.322V73.342Z" transform="translate(-669.201 -48.805)" fill="#575a89"/>
    <path id="Pfad_2199" data-name="Pfad 2199" d="M560.789,289.96V267.639H539.2V289.96h-8.094v67.7h37.529v-67.7Z" transform="translate(-458.428 -178.1)" fill="#575a89"/>
    <rect id="Rechteck_1725" data-name="Rechteck 1725" width="29.19" height="31.643" transform="translate(76.851 148.164)" fill="#3f3d56"/>
    <rect id="Rechteck_1726" data-name="Rechteck 1726" width="4.661" height="31.643" transform="translate(76.851 148.164)" opacity="0.1"/>
    <path id="Pfad_2200" data-name="Pfad 2200" d="M699.214,52.079v7.6H656.042v-7.6H643.287V214.463h68.437V52.079Z" transform="translate(-533.076 -34.656)" fill="#3f3d56"/>
    <rect id="Rechteck_1727" data-name="Rechteck 1727" width="9.566" height="7.604" transform="translate(166.138 17.423)" opacity="0.1"/>
    <rect id="Rechteck_1728" data-name="Rechteck 1728" width="9.566" height="162.384" transform="translate(110.211 17.423)" opacity="0.1"/>
    <path id="Pfad_2201" data-name="Pfad 2201" d="M461.765,178.455v-6.132h-6.377v6.132H443.858V294.479h29.19V178.455Z" transform="translate(-400.367 -114.672)" fill="#3f3d56"/>
    <rect id="Rechteck_1729" data-name="Rechteck 1729" width="3.434" height="6.132" transform="translate(55.021 57.651)" opacity="0.1"/>
    <rect id="Rechteck_1730" data-name="Rechteck 1730" width="3.434" height="116.023" transform="translate(43.492 63.783)" opacity="0.1"/>
    <rect id="Rechteck_1731" data-name="Rechteck 1731" width="9.566" height="99.834" transform="translate(166.138 79.973)" opacity="0.1"/>
    <rect id="Rechteck_1732" data-name="Rechteck 1732" width="8.831" height="21.34" transform="translate(63.851 63.783)" opacity="0.1"/>
    <path id="Pfad_2243" data-name="Pfad 2243" d="M0,0H13.736V5.887H0Z" transform="translate(120.758 38.028)" fill="#2f9edc"/>
    <rect id="Rechteck_1734" data-name="Rechteck 1734" width="13.736" height="5.887" transform="translate(149.949 98.615)" fill="#2f9edc"/>
    <rect id="Rechteck_1735" data-name="Rechteck 1735" width="13.736" height="5.887" transform="translate(120.758 141.051)" fill="#2f9edc"/>
    <rect id="Rechteck_1736" data-name="Rechteck 1736" width="13.736" height="5.887" transform="translate(51.341 90.275)" fill="#2f9edc"/>
    <rect id="Rechteck_1737" data-name="Rechteck 1737" width="13.736" height="5.887" transform="translate(84.7 151.598)" fill="#2f9edc"/>
    <rect id="Rechteck_1738" data-name="Rechteck 1738" width="23.548" height="9.812" transform="translate(79.795 117.012)" opacity="0.1"/>
    <rect id="Rechteck_1739" data-name="Rechteck 1739" width="23.548" height="9.812" transform="translate(182.817 48.821)" opacity="0.1"/>
    <rect id="Rechteck_1740" data-name="Rechteck 1740" width="23.548" height="9.812" transform="translate(182.817 69.671)" opacity="0.1"/>
    <rect id="Rechteck_1741" data-name="Rechteck 1741" width="23.548" height="9.812" transform="translate(182.817 90.52)" opacity="0.1"/>
    <rect id="Rechteck_1742" data-name="Rechteck 1742" width="23.548" height="9.812" transform="translate(182.817 111.371)" opacity="0.1"/>
    <rect id="Rechteck_1743" data-name="Rechteck 1743" width="23.548" height="9.812" transform="translate(182.817 132.22)" opacity="0.1"/>
    <rect id="Rechteck_1744" data-name="Rechteck 1744" width="23.548" height="9.812" transform="translate(182.817 153.07)" opacity="0.1"/>
    <path id="Pfad_2202" data-name="Pfad 2202" d="M931.273,225.455V198.718H914.1v26.737H907.97v86.589h29.19V225.455Z" transform="translate(-709.209 -132.236)" fill="#3f3d56"/>
    <rect id="Rechteck_1745" data-name="Rechteck 1745" width="5.396" height="26.737" transform="translate(204.893 66.482)" opacity="0.1"/>
    <rect id="Rechteck_1746" data-name="Rechteck 1746" width="5.396" height="86.588" transform="translate(198.762 93.219)" opacity="0.1"/>
    <rect id="Rechteck_1747" data-name="Rechteck 1747" width="14.472" height="8.585" transform="translate(213.479 136.636)" opacity="0.1"/>
    <rect id="Rechteck_1748" data-name="Rechteck 1748" width="13.736" height="5.887" transform="translate(213.97 123.88)" fill="#ff6584"/>
    <path id="Pfad_2203" data-name="Pfad 2203" d="M1046.065,403.069c0,21.853-12.992,29.484-29.017,29.484s-29.017-7.631-29.017-29.484,29.017-49.654,29.017-49.654S1046.065,381.216,1046.065,403.069Z" transform="translate(-775.365 -273.246)" fill="#fff"/>
    <path id="Pfad_2204" data-name="Pfad 2204" d="M1009.91,315.425l.295-18.289,12.368-22.626-12.322,19.757.134-8.224,8.524-16.37-8.487,14.194h0l.241-14.791,9.127-13.033-9.09,10.707.151-27.121-.944,35.9.077-1.481-9.28-14.2,9.132,17.048-.866,16.519-.027-.439-10.7-14.949,10.667,16.5-.11,2.066-.021.031.009.17L1006.6,338.7h2.931l.351-21.647,10.639-16.457Z" transform="translate(-769.283 -159.461)" fill="#3f3d56"/>
    <path id="Pfad_2205" data-name="Pfad 2205" d="M410.393,403.777c0,21.853-12.992,29.484-29.017,29.484s-29.017-7.63-29.017-29.484,29.017-49.655,29.017-49.655S410.393,381.923,410.393,403.777Z" transform="translate(-352.358 -273.716)" fill="#fff"/>
    <path id="Pfad_2206" data-name="Pfad 2206" d="M374.235,316.132l.3-18.289L386.9,275.217l-12.321,19.758.133-8.224,8.524-16.37-8.488,14.194h0l.24-14.791,9.128-13.033-9.09,10.707.15-27.121-.944,35.9.078-1.481-9.28-14.2,9.131,17.048L373.3,294.12l-.026-.438-10.7-14.949,10.666,16.5-.108,2.065-.019.031.009.17-2.194,41.909h2.931l.352-21.647,10.64-16.457Z" transform="translate(-346.275 -159.932)" fill="#3f3d56"/>
  </g>
</svg>
