<svg xmlns="http://www.w3.org/2000/svg" xmlns:xlink="http://www.w3.org/1999/xlink" width="273.131" height="190.11" viewBox="0 0 273.131 190.11">
  <defs>
    <linearGradient id="linear-gradient" x1="0.5" y1="1" x2="0.5" gradientUnits="objectBoundingBox">
      <stop offset="0" stop-color="gray" stop-opacity="0.251"/>
      <stop offset="0.54" stop-color="gray" stop-opacity="0.122"/>
      <stop offset="1" stop-color="gray" stop-opacity="0.102"/>
    </linearGradient>
  </defs>
  <g id="Gruppe_517" data-name="Gruppe 517" transform="translate(-1.609 -36.79)">
    <path id="Pfad_2301" data-name="Pfad 2301" d="M275.52,70.194a.871.871,0,0,0-1.416,1.012c.162.244.34.48.508.708,2.044,2.743,3.1,6.11,4.016,9.424a4.4,4.4,0,0,1,.184,2.469,15.53,15.53,0,0,0-.422-6.486,40.136,40.136,0,0,0-2.3-6.112A5.561,5.561,0,0,0,275.52,70.194Z" transform="translate(-253.925 -19.154)" fill="#fafcff" opacity="0.5"/>
    <path id="Pfad_2302" data-name="Pfad 2302" d="M228.358,92.3a1.085,1.085,0,0,0-.181,2.159c.359.03.724.038,1.07.047,4.222.115,8.217,1.646,12.055,3.292a5.122,5.122,0,0,1,2.469,1.72,18.15,18.15,0,0,0-6.431-4.554,47.386,47.386,0,0,0-7.583-2.45A6.631,6.631,0,0,0,228.358,92.3Z" transform="translate(-220.027 -35.454)" fill="#fafcff"/>
    <path id="Pfad_2303" data-name="Pfad 2303" d="M231.23,111c-.872.033-.675,1.27.2,1.278.228,0,.458,0,.675-.019a24.716,24.716,0,0,1,8.038,1.438,4.106,4.106,0,0,1,1.808.908,14.491,14.491,0,0,0-4.7-2.412,36.392,36.392,0,0,0-5.114-1.125A4.63,4.63,0,0,0,231.23,111Z" transform="translate(-222.517 -49.021)" fill="#fafcff" opacity="0.2"/>
    <path id="Pfad_2304" data-name="Pfad 2304" d="M296.715,165.064c.247.837,1.4.337,1.188-.513-.055-.222-.123-.442-.187-.65a24.729,24.729,0,0,1-.6-8.143,4.139,4.139,0,0,1,.433-1.978,14.46,14.46,0,0,0-1.169,5.149,35.754,35.754,0,0,0,.178,5.232A4.608,4.608,0,0,0,296.715,165.064Z" transform="translate(-270.181 -80.068)" fill="#fafcff" opacity="0.5"/>
    <path id="Pfad_2305" data-name="Pfad 2305" d="M237.407,66.89c-.524-.091-.562.672-.041.79.137.03.274.052.406.074a15.089,15.089,0,0,1,4.62,1.879,2.5,2.5,0,0,1,.963.774,8.839,8.839,0,0,0-2.5-2.038,21.63,21.63,0,0,0-2.911-1.32A2.762,2.762,0,0,0,237.407,66.89Z" transform="translate(-227.109 -17.011)" fill="#fafcff" opacity="0.2"/>
    <path id="Pfad_2306" data-name="Pfad 2306" d="M207.424,133.766c-1.331.686-.206,2.565,1.16,1.942.357-.165.705-.348,1.04-.521,4.063-2.107,8.779-2.883,13.443-3.481a6.591,6.591,0,0,1,3.407.176,23.056,23.056,0,0,0-8.892-.532,58.566,58.566,0,0,0-8.683,1.866A7.874,7.874,0,0,0,207.424,133.766Z" transform="translate(-205.219 -63.648)" fill="#fafcff"/>
    <path id="Pfad_2307" data-name="Pfad 2307" d="M222.043,149.032c-.955.892.549,1.945,1.539,1.1.274-.222.513-.458.752-.683,2.914-2.743,6.763-4.68,10.6-6.475a24.618,24.618,0,0,1,5.846-.864c-2.7.241-8.214,1.1-10.667,2.195a59.073,59.073,0,0,0-6.957,3.907A7.3,7.3,0,0,0,222.043,149.032Z" transform="translate(-216.039 -71.597)" fill="#fafcff" opacity="0.5"/>
    <path id="Pfad_2308" data-name="Pfad 2308" d="M247.636,166.647c-.274,1.276,1.545,1.295,1.885.019.088-.332.159-.669.228-.99.842-3.9,2.9-7.7,5.037-11.35a24.716,24.716,0,0,1,4.318-4.036c-2.085,1.734-6.143,5.564-7.525,7.874a59.26,59.26,0,0,0-3.506,7.169A7.53,7.53,0,0,0,247.636,166.647Z" transform="translate(-234.811 -77.536)" fill="#fafcff"/>
    <path id="Pfad_2309" data-name="Pfad 2309" d="M292.356,44.918c-.653-1.328-2.513-.236-1.92,1.125.154.357.327.705.491,1.037,2.006,4.058,2.694,8.746,3.21,13.358a6.564,6.564,0,0,1-.225,3.377,23.132,23.132,0,0,0,.661-8.807,58.055,58.055,0,0,0-1.7-8.631A7.765,7.765,0,0,0,292.356,44.918Z" transform="translate(-265.806 -0.635)" fill="#fafcff"/>
    <path id="Pfad_2310" data-name="Pfad 2310" d="M255.779,51.562a.247.247,0,0,0,.112.036c.074,0,.123-.074.154-.14.162-.354.069-.823.321-1.1a3.863,3.863,0,0,1,.606,1l.955-.274a1.41,1.41,0,0,1-.181,1.1,1.427,1.427,0,0,1,.45.307.491.491,0,0,1,.118.5,2.422,2.422,0,0,1-.675.066,4.489,4.489,0,0,1-.071,1.257.228.228,0,0,1-.082.159c-.069.044-.162,0-.233-.038a2.194,2.194,0,0,1-.785-.823l-.357.848a.384.384,0,0,1-.156.214.255.255,0,0,1-.3-.1.717.717,0,0,1-.1-.321l-.134-.807a.192.192,0,0,0-.044-.115.206.206,0,0,0-.14-.041h-1.012c-.058-.181.121-.346.294-.422s.376-.132.464-.3c.176-.343-.274-.823-.085-1.111C255.118,51.084,255.486,51.416,255.779,51.562Z" transform="translate(-239.602 -5.021)" fill="#fafcff"/>
    <path id="Pfad_2311" data-name="Pfad 2311" d="M317.973,70.194a.871.871,0,0,1,1.416,1.012c-.162.244-.34.48-.508.708-2.044,2.743-3.106,6.11-4.016,9.424a4.378,4.378,0,0,0-.187,2.469,15.53,15.53,0,0,1,.425-6.486,40.277,40.277,0,0,1,2.3-6.126A5.558,5.558,0,0,1,317.973,70.194Z" transform="translate(-283.355 -19.154)" fill="#fafcff" opacity="0.5"/>
    <path id="Pfad_2312" data-name="Pfad 2312" d="M334.73,92.3a1.085,1.085,0,0,1,.181,2.159c-.359.03-.722.038-1.067.047-4.225.115-8.217,1.646-12.055,3.292a5.123,5.123,0,0,0-2.469,1.72,18.1,18.1,0,0,1,6.431-4.554,47.7,47.7,0,0,1,7.572-2.447A6.632,6.632,0,0,1,334.73,92.3Z" transform="translate(-286.849 -35.454)" fill="#fafcff"/>
    <path id="Pfad_2313" data-name="Pfad 2313" d="M345.744,111c.87.033.675,1.27-.2,1.278-.228,0-.458,0-.678-.019a24.7,24.7,0,0,0-8.036,1.438,4.107,4.107,0,0,0-1.808.908,14.491,14.491,0,0,1,4.7-2.411,36.3,36.3,0,0,1,5.114-1.125A4.63,4.63,0,0,1,345.744,111Z" transform="translate(-298.242 -49.021)" fill="#fafcff" opacity="0.5"/>
    <path id="Pfad_2314" data-name="Pfad 2314" d="M352.6,66.89c.527-.091.565.672.044.79-.137.03-.274.052-.409.074a15.075,15.075,0,0,0-4.617,1.879,2.5,2.5,0,0,0-.963.774,8.8,8.8,0,0,1,2.5-2.038,21.6,21.6,0,0,1,2.908-1.32A2.876,2.876,0,0,1,352.6,66.89Z" transform="translate(-306.681 -17.011)" fill="#fafcff" opacity="0.2"/>
    <path id="Pfad_2315" data-name="Pfad 2315" d="M316.062,182.553c-.118.521-.839.274-.743-.274.025-.14.055-.274.085-.406a15.1,15.1,0,0,0,.049-4.985,2.523,2.523,0,0,0-.343-1.188,8.834,8.834,0,0,1,.916,3.1,21.853,21.853,0,0,1,.1,3.2A2.873,2.873,0,0,1,316.062,182.553Z" transform="translate(-283.794 -95.975)" fill="#fafcff" opacity="0.2"/>
    <path id="Pfad_2316" data-name="Pfad 2316" d="M345.976,166.427c.409.694-.6.645-1.037-.049-.118-.181-.222-.362-.327-.549a37.5,37.5,0,0,0-5.053-6.247,7.007,7.007,0,0,0-1.569-1.353,24.723,24.723,0,0,1,4.115,3.512c1.226,1.284,2.31,2.62,3.372,3.956A6.435,6.435,0,0,1,345.976,166.427Z" transform="translate(-300.397 -83.298)" fill="#fafcff" opacity="0.5"/>
    <path id="Pfad_2317" data-name="Pfad 2317" d="M234.067,166.427c-.409.694.6.645,1.04-.049.115-.181.222-.362.324-.549a37.39,37.39,0,0,1,5.056-6.247,6.993,6.993,0,0,1,1.566-1.352,24.95,24.95,0,0,0-4.115,3.512c-1.226,1.284-2.31,2.62-3.369,3.956A6.467,6.467,0,0,0,234.067,166.427Z" transform="translate(-224.916 -83.298)" fill="#fafcff" opacity="0.2"/>
    <path id="Pfad_2318" data-name="Pfad 2318" d="M282.654,182.553c.118.521.837.274.743-.274-.025-.14-.058-.274-.088-.406a15.1,15.1,0,0,1-.047-4.985,2.551,2.551,0,0,1,.34-1.188,8.828,8.828,0,0,0-.916,3.1,21.858,21.858,0,0,0-.1,3.2A2.885,2.885,0,0,0,282.654,182.553Z" transform="translate(-260.181 -95.975)" fill="#fafcff" opacity="0.2"/>
    <path id="Pfad_2319" data-name="Pfad 2319" d="M337.268,85.889c.524-.093.562.672.041.787-.137.03-.274.055-.406.077a15.15,15.15,0,0,0-4.62,1.877,2.546,2.546,0,0,0-.963.774,8.832,8.832,0,0,1,2.5-2.036,22,22,0,0,1,2.911-1.322A2.742,2.742,0,0,1,337.268,85.889Z" transform="translate(-295.557 -30.797)" fill="#fafcff" opacity="0.2"/>
    <path id="Pfad_2320" data-name="Pfad 2320" d="M324.063,48.443c.453-.274.774.414.335.716-.118.08-.236.154-.351.222a15.093,15.093,0,0,0-3.58,3.468,2.552,2.552,0,0,0-.606,1.078,8.867,8.867,0,0,1,1.558-2.823,21.721,21.721,0,0,1,2.195-2.313A2.984,2.984,0,0,1,324.063,48.443Z" transform="translate(-287.241 -3.584)" fill="#fafcff" opacity="0.2"/>
    <path id="Pfad_2321" data-name="Pfad 2321" d="M347.441,133.766c1.331.686.206,2.565-1.16,1.942-.357-.165-.708-.348-1.04-.521-4.066-2.107-8.779-2.883-13.443-3.481a6.591,6.591,0,0,0-3.407.176,23.052,23.052,0,0,1,8.892-.532,58.566,58.566,0,0,1,8.683,1.866A7.959,7.959,0,0,1,347.441,133.766Z" transform="translate(-293.431 -63.648)" fill="#fafcff"/>
    <path id="Pfad_2322" data-name="Pfad 2322" d="M334.423,149c.955.892-.549,1.945-1.539,1.1-.274-.222-.513-.458-.752-.683-2.922-2.746-6.763-4.691-10.6-6.486a24.619,24.619,0,0,0-5.849-.864c2.7.241,8.217,1.1,10.669,2.195a59.073,59.073,0,0,1,6.957,3.907A7.307,7.307,0,0,1,334.423,149Z" transform="translate(-284.208 -71.568)" fill="#fafcff" opacity="0.5"/>
    <path id="Pfad_2323" data-name="Pfad 2323" d="M318.262,168.5c.118,1.3-1.7,1.1-1.871-.217-.047-.34-.074-.683-.1-1.01-.346-3.981-1.92-8-3.566-11.893a24.681,24.681,0,0,0-3.78-4.543c1.852,1.981,5.4,6.288,6.48,8.754a59.209,59.209,0,0,1,2.582,7.55A7.432,7.432,0,0,1,318.262,168.5Z" transform="translate(-279.317 -77.935)" fill="#fafcff"/>
    <path id="Pfad_2324" data-name="Pfad 2324" d="M340.124,51.562a.236.236,0,0,1-.112.036c-.071,0-.121-.074-.151-.14-.165-.354-.071-.823-.321-1.1a3.864,3.864,0,0,0-.606,1l-.957-.274a1.421,1.421,0,0,0,.181,1.1,1.457,1.457,0,0,0-.45.307.5.5,0,0,0-.115.5,2.422,2.422,0,0,0,.675.066,4.389,4.389,0,0,0,.071,1.257.228.228,0,0,0,.082.159c.069.044.162,0,.233-.038a2.246,2.246,0,0,0,.785-.823l.357.848a.359.359,0,0,0,.156.214.255.255,0,0,0,.3-.1.751.751,0,0,0,.1-.321l.134-.807a.192.192,0,0,1,.044-.115.206.206,0,0,1,.14-.041h1.012c.058-.181-.121-.346-.294-.422s-.379-.132-.464-.3c-.176-.343.274-.823.085-1.111C340.788,51.084,340.428,51.416,340.124,51.562Z" transform="translate(-300.089 -5.021)" fill="#fafcff"/>
    <path id="Pfad_2325" data-name="Pfad 2325" d="M350.629,194.964a.242.242,0,0,1-.113.033c-.074,0-.123-.074-.154-.14-.162-.351-.069-.809-.318-1.1a3.8,3.8,0,0,0-.609,1.018l-.955-.294a1.413,1.413,0,0,0,.181,1.1,1.419,1.419,0,0,0-.45.3.5.5,0,0,0-.118.5,2.424,2.424,0,0,0,.675.069,4.468,4.468,0,0,0,.071,1.254.25.25,0,0,0,.082.162c.071.044.162,0,.233-.041a2.175,2.175,0,0,0,.785-.823l.357.848a.379.379,0,0,0,.159.211.25.25,0,0,0,.3-.1.768.768,0,0,0,.107-.321l.132-.809a.193.193,0,0,1,.044-.115.209.209,0,0,1,.143-.038c.335,0,.672-.014,1.01,0,.058-.178-.121-.346-.294-.423s-.376-.132-.464-.3c-.176-.34.274-.823.085-1.1C351.291,194.476,350.923,194.819,350.629,194.964Z" transform="translate(-307.712 -109.08)" fill="#fafcff" opacity="0.2"/>
    <path id="Pfad_2326" data-name="Pfad 2326" d="M380.137,98.822a.214.214,0,0,1-.113.033c-.074,0-.123-.071-.154-.137-.162-.354-.069-.823-.321-1.1a3.876,3.876,0,0,0-.606,1.021l-.955-.3a1.413,1.413,0,0,0,.181,1.1,1.465,1.465,0,0,0-.45.3.5.5,0,0,0-.118.508,2.422,2.422,0,0,0,.675.066,4.492,4.492,0,0,0,.071,1.257.228.228,0,0,0,.082.159c.069.044.162,0,.233-.038a2.195,2.195,0,0,0,.785-.823l.357.848a.384.384,0,0,0,.156.214.258.258,0,0,0,.3-.1.716.716,0,0,0,.1-.321l.134-.823a.192.192,0,0,1,.044-.112.206.206,0,0,1,.14-.041h1.012c.058-.178-.121-.346-.294-.42s-.376-.132-.464-.3c-.176-.343.274-.823.085-1.1C380.8,98.342,380.436,98.682,380.137,98.822Z" transform="translate(-329.123 -39.316)" fill="#fafcff"/>
    <path id="Pfad_2327" data-name="Pfad 2327" d="M259.483,208.053a.323.323,0,0,1-.156.047c-.1,0-.17-.1-.214-.192-.225-.494-.1-1.133-.444-1.547a5.281,5.281,0,0,0-.845,1.421l-1.339-.423a1.986,1.986,0,0,0,.252,1.525,2.028,2.028,0,0,0-.628.428.694.694,0,0,0-.162.7,3.4,3.4,0,0,0,.941.1,6.231,6.231,0,0,0,.1,1.748.316.316,0,0,0,.115.222c.1.063.225,0,.324-.052a3.094,3.094,0,0,0,1.1-1.163l.5,1.182a.548.548,0,0,0,.219.3.351.351,0,0,0,.414-.143,1.029,1.029,0,0,0,.148-.45l.184-1.125a.293.293,0,0,1,.063-.159.274.274,0,0,1,.2-.058c.469,0,.938-.016,1.407-.014.082-.25-.167-.48-.409-.587s-.524-.184-.645-.417c-.247-.475.387-1.136.118-1.547C260.408,207.375,259.895,207.85,259.483,208.053Z" transform="translate(-240.837 -118.223)" fill="#fafcff"/>
    <path id="Pfad_2328" data-name="Pfad 2328" d="M210.413,100.413a.327.327,0,0,1-.159.047c-.1,0-.17-.1-.211-.192-.228-.494-.1-1.133-.444-1.547a5.289,5.289,0,0,0-.848,1.421l-1.331-.414a1.972,1.972,0,0,0,.25,1.525,2.014,2.014,0,0,0-.626.428.694.694,0,0,0-.165.7,3.4,3.4,0,0,0,.941.1,6.129,6.129,0,0,0,.1,1.748.247.247,0,0,0,.439.17,3.1,3.1,0,0,0,1.1-1.163l.494,1.182a.521.521,0,0,0,.222.3.354.354,0,0,0,.414-.143,1.012,1.012,0,0,0,.145-.45l.187-1.125a.208.208,0,0,1,.258-.214c.469,0,.938-.019,1.41-.016.08-.25-.17-.48-.409-.587s-.527-.184-.647-.417c-.244-.475.39-1.136.121-1.547C211.334,99.735,210.821,100.21,210.413,100.413Z" transform="translate(-205.231 -40.114)" fill="#fafcff"/>
    <path id="Pfad_2329" data-name="Pfad 2329" d="M363.778,169.17a.159.159,0,0,1-.082.025c-.055,0-.091-.055-.115-.1-.121-.274-.049-.6-.236-.823a2.878,2.878,0,0,0-.45.754l-.708-.219a1.07,1.07,0,0,0,.134.823,1.029,1.029,0,0,0-.332.225.368.368,0,0,0-.088.373,1.808,1.808,0,0,0,.5.052,3.291,3.291,0,0,0,.055.927.164.164,0,0,0,.06.118.17.17,0,0,0,.173-.027,1.676,1.676,0,0,0,.582-.617l.274.628a.274.274,0,0,0,.115.156.189.189,0,0,0,.222-.074.547.547,0,0,0,.077-.239l.1-.6a.154.154,0,0,1,.033-.085.134.134,0,0,1,.1-.03h.749c.041-.132-.091-.255-.22-.31a.633.633,0,0,1-.343-.222c-.129-.252.209-.6.066-.823S363.995,169.06,363.778,169.17Z" transform="translate(-317.735 -90.583)" fill="#fafcff" opacity="0.2"/>
    <path id="Pfad_2330" data-name="Pfad 2330" d="M297.1,207.663a.219.219,0,0,1-.082.025.154.154,0,0,1-.112-.1c-.121-.261-.052-.6-.239-.823a2.833,2.833,0,0,0-.45.754l-.705-.219a1.051,1.051,0,0,0,.132.809,1.153,1.153,0,0,0-.332.228.368.368,0,0,0-.088.373,1.706,1.706,0,0,0,.5.049,3.294,3.294,0,0,0,.055.93.17.17,0,0,0,.06.118c.052.033.121,0,.173-.027a1.673,1.673,0,0,0,.582-.617l.274.628a.274.274,0,0,0,.115.156.192.192,0,0,0,.222-.077.549.549,0,0,0,.077-.239l.1-.6a.146.146,0,0,1,.033-.082.143.143,0,0,1,.1-.03h.749c.041-.132-.09-.255-.217-.313s-.274-.1-.343-.222c-.132-.252.206-.6.063-.823S297.317,207.553,297.1,207.663Z" transform="translate(-269.349 -118.514)" fill="#fafcff" opacity="0.2"/>
    <path id="Pfad_2331" data-name="Pfad 2331" d="M232.572,72.923a.206.206,0,0,1-.082.025.154.154,0,0,1-.112-.1c-.121-.274-.052-.6-.236-.823a2.7,2.7,0,0,0-.45.754l-.708-.219a1.04,1.04,0,0,0,.134.823,1.131,1.131,0,0,0-.335.228.365.365,0,0,0-.085.373,1.69,1.69,0,0,0,.5.049,3.291,3.291,0,0,0,.052.93.17.17,0,0,0,.06.118c.052.033.121,0,.173-.027a1.646,1.646,0,0,0,.582-.617l.274.628a.274.274,0,0,0,.118.156.189.189,0,0,0,.219-.077.549.549,0,0,0,.077-.239l.1-.6a.14.14,0,0,1,.033-.082.143.143,0,0,1,.1-.03h.749c.044-.132-.091-.255-.217-.313s-.274-.1-.343-.222c-.132-.252.206-.6.063-.823S232.792,72.813,232.572,72.923Z" transform="translate(-222.527 -20.739)" fill="#fafcff" opacity="0.5"/>
    <path id="Pfad_2332" data-name="Pfad 2332" d="M266.917,148.85a.162.162,0,0,1-.085.025c-.052,0-.091-.052-.113-.1-.121-.261-.052-.6-.236-.823a2.764,2.764,0,0,0-.45.754l-.708-.22a1.062,1.062,0,0,0,.134.823,1.1,1.1,0,0,0-.332.228.365.365,0,0,0-.088.373,1.7,1.7,0,0,0,.5.049,3.289,3.289,0,0,0,.052.93.184.184,0,0,0,.06.118c.052.033.121,0,.173-.03a1.624,1.624,0,0,0,.582-.615l.274.628a.3.3,0,0,0,.118.156.187.187,0,0,0,.219-.077.55.55,0,0,0,.08-.239l.1-.6a.124.124,0,0,1,.033-.082.134.134,0,0,1,.1-.03h.746c.044-.132-.088-.255-.217-.313s-.274-.1-.343-.222c-.129-.252.208-.6.063-.823S267.134,148.743,266.917,148.85Z" transform="translate(-247.447 -75.838)" fill="#fafcff" opacity="0.5"/>
    <path id="Pfad_2333" data-name="Pfad 2333" d="M241.987,119.25a.151.151,0,0,1-.082.025c-.055,0-.091-.052-.112-.1-.121-.261-.052-.6-.239-.823a2.832,2.832,0,0,0-.45.754l-.705-.219a1.051,1.051,0,0,0,.132.823,1.152,1.152,0,0,0-.332.228.365.365,0,0,0-.088.373,1.707,1.707,0,0,0,.5.049,3.292,3.292,0,0,0,.055.93.17.17,0,0,0,.06.118c.052.033.121,0,.173-.03a1.624,1.624,0,0,0,.582-.615l.274.628a.274.274,0,0,0,.115.156.192.192,0,0,0,.222-.077.549.549,0,0,0,.077-.239l.1-.6a.14.14,0,0,1,.033-.082.143.143,0,0,1,.1-.03h.749c.041-.132-.09-.255-.217-.313s-.274-.1-.343-.222c-.132-.252.206-.6.063-.823S242.206,119.143,241.987,119.25Z" transform="translate(-229.357 -54.358)" fill="#fafcff" opacity="0.5"/>
    <path id="Pfad_2334" data-name="Pfad 2334" d="M349.047,126.22a.159.159,0,0,1-.082.025c-.055,0-.091-.052-.115-.1-.118-.261-.049-.6-.236-.823a2.836,2.836,0,0,0-.45.754l-.705-.219a1.051,1.051,0,0,0,.132.809,1.038,1.038,0,0,0-.332.228.365.365,0,0,0-.088.373,1.805,1.805,0,0,0,.5.049,3.3,3.3,0,0,0,.055.93.17.17,0,0,0,.06.118c.052.033.121,0,.173-.03a1.668,1.668,0,0,0,.582-.615l.274.625a.274.274,0,0,0,.115.159.192.192,0,0,0,.222-.077.549.549,0,0,0,.077-.239l.1-.6a.154.154,0,0,1,.033-.085.145.145,0,0,1,.1-.027h.749c.041-.132-.091-.255-.217-.313s-.274-.1-.343-.222c-.132-.252.206-.6.063-.823S349.266,126.113,349.047,126.22Z" transform="translate(-307.045 -59.416)" fill="#fafcff" opacity="0.5"/>
    <path id="Pfad_2335" data-name="Pfad 2335" d="M297.1,120.4a.151.151,0,0,1-.082.025c-.055,0-.091-.055-.112-.1-.121-.274-.052-.6-.239-.823a2.927,2.927,0,0,0-.45.754l-.705-.219a1.056,1.056,0,0,0,.132.823,1.1,1.1,0,0,0-.332.225.37.37,0,0,0-.088.376,1.921,1.921,0,0,0,.5.049,3.291,3.291,0,0,0,.055.927.159.159,0,0,0,.06.118c.052.036.121,0,.173-.027a1.645,1.645,0,0,0,.582-.617l.274.628a.274.274,0,0,0,.115.156.187.187,0,0,0,.222-.074.549.549,0,0,0,.077-.239l.1-.6a.153.153,0,0,1,.033-.085.173.173,0,0,1,.1-.03h.749c.041-.132-.091-.255-.217-.31a.643.643,0,0,1-.343-.222c-.132-.252.206-.6.063-.823S297.317,120.293,297.1,120.4Z" transform="translate(-269.348 -55.193)" fill="#fafcff" opacity="0.2"/>
    <path id="Pfad_2336" data-name="Pfad 2336" d="M280.8,127.49a.159.159,0,0,1-.082.025c-.055,0-.091-.052-.115-.1-.121-.274-.049-.6-.236-.823a2.928,2.928,0,0,0-.45.754l-.708-.217a1.062,1.062,0,0,0,.134.809,1.075,1.075,0,0,0-.332.225.371.371,0,0,0-.088.376,1.92,1.92,0,0,0,.5.049,3.314,3.314,0,0,0,.055.93.17.17,0,0,0,.06.118c.052.033.121,0,.173-.03a1.647,1.647,0,0,0,.582-.617l.274.628a.275.275,0,0,0,.115.159.192.192,0,0,0,.222-.077.55.55,0,0,0,.077-.239l.1-.6a.153.153,0,0,1,.033-.085.162.162,0,0,1,.1-.03h.749c.041-.134-.091-.258-.217-.313a.642.642,0,0,1-.343-.222c-.132-.252.206-.6.063-.823S281.017,127.383,280.8,127.49Z" transform="translate(-257.52 -60.338)" fill="#fafcff" opacity="0.3"/>
    <path id="Pfad_2337" data-name="Pfad 2337" d="M265.607,84.62a.162.162,0,0,1-.085.025c-.052,0-.09-.052-.112-.1-.121-.274-.052-.6-.236-.823a2.79,2.79,0,0,0-.45.752l-.708-.217a1.04,1.04,0,0,0,.134.823,1.122,1.122,0,0,0-.335.225.376.376,0,0,0-.085.376,1.8,1.8,0,0,0,.5.049,3.312,3.312,0,0,0,.052.93.17.17,0,0,0,.06.118c.052.033.121,0,.173-.03a1.613,1.613,0,0,0,.582-.617l.274.628a.294.294,0,0,0,.118.159.187.187,0,0,0,.222-.1.548.548,0,0,0,.08-.239l.1-.6a.154.154,0,0,1,.033-.085.173.173,0,0,1,.1-.03h.749c.044-.134-.088-.258-.217-.313a.632.632,0,0,1-.343-.222c-.129-.252.206-.6.063-.823S265.824,84.5,265.607,84.62Z" transform="translate(-246.497 -29.229)" fill="#fafcff" opacity="0.2"/>
    <path id="Pfad_2338" data-name="Pfad 2338" d="M295.538,140.613a.19.19,0,0,1-.085.025c-.052,0-.091-.055-.113-.1-.121-.261-.052-.6-.236-.823a2.806,2.806,0,0,0-.45.754l-.708-.219a1.045,1.045,0,0,0,.134.823,1.073,1.073,0,0,0-.335.225.373.373,0,0,0-.085.373,1.8,1.8,0,0,0,.5.052,3.294,3.294,0,0,0,.052.927.184.184,0,0,0,.06.118.17.17,0,0,0,.173-.027,1.646,1.646,0,0,0,.582-.617l.274.628a.274.274,0,0,0,.118.156.189.189,0,0,0,.219-.074.55.55,0,0,0,.08-.239l.1-.6a.112.112,0,0,1,.137-.115h.746c.044-.132-.088-.255-.217-.31a.633.633,0,0,1-.343-.222c-.129-.252.206-.6.063-.823S295.755,140.492,295.538,140.613Z" transform="translate(-268.217 -69.858)" fill="#fafcff" opacity="0.3"/>
    <g id="Gruppe_511" data-name="Gruppe 511" transform="translate(192.554 72.415)" opacity="0.1">
      <ellipse id="Ellipse_228" data-name="Ellipse 228" cx="4.935" cy="6.461" rx="4.935" ry="6.461" transform="translate(18.818 133.237)" fill="#3f3d56"/>
      <path id="Pfad_2339" data-name="Pfad 2339" d="M828.6,673.461a7.766,7.766,0,0,0,1.032-3.948c0-3.566-2.211-6.464-4.938-6.464s-4.938,2.894-4.938,6.464a7.794,7.794,0,0,0,1.04,3.948,8.077,8.077,0,0,0,0,7.9,8.071,8.071,0,0,0,0,7.9,7.812,7.812,0,0,0-1.031,3.951c0,3.566,2.211,6.461,4.938,6.461s4.938-2.892,4.938-6.461a7.782,7.782,0,0,0-1.04-3.942,8.071,8.071,0,0,0,0-7.9A8.076,8.076,0,0,0,828.6,673.461Z" transform="translate(-800.952 -561.415)" fill="#3f3d56"/>
      <ellipse id="Ellipse_229" data-name="Ellipse 229" cx="4.935" cy="6.461" rx="4.935" ry="6.461" transform="translate(18.818 93.748)" fill="#3f3d56"/>
      <ellipse id="Ellipse_230" data-name="Ellipse 230" cx="4.935" cy="6.461" rx="4.935" ry="6.461" transform="translate(18.818 85.852)" fill="#3f3d56"/>
      <path id="Pfad_2340" data-name="Pfad 2340" d="M793.438,330.853a23.367,23.367,0,0,0,1.838-2.708l-12.971-2.129,14.027.1a23.69,23.69,0,0,0,.453-18.735l-18.82,9.764,17.355-12.76a23.646,23.646,0,1,0-39.05,26.463,23.736,23.736,0,0,0-2.7,4.31l16.837,8.746-17.95-6.036a23.654,23.654,0,0,0,3.811,22.2,23.643,23.643,0,1,0,37.168,0,23.646,23.646,0,0,0,0-29.234Z" transform="translate(-751.208 -292.586)" fill="#fafcff"/>
      <path id="Pfad_2341" data-name="Pfad 2341" d="M751.219,484.429a23.542,23.542,0,0,0,5.059,14.617,23.643,23.643,0,1,0,37.168,0C796.615,495.033,751.219,481.777,751.219,484.429Z" transform="translate(-751.216 -431.545)" opacity="0.1"/>
    </g>
    <g id="Gruppe_512" data-name="Gruppe 512" transform="translate(23.615 72.415)" opacity="0.1">
      <ellipse id="Ellipse_231" data-name="Ellipse 231" cx="4.935" cy="6.461" rx="4.935" ry="6.461" transform="translate(18.601 133.237)" fill="#3f3d56"/>
      <path id="Pfad_2342" data-name="Pfad 2342" d="M212.054,673.461a7.793,7.793,0,0,0,1.032-3.948c0-3.567-2.211-6.464-4.938-6.464s-4.938,2.894-4.938,6.464a7.766,7.766,0,0,0,1.04,3.948,8.077,8.077,0,0,0,0,7.9,8.071,8.071,0,0,0,0,7.9,7.782,7.782,0,0,0-1.032,3.951c0,3.566,2.211,6.461,4.938,6.461s4.938-2.892,4.938-6.461a7.811,7.811,0,0,0-1.031-3.951,8.072,8.072,0,0,0,0-7.9,8.077,8.077,0,0,0,0-7.9Z" transform="translate(-184.611 -561.415)" fill="#3f3d56"/>
      <ellipse id="Ellipse_232" data-name="Ellipse 232" cx="4.935" cy="6.461" rx="4.935" ry="6.461" transform="translate(18.601 93.748)" fill="#3f3d56"/>
      <ellipse id="Ellipse_233" data-name="Ellipse 233" cx="4.935" cy="6.461" rx="4.935" ry="6.461" transform="translate(18.601 85.852)" fill="#3f3d56"/>
      <path id="Pfad_2343" data-name="Pfad 2343" d="M140.478,330.853a23.366,23.366,0,0,1-1.838-2.708l12.971-2.129-14.027.1a23.69,23.69,0,0,1-.453-18.735l18.82,9.764L138.6,304.389a23.646,23.646,0,1,1,39.05,26.463,23.734,23.734,0,0,1,2.7,4.31l-16.837,8.746,17.95-6.036a23.654,23.654,0,0,1-3.811,22.2,23.643,23.643,0,1,1-37.168,0,23.646,23.646,0,0,1,0-29.234Z" transform="translate(-135.419 -292.586)" fill="#fafcff"/>
      <path id="Pfad_2344" data-name="Pfad 2344" d="M182.705,484.429a23.542,23.542,0,0,1-5.059,14.617,23.643,23.643,0,1,1-37.168,0C137.309,495.033,182.705,481.777,182.705,484.429Z" transform="translate(-135.419 -431.545)" opacity="0.1"/>
    </g>
    <g id="Gruppe_513" data-name="Gruppe 513" transform="translate(102.928 72.428)" opacity="0.1">
      <ellipse id="Ellipse_234" data-name="Ellipse 234" cx="4.935" cy="6.461" rx="4.935" ry="6.461" transform="translate(18.601 133.224)" fill="#3f3d56"/>
      <path id="Pfad_2345" data-name="Pfad 2345" d="M501.147,673.461a7.79,7.79,0,0,0,1.029-3.948c0-3.567-2.195-6.464-4.938-6.464s-4.938,2.894-4.938,6.464a7.766,7.766,0,0,0,1.037,3.948,8.077,8.077,0,0,0,0,7.9,8.071,8.071,0,0,0,0,7.9,7.782,7.782,0,0,0-1.032,3.951c0,3.566,2.211,6.461,4.938,6.461s4.938-2.892,4.938-6.461a7.81,7.81,0,0,0-1.029-3.951,8.088,8.088,0,0,0,0-7.9,8.093,8.093,0,0,0,0-7.9Z" transform="translate(-473.704 -561.428)" fill="#3f3d56"/>
      <ellipse id="Ellipse_235" data-name="Ellipse 235" cx="4.935" cy="6.461" rx="4.935" ry="6.461" transform="translate(18.601 93.735)" fill="#3f3d56"/>
      <ellipse id="Ellipse_236" data-name="Ellipse 236" cx="4.935" cy="6.461" rx="4.935" ry="6.461" transform="translate(18.601 85.839)" fill="#3f3d56"/>
      <path id="Pfad_2346" data-name="Pfad 2346" d="M429.589,330.888a23.364,23.364,0,0,1-1.838-2.708l12.968-2.129-14.025.1a23.69,23.69,0,0,1-.453-18.735l18.82,9.764L427.7,304.424a23.646,23.646,0,1,1,39.053,26.463,23.569,23.569,0,0,1,2.694,4.31l-16.845,8.746,17.95-6.036a23.654,23.654,0,0,1-3.811,22.2,23.643,23.643,0,1,1-37.168,0,23.646,23.646,0,0,1,0-29.234Z" transform="translate(-424.519 -292.634)" fill="#fafcff"/>
      <path id="Pfad_2347" data-name="Pfad 2347" d="M471.805,484.429a23.542,23.542,0,0,1-5.059,14.617,23.643,23.643,0,1,1-37.168,0C426.409,495.033,471.805,481.777,471.805,484.429Z" transform="translate(-424.519 -431.559)" opacity="0.1"/>
    </g>
    <g id="Gruppe_514" data-name="Gruppe 514" transform="translate(133.122 38.059)" opacity="0.6">
      <path id="Pfad_2348" data-name="Pfad 2348" d="M577.879,183.72a.549.549,0,0,0-.892.636c.1.154.214.3.321.444a17.641,17.641,0,0,1,2.529,5.937,2.816,2.816,0,0,1,.115,1.567,9.759,9.759,0,0,0-.274-4.088,25.437,25.437,0,0,0-1.446-3.86A3.418,3.418,0,0,0,577.879,183.72Z" transform="translate(-565.291 -179.083)" fill="#fafcff" opacity="0.5"/>
      <path id="Pfad_2349" data-name="Pfad 2349" d="M548.121,197.589a.682.682,0,0,0-.115,1.358c.228.019.455.025.675.03a20.915,20.915,0,0,1,7.591,2.074,3.242,3.242,0,0,1,1.564,1.1,11.4,11.4,0,0,0-4.049-2.87,29.98,29.98,0,0,0-4.779-1.545A4.09,4.09,0,0,0,548.121,197.589Z" transform="translate(-543.889 -189.295)" fill="#fafcff"/>
      <path id="Pfad_2350" data-name="Pfad 2350" d="M549.942,209.389c-.549.019-.425.8.129.8h.425a15.536,15.536,0,0,1,5.064.905,2.576,2.576,0,0,1,1.138.573,9.136,9.136,0,0,0-2.96-1.52,22.588,22.588,0,0,0-3.215-.719A3.1,3.1,0,0,0,549.942,209.389Z" transform="translate(-545.469 -197.857)" fill="#fafcff" opacity="0.2"/>
      <path id="Pfad_2351" data-name="Pfad 2351" d="M591.175,243.418c.156.527.881.214.749-.324-.036-.14-.077-.274-.118-.409a15.634,15.634,0,0,1-.379-5.13,2.6,2.6,0,0,1,.274-1.246,9.174,9.174,0,0,0-.746,3.243,22.747,22.747,0,0,0,.112,3.292,3.128,3.128,0,0,0,.107.573Z" transform="translate(-575.476 -217.393)" fill="#fafcff" opacity="0.5"/>
      <path id="Pfad_2352" data-name="Pfad 2352" d="M553.837,181.577c-.332-.058-.357.425-.027.5l.255.049a9.528,9.528,0,0,1,2.911,1.182,1.578,1.578,0,0,1,.606.486,5.556,5.556,0,0,0-1.575-1.281,13.925,13.925,0,0,0-1.833-.823A2.063,2.063,0,0,0,553.837,181.577Z" transform="translate(-548.362 -177.673)" fill="#fafcff" opacity="0.2"/>
      <path id="Pfad_2353" data-name="Pfad 2353" d="M534.95,223.685c-.837.431-.129,1.616.732,1.224.225-.1.444-.219.653-.326a25.276,25.276,0,0,1,8.461-2.195,4.148,4.148,0,0,1,2.148.11,14.539,14.539,0,0,0-5.6-.335,36.6,36.6,0,0,0-5.468,1.177,4.872,4.872,0,0,0-.924.346Z" transform="translate(-534.575 -207.032)" fill="#fafcff"/>
      <path id="Pfad_2354" data-name="Pfad 2354" d="M544.157,233.293c-.6.549.338,1.224.969.686.165-.143.324-.291.472-.431a25.407,25.407,0,0,1,6.675-4.08,16.439,16.439,0,0,1,3.684-.549,28.345,28.345,0,0,0-6.722,1.372,37.276,37.276,0,0,0-4.39,2.469A4.663,4.663,0,0,0,544.157,233.293Z" transform="translate(-541.387 -212.031)" fill="#fafcff" opacity="0.5"/>
      <path id="Pfad_2355" data-name="Pfad 2355" d="M560.272,244.393c-.176.8.974.823,1.188,0,.055-.208.1-.42.145-.623a25.233,25.233,0,0,1,3.171-7.149,15.042,15.042,0,0,1,2.722-2.54,27.737,27.737,0,0,0-4.741,4.957,37.309,37.309,0,0,0-2.195,4.516,4.895,4.895,0,0,0-.291.84Z" transform="translate(-553.209 -215.775)" fill="#fafcff"/>
      <path id="Pfad_2356" data-name="Pfad 2356" d="M588.449,167.737c-.411-.837-1.583-.148-1.21.711.1.222.206.442.31.653a25.287,25.287,0,0,1,2.022,8.414,4.125,4.125,0,0,1-.143,2.126,14.54,14.54,0,0,0,.417-5.547,36.771,36.771,0,0,0-1.07-5.438A4.883,4.883,0,0,0,588.449,167.737Z" transform="translate(-572.738 -167.358)" fill="#fafcff"/>
      <path id="Pfad_2357" data-name="Pfad 2357" d="M565.353,171.905a.123.123,0,0,0,.069.019.12.12,0,0,0,.1-.085c.1-.225.044-.513.2-.7a2.409,2.409,0,0,1,.381.642l.6-.187a.894.894,0,0,1-.115.689.931.931,0,0,1,.274.192.315.315,0,0,1,.071.318,1.464,1.464,0,0,1-.425.044,2.744,2.744,0,0,1-.044.79.153.153,0,0,1-.052.1.142.142,0,0,1-.145-.025,1.4,1.4,0,0,1-.5-.524l-.222.532a.241.241,0,0,1-.1.134.159.159,0,0,1-.186-.063.49.49,0,0,1-.066-.2l-.085-.51a.115.115,0,0,0-.028-.071.123.123,0,0,0-.088-.025h-.637c-.038-.112.074-.217.184-.274s.236-.085.291-.189c.112-.217-.176-.516-.052-.7S565.174,171.812,565.353,171.905Z" transform="translate(-556.183 -170.102)" fill="#fafcff"/>
      <path id="Pfad_2358" data-name="Pfad 2358" d="M604.606,183.65a.549.549,0,1,1,.894.636c-.1.154-.214.3-.321.444a17.587,17.587,0,0,0-2.529,5.937,2.818,2.818,0,0,0-.118,1.567,9.763,9.763,0,0,1,.274-4.088,25.163,25.163,0,0,1,1.446-3.86A3.4,3.4,0,0,1,604.606,183.65Z" transform="translate(-583.814 -179.013)" fill="#fafcff" opacity="0.5"/>
      <path id="Pfad_2359" data-name="Pfad 2359" d="M615.125,197.589a.682.682,0,0,1,.112,1.358c-.225.019-.456.025-.672.03a20.928,20.928,0,0,0-7.594,2.074,3.247,3.247,0,0,0-1.561,1.1,11.4,11.4,0,0,1,4.049-2.87,30.031,30.031,0,0,1,4.776-1.545A4.141,4.141,0,0,1,615.125,197.589Z" transform="translate(-585.977 -189.295)" fill="#fafcff"/>
      <path id="Pfad_2360" data-name="Pfad 2360" d="M622.127,209.39c.549.019.422.8-.129.8h-.425a15.534,15.534,0,0,0-5.064.905,2.562,2.562,0,0,0-1.139.573,9.108,9.108,0,0,1,2.96-1.52,22.584,22.584,0,0,1,3.221-.708A3.1,3.1,0,0,1,622.127,209.39Z" transform="translate(-593.204 -197.859)" fill="#fafcff" opacity="0.5"/>
      <path id="Pfad_2361" data-name="Pfad 2361" d="M626.395,181.577c.332-.058.357.425.027.5l-.258.049a9.512,9.512,0,0,0-2.908,1.182,1.577,1.577,0,0,0-.606.486,5.543,5.543,0,0,1,1.572-1.281,14.12,14.12,0,0,1,1.835-.823A1.989,1.989,0,0,1,626.395,181.577Z" transform="translate(-598.487 -177.673)" fill="#fafcff" opacity="0.2"/>
      <path id="Pfad_2362" data-name="Pfad 2362" d="M603.418,254.46c-.074.327-.527.165-.466-.167a1.145,1.145,0,0,1,.055-.255,9.56,9.56,0,0,0,.03-3.141,1.584,1.584,0,0,0-.217-.746,5.537,5.537,0,0,1,.576,1.945,14.148,14.148,0,0,1,.063,2.014A1.708,1.708,0,0,1,603.418,254.46Z" transform="translate(-584.097 -227.436)" fill="#fafcff" opacity="0.2"/>
      <path id="Pfad_2363" data-name="Pfad 2363" d="M622.229,244.3c.258.436-.376.406-.653-.03-.074-.115-.14-.23-.206-.34a23.494,23.494,0,0,0-3.185-3.934,4.412,4.412,0,0,0-.985-.853,15.734,15.734,0,0,1,2.587,2.211c.774.823,1.454,1.646,2.123,2.491A4.119,4.119,0,0,1,622.229,244.3Z" transform="translate(-594.532 -219.447)" fill="#fafcff" opacity="0.5"/>
      <path id="Pfad_2364" data-name="Pfad 2364" d="M551.73,244.3c-.258.436.376.406.656-.03.071-.115.14-.23.2-.34a23.5,23.5,0,0,1,3.185-3.934,4.43,4.43,0,0,1,.988-.853,15.759,15.759,0,0,0-2.59,2.211c-.771.823-1.454,1.646-2.123,2.491A4.127,4.127,0,0,0,551.73,244.3Z" transform="translate(-546.98 -219.447)" fill="#fafcff" opacity="0.2"/>
      <path id="Pfad_2365" data-name="Pfad 2365" d="M582.344,254.46c.074.327.527.165.469-.167-.016-.088-.036-.173-.055-.255a9.494,9.494,0,0,1-.03-3.141,1.554,1.554,0,0,1,.214-.746,5.535,5.535,0,0,0-.576,1.945,13.7,13.7,0,0,0-.06,2.014A1.934,1.934,0,0,0,582.344,254.46Z" transform="translate(-569.202 -227.436)" fill="#fafcff" opacity="0.2"/>
      <path id="Pfad_2366" data-name="Pfad 2366" d="M616.758,193.547c.329-.058.354.422.025.5-.085.019-.173.033-.255.047a9.469,9.469,0,0,0-2.911,1.185,1.6,1.6,0,0,0-.606.486,5.565,5.565,0,0,1,1.575-1.284,13.906,13.906,0,0,1,1.833-.823A1.8,1.8,0,0,1,616.758,193.547Z" transform="translate(-591.492 -186.359)" fill="#fafcff" opacity="0.2"/>
      <path id="Pfad_2367" data-name="Pfad 2367" d="M608.425,169.959c.274-.178.488.258.211.45l-.219.14a9.608,9.608,0,0,0-2.258,2.195,1.553,1.553,0,0,0-.379.68,5.57,5.57,0,0,1,.979-1.781,13.937,13.937,0,0,1,1.388-1.457A1.762,1.762,0,0,1,608.425,169.959Z" transform="translate(-586.245 -169.215)" fill="#fafcff" opacity="0.2"/>
      <path id="Pfad_2368" data-name="Pfad 2368" d="M623.164,223.686c.837.431.129,1.616-.733,1.224-.225-.1-.445-.219-.656-.326a25.246,25.246,0,0,0-8.458-2.195,4.149,4.149,0,0,0-2.148.11,14.54,14.54,0,0,1,5.6-.335,36.555,36.555,0,0,1,5.471,1.177A5.018,5.018,0,0,1,623.164,223.686Z" transform="translate(-590.156 -207.032)" fill="#fafcff"/>
      <path id="Pfad_2369" data-name="Pfad 2369" d="M614.95,233.293c.6.549-.337,1.224-.968.686-.165-.143-.324-.291-.475-.431a25.36,25.36,0,0,0-6.675-4.08,16.535,16.535,0,0,0-3.682-.549,28.322,28.322,0,0,1,6.719,1.372,37.08,37.08,0,0,1,4.389,2.469,4.666,4.666,0,0,1,.691.532Z" transform="translate(-584.337 -212.031)" fill="#fafcff" opacity="0.5"/>
      <path id="Pfad_2370" data-name="Pfad 2370" d="M604.756,245.575c.074.823-1.07.689-1.18-.134-.027-.217-.047-.431-.066-.636a25.359,25.359,0,0,0-2.252-7.492,15.568,15.568,0,0,0-2.379-2.861,27.667,27.667,0,0,1,4.082,5.514,37.381,37.381,0,0,1,1.624,4.754A4.641,4.641,0,0,1,604.756,245.575Z" transform="translate(-581.238 -216.044)" fill="#fafcff"/>
      <path id="Pfad_2371" data-name="Pfad 2371" d="M618.564,171.905a.132.132,0,0,1-.071.019.129.129,0,0,1-.1-.085c-.1-.225-.044-.513-.2-.7a2.413,2.413,0,0,0-.384.642l-.6-.187a.88.88,0,0,0,.115.689.934.934,0,0,0-.274.192.315.315,0,0,0-.074.318,1.487,1.487,0,0,0,.425.044,2.827,2.827,0,0,0,.047.79.153.153,0,0,0,.052.1.143.143,0,0,0,.145-.025,1.4,1.4,0,0,0,.5-.524l.222.532a.25.25,0,0,0,.1.134.162.162,0,0,0,.189-.063.489.489,0,0,0,.066-.2l.085-.51a.115.115,0,0,1,.027-.071.124.124,0,0,1,.088-.025h.637c.038-.112-.077-.217-.184-.274s-.239-.085-.293-.189c-.11-.217.178-.516.055-.7S618.751,171.812,618.564,171.905Z" transform="translate(-594.36 -170.102)" fill="#fafcff"/>
      <path id="Pfad_2372" data-name="Pfad 2372" d="M625.176,262.235a.167.167,0,0,1-.071.022c-.047,0-.077-.047-.1-.088-.1-.222-.044-.513-.2-.7a2.348,2.348,0,0,0-.384.642l-.6-.187a.891.891,0,0,0,.112.689.917.917,0,0,0-.274.195.313.313,0,0,0-.074.318,1.588,1.588,0,0,0,.425.041,2.829,2.829,0,0,0,.044.79.154.154,0,0,0,.052.1c.044.027.1,0,.148-.025a1.4,1.4,0,0,0,.494-.524l.225.532a.228.228,0,0,0,.1.134.159.159,0,0,0,.187-.063.482.482,0,0,0,.069-.2l.082-.51a.163.163,0,0,1,.027-.071.126.126,0,0,1,.091-.025h.637c.036-.112-.077-.217-.184-.274s-.239-.085-.294-.189c-.11-.217.176-.513.055-.7S625.363,262.142,625.176,262.235Z" transform="translate(-599.156 -235.651)" fill="#fafcff" opacity="0.2"/>
      <path id="Pfad_2373" data-name="Pfad 2373" d="M643.756,201.685a.179.179,0,0,1-.071.022c-.047,0-.077-.047-.1-.088-.1-.222-.044-.513-.2-.7a2.41,2.41,0,0,0-.381.642l-.6-.187a.894.894,0,0,0,.115.689.883.883,0,0,0-.274.195.313.313,0,0,0-.074.318,1.577,1.577,0,0,0,.425.041,2.824,2.824,0,0,0,.044.79.153.153,0,0,0,.052.1.143.143,0,0,0,.145-.025,1.4,1.4,0,0,0,.5-.524l.225.532a.229.229,0,0,0,.1.134.159.159,0,0,0,.187-.063.444.444,0,0,0,.066-.2l.085-.51a.114.114,0,0,1,.027-.071.123.123,0,0,1,.088-.025h.639c.036-.112-.077-.217-.187-.274s-.236-.085-.291-.189c-.113-.217.176-.516.055-.7S643.943,201.592,643.756,201.685Z" transform="translate(-612.639 -191.712)" fill="#fafcff"/>
      <path id="Pfad_2374" data-name="Pfad 2374" d="M567.763,270.5a.209.209,0,0,1-.1.03c-.063,0-.107-.066-.134-.123-.143-.31-.06-.711-.274-.974a3.363,3.363,0,0,0-.532.894l-.839-.258a1.246,1.246,0,0,0,.159.96,1.264,1.264,0,0,0-.4.274.436.436,0,0,0-.1.442,2.065,2.065,0,0,0,.593.06,3.99,3.99,0,0,0,.063,1.1.208.208,0,0,0,.074.143c.06.038.14,0,.2-.036a1.984,1.984,0,0,0,.691-.73l.31.743a.326.326,0,0,0,.14.187.222.222,0,0,0,.274-.091.629.629,0,0,0,.093-.274l.115-.708a.137.137,0,0,1,.165-.137h.886c.052-.156-.107-.3-.258-.37s-.329-.115-.406-.274c-.154-.3.244-.716.074-.974C568.344,270.069,568.023,270.368,567.763,270.5Z" transform="translate(-557.032 -241.427)" fill="#fafcff"/>
      <path id="Pfad_2375" data-name="Pfad 2375" d="M536.846,202.7a.2.2,0,0,1-.1.027c-.063,0-.107-.063-.134-.121-.143-.31-.06-.713-.274-.974a3.358,3.358,0,0,0-.532.894l-.84-.261a1.246,1.246,0,0,0,.159.96,1.369,1.369,0,0,0-.395.274.437.437,0,0,0-.1.444,2.136,2.136,0,0,0,.59.06,4,4,0,0,0,.063,1.1.2.2,0,0,0,.074.14c.06.041.14,0,.2-.033a1.969,1.969,0,0,0,.691-.732l.31.746a.357.357,0,0,0,.14.187.228.228,0,0,0,.261-.091.639.639,0,0,0,.093-.274l.115-.711a.178.178,0,0,1,.041-.1.162.162,0,0,1,.123-.036h.886c.052-.159-.1-.3-.258-.37s-.329-.118-.406-.274c-.154-.3.244-.716.077-.974C537.428,202.28,537.107,202.568,536.846,202.7Z" transform="translate(-534.598 -192.228)" fill="#fafcff"/>
      <path id="Pfad_2376" data-name="Pfad 2376" d="M633.459,246.005a.09.09,0,0,1-.052.016.1.1,0,0,1-.071-.063c-.074-.167-.03-.379-.148-.519a1.811,1.811,0,0,0-.274.475l-.447-.137a.667.667,0,0,0,.085.51.657.657,0,0,0-.209.143.231.231,0,0,0-.055.236,1.1,1.1,0,0,0,.313.03,2.017,2.017,0,0,0,.036.587.11.11,0,0,0,.038.074.1.1,0,0,0,.107-.019,1.023,1.023,0,0,0,.368-.39l.165.4a.181.181,0,0,0,.074.1.12.12,0,0,0,.14-.049.377.377,0,0,0,.044-.156l.06-.379a.074.074,0,0,1,.088-.071h.469c.028-.082-.055-.159-.134-.195s-.178-.063-.217-.14c-.082-.159.129-.381.038-.519S633.6,245.939,633.459,246.005Z" transform="translate(-605.472 -224.019)" fill="#fafcff" opacity="0.2"/>
      <path id="Pfad_2377" data-name="Pfad 2377" d="M591.46,270.255a.116.116,0,0,1-.052.016.1.1,0,0,1-.071-.066c-.074-.165-.03-.376-.148-.516a1.771,1.771,0,0,0-.274.475l-.447-.137a.67.67,0,0,0,.085.51.658.658,0,0,0-.209.143.23.23,0,0,0-.055.236,1.1,1.1,0,0,0,.313.03,1.988,1.988,0,0,0,.036.584.118.118,0,0,0,.036.077c.033.019.077,0,.11-.019a1.023,1.023,0,0,0,.368-.39l.165.4a.181.181,0,0,0,.074.1.124.124,0,0,0,.14-.049.338.338,0,0,0,.047-.148l.063-.379a.074.074,0,0,1,.088-.071h.469c.027-.082-.055-.162-.134-.195s-.178-.063-.217-.14c-.082-.159.129-.381.038-.518S591.6,270.189,591.46,270.255Z" transform="translate(-574.995 -241.616)" fill="#fafcff" opacity="0.2"/>
      <path id="Pfad_2378" data-name="Pfad 2378" d="M550.805,185.385a.129.129,0,0,1-.052.016c-.036,0-.058-.036-.071-.066-.077-.165-.033-.379-.151-.516a1.725,1.725,0,0,0-.274.475l-.466-.151a.653.653,0,0,0,.082.51.744.744,0,0,0-.209.143.233.233,0,0,0-.055.236,1.21,1.21,0,0,0,.315.033,2.088,2.088,0,0,0,.033.584.1.1,0,0,0,.038.074c.033.022.074,0,.107-.016a1.042,1.042,0,0,0,.368-.39l.165.4a.17.17,0,0,0,.074.1.115.115,0,0,0,.14-.047.361.361,0,0,0,.049-.151l.06-.376a.1.1,0,0,1,.022-.055.087.087,0,0,1,.066-.016h.472c.025-.085-.058-.162-.137-.2s-.176-.06-.217-.14c-.082-.159.129-.379.041-.516S550.929,185.317,550.805,185.385Z" transform="translate(-545.476 -180.029)" fill="#fafcff" opacity="0.5"/>
      <path id="Pfad_2379" data-name="Pfad 2379" d="M572.452,233.172a.088.088,0,0,1-.052,0c-.033,0-.058-.033-.071-.063-.077-.165-.033-.379-.148-.518a1.725,1.725,0,0,0-.274.477l-.444-.14a.656.656,0,0,0,.085.51.7.7,0,0,0-.211.143.236.236,0,0,0-.055.236,1.219,1.219,0,0,0,.315.033,2.086,2.086,0,0,0,.033.584.11.11,0,0,0,.038.074c.033.022.077,0,.11-.016a1.037,1.037,0,0,0,.365-.39l.167.4a.17.17,0,0,0,.074.1.121.121,0,0,0,.137-.047.326.326,0,0,0,.049-.151l.063-.376a.1.1,0,0,1,.019-.055.109.109,0,0,1,.066-.019h.472c.027-.085-.058-.162-.137-.2s-.176-.06-.217-.14c-.08-.159.132-.381.041-.519S572.589,233.1,572.452,233.172Z" transform="translate(-561.202 -214.694)" fill="#fafcff" opacity="0.5"/>
      <path id="Pfad_2380" data-name="Pfad 2380" d="M556.752,214.565a.115.115,0,0,1-.052.016.1.1,0,0,1-.071-.066c-.077-.165-.033-.379-.148-.516a1.71,1.71,0,0,0-.274.475l-.444-.137a.658.658,0,0,0,.085.51.7.7,0,0,0-.211.143.236.236,0,0,0-.055.236,1.1,1.1,0,0,0,.315.03,2.091,2.091,0,0,0,.033.584.11.11,0,0,0,.038.077c.033.019.077,0,.11-.019a1.017,1.017,0,0,0,.365-.39l.167.4a.181.181,0,0,0,.074.1.118.118,0,0,0,.137-.049.348.348,0,0,0,.049-.151l.063-.376a.086.086,0,0,1,.019-.052.093.093,0,0,1,.066-.019h.472c.027-.082-.058-.162-.137-.195s-.176-.063-.217-.14c-.082-.159.132-.381.041-.519S556.889,214.5,556.752,214.565Z" transform="translate(-549.809 -201.204)" fill="#fafcff" opacity="0.5"/>
      <path id="Pfad_2381" data-name="Pfad 2381" d="M624.182,218.955a.13.13,0,0,1-.052.016.09.09,0,0,1-.071-.066c-.077-.165-.033-.376-.151-.516a1.774,1.774,0,0,0-.274.475l-.445-.137a.659.659,0,0,0,.082.51.689.689,0,0,0-.209.143.23.23,0,0,0-.055.236,1.1,1.1,0,0,0,.316.03,2.084,2.084,0,0,0,.033.584.11.11,0,0,0,.038.077c.033.019.074,0,.107-.019a1.023,1.023,0,0,0,.368-.39l.165.4a.181.181,0,0,0,.074.1.121.121,0,0,0,.14-.049.351.351,0,0,0,.049-.151l.06-.376a.074.074,0,0,1,.088-.071h.472c.025-.082-.058-.162-.137-.195s-.175-.063-.217-.14c-.082-.159.129-.381.041-.519S624.319,218.887,624.182,218.955Z" transform="translate(-598.738 -204.39)" fill="#fafcff" opacity="0.5"/>
      <path id="Pfad_2382" data-name="Pfad 2382" d="M591.46,215.285a.091.091,0,0,1-.052.016.1.1,0,0,1-.071-.063c-.074-.165-.03-.379-.148-.519a1.815,1.815,0,0,0-.274.475l-.447-.137a.666.666,0,0,0,.085.51.658.658,0,0,0-.209.143.23.23,0,0,0-.055.236,1.1,1.1,0,0,0,.313.03,2.006,2.006,0,0,0,.036.587.118.118,0,0,0,.036.074.11.11,0,0,0,.11-.019,1.023,1.023,0,0,0,.368-.39l.165.4a.181.181,0,0,0,.074.1.124.124,0,0,0,.14-.049.338.338,0,0,0,.047-.148l.063-.379a.074.074,0,0,1,.088-.071h.469c.027-.082-.055-.159-.134-.195s-.178-.063-.217-.14c-.082-.159.129-.381.038-.519S591.6,215.219,591.46,215.285Z" transform="translate(-574.995 -201.726)" fill="#fafcff" opacity="0.2"/>
      <path id="Pfad_2383" data-name="Pfad 2383" d="M581.192,219.755a.14.14,0,0,1-.055.016c-.033,0-.055-.036-.071-.066-.074-.165-.03-.379-.148-.516a1.768,1.768,0,0,0-.274.475l-.447-.137a.67.67,0,0,0,.085.51.642.642,0,0,0-.208.143.23.23,0,0,0-.055.236,1.1,1.1,0,0,0,.313.03,2.091,2.091,0,0,0,.036.584.1.1,0,0,0,.038.074c.033.022.074,0,.107-.016a1.041,1.041,0,0,0,.368-.39l.165.4a.179.179,0,0,0,.074.1.121.121,0,0,0,.14-.049.408.408,0,0,0,.049-.151l.06-.376a.074.074,0,0,1,.088-.071h.472c.025-.082-.057-.162-.137-.2s-.176-.06-.217-.137c-.082-.162.129-.381.038-.519S581.329,219.687,581.192,219.755Z" transform="translate(-567.542 -204.97)" fill="#fafcff" opacity="0.3"/>
      <path id="Pfad_2384" data-name="Pfad 2384" d="M571.62,192.718a.088.088,0,0,1-.052.014c-.033,0-.058-.033-.071-.063-.074-.165-.03-.379-.148-.519a1.81,1.81,0,0,0-.274.475l-.447-.137a.667.667,0,0,0,.085.51.657.657,0,0,0-.209.143.23.23,0,0,0-.055.236,1.2,1.2,0,0,0,.313.033,2,2,0,0,0,.036.584.118.118,0,0,0,.036.074c.033.022.077,0,.11-.019a1.015,1.015,0,0,0,.368-.387l.165.4a.182.182,0,0,0,.074.1.126.126,0,0,0,.14-.047.358.358,0,0,0,.047-.151l.063-.376a.1.1,0,0,1,.022-.055.1.1,0,0,1,.066-.019h.469c.028-.085-.055-.162-.135-.2s-.178-.063-.217-.14c-.082-.159.129-.381.038-.518S571.757,192.658,571.62,192.718Z" transform="translate(-560.598 -185.348)" fill="#fafcff" opacity="0.2"/>
      <path id="Pfad_2385" data-name="Pfad 2385" d="M590.472,228a.08.08,0,0,1-.124-.049c-.077-.165-.033-.379-.151-.519a1.81,1.81,0,0,0-.274.475l-.444-.137a.663.663,0,0,0,.082.51.722.722,0,0,0-.209.143.231.231,0,0,0-.055.236,1.1,1.1,0,0,0,.315.03,2.105,2.105,0,0,0,.033.587.11.11,0,0,0,.038.074.1.1,0,0,0,.107-.019,1.037,1.037,0,0,0,.368-.387l.165.4a.181.181,0,0,0,.074.1.121.121,0,0,0,.14-.049.34.34,0,0,0,.041-.154l.06-.379a.113.113,0,0,1,.022-.052.091.091,0,0,1,.066-.019h.472c.027-.082-.058-.159-.137-.195s-.176-.063-.217-.14c-.082-.159.132-.381.041-.518S590.609,227.929,590.472,228Z" transform="translate(-574.276 -210.95)" fill="#fafcff" opacity="0.3"/>
    </g>
    <g id="Gruppe_515" data-name="Gruppe 515" transform="translate(207.883 36.79)" opacity="0.8">
      <path id="Pfad_2386" data-name="Pfad 2386" d="M841.444,82.05a.873.873,0,0,0-1.421,1.012c.162.247.34.483.51.711,2.049,2.768,3.111,6.129,4.025,9.448a4.445,4.445,0,0,1,.187,2.491,15.526,15.526,0,0,0-.425-6.5,39.693,39.693,0,0,0-2.3-6.151A5.553,5.553,0,0,0,841.444,82.05Z" transform="translate(-821.404 -74.663)" fill="#fafcff" opacity="0.5"/>
      <path id="Pfad_2387" data-name="Pfad 2387" d="M794.162,104.188a1.087,1.087,0,0,0-.181,2.165c.362.027.724.036,1.073.047,4.233.115,8.23,1.646,12.085,3.292a5.271,5.271,0,0,1,2.488,1.728,18.19,18.19,0,0,0-6.447-4.568,48.742,48.742,0,0,0-7.6-2.469A6.459,6.459,0,0,0,794.162,104.188Z" transform="translate(-787.422 -90.987)" fill="#fafcff"/>
      <path id="Pfad_2388" data-name="Pfad 2388" d="M797.04,123c-.872.03-.675,1.273.2,1.278.23,0,.461,0,.68-.016a24.768,24.768,0,0,1,8.057,1.438,4.134,4.134,0,0,1,1.813.914,14.513,14.513,0,0,0-4.71-2.417,36.154,36.154,0,0,0-5.125-1.128A4.483,4.483,0,0,0,797.04,123Z" transform="translate(-789.919 -104.634)" fill="#fafcff" opacity="0.2"/>
      <path id="Pfad_2389" data-name="Pfad 2389" d="M862.7,177.141c.247.84,1.4.34,1.188-.513-.055-.222-.121-.442-.184-.653a24.788,24.788,0,0,1-.606-8.165,4.146,4.146,0,0,1,.433-1.981,14.523,14.523,0,0,0-1.172,5.16,35.979,35.979,0,0,0,.178,5.248A4.61,4.61,0,0,0,862.7,177.141Z" transform="translate(-837.706 -135.718)" fill="#fafcff" opacity="0.5"/>
      <path id="Pfad_2390" data-name="Pfad 2390" d="M803.234,78.71c-.524-.091-.565.675-.041.79.137.03.274.055.409.077a15.141,15.141,0,0,1,4.628,1.882,2.547,2.547,0,0,1,.969.776,8.9,8.9,0,0,0-2.508-2.044,22.456,22.456,0,0,0-2.916-1.325A3.051,3.051,0,0,0,803.234,78.71Z" transform="translate(-794.522 -72.494)" fill="#fafcff" opacity="0.2"/>
      <path id="Pfad_2391" data-name="Pfad 2391" d="M773.171,145.748c-1.333.686-.206,2.571,1.163,1.945.359-.165.708-.348,1.043-.521,4.077-2.115,8.809-2.892,13.468-3.492a6.605,6.605,0,0,1,3.418.178,23.192,23.192,0,0,0-8.916-.549,57.842,57.842,0,0,0-8.7,1.874A7.742,7.742,0,0,0,773.171,145.748Z" transform="translate(-772.575 -119.238)" fill="#fafcff"/>
      <path id="Pfad_2392" data-name="Pfad 2392" d="M787.828,161.047c-.96.894.549,1.951,1.542,1.1.274-.225.513-.464.755-.689,2.919-2.743,6.779-4.691,10.623-6.491a24.732,24.732,0,0,1,5.863-.867c-2.708.241-8.23,1.1-10.7,2.195a58.955,58.955,0,0,0-6.974,3.915A7.39,7.39,0,0,0,787.828,161.047Z" transform="translate(-783.42 -127.204)" fill="#fafcff" opacity="0.5"/>
      <path id="Pfad_2393" data-name="Pfad 2393" d="M813.486,178.73c-.274,1.278,1.55,1.3,1.89.019.088-.335.159-.672.228-.993.845-3.915,2.911-7.717,5.051-11.38a24.757,24.757,0,0,1,4.332-4.047c-2.091,1.739-6.159,5.577-7.547,7.9a59.293,59.293,0,0,0-3.514,7.185A7.306,7.306,0,0,0,813.486,178.73Z" transform="translate(-802.242 -133.179)" fill="#fafcff"/>
      <path id="Pfad_2394" data-name="Pfad 2394" d="M858.332,56.675c-.653-1.331-2.519-.236-1.92,1.13.156.357.329.705.5,1.04,2.008,4.066,2.7,8.779,3.218,13.391a6.593,6.593,0,0,1-.228,3.385,23.184,23.184,0,0,0,.664-8.828,58.574,58.574,0,0,0-1.709-8.653A7.639,7.639,0,0,0,858.332,56.675Z" transform="translate(-833.327 -56.072)" fill="#fafcff"/>
      <path id="Pfad_2395" data-name="Pfad 2395" d="M821.633,63.344a.241.241,0,0,0,.112.033c.071,0,.123-.074.154-.14.162-.354.069-.823.321-1.1a3.808,3.808,0,0,1,.609,1.021l.958-.3a1.43,1.43,0,0,1-.181,1.1,1.507,1.507,0,0,1,.45.307.5.5,0,0,1,.118.508,2.432,2.432,0,0,1-.675.066,4.413,4.413,0,0,1-.074,1.259.228.228,0,0,1-.082.159c-.069.047-.162,0-.233-.038a2.23,2.23,0,0,1-.787-.823l-.365.818a.379.379,0,0,1-.159.211.255.255,0,0,1-.3-.1.776.776,0,0,1-.1-.324l-.134-.823a.192.192,0,0,0-.044-.115.206.206,0,0,0-.14-.041h-1.015c-.058-.181.121-.348.294-.422s.379-.134.466-.3c.176-.343-.274-.823-.088-1.114C820.969,62.856,821.336,63.2,821.633,63.344Z" transform="translate(-807.025 -60.475)" fill="#fafcff"/>
      <path id="Pfad_2396" data-name="Pfad 2396" d="M884.014,82.05a.873.873,0,0,1,1.421,1.012c-.164.247-.34.483-.51.711-2.049,2.768-3.111,6.129-4.027,9.448a4.422,4.422,0,0,0-.184,2.491,15.527,15.527,0,0,1,.425-6.5,40.7,40.7,0,0,1,2.3-6.143A5.73,5.73,0,0,1,884.014,82.05Z" transform="translate(-850.918 -74.663)" fill="#fafcff" opacity="0.5"/>
      <path id="Pfad_2397" data-name="Pfad 2397" d="M900.782,104.188a1.087,1.087,0,0,1,.181,2.165c-.359.027-.724.036-1.07.047-4.236.115-8.23,1.646-12.085,3.292a5.191,5.191,0,0,0-2.488,1.728,18.165,18.165,0,0,1,6.447-4.568,48.74,48.74,0,0,1,7.6-2.469A6.461,6.461,0,0,1,900.782,104.188Z" transform="translate(-854.389 -90.987)" fill="#fafcff"/>
      <path id="Pfad_2398" data-name="Pfad 2398" d="M911.852,122.994c.875.03.677,1.273-.2,1.278-.231,0-.461,0-.68-.016a24.754,24.754,0,0,0-8.057,1.438,4.121,4.121,0,0,0-1.813.914,14.516,14.516,0,0,1,4.711-2.417,36.158,36.158,0,0,1,5.139-1.133A4.468,4.468,0,0,1,911.852,122.994Z" transform="translate(-865.84 -104.633)" fill="#fafcff" opacity="0.5"/>
      <path id="Pfad_2399" data-name="Pfad 2399" d="M918.724,78.71c.524-.091.565.675.041.79-.137.03-.274.055-.409.077a15.157,15.157,0,0,0-4.631,1.882,2.538,2.538,0,0,0-.966.776,8.885,8.885,0,0,1,2.5-2.044,22.644,22.644,0,0,1,2.919-1.325A3.046,3.046,0,0,1,918.724,78.71Z" transform="translate(-874.301 -72.494)" fill="#fafcff" opacity="0.2"/>
      <path id="Pfad_2400" data-name="Pfad 2400" d="M882.092,194.687c-.118.521-.84.274-.744-.274.025-.137.058-.274.088-.406a15.164,15.164,0,0,0,.047-5,2.525,2.525,0,0,0-.343-1.191,8.861,8.861,0,0,1,.919,3.1,21.97,21.97,0,0,1,.1,3.2A2.746,2.746,0,0,1,882.092,194.687Z" transform="translate(-851.355 -151.676)" fill="#fafcff" opacity="0.2"/>
      <path id="Pfad_2401" data-name="Pfad 2401" d="M912.088,178.514c.412.7-.6.65-1.042-.047-.115-.181-.222-.365-.324-.549a37.594,37.594,0,0,0-5.07-6.263,7.032,7.032,0,0,0-1.572-1.355,24.965,24.965,0,0,1,4.115,3.52c1.229,1.287,2.315,2.628,3.38,3.967A6.466,6.466,0,0,1,912.088,178.514Z" transform="translate(-868.002 -138.962)" fill="#fafcff" opacity="0.5"/>
      <path id="Pfad_2402" data-name="Pfad 2402" d="M799.885,178.514c-.411.7.6.65,1.04-.047.118-.181.225-.365.326-.549a37.587,37.587,0,0,1,5.07-6.263,6.972,6.972,0,0,1,1.572-1.355,24.842,24.842,0,0,0-4.115,3.52c-1.229,1.287-2.318,2.628-3.38,3.967A6.457,6.457,0,0,0,799.885,178.514Z" transform="translate(-792.322 -138.962)" fill="#fafcff" opacity="0.2"/>
      <path id="Pfad_2403" data-name="Pfad 2403" d="M848.646,194.687c.118.521.84.274.743-.274-.025-.137-.058-.274-.088-.406a15.167,15.167,0,0,1-.047-5,2.523,2.523,0,0,1,.343-1.191,8.87,8.87,0,0,0-.906,3.106,22,22,0,0,0-.1,3.2A2.755,2.755,0,0,0,848.646,194.687Z" transform="translate(-827.725 -151.676)" fill="#fafcff" opacity="0.2"/>
      <path id="Pfad_2404" data-name="Pfad 2404" d="M903.384,97.759c.524-.093.565.672.041.79-.137.03-.274.052-.409.074a15.19,15.19,0,0,0-4.631,1.885,2.524,2.524,0,0,0-.966.774,8.838,8.838,0,0,1,2.507-2.041,21.736,21.736,0,0,1,2.916-1.325A2.649,2.649,0,0,1,903.384,97.759Z" transform="translate(-863.169 -86.317)" fill="#fafcff" opacity="0.2"/>
      <path id="Pfad_2405" data-name="Pfad 2405" d="M890.124,60.213c.453-.274.776.414.332.719-.115.08-.236.151-.349.222a15.08,15.08,0,0,0-3.591,3.479,2.468,2.468,0,0,0-.606,1.078,8.86,8.86,0,0,1,1.561-2.831,22.083,22.083,0,0,1,2.211-2.318A2.865,2.865,0,0,1,890.124,60.213Z" transform="translate(-854.817 -59.031)" fill="#fafcff" opacity="0.2"/>
      <path id="Pfad_2406" data-name="Pfad 2406" d="M913.582,145.748c1.333.686.206,2.571-1.163,1.945-.359-.165-.711-.348-1.042-.521-4.077-2.115-8.812-2.892-13.468-3.492a6.6,6.6,0,0,0-3.418.178,23.187,23.187,0,0,1,8.916-.549,57.845,57.845,0,0,1,8.7,1.874A7.806,7.806,0,0,1,913.582,145.748Z" transform="translate(-861.043 -119.238)" fill="#fafcff"/>
      <path id="Pfad_2407" data-name="Pfad 2407" d="M900.512,161.047c.957.894-.549,1.951-1.545,1.1-.261-.225-.513-.464-.752-.689-2.922-2.743-6.782-4.691-10.623-6.491a24.754,24.754,0,0,0-5.863-.867c2.708.241,8.23,1.1,10.7,2.195a58.99,58.99,0,0,1,6.977,3.915,7.393,7.393,0,0,1,1.105.839Z" transform="translate(-851.784 -127.204)" fill="#fafcff" opacity="0.5"/>
      <path id="Pfad_2408" data-name="Pfad 2408" d="M884.248,180.589c.118,1.3-1.7,1.1-1.879-.217-.047-.343-.074-.686-.1-1.015-.348-3.989-1.92-8.019-3.586-11.923a24.7,24.7,0,0,0-3.791-4.554c1.857,1.986,5.413,6.31,6.5,8.779a59.061,59.061,0,0,1,2.584,7.566A7.537,7.537,0,0,1,884.248,180.589Z" transform="translate(-846.82 -133.578)" fill="#fafcff"/>
      <path id="Pfad_2409" data-name="Pfad 2409" d="M906.211,63.344a.241.241,0,0,1-.112.033c-.074,0-.123-.074-.154-.14-.165-.354-.069-.823-.321-1.1a3.812,3.812,0,0,0-.609,1.021l-.957-.3a1.418,1.418,0,0,0,.181,1.1,1.521,1.521,0,0,0-.453.307.5.5,0,0,0-.115.508,2.423,2.423,0,0,0,.675.066,4.514,4.514,0,0,0,.071,1.259.239.239,0,0,0,.082.159c.071.047.165,0,.236-.038a2.231,2.231,0,0,0,.787-.823l.357.85a.368.368,0,0,0,.159.211.25.25,0,0,0,.3-.1.744.744,0,0,0,.107-.324l.132-.823a.213.213,0,0,1,.047-.115.206.206,0,0,1,.14-.041h1.015c.058-.181-.123-.348-.3-.422s-.376-.134-.464-.3c-.176-.343.274-.823.085-1.114C906.878,62.856,906.51,63.2,906.211,63.344Z" transform="translate(-867.686 -60.475)" fill="#fafcff"/>
      <path id="Pfad_2410" data-name="Pfad 2410" d="M916.752,207.088a.242.242,0,0,1-.113.033c-.074,0-.123-.071-.154-.137-.162-.357-.069-.823-.321-1.114a3.855,3.855,0,0,0-.609,1.021l-.957-.3a1.429,1.429,0,0,0,.181,1.1,1.5,1.5,0,0,0-.45.307.5.5,0,0,0-.118.508,2.434,2.434,0,0,0,.675.069,4.383,4.383,0,0,0,.074,1.257.233.233,0,0,0,.082.162c.069.044.162,0,.233-.041a2.231,2.231,0,0,0,.787-.823l.357.85a.4.4,0,0,0,.159.214.275.275,0,0,0,.3-.1.777.777,0,0,0,.1-.324l.134-.809a.148.148,0,0,1,.184-.154c.337,0,.678-.014,1.015,0,.058-.181-.121-.346-.294-.422s-.379-.132-.466-.3c-.176-.34.274-.823.088-1.111C917.427,206.6,917.048,206.943,916.752,207.088Z" transform="translate(-875.335 -164.774)" fill="#fafcff" opacity="0.2"/>
      <path id="Pfad_2411" data-name="Pfad 2411" d="M946.34,110.708a.217.217,0,0,1-.115.033c-.071,0-.121-.071-.151-.137-.165-.354-.071-.823-.321-1.114a3.842,3.842,0,0,0-.609,1.023l-.957-.3a1.416,1.416,0,0,0,.181,1.1,1.485,1.485,0,0,0-.453.307.51.51,0,0,0-.118.508,2.452,2.452,0,0,0,.677.069,4.488,4.488,0,0,0,.071,1.257.244.244,0,0,0,.082.162c.071.044.162,0,.233-.038a2.243,2.243,0,0,0,.79-.823l.354.85a.385.385,0,0,0,.159.214.258.258,0,0,0,.3-.1.729.729,0,0,0,.107-.324l.132-.823a.217.217,0,0,1,.044-.112.2.2,0,0,1,.143-.041H947.9c.06-.178-.121-.346-.293-.423s-.379-.132-.464-.3c-.176-.343.274-.823.085-1.114C947,110.22,946.633,110.563,946.34,110.708Z" transform="translate(-896.805 -94.835)" fill="#fafcff"/>
      <path id="Pfad_2412" data-name="Pfad 2412" d="M825.381,220.245a.323.323,0,0,1-.156.047c-.1,0-.173-.1-.214-.195-.228-.491-.1-1.133-.447-1.547a5.334,5.334,0,0,0-.848,1.421l-1.336-.412a2,2,0,0,0,.252,1.528,2.028,2.028,0,0,0-.628.428.7.7,0,0,0-.165.705,3.429,3.429,0,0,0,.944.1,6.169,6.169,0,0,0,.1,1.753.329.329,0,0,0,.113.222.315.315,0,0,0,.326-.055,3.082,3.082,0,0,0,1.1-1.163l.5,1.185a.522.522,0,0,0,.222.3.357.357,0,0,0,.417-.143,1.062,1.062,0,0,0,.145-.45l.187-1.128a.275.275,0,0,1,.06-.162.288.288,0,0,1,.2-.055c.472,0,.944-.019,1.413,0,.082-.252-.17-.483-.409-.59s-.527-.184-.647-.417c-.247-.477.39-1.141.118-1.553C826.305,219.565,825.792,220.045,825.381,220.245Z" transform="translate(-808.299 -173.975)" fill="#fafcff"/>
      <path id="Pfad_2413" data-name="Pfad 2413" d="M776.168,112.318a.335.335,0,0,1-.159.047c-.1,0-.17-.1-.214-.195-.225-.494-.1-1.133-.444-1.55a5.358,5.358,0,0,0-.851,1.424l-1.333-.414a1.978,1.978,0,0,0,.252,1.531,1.993,1.993,0,0,0-.628.428.691.691,0,0,0-.165.705,3.407,3.407,0,0,0,.944.093,6.248,6.248,0,0,0,.1,1.753.32.32,0,0,0,.115.225c.1.063.225,0,.326-.055a3.1,3.1,0,0,0,1.1-1.163l.5,1.185a.548.548,0,0,0,.219.3.357.357,0,0,0,.417-.143,1.064,1.064,0,0,0,.148-.45l.184-1.13a.294.294,0,0,1,.063-.159.274.274,0,0,1,.2-.055c.469,0,.941-.019,1.413-.016.08-.25-.17-.483-.411-.587s-.527-.187-.647-.42c-.244-.477.39-1.139.121-1.55C777.092,111.638,776.579,112.112,776.168,112.318Z" transform="translate(-772.586 -95.655)" fill="#fafcff"/>
      <path id="Pfad_2414" data-name="Pfad 2414" d="M929.98,181.26a.151.151,0,0,1-.082.025c-.055,0-.091-.055-.115-.1-.121-.274-.049-.6-.236-.823a2.761,2.761,0,0,0-.45.754l-.711-.22a1.043,1.043,0,0,0,.135.823,1.13,1.13,0,0,0-.335.228.376.376,0,0,0-.085.376,1.922,1.922,0,0,0,.5.049,3.2,3.2,0,0,0,.055.93.173.173,0,0,0,.06.121c.052.033.121,0,.173-.03a1.645,1.645,0,0,0,.582-.617l.274.628a.3.3,0,0,0,.118.159.192.192,0,0,0,.222-.077.548.548,0,0,0,.077-.239l.1-.6a.11.11,0,0,1,.137-.112h.752c.044-.134-.091-.258-.217-.313a.66.66,0,0,1-.346-.222c-.129-.255.209-.606.063-.823S930.189,181.153,929.98,181.26Z" transform="translate(-885.419 -146.262)" fill="#fafcff" opacity="0.2"/>
      <path id="Pfad_2415" data-name="Pfad 2415" d="M863.083,219.853a.161.161,0,0,1-.085.025c-.052,0-.091-.055-.113-.1-.121-.261-.052-.6-.236-.823a2.832,2.832,0,0,0-.453.757l-.708-.219a1.045,1.045,0,0,0,.134.823,1.081,1.081,0,0,0-.335.228.37.37,0,0,0-.088.376,1.92,1.92,0,0,0,.5.049,3.3,3.3,0,0,0,.052.93.17.17,0,0,0,.061.118c.052.036.121,0,.173-.027a1.647,1.647,0,0,0,.584-.617l.274.628a.294.294,0,0,0,.118.159.192.192,0,0,0,.222-.077.549.549,0,0,0,.077-.239l.1-.6a.153.153,0,0,1,.033-.085.173.173,0,0,1,.1-.03h.752c.041-.134-.09-.258-.219-.313a.633.633,0,0,1-.343-.222c-.132-.255.206-.606.063-.823S863.3,219.743,863.083,219.853Z" transform="translate(-836.873 -174.265)" fill="#fafcff" opacity="0.2"/>
      <path id="Pfad_2416" data-name="Pfad 2416" d="M798.384,84.76a.159.159,0,0,1-.082.025.148.148,0,0,1-.115-.1c-.121-.274-.052-.6-.236-.823a2.811,2.811,0,0,0-.453.754l-.708-.219a1.054,1.054,0,0,0,.134.823,1.074,1.074,0,0,0-.335.225.373.373,0,0,0-.088.376,1.727,1.727,0,0,0,.5.049,3.321,3.321,0,0,0,.052.933.172.172,0,0,0,.063.118c.052.033.118,0,.173-.027a1.647,1.647,0,0,0,.582-.62l.274.631a.275.275,0,0,0,.118.156.192.192,0,0,0,.222-.077.55.55,0,0,0,.077-.239l.1-.6a.152.152,0,0,1,.033-.085.142.142,0,0,1,.1-.03h.752c.041-.132-.09-.255-.219-.313s-.274-.1-.343-.222c-.132-.252.208-.606.063-.823S798.6,84.653,798.384,84.76Z" transform="translate(-789.924 -76.237)" fill="#fafcff" opacity="0.5"/>
      <path id="Pfad_2417" data-name="Pfad 2417" d="M832.82,160.89a.145.145,0,0,1-.082.025c-.055,0-.09-.052-.112-.1-.121-.274-.052-.6-.239-.823a2.878,2.878,0,0,0-.45.754l-.711-.219a1.068,1.068,0,0,0,.134.823,1.1,1.1,0,0,0-.332.228.37.37,0,0,0-.088.376,1.806,1.806,0,0,0,.5.049,3.324,3.324,0,0,0,.055.933.169.169,0,0,0,.06.118c.052.033.121,0,.173-.03a1.646,1.646,0,0,0,.584-.617l.274.628a.274.274,0,0,0,.118.159.187.187,0,0,0,.219-.077.548.548,0,0,0,.08-.239l.1-.6a.132.132,0,0,1,.036-.091.134.134,0,0,1,.1-.03h.749c.044-.132-.088-.258-.217-.313a.632.632,0,0,1-.343-.222c-.132-.252.206-.606.063-.823S833.039,160.783,832.82,160.89Z" transform="translate(-814.915 -131.481)" fill="#fafcff" opacity="0.5"/>
      <path id="Pfad_2418" data-name="Pfad 2418" d="M807.83,131.213a.206.206,0,0,1-.082.025.153.153,0,0,1-.112-.1c-.121-.261-.052-.6-.239-.823a2.819,2.819,0,0,0-.45.757l-.711-.219a1.072,1.072,0,0,0,.134.823,1.074,1.074,0,0,0-.335.225.376.376,0,0,0-.085.376,1.7,1.7,0,0,0,.5.049,3.32,3.32,0,0,0,.055.933.169.169,0,0,0,.06.118c.052.033.121,0,.173-.027a1.669,1.669,0,0,0,.584-.62l.274.631a.274.274,0,0,0,.115.156.192.192,0,0,0,.222-.077.547.547,0,0,0,.079-.239l.1-.6a.155.155,0,0,1,.033-.085.145.145,0,0,1,.107-.03H809c.044-.132-.091-.255-.217-.313s-.274-.1-.346-.222c-.129-.252.208-.606.066-.823S808.05,131.1,807.83,131.213Z" transform="translate(-796.781 -109.943)" fill="#fafcff" opacity="0.5"/>
      <path id="Pfad_2419" data-name="Pfad 2419" d="M915.17,138.2a.145.145,0,0,1-.082.025c-.055,0-.091-.052-.113-.1-.121-.274-.052-.6-.239-.823a2.8,2.8,0,0,0-.45.754l-.711-.219a1.068,1.068,0,0,0,.134.823,1.131,1.131,0,0,0-.335.228.376.376,0,0,0-.085.376,1.8,1.8,0,0,0,.5.049,3.315,3.315,0,0,0,.055.933.17.17,0,0,0,.06.118c.052.033.121,0,.173-.03a1.645,1.645,0,0,0,.584-.617l.274.628a.275.275,0,0,0,.118.159.189.189,0,0,0,.219-.077.549.549,0,0,0,.08-.239l.1-.6a.11.11,0,0,1,.137-.115h.749c.044-.132-.091-.258-.217-.313a.66.66,0,0,1-.346-.222c-.129-.252.208-.606.066-.823S915.392,138.093,915.17,138.2Z" transform="translate(-874.673 -115.016)" fill="#fafcff" opacity="0.5"/>
      <path id="Pfad_2420" data-name="Pfad 2420" d="M863.084,132.36a.162.162,0,0,1-.085.025c-.052,0-.09-.052-.112-.1-.121-.274-.052-.6-.236-.823a2.814,2.814,0,0,0-.453.754l-.708-.219a1.054,1.054,0,0,0,.135.823,1.074,1.074,0,0,0-.335.225.373.373,0,0,0-.088.376,1.718,1.718,0,0,0,.5.049,3.324,3.324,0,0,0,.052.933.183.183,0,0,0,.06.118c.052.033.121,0,.173-.027a1.646,1.646,0,0,0,.584-.62l.274.631a.274.274,0,0,0,.118.156.192.192,0,0,0,.222-.077.548.548,0,0,0,.077-.239l.1-.6a.152.152,0,0,1,.033-.085.143.143,0,0,1,.1-.03h.752c.041-.132-.09-.255-.219-.313s-.274-.1-.343-.222c-.132-.252.206-.606.063-.823S863.3,132.253,863.084,132.36Z" transform="translate(-836.874 -110.778)" fill="#fafcff" opacity="0.2"/>
      <path id="Pfad_2421" data-name="Pfad 2421" d="M846.74,139.473a.206.206,0,0,1-.082.025.154.154,0,0,1-.113-.1c-.121-.274-.052-.6-.239-.823a2.779,2.779,0,0,0-.45.757l-.711-.222a1.075,1.075,0,0,0,.135.823,1.07,1.07,0,0,0-.335.225.376.376,0,0,0-.085.376,1.7,1.7,0,0,0,.5.049,3.331,3.331,0,0,0,.055.933.171.171,0,0,0,.06.118c.052.033.121,0,.173-.027a1.668,1.668,0,0,0,.584-.62l.274.631a.275.275,0,0,0,.118.156.189.189,0,0,0,.219-.077.548.548,0,0,0,.079-.239l.1-.6a.152.152,0,0,1,.03-.085.145.145,0,0,1,.107-.03h.749c.044-.132-.091-.255-.217-.313s-.274-.1-.346-.222c-.129-.252.209-.606.066-.823S846.96,139.363,846.74,139.473Z" transform="translate(-825.016 -115.937)" fill="#fafcff" opacity="0.3"/>
      <path id="Pfad_2422" data-name="Pfad 2422" d="M831.5,96.44a.162.162,0,0,1-.085.025c-.052,0-.091-.052-.113-.1-.121-.274-.052-.6-.236-.823a2.818,2.818,0,0,0-.453.754l-.708-.219a1.042,1.042,0,0,0,.135.823,1.129,1.129,0,0,0-.335.228.371.371,0,0,0-.088.376,1.829,1.829,0,0,0,.5.049,3.335,3.335,0,0,0,.052.933.184.184,0,0,0,.06.118c.052.033.121,0,.173-.03a1.618,1.618,0,0,0,.584-.617l.274.628a.3.3,0,0,0,.118.159.192.192,0,0,0,.222-.077.549.549,0,0,0,.077-.239l.1-.6a.148.148,0,0,1,.033-.085.143.143,0,0,1,.1-.03h.752c.041-.134-.09-.258-.219-.313a.633.633,0,0,1-.343-.222c-.132-.255.206-.606.063-.823S831.722,96.333,831.5,96.44Z" transform="translate(-813.957 -84.712)" fill="#fafcff" opacity="0.2"/>
      <path id="Pfad_2423" data-name="Pfad 2423" d="M861.514,152.613a.235.235,0,0,1-.085.025c-.052,0-.091-.055-.113-.1-.121-.261-.052-.6-.236-.823a2.829,2.829,0,0,0-.453.757l-.708-.219a1.048,1.048,0,0,0,.134.823,1.073,1.073,0,0,0-.335.225.373.373,0,0,0-.088.376,1.725,1.725,0,0,0,.5.049,3.324,3.324,0,0,0,.052.933.183.183,0,0,0,.06.118c.052.033.121,0,.176-.027a1.66,1.66,0,0,0,.582-.62l.274.631a.275.275,0,0,0,.118.156.192.192,0,0,0,.222-.077.549.549,0,0,0,.077-.239l.1-.6a.153.153,0,0,1,.033-.085.143.143,0,0,1,.1-.03h.752c.041-.132-.091-.255-.219-.313s-.274-.1-.343-.222c-.132-.252.206-.606.063-.823S861.733,152.5,861.514,152.613Z" transform="translate(-835.735 -125.472)" fill="#fafcff" opacity="0.3"/>
    </g>
    <path id="Pfad_2424" data-name="Pfad 2424" d="M885.79,685.827a6.773,6.773,0,0,0,.9-3.44c0-3.108-1.92-5.627-4.3-5.627s-4.3,2.519-4.3,5.627a6.771,6.771,0,0,0,.9,3.44,7.045,7.045,0,0,0,0,6.881,7.044,7.044,0,0,0,0,6.88,7.045,7.045,0,0,0,0,6.881,6.782,6.782,0,0,0-.9,3.44c0,3.108,1.92,5.63,4.3,5.63s4.3-2.521,4.3-5.63a6.78,6.78,0,0,0-.9-3.44,7.045,7.045,0,0,0,0-6.881,7.045,7.045,0,0,0,0-6.88A7.046,7.046,0,0,0,885.79,685.827Z" transform="translate(-650.725 -498.949)" fill="#3f3d56"/>
    <ellipse id="Ellipse_237" data-name="Ellipse 237" cx="4.299" cy="5.63" rx="4.299" ry="5.63" transform="translate(227.364 170.931)" fill="#3f3d56"/>
    <ellipse id="Ellipse_238" data-name="Ellipse 238" cx="4.299" cy="5.63" rx="4.299" ry="5.63" transform="translate(227.364 164.05)" fill="#3f3d56"/>
    <path id="Pfad_2425" data-name="Pfad 2425" d="M823.429,387.193a20.574,20.574,0,0,1-1.6-2.357l11.3-1.857-12.219.09a20.637,20.637,0,0,1-.392-16.315l16.392,8.5-15.119-11.119a20.6,20.6,0,1,1,34.019,23.045,20.7,20.7,0,0,1,2.348,3.756l-14.664,7.638,15.638-5.248a20.62,20.62,0,0,1-3.319,19.344,20.6,20.6,0,1,1-32.373,0,20.609,20.609,0,0,1,0-25.47Z" transform="translate(-607.865 -264.596)" fill="#fafcff"/>
    <path id="Pfad_2426" data-name="Pfad 2426" d="M860.219,521.117a20.517,20.517,0,0,1-4.406,12.735,20.6,20.6,0,1,1-32.373,0C820.667,530.346,860.219,518.8,860.219,521.117Z" transform="translate(-607.868 -385.785)" opacity="0.1"/>
    <path id="Pfad_2427" data-name="Pfad 2427" d="M310.815,691.7a7.179,7.179,0,0,0,.952-3.643c0-3.292-2.038-5.962-4.554-5.962s-4.554,2.669-4.554,5.962a7.179,7.179,0,0,0,.952,3.643,7.448,7.448,0,0,0,0,7.287,7.449,7.449,0,0,0,0,7.287,7.443,7.443,0,0,0,0,7.284,7.2,7.2,0,0,0-.952,3.643c0,3.292,2.038,5.961,4.554,5.961s4.554-2.669,4.554-5.961a7.2,7.2,0,0,0-.952-3.643,7.443,7.443,0,0,0,0-7.284,7.448,7.448,0,0,0,0-7.287A7.448,7.448,0,0,0,310.815,691.7Z" transform="translate(-233.162 -502.824)" fill="#3f3d56"/>
    <ellipse id="Ellipse_239" data-name="Ellipse 239" cx="4.554" cy="5.962" rx="4.554" ry="5.962" transform="translate(69.497 171.992)" fill="#3f3d56"/>
    <ellipse id="Ellipse_240" data-name="Ellipse 240" cx="4.554" cy="5.962" rx="4.554" ry="5.962" transform="translate(69.497 164.706)" fill="#3f3d56"/>
    <path id="Pfad_2428" data-name="Pfad 2428" d="M278.385,375.7a22.183,22.183,0,0,0,1.7-2.5l-11.956-1.97,12.941.1a21.849,21.849,0,0,0,.417-17.284l-17.372,9.007,16.011-11.769A21.813,21.813,0,1,0,244.095,375.7a21.7,21.7,0,0,0-2.486,3.978l15.542,8.063-16.562-5.558a21.835,21.835,0,0,0,3.517,20.483,21.813,21.813,0,1,0,34.293,0,21.819,21.819,0,0,0,0-26.971Z" transform="translate(-187.286 -254.889)" fill="#fafcff"/>
    <path id="Pfad_2429" data-name="Pfad 2429" d="M239.392,517.289a21.728,21.728,0,0,0,4.664,13.484,21.813,21.813,0,1,0,34.293,0C281.271,527.061,239.392,514.839,239.392,517.289Z" transform="translate(-187.25 -382.994)" opacity="0.1"/>
    <ellipse id="Ellipse_241" data-name="Ellipse 241" cx="123.669" cy="7.278" rx="123.669" ry="7.278" transform="translate(27.402 212.343)" fill="#3f3d56"/>
    <path id="Pfad_2430" data-name="Pfad 2430" d="M558.871,691.336a.48.48,0,0,0-.329.291h-.052l-.2-.033s-1.064-.088-1.262-.074a.4.4,0,0,1-.324-.184l-.793-.669-.06-.052.14-.049s-2.126-2.639-2.584-2.691a3.5,3.5,0,0,1-1.224-.675v-.041c-.016-.088-.027-.178-.038-.274l.113.069h0v-.093h0a1.711,1.711,0,0,1,.318-.905,4.263,4.263,0,0,0,.68-.9,1.324,1.324,0,0,0,.069-.475,1.569,1.569,0,0,0-.22-.823,1.039,1.039,0,0,0-.7-.48.581.581,0,0,1-.225-.03c-.444-.1-.606-.7-1.037-.845a.881.881,0,0,0-.617.063c-.195.082-.368.2-.549.3a3.564,3.564,0,0,0-.576.294l-.055.047h0l-.036.033h0a1.2,1.2,0,0,0-.184.241v.014a.035.035,0,0,1-.014.027v.181a.078.078,0,0,1,0,.022v.03a.051.051,0,0,0,0,.022.1.1,0,0,0,0,.03v.052a.036.036,0,0,1,0,.016v.047h0a.963.963,0,0,0,.206.291l-.025.025a1.871,1.871,0,0,0-.576,1.353,1.906,1.906,0,0,0,.03.335,1.765,1.765,0,0,0-.313-.189,2.742,2.742,0,0,0-1.169-.274,8.126,8.126,0,0,1-1.589-.255.67.67,0,0,1,.052.143l-.132-.074a3.884,3.884,0,0,0-1.24-.417s-.274.038-.31-.549a2.49,2.49,0,0,0-.1-.532,9.269,9.269,0,0,1-.442-1.613l-.088-.853a10.66,10.66,0,0,0,.165-3.152.656.656,0,0,0-.23-.763c-1.043-.768-2.1,2.225-2.1,2.225l-.392.379a.839.839,0,0,0-.332-.126,1.851,1.851,0,0,0-.357.8,3.929,3.929,0,0,1-1.1,1.254c-.34.3-.669.609-1,.919a3.751,3.751,0,0,1-1.964.746l-.508.082a1.566,1.566,0,0,0,.06-.428,1.6,1.6,0,0,0-1.259-1.558.4.4,0,0,0,0-.115.475.475,0,0,0-.121-.217,2.293,2.293,0,0,0-.886-.768,1.152,1.152,0,0,0-.48-.077h-.118a1.227,1.227,0,0,0-.9.466c-.132.178-.211.387-.326.576a2.589,2.589,0,0,1-.894.823c-.211.126-.436.239-.636.384a2.39,2.39,0,0,0-.883,2.384,3.6,3.6,0,0,1,.206,1.152,1.984,1.984,0,0,1-.365.823,2.637,2.637,0,0,0-.406.823.807.807,0,0,0,.252.823,1.983,1.983,0,0,1,.274.186.911.911,0,0,1,.129.2,2.022,2.022,0,0,0,1.254.974.826.826,0,0,0,.258.027h.027a.431.431,0,0,0,.466-.214.452.452,0,0,1,.044-.115.135.135,0,0,1,.077-.052.62.62,0,0,1,.184.069,2.331,2.331,0,0,0,.886.25.984.984,0,0,0,.156,0,.69.69,0,0,0,.318-.044.666.666,0,0,0,.244-.211l.041-.055a4.465,4.465,0,0,1-.4,1.24,2.264,2.264,0,0,0-.3,1.084,1.075,1.075,0,0,0,.121.571l.03-.06a4.349,4.349,0,0,0,.6.823,5.8,5.8,0,0,1-.058,1.287,2.661,2.661,0,0,0,1.018,2.93l.337.741-1.391.1c-.14-.019-1.962-.274-1.97.091s.274,3.978,1.218,3.734c.881-.228.59-1.281.549-1.421h0l.7-.667a.3.3,0,0,0-.052-.23h0l1.7.077.4.872a1.918,1.918,0,0,1,.129,1.9,8.816,8.816,0,0,0-1.21,3.045,3.352,3.352,0,0,1-.752,1.553c-.318.11-1.539.587-1.054,1.314.549.823,2.373,2.414,3.106,2.359s.439-.587.439-.587l-.612-.6a14.747,14.747,0,0,1-.066-1.646.379.379,0,0,0-.274-.389,4.125,4.125,0,0,1,.516-1.627c.442-.606,1.852-3.27,1.852-3.27s.447-.4.348-1.583c-.041-.477-.063-.9-.077-1.229l1.6.071s1.712-.17.549-2.005a16.875,16.875,0,0,0-3.635-3.635l-.022-1.136.178.044a.373.373,0,0,0-.027-.115h.027a24.355,24.355,0,0,1-.453-2.752l.1.047c1.062,1.229,1.778.189,1.778.189s2.244-3.152,2.024-3.018a.189.189,0,0,1-.148,0l.162-.516a1.1,1.1,0,0,0-.3-1.583c-.785-.464-.766.993-.73,1.544l-.038-.036s-.752,1.13-1.155,1.764-.741.217-.741.217l-.51-.573a2.034,2.034,0,0,0,.121-.719,1.213,1.213,0,0,0-.346-.93,1.624,1.624,0,0,1-.513-1.078,1.132,1.132,0,0,1,.1-.442l2.647-1.4s.549,0,1.309-1.147a19.813,19.813,0,0,1,1.6-2.115l-.044-.06.044-.049s-.03-.044-.085-.112l.409-.472a6.2,6.2,0,0,0,0,.639l.208.716.121,3.975s-.129.381.7.76c.7.321,1.8.864,2.123,1.021a.475.475,0,0,1-.019.047h.1a1.365,1.365,0,0,1,1.556,1.462s.11,3.273-.384,4.411a6.5,6.5,0,0,0-.422,2.549s.049-.239.326.074l-.019.088c-.156.79-.483,2.469-.549,3.147a11.041,11.041,0,0,1-.357,1.835l-.165,3.018,1.031.049v.107a.329.329,0,0,1-.173.274c-.354.192-1.185.864-1.119,2.933l-.036.34a4.215,4.215,0,0,1-.5,1.608,1.047,1.047,0,0,0-.063.121.1.1,0,0,1,.027-.058s-.535.11-.425,1.556.274,1.7.494,1.717,1.292.274,1.237-.252a9.652,9.652,0,0,1-.036-1.9c.074-.181.362-.667.085-.785h0a4.093,4.093,0,0,0,.115-1.012,6.629,6.629,0,0,1,.925-1.166,2.615,2.615,0,0,0,.733-1.547c0-.044,1.136-.8.971-1.418q-.041-.159-.066-.274a.209.209,0,0,0-.019-.11h.022l.228-1.372v1.339l.137.016v.11l-.058,1.281a2.081,2.081,0,0,1-.165.727,7.133,7.133,0,0,0-.568,3.235l-.014,1.232c-.038,0-.6.14-.491,1.536.11,1.446.274,1.7.494,1.717s1.292.274,1.237-.252a9.916,9.916,0,0,1-.038-1.9c.071-.181.2-.658-.077-.776a1.024,1.024,0,0,1,.115-.464c.121-.206.524-1.182.823-1.934a6.956,6.956,0,0,0,.51-2.39v-.027a2.25,2.25,0,0,1,.176-.8,5.691,5.691,0,0,0,.294-.886.2.2,0,0,1,.019-.1l.261.033.9-3.885a18.839,18.839,0,0,0,.126-3.059.243.243,0,0,0-.016-.11h.055a8.184,8.184,0,0,0,.129-2.469,5.1,5.1,0,0,1,.365-2.639c.228-.721.48-.963.625-1.045h0a.3.3,0,0,1,.126-.041l.68.779h0l.126.143h0l.058.063a.56.56,0,0,1,0-.1c.362.211,1.2.7,1.7,1.056a1.542,1.542,0,0,0,1.4.359,3.781,3.781,0,0,0,1.128-.37h.028a1.368,1.368,0,0,0,.274.107s.922.779,1.01-.645S558.871,691.336,558.871,691.336Zm-23.9,16.579a1.4,1.4,0,0,1-.274-.112Zm-1.44-15.413v.2h0A1.62,1.62,0,0,1,533.535,692.5Zm14.4,18.046v.08C547.919,710.587,547.911,710.587,547.936,710.548Z" transform="translate(-397.101 -499.239)" fill="url(#linear-gradient)"/>
    <rect id="Rechteck_1775" data-name="Rechteck 1775" width="1.564" height="1.643" transform="translate(152.212 187.622)" fill="#fafcff"/>
    <path id="Pfad_2431" data-name="Pfad 2431" d="M588.892,775.363a2.6,2.6,0,0,1-.719,1.536,6.634,6.634,0,0,0-.908,1.158,2.346,2.346,0,0,1-.3,1.465l-.3.082H585.9a3.5,3.5,0,0,1-.162-.6.69.69,0,0,1,.118-.335,4.232,4.232,0,0,0,.494-1.6l.033-.332c-.063-2.057.752-2.727,1.1-2.916a.334.334,0,0,0,.17-.274h0l.06-.587,2.03.1a1.643,1.643,0,0,0,.036.593,1.3,1.3,0,0,0,.063.288C590.006,774.573,588.9,775.317,588.892,775.363Z" transform="translate(-438.581 -568.757)" fill="#a0616a"/>
    <path id="Pfad_2432" data-name="Pfad 2432" d="M601.863,774.533a5.134,5.134,0,0,1-.274.878,2.3,2.3,0,0,0-.173.8v.027a7,7,0,0,1-.5,2.376c-.3.746-.694,1.717-.823,1.92a1.581,1.581,0,0,0-.08.916l-1.144-.08.019-1.92a7.15,7.15,0,0,1,.549-3.215,2.119,2.119,0,0,0,.159-.721l.058-1.276.016-.376s2.022-.288,2.195.17A1,1,0,0,1,601.863,774.533Z" transform="translate(-448.109 -569.348)" fill="#a0616a"/>
    <path id="Pfad_2433" data-name="Pfad 2433" d="M588.892,775.363a2.6,2.6,0,0,1-.719,1.536,6.634,6.634,0,0,0-.908,1.158,2.346,2.346,0,0,1-.3,1.465l-.3.082H585.9a3.5,3.5,0,0,1-.162-.6.69.69,0,0,1,.118-.335,4.232,4.232,0,0,0,.494-1.6l.033-.332c-.063-2.057.752-2.727,1.1-2.916a.334.334,0,0,0,.17-.274h0l.06-.587,2.03.1a1.643,1.643,0,0,0,.036.593,1.3,1.3,0,0,0,.063.288C590.006,774.573,588.9,775.317,588.892,775.363Z" transform="translate(-438.581 -568.757)" fill="#8e5362"/>
    <path id="Pfad_2434" data-name="Pfad 2434" d="M601.863,774.533a5.134,5.134,0,0,1-.274.878,2.3,2.3,0,0,0-.173.8v.027a7,7,0,0,1-.5,2.376c-.3.746-.694,1.717-.823,1.92a1.581,1.581,0,0,0-.08.916l-1.144-.08.019-1.92a7.15,7.15,0,0,1,.549-3.215,2.119,2.119,0,0,0,.159-.721l.058-1.276.016-.376s2.022-.288,2.195.17A1,1,0,0,1,601.863,774.533Z" transform="translate(-448.109 -569.348)" fill="#8e5362"/>
    <path id="Pfad_2435" data-name="Pfad 2435" d="M594.846,773.7l-2.126-.1.06-.587,2.03.1A1.645,1.645,0,0,0,594.846,773.7Z" transform="translate(-443.646 -568.793)" opacity="0.1"/>
    <path id="Pfad_2436" data-name="Pfad 2436" d="M603.975,774.526l-2.195-.3.016-.376s2.022-.288,2.195.17A1,1,0,0,1,603.975,774.526Z" transform="translate(-450.221 -569.34)" opacity="0.1"/>
    <path id="Pfad_2437" data-name="Pfad 2437" d="M595.917,749.073l-.881,3.863-2.606-.351v-1.328l-.225,1.372-3.125-.154.162-2.993a11.047,11.047,0,0,0,.348-1.822c.06-.677.381-2.346.549-3.127.049-.274.082-.422.082-.422s5.355,1.114,5.706,1.517a.865.865,0,0,1,.123.411A19.628,19.628,0,0,1,595.917,749.073Z" transform="translate(-441.005 -547.822)" fill="#2f2e41"/>
    <path id="Pfad_2438" data-name="Pfad 2438" d="M591.21,760.732s2.107-1.1,2.62-.872Z" transform="translate(-442.551 -559.228)" opacity="0.1"/>
    <path id="Pfad_2439" data-name="Pfad 2439" d="M595.4,750s1.75,1.331,1.805,1.69Z" transform="translate(-445.591 -552.096)" opacity="0.1"/>
    <path id="Pfad_2440" data-name="Pfad 2440" d="M593.66,766.642a3.622,3.622,0,0,1,1.671.274Z" transform="translate(-444.329 -564.17)" opacity="0.1"/>
    <path id="Pfad_2441" data-name="Pfad 2441" d="M601.5,761.47s.6,1.97.34,2.51-.529-.126-.529-.126Z" transform="translate(-449.88 -560.419)" opacity="0.1"/>
    <path id="Pfad_2442" data-name="Pfad 2442" d="M597.58,798.92s-.6.091-.486,1.528.274,1.687.486,1.706,1.265.274,1.213-.252a9.729,9.729,0,0,1-.036-1.885c.074-.178.195-.656-.077-.774l-.06.274s-.573-.529-.916-.143a1.44,1.44,0,0,0-.069-.274C597.607,799.016,597.525,798.972,597.58,798.92Z" transform="translate(-446.811 -587.595)" fill="#2f2e41"/>
    <path id="Pfad_2443" data-name="Pfad 2443" d="M626.157,728.455s-.134.074-.335.17a3.726,3.726,0,0,1-1.1.368,1.507,1.507,0,0,1-1.372-.357c-.491-.351-1.314-.842-1.671-1.051l-.156-.093h-.016l.3-.823,1.051-.549.274.225.776.667a.384.384,0,0,0,.316.181c.195-.014,1.24.074,1.24.074l.2.033.417.069Z" transform="translate(-464.538 -534.767)" fill="#a0616a"/>
    <path id="Pfad_2444" data-name="Pfad 2444" d="M636.525,731.524s-.134.074-.335.17c-.211-.107-.472-.31-.37-.642s.115-.535.189-.7l.417.069Z" transform="translate(-474.906 -537.837)" opacity="0.1"/>
    <path id="Pfad_2445" data-name="Pfad 2445" d="M636.524,729.227s1.172-.337,1.084,1.078-.99.639-.99.639-.768-.2-.606-.733S636.126,729.356,636.524,729.227Z" transform="translate(-475.044 -536.996)" fill="#a0616a"/>
    <path id="Pfad_2446" data-name="Pfad 2446" d="M581.924,688.72l-1.221.513h-.033l-.077-.038c-.315-.157-1.4-.694-2.082-1.015-.823-.376-.683-.754-.683-.754l-.118-3.953-.206-.708s-.148-2.409,1.023-3.018.414,3.484.414,3.484l.085.85a9.433,9.433,0,0,0,.321,1.6,2.337,2.337,0,0,1,.1.527c.036.576.3.549.3.549a3.756,3.756,0,0,1,1.215.411,3.309,3.309,0,0,1,.4.255Z" transform="translate(-432.6 -501.071)" fill="#a0616a"/>
    <path id="Pfad_2447" data-name="Pfad 2447" d="M606.723,712.272l-1.043-.11a3.935,3.935,0,0,0,.442-.9,1.507,1.507,0,0,0,.047-.184.627.627,0,0,0-.058-.458c-.3-.45,1.816-1.078,1.816-1.078a5.193,5.193,0,0,0-.025.749,4.278,4.278,0,0,0,.055.516,1.3,1.3,0,0,0,.436.848C609.06,712.111,606.723,712.272,606.723,712.272Z" transform="translate(-453.051 -522.736)" fill="#8e5362"/>
    <path id="Pfad_2448" data-name="Pfad 2448" d="M606.723,715.618l-1.043-.11a3.934,3.934,0,0,0,.442-.9c.121.173.162.167.332.2a1.538,1.538,0,0,0,1.5-.659,1.3,1.3,0,0,0,.436.848C609.06,715.456,606.723,715.618,606.723,715.618Z" transform="translate(-453.051 -526.081)" opacity="0.1"/>
    <path id="Pfad_2449" data-name="Pfad 2449" d="M621.672,727.585a.574.574,0,0,0,0,.1l-.162-.189h0l.3-.823,1.051-.549.274.225C622.742,726.466,621.691,726.91,621.672,727.585Z" transform="translate(-464.538 -534.767)" opacity="0.1"/>
    <path id="Pfad_2450" data-name="Pfad 2450" d="M590.067,708.5l-1.221.513h-.126l.017-.047a3.95,3.95,0,0,0,.37-2.025,3.318,3.318,0,0,1,.4.255Z" transform="translate(-440.744 -520.849)" opacity="0.1"/>
    <path id="Pfad_2451" data-name="Pfad 2451" d="M598.812,746.019c-.475-.044-5.232-.483-5.676-1.182a2.333,2.333,0,0,0-.236-.324c.049-.274.082-.423.082-.423s5.355,1.114,5.706,1.517A.867.867,0,0,1,598.812,746.019Z" transform="translate(-443.777 -547.807)" opacity="0.1"/>
    <path id="Pfad_2452" data-name="Pfad 2452" d="M594.371,709.469a1.535,1.535,0,0,0,1.512-.669,3.523,3.523,0,0,0,1.2.672c.45.055,2.532,2.675,2.532,2.675s-1.671.549-1.564,1.4l-.8-.916s-.4-.016-.735,1.078a5.065,5.065,0,0,0-.359,2.623,8.338,8.338,0,0,1-.126,2.469s-5.248-.45-5.715-1.188-.549-.376-.549-.376a6.554,6.554,0,0,1,.411-2.535,16.149,16.149,0,0,0,.379-4.39,1.352,1.352,0,0,0-1.528-1.454s.664-1.547.359-2.14a7.838,7.838,0,0,0,1.558.255,2.685,2.685,0,0,1,1.147.274,1.277,1.277,0,0,1,.475.359.7.7,0,0,0,.823.233,8.213,8.213,0,0,0,.469,1.152l.063.115c.033.052.063.1.1.151A.381.381,0,0,0,594.371,709.469Z" transform="translate(-440.969 -520.689)" fill="#f86d70"/>
    <path id="Pfad_2453" data-name="Pfad 2453" d="M608.962,710.311a1.88,1.88,0,0,1-1.539.8h-.195a.629.629,0,0,0-.058-.458c-.3-.45,1.816-1.078,1.816-1.078A5.176,5.176,0,0,0,608.962,710.311Z" transform="translate(-454.111 -522.758)" opacity="0.1"/>
    <path id="Pfad_2454" data-name="Pfad 2454" d="M605.065,703.107a1.874,1.874,0,1,1-.549-1.339A1.888,1.888,0,0,1,605.065,703.107Z" transform="translate(-449.865 -516.698)" fill="#a0616a"/>
    <path id="Pfad_2455" data-name="Pfad 2455" d="M618.45,723.813l.038,1.262s.565-.453.582-.886S618.45,723.813,618.45,723.813Z" transform="translate(-462.317 -533.091)" opacity="0.1"/>
    <path id="Pfad_2456" data-name="Pfad 2456" d="M601.88,728.42s1.484,2.036,2.346,2.241S602.2,729.081,601.88,728.42Z" transform="translate(-450.293 -536.436)" opacity="0.1"/>
    <path id="Pfad_2457" data-name="Pfad 2457" d="M607.61,729.19a3.832,3.832,0,0,0,1.421,1.051Z" transform="translate(-454.451 -536.995)" opacity="0.1"/>
    <path id="Pfad_2458" data-name="Pfad 2458" d="M597,737.77s1.509,1.481,2.373,1.572Z" transform="translate(-446.752 -543.221)" opacity="0.1"/>
    <path id="Pfad_2459" data-name="Pfad 2459" d="M606.56,703.107a1.874,1.874,0,0,1-.549,1.317l-.209-.126a.588.588,0,0,1-.2-.176.7.7,0,0,1-.044-.392.919.919,0,0,0-.274-.763c-.359-.274-.933-.129-1.292-.409a1.368,1.368,0,0,1-.23-.255l-.34-.455-.071-.088a1.888,1.888,0,0,1,3.21,1.347Z" transform="translate(-451.36 -516.698)" opacity="0.1"/>
    <path id="Pfad_2460" data-name="Pfad 2460" d="M603.033,697.5a3.433,3.433,0,0,1,.562-.294c.187-.093.357-.214.549-.3a.842.842,0,0,1,.6-.06c.422.145.582.735,1.018.839.071.017.148.017.222.03a1.023,1.023,0,0,1,.683.475,1.615,1.615,0,0,1,.217.823,1.369,1.369,0,0,1-.068.472,4.174,4.174,0,0,1-.669.9,1.71,1.71,0,0,0-.313.993l-.527-.326a.589.589,0,0,1-.2-.176.693.693,0,0,1-.044-.39.925.925,0,0,0-.274-.765c-.359-.274-.933-.126-1.292-.409a1.21,1.21,0,0,1-.23-.255c-.113-.151-.228-.3-.34-.455a1.3,1.3,0,0,1-.247-.343A.87.87,0,0,1,603.033,697.5Z" transform="translate(-450.865 -513.505)" fill="#2f2e41"/>
    <path id="Pfad_2461" data-name="Pfad 2461" d="M605.431,702.893a.565.565,0,0,1-.2-.173.7.7,0,0,1-.044-.392.91.91,0,0,0-.274-.763c-.357-.274-.93-.129-1.292-.409a1.375,1.375,0,0,1-.23-.255c-.112-.151-.225-.3-.34-.455a1.267,1.267,0,0,1-.247-.346.785.785,0,0,1,.25-.65.823.823,0,0,0-.307.711,1.3,1.3,0,0,0,.247.343c.112.154.228.3.34.455a1.209,1.209,0,0,0,.231.255c.359.274.933.124,1.292.409a.924.924,0,0,1,.274.765.693.693,0,0,0,.044.39.587.587,0,0,0,.2.176l.527.326v-.093Z" transform="translate(-450.917 -515.414)" opacity="0.1"/>
    <path id="Pfad_2462" data-name="Pfad 2462" d="M584.9,794s-.527.11-.42,1.547.274,1.69.485,1.706,1.268.274,1.213-.25a9.756,9.756,0,0,1-.036-1.887c.071-.181.357-.664.085-.782l-.219.274s-.573-.529-.916-.145C585.094,794.475,584.776,794.123,584.9,794Z" transform="translate(-437.658 -584.025)" fill="#2f2e41"/>
    <path id="Pfad_2463" data-name="Pfad 2463" d="M587.26,797.24c.112.052.219.121.332.176a.758.758,0,0,0,.362.085.276.276,0,0,0,.148-.052" transform="translate(-439.684 -586.376)" opacity="0.1"/>
    <path id="Pfad_2464" data-name="Pfad 2464" d="M599.85,802.38a2.558,2.558,0,0,0,.195.192.682.682,0,0,0,.379.077.164.164,0,0,0,.063,0,.131.131,0,0,0,.058-.052l.071-.091" transform="translate(-448.82 -590.105)" opacity="0.1"/>
    <path id="Pfad_2465" data-name="Pfad 2465" d="M567.487,710.415s-.241-2.3.7-1.734a1.1,1.1,0,0,1,.291,1.572l-.219.711Z" transform="translate(-425.316 -522.048)" fill="#ffc1c7"/>
    <path id="Pfad_2466" data-name="Pfad 2466" d="M573.06,680.87l.549-.53s1.032-2.974,2.058-2.211-1.3,2.7-1.3,2.7l-.615.719Z" transform="translate(-429.38 -499.852)" fill="#ffc1c7"/>
    <path id="Pfad_2467" data-name="Pfad 2467" d="M544.237,730.558l-.027.609s.494.864.7.927.187-1.824.187-1.824Z" transform="translate(-408.445 -537.779)" fill="#f86d70"/>
    <path id="Pfad_2468" data-name="Pfad 2468" d="M544.037,730.755l-.028.612s.5.862.7.925.189-1.822.189-1.822Z" transform="translate(-408.3 -537.924)" opacity="0.1"/>
    <path id="Pfad_2469" data-name="Pfad 2469" d="M490.32,684.56l.036,2.252h2.508l-.189-1.311Z" transform="translate(-353.702 -492.45)" fill="#ffc1c7"/>
    <path id="Pfad_2470" data-name="Pfad 2470" d="M548.717,749.36l.118.719,1.462,3.254a1.917,1.917,0,0,1,.126,1.885,8.785,8.785,0,0,0-1.185,3.018,3.577,3.577,0,0,1-.8,1.619l1.545.656a4.719,4.719,0,0,1,.549-1.887c.442-.6,1.816-3.254,1.816-3.254s.439-.4.34-1.572-.088-2-.088-2l-.154-1.877Z" transform="translate(-411.514 -551.631)" fill="#2f2e41"/>
    <path id="Pfad_2471" data-name="Pfad 2471" d="M548.717,749.36l.118.719,1.462,3.254a1.917,1.917,0,0,1,.126,1.885,8.785,8.785,0,0,0-1.185,3.018,3.577,3.577,0,0,1-.8,1.619l1.545.656a4.719,4.719,0,0,1,.549-1.887c.442-.6,1.816-3.254,1.816-3.254s.439-.4.34-1.572-.088-2-.088-2l-.154-1.877Z" transform="translate(-411.514 -551.631)" opacity="0.1"/>
    <path id="Pfad_2472" data-name="Pfad 2472" d="M545.731,787.29s-1.646.5-1.1,1.328,2.326,2.4,3.045,2.346.431-.584.431-.584l-.6-.593a14.786,14.786,0,0,1-.063-1.627c.044-.368-.513-.549-.584-.324S545.731,787.29,545.731,787.29Z" transform="translate(-408.671 -579.155)" fill="#f86d70"/>
    <path id="Pfad_2473" data-name="Pfad 2473" d="M547.549,733.6l-1.311.143a.472.472,0,0,0-.42.48,7.31,7.31,0,0,1-.049,1.509,2.664,2.664,0,0,0,1,2.916l1.948.62-3.125.225.1,1.734.483-.274,5.931.274s1.679-.17.549-1.995a16.353,16.353,0,0,0-3.566-3.61l-.027-1.421-.178-.411Z" transform="translate(-409.446 -540.195)" fill="#2f2e41"/>
    <path id="Pfad_2474" data-name="Pfad 2474" d="M558.65,753.769a1.7,1.7,0,0,1,1.35,0Z" transform="translate(-418.923 -554.729)" opacity="0.1"/>
    <path id="Pfad_2475" data-name="Pfad 2475" d="M541.007,754.738s-1.92-.274-1.94.091.274,3.951,1.193,3.709.532-1.429.532-1.429l.691-.664s.071-.368-.387-.332Z" transform="translate(-404.713 -555.462)" fill="#f86d70"/>
    <path id="Pfad_2476" data-name="Pfad 2476" d="M556.806,715.485l.765.872s.332.412.727-.217,1.13-1.75,1.13-1.75.823.719,1.034.573-1.986,2.993-1.986,2.993-.7,1.031-1.742-.189l-.3-.143Z" transform="translate(-417.312 -526.255)" fill="#f86d70"/>
    <path id="Pfad_2477" data-name="Pfad 2477" d="M556.609,715.485l.763.872s.332.412.727-.217,1.133-1.75,1.133-1.75.823.719,1.032.573-1.984,2.993-1.984,2.993-.7,1.031-1.745-.189l-.3-.143Z" transform="translate(-417.167 -526.255)" opacity="0.1"/>
    <circle id="Ellipse_242" data-name="Ellipse 242" cx="1.591" cy="1.591" r="1.591" transform="translate(135.568 182.508)" fill="#ffc1c7"/>
    <path id="Pfad_2478" data-name="Pfad 2478" d="M545.284,691.905s-1.372.647-1.2,1.78a25.037,25.037,0,0,1,.189,2.56s.62.916-.2,2.669a1.819,1.819,0,0,0-.176,1.536s.39-1.026,1.394-.274a7.975,7.975,0,0,0,2.623,1.1s-.837-3.665-.324-4.178c0,0,.889-1.32.082-2.154a1.434,1.434,0,0,1-.406-1.619l2.6-1.394s.549,0,1.284-1.139a19.426,19.426,0,0,1,1.572-2.1s-.549-.823-1.078-.9a1.868,1.868,0,0,0-.351.8,3.9,3.9,0,0,1-1.067,1.245c-.332.3-.656.606-.977.914a3.623,3.623,0,0,1-1.92.743A10.336,10.336,0,0,0,545.284,691.905Z" transform="translate(-408.126 -506.953)" opacity="0.1"/>
    <path id="Pfad_2479" data-name="Pfad 2479" d="M545.284,691.5s-1.372.647-1.2,1.778a25.09,25.09,0,0,1,.189,2.562s.62.916-.2,2.667a1.821,1.821,0,0,0-.176,1.536s.39-1.023,1.394-.274a8.037,8.037,0,0,0,2.623,1.1s-.837-3.665-.324-4.178c0,0,.889-1.319.082-2.156a1.43,1.43,0,0,1-.406-1.616l2.6-1.394s.549,0,1.284-1.141a19.527,19.527,0,0,1,1.572-2.1s-.549-.837-1.078-.9a1.9,1.9,0,0,0-.351.8,3.9,3.9,0,0,1-1.067,1.245c-.332.3-.656.6-.977.914a3.647,3.647,0,0,1-1.92.743A9.034,9.034,0,0,0,545.284,691.5Z" transform="translate(-408.126 -506.655)" fill="#f86d70"/>
    <path id="Pfad_2480" data-name="Pfad 2480" d="M553.58,727.09a14.376,14.376,0,0,1,1.1,1.832C554.666,728.923,554.518,727.244,553.58,727.09Z" transform="translate(-415.244 -535.471)" opacity="0.1"/>
    <path id="Pfad_2481" data-name="Pfad 2481" d="M548.5,707.9a1.306,1.306,0,0,0,1.808.146A2.3,2.3,0,0,1,548.5,707.9Z" transform="translate(-411.558 -521.546)" opacity="0.1"/>
    <path id="Pfad_2482" data-name="Pfad 2482" d="M535.7,690.788a.491.491,0,0,0-.115-.217,2.3,2.3,0,0,0-.87-.774,1.2,1.2,0,0,0-1.372.39c-.129.176-.209.387-.321.573a2.532,2.532,0,0,1-.875.823c-.208.129-.428.239-.625.384a2.39,2.39,0,0,0-.864,2.37,3.786,3.786,0,0,1,.2,1.147,2.05,2.05,0,0,1-.357.823,2.563,2.563,0,0,0-.4.823.807.807,0,0,0,.247.823,1.461,1.461,0,0,1,.274.186.806.806,0,0,1,.129.2,1.97,1.97,0,0,0,1.229.968c.233.06.549.039.628-.186a.4.4,0,0,1,.044-.112c.077-.11.244-.047.362,0a2.221,2.221,0,0,0,.872.25.7.7,0,0,0,.354-.041.655.655,0,0,0,.242-.208,2.567,2.567,0,0,0,.414-1.314,3.129,3.129,0,0,0,0-.905,5.315,5.315,0,0,1-.338-1.407c.044-.483.464-.941.53-1.457a1.114,1.114,0,0,0-.189-.766,1.167,1.167,0,0,1-.146-.225.225.225,0,0,1,.044-.247.356.356,0,0,1,.112-.055.938.938,0,0,0,.549-.823,1.686,1.686,0,0,1,.036-.39C535.554,691.227,535.732,691,535.7,690.788Z" transform="translate(-398.186 -508.354)" opacity="0.1"/>
    <path id="Pfad_2483" data-name="Pfad 2483" d="M535.3,690.788a.5.5,0,0,0-.118-.217,2.3,2.3,0,0,0-.87-.774,1.2,1.2,0,0,0-1.372.39,6.5,6.5,0,0,0-.321.573,2.532,2.532,0,0,1-.875.823c-.209.129-.428.239-.626.384a2.4,2.4,0,0,0-.867,2.37,3.712,3.712,0,0,1,.2,1.147,2.018,2.018,0,0,1-.359.823,2.56,2.56,0,0,0-.4.823.807.807,0,0,0,.247.823,1.563,1.563,0,0,1,.274.186.8.8,0,0,1,.126.2,1.983,1.983,0,0,0,1.232.968c.233.06.549.038.628-.187a.4.4,0,0,1,.044-.112c.077-.11.244-.047.362,0a2.2,2.2,0,0,0,.87.25.715.715,0,0,0,.357-.041.627.627,0,0,0,.239-.209,2.542,2.542,0,0,0,.414-1.314,3.046,3.046,0,0,0,0-.905,5.436,5.436,0,0,1-.34-1.407c.041-.483.467-.941.53-1.457a1.1,1.1,0,0,0-.189-.765,1.292,1.292,0,0,1-.143-.225.225.225,0,0,1,.044-.247.307.307,0,0,1,.112-.055.935.935,0,0,0,.549-.823,1.856,1.856,0,0,1,.038-.39C535.156,691.227,535.335,691,535.3,690.788Z" transform="translate(-397.896 -508.354)" fill="#2f2e41"/>
    <g id="Gruppe_516" data-name="Gruppe 516" transform="translate(133.823 181.377)" opacity="0.1">
      <path id="Pfad_2484" data-name="Pfad 2484" d="M537.5,723.431a.4.4,0,0,0-.044.112.365.365,0,0,1-.329.211c.206.019.422-.028.491-.211a.4.4,0,0,1,.044-.112.129.129,0,0,1,.055-.047A.184.184,0,0,0,537.5,723.431Z" transform="translate(-537.13 -714.146)"/>
      <path id="Pfad_2485" data-name="Pfad 2485" d="M545.443,690.814a.468.468,0,0,0-.118-.217,2.253,2.253,0,0,0-.87-.763,1.1,1.1,0,0,0-.5-.074,1.008,1.008,0,0,1,.329.063,2.251,2.251,0,0,1,.87.763.467.467,0,0,1,.118.217c.03.217-.148.439-.208.639a1.689,1.689,0,0,0-.036.39.944.944,0,0,1-.549.823.306.306,0,0,0-.113.055.222.222,0,0,0-.044.247,1.164,1.164,0,0,0,.145.225,1.1,1.1,0,0,1,.189.766c-.066.516-.486.938-.532,1.454a4.952,4.952,0,0,0,.34,1.41,3.033,3.033,0,0,1,0,.905,2.553,2.553,0,0,1-.411,1.314.654.654,0,0,1-.241.209.553.553,0,0,1-.176.044.737.737,0,0,0,.337-.044.655.655,0,0,0,.242-.209,2.554,2.554,0,0,0,.411-1.314,3.033,3.033,0,0,0,0-.905,5.42,5.42,0,0,1-.34-1.41c.041-.486.466-.938.532-1.454a1.1,1.1,0,0,0-.189-.766,1.174,1.174,0,0,1-.145-.225.222.222,0,0,1,.044-.247.306.306,0,0,1,.112-.055.935.935,0,0,0,.549-.823,1.85,1.85,0,0,1,.038-.39C545.294,691.253,545.473,691.03,545.443,690.814Z" transform="translate(-541.854 -689.756)"/>
    </g>
    <path id="Pfad_2486" data-name="Pfad 2486" d="M542.77,763a.73.73,0,0,0,.746.206" transform="translate(-407.4 -561.529)" opacity="0.1"/>
    <path id="Pfad_2487" data-name="Pfad 2487" d="M554.373,796.56a.456.456,0,0,1-.373.1" transform="translate(-415.549 -585.882)" opacity="0.1"/>
    <path id="Pfad_2488" data-name="Pfad 2488" d="M216.7,784.032l3.654-2.148a8.825,8.825,0,0,0-1.868-2.236l-6.892,2.145,5.4-3.177a8.779,8.779,0,0,0-13,7.7c0,4.848,3.931,5.018,8.779,5.018s8.779-.17,8.779-5.018a8.722,8.722,0,0,0-.754-3.567Z" transform="translate(-161.57 -572.078)" fill="#fafcff"/>
    <path id="Pfad_2489" data-name="Pfad 2489" d="M217.632,803.6a6.854,6.854,0,0,0-1.295-1.018,6.068,6.068,0,0,0-2.132-1.04,16.071,16.071,0,0,0-2.093-.06,4.892,4.892,0,0,1-3.207-1.471,9.7,9.7,0,0,0-1.492-1.542,3.267,3.267,0,0,0-2.233-.411,5.4,5.4,0,0,0-.661.137,8.779,8.779,0,0,0-.519,2.977c0,4.848,3.931,5.018,8.779,5.018a18.408,18.408,0,0,0,6.066-.636l-.274-.491A6.893,6.893,0,0,0,217.632,803.6Z" transform="translate(-161.57 -586.937)" opacity="0.1"/>
    <path id="Pfad_2490" data-name="Pfad 2490" d="M996.7,784.032l3.654-2.148a8.824,8.824,0,0,0-1.868-2.236l-6.891,2.145,5.4-3.177a8.779,8.779,0,0,0-13,7.7c0,4.848,3.931,5.018,8.779,5.018s8.779-.17,8.779-5.018a8.721,8.721,0,0,0-.754-3.567Z" transform="translate(-737.047 -572.093)" fill="#fafcff"/>
    <path id="Pfad_2491" data-name="Pfad 2491" d="M997.632,803.6a6.858,6.858,0,0,0-1.295-1.018,6.069,6.069,0,0,0-2.132-1.04,16.07,16.07,0,0,0-2.093-.06,4.892,4.892,0,0,1-3.207-1.471,9.708,9.708,0,0,0-1.493-1.542,3.267,3.267,0,0,0-2.233-.411,5.441,5.441,0,0,0-.661.137,8.781,8.781,0,0,0-.518,2.977c0,4.848,3.931,5.018,8.779,5.018a18.408,18.408,0,0,0,6.066-.636l-.274-.491A6.9,6.9,0,0,0,997.632,803.6Z" transform="translate(-737.047 -586.951)" opacity="0.1"/>
    <path id="Pfad_2492" data-name="Pfad 2492" d="M378.794,774.139l-2.856-1.679a6.973,6.973,0,0,1,1.46-1.745l5.385,1.673-4.219-2.469a6.859,6.859,0,0,1,10.154,5.995c0,3.789-3.07,3.92-6.859,3.92S375,779.7,375,775.914a6.822,6.822,0,0,1,.59-2.782Z" transform="translate(-285.657 -565.938)" fill="#fafcff"/>
    <path id="Pfad_2493" data-name="Pfad 2493" d="M383.677,789.419a5.336,5.336,0,0,1,1.01-.793,4.68,4.68,0,0,1,1.665-.823,12.208,12.208,0,0,1,1.646-.047,3.841,3.841,0,0,0,2.5-1.149,7.592,7.592,0,0,1,1.166-1.207,2.551,2.551,0,0,1,1.745-.321,4.67,4.67,0,0,1,.516.107,6.809,6.809,0,0,1,.4,2.313c0,3.789-3.07,3.92-6.859,3.92a14.415,14.415,0,0,1-4.738-.5l.206-.384A5.274,5.274,0,0,1,383.677,789.419Z" transform="translate(-291.266 -577.523)" opacity="0.1"/>
    <path id="Pfad_2494" data-name="Pfad 2494" d="M458.794,774.139l-2.856-1.679a6.976,6.976,0,0,1,1.46-1.745l5.385,1.673-4.219-2.469a6.859,6.859,0,0,1,10.154,5.995c0,3.789-3.07,3.92-6.859,3.92S455,779.7,455,775.914a6.824,6.824,0,0,1,.59-2.782Z" transform="translate(-343.709 -565.938)" fill="#fafcff"/>
    <path id="Pfad_2495" data-name="Pfad 2495" d="M463.676,789.419a5.335,5.335,0,0,1,1.01-.793,4.684,4.684,0,0,1,1.665-.823,12.209,12.209,0,0,1,1.646-.047,3.84,3.84,0,0,0,2.5-1.149,7.6,7.6,0,0,1,1.166-1.207,2.551,2.551,0,0,1,1.745-.321,4.666,4.666,0,0,1,.516.107,6.807,6.807,0,0,1,.4,2.313c0,3.789-3.07,3.92-6.859,3.92a14.414,14.414,0,0,1-4.738-.5l.206-.384A5.275,5.275,0,0,1,463.676,789.419Z" transform="translate(-349.319 -577.523)" opacity="0.1"/>
    <path id="Pfad_2496" data-name="Pfad 2496" d="M749.794,774.139l-2.856-1.679a6.976,6.976,0,0,1,1.459-1.745l5.386,1.673-4.219-2.469a6.859,6.859,0,0,1,10.154,5.994c0,3.789-3.07,3.92-6.859,3.92S746,779.7,746,775.914a6.823,6.823,0,0,1,.59-2.782Z" transform="translate(-554.875 -565.938)" fill="#fafcff"/>
    <path id="Pfad_2497" data-name="Pfad 2497" d="M754.676,789.419a5.333,5.333,0,0,1,1.01-.793,4.683,4.683,0,0,1,1.665-.823,12.208,12.208,0,0,1,1.646-.047,3.841,3.841,0,0,0,2.5-1.149,7.589,7.589,0,0,1,1.166-1.207,2.551,2.551,0,0,1,1.745-.321,4.665,4.665,0,0,1,.516.107,6.811,6.811,0,0,1,.4,2.313c0,3.789-3.07,3.92-6.859,3.92a14.416,14.416,0,0,1-4.738-.5l.206-.384A5.276,5.276,0,0,1,754.676,789.419Z" transform="translate(-560.484 -577.523)" opacity="0.1"/>
    <path id="Pfad_2498" data-name="Pfad 2498" d="M485.783,703.219a5.691,5.691,0,0,0,.752-2.878c0-2.6-1.613-4.711-3.6-4.711s-3.6,2.11-3.6,4.711a5.69,5.69,0,0,0,.752,2.878,5.89,5.89,0,0,0,0,5.761,5.885,5.885,0,0,0,0,5.761,5.89,5.89,0,0,0,0,5.761,5.681,5.681,0,0,0-.752,2.878c0,2.6,1.613,4.71,3.6,4.71s3.6-2.11,3.6-4.71a5.681,5.681,0,0,0-.752-2.878,5.89,5.89,0,0,0,0-5.761,5.885,5.885,0,0,0,0-5.761A5.89,5.89,0,0,0,485.783,703.219Z" transform="translate(-361.368 -512.642)" fill="#3f3d56"/>
    <ellipse id="Ellipse_243" data-name="Ellipse 243" cx="3.599" cy="4.711" rx="3.599" ry="4.711" transform="translate(117.968 177.232)" fill="#3f3d56"/>
    <ellipse id="Ellipse_244" data-name="Ellipse 244" cx="3.599" cy="4.711" rx="3.599" ry="4.711" transform="translate(117.968 171.477)" fill="#3f3d56"/>
    <path id="Pfad_2499" data-name="Pfad 2499" d="M460.154,453.5a17.3,17.3,0,0,0,1.339-1.973l-9.448-1.553,10.225.077a17.27,17.27,0,0,0,.329-13.657l-13.717,7.117,12.65-9.3A17.234,17.234,0,1,0,433.065,453.5a17.269,17.269,0,0,0-1.964,3.144l12.271,6.376-13.086-4.39a17.254,17.254,0,0,0,2.779,16.186,17.234,17.234,0,1,0,27.094,0,17.24,17.24,0,0,0,0-21.311Z" transform="translate(-325.116 -316.71)" fill="#fafcff"/>
    <path id="Pfad_2500" data-name="Pfad 2500" d="M429.359,565.4a17.149,17.149,0,0,0,3.687,10.656,17.234,17.234,0,1,0,27.094,0C462.456,573.121,429.359,563.456,429.359,565.4Z" transform="translate(-325.103 -417.951)" opacity="0.1"/>
    <path id="Pfad_2501" data-name="Pfad 2501" d="M672.778,682.395a7.192,7.192,0,0,0,.949-3.643c0-3.292-2.038-5.962-4.554-5.962s-4.554,2.669-4.554,5.962a7.2,7.2,0,0,0,.952,3.643,7.443,7.443,0,0,0,0,7.284,7.448,7.448,0,0,0,0,7.287,7.448,7.448,0,0,0,0,7.286,7.189,7.189,0,0,0-.952,3.643c0,3.292,2.041,5.962,4.554,5.962s4.554-2.669,4.554-5.962a7.187,7.187,0,0,0-.949-3.643,7.467,7.467,0,0,0,0-7.286,7.468,7.468,0,0,0,0-7.287A7.462,7.462,0,0,0,672.778,682.395Z" transform="translate(-495.82 -496.068)" fill="#3f3d56"/>
    <ellipse id="Ellipse_245" data-name="Ellipse 245" cx="4.554" cy="5.962" rx="4.554" ry="5.962" transform="translate(168.799 169.438)" fill="#3f3d56"/>
    <ellipse id="Ellipse_246" data-name="Ellipse 246" cx="4.554" cy="5.962" rx="4.554" ry="5.962" transform="translate(168.799 162.151)" fill="#3f3d56"/>
    <path id="Pfad_2502" data-name="Pfad 2502" d="M606.726,366.376a21.241,21.241,0,0,1-1.7-2.5l11.964-1.964-12.941.1a21.848,21.848,0,0,1-.417-17.284L621,353.734l-16.014-11.769a21.813,21.813,0,1,1,36.027,24.417,21.855,21.855,0,0,1,2.488,3.978l-15.533,8.071,16.562-5.558a21.813,21.813,0,0,1-3.517,20.483,21.813,21.813,0,1,1-34.293,0,21.813,21.813,0,0,1,0-26.974Z" transform="translate(-450.417 -248.126)" fill="#fafcff"/>
    <path id="Pfad_2503" data-name="Pfad 2503" d="M645.7,507.971a21.714,21.714,0,0,1-4.664,13.487,21.813,21.813,0,1,1-34.293,0C603.821,517.745,645.7,505.523,645.7,507.971Z" transform="translate(-450.438 -376.233)" opacity="0.1"/>
  </g>
</svg>
