<svg xmlns="http://www.w3.org/2000/svg" xmlns:xlink="http://www.w3.org/1999/xlink" width="258.105" height="192.836" viewBox="0 0 258.105 192.836">
  <defs>
    <linearGradient id="linear-gradient" x1="0.5" y1="1" x2="0.5" gradientUnits="objectBoundingBox">
      <stop offset="0" stop-color="gray" stop-opacity="0.251"/>
      <stop offset="0.54" stop-color="gray" stop-opacity="0.122"/>
      <stop offset="1" stop-color="gray" stop-opacity="0.102"/>
    </linearGradient>
  </defs>
  <g id="Gruppe_517" data-name="Gruppe 517" transform="translate(0 0.004)">
    <path id="Pfad_2301" data-name="Pfad 2301" d="M275.31,70.146a.754.754,0,0,0-1.226.877c.14.212.295.416.44.613A24.188,24.188,0,0,1,278,79.8a3.814,3.814,0,0,1,.159,2.139,13.453,13.453,0,0,0-.366-5.618,34.764,34.764,0,0,0-1.989-5.3A4.817,4.817,0,0,0,275.31,70.146Z" transform="translate(-222.387 -63.774)" fill="#fafcff" opacity="0.5"/>
    <path id="Pfad_2302" data-name="Pfad 2302" d="M228.207,92.3a.94.94,0,0,0-.157,1.87c.311.026.627.033.927.04,3.658.1,7.118,1.426,10.443,2.852a4.437,4.437,0,0,1,2.139,1.49,15.724,15.724,0,0,0-5.571-3.945,41.05,41.05,0,0,0-6.569-2.122A5.744,5.744,0,0,0,228.207,92.3Z" transform="translate(-186.775 -80.898)" fill="#fafcff"/>
    <path id="Pfad_2303" data-name="Pfad 2303" d="M231.155,111c-.756.029-.585,1.1.176,1.108.2,0,.4,0,.585-.017a21.411,21.411,0,0,1,6.964,1.245,3.557,3.557,0,0,1,1.566.787,12.554,12.554,0,0,0-4.069-2.089,31.525,31.525,0,0,0-4.43-.974A4.01,4.01,0,0,0,231.155,111Z" transform="translate(-189.392 -95.152)" fill="#fafcff" opacity="0.2"/>
    <path id="Pfad_2304" data-name="Pfad 2304" d="M296.666,163.555c.214.725,1.212.292,1.029-.444-.048-.193-.107-.383-.162-.563a21.423,21.423,0,0,1-.523-7.054,3.586,3.586,0,0,1,.375-1.714,12.527,12.527,0,0,0-1.012,4.461,30.977,30.977,0,0,0,.154,4.532,3.994,3.994,0,0,0,.138.782Z" transform="translate(-239.465 -127.768)" fill="#fafcff" opacity="0.5"/>
    <path id="Pfad_2305" data-name="Pfad 2305" d="M237.352,66.889c-.454-.078-.487.582-.036.684.119.026.238.045.352.064a13.071,13.071,0,0,1,4,1.628,2.163,2.163,0,0,1,.834.67,7.658,7.658,0,0,0-2.165-1.766,18.739,18.739,0,0,0-2.522-1.143A2.393,2.393,0,0,0,237.352,66.889Z" transform="translate(-194.216 -61.523)" fill="#fafcff" opacity="0.2"/>
    <path id="Pfad_2306" data-name="Pfad 2306" d="M207.345,133.416c-1.153.594-.178,2.222,1.005,1.683.309-.143.611-.3.9-.452,3.52-1.825,7.605-2.5,11.646-3.016a5.71,5.71,0,0,1,2.952.152,19.973,19.973,0,0,0-7.7-.461,50.737,50.737,0,0,0-7.522,1.616A6.82,6.82,0,0,0,207.345,133.416Z" transform="translate(-171.22 -110.518)" fill="#fafcff"/>
    <path id="Pfad_2307" data-name="Pfad 2307" d="M222,148.106c-.827.772.475,1.685,1.333.951.238-.193.444-.4.651-.592,2.524-2.377,5.858-4.055,9.179-5.609a21.327,21.327,0,0,1,5.065-.749c-2.339.209-7.116.951-9.24,1.9a51.173,51.173,0,0,0-6.027,3.384A6.329,6.329,0,0,0,222,148.106Z" transform="translate(-182.586 -118.869)" fill="#fafcff" opacity="0.5"/>
    <path id="Pfad_2308" data-name="Pfad 2308" d="M247.632,164.46c-.238,1.105,1.338,1.122,1.633.017.076-.288.138-.58.2-.858a34.918,34.918,0,0,1,4.364-9.832,21.412,21.412,0,0,1,3.741-3.5c-1.806,1.5-5.321,4.82-6.519,6.821a51.342,51.342,0,0,0-3.037,6.21A6.525,6.525,0,0,0,247.632,164.46Z" transform="translate(-202.307 -125.107)" fill="#fafcff"/>
    <path id="Pfad_2309" data-name="Pfad 2309" d="M292.084,44.838c-.566-1.15-2.177-.2-1.664.974.133.309.283.611.425.9,1.737,3.515,2.334,7.577,2.781,11.572a5.686,5.686,0,0,1-.195,2.926A20.039,20.039,0,0,0,294,53.579a50.292,50.292,0,0,0-1.471-7.477,6.726,6.726,0,0,0-.449-1.264Z" transform="translate(-234.869 -44.32)" fill="#fafcff"/>
    <path id="Pfad_2310" data-name="Pfad 2310" d="M255.569,51.4a.214.214,0,0,0,.1.031c.064,0,.107-.064.133-.121.14-.307.059-.713.278-.951a3.347,3.347,0,0,1,.525.865l.827-.238a1.222,1.222,0,0,1-.157.951,1.236,1.236,0,0,1,.39.266.425.425,0,0,1,.1.437,2.1,2.1,0,0,1-.585.057,3.889,3.889,0,0,1-.062,1.089.2.2,0,0,1-.071.138c-.059.038-.14,0-.2-.033a1.9,1.9,0,0,1-.68-.713l-.309.734a.333.333,0,0,1-.135.185.221.221,0,0,1-.259-.09.621.621,0,0,1-.09-.278l-.116-.7a.166.166,0,0,0-.038-.1.178.178,0,0,0-.121-.036h-.877c-.05-.157.1-.3.254-.366s.326-.114.4-.259c.152-.3-.238-.713-.074-.963C255,50.987,255.315,51.275,255.569,51.4Z" transform="translate(-207.34 -48.927)" fill="#fafcff"/>
    <path id="Pfad_2311" data-name="Pfad 2311" d="M317.509,70.146a.754.754,0,0,1,1.226.877c-.14.212-.295.416-.44.613a24.139,24.139,0,0,0-3.479,8.164,3.793,3.793,0,0,0-.162,2.139,13.453,13.453,0,0,1,.368-5.618,34.89,34.89,0,0,1,1.989-5.307A4.814,4.814,0,0,1,317.509,70.146Z" transform="translate(-253.304 -63.774)" fill="#fafcff" opacity="0.5"/>
    <path id="Pfad_2312" data-name="Pfad 2312" d="M332.67,92.3a.94.94,0,0,1,.157,1.87c-.311.026-.625.033-.925.04-3.66.1-7.118,1.426-10.443,2.852a4.438,4.438,0,0,0-2.139,1.49,15.682,15.682,0,0,1,5.571-3.945,41.323,41.323,0,0,1,6.56-2.12A5.744,5.744,0,0,1,332.67,92.3Z" transform="translate(-256.975 -80.898)" fill="#fafcff"/>
    <path id="Pfad_2313" data-name="Pfad 2313" d="M344.31,111c.753.029.585,1.1-.176,1.108-.2,0-.4,0-.587-.017a21.4,21.4,0,0,0-6.961,1.245,3.558,3.558,0,0,0-1.566.787,12.554,12.554,0,0,1,4.069-2.089,31.447,31.447,0,0,1,4.43-.974A4.01,4.01,0,0,1,344.31,111Z" transform="translate(-268.944 -95.152)" fill="#fafcff" opacity="0.5"/>
    <path id="Pfad_2314" data-name="Pfad 2314" d="M351.8,66.889c.456-.078.49.582.038.684-.119.026-.238.045-.354.064a13.059,13.059,0,0,0-4,1.628,2.163,2.163,0,0,0-.834.67,7.627,7.627,0,0,1,2.165-1.766,18.715,18.715,0,0,1,2.519-1.143A2.491,2.491,0,0,1,351.8,66.889Z" transform="translate(-277.81 -61.523)" fill="#fafcff" opacity="0.2"/>
    <path id="Pfad_2315" data-name="Pfad 2315" d="M315.935,181.637c-.1.452-.727.238-.644-.238.021-.121.048-.238.074-.352a13.08,13.08,0,0,0,.043-4.318,2.186,2.186,0,0,0-.3-1.029,7.653,7.653,0,0,1,.794,2.686,18.936,18.936,0,0,1,.083,2.769A2.491,2.491,0,0,1,315.935,181.637Z" transform="translate(-253.766 -144.478)" fill="#fafcff" opacity="0.2"/>
    <path id="Pfad_2316" data-name="Pfad 2316" d="M344.909,165.331c.354.6-.516.559-.9-.043-.1-.157-.193-.314-.283-.475a32.491,32.491,0,0,0-4.378-5.412,6.07,6.07,0,0,0-1.359-1.172,21.42,21.42,0,0,1,3.565,3.042c1.062,1.112,2,2.27,2.921,3.427A5.574,5.574,0,0,1,344.909,165.331Z" transform="translate(-271.208 -131.16)" fill="#fafcff" opacity="0.5"/>
    <path id="Pfad_2317" data-name="Pfad 2317" d="M234.054,165.331c-.354.6.518.559.9-.043.1-.157.193-.314.28-.475a32.391,32.391,0,0,1,4.38-5.412,6.058,6.058,0,0,1,1.357-1.172,21.613,21.613,0,0,0-3.565,3.042c-1.062,1.112-2,2.27-2.919,3.427A5.6,5.6,0,0,0,234.054,165.331Z" transform="translate(-191.911 -131.16)" fill="#fafcff" opacity="0.2"/>
    <path id="Pfad_2318" data-name="Pfad 2318" d="M282.643,181.637c.1.452.725.238.644-.238-.021-.121-.05-.238-.076-.352a13.081,13.081,0,0,1-.04-4.318,2.21,2.21,0,0,1,.295-1.029,7.648,7.648,0,0,0-.794,2.686,18.936,18.936,0,0,0-.086,2.769A2.5,2.5,0,0,0,282.643,181.637Z" transform="translate(-228.959 -144.478)" fill="#fafcff" opacity="0.2"/>
    <path id="Pfad_2319" data-name="Pfad 2319" d="M336.473,85.888c.454-.081.487.582.036.682-.119.026-.238.048-.352.067a13.125,13.125,0,0,0-4,1.626,2.206,2.206,0,0,0-.834.67,7.65,7.65,0,0,1,2.165-1.763,19.058,19.058,0,0,1,2.522-1.146A2.375,2.375,0,0,1,336.473,85.888Z" transform="translate(-266.124 -76.007)" fill="#fafcff" opacity="0.2"/>
    <path id="Pfad_2320" data-name="Pfad 2320" d="M323.5,48.434c.392-.238.67.359.29.62-.1.069-.2.133-.3.193a13.074,13.074,0,0,0-3.1,3,2.21,2.21,0,0,0-.525.934,7.682,7.682,0,0,1,1.35-2.446,18.819,18.819,0,0,1,1.9-2A2.586,2.586,0,0,1,323.5,48.434Z" transform="translate(-257.387 -47.418)" fill="#fafcff" opacity="0.2"/>
    <path id="Pfad_2321" data-name="Pfad 2321" d="M344.894,133.416c1.153.594.178,2.222-1.005,1.683-.309-.143-.613-.3-.9-.452-3.522-1.825-7.605-2.5-11.646-3.016a5.71,5.71,0,0,0-2.952.152,19.97,19.97,0,0,1,7.7-.461,50.736,50.736,0,0,1,7.522,1.616A6.894,6.894,0,0,1,344.894,133.416Z" transform="translate(-263.89 -110.518)" fill="#fafcff"/>
    <path id="Pfad_2322" data-name="Pfad 2322" d="M331.917,148.075c.827.772-.475,1.685-1.333.951-.238-.193-.444-.4-.651-.592a34.739,34.739,0,0,0-9.186-5.618,21.328,21.328,0,0,0-5.067-.749c2.341.209,7.118.951,9.243,1.9a51.178,51.178,0,0,1,6.027,3.384A6.33,6.33,0,0,1,331.917,148.075Z" transform="translate(-254.201 -118.838)" fill="#fafcff" opacity="0.5"/>
    <path id="Pfad_2323" data-name="Pfad 2323" d="M317.016,166.141c.1,1.127-1.469.951-1.621-.188-.04-.295-.064-.592-.09-.875-.3-3.449-1.664-6.93-3.09-10.3a21.38,21.38,0,0,0-3.275-3.936c1.6,1.716,4.675,5.447,5.614,7.584a51.3,51.3,0,0,1,2.236,6.541A6.439,6.439,0,0,1,317.016,166.141Z" transform="translate(-249.062 -125.527)" fill="#fafcff"/>
    <path id="Pfad_2324" data-name="Pfad 2324" d="M339.782,51.4a.2.2,0,0,1-.1.031c-.062,0-.1-.064-.131-.121-.143-.307-.062-.713-.278-.951a3.347,3.347,0,0,0-.525.865l-.829-.238a1.231,1.231,0,0,0,.157.951,1.262,1.262,0,0,0-.39.266.43.43,0,0,0-.1.437,2.1,2.1,0,0,0,.585.057,3.8,3.8,0,0,0,.062,1.089.2.2,0,0,0,.071.138c.059.038.14,0,.2-.033a1.946,1.946,0,0,0,.68-.713l.309.734a.311.311,0,0,0,.135.185.221.221,0,0,0,.259-.09.651.651,0,0,0,.09-.278l.116-.7a.166.166,0,0,1,.038-.1.178.178,0,0,1,.121-.036h.877c.05-.157-.1-.3-.254-.366s-.328-.114-.4-.259c-.152-.3.238-.713.074-.963C340.357,50.987,340.046,51.275,339.782,51.4Z" transform="translate(-270.885 -48.927)" fill="#fafcff"/>
    <path id="Pfad_2325" data-name="Pfad 2325" d="M350.287,194.8a.209.209,0,0,1-.1.029c-.064,0-.107-.064-.133-.121-.14-.3-.059-.7-.276-.951a3.292,3.292,0,0,0-.528.882l-.827-.254a.681.681,0,0,1-.233,1.214.433.433,0,0,0-.1.437,2.1,2.1,0,0,0,.585.059,3.871,3.871,0,0,0,.062,1.086.217.217,0,0,0,.071.14c.062.038.14,0,.2-.036a1.885,1.885,0,0,0,.68-.713l.309.734a.328.328,0,0,0,.138.183.216.216,0,0,0,.257-.088.666.666,0,0,0,.093-.278l.114-.7a.167.167,0,0,1,.038-.1.181.181,0,0,1,.124-.033c.29,0,.582-.012.875,0,.05-.154-.1-.3-.254-.366s-.326-.114-.4-.259c-.152-.295.238-.713.074-.951C350.86,194.38,350.542,194.677,350.287,194.8Z" transform="translate(-278.892 -158.246)" fill="#fafcff" opacity="0.2"/>
    <path id="Pfad_2326" data-name="Pfad 2326" d="M379.794,98.661a.185.185,0,0,1-.1.029c-.064,0-.107-.062-.133-.119-.14-.307-.059-.713-.278-.951a3.359,3.359,0,0,0-.525.884l-.827-.257a1.224,1.224,0,0,0,.157.951,1.269,1.269,0,0,0-.39.264.43.43,0,0,0-.1.44,2.1,2.1,0,0,0,.585.057,3.892,3.892,0,0,0,.062,1.089.2.2,0,0,0,.071.138c.059.038.14,0,.2-.033a1.9,1.9,0,0,0,.68-.713l.309.734a.333.333,0,0,0,.135.185.223.223,0,0,0,.259-.09.62.62,0,0,0,.09-.278l.116-.713a.166.166,0,0,1,.038-.1.178.178,0,0,1,.121-.036h.877c.05-.154-.1-.3-.254-.364s-.326-.114-.4-.259c-.152-.3.238-.713.074-.951C380.367,98.245,380.053,98.54,379.794,98.661Z" transform="translate(-301.386 -84.955)" fill="#fafcff"/>
    <path id="Pfad_2327" data-name="Pfad 2327" d="M259.006,207.826a.28.28,0,0,1-.135.04c-.088,0-.147-.088-.185-.166-.195-.428-.083-.982-.385-1.34a4.574,4.574,0,0,0-.732,1.231l-1.16-.366a1.721,1.721,0,0,0,.219,1.321,1.757,1.757,0,0,0-.544.371.6.6,0,0,0-.14.608,2.944,2.944,0,0,0,.815.083,5.4,5.4,0,0,0,.086,1.514.273.273,0,0,0,.1.193c.083.055.195,0,.28-.045a2.681,2.681,0,0,0,.951-1.008l.43,1.024a.475.475,0,0,0,.19.257.3.3,0,0,0,.359-.124.891.891,0,0,0,.128-.39l.159-.974a.254.254,0,0,1,.055-.138.238.238,0,0,1,.171-.05c.406,0,.813-.014,1.219-.012.071-.216-.145-.416-.354-.509s-.454-.159-.559-.361c-.214-.411.335-.984.1-1.34C259.807,207.239,259.362,207.651,259.006,207.826Z" transform="translate(-208.637 -167.852)" fill="#fafcff"/>
    <path id="Pfad_2328" data-name="Pfad 2328" d="M209.935,100.186a.283.283,0,0,1-.138.04c-.086,0-.147-.088-.183-.166-.2-.428-.083-.982-.385-1.34a4.582,4.582,0,0,0-.734,1.231l-1.153-.359a1.709,1.709,0,0,0,.216,1.321,1.745,1.745,0,0,0-.542.371.6.6,0,0,0-.143.608,2.945,2.945,0,0,0,.815.083,5.31,5.31,0,0,0,.088,1.514.214.214,0,0,0,.38.147,2.681,2.681,0,0,0,.951-1.008l.428,1.024a.451.451,0,0,0,.193.257.307.307,0,0,0,.359-.124.877.877,0,0,0,.126-.39l.162-.974a.18.18,0,0,1,.223-.185c.406,0,.813-.017,1.222-.014.069-.216-.147-.416-.354-.509s-.456-.159-.561-.361c-.212-.411.337-.984.1-1.34C210.734,99.6,210.29,100.011,209.935,100.186Z" transform="translate(-171.232 -85.794)" fill="#fafcff"/>
    <path id="Pfad_2329" data-name="Pfad 2329" d="M363.525,169.05a.138.138,0,0,1-.071.021c-.048,0-.078-.048-.1-.088-.1-.238-.043-.52-.2-.713a2.493,2.493,0,0,0-.39.654l-.613-.19a.927.927,0,0,0,.116.713.891.891,0,0,0-.288.195.319.319,0,0,0-.076.323,1.566,1.566,0,0,0,.433.045,2.851,2.851,0,0,0,.048.8.143.143,0,0,0,.052.1.147.147,0,0,0,.15-.024,1.452,1.452,0,0,0,.5-.535l.238.544a.238.238,0,0,0,.1.135.164.164,0,0,0,.192-.064.474.474,0,0,0,.067-.207l.086-.518a.133.133,0,0,1,.028-.074.117.117,0,0,1,.09-.026h.649c.036-.114-.078-.221-.19-.269a.548.548,0,0,1-.3-.193c-.112-.219.181-.523.057-.713S363.712,168.954,363.525,169.05Z" transform="translate(-289.423 -138.814)" fill="#fafcff" opacity="0.2"/>
    <path id="Pfad_2330" data-name="Pfad 2330" d="M296.845,207.542a.19.19,0,0,1-.071.021.133.133,0,0,1-.1-.09c-.1-.226-.045-.52-.207-.713a2.454,2.454,0,0,0-.39.654l-.611-.19a.91.91,0,0,0,.114.7,1,1,0,0,0-.288.2.319.319,0,0,0-.076.323,1.478,1.478,0,0,0,.433.043,2.853,2.853,0,0,0,.048.806.148.148,0,0,0,.052.1c.045.029.1,0,.15-.024a1.45,1.45,0,0,0,.5-.535l.238.544a.238.238,0,0,0,.1.135.166.166,0,0,0,.193-.067.475.475,0,0,0,.067-.207l.086-.518a.126.126,0,0,1,.029-.071.123.123,0,0,1,.09-.026h.649c.036-.114-.078-.221-.188-.271s-.238-.083-.3-.193c-.114-.219.178-.523.055-.713S297.035,207.447,296.845,207.542Z" transform="translate(-238.59 -168.156)" fill="#fafcff" opacity="0.2"/>
    <path id="Pfad_2331" data-name="Pfad 2331" d="M232.319,72.8a.178.178,0,0,1-.071.021.133.133,0,0,1-.1-.09c-.1-.238-.045-.52-.2-.713a2.337,2.337,0,0,0-.39.654l-.613-.19a.9.9,0,0,0,.116.713.979.979,0,0,0-.29.2.316.316,0,0,0-.074.323,1.464,1.464,0,0,0,.433.043,2.851,2.851,0,0,0,.045.806.147.147,0,0,0,.052.1c.045.029.1,0,.15-.024a1.426,1.426,0,0,0,.5-.535l.238.544a.238.238,0,0,0,.1.135.164.164,0,0,0,.19-.067.475.475,0,0,0,.067-.207l.086-.518a.121.121,0,0,1,.029-.071.124.124,0,0,1,.09-.026h.649c.038-.114-.078-.221-.188-.271s-.238-.083-.3-.193c-.114-.219.178-.523.055-.713S232.509,72.707,232.319,72.8Z" transform="translate(-189.402 -65.44)" fill="#fafcff" opacity="0.5"/>
    <path id="Pfad_2332" data-name="Pfad 2332" d="M266.664,148.73a.14.14,0,0,1-.074.021c-.045,0-.078-.045-.1-.088-.1-.226-.045-.52-.2-.713a2.4,2.4,0,0,0-.39.654l-.613-.19a.92.92,0,0,0,.116.713.951.951,0,0,0-.288.2.316.316,0,0,0-.076.323,1.471,1.471,0,0,0,.433.043,2.851,2.851,0,0,0,.045.806.159.159,0,0,0,.052.1c.045.029.1,0,.15-.026a1.407,1.407,0,0,0,.5-.532l.238.544a.256.256,0,0,0,.1.135.162.162,0,0,0,.19-.067.476.476,0,0,0,.069-.207l.086-.518a.107.107,0,0,1,.029-.071.116.116,0,0,1,.09-.026h.646c.038-.114-.076-.221-.188-.271s-.238-.086-.3-.193c-.112-.219.181-.523.055-.713S266.851,148.637,266.664,148.73Z" transform="translate(-215.582 -123.324)" fill="#fafcff" opacity="0.5"/>
    <path id="Pfad_2333" data-name="Pfad 2333" d="M241.734,119.13a.131.131,0,0,1-.071.021c-.048,0-.078-.045-.1-.088-.1-.226-.045-.52-.207-.713a2.454,2.454,0,0,0-.39.654l-.611-.19a.91.91,0,0,0,.114.713,1,1,0,0,0-.288.2.316.316,0,0,0-.076.323,1.479,1.479,0,0,0,.433.043,2.851,2.851,0,0,0,.048.806.147.147,0,0,0,.052.1c.045.029.1,0,.15-.026a1.407,1.407,0,0,0,.5-.532l.238.544a.238.238,0,0,0,.1.135.166.166,0,0,0,.192-.067.476.476,0,0,0,.067-.207l.086-.518a.121.121,0,0,1,.029-.071.124.124,0,0,1,.09-.026h.649c.036-.114-.078-.221-.188-.271s-.238-.086-.3-.193c-.114-.219.178-.523.055-.713S241.924,119.037,241.734,119.13Z" transform="translate(-196.577 -100.758)" fill="#fafcff" opacity="0.5"/>
    <path id="Pfad_2334" data-name="Pfad 2334" d="M348.794,126.1a.138.138,0,0,1-.071.021c-.048,0-.078-.045-.1-.088-.1-.226-.043-.52-.2-.713a2.457,2.457,0,0,0-.39.654l-.611-.19a.91.91,0,0,0,.114.7.9.9,0,0,0-.288.2.316.316,0,0,0-.076.323,1.564,1.564,0,0,0,.432.043,2.855,2.855,0,0,0,.048.806.148.148,0,0,0,.052.1c.045.029.1,0,.15-.026a1.445,1.445,0,0,0,.5-.532l.238.542a.238.238,0,0,0,.1.138.166.166,0,0,0,.193-.067.475.475,0,0,0,.067-.207l.086-.518a.133.133,0,0,1,.029-.074.126.126,0,0,1,.09-.024h.649c.036-.114-.078-.221-.188-.271s-.238-.086-.3-.193c-.114-.219.178-.523.055-.713S348.984,126.007,348.794,126.1Z" transform="translate(-278.193 -106.072)" fill="#fafcff" opacity="0.5"/>
    <path id="Pfad_2335" data-name="Pfad 2335" d="M296.844,120.28a.131.131,0,0,1-.071.021c-.048,0-.078-.048-.1-.088-.1-.238-.045-.52-.207-.713a2.535,2.535,0,0,0-.39.654l-.611-.19a.915.915,0,0,0,.114.713.95.95,0,0,0-.288.195.321.321,0,0,0-.076.326,1.665,1.665,0,0,0,.433.043,2.851,2.851,0,0,0,.048.8.138.138,0,0,0,.052.1c.045.031.1,0,.15-.024a1.425,1.425,0,0,0,.5-.535l.238.544a.237.237,0,0,0,.1.135.162.162,0,0,0,.193-.064A.476.476,0,0,0,297,122l.086-.518a.133.133,0,0,1,.029-.074.15.15,0,0,1,.09-.026h.649c.036-.114-.078-.221-.188-.269a.557.557,0,0,1-.3-.193c-.114-.219.178-.523.055-.713S297.034,120.187,296.844,120.28Z" transform="translate(-238.59 -101.635)" fill="#fafcff" opacity="0.2"/>
    <path id="Pfad_2336" data-name="Pfad 2336" d="M280.544,127.37a.138.138,0,0,1-.071.021c-.048,0-.078-.045-.1-.088-.1-.238-.043-.52-.2-.713a2.536,2.536,0,0,0-.39.654l-.613-.188a.92.92,0,0,0,.116.7.931.931,0,0,0-.288.195.321.321,0,0,0-.076.326,1.663,1.663,0,0,0,.433.043,2.869,2.869,0,0,0,.048.806.147.147,0,0,0,.052.1c.045.029.1,0,.15-.026a1.426,1.426,0,0,0,.5-.535l.238.544a.238.238,0,0,0,.1.138.166.166,0,0,0,.193-.067.476.476,0,0,0,.067-.207l.086-.518a.133.133,0,0,1,.029-.074.14.14,0,0,1,.09-.026h.649c.036-.116-.078-.223-.188-.271a.557.557,0,0,1-.3-.193c-.114-.219.178-.523.055-.713S280.734,127.277,280.544,127.37Z" transform="translate(-226.164 -107.04)" fill="#fafcff" opacity="0.3"/>
    <path id="Pfad_2337" data-name="Pfad 2337" d="M265.354,84.5a.14.14,0,0,1-.074.021c-.045,0-.078-.045-.1-.088-.1-.238-.045-.52-.2-.713a2.418,2.418,0,0,0-.39.651l-.613-.188a.9.9,0,0,0,.116.713.971.971,0,0,0-.29.195.326.326,0,0,0-.074.326,1.557,1.557,0,0,0,.433.043,2.87,2.87,0,0,0,.045.806.147.147,0,0,0,.052.1c.045.029.1,0,.15-.026a1.4,1.4,0,0,0,.5-.535l.238.544a.254.254,0,0,0,.1.138.162.162,0,0,0,.193-.088.475.475,0,0,0,.069-.207l.083-.518a.133.133,0,0,1,.029-.074.15.15,0,0,1,.09-.026h.649c.038-.116-.076-.223-.188-.271a.548.548,0,0,1-.3-.193c-.112-.219.178-.523.055-.713S265.542,84.395,265.354,84.5Z" transform="translate(-214.584 -74.359)" fill="#fafcff" opacity="0.2"/>
    <path id="Pfad_2338" data-name="Pfad 2338" d="M295.285,140.492a.164.164,0,0,1-.074.021c-.045,0-.078-.048-.1-.09-.1-.226-.045-.518-.2-.713a2.431,2.431,0,0,0-.39.654l-.613-.19a.905.905,0,0,0,.116.713.929.929,0,0,0-.29.195.323.323,0,0,0-.074.323,1.557,1.557,0,0,0,.433.045,2.854,2.854,0,0,0,.045.8.159.159,0,0,0,.052.1.147.147,0,0,0,.15-.024,1.426,1.426,0,0,0,.5-.535l.238.544a.238.238,0,0,0,.1.135.164.164,0,0,0,.19-.064.476.476,0,0,0,.069-.207l.086-.518a.1.1,0,0,1,.119-.1h.646c.038-.114-.076-.221-.188-.269a.548.548,0,0,1-.3-.193c-.112-.219.178-.523.055-.713S295.473,140.387,295.285,140.492Z" transform="translate(-237.401 -117.042)" fill="#fafcff" opacity="0.3"/>
    <g id="Gruppe_511" data-name="Gruppe 511" transform="translate(164.99 59.001)" opacity="0.1">
      <ellipse id="Ellipse_228" data-name="Ellipse 228" cx="4.276" cy="5.597" rx="4.276" ry="5.597" transform="translate(16.302 115.423)" fill="#3f3d56"/>
      <path id="Pfad_2339" data-name="Pfad 2339" d="M827.422,672.069a6.728,6.728,0,0,0,.894-3.42c0-3.09-1.916-5.6-4.278-5.6s-4.278,2.507-4.278,5.6a6.752,6.752,0,0,0,.9,3.42,7,7,0,0,0,0,6.842,6.992,6.992,0,0,0,0,6.84,6.767,6.767,0,0,0-.894,3.422c0,3.09,1.916,5.6,4.278,5.6s4.278-2.505,4.278-5.6a6.742,6.742,0,0,0-.9-3.415,6.992,6.992,0,0,0,0-6.84A7,7,0,0,0,827.422,672.069Z" transform="translate(-803.467 -575.003)" fill="#3f3d56"/>
      <ellipse id="Ellipse_229" data-name="Ellipse 229" cx="4.276" cy="5.597" rx="4.276" ry="5.597" transform="translate(16.302 81.214)" fill="#3f3d56"/>
      <ellipse id="Ellipse_230" data-name="Ellipse 230" cx="4.276" cy="5.597" rx="4.276" ry="5.597" transform="translate(16.302 74.374)" fill="#3f3d56"/>
      <path id="Pfad_2340" data-name="Pfad 2340" d="M787.792,325.736a20.231,20.231,0,0,0,1.592-2.346l-11.237-1.844,12.152.09a20.522,20.522,0,0,0,.392-16.23l-16.3,8.459,15.035-11.054a20.484,20.484,0,1,0-33.829,22.925,20.563,20.563,0,0,0-2.336,3.734l14.586,7.577-15.55-5.229a20.491,20.491,0,0,0,3.3,19.234,20.482,20.482,0,1,0,32.2,0,20.485,20.485,0,0,0,0-25.326Z" transform="translate(-751.208 -292.586)" fill="#fafcff"/>
      <path id="Pfad_2341" data-name="Pfad 2341" d="M751.219,484.383a20.394,20.394,0,0,0,4.383,12.663,20.482,20.482,0,1,0,32.2,0C790.546,493.569,751.219,482.085,751.219,484.383Z" transform="translate(-751.216 -438.569)" opacity="0.1"/>
    </g>
    <g id="Gruppe_512" data-name="Gruppe 512" transform="translate(18.637 59.001)" opacity="0.1">
      <ellipse id="Ellipse_231" data-name="Ellipse 231" cx="4.276" cy="5.597" rx="4.276" ry="5.597" transform="translate(16.114 115.423)" fill="#3f3d56"/>
      <path id="Pfad_2342" data-name="Pfad 2342" d="M210.872,672.069a6.752,6.752,0,0,0,.894-3.42c0-3.09-1.916-5.6-4.278-5.6s-4.278,2.507-4.278,5.6a6.728,6.728,0,0,0,.9,3.42,7,7,0,0,0,0,6.842,6.992,6.992,0,0,0,0,6.84,6.742,6.742,0,0,0-.894,3.422c0,3.09,1.916,5.6,4.278,5.6s4.278-2.505,4.278-5.6a6.767,6.767,0,0,0-.894-3.422,6.992,6.992,0,0,0,0-6.84,7,7,0,0,0,0-6.842Z" transform="translate(-187.098 -575.003)" fill="#3f3d56"/>
      <ellipse id="Ellipse_232" data-name="Ellipse 232" cx="4.276" cy="5.597" rx="4.276" ry="5.597" transform="translate(16.114 81.214)" fill="#3f3d56"/>
      <ellipse id="Ellipse_233" data-name="Ellipse 233" cx="4.276" cy="5.597" rx="4.276" ry="5.597" transform="translate(16.114 74.374)" fill="#3f3d56"/>
      <path id="Pfad_2343" data-name="Pfad 2343" d="M139.8,325.737a20.24,20.24,0,0,1-1.592-2.346l11.237-1.844-12.152.09a20.522,20.522,0,0,1-.392-16.23l16.3,8.459-15.035-11.054A20.484,20.484,0,1,1,172,325.737a20.56,20.56,0,0,1,2.336,3.734l-14.586,7.577,15.55-5.229a20.492,20.492,0,0,1-3.3,19.234,20.482,20.482,0,1,1-32.2,0,20.484,20.484,0,0,1,0-25.326Z" transform="translate(-135.419 -292.586)" fill="#fafcff"/>
      <path id="Pfad_2344" data-name="Pfad 2344" d="M176.383,484.383A20.394,20.394,0,0,1,172,497.046a20.482,20.482,0,1,1-32.2,0C137.056,493.569,176.383,482.085,176.383,484.383Z" transform="translate(-135.419 -438.569)" opacity="0.1"/>
    </g>
    <g id="Gruppe_513" data-name="Gruppe 513" transform="translate(87.347 59.013)" opacity="0.1">
      <ellipse id="Ellipse_234" data-name="Ellipse 234" cx="4.276" cy="5.597" rx="4.276" ry="5.597" transform="translate(16.114 115.412)" fill="#3f3d56"/>
      <path id="Pfad_2345" data-name="Pfad 2345" d="M499.964,672.069a6.749,6.749,0,0,0,.891-3.42c0-3.09-1.9-5.6-4.278-5.6s-4.278,2.507-4.278,5.6a6.728,6.728,0,0,0,.9,3.42,7,7,0,0,0,0,6.842,6.992,6.992,0,0,0,0,6.84,6.742,6.742,0,0,0-.894,3.422c0,3.09,1.916,5.6,4.278,5.6s4.278-2.505,4.278-5.6a6.767,6.767,0,0,0-.891-3.422,7.007,7.007,0,0,0,0-6.84,7.011,7.011,0,0,0,0-6.842Z" transform="translate(-476.19 -575.015)" fill="#3f3d56"/>
      <ellipse id="Ellipse_235" data-name="Ellipse 235" cx="4.276" cy="5.597" rx="4.276" ry="5.597" transform="translate(16.114 81.202)" fill="#3f3d56"/>
      <ellipse id="Ellipse_236" data-name="Ellipse 236" cx="4.276" cy="5.597" rx="4.276" ry="5.597" transform="translate(16.114 74.362)" fill="#3f3d56"/>
      <path id="Pfad_2346" data-name="Pfad 2346" d="M428.911,325.773a20.237,20.237,0,0,1-1.592-2.346l11.234-1.844-12.149.09a20.522,20.522,0,0,1-.392-16.23l16.3,8.459-15.037-11.054a20.484,20.484,0,1,1,33.832,22.925,20.418,20.418,0,0,1,2.334,3.734l-14.593,7.577,15.55-5.229a20.491,20.491,0,0,1-3.3,19.234,20.482,20.482,0,1,1-32.2,0,20.484,20.484,0,0,1,0-25.326Z" transform="translate(-424.519 -292.634)" fill="#fafcff"/>
      <path id="Pfad_2347" data-name="Pfad 2347" d="M465.483,484.383a20.394,20.394,0,0,1-4.383,12.663,20.482,20.482,0,1,1-32.2,0C426.157,493.569,465.483,482.085,465.483,484.383Z" transform="translate(-424.519 -438.581)" opacity="0.1"/>
    </g>
    <g id="Gruppe_514" data-name="Gruppe 514" transform="translate(113.503 29.239)" opacity="0.6">
      <path id="Pfad_2348" data-name="Pfad 2348" d="M577.748,183.692a.475.475,0,0,0-.772.551c.088.133.185.261.278.385a15.282,15.282,0,0,1,2.191,5.143,2.44,2.44,0,0,1,.1,1.357,8.455,8.455,0,0,0-.238-3.541,22.046,22.046,0,0,0-1.252-3.344A2.963,2.963,0,0,0,577.748,183.692Z" transform="translate(-566.843 -179.675)" fill="#fafcff" opacity="0.5"/>
      <path id="Pfad_2349" data-name="Pfad 2349" d="M548.026,197.589a.591.591,0,0,0-.1,1.176c.2.017.395.021.585.026a18.118,18.118,0,0,1,6.576,1.8,2.809,2.809,0,0,1,1.355.951,9.875,9.875,0,0,0-3.508-2.486,25.972,25.972,0,0,0-4.14-1.338A3.542,3.542,0,0,0,548.026,197.589Z" transform="translate(-544.36 -190.404)" fill="#fafcff"/>
      <path id="Pfad_2350" data-name="Pfad 2350" d="M549.9,209.388c-.475.017-.368.694.112.7h.368a13.459,13.459,0,0,1,4.387.784,2.232,2.232,0,0,1,.986.5,7.914,7.914,0,0,0-2.564-1.317,19.565,19.565,0,0,0-2.786-.623A2.684,2.684,0,0,0,549.9,209.388Z" transform="translate(-546.02 -199.399)" fill="#fafcff" opacity="0.2"/>
      <path id="Pfad_2351" data-name="Pfad 2351" d="M591.144,242.468c.135.456.763.185.649-.28-.031-.121-.067-.238-.1-.354a13.545,13.545,0,0,1-.328-4.444,2.251,2.251,0,0,1,.238-1.079,7.947,7.947,0,0,0-.646,2.809,19.71,19.71,0,0,0,.1,2.852,2.709,2.709,0,0,0,.093.5Z" transform="translate(-577.543 -219.923)" fill="#fafcff" opacity="0.5"/>
      <path id="Pfad_2352" data-name="Pfad 2352" d="M553.8,181.577c-.288-.05-.309.368-.024.43l.221.043a8.254,8.254,0,0,1,2.522,1.024,1.367,1.367,0,0,1,.525.421,4.815,4.815,0,0,0-1.364-1.11,12.066,12.066,0,0,0-1.588-.713A1.786,1.786,0,0,0,553.8,181.577Z" transform="translate(-549.059 -178.194)" fill="#fafcff" opacity="0.2"/>
      <path id="Pfad_2353" data-name="Pfad 2353" d="M534.9,223.464c-.725.373-.112,1.4.634,1.06.195-.09.385-.19.566-.283a21.9,21.9,0,0,1,7.33-1.9,3.593,3.593,0,0,1,1.861.1,12.6,12.6,0,0,0-4.853-.29,31.709,31.709,0,0,0-4.737,1.02,4.222,4.222,0,0,0-.8.3Z" transform="translate(-534.575 -209.037)" fill="#fafcff"/>
      <path id="Pfad_2354" data-name="Pfad 2354" d="M544.131,232.708c-.523.475.292,1.06.839.594.143-.124.28-.252.409-.373a22.01,22.01,0,0,1,5.782-3.534,14.24,14.24,0,0,1,3.192-.475,24.556,24.556,0,0,0-5.823,1.188,32.291,32.291,0,0,0-3.8,2.139A4.038,4.038,0,0,0,544.131,232.708Z" transform="translate(-541.732 -214.289)" fill="#fafcff" opacity="0.5"/>
      <path id="Pfad_2355" data-name="Pfad 2355" d="M560.27,243.014c-.152.7.844.713,1.029,0,.048-.181.088-.364.126-.54a21.859,21.859,0,0,1,2.747-6.194,13.032,13.032,0,0,1,2.358-2.2,24.027,24.027,0,0,0-4.107,4.295,32.317,32.317,0,0,0-1.9,3.912,4.243,4.243,0,0,0-.252.727Z" transform="translate(-554.151 -218.223)" fill="#fafcff"/>
      <path id="Pfad_2356" data-name="Pfad 2356" d="M588.277,167.687c-.356-.725-1.371-.128-1.048.616.083.193.178.383.269.566a21.906,21.906,0,0,1,1.752,7.289,3.574,3.574,0,0,1-.124,1.842,12.6,12.6,0,0,0,.361-4.806,31.861,31.861,0,0,0-.927-4.711A4.234,4.234,0,0,0,588.277,167.687Z" transform="translate(-574.667 -167.358)" fill="#fafcff"/>
      <path id="Pfad_2357" data-name="Pfad 2357" d="M565.219,171.8a.107.107,0,0,0,.059.017.1.1,0,0,0,.083-.074c.09-.195.038-.444.176-.606a2.085,2.085,0,0,1,.33.556l.523-.162a.775.775,0,0,1-.1.6.807.807,0,0,1,.238.166.273.273,0,0,1,.062.276,1.269,1.269,0,0,1-.368.038,2.378,2.378,0,0,1-.038.684.133.133,0,0,1-.045.088.123.123,0,0,1-.126-.021,1.212,1.212,0,0,1-.43-.454l-.193.461a.209.209,0,0,1-.088.116.138.138,0,0,1-.162-.055.424.424,0,0,1-.057-.176l-.074-.442a.1.1,0,0,0-.024-.062.107.107,0,0,0-.076-.021h-.551c-.033-.1.064-.188.159-.238s.2-.074.252-.164c.1-.188-.152-.447-.045-.606S565.065,171.722,565.219,171.8Z" transform="translate(-557.275 -170.241)" fill="#fafcff"/>
      <path id="Pfad_2358" data-name="Pfad 2358" d="M604.315,183.619a.475.475,0,1,1,.775.551c-.09.133-.185.261-.278.385a15.235,15.235,0,0,0-2.191,5.143,2.441,2.441,0,0,0-.1,1.357,8.457,8.457,0,0,1,.238-3.541,21.8,21.8,0,0,1,1.252-3.344A2.949,2.949,0,0,1,604.315,183.619Z" transform="translate(-586.303 -179.602)" fill="#fafcff" opacity="0.5"/>
      <path id="Pfad_2359" data-name="Pfad 2359" d="M613.826,197.589a.591.591,0,0,1,.1,1.176c-.195.017-.395.021-.582.026a18.13,18.13,0,0,0-6.579,1.8,2.813,2.813,0,0,0-1.352.951,9.875,9.875,0,0,1,3.508-2.486,26.017,26.017,0,0,1,4.138-1.338A3.585,3.585,0,0,1,613.826,197.589Z" transform="translate(-588.575 -190.404)" fill="#fafcff"/>
      <path id="Pfad_2360" data-name="Pfad 2360" d="M621.224,209.39c.475.017.366.694-.112.7h-.368a13.458,13.458,0,0,0-4.387.784,2.22,2.22,0,0,0-.986.5,7.89,7.89,0,0,1,2.564-1.317,19.569,19.569,0,0,1,2.79-.613,2.684,2.684,0,0,1,.5-.048Z" transform="translate(-596.168 -199.401)" fill="#fafcff" opacity="0.5"/>
      <path id="Pfad_2361" data-name="Pfad 2361" d="M625.894,181.577c.288-.05.309.368.024.43l-.223.043a8.24,8.24,0,0,0-2.519,1.024,1.367,1.367,0,0,0-.525.421,4.8,4.8,0,0,1,1.362-1.11,12.235,12.235,0,0,1,1.59-.713A1.724,1.724,0,0,1,625.894,181.577Z" transform="translate(-601.718 -178.194)" fill="#fafcff" opacity="0.2"/>
      <path id="Pfad_2362" data-name="Pfad 2362" d="M603.338,253.884c-.064.283-.456.143-.4-.145a.992.992,0,0,1,.047-.221,8.282,8.282,0,0,0,.026-2.721,1.373,1.373,0,0,0-.188-.646,4.8,4.8,0,0,1,.5,1.685,12.26,12.26,0,0,1,.055,1.744A1.479,1.479,0,0,1,603.338,253.884Z" transform="translate(-586.601 -230.473)" fill="#fafcff" opacity="0.2"/>
      <path id="Pfad_2363" data-name="Pfad 2363" d="M621.556,243.608c.223.378-.326.352-.566-.026-.064-.1-.121-.2-.178-.295a20.353,20.353,0,0,0-2.759-3.408,3.822,3.822,0,0,0-.853-.739,13.63,13.63,0,0,1,2.241,1.916c.67.713,1.26,1.426,1.839,2.158A3.559,3.559,0,0,1,621.556,243.608Z" transform="translate(-597.563 -222.08)" fill="#fafcff" opacity="0.5"/>
      <path id="Pfad_2364" data-name="Pfad 2364" d="M551.722,243.608c-.223.378.326.352.568-.026.062-.1.121-.2.176-.295a20.357,20.357,0,0,1,2.759-3.408,3.834,3.834,0,0,1,.856-.739,13.652,13.652,0,0,0-2.244,1.916c-.668.713-1.26,1.426-1.84,2.158A3.575,3.575,0,0,0,551.722,243.608Z" transform="translate(-547.607 -222.08)" fill="#fafcff" opacity="0.2"/>
      <path id="Pfad_2365" data-name="Pfad 2365" d="M582.337,253.884c.064.283.456.143.406-.145-.014-.076-.031-.15-.048-.221a8.223,8.223,0,0,1-.026-2.721,1.346,1.346,0,0,1,.185-.646,4.793,4.793,0,0,0-.5,1.685,11.876,11.876,0,0,0-.052,1.744A1.671,1.671,0,0,0,582.337,253.884Z" transform="translate(-570.952 -230.473)" fill="#fafcff" opacity="0.2"/>
      <path id="Pfad_2366" data-name="Pfad 2366" d="M616.257,193.547c.285-.05.307.366.022.43-.074.017-.15.029-.221.04a8.2,8.2,0,0,0-2.522,1.027,1.385,1.385,0,0,0-.525.421,4.82,4.82,0,0,1,1.364-1.112,12.05,12.05,0,0,1,1.588-.713,1.556,1.556,0,0,1,.295-.093Z" transform="translate(-594.369 -187.319)" fill="#fafcff" opacity="0.2"/>
      <path id="Pfad_2367" data-name="Pfad 2367" d="M608.071,169.953c.238-.154.423.223.183.39l-.19.121a8.326,8.326,0,0,0-1.956,1.9,1.345,1.345,0,0,0-.328.589,4.827,4.827,0,0,1,.849-1.542,12.084,12.084,0,0,1,1.2-1.262A1.518,1.518,0,0,1,608.071,169.953Z" transform="translate(-588.857 -169.309)" fill="#fafcff" opacity="0.2"/>
      <path id="Pfad_2368" data-name="Pfad 2368" d="M621.561,223.465c.725.373.112,1.4-.635,1.06-.195-.09-.385-.19-.568-.283a21.871,21.871,0,0,0-7.327-1.9,3.594,3.594,0,0,0-1.861.1,12.6,12.6,0,0,1,4.851-.29,31.666,31.666,0,0,1,4.739,1.02A4.348,4.348,0,0,1,621.561,223.465Z" transform="translate(-592.966 -209.038)" fill="#fafcff"/>
      <path id="Pfad_2369" data-name="Pfad 2369" d="M613.372,232.708c.523.475-.292,1.06-.839.594-.143-.124-.28-.252-.411-.373a21.97,21.97,0,0,0-5.782-3.534,14.323,14.323,0,0,0-3.19-.475,24.536,24.536,0,0,1,5.82,1.188,32.124,32.124,0,0,1,3.8,2.139,4.043,4.043,0,0,1,.6.461Z" transform="translate(-586.852 -214.289)" fill="#fafcff" opacity="0.5"/>
      <path id="Pfad_2370" data-name="Pfad 2370" d="M603.971,244.087c.064.713-.927.6-1.022-.116-.024-.188-.04-.373-.057-.551a21.967,21.967,0,0,0-1.951-6.491,13.485,13.485,0,0,0-2.061-2.479,23.969,23.969,0,0,1,3.536,4.777,32.381,32.381,0,0,1,1.407,4.119A4.021,4.021,0,0,1,603.971,244.087Z" transform="translate(-583.597 -218.505)" fill="#fafcff"/>
      <path id="Pfad_2371" data-name="Pfad 2371" d="M618.35,171.8a.114.114,0,0,1-.062.017.112.112,0,0,1-.083-.074c-.088-.195-.038-.444-.173-.606a2.093,2.093,0,0,0-.333.556l-.521-.162a.763.763,0,0,0,.1.6.809.809,0,0,0-.238.166.273.273,0,0,0-.064.276,1.288,1.288,0,0,0,.368.038,2.453,2.453,0,0,0,.041.684.133.133,0,0,0,.045.088.124.124,0,0,0,.126-.021,1.212,1.212,0,0,0,.43-.454l.193.461a.216.216,0,0,0,.086.116.14.14,0,0,0,.164-.055.424.424,0,0,0,.057-.176l.074-.442a.1.1,0,0,1,.024-.062.107.107,0,0,1,.076-.021h.551c.033-.1-.067-.188-.159-.238s-.207-.074-.254-.164c-.1-.188.155-.447.048-.606S618.512,171.722,618.35,171.8Z" transform="translate(-597.382 -170.241)" fill="#fafcff"/>
      <path id="Pfad_2372" data-name="Pfad 2372" d="M624.962,262.133a.145.145,0,0,1-.062.019c-.04,0-.067-.04-.083-.076-.088-.193-.038-.444-.173-.606a2.034,2.034,0,0,0-.333.556l-.52-.162a.772.772,0,0,0,.1.6.793.793,0,0,0-.238.169.271.271,0,0,0-.064.276,1.375,1.375,0,0,0,.368.036,2.451,2.451,0,0,0,.038.685.134.134,0,0,0,.045.088c.038.024.088,0,.128-.021a1.208,1.208,0,0,0,.428-.454l.195.461a.2.2,0,0,0,.086.116.138.138,0,0,0,.162-.055.419.419,0,0,0,.059-.176l.071-.442a.142.142,0,0,1,.024-.062.109.109,0,0,1,.078-.021h.551c.031-.1-.067-.188-.159-.238s-.207-.074-.254-.164c-.1-.188.152-.444.048-.606S625.123,262.052,624.962,262.133Z" transform="translate(-602.42 -239.103)" fill="#fafcff" opacity="0.2"/>
      <path id="Pfad_2373" data-name="Pfad 2373" d="M643.542,201.583a.154.154,0,0,1-.062.019c-.04,0-.067-.04-.083-.076-.09-.193-.038-.444-.176-.606a2.087,2.087,0,0,0-.33.556l-.523-.162a.775.775,0,0,0,.1.6.764.764,0,0,0-.238.169.271.271,0,0,0-.064.276,1.366,1.366,0,0,0,.368.036,2.448,2.448,0,0,0,.038.684.133.133,0,0,0,.045.088.124.124,0,0,0,.126-.021,1.212,1.212,0,0,0,.43-.454l.195.461a.2.2,0,0,0,.086.116.138.138,0,0,0,.162-.055.385.385,0,0,0,.057-.176l.074-.442a.1.1,0,0,1,.024-.062.107.107,0,0,1,.076-.021h.554c.031-.1-.067-.188-.162-.238s-.2-.074-.252-.164c-.1-.188.152-.447.047-.606S643.7,201.5,643.542,201.583Z" transform="translate(-616.585 -192.944)" fill="#fafcff"/>
      <path id="Pfad_2374" data-name="Pfad 2374" d="M567.463,270.355a.18.18,0,0,1-.086.026c-.055,0-.093-.057-.116-.107-.124-.269-.052-.616-.238-.844a2.914,2.914,0,0,0-.461.775l-.727-.223a1.079,1.079,0,0,0,.138.832,1.094,1.094,0,0,0-.342.238.378.378,0,0,0-.09.383,1.789,1.789,0,0,0,.513.052,3.459,3.459,0,0,0,.055.951.18.18,0,0,0,.064.124c.052.033.121,0,.176-.031a1.719,1.719,0,0,0,.6-.632l.269.644a.283.283,0,0,0,.121.162.193.193,0,0,0,.238-.078.544.544,0,0,0,.081-.238l.1-.613a.119.119,0,0,1,.143-.119h.768c.045-.135-.093-.264-.223-.321s-.285-.1-.352-.238c-.133-.259.212-.62.064-.844C567.967,269.984,567.689,270.243,567.463,270.355Z" transform="translate(-558.167 -245.171)" fill="#fafcff"/>
      <path id="Pfad_2375" data-name="Pfad 2375" d="M536.547,202.555a.177.177,0,0,1-.085.024c-.055,0-.093-.055-.116-.1-.124-.269-.052-.618-.238-.844a2.909,2.909,0,0,0-.461.775l-.727-.226a1.079,1.079,0,0,0,.138.832,1.186,1.186,0,0,0-.342.238.378.378,0,0,0-.088.385,1.85,1.85,0,0,0,.511.052,3.464,3.464,0,0,0,.055.951.176.176,0,0,0,.064.121c.052.036.121,0,.176-.029a1.705,1.705,0,0,0,.6-.635l.269.646a.309.309,0,0,0,.121.162.2.2,0,0,0,.226-.078.554.554,0,0,0,.081-.238l.1-.616a.154.154,0,0,1,.036-.086.14.14,0,0,1,.107-.031h.768c.045-.138-.09-.264-.223-.321s-.285-.1-.352-.238c-.133-.259.212-.62.067-.844C537.051,202.193,536.773,202.443,536.547,202.555Z" transform="translate(-534.599 -193.485)" fill="#fafcff"/>
      <path id="Pfad_2376" data-name="Pfad 2376" d="M633.3,245.93a.078.078,0,0,1-.045.014.083.083,0,0,1-.062-.055c-.064-.145-.026-.328-.128-.449a1.567,1.567,0,0,0-.238.411l-.387-.119a.578.578,0,0,0,.074.442.57.57,0,0,0-.181.124.2.2,0,0,0-.047.2.951.951,0,0,0,.271.026,1.746,1.746,0,0,0,.031.509.1.1,0,0,0,.033.064.09.09,0,0,0,.093-.017.886.886,0,0,0,.318-.337l.143.345a.157.157,0,0,0,.064.086.1.1,0,0,0,.121-.043A.328.328,0,0,0,633.4,247l.052-.328a.064.064,0,0,1,.076-.062h.406c.024-.071-.048-.138-.116-.169s-.154-.055-.188-.121c-.071-.138.112-.33.033-.449S633.423,245.873,633.3,245.93Z" transform="translate(-609.056 -226.883)" fill="#fafcff" opacity="0.2"/>
      <path id="Pfad_2377" data-name="Pfad 2377" d="M591.3,270.18a.1.1,0,0,1-.045.014.083.083,0,0,1-.062-.057c-.064-.143-.026-.326-.128-.447a1.536,1.536,0,0,0-.238.411l-.387-.119a.58.58,0,0,0,.074.442.569.569,0,0,0-.181.124.2.2,0,0,0-.048.2.948.948,0,0,0,.271.026,1.724,1.724,0,0,0,.031.506.1.1,0,0,0,.031.067c.029.017.067,0,.1-.017a.886.886,0,0,0,.319-.337l.143.345a.157.157,0,0,0,.064.086.107.107,0,0,0,.121-.043.292.292,0,0,0,.04-.128l.055-.328a.064.064,0,0,1,.076-.062h.406c.024-.071-.048-.14-.116-.169s-.155-.055-.188-.121c-.071-.138.112-.33.033-.449S591.42,270.123,591.3,270.18Z" transform="translate(-577.038 -245.369)" fill="#fafcff" opacity="0.2"/>
      <path id="Pfad_2378" data-name="Pfad 2378" d="M550.644,185.31a.112.112,0,0,1-.045.014c-.031,0-.05-.031-.062-.057-.067-.143-.029-.328-.131-.447a1.494,1.494,0,0,0-.238.411l-.4-.131a.566.566,0,0,0,.071.442.643.643,0,0,0-.181.124.2.2,0,0,0-.047.2,1.048,1.048,0,0,0,.273.029,1.808,1.808,0,0,0,.028.506.09.09,0,0,0,.033.064c.028.019.064,0,.093-.014a.9.9,0,0,0,.319-.337l.143.342a.147.147,0,0,0,.064.086.1.1,0,0,0,.121-.04.313.313,0,0,0,.043-.131l.052-.326A.085.085,0,0,1,550.8,186a.076.076,0,0,1,.057-.014h.409c.021-.074-.05-.14-.119-.171s-.152-.052-.188-.121c-.071-.138.112-.328.036-.447S550.751,185.25,550.644,185.31Z" transform="translate(-546.027 -180.67)" fill="#fafcff" opacity="0.5"/>
      <path id="Pfad_2379" data-name="Pfad 2379" d="M572.293,233.094a.076.076,0,0,1-.045,0c-.029,0-.05-.029-.062-.055-.067-.143-.029-.328-.128-.449a1.5,1.5,0,0,0-.238.414l-.385-.121a.568.568,0,0,0,.074.442.606.606,0,0,0-.183.124.2.2,0,0,0-.048.2,1.057,1.057,0,0,0,.273.029,1.806,1.806,0,0,0,.029.506.1.1,0,0,0,.033.064c.029.019.067,0,.1-.014a.9.9,0,0,0,.316-.337l.145.342a.147.147,0,0,0,.064.086.1.1,0,0,0,.119-.04.283.283,0,0,0,.043-.131l.055-.326a.083.083,0,0,1,.017-.048.1.1,0,0,1,.057-.017h.409c.024-.074-.05-.14-.119-.171s-.152-.052-.188-.121c-.069-.138.114-.33.036-.449S572.412,233.034,572.293,233.094Z" transform="translate(-562.548 -217.087)" fill="#fafcff" opacity="0.5"/>
      <path id="Pfad_2380" data-name="Pfad 2380" d="M556.594,214.49a.1.1,0,0,1-.045.014.083.083,0,0,1-.062-.057c-.066-.143-.029-.328-.128-.447a1.48,1.48,0,0,0-.238.411l-.385-.119a.57.57,0,0,0,.074.442.606.606,0,0,0-.183.124.2.2,0,0,0-.048.2.951.951,0,0,0,.273.026,1.813,1.813,0,0,0,.029.506.1.1,0,0,0,.033.067c.029.017.067,0,.1-.017a.882.882,0,0,0,.316-.337l.145.345a.157.157,0,0,0,.064.086.1.1,0,0,0,.119-.043.3.3,0,0,0,.043-.131l.055-.326a.075.075,0,0,1,.017-.045.081.081,0,0,1,.057-.017h.409c.024-.071-.05-.14-.119-.169s-.152-.055-.188-.121c-.071-.138.114-.33.036-.449S556.712,214.43,556.594,214.49Z" transform="translate(-550.579 -202.915)" fill="#fafcff" opacity="0.5"/>
      <path id="Pfad_2381" data-name="Pfad 2381" d="M624.024,218.88a.112.112,0,0,1-.045.014.078.078,0,0,1-.062-.057c-.067-.143-.029-.326-.131-.447a1.535,1.535,0,0,0-.238.411l-.385-.119a.571.571,0,0,0,.071.442.6.6,0,0,0-.181.124.2.2,0,0,0-.047.2.949.949,0,0,0,.273.026,1.806,1.806,0,0,0,.028.506.1.1,0,0,0,.033.067c.029.017.064,0,.093-.017a.886.886,0,0,0,.319-.337l.143.345a.157.157,0,0,0,.064.086.1.1,0,0,0,.121-.043.3.3,0,0,0,.043-.131l.052-.326a.064.064,0,0,1,.076-.062h.409c.021-.071-.05-.14-.119-.169s-.152-.055-.188-.121c-.071-.138.112-.33.036-.449S624.143,218.82,624.024,218.88Z" transform="translate(-601.981 -206.261)" fill="#fafcff" opacity="0.5"/>
      <path id="Pfad_2382" data-name="Pfad 2382" d="M591.3,215.21a.078.078,0,0,1-.045.014.083.083,0,0,1-.062-.055c-.064-.143-.026-.328-.128-.449a1.572,1.572,0,0,0-.238.411l-.387-.119a.577.577,0,0,0,.074.442.569.569,0,0,0-.181.124.2.2,0,0,0-.048.2.951.951,0,0,0,.271.026,1.74,1.74,0,0,0,.031.509.1.1,0,0,0,.031.064.1.1,0,0,0,.1-.017.887.887,0,0,0,.319-.337l.143.345a.157.157,0,0,0,.064.086.107.107,0,0,0,.121-.043.292.292,0,0,0,.04-.128l.055-.328a.064.064,0,0,1,.076-.062h.406c.024-.071-.048-.138-.116-.169s-.155-.055-.188-.121c-.071-.138.112-.33.033-.449S591.42,215.153,591.3,215.21Z" transform="translate(-577.038 -203.464)" fill="#fafcff" opacity="0.2"/>
      <path id="Pfad_2383" data-name="Pfad 2383" d="M581.034,219.68a.121.121,0,0,1-.048.014c-.029,0-.048-.031-.062-.057-.064-.143-.026-.328-.128-.447a1.531,1.531,0,0,0-.238.411l-.387-.119a.58.58,0,0,0,.074.442.556.556,0,0,0-.181.124.2.2,0,0,0-.048.2.949.949,0,0,0,.271.026,1.811,1.811,0,0,0,.031.506.086.086,0,0,0,.033.064c.029.019.064,0,.093-.014a.9.9,0,0,0,.318-.337l.143.342a.155.155,0,0,0,.064.088.1.1,0,0,0,.121-.043.353.353,0,0,0,.043-.131l.052-.326a.064.064,0,0,1,.076-.062h.409c.021-.071-.05-.14-.119-.171s-.152-.052-.188-.119c-.071-.14.112-.33.033-.449S581.153,219.62,581.034,219.68Z" transform="translate(-569.209 -206.871)" fill="#fafcff" opacity="0.3"/>
      <path id="Pfad_2384" data-name="Pfad 2384" d="M571.461,192.642a.076.076,0,0,1-.045.012c-.028,0-.05-.029-.062-.055-.064-.143-.026-.328-.128-.449a1.568,1.568,0,0,0-.238.411l-.387-.119a.578.578,0,0,0,.074.442.569.569,0,0,0-.181.124.2.2,0,0,0-.047.2,1.041,1.041,0,0,0,.271.029,1.732,1.732,0,0,0,.031.506.1.1,0,0,0,.031.064c.028.019.066,0,.1-.017a.879.879,0,0,0,.318-.335l.143.342a.157.157,0,0,0,.064.086.109.109,0,0,0,.121-.04.311.311,0,0,0,.04-.131l.055-.326a.085.085,0,0,1,.019-.048.09.09,0,0,1,.057-.017h.406c.024-.074-.048-.14-.117-.171s-.154-.055-.188-.121c-.071-.138.112-.33.033-.449S571.58,192.59,571.461,192.642Z" transform="translate(-561.913 -186.258)" fill="#fafcff" opacity="0.2"/>
      <path id="Pfad_2385" data-name="Pfad 2385" d="M590.314,227.922a.069.069,0,0,1-.107-.043c-.067-.143-.029-.328-.131-.449a1.568,1.568,0,0,0-.238.411l-.385-.119a.575.575,0,0,0,.071.442.625.625,0,0,0-.181.124.2.2,0,0,0-.048.2.951.951,0,0,0,.273.026,1.823,1.823,0,0,0,.029.509.1.1,0,0,0,.033.064.09.09,0,0,0,.093-.017.9.9,0,0,0,.318-.335l.143.342a.157.157,0,0,0,.064.086.1.1,0,0,0,.121-.043.3.3,0,0,0,.036-.133l.052-.328a.1.1,0,0,1,.019-.045.079.079,0,0,1,.057-.017h.409c.024-.071-.05-.138-.119-.169s-.152-.055-.188-.121c-.071-.138.114-.33.036-.449S590.433,227.863,590.314,227.922Z" transform="translate(-576.283 -213.153)" fill="#fafcff" opacity="0.3"/>
    </g>
    <g id="Gruppe_515" data-name="Gruppe 515" transform="translate(170.068 2.79)" opacity="0.8">
      <path id="Pfad_2386" data-name="Pfad 2386" d="M841.233,82a.756.756,0,0,0-1.231.877c.14.214.295.418.442.616a24.355,24.355,0,0,1,3.487,8.185,3.851,3.851,0,0,1,.162,2.158,13.45,13.45,0,0,0-.368-5.635,34.379,34.379,0,0,0-1.994-5.328A4.815,4.815,0,0,0,841.233,82Z" transform="translate(-823.872 -75.603)" fill="#fafcff" opacity="0.5"/>
      <path id="Pfad_2387" data-name="Pfad 2387" d="M794.011,104.188a.942.942,0,0,0-.157,1.875c.314.024.627.031.929.04,3.667.1,7.13,1.426,10.469,2.852a4.566,4.566,0,0,1,2.156,1.5,15.758,15.758,0,0,0-5.585-3.957,42.225,42.225,0,0,0-6.588-2.139A5.6,5.6,0,0,0,794.011,104.188Z" transform="translate(-788.173 -92.752)" fill="#fafcff"/>
      <path id="Pfad_2388" data-name="Pfad 2388" d="M796.965,122.995c-.756.026-.585,1.1.176,1.108.2,0,.4,0,.589-.014a21.456,21.456,0,0,1,6.98,1.245,3.582,3.582,0,0,1,1.571.791,12.574,12.574,0,0,0-4.081-2.094,31.322,31.322,0,0,0-4.44-.977A3.884,3.884,0,0,0,796.965,122.995Z" transform="translate(-790.796 -107.089)" fill="#fafcff" opacity="0.2"/>
      <path id="Pfad_2389" data-name="Pfad 2389" d="M862.648,175.629c.214.727,1.212.295,1.029-.444-.047-.192-.1-.383-.159-.566a21.472,21.472,0,0,1-.525-7.073,3.593,3.593,0,0,1,.375-1.716,12.582,12.582,0,0,0-1.015,4.47,31.168,31.168,0,0,0,.155,4.547A4,4,0,0,0,862.648,175.629Z" transform="translate(-840.998 -139.744)" fill="#fafcff" opacity="0.5"/>
      <path id="Pfad_2390" data-name="Pfad 2390" d="M803.179,78.709c-.454-.078-.49.585-.036.684.119.026.238.048.354.067a13.117,13.117,0,0,1,4.009,1.63,2.206,2.206,0,0,1,.839.673,7.707,7.707,0,0,0-2.172-1.771,19.452,19.452,0,0,0-2.526-1.148A2.644,2.644,0,0,0,803.179,78.709Z" transform="translate(-795.632 -73.324)" fill="#fafcff" opacity="0.2"/>
      <path id="Pfad_2391" data-name="Pfad 2391" d="M773.092,145.4c-1.155.594-.178,2.227,1.008,1.685.311-.143.613-.3.9-.452,3.532-1.832,7.631-2.505,11.667-3.026a5.722,5.722,0,0,1,2.961.154,20.091,20.091,0,0,0-7.724-.475,50.11,50.11,0,0,0-7.541,1.623A6.706,6.706,0,0,0,773.092,145.4Z" transform="translate(-772.575 -122.431)" fill="#fafcff"/>
      <path id="Pfad_2392" data-name="Pfad 2392" d="M787.787,160.117c-.832.775.475,1.69,1.336.951.238-.195.444-.4.654-.6,2.529-2.377,5.873-4.064,9.2-5.623a21.427,21.427,0,0,1,5.079-.751c-2.346.209-7.13.951-9.269,1.9a51.069,51.069,0,0,0-6.041,3.391A6.4,6.4,0,0,0,787.787,160.117Z" transform="translate(-783.968 -130.799)" fill="#fafcff" opacity="0.5"/>
      <path id="Pfad_2393" data-name="Pfad 2393" d="M813.482,176.538c-.238,1.108,1.343,1.124,1.637.017.076-.29.138-.582.2-.86a35.009,35.009,0,0,1,4.375-9.858,21.449,21.449,0,0,1,3.753-3.506c-1.811,1.507-5.336,4.832-6.538,6.84a51.36,51.36,0,0,0-3.045,6.224A6.325,6.325,0,0,0,813.482,176.538Z" transform="translate(-803.742 -137.076)" fill="#fafcff"/>
      <path id="Pfad_2394" data-name="Pfad 2394" d="M858.06,56.595c-.566-1.153-2.182-.2-1.664.979.135.309.285.611.43.9,1.74,3.522,2.339,7.605,2.788,11.6a5.711,5.711,0,0,1-.2,2.933,20.087,20.087,0,0,0,.575-7.648,50.731,50.731,0,0,0-1.481-7.5A6.616,6.616,0,0,0,858.06,56.595Z" transform="translate(-836.398 -56.072)" fill="#fafcff"/>
      <path id="Pfad_2395" data-name="Pfad 2395" d="M821.421,63.183a.209.209,0,0,0,.1.029c.062,0,.107-.064.133-.121.14-.307.059-.713.278-.951a3.3,3.3,0,0,1,.528.884l.829-.257a1.238,1.238,0,0,1-.157.951,1.306,1.306,0,0,1,.39.266.431.431,0,0,1,.1.44,2.107,2.107,0,0,1-.585.057,3.822,3.822,0,0,1-.064,1.091.2.2,0,0,1-.071.138c-.059.04-.14,0-.2-.033a1.932,1.932,0,0,1-.682-.713l-.316.708a.328.328,0,0,1-.138.183.221.221,0,0,1-.259-.088.673.673,0,0,1-.09-.28l-.116-.713a.167.167,0,0,0-.038-.1.178.178,0,0,0-.121-.036h-.879c-.05-.157.1-.3.254-.366s.328-.116.4-.261c.152-.3-.238-.713-.076-.965C820.846,62.76,821.164,63.057,821.421,63.183Z" transform="translate(-808.767 -60.698)" fill="#fafcff"/>
      <path id="Pfad_2396" data-name="Pfad 2396" d="M883.549,82a.756.756,0,0,1,1.231.877c-.143.214-.295.418-.442.616a24.41,24.41,0,0,0-3.489,8.185,3.831,3.831,0,0,0-.159,2.158,13.45,13.45,0,0,1,.368-5.635,35.248,35.248,0,0,1,1.992-5.321A4.966,4.966,0,0,1,883.549,82Z" transform="translate(-854.878 -75.603)" fill="#fafcff" opacity="0.5"/>
      <path id="Pfad_2397" data-name="Pfad 2397" d="M898.715,104.188a.942.942,0,0,1,.157,1.875c-.311.024-.627.031-.927.04-3.67.1-7.13,1.426-10.469,2.852a4.5,4.5,0,0,0-2.156,1.5,15.736,15.736,0,0,1,5.585-3.957,42.225,42.225,0,0,1,6.588-2.139A5.6,5.6,0,0,1,898.715,104.188Z" transform="translate(-858.524 -92.752)" fill="#fafcff"/>
      <path id="Pfad_2398" data-name="Pfad 2398" d="M910.414,122.994c.758.026.587,1.1-.173,1.108-.2,0-.4,0-.589-.014a21.445,21.445,0,0,0-6.98,1.245,3.569,3.569,0,0,0-1.571.791,12.574,12.574,0,0,1,4.081-2.094,31.324,31.324,0,0,1,4.451-.982A3.871,3.871,0,0,1,910.414,122.994Z" transform="translate(-870.554 -107.087)" fill="#fafcff" opacity="0.5"/>
      <path id="Pfad_2399" data-name="Pfad 2399" d="M917.927,78.709c.454-.078.49.585.036.684-.119.026-.238.048-.354.067a13.13,13.13,0,0,0-4.012,1.63,2.2,2.2,0,0,0-.837.673,7.7,7.7,0,0,1,2.17-1.771,19.617,19.617,0,0,1,2.529-1.148A2.641,2.641,0,0,1,917.927,78.709Z" transform="translate(-879.443 -73.324)" fill="#fafcff" opacity="0.2"/>
      <path id="Pfad_2400" data-name="Pfad 2400" d="M881.965,193.769c-.1.452-.727.238-.644-.238.021-.119.05-.238.076-.352a13.14,13.14,0,0,0,.041-4.328,2.188,2.188,0,0,0-.3-1.031,7.678,7.678,0,0,1,.8,2.683,19.034,19.034,0,0,1,.083,2.776A2.38,2.38,0,0,1,881.965,193.769Z" transform="translate(-855.338 -156.508)" fill="#fafcff" opacity="0.2"/>
      <path id="Pfad_2401" data-name="Pfad 2401" d="M911.018,177.416c.357.6-.518.563-.9-.04-.1-.157-.193-.316-.28-.475a32.566,32.566,0,0,0-4.392-5.426,6.092,6.092,0,0,0-1.362-1.174,21.625,21.625,0,0,1,3.565,3.049c1.065,1.115,2.006,2.277,2.928,3.437a5.6,5.6,0,0,1,.444.63Z" transform="translate(-872.826 -143.152)" fill="#fafcff" opacity="0.5"/>
      <path id="Pfad_2402" data-name="Pfad 2402" d="M799.872,177.416c-.357.6.518.563.9-.04.1-.157.195-.316.283-.475a32.563,32.563,0,0,1,4.392-5.426,6.04,6.04,0,0,1,1.362-1.174,21.525,21.525,0,0,0-3.565,3.049c-1.065,1.115-2.008,2.277-2.928,3.437A5.591,5.591,0,0,0,799.872,177.416Z" transform="translate(-793.32 -143.152)" fill="#fafcff" opacity="0.2"/>
      <path id="Pfad_2403" data-name="Pfad 2403" d="M848.636,193.769c.1.452.727.238.644-.238-.021-.119-.05-.238-.076-.352a13.139,13.139,0,0,1-.04-4.328,2.187,2.187,0,0,1,.3-1.031,7.684,7.684,0,0,0-.784,2.69,19.042,19.042,0,0,0-.083,2.776,2.383,2.383,0,0,0,.043.482Z" transform="translate(-830.513 -156.508)" fill="#fafcff" opacity="0.2"/>
      <path id="Pfad_2404" data-name="Pfad 2404" d="M902.587,97.758c.454-.081.49.582.036.684-.119.026-.238.045-.354.064a13.159,13.159,0,0,0-4.012,1.633,2.186,2.186,0,0,0-.837.67,7.655,7.655,0,0,1,2.172-1.768,18.825,18.825,0,0,1,2.526-1.148A2.294,2.294,0,0,1,902.587,97.758Z" transform="translate(-867.749 -87.846)" fill="#fafcff" opacity="0.2"/>
      <path id="Pfad_2405" data-name="Pfad 2405" d="M889.561,60.2c.392-.238.673.359.288.623-.1.069-.2.131-.3.193a13.065,13.065,0,0,0-3.111,3.014,2.138,2.138,0,0,0-.525.934,7.676,7.676,0,0,1,1.352-2.453,19.143,19.143,0,0,1,1.916-2.008A2.484,2.484,0,0,1,889.561,60.2Z" transform="translate(-858.974 -59.18)" fill="#fafcff" opacity="0.2"/>
      <path id="Pfad_2406" data-name="Pfad 2406" d="M911.029,145.4c1.155.594.178,2.227-1.008,1.685-.311-.143-.616-.3-.9-.452-3.532-1.832-7.634-2.505-11.667-3.026a5.722,5.722,0,0,0-2.961.154,20.088,20.088,0,0,1,7.724-.475,50.11,50.11,0,0,1,7.541,1.623A6.764,6.764,0,0,1,911.029,145.4Z" transform="translate(-865.515 -122.431)" fill="#fafcff"/>
      <path id="Pfad_2407" data-name="Pfad 2407" d="M898,160.117c.829.775-.475,1.69-1.338.951-.226-.195-.444-.4-.651-.6-2.531-2.377-5.875-4.064-9.2-5.623a21.445,21.445,0,0,0-5.079-.751c2.346.209,7.13.951,9.269,1.9a51.11,51.11,0,0,1,6.044,3.392,6.4,6.4,0,0,1,.958.727Z" transform="translate(-855.788 -130.799)" fill="#fafcff" opacity="0.5"/>
      <path id="Pfad_2408" data-name="Pfad 2408" d="M883,178.221c.1,1.129-1.476.951-1.628-.188-.041-.3-.064-.594-.088-.879a35.016,35.016,0,0,0-3.106-10.329,21.393,21.393,0,0,0-3.285-3.945c1.609,1.721,4.689,5.466,5.63,7.605a51.165,51.165,0,0,1,2.239,6.555A6.534,6.534,0,0,1,883,178.221Z" transform="translate(-850.573 -137.495)" fill="#fafcff"/>
      <path id="Pfad_2409" data-name="Pfad 2409" d="M905.868,63.183a.209.209,0,0,1-.1.029c-.064,0-.107-.064-.133-.121-.143-.307-.059-.713-.278-.951a3.3,3.3,0,0,0-.528.884L904,62.767a1.228,1.228,0,0,0,.157.951,1.317,1.317,0,0,0-.392.266.432.432,0,0,0-.1.44,2.1,2.1,0,0,0,.585.057,3.912,3.912,0,0,0,.062,1.091.207.207,0,0,0,.071.138c.062.04.143,0,.2-.033a1.933,1.933,0,0,0,.682-.713l.309.737a.319.319,0,0,0,.138.183.216.216,0,0,0,.257-.088.644.644,0,0,0,.093-.28l.114-.713a.185.185,0,0,1,.04-.1.178.178,0,0,1,.121-.036h.879c.05-.157-.107-.3-.257-.366s-.326-.116-.4-.261c-.152-.3.238-.713.074-.965C906.446,62.76,906.127,63.057,905.868,63.183Z" transform="translate(-872.494 -60.698)" fill="#fafcff"/>
      <path id="Pfad_2410" data-name="Pfad 2410" d="M916.409,206.925a.209.209,0,0,1-.1.029c-.064,0-.107-.062-.133-.119-.14-.309-.06-.713-.278-.965a3.341,3.341,0,0,0-.528.884l-.829-.257a1.238,1.238,0,0,0,.157.951,1.3,1.3,0,0,0-.39.266.43.43,0,0,0-.1.44,2.108,2.108,0,0,0,.585.059,3.8,3.8,0,0,0,.064,1.089.2.2,0,0,0,.071.14c.059.038.14,0,.2-.036a1.933,1.933,0,0,0,.682-.713l.309.737a.342.342,0,0,0,.138.185.238.238,0,0,0,.259-.09.673.673,0,0,0,.09-.28l.116-.7a.128.128,0,0,1,.159-.133c.292,0,.587-.012.879,0,.05-.157-.1-.3-.254-.366s-.328-.114-.4-.261c-.152-.295.238-.713.076-.963C916.994,206.5,916.666,206.8,916.409,206.925Z" transform="translate(-880.53 -170.268)" fill="#fafcff" opacity="0.2"/>
      <path id="Pfad_2411" data-name="Pfad 2411" d="M946,110.545a.187.187,0,0,1-.1.029c-.062,0-.1-.062-.131-.119-.143-.307-.062-.713-.278-.965a3.33,3.33,0,0,0-.528.886l-.829-.259a1.226,1.226,0,0,0,.157.951,1.286,1.286,0,0,0-.392.266.442.442,0,0,0-.1.44,2.124,2.124,0,0,0,.587.059,3.889,3.889,0,0,0,.062,1.089.212.212,0,0,0,.071.14c.062.038.14,0,.2-.033a1.944,1.944,0,0,0,.685-.713l.307.737a.333.333,0,0,0,.138.185.223.223,0,0,0,.259-.09.632.632,0,0,0,.093-.28l.114-.713a.188.188,0,0,1,.038-.1.174.174,0,0,1,.124-.036h.877c.052-.154-.1-.3-.254-.366s-.328-.114-.4-.259c-.152-.3.238-.713.074-.965C946.572,110.122,946.251,110.419,946,110.545Z" transform="translate(-903.085 -96.794)" fill="#fafcff"/>
      <path id="Pfad_2412" data-name="Pfad 2412" d="M824.9,220.019a.28.28,0,0,1-.135.04c-.088,0-.15-.088-.185-.169-.2-.425-.083-.982-.387-1.34a4.623,4.623,0,0,0-.734,1.231l-1.157-.357a1.728,1.728,0,0,0,.219,1.324,1.756,1.756,0,0,0-.544.371.606.606,0,0,0-.143.611,2.972,2.972,0,0,0,.818.083,5.344,5.344,0,0,0,.088,1.519.285.285,0,0,0,.1.193.273.273,0,0,0,.283-.048,2.669,2.669,0,0,0,.951-1.008l.43,1.027a.452.452,0,0,0,.193.257.309.309,0,0,0,.361-.124.92.92,0,0,0,.126-.39l.162-.977a.238.238,0,0,1,.052-.14.25.25,0,0,1,.171-.048c.409,0,.818-.017,1.224,0,.071-.219-.147-.418-.354-.511s-.456-.159-.561-.361c-.214-.414.337-.989.1-1.345C825.7,219.429,825.259,219.845,824.9,220.019Z" transform="translate(-810.105 -179.935)" fill="#fafcff"/>
      <path id="Pfad_2413" data-name="Pfad 2413" d="M775.69,112.091a.29.29,0,0,1-.138.04c-.086,0-.147-.088-.185-.169-.195-.428-.083-.982-.385-1.343a4.642,4.642,0,0,0-.737,1.233l-1.155-.359a1.714,1.714,0,0,0,.219,1.326,1.729,1.729,0,0,0-.544.371.6.6,0,0,0-.143.611,2.951,2.951,0,0,0,.818.081,5.414,5.414,0,0,0,.086,1.519.278.278,0,0,0,.1.195c.086.055.195,0,.283-.048a2.688,2.688,0,0,0,.951-1.008l.43,1.027a.475.475,0,0,0,.19.257.309.309,0,0,0,.361-.124.922.922,0,0,0,.128-.39l.159-.979a.254.254,0,0,1,.055-.138.238.238,0,0,1,.171-.048c.406,0,.815-.017,1.224-.014.069-.216-.147-.418-.356-.509s-.456-.162-.561-.364c-.212-.414.337-.986.1-1.343C776.491,111.5,776.046,111.913,775.69,112.091Z" transform="translate(-772.587 -97.656)" fill="#fafcff"/>
      <path id="Pfad_2414" data-name="Pfad 2414" d="M929.726,181.14a.131.131,0,0,1-.071.021c-.048,0-.078-.048-.1-.088-.1-.238-.043-.523-.2-.713a2.392,2.392,0,0,0-.39.654l-.616-.19a.9.9,0,0,0,.117.713.978.978,0,0,0-.29.2.325.325,0,0,0-.074.326,1.664,1.664,0,0,0,.433.043,2.779,2.779,0,0,0,.047.806.15.15,0,0,0,.052.1c.045.029.1,0,.15-.026a1.425,1.425,0,0,0,.5-.535l.238.544a.255.255,0,0,0,.1.138.166.166,0,0,0,.193-.067.476.476,0,0,0,.066-.207l.086-.52a.095.095,0,0,1,.119-.1h.651c.038-.116-.078-.223-.188-.271a.572.572,0,0,1-.3-.193c-.112-.221.181-.525.055-.713S929.907,181.047,929.726,181.14Z" transform="translate(-891.123 -150.821)" fill="#fafcff" opacity="0.2"/>
      <path id="Pfad_2415" data-name="Pfad 2415" d="M862.829,219.732a.14.14,0,0,1-.074.021c-.045,0-.078-.048-.1-.09-.1-.226-.045-.52-.2-.713a2.453,2.453,0,0,0-.392.656l-.613-.19a.905.905,0,0,0,.116.713.937.937,0,0,0-.29.2.321.321,0,0,0-.076.326,1.664,1.664,0,0,0,.435.043,2.855,2.855,0,0,0,.045.806.147.147,0,0,0,.052.1c.045.031.1,0,.15-.024a1.426,1.426,0,0,0,.506-.535l.238.544a.255.255,0,0,0,.1.138.166.166,0,0,0,.193-.067.475.475,0,0,0,.067-.207l.086-.52a.132.132,0,0,1,.028-.074.15.15,0,0,1,.09-.026h.651c.036-.116-.078-.223-.19-.271a.548.548,0,0,1-.3-.193c-.114-.221.178-.525.055-.713S863.019,219.637,862.829,219.732Z" transform="translate(-840.123 -180.24)" fill="#fafcff" opacity="0.2"/>
      <path id="Pfad_2416" data-name="Pfad 2416" d="M798.13,84.64a.138.138,0,0,1-.071.021.128.128,0,0,1-.1-.088c-.1-.238-.045-.523-.2-.713a2.435,2.435,0,0,0-.392.654l-.613-.19a.913.913,0,0,0,.116.713.93.93,0,0,0-.29.195.323.323,0,0,0-.076.326,1.5,1.5,0,0,0,.435.043,2.881,2.881,0,0,0,.045.808.15.15,0,0,0,.055.1c.045.029.1,0,.15-.024a1.426,1.426,0,0,0,.5-.537l.238.547a.238.238,0,0,0,.1.135.166.166,0,0,0,.192-.067.476.476,0,0,0,.067-.207l.086-.518a.132.132,0,0,1,.029-.074.123.123,0,0,1,.09-.026h.651c.036-.114-.078-.221-.19-.271s-.238-.086-.3-.193c-.114-.219.181-.525.055-.713S798.32,84.547,798.13,84.64Z" transform="translate(-790.801 -77.256)" fill="#fafcff" opacity="0.5"/>
      <path id="Pfad_2417" data-name="Pfad 2417" d="M832.566,160.77a.126.126,0,0,1-.071.021c-.047,0-.078-.045-.1-.088-.1-.238-.045-.523-.207-.713a2.494,2.494,0,0,0-.39.654l-.616-.19a.925.925,0,0,0,.116.713.951.951,0,0,0-.288.2.321.321,0,0,0-.076.326,1.564,1.564,0,0,0,.433.043,2.879,2.879,0,0,0,.048.808.147.147,0,0,0,.052.1c.045.029.1,0,.15-.026a1.426,1.426,0,0,0,.506-.535l.238.544a.237.237,0,0,0,.1.138.162.162,0,0,0,.19-.067.475.475,0,0,0,.069-.207l.086-.518a.114.114,0,0,1,.031-.078.116.116,0,0,1,.09-.026h.649c.038-.114-.076-.223-.188-.271a.548.548,0,0,1-.3-.193c-.114-.219.178-.525.055-.713S832.756,160.677,832.566,160.77Z" transform="translate(-817.055 -135.292)" fill="#fafcff" opacity="0.5"/>
      <path id="Pfad_2418" data-name="Pfad 2418" d="M807.576,131.092a.178.178,0,0,1-.071.021.133.133,0,0,1-.1-.09c-.1-.226-.045-.52-.207-.713a2.443,2.443,0,0,0-.39.656l-.616-.19a.929.929,0,0,0,.117.713.929.929,0,0,0-.29.195.326.326,0,0,0-.074.326,1.471,1.471,0,0,0,.432.043,2.881,2.881,0,0,0,.048.808.147.147,0,0,0,.052.1c.045.029.1,0,.15-.024a1.445,1.445,0,0,0,.506-.537l.238.547a.238.238,0,0,0,.1.135.166.166,0,0,0,.193-.067.474.474,0,0,0,.069-.207l.083-.518a.133.133,0,0,1,.029-.074.126.126,0,0,1,.093-.026h.649c.038-.114-.078-.221-.188-.271s-.238-.086-.3-.193c-.112-.219.181-.525.057-.713S807.767,131,807.576,131.092Z" transform="translate(-798.004 -112.666)" fill="#fafcff" opacity="0.5"/>
      <path id="Pfad_2419" data-name="Pfad 2419" d="M914.917,138.08a.126.126,0,0,1-.071.021c-.048,0-.078-.045-.1-.088-.1-.238-.045-.523-.207-.713a2.428,2.428,0,0,0-.39.654l-.616-.19a.925.925,0,0,0,.116.713.98.98,0,0,0-.29.2.326.326,0,0,0-.074.326,1.556,1.556,0,0,0,.433.043,2.872,2.872,0,0,0,.048.808.147.147,0,0,0,.052.1c.045.029.1,0,.15-.026a1.424,1.424,0,0,0,.506-.535l.238.544a.238.238,0,0,0,.1.138.164.164,0,0,0,.19-.067.476.476,0,0,0,.069-.207l.086-.518a.1.1,0,0,1,.119-.1h.649c.038-.114-.078-.223-.188-.271a.572.572,0,0,1-.3-.193c-.112-.219.181-.525.057-.713S915.109,137.987,914.917,138.08Z" transform="translate(-879.833 -117.995)" fill="#fafcff" opacity="0.5"/>
      <path id="Pfad_2420" data-name="Pfad 2420" d="M862.83,132.24a.14.14,0,0,1-.074.021c-.045,0-.078-.045-.1-.088-.1-.238-.045-.523-.2-.713a2.436,2.436,0,0,0-.392.654l-.613-.19a.913.913,0,0,0,.116.713.93.93,0,0,0-.29.195.323.323,0,0,0-.076.326,1.488,1.488,0,0,0,.435.043,2.881,2.881,0,0,0,.045.808.159.159,0,0,0,.052.1c.045.029.1,0,.15-.024a1.426,1.426,0,0,0,.506-.537l.238.547a.238.238,0,0,0,.1.135.166.166,0,0,0,.193-.067.475.475,0,0,0,.067-.207l.086-.518a.132.132,0,0,1,.029-.074.124.124,0,0,1,.09-.026h.651c.036-.114-.078-.221-.19-.271s-.238-.086-.3-.193c-.114-.219.178-.525.055-.713S863.02,132.147,862.83,132.24Z" transform="translate(-840.124 -113.543)" fill="#fafcff" opacity="0.2"/>
      <path id="Pfad_2421" data-name="Pfad 2421" d="M846.487,139.352a.178.178,0,0,1-.071.021.133.133,0,0,1-.1-.09c-.1-.238-.045-.52-.207-.713a2.407,2.407,0,0,0-.39.656l-.616-.193a.508.508,0,0,1-.174.908.326.326,0,0,0-.074.326,1.471,1.471,0,0,0,.432.043,2.883,2.883,0,0,0,.048.808.147.147,0,0,0,.052.1c.045.029.1,0,.15-.024a1.446,1.446,0,0,0,.506-.537l.238.547a.238.238,0,0,0,.1.135.164.164,0,0,0,.19-.067.475.475,0,0,0,.069-.207l.086-.518a.132.132,0,0,1,.026-.074.126.126,0,0,1,.093-.026h.649c.038-.114-.078-.221-.188-.271s-.238-.086-.3-.193c-.112-.219.181-.525.057-.713S846.677,139.257,846.487,139.352Z" transform="translate(-827.667 -118.963)" fill="#fafcff" opacity="0.3"/>
      <path id="Pfad_2422" data-name="Pfad 2422" d="M831.249,96.32a.14.14,0,0,1-.074.021c-.045,0-.078-.045-.1-.088-.1-.238-.045-.523-.2-.713a2.439,2.439,0,0,0-.392.654l-.613-.19a.9.9,0,0,0,.117.713.979.979,0,0,0-.29.2.321.321,0,0,0-.076.326,1.584,1.584,0,0,0,.435.043,2.888,2.888,0,0,0,.045.808.159.159,0,0,0,.052.1c.045.029.1,0,.15-.026a1.4,1.4,0,0,0,.506-.535l.238.544a.255.255,0,0,0,.1.138.167.167,0,0,0,.193-.067.476.476,0,0,0,.066-.207l.086-.518a.128.128,0,0,1,.028-.074.124.124,0,0,1,.09-.026h.651c.036-.116-.078-.223-.19-.271a.548.548,0,0,1-.3-.193c-.114-.221.178-.525.055-.713S831.439,96.227,831.249,96.32Z" transform="translate(-816.049 -86.16)" fill="#fafcff" opacity="0.2"/>
      <path id="Pfad_2423" data-name="Pfad 2423" d="M861.26,152.492a.2.2,0,0,1-.074.021c-.045,0-.078-.048-.1-.09-.1-.226-.045-.52-.2-.713a2.45,2.45,0,0,0-.392.656l-.613-.19a.908.908,0,0,0,.117.713.93.93,0,0,0-.29.195.323.323,0,0,0-.076.326,1.494,1.494,0,0,0,.435.043,2.881,2.881,0,0,0,.045.808.159.159,0,0,0,.052.1c.045.029.1,0,.152-.024a1.438,1.438,0,0,0,.5-.537l.238.547a.238.238,0,0,0,.1.135.166.166,0,0,0,.193-.067.475.475,0,0,0,.066-.207l.086-.518a.133.133,0,0,1,.029-.074.124.124,0,0,1,.09-.026h.651c.036-.114-.078-.221-.19-.271s-.238-.086-.3-.193c-.114-.219.178-.525.055-.713S861.45,152.392,861.26,152.492Z" transform="translate(-838.927 -128.98)" fill="#fafcff" opacity="0.3"/>
    </g>
    <path id="Pfad_2424" data-name="Pfad 2424" d="M884.76,684.615a5.868,5.868,0,0,0,.777-2.98c0-2.693-1.664-4.875-3.724-4.875s-3.724,2.182-3.724,4.875a5.867,5.867,0,0,0,.777,2.98,6.1,6.1,0,0,0,0,5.961,6.1,6.1,0,0,0,0,5.961,6.1,6.1,0,0,0,0,5.961,5.875,5.875,0,0,0-.777,2.98c0,2.693,1.664,4.877,3.724,4.877s3.724-2.184,3.724-4.877a5.875,5.875,0,0,0-.777-2.98,6.1,6.1,0,0,0,0-5.961,6.1,6.1,0,0,0,0-5.961A6.1,6.1,0,0,0,884.76,684.615Z" transform="translate(-682.944 -526.453)" fill="#3f3d56"/>
    <ellipse id="Ellipse_237" data-name="Ellipse 237" cx="3.724" cy="4.877" rx="3.724" ry="4.877" transform="translate(195.145 144.346)" fill="#3f3d56"/>
    <ellipse id="Ellipse_238" data-name="Ellipse 238" cx="3.724" cy="4.877" rx="3.724" ry="4.877" transform="translate(195.145 138.385)" fill="#3f3d56"/>
    <path id="Pfad_2425" data-name="Pfad 2425" d="M822.84,382.729a17.814,17.814,0,0,1-1.386-2.042l9.787-1.609-10.586.078a17.878,17.878,0,0,1-.34-14.134l14.2,7.368-13.1-9.633a17.846,17.846,0,1,1,29.471,19.964,17.926,17.926,0,0,1,2.034,3.254l-12.7,6.617,13.547-4.547a17.863,17.863,0,0,1-2.876,16.758,17.844,17.844,0,1,1-28.045,0,17.854,17.854,0,0,1,0-22.065Z" transform="translate(-637.917 -280.255)" fill="#fafcff"/>
    <path id="Pfad_2426" data-name="Pfad 2426" d="M854.712,521.076a17.775,17.775,0,0,1-3.817,11.032,17.844,17.844,0,1,1-28.045,0C820.448,529.071,854.712,519.073,854.712,521.076Z" transform="translate(-637.921 -407.57)" opacity="0.1"/>
    <path id="Pfad_2427" data-name="Pfad 2427" d="M309.725,690.421a6.219,6.219,0,0,0,.825-3.156c0-2.852-1.766-5.164-3.945-5.164s-3.945,2.313-3.945,5.164a6.22,6.22,0,0,0,.825,3.156,6.452,6.452,0,0,0,0,6.312,6.453,6.453,0,0,0,0,6.313,6.448,6.448,0,0,0,0,6.31,6.234,6.234,0,0,0-.825,3.156c0,2.852,1.766,5.164,3.945,5.164s3.945-2.312,3.945-5.164a6.234,6.234,0,0,0-.825-3.156,6.448,6.448,0,0,0,0-6.31,6.453,6.453,0,0,0,0-6.312A6.453,6.453,0,0,0,309.725,690.421Z" transform="translate(-244.274 -530.524)" fill="#3f3d56"/>
    <ellipse id="Ellipse_239" data-name="Ellipse 239" cx="3.945" cy="5.164" rx="3.945" ry="5.164" transform="translate(58.385 145.266)" fill="#3f3d56"/>
    <ellipse id="Ellipse_240" data-name="Ellipse 240" cx="3.945" cy="5.164" rx="3.945" ry="5.164" transform="translate(58.385 138.953)" fill="#3f3d56"/>
    <path id="Pfad_2428" data-name="Pfad 2428" d="M273.178,370.986a19.217,19.217,0,0,0,1.469-2.163l-10.357-1.706,11.211.083a18.928,18.928,0,0,0,.361-14.973l-15.049,7.8,13.87-10.2a18.9,18.9,0,1,0-31.21,21.152,18.793,18.793,0,0,0-2.153,3.446l13.464,6.985L240.435,376.6a18.916,18.916,0,0,0,3.047,17.744,18.9,18.9,0,1,0,29.708,0,18.9,18.9,0,0,0,0-23.365Z" transform="translate(-196.079 -270.057)" fill="#fafcff"/>
    <path id="Pfad_2429" data-name="Pfad 2429" d="M239.391,517.246a18.823,18.823,0,0,0,4.04,11.681,18.9,18.9,0,1,0,29.708,0C275.671,525.711,239.391,515.123,239.391,517.246Z" transform="translate(-196.041 -404.638)" opacity="0.1"/>
    <ellipse id="Ellipse_241" data-name="Ellipse 241" cx="129.053" cy="6.305" rx="129.053" ry="6.305" transform="translate(0 180.222)" fill="#3f3d56"/>
    <path id="Pfad_2430" data-name="Pfad 2430" d="M554.821,689.441a.416.416,0,0,0-.285.252h-.045l-.176-.029s-.922-.076-1.093-.064a.343.343,0,0,1-.28-.159l-.687-.58-.052-.045.121-.043s-1.842-2.286-2.239-2.331a3.028,3.028,0,0,1-1.06-.585v-.036c-.014-.076-.024-.155-.033-.238l.1.059h0v-.081h0a1.484,1.484,0,0,1,.276-.784,3.691,3.691,0,0,0,.589-.782,1.146,1.146,0,0,0,.059-.411,1.359,1.359,0,0,0-.19-.713.9.9,0,0,0-.6-.416.5.5,0,0,1-.195-.026c-.385-.09-.525-.606-.9-.732a.763.763,0,0,0-.535.055c-.169.071-.318.176-.475.257a3.083,3.083,0,0,0-.5.254l-.048.04h0l-.031.028h0a1.04,1.04,0,0,0-.159.209v.012a.03.03,0,0,1-.012.024v.157a.071.071,0,0,1,0,.019v.026a.045.045,0,0,0,0,.019.086.086,0,0,0,0,.026v.045a.031.031,0,0,1,0,.014v.04h0a.833.833,0,0,0,.178.252l-.021.021a1.621,1.621,0,0,0-.5,1.172,1.656,1.656,0,0,0,.026.29,1.527,1.527,0,0,0-.271-.164,2.376,2.376,0,0,0-1.013-.238,7.034,7.034,0,0,1-1.376-.221.582.582,0,0,1,.045.124l-.114-.064a3.366,3.366,0,0,0-1.074-.361s-.238.033-.269-.475a2.154,2.154,0,0,0-.086-.461,8.034,8.034,0,0,1-.383-1.4l-.076-.739a9.233,9.233,0,0,0,.143-2.731.568.568,0,0,0-.2-.661c-.9-.665-1.816,1.927-1.816,1.927l-.34.328a.728.728,0,0,0-.288-.109,1.606,1.606,0,0,0-.309.7,3.4,3.4,0,0,1-.951,1.086c-.295.259-.58.528-.863.8a3.25,3.25,0,0,1-1.7.646l-.44.071a1.357,1.357,0,0,0,.052-.371,1.388,1.388,0,0,0-1.091-1.35.35.35,0,0,0,0-.1.411.411,0,0,0-.1-.188,1.986,1.986,0,0,0-.768-.665,1,1,0,0,0-.416-.067h-.1a1.063,1.063,0,0,0-.777.4c-.114.154-.183.335-.283.5a2.244,2.244,0,0,1-.775.713c-.183.109-.378.207-.551.333a2.07,2.07,0,0,0-.765,2.065,3.116,3.116,0,0,1,.178,1,1.718,1.718,0,0,1-.316.713,2.284,2.284,0,0,0-.352.713.7.7,0,0,0,.219.713,1.715,1.715,0,0,1,.238.162.786.786,0,0,1,.112.176,1.751,1.751,0,0,0,1.086.844.715.715,0,0,0,.223.024h.024a.373.373,0,0,0,.4-.185.393.393,0,0,1,.038-.1.117.117,0,0,1,.067-.045.538.538,0,0,1,.159.059,2.019,2.019,0,0,0,.768.216.866.866,0,0,0,.135,0,.6.6,0,0,0,.276-.038.577.577,0,0,0,.211-.183l.036-.047a3.865,3.865,0,0,1-.347,1.074,1.962,1.962,0,0,0-.259.939.932.932,0,0,0,.1.494l.026-.052a3.769,3.769,0,0,0,.516.713,5.024,5.024,0,0,1-.05,1.115,2.305,2.305,0,0,0,.882,2.538l.292.642-1.2.086c-.121-.017-1.7-.238-1.706.078s.238,3.446,1.055,3.235c.763-.2.511-1.11.475-1.231h0l.608-.578a.264.264,0,0,0-.045-.2h0l1.471.067.345.756a1.662,1.662,0,0,1,.112,1.645,7.636,7.636,0,0,0-1.048,2.638,2.9,2.9,0,0,1-.651,1.345c-.276.1-1.333.509-.913,1.138.475.713,2.056,2.091,2.69,2.044s.38-.509.38-.509l-.53-.518a12.8,12.8,0,0,1-.057-1.426.328.328,0,0,0-.238-.337,3.573,3.573,0,0,1,.447-1.409c.383-.525,1.6-2.833,1.6-2.833s.387-.345.3-1.371c-.036-.414-.055-.777-.067-1.065l1.383.062s1.483-.147.475-1.737A14.618,14.618,0,0,0,535.5,692.2l-.019-.984.154.038a.323.323,0,0,0-.024-.1h.024a21.082,21.082,0,0,1-.392-2.384l.088.04c.92,1.065,1.54.164,1.54.164s1.944-2.731,1.754-2.614a.164.164,0,0,1-.128,0l.14-.447a.953.953,0,0,0-.259-1.371c-.68-.4-.663.86-.632,1.338l-.033-.031s-.651.979-1,1.528-.642.188-.642.188l-.442-.5a1.764,1.764,0,0,0,.1-.623,1.05,1.05,0,0,0-.3-.806,1.407,1.407,0,0,1-.444-.934.982.982,0,0,1,.088-.383l2.293-1.214s.475,0,1.134-.993a17.153,17.153,0,0,1,1.39-1.833l-.038-.052.038-.043s-.026-.038-.074-.1l.354-.409a5.371,5.371,0,0,0,0,.554l.181.62.1,3.444s-.112.33.6.658c.6.278,1.561.749,1.84.884a.424.424,0,0,1-.017.04h.083a1.183,1.183,0,0,1,1.348,1.267,13.9,13.9,0,0,1-.333,3.822,5.634,5.634,0,0,0-.366,2.208s.043-.207.283.064l-.017.076c-.135.685-.418,2.139-.475,2.726a9.552,9.552,0,0,1-.309,1.59l-.143,2.614.894.043v.093a.285.285,0,0,1-.15.238c-.307.166-1.027.749-.97,2.541l-.031.295a3.653,3.653,0,0,1-.435,1.393.9.9,0,0,0-.055.1.084.084,0,0,1,.024-.05s-.464.1-.368,1.348.238,1.474.428,1.488,1.12.238,1.072-.219a8.36,8.36,0,0,1-.031-1.645c.064-.157.314-.578.074-.68h0a3.546,3.546,0,0,0,.1-.877,5.746,5.746,0,0,1,.8-1.01,2.265,2.265,0,0,0,.635-1.34c0-.038.984-.689.841-1.229q-.036-.138-.057-.238a.18.18,0,0,0-.017-.1h.019l.2-1.188v1.16l.119.014v.1L546,701.6a1.8,1.8,0,0,1-.143.63,6.18,6.18,0,0,0-.492,2.8l-.012,1.067c-.033,0-.518.121-.425,1.331.1,1.253.238,1.471.428,1.488s1.119.238,1.072-.219a8.588,8.588,0,0,1-.033-1.645c.062-.157.174-.57-.066-.673a.888.888,0,0,1,.1-.4c.1-.178.454-1.024.713-1.676a6.025,6.025,0,0,0,.442-2.07v-.024a1.948,1.948,0,0,1,.152-.7,4.929,4.929,0,0,0,.254-.768.17.17,0,0,1,.017-.09l.226.028.78-3.365a16.331,16.331,0,0,0,.109-2.65.21.21,0,0,0-.014-.1h.048a7.091,7.091,0,0,0,.112-2.139,4.417,4.417,0,0,1,.316-2.286c.2-.625.416-.834.542-.905h0a.258.258,0,0,1,.109-.036l.589.675h0l.109.124h0l.05.055a.491.491,0,0,1,0-.083c.314.183,1.041.608,1.473.915a1.336,1.336,0,0,0,1.214.311,3.276,3.276,0,0,0,.977-.321h.024a1.184,1.184,0,0,0,.238.093s.8.675.875-.558S554.821,689.441,554.821,689.441ZM534.12,703.8a1.21,1.21,0,0,1-.238-.1Zm-1.248-13.352v.176h0A1.444,1.444,0,0,1,532.872,690.451Zm12.475,15.634v.069C545.333,706.118,545.326,706.118,545.347,706.084Z" transform="translate(-416.499 -526.759)" fill="url(#linear-gradient)"/>
    <rect id="Rechteck_1775" data-name="Rechteck 1775" width="1.355" height="1.424" transform="translate(130.041 158.805)" fill="#fafcff"/>
    <path id="Pfad_2431" data-name="Pfad 2431" d="M588.471,775.042a2.25,2.25,0,0,1-.623,1.331,5.74,5.74,0,0,0-.787,1,2.032,2.032,0,0,1-.264,1.269l-.264.071h-.654a3.037,3.037,0,0,1-.14-.523.6.6,0,0,1,.1-.29,3.668,3.668,0,0,0,.428-1.383l.029-.288c-.055-1.782.651-2.362.951-2.526a.29.29,0,0,0,.147-.238h0l.052-.509,1.759.086a1.424,1.424,0,0,0,.031.513,1.132,1.132,0,0,0,.055.25C589.436,774.358,588.478,775,588.471,775.042Z" transform="translate(-460.077 -599.79)" fill="#a0616a"/>
    <path id="Pfad_2432" data-name="Pfad 2432" d="M601.463,774.432a4.445,4.445,0,0,1-.238.76,2,2,0,0,0-.15.694v.024a6.061,6.061,0,0,1-.433,2.058c-.259.646-.6,1.488-.713,1.664a1.369,1.369,0,0,0-.069.794l-.991-.069.017-1.664a6.193,6.193,0,0,1,.475-2.785,1.834,1.834,0,0,0,.138-.625l.05-1.105.014-.326s1.752-.249,1.9.147A.871.871,0,0,1,601.463,774.432Z" transform="translate(-470.086 -600.411)" fill="#a0616a"/>
    <path id="Pfad_2433" data-name="Pfad 2433" d="M588.471,775.042a2.25,2.25,0,0,1-.623,1.331,5.74,5.74,0,0,0-.787,1,2.032,2.032,0,0,1-.264,1.269l-.264.071h-.654a3.037,3.037,0,0,1-.14-.523.6.6,0,0,1,.1-.29,3.668,3.668,0,0,0,.428-1.383l.029-.288c-.055-1.782.651-2.362.951-2.526a.29.29,0,0,0,.147-.238h0l.052-.509,1.759.086a1.424,1.424,0,0,0,.031.513,1.132,1.132,0,0,0,.055.25C589.436,774.358,588.478,775,588.471,775.042Z" transform="translate(-460.077 -599.79)" fill="#8e5362"/>
    <path id="Pfad_2434" data-name="Pfad 2434" d="M601.463,774.432a4.445,4.445,0,0,1-.238.76,2,2,0,0,0-.15.694v.024a6.061,6.061,0,0,1-.433,2.058c-.259.646-.6,1.488-.713,1.664a1.369,1.369,0,0,0-.069.794l-.991-.069.017-1.664a6.193,6.193,0,0,1,.475-2.785,1.834,1.834,0,0,0,.138-.625l.05-1.105.014-.326s1.752-.249,1.9.147A.871.871,0,0,1,601.463,774.432Z" transform="translate(-470.086 -600.411)" fill="#8e5362"/>
    <path id="Pfad_2435" data-name="Pfad 2435" d="M594.562,773.609l-1.842-.09.052-.509,1.759.086A1.426,1.426,0,0,0,594.562,773.609Z" transform="translate(-465.398 -599.828)" opacity="0.1"/>
    <path id="Pfad_2436" data-name="Pfad 2436" d="M603.681,774.424l-1.9-.257.014-.326s1.752-.25,1.9.147A.87.87,0,0,1,603.681,774.424Z" transform="translate(-472.304 -600.403)" opacity="0.1"/>
    <path id="Pfad_2437" data-name="Pfad 2437" d="M595,748.409l-.763,3.346-2.258-.3V750.3l-.195,1.188-2.707-.133.14-2.593a9.573,9.573,0,0,0,.3-1.578c.052-.587.33-2.032.475-2.709.043-.238.071-.366.071-.366s4.639.965,4.943,1.314a.75.75,0,0,1,.107.356A17,17,0,0,1,595,748.409Z" transform="translate(-462.623 -577.797)" fill="#2f2e41"/>
    <path id="Pfad_2438" data-name="Pfad 2438" d="M591.21,760.611s1.825-.951,2.27-.756Z" transform="translate(-464.247 -589.78)" opacity="0.1"/>
    <path id="Pfad_2439" data-name="Pfad 2439" d="M595.4,750s1.516,1.153,1.564,1.464Z" transform="translate(-467.441 -582.287)" opacity="0.1"/>
    <path id="Pfad_2440" data-name="Pfad 2440" d="M593.66,766.642a3.139,3.139,0,0,1,1.447.238Z" transform="translate(-466.114 -594.971)" opacity="0.1"/>
    <path id="Pfad_2441" data-name="Pfad 2441" d="M601.474,761.47s.521,1.706.295,2.175-.459-.109-.459-.109Z" transform="translate(-471.946 -591.031)" opacity="0.1"/>
    <path id="Pfad_2442" data-name="Pfad 2442" d="M597.513,798.92s-.516.078-.421,1.324.238,1.462.421,1.478,1.1.238,1.05-.219a8.43,8.43,0,0,1-.031-1.633c.064-.154.169-.568-.067-.67l-.052.238s-.5-.459-.794-.124a1.248,1.248,0,0,0-.059-.238C597.537,799,597.466,798.965,597.513,798.92Z" transform="translate(-468.722 -619.58)" fill="#2f2e41"/>
    <path id="Pfad_2443" data-name="Pfad 2443" d="M625.536,728.143s-.116.064-.29.147a3.227,3.227,0,0,1-.951.319,1.306,1.306,0,0,1-1.188-.309c-.425-.3-1.138-.73-1.447-.91l-.135-.081h-.014l.257-.713.91-.475.238.195.672.578a.333.333,0,0,0,.273.157c.169-.012,1.074.064,1.074.064l.171.029.361.059Z" transform="translate(-487.345 -564.082)" fill="#a0616a"/>
    <path id="Pfad_2444" data-name="Pfad 2444" d="M636.428,731.367s-.116.064-.29.147c-.183-.093-.409-.269-.321-.556s.1-.463.164-.608l.361.059Z" transform="translate(-498.237 -567.307)" opacity="0.1"/>
    <path id="Pfad_2445" data-name="Pfad 2445" d="M636.452,729.222s1.015-.292.939.934-.858.554-.858.554-.665-.174-.525-.635S636.108,729.334,636.452,729.222Z" transform="translate(-498.383 -566.424)" fill="#a0616a"/>
    <path id="Pfad_2446" data-name="Pfad 2446" d="M581.332,687.512l-1.058.444h-.029l-.067-.033c-.273-.136-1.212-.6-1.8-.879-.713-.326-.592-.654-.592-.654l-.1-3.425-.178-.613s-.128-2.087.886-2.614.359,3.018.359,3.018l.074.737a8.17,8.17,0,0,0,.278,1.39,2.027,2.027,0,0,1,.083.456c.031.5.264.475.264.475a3.253,3.253,0,0,1,1.053.357,2.875,2.875,0,0,1,.349.221Z" transform="translate(-453.793 -528.683)" fill="#a0616a"/>
    <path id="Pfad_2447" data-name="Pfad 2447" d="M606.583,711.907l-.9-.1a3.406,3.406,0,0,0,.383-.782,1.314,1.314,0,0,0,.04-.159.544.544,0,0,0-.05-.4c-.264-.39,1.573-.934,1.573-.934a4.5,4.5,0,0,0-.021.649,3.71,3.71,0,0,0,.047.447,1.122,1.122,0,0,0,.378.734C608.608,711.767,606.583,711.907,606.583,711.907Z" transform="translate(-475.277 -551.443)" fill="#8e5362"/>
    <path id="Pfad_2448" data-name="Pfad 2448" d="M606.583,715.422l-.9-.1a3.406,3.406,0,0,0,.383-.782c.1.15.14.145.288.176a1.333,1.333,0,0,0,1.3-.57,1.122,1.122,0,0,0,.378.734C608.608,715.281,606.583,715.422,606.583,715.422Z" transform="translate(-475.277 -554.957)" opacity="0.1"/>
    <path id="Pfad_2449" data-name="Pfad 2449" d="M621.65,727.389a.5.5,0,0,0,0,.083l-.14-.164h0l.257-.713.91-.475.238.195C622.577,726.419,621.667,726.8,621.65,727.389Z" transform="translate(-487.345 -564.082)" opacity="0.1"/>
    <path id="Pfad_2450" data-name="Pfad 2450" d="M589.887,708.29l-1.058.444h-.109l.014-.04a3.422,3.422,0,0,0,.321-1.754,2.872,2.872,0,0,1,.349.221Z" transform="translate(-462.348 -549.461)" opacity="0.1"/>
    <path id="Pfad_2451" data-name="Pfad 2451" d="M598.022,745.761c-.411-.038-4.532-.418-4.917-1.024a2.023,2.023,0,0,0-.2-.28c.043-.238.071-.366.071-.366s4.639.965,4.943,1.314A.751.751,0,0,1,598.022,745.761Z" transform="translate(-465.535 -577.781)" opacity="0.1"/>
    <path id="Pfad_2452" data-name="Pfad 2452" d="M593.657,709.1a1.33,1.33,0,0,0,1.31-.58,3.051,3.051,0,0,0,1.041.582c.39.048,2.194,2.317,2.194,2.317s-1.447.475-1.355,1.214l-.694-.794s-.342-.014-.637.934a4.388,4.388,0,0,0-.311,2.272,7.224,7.224,0,0,1-.109,2.139s-4.547-.39-4.951-1.029-.475-.326-.475-.326a5.678,5.678,0,0,1,.357-2.2,13.99,13.99,0,0,0,.328-3.8,1.171,1.171,0,0,0-1.324-1.26s.575-1.34.311-1.854a6.787,6.787,0,0,0,1.35.221,2.326,2.326,0,0,1,.993.238,1.107,1.107,0,0,1,.411.311.606.606,0,0,0,.713.2,7.118,7.118,0,0,0,.406,1l.055.1c.029.045.055.09.083.131A.33.33,0,0,0,593.657,709.1Z" transform="translate(-462.585 -549.293)" fill="#f86d70"/>
    <path id="Pfad_2453" data-name="Pfad 2453" d="M608.719,710.212a1.61,1.61,0,0,1-.164.2,1.628,1.628,0,0,1-1.169.492h-.169a.545.545,0,0,0-.05-.4c-.264-.39,1.573-.934,1.573-.934A4.487,4.487,0,0,0,608.719,710.212Z" transform="translate(-476.391 -551.466)" opacity="0.1"/>
    <path id="Pfad_2454" data-name="Pfad 2454" d="M604.56,702.855a1.623,1.623,0,1,1-.475-1.16A1.635,1.635,0,0,1,604.56,702.855Z" transform="translate(-471.931 -545.1)" fill="#a0616a"/>
    <path id="Pfad_2455" data-name="Pfad 2455" d="M618.45,723.813l.033,1.093s.49-.392.5-.768S618.45,723.813,618.45,723.813Z" transform="translate(-485.013 -562.322)" opacity="0.1"/>
    <path id="Pfad_2456" data-name="Pfad 2456" d="M601.88,728.42s1.286,1.763,2.032,1.942S602.16,728.993,601.88,728.42Z" transform="translate(-472.381 -565.836)" opacity="0.1"/>
    <path id="Pfad_2457" data-name="Pfad 2457" d="M607.61,729.19a3.318,3.318,0,0,0,1.231.91Z" transform="translate(-476.749 -566.423)" opacity="0.1"/>
    <path id="Pfad_2458" data-name="Pfad 2458" d="M597,737.77s1.307,1.283,2.056,1.362Z" transform="translate(-468.66 -572.964)" opacity="0.1"/>
    <path id="Pfad_2459" data-name="Pfad 2459" d="M606.131,702.855a1.623,1.623,0,0,1-.475,1.141l-.181-.109a.509.509,0,0,1-.173-.152.606.606,0,0,1-.038-.34.8.8,0,0,0-.238-.661c-.311-.238-.808-.112-1.12-.354a1.188,1.188,0,0,1-.2-.221l-.295-.395-.062-.076a1.635,1.635,0,0,1,2.781,1.167Z" transform="translate(-473.501 -545.1)" opacity="0.1"/>
    <path id="Pfad_2460" data-name="Pfad 2460" d="M602.984,697.409a2.968,2.968,0,0,1,.487-.254c.162-.081.309-.185.475-.257a.729.729,0,0,1,.523-.052c.366.126.5.637.882.727.062.014.128.014.192.026a.886.886,0,0,1,.592.411,1.4,1.4,0,0,1,.188.713,1.187,1.187,0,0,1-.059.409,3.616,3.616,0,0,1-.58.777,1.482,1.482,0,0,0-.271.86l-.456-.283a.511.511,0,0,1-.173-.152.6.6,0,0,1-.038-.337.8.8,0,0,0-.238-.663c-.311-.238-.808-.109-1.12-.354a1.046,1.046,0,0,1-.2-.221c-.1-.131-.2-.261-.295-.395a1.124,1.124,0,0,1-.214-.3A.754.754,0,0,1,602.984,697.409Z" transform="translate(-472.981 -541.746)" fill="#2f2e41"/>
    <path id="Pfad_2461" data-name="Pfad 2461" d="M605.072,702.433a.488.488,0,0,1-.176-.15.606.606,0,0,1-.038-.34.789.789,0,0,0-.238-.661c-.309-.238-.806-.112-1.119-.354a1.189,1.189,0,0,1-.2-.221c-.1-.131-.195-.264-.295-.394a1.1,1.1,0,0,1-.214-.3.68.68,0,0,1,.216-.563.713.713,0,0,0-.266.616,1.126,1.126,0,0,0,.214.3c.1.133.2.264.295.395a1.045,1.045,0,0,0,.2.221c.311.238.808.107,1.119.354a.8.8,0,0,1,.238.663.6.6,0,0,0,.038.337.509.509,0,0,0,.174.152l.456.283v-.081Z" transform="translate(-473.036 -543.751)" opacity="0.1"/>
    <path id="Pfad_2462" data-name="Pfad 2462" d="M584.844,794s-.456.1-.364,1.34.238,1.464.421,1.478,1.1.238,1.05-.216a8.45,8.45,0,0,1-.031-1.635c.062-.157.309-.575.074-.677l-.19.238s-.5-.459-.794-.126C585.01,794.411,584.734,794.107,584.844,794Z" transform="translate(-459.107 -615.83)" fill="#2f2e41"/>
    <path id="Pfad_2463" data-name="Pfad 2463" d="M587.26,797.24c.1.045.19.1.288.152a.656.656,0,0,0,.314.074.238.238,0,0,0,.128-.045" transform="translate(-461.235 -618.299)" opacity="0.1"/>
    <path id="Pfad_2464" data-name="Pfad 2464" d="M599.85,802.38a2.226,2.226,0,0,0,.169.166.591.591,0,0,0,.328.067.145.145,0,0,0,.055,0,.113.113,0,0,0,.05-.045l.062-.078" transform="translate(-470.833 -622.218)" opacity="0.1"/>
    <path id="Pfad_2465" data-name="Pfad 2465" d="M567.483,710.172s-.209-1.994.608-1.5a.954.954,0,0,1,.252,1.362l-.19.616Z" transform="translate(-446.14 -550.72)" fill="#ffc1c7"/>
    <path id="Pfad_2466" data-name="Pfad 2466" d="M573.06,680.487l.475-.459s.894-2.576,1.783-1.916-1.127,2.336-1.127,2.336l-.532.623Z" transform="translate(-450.41 -527.402)" fill="#ffc1c7"/>
    <path id="Pfad_2467" data-name="Pfad 2467" d="M544.234,730.52l-.024.528s.428.749.608.8.162-1.581.162-1.581Z" transform="translate(-428.417 -567.246)" fill="#f86d70"/>
    <path id="Pfad_2468" data-name="Pfad 2468" d="M544.034,730.717l-.024.53s.43.746.609.8.164-1.578.164-1.578Z" transform="translate(-428.264 -567.398)" opacity="0.1"/>
    <path id="Pfad_2469" data-name="Pfad 2469" d="M490.32,684.56l.031,1.951h2.172l-.164-1.136Z" transform="translate(-373.788 -521.866)" fill="#ffc1c7"/>
    <path id="Pfad_2470" data-name="Pfad 2470" d="M548.68,749.36l.1.623,1.267,2.819a1.661,1.661,0,0,1,.109,1.633,7.612,7.612,0,0,0-1.027,2.614,3.1,3.1,0,0,1-.692,1.4l1.338.568a4.089,4.089,0,0,1,.475-1.635c.383-.52,1.573-2.819,1.573-2.819s.38-.342.295-1.362-.076-1.735-.076-1.735l-.133-1.626Z" transform="translate(-431.641 -581.799)" fill="#2f2e41"/>
    <path id="Pfad_2471" data-name="Pfad 2471" d="M548.68,749.36l.1.623,1.267,2.819a1.661,1.661,0,0,1,.109,1.633,7.612,7.612,0,0,0-1.027,2.614,3.1,3.1,0,0,1-.692,1.4l1.338.568a4.089,4.089,0,0,1,.475-1.635c.383-.52,1.573-2.819,1.573-2.819s.38-.342.295-1.362-.076-1.735-.076-1.735l-.133-1.626Z" transform="translate(-431.641 -581.799)" opacity="0.1"/>
    <path id="Pfad_2472" data-name="Pfad 2472" d="M545.57,787.29s-1.426.435-.951,1.15,2.015,2.08,2.638,2.032.373-.506.373-.506l-.52-.513a12.81,12.81,0,0,1-.055-1.409c.038-.319-.444-.475-.506-.28S545.57,787.29,545.57,787.29Z" transform="translate(-428.655 -610.714)" fill="#f86d70"/>
    <path id="Pfad_2473" data-name="Pfad 2473" d="M547.287,733.6l-1.136.124a.409.409,0,0,0-.364.416,6.33,6.33,0,0,1-.043,1.307,2.308,2.308,0,0,0,.865,2.526l1.687.537-2.707.195.086,1.5.418-.238,5.138.238s1.455-.147.475-1.728a14.166,14.166,0,0,0-3.09-3.128l-.024-1.231-.155-.357Z" transform="translate(-429.469 -569.784)" fill="#2f2e41"/>
    <path id="Pfad_2474" data-name="Pfad 2474" d="M558.65,753.751a1.469,1.469,0,0,1,1.169,0Z" transform="translate(-439.425 -585.054)" opacity="0.1"/>
    <path id="Pfad_2475" data-name="Pfad 2475" d="M540.748,754.725s-1.664-.238-1.68.078.238,3.422,1.034,3.213.461-1.238.461-1.238l.6-.575s.062-.319-.335-.288Z" transform="translate(-424.496 -585.823)" fill="#f86d70"/>
    <path id="Pfad_2476" data-name="Pfad 2476" d="M556.756,715.338l.663.756s.288.357.63-.188.979-1.516.979-1.516.713.623.9.5-1.721,2.593-1.721,2.593-.606.894-1.509-.164l-.264-.124Z" transform="translate(-437.733 -555.14)" fill="#f86d70"/>
    <path id="Pfad_2477" data-name="Pfad 2477" d="M556.558,715.338l.661.756s.287.357.63-.188.982-1.516.982-1.516.713.623.894.5-1.718,2.593-1.718,2.593-.608.894-1.512-.164l-.264-.124Z" transform="translate(-437.58 -555.14)" opacity="0.1"/>
    <circle id="Ellipse_242" data-name="Ellipse 242" cx="1.378" cy="1.378" r="1.378" transform="translate(115.622 154.375)" fill="#ffc1c7"/>
    <path id="Pfad_2478" data-name="Pfad 2478" d="M545.082,691.355s-1.188.561-1.043,1.542a21.676,21.676,0,0,1,.164,2.217,2.419,2.419,0,0,1-.176,2.313,1.575,1.575,0,0,0-.152,1.331s.337-.889,1.207-.238a6.908,6.908,0,0,0,2.272.951s-.725-3.175-.28-3.62c0,0,.77-1.143.071-1.866a1.242,1.242,0,0,1-.352-1.4l2.251-1.207s.475,0,1.112-.986a16.827,16.827,0,0,1,1.362-1.823s-.475-.713-.934-.777a1.619,1.619,0,0,0-.3.692,3.379,3.379,0,0,1-.925,1.079c-.288.257-.568.525-.846.792a3.139,3.139,0,0,1-1.664.644A8.952,8.952,0,0,0,545.082,691.355Z" transform="translate(-428.081 -534.862)" opacity="0.1"/>
    <path id="Pfad_2479" data-name="Pfad 2479" d="M545.082,690.95s-1.188.561-1.043,1.54a21.723,21.723,0,0,1,.164,2.22,2.415,2.415,0,0,1-.176,2.31,1.578,1.578,0,0,0-.152,1.331s.337-.886,1.207-.238a6.964,6.964,0,0,0,2.272.951s-.725-3.175-.28-3.62c0,0,.77-1.143.071-1.868a1.239,1.239,0,0,1-.352-1.4l2.251-1.207s.475,0,1.112-.989a16.926,16.926,0,0,1,1.362-1.82s-.475-.725-.934-.78a1.642,1.642,0,0,0-.3.694,3.38,3.38,0,0,1-.925,1.079c-.288.257-.568.523-.846.791a3.159,3.159,0,0,1-1.664.644A7.824,7.824,0,0,0,545.082,690.95Z" transform="translate(-428.081 -534.549)" fill="#f86d70"/>
    <path id="Pfad_2480" data-name="Pfad 2480" d="M553.58,727.09a12.451,12.451,0,0,1,.951,1.588C554.521,728.678,554.393,727.223,553.58,727.09Z" transform="translate(-435.56 -564.822)" opacity="0.1"/>
    <path id="Pfad_2481" data-name="Pfad 2481" d="M548.5,707.9a1.131,1.131,0,0,0,1.566.126A1.991,1.991,0,0,1,548.5,707.9Z" transform="translate(-431.687 -550.193)" opacity="0.1"/>
    <path id="Pfad_2482" data-name="Pfad 2482" d="M534.949,690.646a.425.425,0,0,0-.1-.188,2,2,0,0,0-.753-.67,1.041,1.041,0,0,0-1.188.338c-.112.152-.181.335-.278.5a2.194,2.194,0,0,1-.758.713c-.181.112-.371.207-.542.333a2.07,2.07,0,0,0-.749,2.053,3.279,3.279,0,0,1,.173.993,1.775,1.775,0,0,1-.309.713,2.221,2.221,0,0,0-.347.713.7.7,0,0,0,.214.713,1.267,1.267,0,0,1,.238.162.7.7,0,0,1,.112.174,1.706,1.706,0,0,0,1.065.839c.2.052.475.033.544-.161a.345.345,0,0,1,.038-.1c.067-.1.212-.04.314,0a1.923,1.923,0,0,0,.756.216.61.61,0,0,0,.307-.036.568.568,0,0,0,.209-.181,2.223,2.223,0,0,0,.359-1.138,2.71,2.71,0,0,0,0-.784,4.6,4.6,0,0,1-.292-1.219c.038-.418.4-.815.459-1.262a.965.965,0,0,0-.164-.663,1.01,1.01,0,0,1-.126-.195.2.2,0,0,1,.038-.214.309.309,0,0,1,.1-.048.813.813,0,0,0,.475-.713,1.46,1.46,0,0,1,.031-.337C534.821,691.026,534.975,690.833,534.949,690.646Z" transform="translate(-417.64 -536.334)" opacity="0.1"/>
    <path id="Pfad_2483" data-name="Pfad 2483" d="M534.552,690.646a.429.429,0,0,0-.1-.188,1.989,1.989,0,0,0-.753-.67,1.041,1.041,0,0,0-1.188.338,5.633,5.633,0,0,0-.278.5,2.194,2.194,0,0,1-.758.713c-.181.112-.371.207-.542.333a2.077,2.077,0,0,0-.751,2.053,3.215,3.215,0,0,1,.176.993,1.748,1.748,0,0,1-.311.713,2.215,2.215,0,0,0-.345.713.7.7,0,0,0,.214.713,1.354,1.354,0,0,1,.238.162.688.688,0,0,1,.109.174,1.718,1.718,0,0,0,1.067.839c.2.052.475.033.544-.162a.347.347,0,0,1,.038-.1c.067-.1.212-.04.314,0a1.9,1.9,0,0,0,.753.216.619.619,0,0,0,.309-.036.543.543,0,0,0,.207-.181,2.2,2.2,0,0,0,.359-1.138,2.633,2.633,0,0,0,0-.784,4.708,4.708,0,0,1-.295-1.219c.036-.418.4-.815.459-1.262a.951.951,0,0,0-.164-.663,1.121,1.121,0,0,1-.124-.195.2.2,0,0,1,.038-.214.266.266,0,0,1,.1-.048.81.81,0,0,0,.475-.713,1.607,1.607,0,0,1,.033-.337C534.423,691.026,534.578,690.833,534.552,690.646Z" transform="translate(-417.335 -536.334)" fill="#2f2e41"/>
    <g id="Gruppe_516" data-name="Gruppe 516" transform="translate(114.111 153.395)" opacity="0.1">
      <path id="Pfad_2484" data-name="Pfad 2484" d="M537.453,723.423a.347.347,0,0,0-.038.1.316.316,0,0,1-.285.183c.178.017.366-.024.425-.183a.348.348,0,0,1,.038-.1.111.111,0,0,1,.047-.04A.159.159,0,0,0,537.453,723.423Z" transform="translate(-537.13 -715.379)"/>
      <path id="Pfad_2485" data-name="Pfad 2485" d="M545.2,690.672a.405.405,0,0,0-.1-.188,1.952,1.952,0,0,0-.753-.661.951.951,0,0,0-.43-.064.872.872,0,0,1,.285.055,1.95,1.95,0,0,1,.753.661.405.405,0,0,1,.1.188c.026.188-.128.38-.181.554a1.467,1.467,0,0,0-.031.337.818.818,0,0,1-.475.713.266.266,0,0,0-.1.047.192.192,0,0,0-.038.214,1.012,1.012,0,0,0,.126.195.951.951,0,0,1,.164.663c-.057.447-.421.813-.461,1.26a4.293,4.293,0,0,0,.295,1.222,2.627,2.627,0,0,1,0,.784A2.213,2.213,0,0,1,544,697.79a.565.565,0,0,1-.209.181.477.477,0,0,1-.152.038.64.64,0,0,0,.292-.038.567.567,0,0,0,.209-.181,2.214,2.214,0,0,0,.356-1.138,2.631,2.631,0,0,0,0-.784,4.694,4.694,0,0,1-.295-1.222c.036-.421.4-.813.461-1.26a.951.951,0,0,0-.164-.663,1.012,1.012,0,0,1-.126-.195.192.192,0,0,1,.038-.214.266.266,0,0,1,.1-.048.81.81,0,0,0,.475-.713,1.6,1.6,0,0,1,.033-.337C545.073,691.053,545.228,690.86,545.2,690.672Z" transform="translate(-542.093 -689.756)"/>
    </g>
    <path id="Pfad_2486" data-name="Pfad 2486" d="M542.77,763a.632.632,0,0,0,.647.178" transform="translate(-427.319 -592.197)" opacity="0.1"/>
    <path id="Pfad_2487" data-name="Pfad 2487" d="M554.323,796.56a.4.4,0,0,1-.323.083" transform="translate(-435.88 -617.781)" opacity="0.1"/>
    <path id="Pfad_2488" data-name="Pfad 2488" d="M215,783.163l3.166-1.861a7.646,7.646,0,0,0-1.619-1.937l-5.97,1.859,4.677-2.752A7.605,7.605,0,0,0,204,785.143c0,4.2,3.406,4.347,7.605,4.347s7.605-.147,7.605-4.347a7.555,7.555,0,0,0-.654-3.09Z" transform="translate(-169.063 -603.279)" fill="#fafcff"/>
    <path id="Pfad_2489" data-name="Pfad 2489" d="M215.81,802.856a5.939,5.939,0,0,0-1.122-.882,5.257,5.257,0,0,0-1.847-.9,13.936,13.936,0,0,0-1.813-.052,4.237,4.237,0,0,1-2.778-1.274,8.4,8.4,0,0,0-1.293-1.336,2.83,2.83,0,0,0-1.935-.356,4.674,4.674,0,0,0-.573.119,7.605,7.605,0,0,0-.449,2.579c0,4.2,3.406,4.347,7.605,4.347a15.948,15.948,0,0,0,5.255-.551l-.238-.425a5.971,5.971,0,0,0-.813-1.267Z" transform="translate(-169.063 -618.889)" opacity="0.1"/>
    <path id="Pfad_2490" data-name="Pfad 2490" d="M995,783.163l3.166-1.861a7.647,7.647,0,0,0-1.619-1.937l-5.97,1.858,4.677-2.752A7.605,7.605,0,0,0,984,785.143c0,4.2,3.406,4.347,7.605,4.347s7.605-.147,7.605-4.347a7.557,7.557,0,0,0-.654-3.09Z" transform="translate(-763.684 -603.279)" fill="#fafcff"/>
    <path id="Pfad_2491" data-name="Pfad 2491" d="M995.81,802.856a5.942,5.942,0,0,0-1.122-.882,5.258,5.258,0,0,0-1.847-.9,13.935,13.935,0,0,0-1.813-.052,4.237,4.237,0,0,1-2.778-1.274,8.4,8.4,0,0,0-1.293-1.336,2.83,2.83,0,0,0-1.935-.356,4.7,4.7,0,0,0-.573.119,7.607,7.607,0,0,0-.449,2.579c0,4.2,3.406,4.347,7.605,4.347a15.949,15.949,0,0,0,5.255-.551l-.238-.425A5.98,5.98,0,0,0,995.81,802.856Z" transform="translate(-763.684 -618.889)" opacity="0.1"/>
    <path id="Pfad_2492" data-name="Pfad 2492" d="M378.287,773.462l-2.474-1.455a6.04,6.04,0,0,1,1.264-1.511l4.665,1.45-3.655-2.139a5.942,5.942,0,0,1,8.8,5.193c0,3.282-2.659,3.4-5.942,3.4S375,778.282,375,775a5.91,5.91,0,0,1,.511-2.41Z" transform="translate(-299.422 -596.829)" fill="#fafcff"/>
    <path id="Pfad_2493" data-name="Pfad 2493" d="M383.55,788.834a4.621,4.621,0,0,1,.875-.687,4.054,4.054,0,0,1,1.443-.713,10.571,10.571,0,0,1,1.426-.04,3.328,3.328,0,0,0,2.17-1,6.577,6.577,0,0,1,1.01-1.046,2.21,2.21,0,0,1,1.512-.278,4.039,4.039,0,0,1,.447.093,5.9,5.9,0,0,1,.345,2c0,3.282-2.659,3.4-5.942,3.4a12.49,12.49,0,0,1-4.1-.43l.178-.333A4.57,4.57,0,0,1,383.55,788.834Z" transform="translate(-305.315 -609)" opacity="0.1"/>
    <path id="Pfad_2494" data-name="Pfad 2494" d="M458.287,773.462l-2.474-1.455a6.042,6.042,0,0,1,1.264-1.511l4.665,1.45-3.655-2.139a5.942,5.942,0,0,1,8.8,5.193c0,3.282-2.659,3.4-5.942,3.4S455,778.282,455,775a5.911,5.911,0,0,1,.511-2.41Z" transform="translate(-360.409 -596.829)" fill="#fafcff"/>
    <path id="Pfad_2495" data-name="Pfad 2495" d="M463.55,788.834a4.622,4.622,0,0,1,.875-.687,4.057,4.057,0,0,1,1.443-.713,10.572,10.572,0,0,1,1.426-.04,3.327,3.327,0,0,0,2.17-1,6.579,6.579,0,0,1,1.01-1.046,2.21,2.21,0,0,1,1.512-.278,4.037,4.037,0,0,1,.447.093,5.9,5.9,0,0,1,.345,2c0,3.282-2.659,3.4-5.942,3.4a12.49,12.49,0,0,1-4.1-.43l.178-.333A4.569,4.569,0,0,1,463.55,788.834Z" transform="translate(-366.302 -609)" opacity="0.1"/>
    <path id="Pfad_2496" data-name="Pfad 2496" d="M749.287,773.462l-2.474-1.454a6.045,6.045,0,0,1,1.264-1.512l4.665,1.45-3.655-2.139a5.942,5.942,0,0,1,8.8,5.193c0,3.282-2.66,3.4-5.942,3.4S746,778.282,746,775a5.911,5.911,0,0,1,.511-2.41Z" transform="translate(-582.248 -596.829)" fill="#fafcff"/>
    <path id="Pfad_2497" data-name="Pfad 2497" d="M754.55,788.834a4.622,4.622,0,0,1,.875-.687,4.056,4.056,0,0,1,1.443-.713,10.571,10.571,0,0,1,1.426-.04,3.328,3.328,0,0,0,2.17-1,6.572,6.572,0,0,1,1.01-1.046,2.21,2.21,0,0,1,1.512-.278,4.034,4.034,0,0,1,.447.093,5.9,5.9,0,0,1,.345,2c0,3.282-2.66,3.4-5.942,3.4a12.49,12.49,0,0,1-4.1-.43l.178-.333A4.571,4.571,0,0,1,754.55,788.834Z" transform="translate(-588.141 -609)" opacity="0.1"/>
    <path id="Pfad_2498" data-name="Pfad 2498" d="M484.921,702.2a4.93,4.93,0,0,0,.651-2.493c0-2.253-1.4-4.081-3.118-4.081s-3.118,1.828-3.118,4.081a4.929,4.929,0,0,0,.651,2.493,5.1,5.1,0,0,0,0,4.991,5.1,5.1,0,0,0,0,4.991,5.1,5.1,0,0,0,0,4.991,4.921,4.921,0,0,0-.651,2.493c0,2.253,1.4,4.081,3.118,4.081s3.118-1.828,3.118-4.081a4.921,4.921,0,0,0-.651-2.493,5.1,5.1,0,0,0,0-4.991,5.1,5.1,0,0,0,0-4.991A5.1,5.1,0,0,0,484.921,702.2Z" transform="translate(-378.96 -540.839)" fill="#3f3d56"/>
    <ellipse id="Ellipse_243" data-name="Ellipse 243" cx="3.118" cy="4.081" rx="3.118" ry="4.081" transform="translate(100.376 149.805)" fill="#3f3d56"/>
    <ellipse id="Ellipse_244" data-name="Ellipse 244" cx="3.118" cy="4.081" rx="3.118" ry="4.081" transform="translate(100.376 144.819)" fill="#3f3d56"/>
    <path id="Pfad_2499" data-name="Pfad 2499" d="M456.039,449.772a14.991,14.991,0,0,0,1.16-1.709l-8.185-1.345,8.858.067a14.961,14.961,0,0,0,.285-11.831l-11.883,6.165,10.959-8.055a14.93,14.93,0,1,0-24.66,16.708,14.958,14.958,0,0,0-1.7,2.724l10.631,5.523-11.337-3.8a14.947,14.947,0,0,0,2.408,14.022,14.93,14.93,0,1,0,23.472,0,14.935,14.935,0,0,0,0-18.462Z" transform="translate(-340.876 -335.003)" fill="#fafcff"/>
    <path id="Pfad_2500" data-name="Pfad 2500" d="M429.359,565.361a14.856,14.856,0,0,0,3.194,9.231,14.93,14.93,0,1,0,23.472,0C458.031,572.054,429.359,563.681,429.359,565.361Z" transform="translate(-340.862 -441.362)" opacity="0.1"/>
    <path id="Pfad_2501" data-name="Pfad 2501" d="M671.687,681.111a6.23,6.23,0,0,0,.822-3.156c0-2.852-1.766-5.164-3.945-5.164s-3.945,2.312-3.945,5.164a6.235,6.235,0,0,0,.825,3.156,652728.28,652728.28,0,0,0,0,12.622,6.452,6.452,0,0,0,0,6.312,6.228,6.228,0,0,0-.825,3.156c0,2.852,1.768,5.165,3.945,5.165s3.945-2.312,3.945-5.165a6.225,6.225,0,0,0-.822-3.156,652845.06,652845.06,0,0,1,0-12.625A6.465,6.465,0,0,0,671.687,681.111Z" transform="translate(-520.209 -523.427)" fill="#3f3d56"/>
    <ellipse id="Ellipse_245" data-name="Ellipse 245" cx="3.945" cy="5.164" rx="3.945" ry="5.164" transform="translate(144.411 143.053)" fill="#3f3d56"/>
    <ellipse id="Ellipse_246" data-name="Ellipse 246" cx="3.945" cy="5.164" rx="3.945" ry="5.164" transform="translate(144.411 136.741)" fill="#3f3d56"/>
    <path id="Pfad_2502" data-name="Pfad 2502" d="M606.1,361.661a18.406,18.406,0,0,1-1.469-2.163L615,357.8l-11.211.083a18.927,18.927,0,0,1-.361-14.973l15.042,7.8-13.873-10.2a18.9,18.9,0,1,1,31.21,21.152,18.938,18.938,0,0,1,2.156,3.446L624.5,372.1l14.348-4.815a18.9,18.9,0,0,1-3.047,17.744,18.9,18.9,0,1,1-29.708,0,18.9,18.9,0,0,1,0-23.367Z" transform="translate(-472.511 -262.952)" fill="#fafcff"/>
    <path id="Pfad_2503" data-name="Pfad 2503" d="M639.87,507.928a18.811,18.811,0,0,1-4.04,11.684,18.9,18.9,0,1,1-29.708,0C603.588,516.4,639.87,505.808,639.87,507.928Z" transform="translate(-472.532 -397.535)" opacity="0.1"/>
  </g>
</svg>
