<svg xmlns="http://www.w3.org/2000/svg" width="249.586" height="176.738" viewBox="0 0 249.586 176.738">
  <g id="Gruppe_523" data-name="Gruppe 523" transform="translate(0 0)">
    <path id="Path_133" data-name="Path 133" d="M843.87,531.6a55.883,55.883,0,0,1-2.611,15.448c-.035.116-.074.23-.112.346H831.4c.01-.1.021-.22.031-.346.649-7.467-3.061-52.375-7.539-60.148C824.288,487.531,844.625,507.873,843.87,531.6Z" transform="translate(-627.925 -386.162)" fill="#f0f0f0"/>
    <path id="Path_134" data-name="Path 134" d="M864.566,596.912c-.082.116-.166.232-.253.346H857c.055-.1.12-.215.194-.346,1.207-2.179,4.781-8.694,8.1-15.448,3.563-7.258,6.835-14.791,6.56-17.518C871.941,564.562,874.408,583.308,864.566,596.912Z" transform="translate(-649.352 -436.026)" fill="#f0f0f0"/>
    <path id="Path_133-2" data-name="Path 133" d="M927.845,588.871a30.638,30.638,0,0,1-1.431,8.469c-.019.064-.041.126-.062.19h-5.341c.006-.057.011-.121.017-.19.356-4.094-1.678-28.713-4.133-32.974C917.111,564.711,928.26,575.863,927.845,588.871Z" transform="translate(-686.971 -435.945)" fill="#f0f0f0"/>
    <path id="Path_134-2" data-name="Path 134" d="M939.192,624.675c-.045.064-.091.127-.139.19h-4.007l.106-.19c.662-1.195,2.621-4.766,4.439-8.469,1.953-3.979,3.747-8.109,3.6-9.6C943.235,606.94,944.587,617.217,939.192,624.675Z" transform="translate(-698.718 -463.28)" fill="#f0f0f0"/>
    <path id="Path_133-3" data-name="Path 133" d="M784.845,588.871a30.635,30.635,0,0,1-1.431,8.469c-.019.064-.041.126-.062.19h-5.341c.006-.057.011-.121.017-.19.356-4.094-1.678-28.713-4.133-32.974C774.111,564.711,785.26,575.863,784.845,588.871Z" transform="translate(-593.312 -435.944)" fill="#f0f0f0"/>
    <path id="Path_134-3" data-name="Path 134" d="M796.192,624.675c-.045.064-.091.127-.139.19h-4.007l.106-.19c.662-1.195,2.621-4.766,4.439-8.469,1.953-3.979,3.747-8.109,3.6-9.6C800.235,606.94,801.587,617.217,796.192,624.675Z" transform="translate(-605.059 -463.28)" fill="#f0f0f0"/>
    <path id="Pfad_2596" data-name="Pfad 2596" d="M314.573,405.763h5.135l2.443-19.808h-7.579Z" transform="translate(-203.589 -249.788)" fill="#ffb7b7"/>
    <path id="Pfad_2597" data-name="Pfad 2597" d="M527.871,638.712h10.114a6.445,6.445,0,0,1,6.445,6.445v.21H527.871Z" transform="translate(-418.197 -484.413)" fill="#2f2e41"/>
    <path id="Pfad_2598" data-name="Pfad 2598" d="M235.761,405.763H240.9l2.443-19.808H235.76Z" transform="translate(-152.582 -249.788)" fill="#ffb7b7"/>
    <path id="Pfad_2599" data-name="Pfad 2599" d="M449.059,638.712h10.114a6.445,6.445,0,0,1,6.445,6.445v.21H449.059Z" transform="translate(-367.19 -484.413)" fill="#2f2e41"/>
    <path id="Pfad_2600" data-name="Pfad 2600" d="M229.832,187.638v52.3l1.324,33.764H242.08l3.641-63.555L253,236.3l4.634,36.742,13.24-.662-8.937-84.74Z" transform="translate(-148.746 -121.438)" fill="#2f2e41"/>
    <circle id="Ellipse_261" data-name="Ellipse 261" cx="7.944" cy="7.944" r="7.944" transform="translate(85.84 3.307)" fill="#ffb8b8"/>
    <path id="Pfad_2601" data-name="Pfad 2601" d="M248.945,60.275l-2.115,2.234L244.844,107.2l23.5-.662-5.627-39.06-4.965-4.758-2.519-2.441Z" transform="translate(-158.461 -39.01)" fill="#fff"/>
    <path id="Pfad_2602" data-name="Pfad 2602" d="M445.789,270.166l1.784-2.9.533,6.206s4.3,13.9,3.972,26.15,1.655,41.046-.993,41.377-13.9.993-13.9-1.324-.662-63.886-.662-63.886Z" transform="translate(-359.075 -244.019)" fill="#3f3d56"/>
    <path id="Pfad_2603" data-name="Pfad 2603" d="M496.62,267.27l4.505,3.557,9.93,3.641s0,42.37,1.986,52.3,5.627,10.923.993,11.255-4.3-1.324-4.3-1.324,3.31-16.551-.993-19.861-12.579-22.509-11.917-33.1S495.959,267.27,496.62,267.27Z" transform="translate(-397.861 -244.018)" fill="#3f3d56"/>
    <path id="Pfad_2604" data-name="Pfad 2604" d="M457.788,215.1s.675-1.185.518-5.145,5.873-1.72,10.912-2.1,3.972,6.611,3.972,6.611.363-.415,1.142-3.789a11.013,11.013,0,0,0-.989-6.734c-.52-3.544-3.325-2.408-3.325-2.408a1.471,1.471,0,0,1,1.091,1.65c-1.143-2-3.948-.869-3.948-.869-3.741-2.347-7.532.744-7.532.744-4.519,1.026-1.869,4.619-1.869,4.619C453.215,209.981,457.788,215.1,457.788,215.1Z" transform="translate(-371.519 -201.366)" fill="#2f2e41"/>
    <path id="Pfad_2605" data-name="Pfad 2605" d="M427.731,432.136a3.351,3.351,0,0,0-.594-5.1l1.431-7.523-4.36-1.985-1.872,10.652a3.369,3.369,0,0,0,5.395,3.959Z" transform="translate(-349.613 -341.262)" fill="#ffb7b7"/>
    <path id="Pfad_2606" data-name="Pfad 2606" d="M428.087,290.563l-.879-.471s-4.748,1.8-4.417,3.119-2.648,47.666-1.655,49.321,8.937.331,8.937.331Z" transform="translate(-348.987 -258.788)" fill="#3f3d56"/>
    <path id="Pfad_2607" data-name="Pfad 2607" d="M543.594,422.655a3.351,3.351,0,0,1-.118-5.137l-2.458-7.253,4.043-2.569,3.328,10.291a3.369,3.369,0,0,1-4.795,4.668Z" transform="translate(-426.706 -334.902)" fill="#ffb7b7"/>
    <path id="Pfad_2608" data-name="Pfad 2608" d="M527.655,335.573s8.051.212,8.806-1.564-8.608-47.261-8.463-48.618-4.806-2.478-4.806-2.478l-.805.588Z" transform="translate(-414.647 -254.142)" fill="#3f3d56"/>
    <path id="Pfad_2609" data-name="Pfad 2609" d="M616.122,360.078l-4.984-24.425-2.19-18.04-4.851,3.138.67,19.88,7.743,20.6a2.7,2.7,0,1,0,3.612-1.151Z" transform="translate(-467.53 -276.6)" fill="#ffb7b7"/>
    <path id="Pfad_2610" data-name="Pfad 2610" d="M503.951,364.345l1.38-24.89-.457-18.167,6.413,2.4,1.071,19.766-4.665,21.5a2.7,2.7,0,1,1-3.741-.614Z" transform="translate(-401.979 -278.979)" fill="#ffb7b7"/>
    <path id="Pfad_2611" data-name="Pfad 2611" d="M327.1,423.884h3.277l1.559-12.64H327.1Z" transform="translate(-211.697 -266.154)" fill="#ffb7b7"/>
    <path id="Pfad_2612" data-name="Pfad 2612" d="M541.742,645.4H548.2a4.113,4.113,0,0,1,4.113,4.112v.134H541.742Z" transform="translate(-427.174 -488.743)" fill="#2f2e41"/>
    <path id="Pfad_2613" data-name="Pfad 2613" d="M362.281,420.047l3.238.5,3.473-12.253-4.78-.739Z" transform="translate(-234.466 -263.768)" fill="#ffb7b7"/>
    <path id="Pfad_2614" data-name="Pfad 2614" d="M576.222,640.966l6.378.987h0a4.113,4.113,0,0,1,3.435,4.693l-.02.132-10.442-1.615Z" transform="translate(-449.069 -485.872)" fill="#2f2e41"/>
    <path id="Pfad_2615" data-name="Pfad 2615" d="M518.865,465.778l-.017-.092-11.863-64.139a24.228,24.228,0,0,1,2.141-15.151l7.18-14.36,21.425,2.9,2.529,18.283L549.27,428.1l-.009.028L537.716,464.8l-7.566.5,6.7-32.734L524.58,404.688l.866,60.591Z" transform="translate(-404.424 -311.822)" fill="#2f2e41"/>
    <path id="Pfad_2616" data-name="Pfad 2616" d="M547.959,325.111l-.141-.222c-.025-.04-2.628-3.961-9.71-1.343-7.229,2.673-12.831-2.49-12.887-2.542l-.028-.026-1.637-14.593-1.933-11.846,6.153-1.079,3.025-1.815,12.028-.214,3.165,2.489,5.2.566.476,10.794,0,.012Z" transform="translate(-414.153 -259.655)" fill="#fff"/>
    <path id="Pfad_2617" data-name="Pfad 2617" d="M601.156,311.8v-9.243l1.461-2.667.059,0a4.381,4.381,0,0,1,3.027,1.375c1.47,1.493,2.136,3.982,1.979,7.4l0,.062Z" transform="translate(-465.626 -265.127)" fill="#fafcff"/>
    <path id="Pfad_2618" data-name="Pfad 2618" d="M515.19,310.919l-7.448-.894-.006-.086c-.254-3.714.394-6.471,1.927-8.194a4.724,4.724,0,0,1,3.052-1.662l.043,0,2.016,1.833Z" transform="translate(-405.131 -265.254)" fill="#fafcff"/>
    <path id="Pfad_2619" data-name="Pfad 2619" d="M551.332,244.3h-19.6a1.522,1.522,0,0,1-1.521-1.521v-7.1a11.32,11.32,0,1,1,22.64,0v7.1A1.522,1.522,0,0,1,551.332,244.3Z" transform="translate(-419.712 -216.251)" fill="#2f2e41"/>
    <circle id="Ellipse_262" data-name="Ellipse 262" cx="8.3" cy="8.3" r="8.3" transform="translate(113.976 11.383)" fill="#ffb7b7"/>
    <path id="Pfad_2620" data-name="Pfad 2620" d="M554.959,239.135H544a.846.846,0,0,1-.838-.74l-.142-1.135a.507.507,0,0,0-.962-.151l-.718,1.539a.848.848,0,0,1-.766.487h-1.664a.845.845,0,0,1-.841-.925l.656-6.855a.851.851,0,0,1,.483-.688,17.134,17.134,0,0,1,15.125.009.846.846,0,0,1,.478.648l.983,6.846a.845.845,0,0,1-.836.965Z" transform="translate(-424.795 -219.193)" fill="#2f2e41"/>
    <path id="Pfad_2621" data-name="Pfad 2621" d="M591.236,415.927a3.031,3.031,0,0,0,1.624-4.355l7.1-8.1-5.545-.765-5.9,7.807a3.048,3.048,0,0,0,2.713,5.411Z" transform="translate(-456.564 -331.674)" fill="#9f616a"/>
    <path id="Pfad_2622" data-name="Pfad 2622" d="M392.588,407.177h-4.954l-2.357-19.11h7.313Z" transform="translate(-249.348 -251.154)" fill="#9f616a"/>
    <path id="Pfad_2623" data-name="Pfad 2623" d="M597.286,645.434H581.31v-.2a6.218,6.218,0,0,1,6.218-6.218h9.758Z" transform="translate(-452.783 -484.608)" fill="#2f2e41"/>
    <path id="Pfad_2624" data-name="Pfad 2624" d="M456.306,397l-4.732,1.469-7.918-17.552,6.984-2.168Z" transform="translate(-287.131 -245.126)" fill="#9f616a"/>
    <path id="Pfad_2625" data-name="Pfad 2625" d="M675.364,632.538l-15.257,4.737-.06-.193a6.218,6.218,0,0,1,4.094-7.782h0l9.318-2.893Z" transform="translate(-503.558 -476.449)" fill="#2f2e41"/>
    <path id="Path_973" data-name="Path 973" d="M598.8,393.871l-7.338,8.4,5.745.517Z" transform="translate(-459.35 -325.954)" fill="#e6e6e6"/>
    <path id="Path_975" data-name="Path 975" d="M598.775,423.017s-2.549,1.274-2.867,7.009.956,20.71.956,20.71a37.4,37.4,0,0,0,0,12.744c1.274,6.053-1.274,28.035.319,28.035s9.876.956,10.195,0,.637-15.292.637-15.292,2.549-7.328,0-11.787c0,0,8.9,15.539,14.655,27.4,1.26,2.6,10.832-.319,9.239-3.186s-5.416-15.93-5.416-15.93-2.867-9.558-7.965-13.7l2.549-20.39s5.416-13.7,2.231-15.611S598.775,423.017,598.775,423.017Z" transform="translate(-462.197 -344.267)" fill="#2f2e41"/>
    <circle id="Ellipse_182" data-name="Ellipse 182" cx="8.283" cy="8.283" r="8.283" transform="translate(137.853 10.252)" fill="#a0616a"/>
    <path id="Path_976" data-name="Path 976" d="M619.226,279.187l-10.3,6.053a13.539,13.539,0,0,0-5.416,6.053,18.408,18.408,0,0,0,0,11.151c1.274,2.549-.534,8.921-.534,8.921l-1.593,14.655s-5.734,5.416-1.274,6.053,12.425-.319,17.2,0,10.195.956,8.6-2.231-3.5-5.416-1.593-11.787c1.5-4.986,1.431-23.629,1.332-31.5a6.338,6.338,0,0,0-3.078-5.356Z" transform="translate(-463.851 -251.731)" fill="#e5e5e5"/>
    <path id="Path_980" data-name="Path 980" d="M626.2,307.633l.956,19.434-9.262,18.757-1.571-.6,9.558-17.522Z" transform="translate(-475.44 -270.141)" opacity="0.1"/>
    <path id="Path_982" data-name="Path 982" d="M654.244,370.363v-2.231l-10.831,17.842Z" transform="translate(-492.975 -309.296)" opacity="0.1"/>
    <path id="Path_983" data-name="Path 983" d="M609.689,223.23l-1.368-.547s2.864-3.152,6.847-2.878l-1.12-1.234s2.739-1.1,5.229,1.782a24.341,24.341,0,0,1,3.768,5.295h1.466l-.612,1.348,2.142,1.348-2.2-.241a7.458,7.458,0,0,1-.208,3.491l.06,1.065s-2.55-3.946-2.55-4.493v1.371s-1.369-1.234-1.369-2.056l-.747.96-.374-1.507-4.606,1.507.746-1.234-2.864.411,1.12-1.507s-3.237,1.782-3.361,3.289a8.084,8.084,0,0,1-1.743,3.426l-.747-1.371S606.08,225.286,609.689,223.23Z" transform="translate(-469.432 -212.368)" fill="#2f2e41"/>
    <path id="Pfad_2626" data-name="Pfad 2626" d="M621.352,417.406a3.031,3.031,0,0,0,.825-4.574l5.553-9.23-5.593.231-4.416,8.73a3.048,3.048,0,0,0,3.63,4.844Z" transform="translate(-475.736 -332.251)" fill="#9f616a"/>
    <path id="Path_981" data-name="Path 981" d="M635.654,290.052l2.389-.478s7.168,5.257,4.938,15.77-12.106,26.443-12.106,26.443-2.231,2.867-2.867,3.5-1.911,0-1.274.956-.956,1.593-.956,1.593-7.009,0-6.372-2.549,11.47-20.71,11.47-20.71L629.282,297.7S628.007,289.414,635.654,290.052Z" transform="translate(-477.411 -258.453)" fill="#e5e5e5"/>
    <path id="Pfad_2627" data-name="Pfad 2627" d="M565.817,658.072H371.131a.355.355,0,0,1,0-.706H565.817a.355.355,0,0,1,0,.706Z" transform="translate(-316.549 -496.486)" fill="#fff"/>
    <path id="Pfad_2628" data-name="Pfad 2628" d="M223.483,243.135v.121h-3.327a1.925,1.925,0,0,0-1.925,1.925v7.048a1.925,1.925,0,0,0,1.925,1.925h18.249a1.925,1.925,0,0,0,1.925-1.925v-7.047a1.925,1.925,0,0,0-1.925-1.925H225.851v-.121Z" transform="translate(-217.8 -228.398)" fill="#3f3d56"/>
    <path id="Pfad_2629" data-name="Pfad 2629" d="M316.079,273.2c.077,10.4-6.568,8.828-14.671,8.828s-13.964,1.549-14.671-8.828c-1.122-16.489,3.208-28.838,14.671-28.838C313.266,244.366,315.957,256.714,316.079,273.2Z" transform="translate(-262.026 -229.195)" fill="#2f2e41"/>
    <path id="Pfad_2630" data-name="Pfad 2630" d="M227.478,259.378a4.042,4.042,0,0,1-2.5,5.672l-.739,14.344-6.011-4.424,1.624-12.943a4.064,4.064,0,0,1,7.624-2.649Z" transform="translate(-217.8 -237.43)" fill="#a0616a"/>
    <path id="Pfad_2631" data-name="Pfad 2631" d="M384.386,456.169a4.042,4.042,0,0,0-1.766-5.941l1.066-14.323-6.519,3.635-.013,13.045a4.064,4.064,0,0,0,7.231,3.584Z" transform="translate(-320.502 -353.158)" fill="#a0616a"/>
    <path id="Pfad_2632" data-name="Pfad 2632" d="M95.983,452.542h4.928l2.344-19.007H95.982Z" transform="translate(-62.119 -280.581)" fill="#a0616a"/>
    <path id="Pfad_2633" data-name="Pfad 2633" d="M309.432,684.213h9.7a6.184,6.184,0,0,1,6.184,6.185v.2H309.432Z" transform="translate(-276.825 -513.861)" fill="#2f2e41"/>
    <path id="Pfad_2634" data-name="Pfad 2634" d="M184.845,452.542h4.928l2.344-19.007h-7.273Z" transform="translate(-119.63 -280.581)" fill="#a0616a"/>
    <path id="Pfad_2635" data-name="Pfad 2635" d="M398.293,684.213H408a6.184,6.184,0,0,1,6.184,6.185v.2H398.293Z" transform="translate(-334.335 -513.861)" fill="#2f2e41"/>
    <path id="Pfad_2636" data-name="Pfad 2636" d="M374.615,381.121l-.214-.039c-1.795-.325-3.612-.654-5.209-1l-.158-.034v-.162c-.027-7.285-.055-14.57-.1-21.92a46.333,46.333,0,0,1-4.633-24.835l.009-.09.074-.053a4.764,4.764,0,0,1,4.8-.371,5.324,5.324,0,0,1,2.733,4.041c1.453,7.916,2.956,16.114,4.633,24.192l.006.029,0,.03c-.621,6.588-1.264,13.4-1.923,19.992Z" transform="translate(-312.213 -286.001)" fill="#fff"/>
    <path id="Pfad_2637" data-name="Pfad 2637" d="M321.336,498.871l-.039-.185c-2.305-10.9-4.53-19.784-6.683-28.371-2.579-10.291-5.023-20.043-7.49-32.662.339,15.914,1.126,27.347,2.03,40.489.409,5.934.831,12.07,1.259,19.234l.013.219-.219-.006c-7.712-.2-15.614-.674-23.255-1.134l-.2-.012.014-.2c1.447-21.324,1.9-35.181,2.231-45.3.7-21.346.806-24.627,8.757-42.693.3-.685,2.1-2.71,4.077-2.4l15.644,2.435.027.138c.442,2.224,2.632,8.971,5.664,18.31,6.482,19.964,16.277,50.133,19.336,68.117l.035.2-.2.029c-4.444.632-7.643,1.289-10.737,1.925-2.927.6-5.953,1.224-10.073,1.839Z" transform="translate(-262.146 -333.684)" fill="#2f2e41"/>
    <path id="Pfad_2638" data-name="Pfad 2638" d="M307.8,357.99a16.325,16.325,0,0,1-11.261-4.269,3.339,3.339,0,0,1-1.647-2.6,3.386,3.386,0,0,1,.8-2.747c-2.9-3.511-5.9-7.14-8.762-10.835l-.079-.1.092-.175c1.876-3.584,3.815-7.289,5.678-10.95a1.913,1.913,0,0,1,1.56-1.181,2.225,2.225,0,0,1,1.718.384l0-.089c.078-1.853.156-3.707.236-5.464l.009-.188.188,0c3.581-.079,7.285-.161,10.922-.376l.138-.008,1.8,4.024a14.756,14.756,0,0,1,8.466,1.718l.119.064-.014.134a81.936,81.936,0,0,0,.47,20.774,42.464,42.464,0,0,1-.754,8.907l-.019.075-.064.043a17.163,17.163,0,0,1-9.6,2.862Z" transform="translate(-262.207 -277.749)" fill="#fff"/>
    <path id="Pfad_2639" data-name="Pfad 2639" d="M247.234,322.148l-.24-.11c-2.806-1.408-5.62-2.969-8.342-4.479l-.376-.073c-7.166-1.439-11.114-2.231-17.579-6.022l-.05-.029-.027-.051c-3.237-6.184-4.14-11.59-3.332-19.945l.016-.168.168-.013c.7-.057,1.843-.1,2.948-.132,1.075-.036,2.186-.073,2.867-.126l.158-.013.049.151c.847,2.616,1.567,5.057,2.329,7.641.783,2.656,1.593,5.4,2.579,8.452,3.61,1.037,13.288.727,16.3.318a5.384,5.384,0,0,1,4.7,2.138l.056.07-.014.088c-.662,4.043-1.423,8.11-2.159,12.043Z" transform="translate(-217.01 -259.368)" fill="#fff"/>
    <circle id="Ellipse_263" data-name="Ellipse 263" cx="9.872" cy="9.872" r="9.872" transform="translate(25.804 34.558) rotate(-61.337)" fill="#a0616a"/>
    <path id="Pfad_2640" data-name="Pfad 2640" d="M296.166,267.348h3.9l1.723-4.823.344,4.823H304l1-2.814.2,2.814h13.867a10.45,10.45,0,0,0-10.45-10.45h-2.01a10.45,10.45,0,0,0-10.451,10.451Z" transform="translate(-268.239 -237.305)" fill="#2f2e41"/>
  </g>
</svg>
