<svg xmlns="http://www.w3.org/2000/svg" width="199.748" height="146.027" viewBox="0 0 199.748 146.027">
  <g id="Gruppe_528" data-name="Gruppe 528" transform="translate(-12.74 0)">
    <path id="Pfad_2708" data-name="Pfad 2708" d="M683.867,418.029a4.075,4.075,0,0,0,3.07-7.489l-8.65-9.814-7.316,1.581,10.29,10.079a4.053,4.053,0,0,0,2.606,5.643Z" transform="translate(-533.022 -341.999)" fill="#a0616a"/>
    <path id="Pfad_2709" data-name="Pfad 2709" d="M440.016,107.054l21.56,27.063,6.572-3.017L442.807,91.647Z" transform="translate(-317.631 -66.157)" fill="#3f3d56"/>
    <path id="a9adb9ea-63bd-4fab-ab8c-5a8362c24c0e" d="M938.77,630.082c1.351-2.621.617-5.928-1.065-8.351s-4.165-4.149-6.594-5.821l-3.377-2.326,1.613,8.1c.545,2.738,1.216,5.694,3.354,7.489a6.322,6.322,0,0,0,6.1,1.075" transform="translate(-742.299 -494.492)" fill="#e6e6e6"/>
    <path id="ed5b34f6-0534-4519-a094-dcdf83ab50dc" d="M953.943,666.747a.244.244,0,0,1-.3.17.25.25,0,0,1-.17-.3c.188-1.371.375-2.743.463-4.125a15.72,15.72,0,0,0-.834-6.779,9.818,9.818,0,0,0-3.884-4.686c-.264-.166-.02-.586.245-.419a10.331,10.331,0,0,1,2.65,2.4,11.841,11.841,0,0,1,2.283,6.208,32.68,32.68,0,0,1-.454,7.529Z" transform="translate(-757.727 -521.191)" fill="#f2f2f2"/>
    <path id="e0867f2b-861c-49f4-a2d1-8ca31a29fe8f" d="M842.9,653.44c10.641,6.548,7.094,15.279,7.094,15.279Z" transform="translate(-681.063 -523.263)" fill="#e6e6e6"/>
    <path id="b461d634-05fb-4647-ba4f-16823402cab1" d="M893.549,685.62c-8.375-.053-9.457,6.17-9.457,6.17Z" transform="translate(-710.796 -546.492)" fill="#e6e6e6"/>
    <circle id="Ellipse_274" data-name="Ellipse 274" cx="2.365" cy="2.365" r="2.365" transform="translate(69.209 140.083)" fill="#3f3d56"/>
    <path id="Pfad_2710" data-name="Pfad 2710" d="M433.216,476.1s5.589-16.983,6.019-18.165,4.944.752,6.127,1.075a1.2,1.2,0,0,1,.86,1.5L440.2,477.932l1.827.86,5.589-17.52c3.225-3.332.86-3.547.86-3.547s-6.879-2.365-9.459-2.58-1.612,2.9-1.612,2.9L431.173,474.6Z" transform="translate(-359.922 -381.273)" fill="#3f3d56"/>
    <path id="Pfad_2711" data-name="Pfad 2711" d="M368.542,520.8h0a6.7,6.7,0,0,0-3.224-2.471l-.161-.058c-2.961-1.035-23.593-6.606-23.593-6.606a4.655,4.655,0,0,0-5.912,2.58c-1.827,4.084-12.683,37.943-12.683,37.943s21.233,11.355,27.423,12.591a3.74,3.74,0,0,0,1.168.092,16.478,16.478,0,0,0,3.092-.738,12.943,12.943,0,0,0,3.142-1.519L369.831,526.6S371.551,522.628,368.542,520.8Z" transform="translate(-281.812 -421.884)" fill="#fafcff"/>
    <path id="Pfad_2712" data-name="Pfad 2712" d="M439.713,538.648h0a6.7,6.7,0,0,0-3.224-2.471l-.161-.058a14.691,14.691,0,0,1,1.344,4.357s-11.823,35.148-12.9,38.48a5.419,5.419,0,0,1-3.211,3.67,3.738,3.738,0,0,0,1.168.092,16.479,16.479,0,0,0,3.092-.738,6.884,6.884,0,0,0,.777-1.089s12.039-36.008,13.113-37.728S439.713,538.648,439.713,538.648Z" transform="translate(-352.984 -439.732)" fill="#3f3d56"/>
    <circle id="Ellipse_275" data-name="Ellipse 275" cx="2.365" cy="2.365" r="2.365" transform="translate(61.954 140.137)" fill="#3f3d56"/>
    <circle id="Ellipse_276" data-name="Ellipse 276" cx="2.365" cy="2.365" r="2.365" transform="translate(39.005 130.194)" fill="#3f3d56"/>
    <path id="Pfad_2713" data-name="Pfad 2713" d="M459.828,425a4.075,4.075,0,0,1-3.335-7.375l8.3-10.116,7.368,1.319-9.925,10.439a4.053,4.053,0,0,1-2.4,5.732Z" transform="translate(-376.777 -346.896)" fill="#a0616a"/>
    <path id="Pfad_2714" data-name="Pfad 2714" d="M501.866,440.637l5.138-.081-.618,17.513h-4.519Z" transform="translate(-362.278 -318.021)" fill="#a0616a"/>
    <path id="Pfad_2715" data-name="Pfad 2715" d="M672.724,687.794h8.9a5.673,5.673,0,0,1,5.672,5.672v.185H672.724Z" transform="translate(-534.288 -549.221)" fill="#2f2e41"/>
    <path id="Pfad_2716" data-name="Pfad 2716" d="M355.106,424.146l5.613,3.6-11.228,13.508-3.8-2.442Z" transform="translate(-249.539 -306.175)" fill="#a0616a"/>
    <path id="Pfad_2717" data-name="Pfad 2717" d="M511.854,659.762l7.49,4.809h0a5.673,5.673,0,0,1,1.708,7.838l-.1.155L508.69,664.69Z" transform="translate(-415.878 -528.986)" fill="#2f2e41"/>
    <path id="Pfad_2718" data-name="Pfad 2718" d="M537.239,312.442s12.472-41.422,16.48-41.982,10.466,10.629,10.466,10.629c8.373,10.683,17.006,45.287,17.006,45.287s-14.393.9-24.914,6.5-22.937-.283-22.937-.283Z" transform="translate(-433.672 -247.949)" fill="#3f3d56"/>
    <path id="Pfad_2719" data-name="Pfad 2719" d="M537.239,312.443s12.472-41.422,16.48-41.982,8.826,10.742,8.826,10.742c4.172,17.245,18.647,45.173,18.647,45.173s-14.393.9-24.914,6.5-22.937-.283-22.937-.283Z" transform="translate(-433.672 -247.95)" opacity="0.1"/>
    <path id="Pfad_2720" data-name="Pfad 2720" d="M371.028,179.823v20.814l-2.45,30.151L356.34,253.6l5.841,4.172,16.688-21.695,6.6-21.541,10.366,47.686,7.788-.556-5.409-66.116-10.264-18.61Z" transform="translate(-257.228 -127.723)" fill="#2f2e41"/>
    <path id="Pfad_2721" data-name="Pfad 2721" d="M580.258,279.969c3.894,3.894.278,8.066.278,8.066l4.45,10.013-17.523,4.728-6.123-27.363,4.172-4.45c8.344-.278,8.349-.451,8.349-.451C575.323,271.943,580.258,279.969,580.258,279.969Z" transform="translate(-453.884 -248.002)" fill="#ccc"/>
    <path id="Pfad_2722" data-name="Pfad 2722" d="M526.34,274.219h0a7.476,7.476,0,0,0-2.163,9.548c2.008,3.832,4.167,9.768,3.053,16.285-2.015,11.794-8.474,20.754-12.072,23.632a3.506,3.506,0,0,0-1.112,3.508c.514,2.926,3.351,6.247,5.313,6.912a1.268,1.268,0,0,0,.41.064c3.188,0,11.03-10.152,20.041-29.986,5.612-12.352,1.539-22.256-2.866-28.39a7.477,7.477,0,0,0-10.507-1.645Z" transform="translate(-419.687 -249.571)" fill="#3f3d56"/>
    <path id="Pfad_2723" data-name="Pfad 2723" d="M330.337,105.843l-25.306,33.2-6.675-2.781,23.92-40.33Z" transform="translate(-215.372 -69.252)" fill="#3f3d56"/>
    <path id="Pfad_2724" data-name="Pfad 2724" d="M566.65,208.483H549.244a1.352,1.352,0,0,1-1.351-1.35v-7.5h0a10.053,10.053,0,1,1,20.106,0v7.5A1.352,1.352,0,0,1,566.65,208.483Z" transform="translate(-444.178 -189.578)" fill="#2f2e41"/>
    <circle id="Ellipse_277" data-name="Ellipse 277" cx="7.371" cy="7.371" r="7.371" transform="translate(105.832 14.293) rotate(-61.337)" fill="#a0616a"/>
    <path id="Pfad_2725" data-name="Pfad 2725" d="M583.561,207.391H572.918l-.109-1.528-.546,1.528h-1.639l-.216-3.029-1.082,3.029h-3.171v-.15a7.962,7.962,0,0,1,7.953-7.953h1.5a7.962,7.962,0,0,1,7.953,7.953Z" transform="translate(-457.36 -196.588)" fill="#2f2e41"/>
    <path id="Pfad_2726" data-name="Pfad 2726" d="M569.309,225.535a1.38,1.38,0,0,1-.239-.021l-7.793-1.375v-12.88h8.579l-.212.248c-2.955,3.446-.729,9.035.861,12.059a1.33,1.33,0,0,1-.106,1.413A1.345,1.345,0,0,1,569.309,225.535Z" transform="translate(-453.839 -205.229)" fill="#2f2e41"/>
    <path id="Pfad_2727" data-name="Pfad 2727" d="M175,708.7a.259.259,0,0,1,.235-.278H374.513a.282.282,0,0,1,0,.556H175.235A.259.259,0,0,1,175,708.7Z" transform="translate(-162.26 -562.952)" fill="#fff"/>
  </g>
</svg>
