<svg id="Gruppe_531" data-name="Gruppe 531" xmlns="http://www.w3.org/2000/svg" xmlns:xlink="http://www.w3.org/1999/xlink" width="248.791" height="152.903" viewBox="0 0 248.791 152.903">
  <defs>
    <linearGradient id="linear-gradient" x1="0.5" y1="1" x2="0.5" gradientUnits="objectBoundingBox">
      <stop offset="0" stop-color="gray" stop-opacity="0.251"/>
      <stop offset="0.54" stop-color="gray" stop-opacity="0.122"/>
      <stop offset="1" stop-color="gray" stop-opacity="0.102"/>
    </linearGradient>
  </defs>
  <path id="Pfad_2732" data-name="Pfad 2732" d="M627.193,621.987a4.25,4.25,0,0,1-5.422,0c-.757-5.252,1.165-15.573,1.618-17.9l.094-.467h2.19a1.608,1.608,0,0,1,.338.534C627.5,607.52,627.193,621.987,627.193,621.987Z" transform="translate(-451.924 -532.904)" fill="#535f89"/>
  <path id="Pfad_2733" data-name="Pfad 2733" d="M631.4,596.918v2.119h-.912v-2.119a2.52,2.52,0,0,1,.444-.038A2.835,2.835,0,0,1,631.4,596.918Z" transform="translate(-458.113 -528.319)" opacity="0.1"/>
  <path id="Pfad_2734" data-name="Pfad 2734" d="M630.11,604.2a2.483,2.483,0,0,1-1.253.32,2.387,2.387,0,0,1-1.347-.377l.094-.467h2.184A1.607,1.607,0,0,1,630.11,604.2Z" transform="translate(-456.04 -532.945)" opacity="0.1"/>
  <ellipse id="Ellipse_278" data-name="Ellipse 278" cx="1.828" cy="1.141" rx="1.828" ry="1.141" transform="translate(170.99 68.926)" fill="#dce2ed"/>
  <path id="Pfad_2744" data-name="Pfad 2744" d="M846.227,661.057a2.808,2.808,0,0,1-3.582,0c-.5-3.471.769-10.3,1.067-11.827.04-.2.064-.32.064-.32h1.432a1.074,1.074,0,0,1,.225.352C846.425,651.5,846.227,661.057,846.227,661.057Z" transform="translate(-605.667 -563.718)" fill="#535f89"/>
  <path id="Pfad_2745" data-name="Pfad 2745" d="M848.978,644.495v1.4h-.608v-1.4a1.453,1.453,0,0,1,.3-.026A1.938,1.938,0,0,1,848.978,644.495Z" transform="translate(-609.732 -560.696)" opacity="0.1"/>
  <path id="Pfad_2746" data-name="Pfad 2746" d="M848.141,649.231a1.669,1.669,0,0,1-.83.2,1.61,1.61,0,0,1-.891-.246c.039-.2.064-.32.064-.32h1.432A1.074,1.074,0,0,1,848.141,649.231Z" transform="translate(-608.375 -563.69)" opacity="0.1"/>
  <ellipse id="Ellipse_280" data-name="Ellipse 280" cx="1.207" cy="0.754" rx="1.207" ry="0.754" transform="translate(237.729 84.013)" fill="#dce2ed"/>
  <path id="Pfad_2755" data-name="Pfad 2755" d="M848.992,445.913v.978h-.158a1.783,1.783,0,0,1-.444-.054V445.9Z" transform="translate(-609.746 -425.599)" opacity="0.1"/>
  <path id="Pfad_2757" data-name="Pfad 2757" d="M391.685,698.607a13.062,13.062,0,0,0-9.218-1.211c-5.322,1.211-13.475.569-14.217.435" transform="translate(-275.625 -596.464)" opacity="0.1"/>
  <path id="Pfad_2758" data-name="Pfad 2758" d="M388.489,496.14s-1.3,21.474,1.007,25.709Z" transform="translate(-289.456 -459.78)" opacity="0.1"/>
  <path id="Pfad_2759" data-name="Pfad 2759" d="M373.6,576.57s1.66,20.112,2.81,24.044S373.6,576.57,373.6,576.57Z" transform="translate(-279.348 -514.501)" opacity="0.1"/>
  <path id="Pfad_2760" data-name="Pfad 2760" d="M356.069,421.86c-1.177.454-6.213,11.188-5.2,14.368S356.069,421.86,356.069,421.86Z" transform="translate(-263.435 -409.243)" opacity="0.1"/>
  <path id="Pfad_2761" data-name="Pfad 2761" d="M404.559,387c-.544.259-2.889,6.444-2.433,8.272S404.559,387,404.559,387Z" transform="translate(-299.158 -385.526)" opacity="0.1"/>
  <path id="Pfad_2762" data-name="Pfad 2762" d="M338.56,499.81c.584,6.236.912,10.318.529,15.311a62.037,62.037,0,0,0,.158,11.645" transform="translate(-254.964 -462.277)" opacity="0.1"/>
  <path id="Pfad_2774" data-name="Pfad 2774" d="M263.239,620.835a5.3,5.3,0,0,1-6.767,0c-.943-6.556,1.454-19.441,2.019-22.33l.119-.585h2.707a2.117,2.117,0,0,1,.423.665C263.613,602.779,263.239,620.835,263.239,620.835Z" transform="translate(-197.69 -529.026)" fill="#535f89"/>
  <path id="Pfad_2775" data-name="Pfad 2775" d="M268.46,589.538v2.647h-1.14v-2.65a3.139,3.139,0,0,1,.557-.045A3.469,3.469,0,0,1,268.46,589.538Z" transform="translate(-205.39 -523.291)" opacity="0.1"/>
  <path id="Pfad_2776" data-name="Pfad 2776" d="M266.858,598.585a3.108,3.108,0,0,1-1.563.387,3,3,0,0,1-1.685-.467l.119-.585h2.707a2.118,2.118,0,0,1,.423.665Z" transform="translate(-202.808 -529.026)" opacity="0.1"/>
  <ellipse id="Ellipse_283" data-name="Ellipse 283" cx="2.281" cy="1.422" rx="2.281" ry="1.422" transform="translate(60.206 66.65)" fill="#dce2ed"/>
  <path id="Pfad_2793" data-name="Pfad 2793" d="M711.21,567.55a7.493,7.493,0,0,1,5.289-.694,30.769,30.769,0,0,0,8.166.249" transform="translate(-514.285 -507.753)" opacity="0.1"/>
  <path id="Pfad_2794" data-name="Pfad 2794" d="M742.048,451.26s.742,12.335-.578,14.764Z" transform="translate(-535.342 -429.246)" opacity="0.1"/>
  <path id="Pfad_2795" data-name="Pfad 2795" d="M748.427,497.45s-.952,11.552-1.612,13.812S748.427,497.45,748.427,497.45Z" transform="translate(-538.978 -460.671)" opacity="0.1"/>
  <path id="Pfad_2796" data-name="Pfad 2796" d="M755.45,408.6c.675.262,3.567,6.428,2.99,8.25S755.45,408.6,755.45,408.6Z" transform="translate(-545.071 -400.222)" opacity="0.1"/>
  <path id="Pfad_2798" data-name="Pfad 2798" d="M771.615,453.37a49.309,49.309,0,0,0-.3,8.793,35.407,35.407,0,0,1-.091,6.687" transform="translate(-556.044 -430.681)" opacity="0.1"/>
  <path id="Pfad_2810" data-name="Pfad 2810" d="M386.146,405.72c-4.994,7.077-9.105,27.9-10.258,34.17l-8.7-.361c.547-5.4,11.064-27.2,13.989-33.179C382.746,406.129,384.421,405.905,386.146,405.72Z" transform="translate(-274.887 -398.262)" fill="#fafcff"/>
  <rect id="Rechteck_1787" data-name="Rechteck 1787" width="3.856" height="5.709" transform="translate(216.069 4.945)" fill="#dce0ed"/>
  <path id="Pfad_2811" data-name="Pfad 2811" d="M778.023,397.86v1.857a2.835,2.835,0,0,1-.836.118l-3.017-.026v-1.95Z" transform="translate(-558.098 -392.915)" opacity="0.1"/>
  <rect id="Rechteck_1788" data-name="Rechteck 1788" width="3.856" height="4.996" transform="translate(181.826 5.013)" fill="#dce0ed"/>
  <path id="Pfad_2813" data-name="Pfad 2813" d="M665.416,398.07v1.6a2.84,2.84,0,0,1-.839.118l-3.017-.029V398.08Z" transform="translate(-479.734 -393.057)" opacity="0.1"/>
  <ellipse id="Ellipse_290" data-name="Ellipse 290" cx="22.745" cy="26.201" rx="22.745" ry="26.201" transform="translate(12.335 81.053)" fill="#636780"/>
  <path id="Pfad_2816" data-name="Pfad 2816" d="M158.248,641.07c-11.9.841-21.328,12.227-21.328,26.15,0,11.223,6.125,20.8,14.734,24.526,11.9-.841,21.331-12.226,21.331-26.15C172.985,654.374,166.857,644.8,158.248,641.07Z" transform="translate(-114.646 -558.384)" opacity="0.1"/>
  <ellipse id="Ellipse_291" data-name="Ellipse 291" cx="18.46" cy="25.3" rx="18.46" ry="25.3" transform="translate(194.632 24.687)" fill="#636780"/>
  <path id="Pfad_2817" data-name="Pfad 2817" d="M717.1,462.93c-7.658,3.085-13.247,12.786-13.247,24.277,0,12.281,6.386,22.516,14.853,24.817,7.655-3.085,13.247-12.786,13.247-24.277C731.95,475.466,725.564,465.232,717.1,462.93Z" transform="translate(-509.163 -437.185)" opacity="0.1"/>
  <path id="Pfad_2818" data-name="Pfad 2818" d="M512.388,491.88l.344-9.183s-1.715-3.964-3.428-4.322a56.747,56.747,0,0,0-5.654-.585s-3.084,13.189-1.028,17.152S512.388,491.88,512.388,491.88Z" transform="translate(-368.641 -447.295)" fill="#fafcff"/>
  <path id="Pfad_2819" data-name="Pfad 2819" d="M512.388,491.88l.344-9.183s-1.715-3.964-3.428-4.322a56.747,56.747,0,0,0-5.654-.585s-3.084,13.189-1.028,17.152S512.388,491.88,512.388,491.88Z" transform="translate(-368.641 -447.295)" opacity="0.1"/>
  <path id="Pfad_2820" data-name="Pfad 2820" d="M432.268,489.71s-1.061-12.735,5.6-12.965c.858-.029,1.715-.051,2.57-.137,4.613-.47,17.2-1.49,15.692,1.531,0,0-3,11.076-.943,13.866Z" transform="translate(-320.131 -446.116)" fill="#fafcff"/>
  <path id="Pfad_2821" data-name="Pfad 2821" d="M739.016,530.408l8.929.272s1.542-17.29,2.056-18.638.772-7.835-.9-8.777-7.256-2.094-7.256-2.094l-4.118,9.855-.319,8.915Z" transform="translate(-532.517 -463.202)" fill="#fafcff"/>
  <path id="Pfad_2822" data-name="Pfad 2822" d="M739.016,530.408l8.929.272s1.542-17.29,2.056-18.638.772-7.835-.9-8.777-7.256-2.094-7.256-2.094l-4.118,9.855-.319,8.915Z" transform="translate(-532.517 -463.202)" opacity="0.1"/>
  <path id="Pfad_2823" data-name="Pfad 2823" d="M635.389,496.367l-.04-1.918a1.139,1.139,0,0,1,.317-.816,1.028,1.028,0,0,1,.784-.315c4.428.2,20.534,1.007,23.353,2.519,0,0-3.084,24.108.322,29.848L658.97,545l-39.45-3.107Z" transform="translate(-450.479 -457.859)" fill="#fafcff"/>
  <path id="Pfad_2824" data-name="Pfad 2824" d="M661.56,406.848c1.095-.115,2.4-.237,3.856-.358v2.3H661.56Z" transform="translate(-479.734 -398.786)" opacity="0.1"/>
  <path id="Pfad_2825" data-name="Pfad 2825" d="M778.023,411.691v.291H774.17V410.23A15.95,15.95,0,0,1,778.023,411.691Z" transform="translate(-558.098 -401.331)" opacity="0.1"/>
  <path id="Pfad_2826" data-name="Pfad 2826" d="M341.821,485.219a.38.38,0,0,1,.146-.24.49.49,0,0,1,.265-.026h0v.163h0a6.117,6.117,0,0,0-.55.591C341.735,485.545,341.775,485.382,341.821,485.219Zm13.956-4.3a.514.514,0,0,0,0-.067,14.507,14.507,0,0,1,.666-1.5A14.929,14.929,0,0,0,355.777,480.916Zm2.08-4.136c-.328.515-.727,1.18-1.119,1.95a9.159,9.159,0,0,1,1.119-1.95ZM303.52,521.511c1.548.064,2.837.035,2.837.035A10.832,10.832,0,0,1,303.52,521.511Zm2.84.032a3.105,3.105,0,0,1,1.965-.249,5.168,5.168,0,0,0-1.965.249Zm51.946-24.587.566-10.229s-.21,5.223-.14,7.483a7.691,7.691,0,0,1-.426,2.749Z" transform="translate(-230.58 -446.608)" fill="url(#linear-gradient)"/>
  <path id="Pfad_2827" data-name="Pfad 2827" d="M353.66,594.88s-.161.524-.374,1.189a16,16,0,0,1-1,2.695,13.8,13.8,0,0,1-2.874.32,8.6,8.6,0,0,1-6.058-2.023s.739-.559,1.521-1.208a8.8,8.8,0,0,0,1.77-1.745,8.273,8.273,0,0,1,2.378-1.828c.362-.217.608-.358.608-.358Z" transform="translate(-258.298 -524.944)" fill="#f899a5"/>
  <path id="Pfad_2828" data-name="Pfad 2828" d="M334.73,602.342s-14.221-.687-15.069-.885-1.022-1.247-1.022-1.247c-.283-.7,1.216-.547,1.216-.547h0c.152.026,1.825.32,3.4.531h0a9.868,9.868,0,0,0,2.737.16h0a5.119,5.119,0,0,1,1.9-.16,4.545,4.545,0,0,0-3.838-3.244l.058-.061a4.8,4.8,0,0,1,.812-.639c2.9.125,4.431,4.325,4.431,4.325h.024c.328.109,3.823,1.247,4.516,1.352h0C334.623,602.045,334.73,602.342,334.73,602.342Z" transform="translate(-241.077 -527.89)" fill="#f3b4b4"/>
  <path id="Pfad_2829" data-name="Pfad 2829" d="M308.254,599.444c-.055.189-.3.32-.712.355a4.4,4.4,0,0,1-.663,0h0a14.445,14.445,0,0,1-3.954-.933c-.219-.08-.426-.15-.626-.211h-.024a8.25,8.25,0,0,0-1.478-.32,2.9,2.9,0,0,0-1.895.249h0s-1.247.029-2.737-.035h0a21.2,21.2,0,0,1-3.415-.377h0c-.161-.035-.3-.077-.453-.118a3.071,3.071,0,0,1-.763-.32c-1.569-.991,3.716-1.659,3.716-1.659a2.7,2.7,0,0,0,1.6-.812l.055-.064.134-.141h0a7.35,7.35,0,0,1,.642-.524l.195-.137c1.052-.748,2.469-1.547,2.469-1.547a5.937,5.937,0,0,0,2.618-1.573,3.227,3.227,0,0,0,.365-.454h0l2.923-.793,2.013,5.082s.015.275.03.687A25.4,25.4,0,0,1,308.254,599.444Z" transform="translate(-222.037 -523.658)" fill="#f899a5"/>
  <path id="Pfad_2830" data-name="Pfad 2830" d="M309.955,609.085a4.395,4.395,0,0,1-.663,0h0a14.445,14.445,0,0,1-3.954-.933c-.219-.08-.426-.15-.626-.211h-.024a8.244,8.244,0,0,0-1.478-.32,2.9,2.9,0,0,0-1.895.249h0s-1.247.029-2.737-.035h0a21.2,21.2,0,0,1-3.415-.377h0c-.161-.035-.3-.077-.453-.118a3.45,3.45,0,0,1,.587-.026h0c.149.019,1.84.237,3.415.374h0a9.812,9.812,0,0,0,2.737.035h0a4.871,4.871,0,0,1,1.895-.249,4.529,4.529,0,0,0-3.969-3.065c.018-.022.04-.042.055-.064h0a5.074,5.074,0,0,1,.776-.665h.061c2.862.048,4.547,4.114,4.547,4.114h.024c.331.093,3.871,1.074,4.562,1.148h0A1.673,1.673,0,0,1,309.955,609.085Z" transform="translate(-224.45 -532.945)" opacity="0.1"/>
  <path id="Pfad_2831" data-name="Pfad 2831" d="M308.31,609.785s-14.236-.038-15.09-.195-1.074-1.2-1.074-1.2c-.3-.681,1.183-.6,1.183-.6h0c.149.019,1.825.237,3.415.377h0a10.089,10.089,0,0,0,2.737.035h0a4.846,4.846,0,0,1,1.895-.249,4.532,4.532,0,0,0-3.969-3.065l.055-.064a5.268,5.268,0,0,1,.785-.674c2.9,0,4.607,4.117,4.607,4.117h.024c.331.09,3.871,1.071,4.562,1.144h0C308.191,609.491,308.31,609.785,308.31,609.785Z" transform="translate(-222.637 -533.265)" fill="#f3b4b4"/>
  <path id="Pfad_2832" data-name="Pfad 2832" d="M366.61,594.9s-.161.524-.374,1.189a27.248,27.248,0,0,1-3.954-3.305,2.436,2.436,0,0,1-.322-.476c.362-.217.608-.358.608-.358Z" transform="translate(-271.248 -524.965)" opacity="0.1"/>
  <path id="Pfad_2833" data-name="Pfad 2833" d="M375.228,568.647l-.5,1.716-4.835,2.768a7.542,7.542,0,0,0-1.521,1.435,1.376,1.376,0,0,1-.772.639,11.283,11.283,0,0,0-.669.978,27.275,27.275,0,0,1-3.954-3.305c-.335-.4-.5-.742-.344-.93a51.237,51.237,0,0,1,4.428-3.669s2.317-3.2,2.418-3.139a15.632,15.632,0,0,0,1.949-1.79l.468-.46Z" transform="translate(-271.673 -505.193)" fill="#bdd3e8"/>
  <path id="Pfad_2834" data-name="Pfad 2834" d="M444.225,455.979l-4.708,8.752-1.727,3.462-9.2-1.41.207-.463.779-1.717.356-.786.055-.105,1.019-1.94.058-.08.739-1.1,1.487-2.209a1.293,1.293,0,0,0,.487-.134,1.191,1.191,0,0,0,.557-.665c.526-1.368-.438-4-.438-4s3.491-8.95,4.7-4.024a9.236,9.236,0,0,0,4.866,6.073A6.517,6.517,0,0,0,444.225,455.979Z" transform="translate(-317.614 -427.082)" fill="#f899a5"/>
  <path id="Pfad_2835" data-name="Pfad 2835" d="M428,566.92v.847s3.041,3.059,2.64,5.552a15.83,15.83,0,0,0,.447,5.6l3.059-.23-.462-11.392Z" transform="translate(-317.204 -507.935)" fill="#bdd3e8"/>
  <path id="Pfad_2836" data-name="Pfad 2836" d="M434.146,578.689l-3.059.23a15.818,15.818,0,0,1-.447-5.6c.4-2.5-2.64-5.552-2.64-5.552v-.847l5.684.377.03.742Z" transform="translate(-317.204 -507.935)" opacity="0.05"/>
  <path id="Pfad_2837" data-name="Pfad 2837" d="M371.69,564.815a26.393,26.393,0,0,0-2.682,3.059c-1.077,1.505-2.91,3.669-2.91,3.669l-2.193,1.365-.912.93c-.335-.4-.5-.742-.344-.93a51.247,51.247,0,0,1,4.428-3.67s2.317-3.2,2.418-3.139a15.609,15.609,0,0,0,1.949-1.79Z" transform="translate(-271.687 -506.16)" opacity="0.05"/>
  <path id="Pfad_2838" data-name="Pfad 2838" d="M335.068,595.813a3.026,3.026,0,0,0-.252.256s-.046,1.5-1.165-2.027-3.9-2.682-3.9-2.682a.056.056,0,0,1-.021-.064c0-.1.161-.262.365-.454h0l2.923-.793,2.013,5.082S335.052,595.4,335.068,595.813Z" transform="translate(-248.82 -523.672)" opacity="0.1"/>
  <path id="Pfad_2839" data-name="Pfad 2839" d="M345.991,545.28l-1.7.048-1.165,1.742s-1.925,2.164-2.506,2.7-4.343,4.258-5.416,6.188c0,0-.985.518-.985,1.036s-1.879,2.023-1.879,2.023-1.971,1.41-1.7,1.6c0,0,2.777-.847,3.9,2.682s1.165,2.023,1.165,2.023a2.638,2.638,0,0,1,.672-.556c.268-.1,1.542-2.03,1.934-2.078a1.891,1.891,0,0,0,.8-.377l2.281-2.353,2.2-1.365s1.825-2.164,2.907-3.67a26.617,26.617,0,0,1,2.685-3.059Z" transform="translate(-249.43 -493.212)" fill="#bdd3e8"/>
  <path id="Pfad_2840" data-name="Pfad 2840" d="M353.22,580.91s3.041,1.55,2.91,1.879S353.22,580.91,353.22,580.91Z" transform="translate(-265.166 -517.453)" opacity="0.1"/>
  <path id="Pfad_2841" data-name="Pfad 2841" d="M361.12,579.73s.237,1.4,1.448,1.333S361.12,579.73,361.12,579.73Z" transform="translate(-270.663 -516.651)" opacity="0.1"/>
  <path id="Pfad_2842" data-name="Pfad 2842" d="M347.18,592a1.393,1.393,0,0,0,1.3.94C349.6,593.08,347.18,592,347.18,592Z" transform="translate(-260.963 -524.999)" opacity="0.1"/>
  <path id="Pfad_2843" data-name="Pfad 2843" d="M384.65,580.91s1.475.639,1.609,1.528S384.65,580.91,384.65,580.91Z" transform="translate(-287.037 -517.453)" opacity="0.1"/>
  <path id="Pfad_2844" data-name="Pfad 2844" d="M372.72,591.21a8.459,8.459,0,0,1,2.184,2.41A21.2,21.2,0,0,1,372.72,591.21Z" transform="translate(-278.736 -524.461)" opacity="0.1"/>
  <path id="Pfad_2845" data-name="Pfad 2845" d="M381.33,586.772a.953.953,0,0,1,1.01.224C382.75,587.444,381.33,586.772,381.33,586.772Z" transform="translate(-284.727 -521.401)" opacity="0.1"/>
  <path id="Pfad_2846" data-name="Pfad 2846" d="M404.885,536.972s-5.708-1.943-5.27,0,5.27,3.034,5.27,3.034Z" transform="translate(-297.435 -486.972)" fill="#f899a5"/>
  <path id="Pfad_2847" data-name="Pfad 2847" d="M444.225,472.089l-4.708,8.752-1.727,3.462-9.2-1.41.207-.463a5.5,5.5,0,0,1,.733-.863,3.359,3.359,0,0,1,.046-.853,1.7,1.7,0,0,1,.411-.892l.036-.035a6.06,6.06,0,0,0,1.04-1.985c.079-.221.122-.368.122-.368l.608-.732,1.974-2.343.556-.665.523-.62-1.873,2.8s-.894,1.694-.94,1.918-1.521,2.3-1.521,2.3-2.506,2.308,1.971,2.353,7.208-4.539,7.208-4.539l3.777-6.15A6.52,6.52,0,0,0,444.225,472.089Z" transform="translate(-317.614 -443.193)" opacity="0.1"/>
  <path id="Pfad_2848" data-name="Pfad 2848" d="M385.277,535.116l-1.755-.128-3.963-.348V534l5.687.374Z" transform="translate(-268.767 -475.012)" opacity="0.1"/>
  <path id="Pfad_2849" data-name="Pfad 2849" d="M441.028,470.21a2.966,2.966,0,0,0,1.612.988,11.354,11.354,0,0,0-2.016,3.248s-2.512,4.443-.715,5.974a9.057,9.057,0,0,0,2.84,1.835l-.544,10.229s1.329,7.032,1.825,7.556a2.549,2.549,0,0,1,.359,1.694s-.325,1.176.015,1.6a8.512,8.512,0,0,1,.432,2.589,13.719,13.719,0,0,0-2.433-1.084c-.42,0-1.521-2.212-1.521-2.212l-10.948-.8-4.814-.422.76-14.064s-2.193-3.781.806-6.69a2.491,2.491,0,0,1,.493-1.78,7.455,7.455,0,0,0,1.165-2.353l3.671-4.36h0l-1.879,2.81s-.9,1.694-.94,1.918-1.521,2.308-1.521,2.308-2.506,2.3,1.971,2.353,7.208-4.565,7.208-4.565Z" transform="translate(-315.191 -442.138)" fill="#e6ebef"/>
  <path id="Pfad_2850" data-name="Pfad 2850" d="M465.68,528.21a6.455,6.455,0,0,0,3.224,1.247C470.57,529.5,465.68,528.21,465.68,528.21Z" transform="translate(-343.425 -481.599)" opacity="0.1"/>
  <path id="Pfad_2851" data-name="Pfad 2851" d="M472.3,515.643s1.232-.639,1.925-.105S472.3,515.643,472.3,515.643Z" transform="translate(-348.031 -472.832)" opacity="0.1"/>
  <path id="Pfad_2852" data-name="Pfad 2852" d="M470.39,523s.079.754,1.9.847S470.39,523,470.39,523Z" transform="translate(-346.702 -478.054)" opacity="0.1"/>
  <path id="Pfad_2853" data-name="Pfad 2853" d="M464.44,473.3l.383.214a8.191,8.191,0,0,0,2.415.54,3.957,3.957,0,0,1,3.157,3.174c.067.371.122.866.167,1.4a30.146,30.146,0,0,1-.085,5.754,19.2,19.2,0,0,0-.216,3.1c.134.422-.739,6.987-.739,6.987s-.2,5.364-1.478,5.859-8.394.492-8.394.492l-3.02-5.5,7.049.352a7.548,7.548,0,0,0,.873-3.81c-.067-2.26.134-7.483.134-7.483s-4.258-.959-3.394-4.453A21.806,21.806,0,0,1,464.44,473.3Z" transform="translate(-337.127 -444.24)" fill="#f899a5"/>
  <path id="Pfad_2854" data-name="Pfad 2854" d="M394.6,556.273s-2.844.988-3.954.47a27.257,27.257,0,0,1-3.525-2.493s-1.551-1.6-3.026-3.385l-.189-.23h0c-1.277-1.563-2.433-3.2-2.433-4.005a3.568,3.568,0,0,0-.119-.994,4.244,4.244,0,0,0-.608-1.3,3.831,3.831,0,0,0-.523-.62l-4.656-6.307s1.344-1.506,1.344-1.918,1.612-2.727,3.671-1.5a45.085,45.085,0,0,1,5.048,4.456c2.9,2.8,5.876,5.846,5.876,5.846s.21.237.517.6c.788.959,2.211,2.765,2.323,3.679C394.513,549.826,394.6,556.273,394.6,556.273Z" transform="translate(-280.719 -485.289)" fill="#bdd3e8"/>
  <path id="Pfad_2855" data-name="Pfad 2855" d="M403.827,555.06c-2.2,2.308-5.523,5.4-7.931,5.987l-.064.016-.125-.246h0l-2.542-5-.645-1.279.033-.035,4.884-5.9c2.9,2.8,5.876,5.846,5.876,5.846Z" transform="translate(-292.514 -495.471)" opacity="0.05"/>
  <path id="Pfad_2856" data-name="Pfad 2856" d="M421.032,534.94v1.071s1.411,5.236-1.14,6.713c-1.289.751-4.036.93-6.438.924a6.921,6.921,0,0,1-6.73-5.9,4.5,4.5,0,0,1-.027-1.518s-1.14-8.576-1.411-8.63c0,0-6.414,7.719-10.34,8.608l-3.315-6.514,5.295-6.393s3.929-6.562,5.07-7.163a8.456,8.456,0,0,0,2.284-2.282s4.6-4.034,7.655,2.778,5.036,12.313,5.778,14.355c0,0,1.077,2.314,1.746,2.308h.021a1.611,1.611,0,0,1,1.554,1.643Z" transform="translate(-291.895 -471.026)" fill="#bdd3e8"/>
  <path id="Pfad_2857" data-name="Pfad 2857" d="M436.09,552.08a7.063,7.063,0,0,0,1.375-2.471c.508-1.553-.152,1.576-1.241,2.822Z" transform="translate(-322.834 -495.869)" opacity="0.1"/>
  <path id="Pfad_2858" data-name="Pfad 2858" d="M416.421,427.046a2.377,2.377,0,0,0,.693,1.221,22.692,22.692,0,0,0,2.244,2.222,2.419,2.419,0,0,1,.821.994,1.639,1.639,0,0,1-.055.863,15.241,15.241,0,0,1-1.192,3.113,1.985,1.985,0,0,0-.331,1.061c.082.838,1.216,1.307,2.044,1.86a3.532,3.532,0,0,1,1.673,2.966c-.067,1.736-1.633,3.235-2,4.948a7.578,7.578,0,0,0,2.959-.639,2.328,2.328,0,0,0,1.484-1.982.585.585,0,0,1,.046-.368.739.739,0,0,1,.426-.23c.812-.208,1.8-.141,2.4-.617a1.687,1.687,0,0,0,.2-1.982c-.693-1.828-1.7-3.586-2.3-5.434a4.081,4.081,0,0,1-.262-1.943,6.681,6.681,0,0,1,.8-1.857,12.249,12.249,0,0,0,1.332-4.264,4.152,4.152,0,0,0-.328-2.5,4.012,4.012,0,0,0-2.655-1.848c-2.284-.527-3.5.639-5.286,1.416C417.808,424.639,416.287,425.7,416.421,427.046Z" transform="translate(-309.141 -409.676)" fill="#4b3648"/>
  <path id="Pfad_2859" data-name="Pfad 2859" d="M420.315,445.819c.185,0,.371-.022.557-.038.38-1.7,1.922-3.2,1.989-4.907a3.537,3.537,0,0,0-1.673-2.97c-.815-.553-1.962-1.023-2.044-1.857a2,2,0,0,1,.332-1.064,15.239,15.239,0,0,0,1.192-3.113,1.639,1.639,0,0,0,.055-.863,2.391,2.391,0,0,0-.821-.991,23.112,23.112,0,0,1-2.244-2.237,2.358,2.358,0,0,1-.693-1.218c-.14-1.342,1.372-2.41,2.716-3,1.4-.62,2.433-1.458,3.935-1.541-1.788-.121-2.917.85-4.48,1.541-1.344.591-2.856,1.659-2.716,3a2.357,2.357,0,0,0,.693,1.218,23.106,23.106,0,0,0,2.244,2.238,2.392,2.392,0,0,1,.821.991,1.639,1.639,0,0,1-.055.863,15.241,15.241,0,0,1-1.192,3.113,2,2,0,0,0-.332,1.064c.082.834,1.216,1.3,2.044,1.857a3.537,3.537,0,0,1,1.673,2.97C422.249,442.606,420.683,444.109,420.315,445.819Z" transform="translate(-309.139 -409.343)" opacity="0.1"/>
  <ellipse id="Ellipse_292" data-name="Ellipse 292" cx="7.153" cy="7.518" rx="7.153" ry="7.518" transform="translate(109.148 13.566)" opacity="0.1"/>
  <ellipse id="Ellipse_293" data-name="Ellipse 293" cx="7.153" cy="7.518" rx="7.153" ry="7.518" transform="translate(109.282 13.285)" fill="#f899a5"/>
  <path id="Pfad_2860" data-name="Pfad 2860" d="M427.891,419a2.8,2.8,0,0,1-1.521-.911,1.554,1.554,0,0,1,.036-1.889,3.069,3.069,0,0,1,.861-.393c1.2-.559,1.4-2.519,2.22-3.743a2.627,2.627,0,0,1,2.463-1.247,11.421,11.421,0,0,1,1.487.46c1.189.339,2.46.07,3.668.3,2.372.457,4.188,2.8,5.17,5.434.453,1.211.769,2.493,1.128,3.756a51.4,51.4,0,0,0,1.946,5.562,3.956,3.956,0,0,0,.666,1.18c.76.815,2.1.754,2.573,1.851a4.077,4.077,0,0,1,.052,2.039,17.017,17.017,0,0,0,.56,6.914c.514,1.713,1.5,3.446,3,3.692a1.612,1.612,0,0,1-2.412.16,8.311,8.311,0,0,1-1.615-2.461,15.725,15.725,0,0,0-1.378-2.126,2.888,2.888,0,0,0-1.043-.943c-1.022-.435-2.108.454-3.02,1.227a5.118,5.118,0,0,1-2.46,1.358,1.972,1.972,0,0,1-2.174-1.4c-.344-1.224.35-2.877-.408-3.765a5.385,5.385,0,0,0-1-.684c-.967-.722-1.086-2.375-.955-3.775s.4-2.9-.113-4.133a4.943,4.943,0,0,0-1.216-1.6,26.683,26.683,0,0,0-7.347-5.07" transform="translate(-315.861 -401.722)" fill="#4b3648"/>
  <g id="Gruppe_529" data-name="Gruppe 529" transform="translate(110.163 9.133)" opacity="0.1">
    <path id="Pfad_2861" data-name="Pfad 2861" d="M440.933,439.1a1.972,1.972,0,0,1-2.177-1.4c-.344-1.221.353-2.877-.408-3.765a5.293,5.293,0,0,0-1-.681c-.97-.722-1.089-2.375-.955-3.775s.4-2.906-.116-4.136a4.977,4.977,0,0,0-1.216-1.6,26.694,26.694,0,0,0-7.347-5.1l.845.211a2.813,2.813,0,0,1-1.521-.911,1.559,1.559,0,0,1,.04-1.892,3.043,3.043,0,0,1,.858-.39c1.216-.559,1.405-2.519,2.22-3.743a2.991,2.991,0,0,1,1.025-.959,2.786,2.786,0,0,0-1.84,1.237c-.815,1.224-1.016,3.2-2.22,3.743a3.069,3.069,0,0,0-.861.393,1.541,1.541,0,0,0-.036,1.889,2.9,2.9,0,0,0,1.521.911l-.842-.208a26.691,26.691,0,0,1,7.344,5.089,4.942,4.942,0,0,1,1.216,1.6c.52,1.231.246,2.733.113,4.133s0,3.053.955,3.775a5.1,5.1,0,0,1,1,.684c.757.892.064,2.541.408,3.765a1.972,1.972,0,0,0,2.174,1.4,3.047,3.047,0,0,0,.979-.32A1.442,1.442,0,0,1,440.933,439.1Z" transform="translate(-425.919 -410.96)"/>
    <path id="Pfad_2862" data-name="Pfad 2862" d="M493.675,496.168a8.27,8.27,0,0,1-1.612-2.458,15.244,15.244,0,0,0-1.381-2.126,2.837,2.837,0,0,0-1.043-.943,1.806,1.806,0,0,0-1.6.185,1.479,1.479,0,0,1,.785.1,2.864,2.864,0,0,1,1.043.943,15.725,15.725,0,0,1,1.378,2.126,8.492,8.492,0,0,0,1.615,2.461,1.707,1.707,0,0,0,2.1.176A1.914,1.914,0,0,1,493.675,496.168Z" transform="translate(-469.148 -465.098)"/>
  </g>
  <path id="Pfad_2863" data-name="Pfad 2863" d="M756.524,484.005l-5.827.089L738.66,461.1l-2.01-3.839,1.542-9.724,1.186,2.353Z" transform="translate(-517.26 -416.189)" fill="#dce0ed"/>
  <path id="Pfad_2864" data-name="Pfad 2864" d="M599.359,443.656l-2.4,3.781-7.171-10.19-3.281-4.667,1.971-2.79,1.508,1.924Z" transform="translate(-412.78 -404.112)" fill="#dce0ed"/>
  <path id="Pfad_2865" data-name="Pfad 2865" d="M638.419,464.641c0,.195.021.4.033.6l-.231,4.939-3.281-4.667,1.971-2.79Z" transform="translate(-461.21 -437.042)" opacity="0.1"/>
  <path id="Pfad_2866" data-name="Pfad 2866" d="M739.378,449.893l-.718,11.21-2.01-3.839,1.542-9.724Z" transform="translate(-517.26 -416.189)" opacity="0.1"/>
  <path id="Pfad_2867" data-name="Pfad 2867" d="M623.173,432.826s-2.877-22.583,7.6-25.962a2.548,2.548,0,0,1,.411-.09c2.412-.3,24.877-3.027,36.54.208,0,0,7.968,1.263,7.883,5.754l-3.534,55.024h-5.739l1.883-36.376s2.737-15.848-1.8-16.941-25.187-2.877-32.468-.719c0,0-5.313-1.263-4.455,12.514l-.344,7.384Z" transform="translate(-452.77 -398.054)" fill="#dce0ed"/>
  <path id="Pfad_2868" data-name="Pfad 2868" d="M648.637,496.917a3.551,3.551,0,0,0-1.35-3.107c-1.606-1.279-6.554-4.05-6.554-4.05l-1.606.134-4.817,12.562.319,26.674,8.673,11.277Z" transform="translate(-460.771 -455.439)" fill="#fafcff"/>
  <path id="Pfad_2869" data-name="Pfad 2869" d="M648.637,496.917a3.551,3.551,0,0,0-1.35-3.107c-1.606-1.279-6.554-4.05-6.554-4.05l-1.606.134-4.817,12.562.319,26.674,8.673,11.277Z" transform="translate(-460.771 -455.439)" opacity="0.1"/>
  <path id="Pfad_2870" data-name="Pfad 2870" d="M567.62,518.358l.17-27.374s-.769-10.625,5.27-10.8c0,0,14.242.109,20.431,2.222a1.412,1.412,0,0,1,.863.854,1.518,1.518,0,0,1-.085,1.243c-1.216,2.254-3.309,8.221-4.312,23.526v16.411Z" transform="translate(-414.363 -448.921)" fill="#fafcff"/>
  <path id="Pfad_2871" data-name="Pfad 2871" d="M529.488,581.3l-25.917-.636h-.024l-12.736-.31,1.475-17.9,7.068.272L521.842,568l6.873,11.344Z" transform="translate(-346.184 -494.375)" fill="#fafcff"/>
  <path id="Pfad_2872" data-name="Pfad 2872" d="M529.488,581.3l-25.917-.636h-.024l-12.736-.31,1.475-17.9,7.068.272L521.842,568l6.873,11.344Z" transform="translate(-346.184 -494.375)" opacity="0.1"/>
  <path id="Pfad_2873" data-name="Pfad 2873" d="M557.713,593.094l-25.917-.636-.426-11.993,18.7-.674,6.873,11.344Z" transform="translate(-374.409 -506.165)" fill="#fafcff"/>
  <path id="Pfad_2874" data-name="Pfad 2874" d="M551.976,613.57l-12.736-.32,1.478-17.9s3.984,6.687,10.857,6.214Z" transform="translate(-394.614 -527.278)" fill="#fff" opacity="0.1"/>
  <path id="Pfad_2875" data-name="Pfad 2875" d="M856.412,688.344c-.514,5.134-3.984,4.322-3.984,4.322l-.648-.061-6.42-.614.258-7.969a26.6,26.6,0,0,1,6.511.412C854.538,684.959,856.64,686.065,856.412,688.344Z" transform="translate(-607.638 -587.575)" fill="#dce0ed"/>
  <path id="Pfad_2876" data-name="Pfad 2876" d="M544.139,454.27s-11.821,5.667-12.679,7.291-6.691,8.63-6.691,8.63l2.527,4.475L538.99,464.9Z" transform="translate(-384.544 -431.293)" fill="#4c4981"/>
  <path id="Pfad_2877" data-name="Pfad 2877" d="M456.534,543.09l-5.474-.86-4.027,4.993s-5.611,2.925-6.265,4.2-2.694,5.025-3.595,5.054-1.743,1.41-1.749,1.956-3.427,6.824-4.276,7.186a6.182,6.182,0,0,0-2.284,2.8c.036.4-3.193,4.417-3.193,4.417s-5.474,9-6.289,9.292-3.969,6.1-4.769,6.792-3.041,1.311-2.767,1.87,5.778,8.467,5.444,10.708c0,0,4.1-3.407,4.258-4.456s5.231-6.578,5.231-6.578l26.553-28.986,5.118-18.268Z" transform="translate(-305.947 -491.137)" fill="#ceddf9"/>
  <path id="Pfad_2878" data-name="Pfad 2878" d="M471.907,544.795s1.092,13.176-2.527,15.17-6.082,1.764-6.779,2.643-4.939,1.656-5.389,2.455-12.338,7.783-12.338,7.783-8.132,5.038-9.406,6.134-8.211,4.3-9.394,5.811-8.61,6.454-8.61,6.454-2.174-7.032-4.674-7.649c0,0,6.009-1.244,6.365-2.238s2.15-2.062,2.15-2.062,8.555-5.217,8.819-6.393,2.372-2.851,2.372-2.851,3.4-4.881,4.647-5.351,8.661-8.467,8.661-8.467,5.039-2.8,5.6-3.721,10.109-6.137,10.109-6.137l-10.884-14.215,3.443-1.112,10.2,2.877,1.825,3.475Z" transform="translate(-306.619 -483.531)" opacity="0.1"/>
  <path id="Pfad_2879" data-name="Pfad 2879" d="M473.927,545.34s1.095,13.176-2.524,15.17-6.082,1.768-6.782,2.643-4.939,1.659-5.389,2.455S446.9,573.4,446.9,573.4s-8.132,5.034-9.409,6.121-8.211,4.306-9.394,5.814-8.61,6.45-8.61,6.45-2.184-7.013-4.674-7.652c0,0,6.012-1.24,6.365-2.237s2.15-2.065,2.15-2.065,8.555-5.217,8.819-6.393,2.375-2.854,2.375-2.854,3.4-4.881,4.647-5.348,8.658-8.471,8.658-8.471,5.039-2.8,5.6-3.721-4.318-13.105-4.318-13.105l3.552-7.256,3.443-1.109,10.2,2.877,1.825,3.475Z" transform="translate(-308.025 -483.885)" fill="#ceddf9"/>
  <path id="Pfad_2880" data-name="Pfad 2880" d="M613.927,440.114l-8.318,6.073s-10.051-3.919-6.082-5.492c2.6-1.032,3.54-6.361,3.874-9.909.176-1.848.185-3.2.185-3.2s11.341-.019,9.254,3.785a6.242,6.242,0,0,0-.693,3.439A12.282,12.282,0,0,0,613.927,440.114Z" transform="translate(-435.921 -413.142)" fill="#fec2be"/>
  <path id="Pfad_2881" data-name="Pfad 2881" d="M623.076,434.844a7.831,7.831,0,0,1-8.746-4.018c.176-1.848.185-3.2.185-3.2s11.341-.019,9.254,3.785A6.242,6.242,0,0,0,623.076,434.844Z" transform="translate(-446.868 -413.169)" opacity="0.1"/>
  <path id="Pfad_2882" data-name="Pfad 2882" d="M626.6,408.55a7.947,7.947,0,0,1-9.748,5.729,8.446,8.446,0,0,1-5.68-10.107,7.987,7.987,0,0,1,9.48-6.207,8.4,8.4,0,0,1,6.127,9.814C626.731,408.035,626.673,408.294,626.6,408.55Z" transform="translate(-444.51 -392.852)" fill="#fec2be"/>
  <path id="Pfad_2883" data-name="Pfad 2883" d="M565.409,456.11s-1.4,0-1.484,2.087-1.5,1.934-1.5,1.934l-6.557,7.157s-2.944,7.409-2.919,7.71-.663,1.553-.508,2.186-.061,2.557-.608,2.388a1.316,1.316,0,0,0-1.448,1.365c.012.943-4.607,3.836-4.419,4.539s13.153,7.943,13.153,7.943l5.4,4.4,5.036-9.861,4.2-13.588,2.333-7.889,1.931-2.269-.888-5.325s-.8-2.3-1.448-1.982-3.041,3.037-5.286,3.273-3.555.524-4.078,0S562.611,459.271,565.409,456.11Z" transform="translate(-399.291 -432.545)" opacity="0.1"/>
  <path id="Pfad_2884" data-name="Pfad 2884" d="M566.276,453.94s-1.661.051-1.752,2.135-1.5,1.934-1.5,1.934l-6.557,7.157s-2.944,7.406-2.916,7.71-.666,1.55-.511,2.186-.058,2.557-.608,2.388a1.317,1.317,0,0,0-1.451,1.365c.012.943-4.607,3.836-4.416,4.539s13.15,7.943,13.15,7.943l5.4,4.4,5.036-9.864,4.2-13.588,2.354-7.886,1.928-2.269-.888-5.325s-.8-2.3-1.448-1.982-3.041,3.037-5.282,3.27-3.555.527-4.078,0S566.724,456.926,566.276,453.94Z" transform="translate(-399.708 -431.069)" opacity="0.1"/>
  <path id="Pfad_2885" data-name="Pfad 2885" d="M566.083,454.61s-1.664.051-1.752,2.135-1.5,1.937-1.5,1.937l-6.557,7.154s-2.944,7.409-2.917,7.71-.666,1.553-.511,2.186-.058,2.557-.608,2.388a1.315,1.315,0,0,0-1.448,1.365c.012.943-4.607,3.836-4.416,4.539s13.15,7.946,13.15,7.946l5.4,4.392,5.036-9.861,4.2-13.588,2.351-7.889,1.931-2.27-.888-5.325s-.8-2.3-1.448-1.979-3.041,3.033-5.282,3.27-3.558.527-4.081,0S566.531,457.611,566.083,454.61Z" transform="translate(-399.576 -431.525)" fill="#fff"/>
  <path id="Pfad_2886" data-name="Pfad 2886" d="M547.5,453.226a11.8,11.8,0,0,1-2.3-.473,15.249,15.249,0,0,0-3.774-.07s-3.412.221-4.042,1.256-3.345,6.639-4.276,6.991-6.432,9.66-7.557,10.478-5.973,10.8-5.973,10.8,3.583-1.777,5.222.825c.043.067.085.134.125.208,1.575,2.9,3.041.665,3.041.665s5.216-4.993,5.632-5.862,3.5-7.409,4.294-9.215,7.515-10.727,7.74-11.124S547.5,453.226,547.5,453.226Z" transform="translate(-380.933 -430.151)" opacity="0.1"/>
  <path id="Pfad_2887" data-name="Pfad 2887" d="M546.558,452.954a18.429,18.429,0,0,1-2.7-.6,15.276,15.276,0,0,0-3.777-.07s-3.412.221-4.042,1.253-3.345,6.642-4.276,6.991-6.432,9.66-7.557,10.481-5.973,10.8-5.973,10.8,3.583-1.777,5.225.825c.04.064.082.134.122.208,1.575,2.9,3.041.665,3.041.665s5.219-5,5.632-5.862,3.5-7.409,4.294-9.215,7.515-10.727,7.74-11.127S546.558,452.954,546.558,452.954Z" transform="translate(-379.993 -429.879)" fill="#4c4981"/>
  <path id="Pfad_2888" data-name="Pfad 2888" d="M611.506,455.62s4.312,3.289,4.866,4.286,6.2,4.117,6.2,4.117,2.129,4.13,1.809,5.616-.657,2.9-.38,3.7.447.786.036,1.832-.268,1.148.3,2.087-8.515,3.836-8.515,3.836-1.216.2-1.347.809-7.1,16.724-8.1,19.284-4.188,12.786-6.858,12.93-.608.038-.608.038.411-8.311-1.232-11.188,1.6-13.978,1.6-13.978S610.07,456.342,611.506,455.62Z" transform="translate(-434.957 -432.212)" opacity="0.1"/>
  <path id="Pfad_2889" data-name="Pfad 2889" d="M612.438,455.62s4.723,3.42,5.276,4.414,6.216,4.117,6.216,4.117,2.129,4.13,1.809,5.616-.657,2.906-.38,3.7.447.786.036,1.832-.271,1.148.3,2.09-8.515,3.836-8.515,3.836-1.216.2-1.347.809-7.113,16.73-8.126,19.287-4.188,12.77-6.858,12.92-.608.038-.608.038.411-8.311-1.232-11.188,1.627-13.984,1.627-13.984S611,456.342,612.438,455.62Z" transform="translate(-435.889 -432.212)" fill="#4c4981"/>
  <path id="Pfad_2890" data-name="Pfad 2890" d="M627.616,558.55s-9.568,2.237-9.866,2.877-8.211,5.6-4.06,7.991,10.675-3.372,10.675-3.372l5.17-3.468Z" transform="translate(-445.586 -502.241)" fill="#fec2be"/>
  <path id="Pfad_2891" data-name="Pfad 2891" d="M661.168,516.61c.155.048,3.488,2.269,3.488,2.269s1.569,5.479,1.913,6.821a41.26,41.26,0,0,1,1.159,4.178c-.058.448.949,2.938-.657,4.075s-3.291.959-4.063,1.72-6.1,3.2-6.77,3.388,3.321-8.346-1.609-9.66c0,0,3.531.349,3.713-.3s.386-2.343-.274-2.96-3.509-3.567-3.509-3.567Z" transform="translate(-474.863 -473.707)" fill="#4c4981"/>
  <path id="Pfad_2892" data-name="Pfad 2892" d="M626.865,407.813a2.263,2.263,0,0,1-.952-1.048c-.325-.665-.651-1.477-1.344-1.646-.389-.1-.861.022-1.149-.268a1.327,1.327,0,0,1-.222-.933,3.941,3.941,0,0,0-.581-2.119,2.083,2.083,0,0,0-1.8-.988c-.988.07-1.849,1.017-2.822.828-.429-.083-.839-.387-1.259-.268a1.221,1.221,0,0,0-.444.262,6.785,6.785,0,0,0-2.028,2.877c-.4,1.074-.535,2.238-1.016,3.289-.192.409-.56.847-.973.719-.645-.2-.3-1.055-.663-1.429a.956.956,0,0,0-.508-.214,8.493,8.493,0,0,1,4.033-7.979,7.65,7.65,0,0,1,8.583.512A8.589,8.589,0,0,1,626.865,407.813Z" transform="translate(-444.602 -392.885)" opacity="0.1"/>
  <path id="Pfad_2893" data-name="Pfad 2893" d="M606.539,397.8c.414.128.782-.32.973-.716.481-1.039.608-2.215,1.016-3.289a6.771,6.771,0,0,1,2.031-2.877,1.22,1.22,0,0,1,.441-.265c.42-.115.833.185,1.259.268.973.192,1.825-.758,2.822-.828a2.083,2.083,0,0,1,1.8.991,3.894,3.894,0,0,1,.581,2.116,1.326,1.326,0,0,0,.225.933c.286.294.757.173,1.15.268.693.173,1.016.981,1.344,1.646s.988,1.362,1.648,1.074a6.226,6.226,0,0,1,.563-.32c.374-.131.821.083,1.156-.134.426-.275.3-.959.027-1.416s-.608-.959-.435-1.448a1.955,1.955,0,0,1,.459-.62,3.186,3.186,0,0,0-.176-4.216c-.271-.256-.587-.454-.852-.716a9.464,9.464,0,0,1-1.216-1.918,5.684,5.684,0,0,0-1.937-1.918,2.68,2.68,0,0,0-1.125-.412,9.068,9.068,0,0,0-1.642.23c-1.843.2-3.427-1.336-5.231-1.771a1.422,1.422,0,0,0-1.238.153,2.855,2.855,0,0,0-.608,1.279,3.725,3.725,0,0,1-2.168,2.039c-1.074.432-2.433.665-2.88,1.774-.389.959.116,2.059-.088,3.069a6.258,6.258,0,0,1-1.156,2.071,2.323,2.323,0,0,0-.377,2.263,1.934,1.934,0,0,0,.985.809c.5.217,1.63.1,1.971.454S605.894,397.607,606.539,397.8Z" transform="translate(-438.803 -382.388)" fill="#9a5e7f"/>
  <path id="Pfad_2894" data-name="Pfad 2894" d="M674.47,546.66c.182.019,3.507.639,4.288,1.816S674.47,546.66,674.47,546.66Z" transform="translate(-488.718 -494.151)" opacity="0.1"/>
  <path id="Pfad_2895" data-name="Pfad 2895" d="M669,535a25.79,25.79,0,0,1,4.045,1.231C673.464,536.6,669,535,669,535Z" transform="translate(-484.912 -486.218)" opacity="0.1"/>
  <path id="Pfad_2896" data-name="Pfad 2896" d="M672.92,505.57s2.667,1.227,2.971,1.988S672.92,505.57,672.92,505.57Z" transform="translate(-487.639 -466.196)" opacity="0.1"/>
  <path id="Pfad_2897" data-name="Pfad 2897" d="M560.84,605c.277.2,6.827,5.312,6.292,5.5S560.84,605,560.84,605Z" transform="translate(-409.645 -533.843)" opacity="0.1"/>
  <path id="Pfad_2898" data-name="Pfad 2898" d="M560.68,615s3.838,1.95,3.2,2.765S560.68,615,560.68,615Z" transform="translate(-409.534 -540.647)" opacity="0.1"/>
  <g id="Gruppe_530" data-name="Gruppe 530" transform="translate(163.95 5.307)" opacity="0.1">
    <path id="Pfad_2899" data-name="Pfad 2899" d="M608.372,401.643c.173-.866-.173-1.8-.03-2.653v.016c-.383.933.1,2.023-.079,3.021A2.783,2.783,0,0,0,608.372,401.643Z" transform="translate(-606.545 -398.99)"/>
    <path id="Pfad_2900" data-name="Pfad 2900" d="M670.132,413.522a.861.861,0,0,0-.043.262,3.483,3.483,0,0,1,.38-.451,2.841,2.841,0,0,0,.642-1.323,2.734,2.734,0,0,1-.52.892,1.955,1.955,0,0,0-.459.62Z" transform="translate(-649.62 -407.848)"/>
    <path id="Pfad_2901" data-name="Pfad 2901" d="M636.5,411.7c-.335.217-.785,0-1.159.134-.2.074-.365.24-.563.32-.66.288-1.323-.406-1.648-1.071s-.651-1.477-1.344-1.649c-.389-.1-.864.026-1.15-.269a1.332,1.332,0,0,1-.225-.93,3.932,3.932,0,0,0-.578-2.119,2.1,2.1,0,0,0-1.806-.991c-.985.07-1.846,1.02-2.819.831-.429-.086-.842-.387-1.262-.272a1.266,1.266,0,0,0-.441.265,6.771,6.771,0,0,0-2.032,2.877q-.175.46-.3.937c.052-.169.106-.339.17-.505a6.771,6.771,0,0,1,2.031-2.877,1.221,1.221,0,0,1,.441-.265c.42-.115.833.185,1.259.269.973.192,1.825-.758,2.822-.828a2.083,2.083,0,0,1,1.8.991,3.894,3.894,0,0,1,.581,2.116,1.326,1.326,0,0,0,.225.933c.286.294.757.173,1.15.268.693.173,1.016.981,1.344,1.646s.988,1.362,1.648,1.074a6.226,6.226,0,0,1,.563-.32c.374-.131.821.083,1.156-.134a.65.65,0,0,0,.274-.575A.554.554,0,0,1,636.5,411.7Z" transform="translate(-615.577 -403.167)"/>
    <path id="Pfad_2902" data-name="Pfad 2902" d="M607.661,420.5c-.189.409-.56.844-.973.716-.645-.2-.3-1.052-.66-1.426s-1.466-.237-1.971-.454a1.945,1.945,0,0,1-.985-.809,1.6,1.6,0,0,1-.128-1.084,1.829,1.829,0,0,0,0,1.515,1.933,1.933,0,0,0,.985.809c.5.217,1.63.1,1.971.454s.015,1.227.66,1.426c.414.128.782-.32.973-.716a8.641,8.641,0,0,0,.471-1.381,7.073,7.073,0,0,1-.344.949Z" transform="translate(-602.78 -411.543)"/>
  </g>
  <path id="Pfad_2903" data-name="Pfad 2903" d="M568.876,477.3s-2.618,4.108-2.305,4.967S568.876,477.3,568.876,477.3Z" transform="translate(-413.615 -446.962)" opacity="0.1"/>
  <path id="Pfad_2904" data-name="Pfad 2904" d="M575.47,519.17a7.264,7.264,0,0,1,1.9,1.183C577.876,520.925,575.47,519.17,575.47,519.17Z" transform="translate(-419.826 -475.448)" opacity="0.1"/>
  <path id="Pfad_2905" data-name="Pfad 2905" d="M585.51,532.27s2.968.754,3.221,1.244S585.51,532.27,585.51,532.27Z" transform="translate(-426.812 -484.361)" opacity="0.1"/>
  <path id="Pfad_2906" data-name="Pfad 2906" d="M587.21,545.63s2.685.371,2.99,1.464S587.21,545.63,587.21,545.63Z" transform="translate(-427.995 -493.451)" opacity="0.1"/>
  <path id="Pfad_2907" data-name="Pfad 2907" d="M868.76,689.319c-.514,5.133-3.984,4.322-3.984,4.322l-.648-.061a7.16,7.16,0,0,1-1.022-3.855,6.686,6.686,0,0,1,1.372-4.315C866.886,685.934,868.988,687.04,868.76,689.319Z" transform="translate(-619.985 -588.551)" opacity="0.1"/>
  <path id="Pfad_2908" data-name="Pfad 2908" d="M530.92,487.22c-5.866,0-10.62,6.754-10.62,15.084s4.753,15.081,10.62,15.081,10.623-6.754,10.623-15.081S536.789,487.22,530.92,487.22Zm-1.5,27.013c-4.471,0-8.093-4.9-8.093-10.941s3.622-10.938,8.093-10.938,8.1,4.9,8.1,10.938S533.894,514.233,529.421,514.233Z" transform="translate(-381.434 -453.711)" fill="#636780"/>
  <path id="Pfad_2909" data-name="Pfad 2909" d="M507.5,507.744l4.969,5.13,1.8-4.593-7.2-4.411Z" transform="translate(-357.499 -454.513)" fill="#636780"/>
  <path id="Pfad_2910" data-name="Pfad 2910" d="M465.069,357.07l4.325.553,1.606,2-2.433,11.507-5.17,18.539L460,402.4l-2.384,7.729L456.1,420.36l-1.521,7.032-4.562,4.795L440.74,420.68l-1.521-3.836-3.649-7.831L445,404.378l10.34-.959,4.866-13.105,3.954-15.183Z" transform="translate(-307.743 -354.637)" fill="#fafcff"/>
  <path id="Pfad_2911" data-name="Pfad 2911" d="M231.884,515.441l-5.654,49.884,71.188-3.152-8.223-24.491-13.707-9.366,31.355.54.17-13.684-12.679-2.883-25.528-2.161-19.19-.9-18.332,6.3" transform="translate(-162.067 -458.16)" fill="#fafcff"/>
  <path id="Pfad_2912" data-name="Pfad 2912" d="M231.884,515.441l-5.654,49.884,71.188-3.152-8.223-24.491-13.707-9.366,31.355.54.17-13.684-12.679-2.883-25.528-2.161-19.19-.9-18.332,6.3" transform="translate(-162.067 -458.16)" opacity="0.24"/>
  <path id="Pfad_2913" data-name="Pfad 2913" d="M545.371,671.091c0,12.4-3.92,23.679-14.792,22.445-13.713-.32-14.789-10.05-14.789-22.445s6.621-21.621,14.789-21.621S545.371,658.7,545.371,671.091Z" transform="translate(-378.295 -564.098)" fill="#636780"/>
  <path id="Pfad_2914" data-name="Pfad 2914" d="M562.464,674.018c0-9.589-3.969-17.293-9.552-20.278-7.171,1.432-12.682,10.1-12.682,21.416,0,10.158.724,18.539,8.534,21.394C558.808,696.924,562.464,685.989,562.464,674.018Z" transform="translate(-395.303 -567.004)" opacity="0.1"/>
  <path id="Pfad_2915" data-name="Pfad 2915" d="M601,577.906l-4.182,5.034,7.527-1.359,5.626-5.434,5.018-10.548,7.071-4.555,17.335,2.477,16.042.639,5.921-5.527-6.605-.946-6.691-.16-16.8-.4-20-.559-4.106,11.507-3.117,7.911Z" transform="translate(-419.955 -490.368)" fill="#fafcff"/>
  <path id="Pfad_2916" data-name="Pfad 2916" d="M334.41,496.787c-.344.54-11.556,2.343-11.556,2.343l-31.02,5.942-53.275.809-6.253-5.584-3.284.614-.134.026-43.878,8.186-.715-.105-11.958-1.793-62.457-9.356.7-9.529.414-5.626.855-11.677.608-3.062,5.562-.537,2.6-.249,40.536-3.909,5.3-.511,2.971-.285,28.955-4.155,42.233,1.08.17-13.687,16.705-54.02c3.683.639,3.6,3.241,3.6,3.241l-14.224,50.875-.173,31.245c29.575,3.139,30.53-3.634,35.208-1.352l5.657-19,49.684.272C339.221,459.51,334.41,496.787,334.41,496.787Z" transform="translate(-95.83 -388.724)" fill="#fafcff"/>
  <path id="Pfad_2917" data-name="Pfad 2917" d="M394.4,598.8l15.762,35.567,5.31,1.8,1.286-5.763-5.912-19.719-6.082-11.434Z" transform="translate(-279.094 -519.099)" fill="#fafcff"/>
  <path id="Pfad_2918" data-name="Pfad 2918" d="M394.4,598.8l15.762,35.567,5.31,1.8,1.286-5.763-5.912-19.719-6.082-11.434Z" transform="translate(-279.094 -519.099)" opacity="0.15"/>
  <ellipse id="Ellipse_294" data-name="Ellipse 294" cx="28.548" cy="34.036" rx="28.548" ry="34.036" transform="translate(76.498 84.831)" fill="#636780"/>
  <path id="Pfad_2919" data-name="Pfad 2919" d="M381.342,654.43C366.4,655.523,354.58,670.31,354.58,688.4c0,14.579,7.688,27.016,18.493,31.862,14.938-1.093,26.762-15.88,26.762-33.966C399.836,671.713,392.148,659.276,381.342,654.43Z" transform="translate(-266.112 -567.473)" opacity="0.1"/>
  <path id="Pfad_2920" data-name="Pfad 2920" d="M101.332,568.07l-1.414,7.01-4.325,21.451L77,594.639s-1.113-3.6,1.8-4.951c0,0,.955-12.188,4.391-16.027a3.468,3.468,0,0,1,1.347-.988Z" transform="translate(-72.805 -508.718)" fill="#fafcff"/>
  <path id="Pfad_2921" data-name="Pfad 2921" d="M99.917,586.979l-4.325,21.451L77,606.538s-1.113-3.6,1.8-4.951c0,0,.955-12.188,4.391-16.027Z" transform="translate(-72.805 -520.617)" fill="#fff" opacity="0.1"/>
  <path id="Pfad_2922" data-name="Pfad 2922" d="M182.908,539.873c2.4,4.226-3.415,43.213-3.415,43.213l-45.672-7.924,1.627-34.125c.943-6.121,4.37-6.84,4.37-6.84,16.118-8.554,53.111-10.357,53.111-10.357,33.757,1.349,64.506,11.795,64.506,11.795C219.058,529.424,182.908,539.873,182.908,539.873Z" transform="translate(-112.489 -478.626)" fill="#fafcff"/>
  <path id="Pfad_2923" data-name="Pfad 2923" d="M179.492,603.846l-45.672-7.924,1.627-34.125c.943-6.121,4.37-6.84,4.37-6.84s33.322-3.334,43.09,5.677C185.3,564.859,179.492,603.846,179.492,603.846Z" transform="translate(-112.489 -499.386)" opacity="0.24"/>
  <path id="Pfad_2924" data-name="Pfad 2924" d="M180.729,612.268l-38.179-6.76,1.353-29.117c.788-5.223,3.649-5.837,3.649-5.837s27.863-2.845,36.029,4.839C185.6,579,180.729,612.268,180.729,612.268Z" transform="translate(-118.564 -510.057)" fill="#fafcff"/>
  <ellipse id="Ellipse_295" data-name="Ellipse 295" cx="5.225" cy="9.995" rx="5.225" ry="9.995" transform="translate(53.798 68.264)" opacity="0.1"/>
  <ellipse id="Ellipse_296" data-name="Ellipse 296" cx="5.225" cy="9.995" rx="5.225" ry="9.995" transform="translate(53.798 67.996)" fill="#dce0ed"/>
  <path id="Pfad_2925" data-name="Pfad 2925" d="M256.925,603.28s-2.129.358-1.028,3.331a22.365,22.365,0,0,1,1.283,4.5s2.129,1.173,2.056-2.7S256.925,603.28,256.925,603.28Z" transform="translate(-197.22 -532.673)" fill="#f0f0f4"/>
  <ellipse id="Ellipse_297" data-name="Ellipse 297" cx="4.884" cy="9.34" rx="4.884" ry="9.34" transform="translate(26.127 64.959)" opacity="0.1"/>
  <ellipse id="Ellipse_298" data-name="Ellipse 298" cx="4.884" cy="9.34" rx="4.884" ry="9.34" transform="translate(26.127 64.687)" fill="#dce0ed"/>
  <path id="Pfad_2926" data-name="Pfad 2926" d="M164.825,590.88s-2.129.361-1.028,3.334a22.559,22.559,0,0,1,1.286,4.5s2.129,1.17,2.056-2.7S164.825,590.88,164.825,590.88Z" transform="translate(-133.13 -524.237)" fill="#f0f0f4"/>
  <path id="Pfad_2927" data-name="Pfad 2927" d="M198.015,592.065c-.341,3.692-2.056,31.063-2.056,31.063l-2.907-.511-1.615-.278-2.153-.38-.262-.045-8.482-1.486,1.676-29.033a3.529,3.529,0,0,1,3.51-3.4,2.341,2.341,0,0,1,.258,0c.587.054,1.216.118,1.876.195.277.032.56.064.842.1.815.1,1.657.227,2.482.368.42.077.833.157,1.244.24.69.144,1.359.3,1.977.486.417.121.815.253,1.18.4C197.117,590.361,198.118,591.112,198.015,592.065Z" transform="translate(-145.001 -522.27)" opacity="0.1"/>
  <path id="Pfad_2928" data-name="Pfad 2928" d="M191.633,587.993l-1.66,32.6-.943-.09,1.645-32.415a3.274,3.274,0,0,1,.958-.1Z" transform="translate(-150.909 -522.27)" fill="#fafcff"/>
  <path id="Pfad_2929" data-name="Pfad 2929" d="M200.491,588.7l-1.554,32.949H197.48l2.168-33.055C199.925,588.625,200.208,588.657,200.491,588.7Z" transform="translate(-156.789 -522.678)" fill="#fafcff"/>
  <path id="Pfad_2930" data-name="Pfad 2930" d="M211.857,590.344l-2.451,33.064h-.946v-.045l2.15-33.243C211.033,590.181,211.446,590.261,211.857,590.344Z" transform="translate(-164.43 -523.719)" fill="#fafcff"/>
  <path id="Pfad_2931" data-name="Pfad 2931" d="M220.508,592.736l-2.521,32.84v.064l-1.627-.182v-.16l2.956-32.959A12.119,12.119,0,0,1,220.508,592.736Z" transform="translate(-169.927 -525.23)" fill="#fafcff"/>
  <path id="Pfad_2932" data-name="Pfad 2932" d="M113.872,634.47s-3.148-17.085,4.048-17.964,30.841.959,30.132,7.969-1.469,17.692-1.469,17.692L141.7,641.02s3.649-16.072-2.056-16.679-19.725-2.3-19.725-2.3-3.792-.674-1.606,13.425Z" transform="translate(-98.131 -541.533)" opacity="0.1"/>
  <path id="Pfad_2933" data-name="Pfad 2933" d="M113.872,637.241s-3.148-18.165,4.048-19.044,30.841.959,30.132,7.969-1.469,17.692-1.469,17.692L141.7,642.71s3.649-16.072-2.056-16.679-19.734-2.282-19.734-2.282-3.792.406-1.606,14.522Z" transform="translate(-98.131 -542.682)" fill="#dce0ed"/>
  <path id="Pfad_2934" data-name="Pfad 2934" d="M353.973,645.9l-6.338-.09c-4.626-21.416-12.253-34.755-12.253-34.755-2.579-1.442-30.676-1.247-30.676-1.247-2.913.54-3.683,10.267-3.683,10.267s2.485,2.237.085,3.692c-1.07.639-4.6.764-8.661.543-5.042-.275-10.918-1.08-13.953-2.074-5.474-1.8-1.116-5.134-1.116-5.134s.772-1.08,1.286-7.032a24.9,24.9,0,0,1,3.126-9.81c.237-.412.386-.639.386-.639a2.918,2.918,0,0,1,1-.658c7.262-3.2,42.859-.153,42.859-.153l13.193,4.414c.365.154.928,1.132,1.621,2.695C345.02,615.309,353.973,645.9,353.973,645.9Z" transform="translate(-211.244 -528.739)" fill="#fafcff"/>
  <path id="Pfad_2935" data-name="Pfad 2935" d="M353.973,645.9l-6.338-.09c-4.626-21.416-12.253-34.755-12.253-34.755-2.579-1.442-30.676-1.247-30.676-1.247-2.913.54-3.683,10.267-3.683,10.267s2.485,2.237.085,3.692c-1.07.639-4.6.764-8.661.543-5.042-.275-10.918-1.08-13.953-2.074-5.474-1.8-1.116-5.134-1.116-5.134s.772-1.08,1.286-7.032a24.9,24.9,0,0,1,3.126-9.81c.237-.412.386-.639.386-.639a2.918,2.918,0,0,1,1-.658c7.262-3.2,42.859-.153,42.859-.153l13.193,4.414c.365.154.928,1.132,1.621,2.695C345.02,615.309,353.973,645.9,353.973,645.9Z" transform="translate(-211.244 -528.739)" opacity="0.24"/>
  <path id="Pfad_2936" data-name="Pfad 2936" d="M354.71,605.9c-12.165-4.974-45.739-2.333-45.739-2.333-3.564-3.2-10.27-3.414-13.32-3.328.237-.412.386-.639.386-.639a2.918,2.918,0,0,1,1-.658c7.262-3.2,42.859-.153,42.859-.153l13.193,4.414C353.454,603.357,354.016,604.335,354.71,605.9Z" transform="translate(-225.104 -528.725)" fill="#fafcff"/>
  <path id="Pfad_2937" data-name="Pfad 2937" d="M297.1,608.01c-.769,2.791-3.932,13.959-3.932,13.959a49.535,49.535,0,0,0-.7,5.405c-5.042-.275-10.918-1.08-13.953-2.075-5.474-1.8-1.116-5.134-1.116-5.134s.772-1.08,1.286-7.032a24.732,24.732,0,0,1,3.513-10.446,2.92,2.92,0,0,1,1-.659C287.954,603.219,297.679,605.9,297.1,608.01Z" transform="translate(-211.258 -531.822)" fill="#fafcff"/>
  <path id="Pfad_2938" data-name="Pfad 2938" d="M297.1,608.01c-.769,2.791-3.932,13.959-3.932,13.959a49.535,49.535,0,0,0-.7,5.405c-5.042-.275-10.918-1.08-13.953-2.075-5.474-1.8-1.116-5.134-1.116-5.134s.772-1.08,1.286-7.032a24.732,24.732,0,0,1,3.513-10.446,2.92,2.92,0,0,1,1-.659C287.954,603.219,297.679,605.9,297.1,608.01Z" transform="translate(-211.258 -531.822)" fill="#fff" opacity="0.1"/>
  <path id="Pfad_2939" data-name="Pfad 2939" d="M339.365,388.2c-3.406.54-4.884,7.969-4.884,7.969l-9.251,32.482,65.4,11.277,16.705-54.02C391.984,378.611,339.365,388.2,339.365,388.2Zm52.612,34.71s-.386,3.107-2.892,3.379l-42.4-1.742-8.7-.361-2.916-.118h-.207s-3.215.607-2.7-2.238c0,0,3.534-27.01,9.768-29.037,0,0,.648-.144,1.782-.368,1.782-.355,4.756-.911,8.26-1.419,1.569-.227,3.245-.444,4.969-.639a71.067,71.067,0,0,1,13.965-.352s31.224-3.04,28.976,4.254c.006.01-6.548,26.412-7.9,28.64Z" transform="translate(-245.688 -382.919)" fill="#fafcff"/>
  <path id="Pfad_2940" data-name="Pfad 2940" d="M350.82,443.772h-.207s-3.215.607-2.7-2.237c0,0,3.534-27.01,9.768-29.037,0,0,.648-.144,1.782-.368C357.2,416.771,349.938,432.661,350.82,443.772Z" transform="translate(-261.434 -402.623)" fill="#fafcff"/>
  <path id="Pfad_2941" data-name="Pfad 2941" d="M350.82,443.772h-.207s-3.215.607-2.7-2.237c0,0,3.534-27.01,9.768-29.037,0,0,.648-.144,1.782-.368C357.2,416.771,349.938,432.661,350.82,443.772Z" transform="translate(-261.434 -402.623)" opacity="0.1"/>
  <path id="Pfad_2942" data-name="Pfad 2942" d="M192.573,690.193a4.1,4.1,0,0,1-3.871,2.282l-1.311-.061-12.35-.559-4.452-.2-4.112-.358-54.3-9.27.414-5.626,6.244.94,2.585.39,38.334,5.754,5.045.78,2.448.368,10.367-.08,11.222-.086a4.042,4.042,0,0,1,1.654.32,4.117,4.117,0,0,1,2.174,2.17,3.713,3.713,0,0,1-.094,3.238Z" transform="translate(-97.43 -582.42)" opacity="0.1"/>
  <path id="Pfad_2943" data-name="Pfad 2943" d="M159.93,677.365a4.1,4.1,0,0,1-3.871,2.282l-18.113-.822-4.112-.361-57.9-9.874-4.562-.777-2.469-.435c-4.881-1.08-3.424-6.214-3.424-6.214.341-2.343,8.737-4.5,11.477-4.411,1.843.061,2.1,3.043,2.068,5a13.529,13.529,0,0,1-.1,1.665l2.71.409,52.974,7.966,21.592-.166a4.135,4.135,0,0,1,3.829,2.506,3.712,3.712,0,0,1-.1,3.235Z" transform="translate(-64.787 -569.052)" fill="#dce0ed"/>
  <path id="Pfad_2944" data-name="Pfad 2944" d="M90.72,666.94a9.88,9.88,0,0,0,5.912,3.42A6.467,6.467,0,0,0,90.72,666.94Z" transform="translate(-82.497 -575.984)" opacity="0.1"/>
  <path id="Pfad_2945" data-name="Pfad 2945" d="M71.3,693.138s-7.624-.182-7.624,4.155,4.8,5.044,4.8,5.044l68.1,13.77,19.36.358s6.767-5.671-.258-8.193l-19.527.531L71.219,696.289S72.931,693.857,71.3,693.138Z" transform="translate(-63.68 -593.807)" opacity="0.1"/>
  <path id="Pfad_2946" data-name="Pfad 2946" d="M155.943,718.126l-19.36-.358L76.027,705.519l-4.431-.9-3.117-.639s-4.8-.722-4.8-5.044c0-3.1,3.929-3.884,6.146-4.079.873-.073,1.478-.061,1.478-.061,1.627.719-.085,3.148-.085,3.148l2.363.457,62.575,12.07,19.53-.54C162.71,712.443,155.943,718.126,155.943,718.126Z" transform="translate(-63.68 -594.937)" fill="#dce0ed"/>
  <path id="Pfad_2947" data-name="Pfad 2947" d="M97.627,677.932l4.027-1.892,2.056-.089-.17,18.188L97.2,692.789l-2.658-1.8-1.283-7.563a21.464,21.464,0,0,1,.769-3.42C94.285,679.738,97.627,677.932,97.627,677.932Z" transform="translate(-84.264 -582.114)" fill="#dce0ed"/>
  <path id="Pfad_2948" data-name="Pfad 2948" d="M97.627,677.932l4.027-1.892,2.056-.089-.17,18.188L97.2,692.789l-2.658-1.8-1.283-7.563a21.464,21.464,0,0,1,.769-3.42C94.285,679.738,97.627,677.932,97.627,677.932Z" transform="translate(-84.264 -582.114)" opacity="0.1"/>
  <path id="Pfad_2949" data-name="Pfad 2949" d="M89.157,705.526l.073.093-4.452-.9-.052-.09c-2.345-3.98-2.549-7.2-1.77-9.759.873-.073,1.478-.061,1.478-.061,1.627.719-.085,3.148-.085,3.148l2.363.457A11.736,11.736,0,0,0,89.157,705.526Z" transform="translate(-76.81 -594.944)" opacity="0.1"/>
  <path id="Pfad_2950" data-name="Pfad 2950" d="M97.673,673.143a22.264,22.264,0,0,0-2.089.959,13.788,13.788,0,0,0-5.7,4.753l-4.562-.777c1.974-4.309,6.691-6.278,6.691-6.278l.955.227Z" transform="translate(-78.739 -579.291)" opacity="0.1"/>
  <path id="Pfad_2951" data-name="Pfad 2951" d="M91.743,671.73s-12.505,5.223-5.31,17.286l4.455.9s-8.819-10.625,6.508-16.839Z" transform="translate(-77.96 -579.243)" fill="#dce0ed"/>
  <path id="Pfad_2952" data-name="Pfad 2952" d="M137.454,656.729l4.626-.179-.772,19.537-7.454-1.438-3.169-1.621-1.457-3.874-1.028-3.871,2.485-3.513,2.828-1.979Z" transform="translate(-93.85 -558.389)" fill="#dce0ed"/>
  <path id="Pfad_2953" data-name="Pfad 2953" d="M137.454,656.729l4.626-.179-.772,19.537-7.454-1.438-3.169-1.621-1.457-3.874-1.028-3.871,2.485-3.513,2.828-1.979Z" transform="translate(-93.85 -558.389)" opacity="0.1"/>
  <ellipse id="Ellipse_299" data-name="Ellipse 299" cx="2.226" cy="3.96" rx="2.226" ry="3.96" transform="translate(40.864 104.464)" fill="#dce0ed"/>
  <path id="Pfad_2954" data-name="Pfad 2954" d="M122.941,746.87a5.122,5.122,0,0,0-3.148-4.187s-4.82-1.483-4.948,4.136c0,0,.064,3.446,2.25,4.526l.128,3.836s.192,3.58-1.737,3.241-1.67-3.516-1.67-3.516-1.028-3.375-3.534-1.621c0,0-.578,1.892.709,2.839a2.68,2.68,0,0,1,.669,2.519,3.794,3.794,0,0,0,.8,2.934,3.154,3.154,0,0,0,3.09,1.164,4.746,4.746,0,0,0,2.676-1.617,7.587,7.587,0,0,0,1.855-4.919l.094-4.942A3.82,3.82,0,0,0,122.941,746.87Zm-3.954,3.478a3.934,3.934,0,1,0,0-.013Z" transform="translate(-96.021 -627.396)" fill="#dce0ed"/>
  <path id="Pfad_2955" data-name="Pfad 2955" d="M133.809,731.13a1.253,1.253,0,0,0-.676.746,1.338,1.338,0,0,0,.067,1.028,9.161,9.161,0,0,1,1.052,2.618c-.1.572,1.125.1,1.283-.035s2.378,0,2.506-1.6a2.758,2.758,0,0,0-1.186-2.432l.514-3.478-3.041-.268.033,3.174Z" transform="translate(-111.962 -617.329)" fill="#636780"/>
  <path id="Pfad_2956" data-name="Pfad 2956" d="M133.809,731.13a1.253,1.253,0,0,0-.676.746,1.338,1.338,0,0,0,.067,1.028,9.161,9.161,0,0,1,1.052,2.618c-.1.572,1.125.1,1.283-.035s2.378,0,2.506-1.6a2.758,2.758,0,0,0-1.186-2.432l.514-3.478-3.041-.268.033,3.174Z" transform="translate(-111.962 -617.329)" opacity="0.1"/>
  <path id="Pfad_2957" data-name="Pfad 2957" d="M138.26,738.21s1.028,3.714.578,3.836S138.26,738.21,138.26,738.21Z" transform="translate(-115.579 -624.473)" opacity="0.1"/>
  <path id="Pfad_2958" data-name="Pfad 2958" d="M142.06,735.46s1.028,3.714.578,3.836S142.06,735.46,142.06,735.46Z" transform="translate(-118.223 -622.602)" opacity="0.1"/>
  <path id="Pfad_2959" data-name="Pfad 2959" d="M130.233,693.752l-1.715,11.165s-2.129-.3-3.291-.569a2.291,2.291,0,0,1-.736-.24c-.061-.064-.186-.058-.353-.022h0c-.572.122-1.587.617-1.785.2a.3.3,0,0,0-.058-.086h0c-.2-.23-.59-.064-.967,0a.786.786,0,0,1-.608-.083c-.3-.224-.958.134-1.481.252-.332.077-.608.061-.748-.252a.693.693,0,0,0-.511-.384h0c-.493-.131-1.183-.042-1.581-.131a.362.362,0,0,1-.3-.208c-.079-.243-.52-.358-.991-.454-.575-.115-1.192-.2-1.238-.444,0-.083-.07-.118-.155-.121a5.1,5.1,0,0,0-.937.243h0c-.255.07-.471.07-.532-.122s-.362-.192-.7-.105c-.271.07-.572.182-.8.24s-.359.058-.383-.048c-.085-.358-1.2.454-1.454-.269s-3.777-5.511.785-11.712c0,0,1.216.09,2.165.269a3.268,3.268,0,0,1,.912.269h0a5,5,0,0,0,1.651.2,2.047,2.047,0,0,1,.912.23.628.628,0,0,1,.258.288c.143.342.471.412.83.393.487-.032,1.028-.224,1.216-.121h.018c.359.163,1.7,0,1.931.24l.018.022c.1.15.608,0,1.162-.083h0a1.248,1.248,0,0,1,1.064.176,1.123,1.123,0,0,0,.833.259,4.671,4.671,0,0,1,1.092.045.463.463,0,0,1,.216.144c.216.285.739.246,1.216.272a1.194,1.194,0,0,1,.681.179.622.622,0,0,0,.246.109,6.976,6.976,0,0,0,2.065-.109Z" transform="translate(-94.079 -592.081)" fill="#636780"/>
  <path id="Pfad_2960" data-name="Pfad 2960" d="M115.536,702.954c-.271.07-.572.182-.8.24a9.21,9.21,0,0,1,1.1-11.753,3.272,3.272,0,0,1,.912.268C113.243,695.947,114.867,701.24,115.536,702.954Z" transform="translate(-98.074 -592.653)" opacity="0.1"/>
  <path id="Pfad_2961" data-name="Pfad 2961" d="M123.229,703.945a5.108,5.108,0,0,0-.937.243h0a9.2,9.2,0,0,1,1.633-11.267,2.045,2.045,0,0,1,.912.23C121.508,696.979,122.5,701.745,123.229,703.945Z" transform="translate(-103.596 -593.66)" opacity="0.1"/>
  <path id="Pfad_2962" data-name="Pfad 2962" d="M131.417,706.789a.362.362,0,0,1-.3-.208c-.079-.243-.52-.358-.991-.454a9.09,9.09,0,0,1,1.308-10.679c.487-.032,1.028-.224,1.216-.121h.018C128.99,699.677,130.77,705.175,131.417,706.789Z" transform="translate(-109.098 -595.277)" opacity="0.1"/>
  <path id="Pfad_2963" data-name="Pfad 2963" d="M140.595,708.014c-.331.077-.608.061-.748-.253a.693.693,0,0,0-.511-.383h0a9.216,9.216,0,0,1,1.609-11.348l.018.022c.1.15.608,0,1.162-.083C137.794,700.563,140.02,706.662,140.595,708.014Z" transform="translate(-115.432 -595.735)" opacity="0.1"/>
  <path id="Pfad_2964" data-name="Pfad 2964" d="M150.979,708.751c-.2-.23-.59-.064-.967,0a9.187,9.187,0,0,1,1.347-11.44,4.671,4.671,0,0,1,1.092.045C148.744,701.546,150.273,706.888,150.979,708.751Z" transform="translate(-122.769 -596.638)" opacity="0.1"/>
  <path id="Pfad_2965" data-name="Pfad 2965" d="M160.544,709.918a2.29,2.29,0,0,1-.736-.24c-.061-.064-.186-.058-.353-.022h0a9.079,9.079,0,0,1,1.046-10.868,1.193,1.193,0,0,1,.681.179.622.622,0,0,0,.246.109C158.352,703.243,159.906,708.268,160.544,709.918Z" transform="translate(-129.397 -597.651)" opacity="0.1"/>
  <ellipse id="Ellipse_300" data-name="Ellipse 300" cx="13.962" cy="21.608" rx="13.962" ry="21.608" transform="translate(100.231 98.883)" fill="#636780"/>
  <ellipse id="Ellipse_301" data-name="Ellipse 301" cx="10.151" cy="17.513" rx="10.151" ry="17.513" transform="translate(103.57 103.291)" opacity="0.1"/>
  <ellipse id="Ellipse_302" data-name="Ellipse 302" cx="10.151" cy="17.513" rx="10.151" ry="17.513" transform="translate(103.57 102.751)" fill="#f0f0f4"/>
  <ellipse id="Ellipse_303" data-name="Ellipse 303" cx="1.198" cy="2.161" rx="1.198" ry="2.161" transform="translate(114.363 106.353)" fill="#636780"/>
  <ellipse id="Ellipse_304" data-name="Ellipse 304" cx="1.198" cy="2.161" rx="1.198" ry="2.161" transform="translate(119.162 125.263)" fill="#636780"/>
  <ellipse id="Ellipse_305" data-name="Ellipse 305" cx="1.198" cy="2.161" rx="1.198" ry="2.161" transform="translate(106.225 116.259)" fill="#636780"/>
  <ellipse id="Ellipse_306" data-name="Ellipse 306" cx="1.198" cy="2.161" rx="1.198" ry="2.161" transform="translate(109.738 128.862)" fill="#636780"/>
  <path id="Pfad_2966" data-name="Pfad 2966" d="M775.22,634.26s10.036,28.094,9.51,29.849c0,0,4.239,2.7,5.267,2.026s.131-13.105.131-13.105L788.2,642.091l-2.187-6.482Z" transform="translate(-558.828 -553.75)" fill="#fafcff"/>
  <path id="Pfad_2967" data-name="Pfad 2967" d="M775.22,634.26s10.036,28.094,9.51,29.849c0,0,4.239,2.7,5.267,2.026s.131-13.105.131-13.105L788.2,642.091l-2.187-6.482Z" transform="translate(-558.828 -553.75)" opacity="0.15"/>
  <ellipse id="Ellipse_307" data-name="Ellipse 307" cx="1.198" cy="2.161" rx="1.198" ry="2.161" transform="translate(120.875 113.558)" fill="#636780"/>
  <ellipse id="Ellipse_308" data-name="Ellipse 308" cx="3.513" cy="5.134" rx="3.513" ry="5.134" transform="translate(112.049 115.805)" fill="#636780"/>
  <path id="Pfad_2968" data-name="Pfad 2968" d="M723.206,691.362c0,16.26-5.14,31.063-19.4,29.443-17.989-.406-19.4-13.182-19.4-29.443S693.08,663,703.8,663,723.206,675.1,723.206,691.362Z" transform="translate(-495.628 -573.304)" fill="#636780"/>
  <path id="Pfad_2969" data-name="Pfad 2969" d="M745.608,695.191c0-12.588-5.206-22.695-12.533-26.6-9.406,1.88-16.635,13.253-16.635,28.087,0,13.326.952,24.293,11.195,28.065C740.812,725.241,745.608,710.914,745.608,695.191Z" transform="translate(-517.924 -577.107)" opacity="0.1"/>
  <path id="Pfad_2970" data-name="Pfad 2970" d="M616.113,651.315s-2.57,2.3-3.984.674c0,0-3.47-29.174-7.837-29.308l-15.036-.134s-1.8.809-2.57,4.321l-9.732,29.088-53.266.806-4.069-8.95,44.076.134v-.019c.237-.9,7.6-28.538,12.551-31.965h0a2.089,2.089,0,0,1,.544-.278s18.375-2.557,24.414-.812c0,0,6.3,1.486,7.837,3.516h0c.207.227,2.591,3.049,3.33,11.188Z" transform="translate(-380.961 -540.145)" opacity="0.1"/>
  <path id="Pfad_2971" data-name="Pfad 2971" d="M616.113,653.005s-2.57,2.3-3.984.674c0,0-3.47-29.174-7.837-29.308l-15.036-.134s-1.8.809-2.57,4.322l-9.732,29.088-53.266.805-4.069-8.95,44.076.134v-.019c.237-.9,7.6-28.538,12.551-31.965h0a2.089,2.089,0,0,1,.544-.278s18.375-2.557,24.414-.812c0,0,6.3,1.486,7.837,3.516v.016c.207.227,2.591,3.049,3.33,11.188Z" transform="translate(-380.961 -541.295)" fill="#fafcff"/>
  <path id="Pfad_2972" data-name="Pfad 2972" d="M616.113,653.005s-2.57,2.3-3.984.674c0,0-3.47-29.174-7.837-29.308l-15.036-.134s-1.8.809-2.57,4.322l-9.732,29.088-53.266.805-4.069-8.95,44.076.134v-.019c.237-.9,7.6-28.538,12.551-31.965h0a2.089,2.089,0,0,1,.544-.278s18.375-2.557,24.414-.812c0,0,6.3,1.486,7.837,3.516v.016c.207.227,2.591,3.049,3.33,11.188Z" transform="translate(-380.961 -541.295)" opacity="0.24"/>
  <path id="Pfad_2973" data-name="Pfad 2973" d="M684.309,624.727c-1.286,2.557-12.335,34.17-12.335,34.17l-7.454-5.674V653.2c.237-.9,7.6-28.567,12.557-31.965C680.3,621.8,685.182,622.985,684.309,624.727Z" transform="translate(-481.794 -544.892)" fill="#fafcff"/>
  <path id="Pfad_2974" data-name="Pfad 2974" d="M596.412,586.94l-6.04,20.8-31.482-.959.255,3.107s24.673,3.781,35.208-1.352l5.657-19,49.684.269-9.464-2.34Z" transform="translate(-408.288 -521.556)" fill="#fafcff"/>
  <path id="Pfad_2975" data-name="Pfad 2975" d="M596.412,586.94l-6.04,20.8-31.482-.959.255,3.107s24.673,3.781,35.208-1.352l5.657-19,49.684.269-9.464-2.34Z" transform="translate(-408.288 -521.556)" fill="#fff" opacity="0.1"/>
  <path id="Pfad_2976" data-name="Pfad 2976" d="M176.362,689.47s-16.875,8.915-4.37,17.29l3.345.809s-12.25-9.27,8.211-18.1Z" transform="translate(-135.841 -591.313)" opacity="0.1"/>
  <path id="Pfad_2977" data-name="Pfad 2977" d="M178.052,689.47s-16.875,8.915-4.37,17.29l3.345.809s-12.25-9.27,8.211-18.1Z" transform="translate(-137.017 -591.313)" fill="#dce0ed"/>
  <ellipse id="Ellipse_309" data-name="Ellipse 309" cx="9.379" cy="16.884" rx="9.379" ry="16.884" transform="translate(206.24 103.47)" fill="#636780"/>
  <ellipse id="Ellipse_310" data-name="Ellipse 310" cx="6.818" cy="13.681" rx="6.818" ry="13.681" transform="translate(208.485 107.037)" opacity="0.1"/>
  <ellipse id="Ellipse_311" data-name="Ellipse 311" cx="6.818" cy="13.681" rx="6.818" ry="13.681" transform="translate(208.485 106.497)" fill="#f0f0f4"/>
  <ellipse id="Ellipse_312" data-name="Ellipse 312" cx="0.806" cy="1.688" rx="0.806" ry="1.688" transform="translate(215.735 109.31)" fill="#636780"/>
  <ellipse id="Ellipse_313" data-name="Ellipse 313" cx="0.806" cy="1.688" rx="0.806" ry="1.688" transform="translate(218.958 124.084)" fill="#636780"/>
  <ellipse id="Ellipse_314" data-name="Ellipse 314" cx="0.806" cy="1.688" rx="0.806" ry="1.688" transform="translate(210.267 117.048)" fill="#636780"/>
  <ellipse id="Ellipse_315" data-name="Ellipse 315" cx="0.806" cy="1.688" rx="0.806" ry="1.688" transform="translate(212.627 126.897)" fill="#636780"/>
  <ellipse id="Ellipse_316" data-name="Ellipse 316" cx="0.806" cy="1.688" rx="0.806" ry="1.688" transform="translate(220.108 114.939)" fill="#636780"/>
  <ellipse id="Ellipse_317" data-name="Ellipse 317" cx="2.36" cy="4.008" rx="2.36" ry="4.008" transform="translate(214.181 116.697)" fill="#636780"/>
  <path id="Pfad_2978" data-name="Pfad 2978" d="M324.8,524s28.529,1.08,65.534,11.75Z" transform="translate(-245.389 -478.735)" opacity="0.1"/>
  <path id="Pfad_2980" data-name="Pfad 2980" d="M521.06,494.236l-.018.026a3.129,3.129,0,0,0-.608,1.474c-.249,1.707-.487,5.2,1.876,4.625a7.2,7.2,0,0,0,3.522-2.011,3.125,3.125,0,0,0,.782-2.238h0a2.369,2.369,0,0,0-.976-1.95l-.879-.531a1.463,1.463,0,0,0-.821-.224l-1.521.058A1.875,1.875,0,0,0,521.06,494.236Z" transform="translate(-381.422 -457.921)" fill="#fec2be"/>
  <path id="Pfad_2981" data-name="Pfad 2981" d="M561.255,404.5l-4.54,23.711-3.215,7.135,2.129,4.155,4.714-11.667s5.17-17.1,5.17-17.581S561.255,404.5,561.255,404.5Z" transform="translate(-404.537 -397.432)" fill="#fafcff"/>
</svg>
