<svg xmlns="http://www.w3.org/2000/svg" width="219.802" height="174.957" viewBox="0 0 219.802 174.957">
  <g id="Gruppe_567" data-name="Gruppe 567" transform="translate(0.005 0)">
    <rect id="Rechteck_1825" data-name="Rechteck 1825" width="1.559" height="17.154" transform="translate(49.806 59.801)" fill="#f2f2f2"/>
    <path id="Pfad_3140" data-name="Pfad 3140" d="M134.881,419.618H73.438l.069-7.139.006-.621.549-55.867h60.507l.078,16.139,0,.621Z" transform="translate(-50.537 -244.961)" fill="#fff"/>
    <path id="Pfad_3141" data-name="Pfad 3141" d="M723.1,292.313l9.942-16.854a3.159,3.159,0,0,0-1.086-4.3h0a3.159,3.159,0,0,0-4.422,1.206l-9.791,17.824-6.406,10.58a2.756,2.756,0,1,0,2.357,2.637Z" transform="translate(-564.545 -239.146)" fill="#a0616a"/>
    <path id="Pfad_3142" data-name="Pfad 3142" d="M763.219,270.6h0a.931.931,0,0,0,.717-.872,1.208,1.208,0,0,1,.263-.688,1.115,1.115,0,0,1,.1-.106,1.822,1.822,0,0,0,.6-1.576,5.764,5.764,0,0,1,.641-2.983,13.744,13.744,0,0,0,1.2-3.08c.3-1.565-.157-3.419-2.086-3.883a3.668,3.668,0,0,0-2.44.3,9.171,9.171,0,0,0-3.474,3.757,37.011,37.011,0,0,1-3.709,3.379c.4.154.349.788.019,1.059a2.453,2.453,0,0,1-1.21.364c-.531.085-1.135.328-1.1.989a1.149,1.149,0,0,0,.432.812,21.7,21.7,0,0,0,7.86,4.138,2.648,2.648,0,0,0,1.943.018C763.558,271.912,763.786,270.945,763.219,270.6Z" transform="translate(-595.202 -229.938)" fill="#fafcff"/>
    <path id="Pfad_3143" data-name="Pfad 3143" d="M541.225,189.747l-20.273-.312-.624-4.678,1.871-10.6h15.906Z" transform="translate(-358.046 -119.835)" fill="#a0616a"/>
    <path id="Pfad_3144" data-name="Pfad 3144" d="M488.859,509.683h-3.443L483.778,496.4h5.081Z" transform="translate(-332.896 -341.58)" fill="#a0616a"/>
    <path id="Pfad_3145" data-name="Pfad 3145" d="M726.929,708.539H724.46l-.441-2.331-1.129,2.331h-6.548a1.472,1.472,0,0,1-.836-2.683l5.229-3.611v-2.356l5.5.328Z" transform="translate(-569.148 -534.472)" fill="#2f2e41"/>
    <path id="Pfad_3146" data-name="Pfad 3146" d="M623.4,479.117l-2.824,1.969-8.939-9.955,4.168-2.906Z" transform="translate(-420.874 -322.189)" fill="#a0616a"/>
    <path id="Pfad_3147" data-name="Pfad 3147" d="M888.439,670.838l-2.025,1.412-1.695-1.66.407,2.557-5.371,3.745a1.472,1.472,0,0,1-2.221-1.722l2.224-5.953-1.348-1.933,4.7-2.876Z" transform="translate(-681.015 -510.057)" fill="#2f2e41"/>
    <path id="Pfad_3148" data-name="Pfad 3148" d="M467.062,728.532l-219.059.1a.371.371,0,1,1,0-.743l219.059-.1a.371.371,0,0,1,0,.743Z" transform="translate(-247.637 -553.671)" fill="#fff"/>
    <rect id="Rechteck_1826" data-name="Rechteck 1826" width="67.212" height="7.413" transform="translate(19.625 104.604)" fill="#fff"/>
    <path id="Pfad_3149" data-name="Pfad 3149" d="M433.281,471.215l-.228-.8h.051a.532.532,0,0,0,0-1.065,15.839,15.839,0,0,0-7.32,0,.532.532,0,0,0-.006,1.064l-.216.8c-1.679,2.335-.858,6.214,0,10.115h7.719C434.252,477.077,434.987,473.039,433.281,471.215Z" transform="translate(-369.402 -375.542)" fill="#e6e6e6"/>
    <circle id="Ellipse_368" data-name="Ellipse 368" cx="2.129" cy="2.129" r="2.129" transform="translate(57.914 97.669)" fill="#fff"/>
    <path id="Pfad_3150" data-name="Pfad 3150" d="M451.952,434.684l-.228-.8h.051a.532.532,0,0,0,0-1.065,15.837,15.837,0,0,0-7.32,0,.532.532,0,0,0-.006,1.064l-.216.8c-1.679,2.335-.858,6.214,0,10.115h7.719C452.923,440.546,453.657,436.508,451.952,434.684Z" transform="translate(-382.249 -350.405)" fill="#e6e6e6"/>
    <circle id="Ellipse_369" data-name="Ellipse 369" cx="2.129" cy="2.129" r="2.129" transform="translate(63.737 86.275)" fill="#fff"/>
    <path id="Pfad_3151" data-name="Pfad 3151" d="M415.952,434.684l-.228-.8h.051a.532.532,0,1,0,0-1.065,15.838,15.838,0,0,0-7.32,0,.532.532,0,1,0-.006,1.064l-.216.8c-1.679,2.335-.858,6.214,0,10.115h7.719C416.923,440.546,417.657,436.508,415.952,434.684Z" transform="translate(-357.477 -350.405)" fill="#e6e6e6"/>
    <circle id="Ellipse_370" data-name="Ellipse 370" cx="2.129" cy="2.129" r="2.129" transform="translate(52.509 86.275)" fill="#fff"/>
    <path id="Pfad_3152" data-name="Pfad 3152" d="M399.952,399.684l-.228-.8h.051a.532.532,0,0,0,0-1.065,15.838,15.838,0,0,0-7.32,0,.532.532,0,1,0-.006,1.064l-.216.8c-1.679,2.335-.858,6.214,0,10.115h7.719C400.923,405.546,401.657,401.508,399.952,399.684Z" transform="translate(-346.468 -326.321)" fill="#e6e6e6"/>
    <circle id="Ellipse_371" data-name="Ellipse 371" cx="2.129" cy="2.129" r="2.129" transform="translate(47.519 75.359)" fill="#fff"/>
    <path id="Pfad_3153" data-name="Pfad 3153" d="M435.952,399.684l-.228-.8h.051a.532.532,0,1,0,0-1.065,15.838,15.838,0,0,0-7.32,0,.532.532,0,1,0-.006,1.064l-.216.8c-1.679,2.335-.858,6.214,0,10.115h7.719C436.923,405.546,437.657,401.508,435.952,399.684Z" transform="translate(-371.24 -326.321)" fill="#e6e6e6"/>
    <circle id="Ellipse_372" data-name="Ellipse 372" cx="2.129" cy="2.129" r="2.129" transform="translate(58.747 75.359)" fill="#fff"/>
    <path id="Pfad_3154" data-name="Pfad 3154" d="M378.952,434.684l-.228-.8h.051a.532.532,0,0,0,0-1.065,15.837,15.837,0,0,0-7.32,0,.532.532,0,1,0-.006,1.064l-.216.8c-1.679,2.335-.858,6.214,0,10.115h7.719C379.923,440.546,380.657,436.508,378.952,434.684Z" transform="translate(-332.017 -350.405)" fill="#e6e6e6"/>
    <circle id="Ellipse_373" data-name="Ellipse 373" cx="2.129" cy="2.129" r="2.129" transform="translate(40.969 86.275)" fill="#fff"/>
    <path id="Pfad_3155" data-name="Pfad 3155" d="M707.952,335.684l-.228-.8h.051a.532.532,0,1,0,0-1.065,15.838,15.838,0,0,0-7.32,0,.532.532,0,1,0-.006,1.064l-.216.8c-1.679,2.335-.858,6.214,0,10.115h7.719C708.923,341.546,709.658,337.508,707.952,335.684Z" transform="translate(-558.405 -282.282)" fill="#ccc"/>
    <circle id="Ellipse_374" data-name="Ellipse 374" cx="2.129" cy="2.129" r="2.129" transform="translate(143.582 55.398)" fill="#fff"/>
    <path id="Pfad_3156" data-name="Pfad 3156" d="M359.407,471.215l-.228-.8h.051a.532.532,0,0,0,0-1.065,15.839,15.839,0,0,0-7.32,0,.532.532,0,0,0-.006,1.064l-.216.8c-1.68,2.335-.858,6.214,0,10.115h7.719C360.378,477.077,361.112,473.039,359.407,471.215Z" transform="translate(-318.568 -375.542)" fill="#e6e6e6"/>
    <circle id="Ellipse_375" data-name="Ellipse 375" cx="2.129" cy="2.129" r="2.129" transform="translate(34.873 97.669)" fill="#fff"/>
    <path id="Pfad_3157" data-name="Pfad 3157" d="M396.407,471.215l-.228-.8h.051a.532.532,0,0,0,0-1.065,15.839,15.839,0,0,0-7.32,0,.532.532,0,0,0-.006,1.064l-.216.8c-1.679,2.335-.858,6.214,0,10.115h7.719C397.378,477.077,398.112,473.039,396.407,471.215Z" transform="translate(-344.028 -375.542)" fill="#e6e6e6"/>
    <circle id="Ellipse_376" data-name="Ellipse 376" cx="2.129" cy="2.129" r="2.129" transform="translate(46.413 97.669)" fill="#fff"/>
    <path id="Pfad_3158" data-name="Pfad 3158" d="M472.247,471.215l-.228-.8h.051a.532.532,0,0,0,0-1.065,15.839,15.839,0,0,0-7.32,0,.532.532,0,0,0-.006,1.064l-.216.8c-1.679,2.335-.858,6.214,0,10.115h7.719C473.218,477.077,473.952,473.039,472.247,471.215Z" transform="translate(-396.214 -375.542)" fill="#e6e6e6"/>
    <circle id="Ellipse_377" data-name="Ellipse 377" cx="2.129" cy="2.129" r="2.129" transform="translate(70.067 97.669)" fill="#fff"/>
    <path id="Pfad_3159" data-name="Pfad 3159" d="M759.113,377.165l-21.171-1.426s-4.905,11.332-4.827,12.829,2.1,1.047,0,3.3-2.1-.866-2.1,2.253-8.506,72.359-4.763,72.983c6.55.936,6.238-.312,6.238-.312l10.278-32.2s18.557,27.129,24.342,25.651,4.678-3.431,4.678-3.431l-12.4-25.162a1.644,1.644,0,0,1-1.588-2.08c.26-2.076-1.317-1.725-1.317-1.725s-2.369-.738-1.487-1.948-1.458-1.91-1.458-1.91l6.827-26.133S765.227,386.565,759.113,377.165Z" transform="translate(-576.322 -311.421)" fill="#2f2e41"/>
    <path id="Pfad_3160" data-name="Pfad 3160" d="M779.925,241.721l-7.287.369-2.432,4.1s-6.932.508-6.932,6.122-4.731,3.171-2.522,10.318,2.713,8.525.746,9.552-4.743.806-2.264,2.475,3.415,2.294,2.792,2.918,11.562-4.284,18.569-1.206c0,0,1.96-1.484,1.52-2.79s-.679-.8.064-1.989,8.635-21.854,8.635-21.854a5.763,5.763,0,0,0-5.059-2.852C782.3,247.008,779.925,241.721,779.925,241.721Z" transform="translate(-599.001 -219.203)" fill="#fafcff"/>
    <path id="Pfad_3161" data-name="Pfad 3161" d="M857.494,415.576l-12.884,6.992-9.893-18.229a7.329,7.329,0,1,1,12.884-6.992Zm-12.633,6.146,11.788-6.4-9.6-17.681a6.706,6.706,0,0,0-11.788,6.4Z" transform="translate(-651.004 -323.651)" fill="#3f3d56"/>
    <path id="Pfad_3162" data-name="Pfad 3162" d="M866.853,457.306l-18.979,10.3a2.446,2.446,0,0,1-2.869-.386l-12.816-12.3a2.454,2.454,0,0,1,.529-3.927l28.465-15.447a2.454,2.454,0,0,1,3.58,1.7l3.33,17.45A2.446,2.446,0,0,1,866.853,457.306Z" transform="translate(-649.357 -352.369)" fill="#fafcff"/>
    <rect id="Rechteck_1827" data-name="Rechteck 1827" width="2.183" height="3.743" transform="matrix(0.879, -0.477, 0.477, 0.879, 195.749, 92.077)" fill="#3f3d56"/>
    <path id="Pfad_3163" data-name="Pfad 3163" d="M849.854,297.059,849.3,277.5a3.158,3.158,0,0,0-3.206-3.059h0a3.158,3.158,0,0,0-3.1,3.375l1.2,20.3.21,12.366a2.756,2.756,0,1,0,3.4.978Z" transform="translate(-657.15 -241.717)" fill="#a0616a"/>
    <path id="Pfad_3164" data-name="Pfad 3164" d="M845.995,270.194h0a.931.931,0,0,0,.142-1.12,1.208,1.208,0,0,1-.143-.723,1.116,1.116,0,0,1,.028-.143,1.822,1.822,0,0,0-.334-1.652,5.764,5.764,0,0,1-1.045-2.867,13.739,13.739,0,0,0-.625-3.246c-.576-1.486-1.953-2.81-3.833-2.176a3.668,3.668,0,0,0-1.907,1.55,9.171,9.171,0,0,0-.94,5.03l-.337-.683a14.025,14.025,0,0,1-1,5.518c.419-.081.715.482.58.886a2.452,2.452,0,0,1-.83.952c-.4.355-.786.882-.407,1.424a1.149,1.149,0,0,0,.8.457,21.7,21.7,0,0,0,8.856-.682,2.648,2.648,0,0,0,1.654-1.02C846.981,271.125,846.659,270.185,845.995,270.194Z" transform="translate(-651.937 -230.477)" fill="#fafcff"/>
    <path id="Pfad_3165" data-name="Pfad 3165" d="M807.383,190.209c-.418,1.547.062,3.983.243,5.427.193,1.544-2.483,2.926-4.014,3.013a2.18,2.18,0,0,0-.405-1.435,3.732,3.732,0,0,1-.3,1.438H790.129c-1.609-3.028-2.979-7.167-1.5-11.446a4.379,4.379,0,0,1,3.025-3.789l6.968-2.23c2.748,0,6.119.39,7.638,2.436a7.665,7.665,0,0,1,1.123,6.587Z" transform="translate(-619.467 -177.548)" fill="#2f2e41"/>
    <circle id="Ellipse_378" data-name="Ellipse 378" cx="7.174" cy="7.174" r="7.174" transform="translate(169.103 6.445)" fill="#a0616a"/>
    <path id="Pfad_3166" data-name="Pfad 3166" d="M803.3,187.919v1.559h-6.207a2.232,2.232,0,0,0-.365-1.75,3.8,3.8,0,0,1-.443,1.75c-3.589,1.061-6.6,1.041-9.07,0a1.382,1.382,0,0,1-1.382-1.382h0a8.849,8.849,0,0,1,8.549-8.909,8.732,8.732,0,0,1,8.917,8.731Z" transform="translate(-617.978 -176.172)" fill="#2f2e41"/>
    <path id="Pfad_3167" data-name="Pfad 3167" d="M821.791,170.7a5.45,5.45,0,0,1-2.156-1.18l.22,1.164a5.5,5.5,0,0,0-3.914-.489,2.1,2.1,0,0,0-1.034.536,1.546,1.546,0,0,0-.41,1.272,1.448,1.448,0,0,0,.648.973,2.8,2.8,0,0,0,.987.336l4.331.88a3.3,3.3,0,0,0,1.659.053,1.628,1.628,0,0,0,1.1-1.408A2.307,2.307,0,0,0,821.791,170.7Z" transform="translate(-637.693 -169.522)" fill="#2f2e41"/>
    <path id="Pfad_3168" data-name="Pfad 3168" d="M374.316,313.42l-34.192,11.034a1.209,1.209,0,0,1-1.52-.778l-4.325-13.4a1.209,1.209,0,0,1,.778-1.52l34.192-11.034a1.209,1.209,0,0,1,1.52.778l4.325,13.4A1.209,1.209,0,0,1,374.316,313.42Z" transform="translate(-307.22 -257.695)" fill="#f2f2f2"/>
    <path id="Pfad_3169" data-name="Pfad 3169" d="M371.062,320.216l-20.79,6.709a6.147,6.147,0,0,1-7.729-3.958l-.822-2.547a6.147,6.147,0,0,1,3.958-7.729l23.337-7.531a6.147,6.147,0,0,1,7.729,3.958A8.827,8.827,0,0,1,371.062,320.216Z" transform="translate(-312.176 -262.652)" fill="#fff"/>
    <path id="Pfad_3170" data-name="Pfad 3170" d="M377.28,324.959l-13.743,4.434a.311.311,0,0,1-.191-.593l13.743-4.435a.311.311,0,1,1,.191.593Z" transform="translate(-327.112 -276.061)" fill="#e6e6e6"/>
    <path id="Pfad_3171" data-name="Pfad 3171" d="M387.508,327.9l-20.7,6.68a.311.311,0,1,1-.191-.593l20.7-6.68a.311.311,0,0,1,.191.593Z" transform="translate(-329.363 -278.084)" fill="#e6e6e6"/>
    <path id="Pfad_3172" data-name="Pfad 3172" d="M390.779,338.037l-20.7,6.68a.311.311,0,0,1-.191-.593l20.7-6.68a.311.311,0,1,1,.191.593Z" transform="translate(-331.614 -285.06)" fill="#e6e6e6"/>
    <path id="Pfad_3173" data-name="Pfad 3173" d="M390.779,338.037l-20.7,6.68a.311.311,0,0,1-.191-.593l20.7-6.68a.311.311,0,1,1,.191.593Z" transform="translate(-331.614 -285.06)" fill="#e6e6e6"/>
    <circle id="Ellipse_379" data-name="Ellipse 379" cx="3.603" cy="3.603" r="3.603" transform="translate(57.26 38.462)" fill="#fafcff"/>
    <path id="Pfad_3174" data-name="Pfad 3174" d="M440.011,302.595a.311.311,0,0,1-.249-.125L439,301.451a.311.311,0,0,1,.5-.374l.5.666,1.284-1.925a.311.311,0,1,1,.518.346l-1.528,2.292a.312.312,0,0,1-.251.139Z" transform="translate(-379.275 -259.085)" fill="#fff"/>
  </g>
</svg>
