<svg xmlns="http://www.w3.org/2000/svg" width="248.469" height="172.955" viewBox="0 0 248.469 172.955">
  <g id="Gruppe_569" data-name="Gruppe 569" transform="translate(0 -9.672)">
    <path id="Pfad_3245" data-name="Pfad 3245" d="M835.493,652.61,834,657.9h6.121a7.508,7.508,0,0,1-.34-5.9Z" transform="translate(-658.612 -516.529)" fill="#ffb8b8"/>
    <path id="Pfad_3246" data-name="Pfad 3246" d="M280.577,785.082c0,.083,0,.168-.008.251H32.234c-.005-.083-.008-.168-.008-.251,0-12.591,55.6-22.8,124.176-22.8S280.577,772.491,280.577,785.082Z" transform="translate(-32.108 -602.706)" fill="#3f3d56"/>
    <circle id="Ellipse_390" data-name="Ellipse 390" cx="13.797" cy="13.797" r="13.797" transform="translate(194.033 143.241)" fill="#d0cde1"/>
    <ellipse id="Ellipse_391" data-name="Ellipse 391" cx="9.282" cy="3.763" rx="9.282" ry="3.763" transform="translate(199.301 143.241)" fill="#fafcff"/>
    <circle id="Ellipse_392" data-name="Ellipse 392" cx="8.78" cy="8.78" r="8.78" transform="translate(200.305 129.695)" fill="#d0cde1"/>
    <circle id="Ellipse_393" data-name="Ellipse 393" cx="1.343" cy="1.343" r="1.343" transform="translate(205.071 134.122)" fill="#575a89"/>
    <circle id="Ellipse_394" data-name="Ellipse 394" cx="1.343" cy="1.343" r="1.343" transform="translate(209.66 134.122)" fill="#575a89"/>
    <path id="Pfad_3247" data-name="Pfad 3247" d="M983.391,660l-.367,4.4a.164.164,0,0,0,.321.06l1.3-4.458Z" transform="translate(-775.058 -522.783)" fill="#ff6584"/>
    <path id="Pfad_3248" data-name="Pfad 3248" d="M879.658,764.708l-1.6,1.6-8.817-10.414.214-1.383Z" transform="translate(-679.225 -589.57)" fill="#575a89"/>
    <path id="Pfad_3249" data-name="Pfad 3249" d="M853.925,778.047v1l-8.028-.5-.753-.5Z" transform="translate(-660.394 -607.964)" fill="#575a89"/>
    <ellipse id="Ellipse_395" data-name="Ellipse 395" cx="2.258" cy="2.509" rx="2.258" ry="2.509" transform="translate(197.545 150.516)" fill="#d0cde1"/>
    <path id="Pfad_3250" data-name="Pfad 3250" d="M1000.63,662.575l1.6,1.6,8.816-10.414-.212-1.383Z" transform="translate(-781.889 -509.764)" fill="#575a89"/>
    <path id="Pfad_3251" data-name="Pfad 3251" d="M1021.87,681.652v1l8.027-.5.754-.5Z" transform="translate(-798.486 -532.641)" fill="#575a89"/>
    <ellipse id="Ellipse_396" data-name="Ellipse 396" cx="2.258" cy="2.509" rx="2.258" ry="2.509" transform="translate(217.112 150.516)" fill="#d0cde1"/>
    <circle id="Ellipse_397" data-name="Ellipse 397" cx="1.003" cy="1.003" r="1.003" transform="translate(207.58 153.025)" fill="#575a89"/>
    <circle id="Ellipse_398" data-name="Ellipse 398" cx="1.003" cy="1.003" r="1.003" transform="translate(207.58 156.286)" fill="#575a89"/>
    <circle id="Ellipse_399" data-name="Ellipse 399" cx="1.003" cy="1.003" r="1.003" transform="translate(207.58 159.547)" fill="#575a89"/>
    <path id="Pfad_3252" data-name="Pfad 3252" d="M320.705,709.47a5.264,5.264,0,0,0-9.38-3.522,10.44,10.44,0,0,1-4.867-7.911,5.267,5.267,0,0,0-6.414,1.088,12.278,12.278,0,0,0-4.378-2.793,5.265,5.265,0,0,0-10.1-2.749,5.261,5.261,0,0,0-7.891,6.267,5.272,5.272,0,0,0-1.687,1.013,5.263,5.263,0,0,0-6.5,2.527,5.274,5.274,0,0,0-1.7-1.255c.016-.129.032-.258.038-.389a5.268,5.268,0,1,0-10.471.538,5.215,5.215,0,0,0-3.817,5.568c-5.912.174-11.613.451-17.062.825a12.294,12.294,0,0,0-22.631-2.479,5.266,5.266,0,0,0-8.094,6.084l-.712.129c.008-.088.021-.173.025-.262a5.268,5.268,0,0,0-10.525-.487c0,.055,0,.108,0,.162a3.258,3.258,0,0,0-4.412,2.9C190.106,715.136,320.7,709.674,320.705,709.47Z" transform="translate(-155.49 -546.412)" fill="#d0cde1"/>
    <path id="Pfad_3253" data-name="Pfad 3253" d="M40.225,418.522l.022-.069c0,.01-.007.02-.01.03Z" transform="translate(-38.359 -334.036)" fill="#2f2e41"/>
    <path id="Pfad_3254" data-name="Pfad 3254" d="M505.832,236.924l18.581-27.631L505.87,239.9l.039,3.109q-2.035.016-4.03-.068l.922-39.967-.025-.308.034-.06.088-3.777-20.348-29.543L502.873,196l.072.8.7-30.2-17.575-30.629L503.691,161.3l-.184-62.56v-.208l.006.2,1.167,49.305L520.7,128.012l-15.965,24.276.35,27.01,14.74-26.361-14.685,30.332.195,15.019,21.435-36.72-21.37,41.96Z" transform="translate(-383.989 -84.049)" fill="#3f3d56"/>
    <circle id="Ellipse_400" data-name="Ellipse 400" cx="2.007" cy="2.007" r="2.007" transform="translate(115.765 72.248)" fill="#d0cde1"/>
    <circle id="Ellipse_401" data-name="Ellipse 401" cx="2.007" cy="2.007" r="2.007" transform="translate(128.809 102.853)" fill="#d0cde1"/>
    <circle id="Ellipse_402" data-name="Ellipse 402" cx="2.007" cy="2.007" r="2.007" transform="translate(111.751 109.626)" fill="#d0cde1"/>
    <circle id="Ellipse_403" data-name="Ellipse 403" cx="2.007" cy="2.007" r="2.007" transform="translate(105.229 78.268)" fill="#d0cde1"/>
    <path id="Pfad_3255" data-name="Pfad 3255" d="M566.269,366.8a3.041,3.041,0,1,0-4-.259,1.965,1.965,0,0,0,.395,1.476,2.006,2.006,0,0,0,3.6-1.216Z" transform="translate(-445.487 -290.537)" fill="#d0cde1"/>
    <path id="Pfad_3256" data-name="Pfad 3256" d="M580.788,288.194a21.5,21.5,0,0,1-3.95,3.522,2.006,2.006,0,1,0,3.95.492,2.007,2.007,0,0,0,0-4.014Z" transform="translate(-456.243 -232.252)" fill="#d0cde1"/>
    <circle id="Ellipse_404" data-name="Ellipse 404" cx="1.505" cy="1.505" r="1.505" transform="translate(80.644 86.798)" fill="#d0cde1"/>
    <circle id="Ellipse_405" data-name="Ellipse 405" cx="1.505" cy="1.505" r="1.505" transform="translate(96.95 104.86)" fill="#d0cde1"/>
    <circle id="Ellipse_406" data-name="Ellipse 406" cx="2.007" cy="2.007" r="2.007" transform="translate(169.7 34.87)" fill="#d0cde1"/>
    <circle id="Ellipse_407" data-name="Ellipse 407" cx="1.505" cy="1.505" r="1.505" transform="translate(185.504 12.292)" fill="#d0cde1"/>
    <circle id="Ellipse_408" data-name="Ellipse 408" cx="1.505" cy="1.505" r="1.505" transform="translate(201.81 30.354)" fill="#d0cde1"/>
    <circle id="Ellipse_409" data-name="Ellipse 409" cx="2.007" cy="2.007" r="2.007" transform="translate(221.628 71.244)" fill="#d0cde1"/>
    <circle id="Ellipse_410" data-name="Ellipse 410" cx="1.505" cy="1.505" r="1.505" transform="translate(195.237 51.451)" fill="#d0cde1"/>
    <circle id="Ellipse_411" data-name="Ellipse 411" cx="2.007" cy="2.007" r="2.007" transform="translate(152.39 104.358)" fill="#d0cde1"/>
    <circle id="Ellipse_412" data-name="Ellipse 412" cx="1.505" cy="1.505" r="1.505" transform="translate(176.724 107.118)" fill="#d0cde1"/>
    <circle id="Ellipse_413" data-name="Ellipse 413" cx="2.007" cy="2.007" r="2.007" transform="translate(28.465 40.639)" fill="#d0cde1"/>
    <circle id="Ellipse_414" data-name="Ellipse 414" cx="1.505" cy="1.505" r="1.505" transform="translate(26.96 25.588)" fill="#d0cde1"/>
    <circle id="Ellipse_415" data-name="Ellipse 415" cx="1.505" cy="1.505" r="1.505" transform="translate(25.455 135.465)" fill="#d0cde1"/>
    <circle id="Ellipse_416" data-name="Ellipse 416" cx="1.505" cy="1.505" r="1.505" transform="translate(84.156 140.231)" fill="#d0cde1"/>
    <circle id="Ellipse_417" data-name="Ellipse 417" cx="2.007" cy="2.007" r="2.007" transform="translate(204.82 110.63)" fill="#d0cde1"/>
    <circle id="Ellipse_418" data-name="Ellipse 418" cx="1.505" cy="1.505" r="1.505" transform="translate(234.171 124.176)" fill="#d0cde1"/>
    <circle id="Ellipse_419" data-name="Ellipse 419" cx="1.505" cy="1.505" r="1.505" transform="translate(68.352 57.949)" fill="#d0cde1"/>
    <circle id="Ellipse_420" data-name="Ellipse 420" cx="2.007" cy="2.007" r="2.007" transform="translate(150.383 132.705)" fill="#d0cde1"/>
    <circle id="Ellipse_422" data-name="Ellipse 422" cx="1.505" cy="1.505" r="1.505" transform="translate(96.95 18.062)" fill="#d0cde1"/>
    <circle id="Ellipse_423" data-name="Ellipse 423" cx="1.505" cy="1.505" r="1.505" transform="translate(93.438 37.629)" fill="#d0cde1"/>
    <circle id="Ellipse_424" data-name="Ellipse 424" cx="2.007" cy="2.007" r="2.007" transform="translate(138.844 12.794)" fill="#d0cde1"/>
    <circle id="Ellipse_425" data-name="Ellipse 425" cx="1.505" cy="1.505" r="1.505" transform="translate(154.999 58.411)" fill="#d0cde1"/>
    <circle id="Ellipse_426" data-name="Ellipse 426" cx="1.505" cy="1.505" r="1.505" transform="translate(191.525 85.293)" fill="#d0cde1"/>
    <circle id="Ellipse_427" data-name="Ellipse 427" cx="1.505" cy="1.505" r="1.505" transform="translate(37.998 84.54)" fill="#d0cde1"/>
    <circle id="Ellipse_428" data-name="Ellipse 428" cx="1.505" cy="1.505" r="1.505" transform="translate(15.42 113.389)" fill="#d0cde1"/>
    <circle id="Ellipse_429" data-name="Ellipse 429" cx="4.014" cy="4.014" r="4.014" transform="translate(69.606 88.554)" fill="#d0cde1"/>
    <path id="Pfad_3257" data-name="Pfad 3257" d="M879,636.86l2.258-2.258,1.254,1.254-2.007,3.261Z" transform="translate(-686.846 -495.876)" fill="#ffb8b8"/>
    <path id="Pfad_3258" data-name="Pfad 3258" d="M915.276,651.824l1.505-1s3.763-5.017,5.268-2.509-2.76,5.017-2.76,5.017l-1.254,1.505Z" transform="translate(-722.121 -513.099)" fill="#ff6584"/>
    <path id="Pfad_3259" data-name="Pfad 3259" d="M915.276,651.824l1.505-1s3.763-5.017,5.268-2.509-2.76,5.017-2.76,5.017l-1.254,1.505Z" transform="translate(-722.121 -513.099)" fill="#2f2e41"/>
    <path id="Pfad_3260" data-name="Pfad 3260" d="M821.62,644.748h8.028l4.766-3.261,2.76,3.763-6.522,5.017-6.773,1.254Z" transform="translate(-642.011 -501.256)" fill="#fafcff"/>
    <path id="Pfad_3261" data-name="Pfad 3261" d="M821.62,644.748h8.028l4.766-3.261,2.76,3.763-6.522,5.017-6.773,1.254Z" transform="translate(-642.011 -501.256)" opacity="0.15"/>
    <path id="Pfad_3262" data-name="Pfad 3262" d="M845.809,753.53s7.275,8.027,6.021,10.034a4.416,4.416,0,0,1-4.516,1.756c-.5-.251-7.777-4.265-7.777-4.265l1-3.261s-1.505-3.512,0-3.763S845.809,753.53,845.809,753.53Z" transform="translate(-662.939 -595.864)" fill="#2f2e41"/>
    <path id="Pfad_3263" data-name="Pfad 3263" d="M812.161,761.923s-4.766-3.763-5.77-3.01-4.265,5.519-3.763,7.777,0,3.01,1.505,2.759,1.756-2.759,1.756-2.759l5.268-2.007Z" transform="translate(-634.058 -599.992)" fill="#2f2e41"/>
    <rect id="Rechteck_1828" data-name="Rechteck 1828" width="0.251" height="6.542" transform="translate(179.542 162.79) rotate(-57.529)" opacity="0.15"/>
    <circle id="Ellipse_430" data-name="Ellipse 430" cx="3.763" cy="3.763" r="3.763" transform="translate(175.846 130.071)" fill="#ffb8b8"/>
    <path id="Pfad_3264" data-name="Pfad 3264" d="M822.593,664.02s-1,2.509-1,8.529-3.512,8.78-.753,11.791,13.637,1.1,13.637,1.1-.117.093-.09-.1c.251-1.756-2.509-20.069-3.512-20.32S822.593,664.02,822.593,664.02Z" transform="translate(-647.5 -525.921)" fill="#fafcff"/>
    <path id="Pfad_3265" data-name="Pfad 3265" d="M879,617.925l2.258-2.258,1.254,1.254-2.007,3.261Z" transform="translate(-686.846 -481.08)" fill="#ffb8b8"/>
    <path id="Pfad_3266" data-name="Pfad 3266" d="M806.05,637.238a10.692,10.692,0,0,0-2.336.468c-.772.333-.727.832-.517,1.268s.537.89.188,1.313a5.194,5.194,0,0,1-.944.683c-.325.226-.564.492-.372.739a4.489,4.489,0,0,0,1.246.646c.932.462.945,1.159.031,1.625a11.72,11.72,0,0,1,3.665-.886,8.09,8.09,0,0,0,3.434-.984c.589-.525.041-1.137.347-1.7.261-.478,1.115-.872,1.8-1.285s1.219-.924.77-1.381c-.331-.337-1.178-.632-1.017-.987.1-.219.566-.383.9-.566s.522-.457.1-.612c-1.532.276-3.092.538-4.6.83C807.808,636.593,807.256,637.238,806.05,637.238Z" transform="translate(-633.607 -503.701)" fill="#2f2e41"/>
    <path id="Pfad_3267" data-name="Pfad 3267" d="M821.62,625.814h8.028l4.766-3.261,2.76,3.763-6.522,5.017-6.773,1.254Z" transform="translate(-642.011 -486.461)" fill="#fafcff"/>
    <path id="Pfad_3268" data-name="Pfad 3268" d="M931.735,624.292s7.024-3.512,7.024-4.766-2.76-5.017-7.777-5.017c0,0-1.254-2.258-2.759-.5s.753,3.01.753,3.01-2.76,4.516,1.254,7.275Z" transform="translate(-731.833 -486.319)" fill="#fafcff"/>
    <circle id="Ellipse_431" data-name="Ellipse 431" cx="4.014" cy="4.014" r="4.014" transform="translate(134.328 88.805)" fill="#fff"/>
    <path id="Pfad_3269" data-name="Pfad 3269" d="M616.6,418.193l-1.149-1.534.2-.15.988,1.319,1.736-1.488,1.749,1.5,1.512-1.512,1.594,1.594-.177.177-1.417-1.417-1.5,1.5-1.763-1.511Z" transform="translate(-480.911 -325.317)" fill="#575a89"/>
    <path id="Pfad_3270" data-name="Pfad 3270" d="M615.5,427.431l-1.138-1.521.175-.131,1,1.333,1.739-1.49,1.75,1.5,1.511-1.511,1.583,1.582-.155.155-1.428-1.428-1.5,1.5-1.762-1.51Z" transform="translate(-480.061 -332.572)" fill="#575a89"/>
    <rect id="Rechteck_1829" data-name="Rechteck 1829" width="0.251" height="3.01" transform="translate(138.091 85.92)" fill="#575a89"/>
    <circle id="Ellipse_432" data-name="Ellipse 432" cx="4.014" cy="4.014" r="4.014" transform="translate(126.802 55.942)" fill="#fff"/>
    <path id="Pfad_3271" data-name="Pfad 3271" d="M582.172,267.862l-1.149-1.534.2-.15.988,1.319,1.736-1.488,1.75,1.5L587.209,266l1.594,1.594-.177.177-1.417-1.416-1.5,1.5-1.763-1.511Z" transform="translate(-454.01 -207.849)" fill="#575a89"/>
    <path id="Pfad_3272" data-name="Pfad 3272" d="M581.073,277.1l-1.138-1.52.175-.131,1,1.333,1.739-1.49,1.75,1.5,1.511-1.511,1.583,1.582-.155.155-1.428-1.428-1.5,1.5-1.762-1.51Z" transform="translate(-453.159 -215.105)" fill="#575a89"/>
    <rect id="Rechteck_1830" data-name="Rechteck 1830" width="0.251" height="3.01" transform="translate(130.565 53.057)" fill="#575a89"/>
    <circle id="Ellipse_433" data-name="Ellipse 433" cx="4.014" cy="4.014" r="4.014" transform="translate(95.947 90.059)" fill="#fff"/>
    <path id="Pfad_3273" data-name="Pfad 3273" d="M441.022,423.93l-1.149-1.534.2-.15.988,1.319,1.736-1.488,1.749,1.5,1.512-1.512,1.594,1.594-.177.177-1.417-1.417-1.5,1.5-1.763-1.511Z" transform="translate(-343.715 -329.8)" fill="#575a89"/>
    <path id="Pfad_3274" data-name="Pfad 3274" d="M439.923,433.169l-1.138-1.52.175-.131,1,1.333,1.739-1.49,1.75,1.5,1.511-1.511,1.582,1.582-.155.155-1.428-1.428-1.5,1.5-1.762-1.51Z" transform="translate(-342.865 -337.056)" fill="#575a89"/>
    <rect id="Rechteck_1831" data-name="Rechteck 1831" width="0.251" height="3.01" transform="translate(99.71 87.174)" fill="#575a89"/>
    <path id="Pfad_3275" data-name="Pfad 3275" d="M531.415,54.936,528,52.371l-3.5,2.458,1.383-4.044-3.418-2.565,4.273.066,1.383-4.044,1.258,4.085,4.273.066-3.5,2.458Z" transform="translate(-408.253 -34.571)" fill="#fafcff"/>
    <path id="Pfad_3276" data-name="Pfad 3276" d="M321.823,698.029a5.264,5.264,0,0,0-9.38-3.522,10.44,10.44,0,0,1-4.867-7.911,5.267,5.267,0,0,0-6.414,1.088,12.277,12.277,0,0,0-4.378-2.793,5.265,5.265,0,0,0-10.1-2.749,5.261,5.261,0,0,0-7.891,6.267,5.275,5.275,0,0,0-1.687,1.013,5.263,5.263,0,0,0-6.5,2.527,5.274,5.274,0,0,0-1.7-1.255c.016-.129.032-.258.038-.389a5.268,5.268,0,1,0-10.471.538,5.215,5.215,0,0,0-3.817,5.568c-5.912.173-11.613.451-17.062.825a12.294,12.294,0,0,0-22.631-2.479,5.266,5.266,0,0,0-8.094,6.084l-.712.129c.008-.087.021-.173.025-.262a5.268,5.268,0,0,0-10.525-.487c0,.055,0,.108,0,.162a3.258,3.258,0,0,0-4.412,2.9C191.225,703.7,321.814,698.234,321.823,698.029Z" transform="translate(-156.364 -537.473)" fill="#d0cde1"/>
    <path id="Pfad_3277" data-name="Pfad 3277" d="M199.9,867.414a5.729,5.729,0,0,1,.592.06h-1.658A4.988,4.988,0,0,1,199.9,867.414Z" transform="translate(-162.291 -684.848)" fill="#d0cde1"/>
    <path id="Pfad_3278" data-name="Pfad 3278" d="M240.292,848.27H219.887a12.288,12.288,0,0,1,20.4,0Z" transform="translate(-178.746 -665.643)" fill="#d0cde1"/>
    <path id="Pfad_3279" data-name="Pfad 3279" d="M52.092,848.27H31.687a12.288,12.288,0,0,1,20.4,0Z" transform="translate(-31.687 -665.643)" fill="#d0cde1"/>
    <path id="Pfad_3280" data-name="Pfad 3280" d="M107.175,848.27H86.77a12.288,12.288,0,0,1,20.4,0Z" transform="translate(-74.729 -665.643)" fill="#d0cde1"/>
    <path id="Pfad_3281" data-name="Pfad 3281" d="M366.524,795.482H346.119a12.288,12.288,0,0,1,20.4,0Z" transform="translate(-277.383 -624.395)" fill="#d0cde1"/>
    <path id="Pfad_3282" data-name="Pfad 3282" d="M740.629,821.876h-20.4a12.288,12.288,0,0,1,20.4,0Z" transform="translate(-569.708 -645.019)" fill="#d0cde1"/>
    <path id="Pfad_3283" data-name="Pfad 3283" d="M455.723,813.067a5.343,5.343,0,0,1,1.7,1.189H400.652a5.286,5.286,0,0,1,3.387-2.915,5.145,5.145,0,0,1-.053-1.026,5.267,5.267,0,1,1,10.524.489c-.005.13-.02.258-.038.389a5.254,5.254,0,0,1,1.7,1.254,5.265,5.265,0,0,1,6.5-2.526,1.858,1.858,0,0,0,1.32-3.2,5.262,5.262,0,0,1,8.261-4.084,5.266,5.266,0,0,1,10.16,2.175,5.447,5.447,0,0,1-.06.574,12.287,12.287,0,0,1,4.378,2.792,5.266,5.266,0,0,1,8.993,4.887Z" transform="translate(-319.995 -631.63)" fill="#d0cde1"/>
    <path id="Pfad_3284" data-name="Pfad 3284" d="M875.051,856.3h-9.683a5.266,5.266,0,0,1,9.683,0Z" transform="translate(-683.123 -673.669)" fill="#d0cde1"/>
    <path id="Pfad_3285" data-name="Pfad 3285" d="M985.742,834.88H955.17a5.084,5.084,0,0,1-.223-1.764,240.674,240.674,0,0,0,14.263-7.3,5.266,5.266,0,0,1,4.158,5.4,5.426,5.426,0,0,1-.06.574,12.289,12.289,0,0,1,4.378,2.792,5.268,5.268,0,0,1,8.058.306Z" transform="translate(-753.115 -652.254)" fill="#d0cde1"/>
    <path id="Pfad_3286" data-name="Pfad 3286" d="M673.175,863.273h-6.783A5.251,5.251,0,0,1,673.175,863.273Z" transform="translate(-527.644 -680.646)" fill="#d0cde1"/>
    <circle id="Ellipse_434" data-name="Ellipse 434" cx="4.47" cy="4.47" r="4.47" transform="translate(51.508 100.925)" fill="#a0616a"/>
    <path id="Pfad_3287" data-name="Pfad 3287" d="M275.032,488.3a10.413,10.413,0,0,1,4.451,1.638.576.576,0,0,0-.7.137c-.184.179-.3.417-.477.6a2.452,2.452,0,0,1-1.29.568l-2.17.483-2.013.448a4.092,4.092,0,0,1-1.541.142,1.392,1.392,0,0,1-1.153-.917c-.186-.7,1.2-1.734,1.708-2.154A4.613,4.613,0,0,1,275.032,488.3Z" transform="translate(-218.002 -388.599)" fill="#2f2e41"/>
    <path id="Pfad_3288" data-name="Pfad 3288" d="M270.771,494.664a10.155,10.155,0,0,1,3.871-2.913.559.559,0,0,0-.244.678c.066.26.224.5.3.753a2.415,2.415,0,0,1-.164,1.434l-.71,2.146-.658,1.99a3.9,3.9,0,0,1-.689,1.41,1.432,1.432,0,0,1-1.455.476c-.739-.234-.956-2.017-1.072-2.693A4.477,4.477,0,0,1,270.771,494.664Z" transform="translate(-217.83 -391.311)" fill="#2f2e41"/>
    <path id="Pfad_3289" data-name="Pfad 3289" d="M376.757,479.014s.263-5.784,1.577-5.521.263,6.047.263,6.047Z" transform="translate(-301.324 -377.037)" fill="#a0616a"/>
    <path id="Pfad_3290" data-name="Pfad 3290" d="M332.326,505.011l-5.907,4.278-1.718,1.244-4.469-6.311,2.789-1.1,5.887-2.319,3.418-6.836,2.891.789C335.744,496.071,332.326,505.011,332.326,505.011Z" transform="translate(-257.155 -393.043)" fill="#575a89"/>
    <path id="Pfad_3291" data-name="Pfad 3291" d="M332.755,470.11s-.789-6.836.789-6.31,1.315,7.1,1.315,7.1Z" transform="translate(-266.787 -369.447)" fill="#a0616a"/>
    <path id="Pfad_3292" data-name="Pfad 3292" d="M241.573,740.665l-1.517,3.967,4.226,1.25-.08-5.258Z" transform="translate(-187.579 -578.722)" fill="#575a89"/>
    <path id="Pfad_3293" data-name="Pfad 3293" d="M255.776,610.778l-4.2,17.419L247.535,639.3l-5.258.08,4.778-14.272,1.862-15.805Z" transform="translate(-189.314 -476.109)" fill="#2f2e41"/>
    <path id="Pfad_3294" data-name="Pfad 3294" d="M265.848,783.529s-1.6,3.407-.521,3.874a33.16,33.16,0,0,0,4.011,1.093l.4-.338s6.773,1.518,7.907-.81S273.458,784,273.458,784l-2.433-2.076-2.922,1.427Z" transform="translate(-213.96 -618.051)" fill="#2f2e41"/>
    <path id="Pfad_3295" data-name="Pfad 3295" d="M216.264,737.443l-1.517,3.967,4.226,1.25-.08-5.258Z" transform="translate(-167.803 -576.205)" fill="#575a89"/>
    <path id="Pfad_3296" data-name="Pfad 3296" d="M223.267,611.51l-1.552,15.408-4.8,12.695,4.493,1.509,6.893-13.516,3.18-15.563Z" transform="translate(-169.495 -477.832)" fill="#2f2e41"/>
    <path id="Pfad_3297" data-name="Pfad 3297" d="M235.993,786.513s-2.509,2.807-1.608,3.563a33.147,33.147,0,0,0,3.53,2.195l.482-.209s6.056,3.393,7.808,1.487-3.056-4.406-3.056-4.406l-1.737-2.686-3.208.531Z" transform="translate(-189.922 -621.592)" fill="#2f2e41"/>
    <path id="Pfad_3298" data-name="Pfad 3298" d="M326.418,545.152,324.7,546.4l-4.469-6.311,1.243-.221c.069.114,1.146.085,1.217.2C324,542.2,325.877,544.008,326.418,545.152Z" transform="translate(-257.154 -428.906)" opacity="0.15"/>
    <path id="Pfad_3299" data-name="Pfad 3299" d="M269.917,551.907c-.3-.2-.375-2.255-.811-2.434-.221-.091-.763,1.689-1.014,1.6-6.519-2.255-21.091,2.58-23.531-2.819-1.641-3.63,8.78-10.668,8.78-13.3a7.724,7.724,0,0,0-.361-1.97,45.329,45.329,0,0,0-2.169-5.585c-.639-1.416-1.15-2.436-1.15-2.436s7.666-2.278,10.123-3.159a7.062,7.062,0,0,0,.657-.26c.471-.235,1.68,1.428,2.919,3.455a65.682,65.682,0,0,1,3.39,6.274C267.273,532.593,274.386,554.8,269.917,551.907Z" transform="translate(-197.888 -414.578)" fill="#575a89"/>
    <path id="Pfad_3300" data-name="Pfad 3300" d="M285.379,524.5c-2.846,3.426-5.909,7.522-8.546,8.3a4.377,4.377,0,0,1-.886.17,45.35,45.35,0,0,0-2.169-5.585,3.587,3.587,0,0,1,1.073-.805l7.13-3.509.769-1.28c.312-.112.54-.2.657-.26C283.878,521.288,284.139,522.469,285.379,524.5Z" transform="translate(-220.856 -414.552)" opacity="0.15"/>
    <path id="Pfad_3301" data-name="Pfad 3301" d="M271.438,500.293a3.558,3.558,0,0,0-1.4,5.217,2.8,2.8,0,0,0,3.378,1c4.47-1.315,12.883-10.78,12.883-13.672v-2.629l-3.155-1.052-4.581,7.623Z" transform="translate(-217.443 -389.286)" fill="#575a89"/>
    <ellipse id="Ellipse_435" data-name="Ellipse 435" cx="0.406" cy="0.811" rx="0.406" ry="0.811" transform="matrix(0.814, -0.581, 0.581, 0.814, 64.533, 111.141)" fill="#2f2e41"/>
    <ellipse id="Ellipse_436" data-name="Ellipse 436" cx="0.406" cy="0.811" rx="0.406" ry="0.811" transform="matrix(0.814, -0.581, 0.581, 0.814, 65.75, 113.373)" fill="#2f2e41"/>
    <ellipse id="Ellipse_437" data-name="Ellipse 437" cx="0.406" cy="0.811" rx="0.406" ry="0.811" transform="matrix(0.814, -0.581, 0.581, 0.814, 66.764, 115.807)" fill="#2f2e41"/>
    <ellipse id="Ellipse_438" data-name="Ellipse 438" cx="0.406" cy="0.811" rx="0.406" ry="0.811" transform="translate(67.528 118.029) rotate(-18.867)" fill="#2f2e41"/>
    <ellipse id="Ellipse_439" data-name="Ellipse 439" cx="0.406" cy="0.811" rx="0.406" ry="0.811" transform="translate(68.34 120.463) rotate(-18.867)" fill="#2f2e41"/>
    <ellipse id="Ellipse_440" data-name="Ellipse 440" cx="0.406" cy="0.811" rx="0.406" ry="0.811" transform="translate(69.151 122.694) rotate(-18.867)" fill="#2f2e41"/>
    <ellipse id="Ellipse_441" data-name="Ellipse 441" cx="0.406" cy="0.811" rx="0.406" ry="0.811" transform="translate(69.557 125.129) rotate(-18.867)" fill="#2f2e41"/>
    <ellipse id="Ellipse_442" data-name="Ellipse 442" cx="0.406" cy="0.811" rx="0.406" ry="0.811" transform="translate(69.963 127.563) rotate(-18.867)" fill="#2f2e41"/>
    <ellipse id="Ellipse_443" data-name="Ellipse 443" cx="0.406" cy="0.811" rx="0.406" ry="0.811" transform="translate(70.369 130.2) rotate(-18.867)" fill="#2f2e41"/>
    <ellipse id="Ellipse_444" data-name="Ellipse 444" cx="0.406" cy="0.811" rx="0.406" ry="0.811" transform="translate(70.571 132.837) rotate(-18.867)" fill="#2f2e41"/>
    <path id="Pfad_3302" data-name="Pfad 3302" d="M246.17,487.036s6.006-7,5.434-8.359-5.272-4.175-10.7-1.891c0,0-2.386-1.873-3.216.713s2.186,2.917,2.186,2.917-.931,6.145,4.671,7.305Z" transform="translate(-192.539 -378.943)" fill="#fafcff"/>
    <circle id="Ellipse_445" data-name="Ellipse 445" cx="4.014" cy="4.014" r="4.014" transform="translate(146.871 159.547)" fill="#fff"/>
    <path id="Pfad_3303" data-name="Pfad 3303" d="M673.977,741.805l-1.149-1.534.2-.15.988,1.319,1.736-1.488,1.75,1.5,1.512-1.512,1.594,1.594-.177.177-1.417-1.417-1.5,1.5-1.763-1.511Z" transform="translate(-525.746 -578.187)" fill="#575a89"/>
    <path id="Pfad_3304" data-name="Pfad 3304" d="M672.878,751.044l-1.138-1.52.175-.131,1,1.334,1.739-1.49,1.75,1.5,1.511-1.511,1.582,1.582-.155.155-1.428-1.428-1.5,1.5-1.762-1.51Z" transform="translate(-524.896 -585.442)" fill="#575a89"/>
    <rect id="Rechteck_1832" data-name="Rechteck 1832" width="0.251" height="3.01" transform="translate(150.634 156.662)" fill="#575a89"/>
    <circle id="Ellipse_446" data-name="Ellipse 446" cx="4.014" cy="4.014" r="4.014" transform="translate(133.446 159.406)" fill="#fafcff"/>
    <path id="Pfad_3305" data-name="Pfad 3305" d="M611.9,739.256l-1.7-.888.116-.222,1.461.764.924-2.091,2.225.6.711-2.016,2.126.75-.083.237-1.889-.667-.705,2-2.242-.6Z" transform="translate(-476.808 -574.639)" fill="#575a89"/>
    <path id="Pfad_3306" data-name="Pfad 3306" d="M614.753,747.906l-1.58-.674.086-.2,1.4.6,1.021-1.9,2.131.4.807-1.812,2,.531-.056.211-1.821-.483-.8,1.8-2.143-.4Z" transform="translate(-479.132 -581.606)" fill="#575a89"/>
    <rect id="Rechteck_1833" data-name="Rechteck 1833" width="0.251" height="3.01" transform="matrix(0.902, -0.431, 0.431, 0.902, 134.257, 157.305)" fill="#575a89"/>
    <circle id="Ellipse_447" data-name="Ellipse 447" cx="4.014" cy="4.014" r="4.014" transform="translate(97.39 157.146)" fill="#fafcff"/>
    <path id="Pfad_3307" data-name="Pfad 3307" d="M450.288,726.625l-.573-1.829.239-.075.493,1.573,2.132-.825,1.151,2,1.928-.923.973,2.033-.226.108-.864-1.807-1.912.914-1.159-2.011Z" transform="translate(-351.406 -566.295)" fill="#575a89"/>
    <path id="Pfad_3308" data-name="Pfad 3308" d="M452.338,736.969l-.871-1.822-1.913.915-1.159-2.01-2.178.843-.567-1.812.208-.065.5,1.59,2.136-.827,1.151,2,1.928-.922.966,2.019Z" transform="translate(-348.229 -572.777)" fill="#575a89"/>
    <rect id="Rechteck_1834" data-name="Rechteck 1834" width="3.01" height="0.251" transform="translate(102.46 157.409) rotate(-70.562)" fill="#575a89"/>
    <ellipse id="Ellipse_448" data-name="Ellipse 448" cx="0.373" cy="1.254" rx="0.373" ry="1.254" transform="translate(185.562 151.073) rotate(-9.004)" fill="#575a89"/>
    <ellipse id="Ellipse_449" data-name="Ellipse 449" cx="0.373" cy="1.254" rx="0.373" ry="1.254" transform="translate(185.06 147.561) rotate(-9.004)" fill="#575a89"/>
    <ellipse id="Ellipse_450" data-name="Ellipse 450" cx="0.373" cy="1.254" rx="0.373" ry="1.254" transform="translate(186.064 154.334) rotate(-9.004)" fill="#575a89"/>
    <ellipse id="Ellipse_451" data-name="Ellipse 451" cx="0.373" cy="1.254" rx="0.373" ry="1.254" transform="translate(186.392 157.311) rotate(-5.343)" fill="#575a89"/>
    <ellipse id="Ellipse_452" data-name="Ellipse 452" cx="1.254" cy="0.373" rx="1.254" ry="0.373" transform="translate(191.248 139.33) rotate(-45)" fill="#575a89"/>
    <path id="Pfad_3309" data-name="Pfad 3309" d="M847.592,631.222a1.792,1.792,0,0,0-1.355.736,8.221,8.221,0,0,1-1.016.934,4.175,4.175,0,0,1-3.82.543c.031.011,1.214-1.554,1.344-1.7a16.443,16.443,0,0,1,1.585-1.531c.421-.355,1-.964,1.6-.7C846.564,629.784,847.142,630.713,847.592,631.222Z" transform="translate(-664.395 -498.902)" fill="#2f2e41"/>
    <path id="Pfad_3310" data-name="Pfad 3310" d="M821.691,613.39s7.024-3.512,7.024-4.766-2.76-5.017-7.777-5.017c0,0-1.254-2.258-2.76-.5s.753,3.01.753,3.01-2.759,4.516,1.254,7.275Z" transform="translate(-645.845 -477.8)" fill="#575a89"/>
    <path id="Pfad_3311" data-name="Pfad 3311" d="M853.8,630.033a1.792,1.792,0,0,0-1.355.736,8.211,8.211,0,0,1-1.016.934,4.175,4.175,0,0,1-3.82.543c.031.011,1.214-1.554,1.344-1.7a16.445,16.445,0,0,1,1.585-1.532c.421-.355,1-.964,1.6-.7C852.777,628.595,853.355,629.524,853.8,630.033Z" transform="translate(-669.249 -497.973)" fill="#575a89"/>
    <path id="Pfad_3312" data-name="Pfad 3312" d="M922.049,629.378c-.8-1.331-2.233-.543-3.4.49-.057-.643-.252-1.117-.484-1.117-.277,0-.5.674-.5,1.505a4.265,4.265,0,0,0,.035.55c-.548.594-.913,1.081-.913,1.081l-1.505,1,2.76,3.01,1.254-1.505S923.554,631.887,922.049,629.378Z" transform="translate(-722.121 -498.304)" fill="#2f2e41"/>
    <circle id="Ellipse_453" data-name="Ellipse 453" cx="1.003" cy="1.003" r="1.003" transform="translate(170.954 123.674)" fill="#575a89"/>
    <path id="Pfad_3313" data-name="Pfad 3313" d="M845,729v1.639a2.3,2.3,0,1,0,4.591,0V729Z" transform="translate(-667.207 -576.697)" fill="#fafcff"/>
    <path id="Pfad_3314" data-name="Pfad 3314" d="M845,729v1.639a2.3,2.3,0,1,0,4.591,0V729Z" transform="translate(-667.207 -576.697)" opacity="0.15"/>
  </g>
</svg>
