<svg xmlns="http://www.w3.org/2000/svg" width="243.011" height="179.351" viewBox="0 0 243.011 179.351">
  <g id="Gruppe_566" data-name="Gruppe 566" transform="translate(0.002 0)">
    <path id="Pfad_3110" data-name="Pfad 3110" d="M237.879,342.52l-.49-.369c2.676-3.553,6.007-7.975,6.52-12.963.506-4.917-1.852-10.2-6.153-13.788-3.66-3.053-8.7-4.983-14.572-5.58-1.158-.118-2.349-.187-3.5-.254a33.725,33.725,0,0,1-8.371-1.2c-3.73-1.194-7.564-4.309-7.722-8.575a7.319,7.319,0,0,1,3.92-6.677l.287.543a6.707,6.707,0,0,0-3.593,6.115c.147,3.964,3.771,6.879,7.3,8.009a33.267,33.267,0,0,0,8.219,1.167c1.158.067,2.356.137,3.528.256,5.995.61,11.148,2.588,14.9,5.719,4.456,3.716,6.9,9.2,6.37,14.322C243.99,334.408,240.6,338.906,237.879,342.52Z" transform="translate(-203.591 -251.574)" fill="#fff"/>
    <ellipse id="Ellipse_356" data-name="Ellipse 356" cx="5.369" cy="2.608" rx="5.369" ry="2.608" transform="translate(1.75 40.359) rotate(-24.605)" fill="#fff"/>
    <ellipse id="Ellipse_357" data-name="Ellipse 357" cx="5.369" cy="2.608" rx="5.369" ry="2.608" transform="translate(12.808 54.191) rotate(-24.605)" fill="#fff"/>
    <ellipse id="Ellipse_358" data-name="Ellipse 358" cx="5.369" cy="2.608" rx="5.369" ry="2.608" transform="translate(5.032 60.789) rotate(-24.605)" fill="#fff"/>
    <ellipse id="Ellipse_359" data-name="Ellipse 359" cx="5.369" cy="2.608" rx="5.369" ry="2.608" transform="translate(24.982 67.513) rotate(-24.605)" fill="#fff"/>
    <ellipse id="Ellipse_360" data-name="Ellipse 360" cx="5.369" cy="2.608" rx="5.369" ry="2.608" transform="translate(34.745 63.042) rotate(-24.605)" fill="#f1f1f1"/>
    <path id="Pfad_3111" data-name="Pfad 3111" d="M909.129,611.661l.267-.552c-4-1.939-8.986-4.352-11.72-8.556-2.7-4.144-3.01-9.921-.822-15.076,1.862-4.388,5.464-8.405,10.416-11.618.977-.634,2-1.239,3-1.824a33.725,33.725,0,0,0,6.9-4.885c2.773-2.766,4.762-7.287,2.955-11.154a7.319,7.319,0,0,0-6.536-4.151l-.007.614a6.707,6.707,0,0,1,5.989,3.8c1.679,3.594-.214,7.842-2.834,10.456a33.271,33.271,0,0,1-6.779,4.791c-1,.589-2.034,1.2-3.022,1.838-5.055,3.28-8.737,7.392-10.647,11.893-2.267,5.341-1.933,11.338.872,15.651C899.99,607.235,905.057,609.689,909.129,611.661Z" transform="translate(-682.74 -432.31)" fill="#fff"/>
    <ellipse id="Ellipse_361" data-name="Ellipse 361" cx="5.369" cy="2.608" rx="5.369" ry="2.608" transform="translate(221.515 119.968) rotate(-2.563)" fill="#fff"/>
    <ellipse id="Ellipse_362" data-name="Ellipse 362" cx="5.369" cy="2.608" rx="5.369" ry="2.608" transform="translate(217.992 137.323) rotate(-2.563)" fill="#fff"/>
    <ellipse id="Ellipse_363" data-name="Ellipse 363" cx="5.369" cy="2.608" rx="5.369" ry="2.608" transform="translate(227.923 139.642) rotate(-2.563)" fill="#fff"/>
    <ellipse id="Ellipse_364" data-name="Ellipse 364" cx="5.369" cy="2.608" rx="5.369" ry="2.608" transform="translate(213.244 154.733) rotate(-2.563)" fill="#fff"/>
    <ellipse id="Ellipse_365" data-name="Ellipse 365" cx="5.369" cy="2.608" rx="5.369" ry="2.608" transform="translate(202.517 155.213) rotate(-2.563)" fill="#fff"/>
    <path id="Pfad_3112" data-name="Pfad 3112" d="M651.059,415.544a3.213,3.213,0,0,1,.325.391l15.211-.372,1.774-3.242,5.243,2.038-2.583,6.045a2.454,2.454,0,0,1-2.551,1.472L651.292,419.8a3.221,3.221,0,1,1-.233-4.257Z" transform="translate(-509.956 -334.205)" fill="#ffb7b7"/>
    <path id="Pfad_3113" data-name="Pfad 3113" d="M604.869,522.631h-5l-2.379-19.291h7.381Z" transform="translate(-414.183 -348.918)" fill="#ffb7b7"/>
    <path id="Pfad_3114" data-name="Pfad 3114" d="M792.856,725.079H776.73v-.2a6.277,6.277,0,0,1,6.276-6.277h9.85Z" transform="translate(-600.894 -546.518)" fill="#2f2e41"/>
    <path id="Pfad_3115" data-name="Pfad 3115" d="M463.128,519.221l-4.6-1.965,5.39-18.674,6.788,2.9Z" transform="translate(-317.856 -345.62)" fill="#ffb7b7"/>
    <path id="Pfad_3116" data-name="Pfad 3116" d="M641.219,716.37l-14.83-6.335.08-.187a6.277,6.277,0,0,1,8.238-3.307h0l9.057,3.869Z" transform="translate(-496.678 -537.809)" fill="#2f2e41"/>
    <path id="Pfad_3117" data-name="Pfad 3117" d="M541.491,277.111l-.362,5.86L551.7,284.1l11.062,1.184-3.256-8.9Z" transform="translate(-375.114 -191.593)" fill="#ffb7b7"/>
    <path id="Pfad_3118" data-name="Pfad 3118" d="M734.5,375.594l-4.254-24.866,7.118-2.333,2.091-2.867,10.174.6,1.494,3.346,5.425,2.563-.834,15.483-1.463,7.2-.18-.093c-7.334-3.8-19.275.847-19.394.894Z" transform="translate(-568.674 -287.904)" fill="#2f2e41"/>
    <path id="Pfad_3119" data-name="Pfad 3119" d="M718.85,383.572l-7.24-2.9.031-.129c.031-.13,3.113-13.008,3.522-15.077a3.608,3.608,0,0,1,2.05-2.776l.048-.018,2.865.872,1.258,9.888Z" transform="translate(-555.753 -299.791)" fill="#2f2e41"/>
    <path id="Pfad_3120" data-name="Pfad 3120" d="M667.476,529.169l-9.638-1.977,15.4-42.507,5.272-14.5s3.344-11.625,4.855-16.123l.912-6.036,21.583,2.389s6.028,8.853,4.2,23.282l.828,54.235-9.638.494-8.073-54.7-14.169,29.985s-4.466,12.8-7.661,15.569Z" transform="translate(-518.478 -358.958)" fill="#2f2e41"/>
    <path id="Pfad_3121" data-name="Pfad 3121" d="M779.11,423.187a3.228,3.228,0,0,1,.508.028l10.069-11.407-1.171-3.506,5.06-2.459,2.677,6a2.454,2.454,0,0,1-.655,2.872L782.39,425.91a3.22,3.22,0,1,1-3.28-2.723Z" transform="translate(-600.38 -329.715)" fill="#ffb7b7"/>
    <path id="Pfad_3122" data-name="Pfad 3122" d="M808.53,385.809l-4.2-9.88,1.638-6.882,1.765-2.23a1.017,1.017,0,0,1,.817.008c.651.262,1.205,1.065,1.648,2.387l3.936,11.212Z" transform="translate(-620.027 -302.605)" fill="#2f2e41"/>
    <path id="Pfad_3123" data-name="Pfad 3123" d="M746.991,294.213v-7.448a9.981,9.981,0,1,1,19.962,0v7.448a1.342,1.342,0,0,1-1.341,1.341h-17.28A1.342,1.342,0,0,1,746.991,294.213Z" transform="translate(-580.279 -240.25)" fill="#2f2e41"/>
    <circle id="Ellipse_366" data-name="Ellipse 366" cx="7.318" cy="7.318" r="7.318" transform="translate(167.324 40.495)" fill="#ffb7b7"/>
    <path id="Pfad_3124" data-name="Pfad 3124" d="M739.294,293.419a7.9,7.9,0,0,1,7.9-7.9h1.49a7.9,7.9,0,0,1,7.9,7.9v.149h-3.148l-1.074-3.007-.215,3.007h-1.627l-.542-1.517-.108,1.517H739.294Z" transform="translate(-574.944 -246.309)" fill="#2f2e41"/>
    <path id="Pfad_3125" data-name="Pfad 3125" d="M769.907,309.918a1.321,1.321,0,0,1-.1-1.4c1.579-3,3.789-8.551.855-11.973l-.211-.246h8.517v12.787l-7.737,1.365a1.365,1.365,0,0,1-.237.021,1.335,1.335,0,0,1-1.082-.553Z" transform="translate(-595.986 -253.777)" fill="#2f2e41"/>
    <path id="Pfad_3126" data-name="Pfad 3126" d="M407.916,306.318h-91.23a8.165,8.165,0,0,1-8.156-8.156v-132.3a8.165,8.165,0,0,1,8.156-8.156h91.23a8.165,8.165,0,0,1,8.156,8.156v132.3a8.165,8.165,0,0,1-8.156,8.156Z" transform="translate(-276.336 -157.702)" fill="#3f3d56"/>
    <path id="Pfad_3127" data-name="Pfad 3127" d="M420.461,312.872H328.91a2.517,2.517,0,0,1-2.514-2.514V177.177a2.517,2.517,0,0,1,2.514-2.514h91.551a2.517,2.517,0,0,1,2.514,2.514v133.18a2.517,2.517,0,0,1-2.514,2.514Z" transform="translate(-288.721 -169.46)" fill="#fff"/>
    <circle id="Ellipse_367" data-name="Ellipse 367" cx="0.694" cy="0.694" r="0.694" transform="translate(84.924 1.804)" fill="#fff"/>
    <path id="Pfad_3128" data-name="Pfad 3128" d="M520.2,421.312a21.146,21.146,0,0,1-21.12-20.109c-.016.343-.026.688-.026,1.036a21.147,21.147,0,1,0,42.293,0c0-.348-.01-.693-.026-1.037A21.146,21.146,0,0,1,520.2,421.312Z" transform="translate(-413.912 -326.479)" fill="#cbcbcb"/>
    <path id="Pfad_3129" data-name="Pfad 3129" d="M390.162,304.126A24.106,24.106,0,0,1,366.086,281.2c-.019.391-.03.785-.03,1.181a24.106,24.106,0,0,0,48.212,0c0-.4-.011-.79-.03-1.182A24.106,24.106,0,0,1,390.162,304.126Z" transform="translate(-320.632 -244.667)" fill="#cbcbcb"/>
    <path id="Pfad_3130" data-name="Pfad 3130" d="M391.219,542.279A22.163,22.163,0,0,1,369.083,521.2c-.017.359-.027.721-.027,1.086a22.163,22.163,0,0,0,44.326,0c0-.364-.01-.726-.027-1.087A22.163,22.163,0,0,1,391.219,542.279Z" transform="translate(-324.799 -409.639)" fill="#cbcbcb"/>
    <path id="Pfad_3131" data-name="Pfad 3131" d="M519.9,390.108a21.374,21.374,0,1,1,21.374-21.374A21.374,21.374,0,0,1,519.9,390.108Zm0-41.73a20.356,20.356,0,1,0,20.356,20.356A20.356,20.356,0,0,0,519.9,348.378Z" transform="translate(-413.6 -294.962)" fill="#3f3d56"/>
    <path id="Pfad_3132" data-name="Pfad 3132" d="M547.2,379.763l2.545-.509A23.858,23.858,0,0,1,547.2,381.8h0a10.247,10.247,0,0,0,0,1.527c-4.885,20.967-22.9,11.7-22.9,11.7,6.565.153,7.125-2.545,7.125-2.545-3.817-.56-4.58-3.053-4.58-3.053a1.573,1.573,0,0,0,2.036-.509,4.622,4.622,0,0,1-3.562-5.089,5.292,5.292,0,0,0,2.494.967c-.458-.56-4.326-5.191-1.985-7.583,0,0,2.85,5.089,10.331,5.547l.509-.1a3.993,3.993,0,0,1-.1-1.12,5.344,5.344,0,0,1,5.344-5.343h0c3.562,0,4.326,2.036,4.326,2.036l2.545-1.527C548.726,376.71,548.471,379.254,547.2,379.763Z" transform="translate(-428.688 -311.845)" fill="#2f2e41"/>
    <path id="Pfad_3133" data-name="Pfad 3133" d="M390.337,276.425A24.365,24.365,0,1,1,414.7,252.059,24.365,24.365,0,0,1,390.337,276.425Zm0-47.57a23.205,23.205,0,1,0,23.205,23.205A23.2,23.2,0,0,0,390.337,228.854Z" transform="translate(-320.588 -216.451)" fill="#3f3d56"/>
    <path id="Pfad_3134" data-name="Pfad 3134" d="M408.328,251.009a6.144,6.144,0,0,1,6.125,6.125v12.249a6.144,6.144,0,0,1-6.125,6.125H396.078a6.144,6.144,0,0,1-6.125-6.125V257.134a6.144,6.144,0,0,1,6.125-6.125h12.249m0-2.45H396.078a8.6,8.6,0,0,0-8.575,8.575v12.249a8.6,8.6,0,0,0,8.575,8.575h12.249a8.6,8.6,0,0,0,8.575-8.575V257.134a8.6,8.6,0,0,0-8.575-8.575Z" transform="translate(-331.942 -227.454)" fill="#2f2e41"/>
    <path id="Pfad_3135" data-name="Pfad 3135" d="M433.406,262.61a1.834,1.834,0,1,1,.008,0Z" transform="translate(-355.183 -232.929)" fill="#2f2e41"/>
    <path id="Pfad_3136" data-name="Pfad 3136" d="M410.4,266.559a4.9,4.9,0,1,1-4.9,4.9,4.9,4.9,0,0,1,4.9-4.9h0m0-2.45a7.35,7.35,0,1,0,7.35,7.35h0a7.35,7.35,0,0,0-7.35-7.35Z" transform="translate(-340.142 -235.654)" fill="#2f2e41"/>
    <path id="Pfad_3137" data-name="Pfad 3137" d="M390.827,511.829a22.4,22.4,0,1,1,22.4-22.4A22.4,22.4,0,0,1,390.827,511.829Zm0-43.736a21.334,21.334,0,1,0,21.334,21.335,21.335,21.335,0,0,0-21.334-21.335Z" transform="translate(-324.443 -379.006)" fill="#3f3d56"/>
    <path id="Pfad_3138" data-name="Pfad 3138" d="M415.563,499.726a14.644,14.644,0,1,0-16.932,14.467V503.961h-3.719v-4.234h3.719V496.5c0-3.67,2.187-5.7,5.531-5.7a22.505,22.505,0,0,1,3.279.286v3.6h-1.848a2.118,2.118,0,0,0-2.387,2.288v2.747h4.061l-.649,4.234h-3.413v10.233a14.648,14.648,0,0,0,12.357-14.468Z" transform="translate(-334.535 -389.217)" fill="#2f2e41" fill-rule="evenodd"/>
    <path id="Pfad_3139" data-name="Pfad 3139" d="M729.878,740.316H612.989a.307.307,0,1,1,0-.614H729.878a.307.307,0,0,1,0,.614Z" transform="translate(-487.176 -561.148)" fill="#fff"/>
  </g>
</svg>
