<svg id="Gruppe_568" data-name="Gruppe 568" xmlns="http://www.w3.org/2000/svg" width="241.65" height="176.743" viewBox="0 0 241.65 176.743">
  <path id="Pfad_3175" data-name="Pfad 3175" d="M1048.834,309.078h0c-4.621,0-8.367,4.157-8.367,9.286v6.516h2l1.16-2.414-.29,2.414h12.881l1.055-2.195-.264,2.195h1.45v-5.116C1058.461,313.862,1054.151,309.078,1048.834,309.078Z" transform="translate(-827.212 -250.28)" fill="#2f2e41"/>
  <path id="Pfad_3176" data-name="Pfad 3176" d="M1037.647,449.548l-1.39,5.327,12.971-.463-.232-4.4S1039.269,447.463,1037.647,449.548Z" transform="translate(-823.886 -360.624)" fill="#ffb9b9"/>
  <path id="Pfad_3177" data-name="Pfad 3177" d="M959.06,517.456l4.169,9.265,3.938-4.864-3.243-6.485Z" transform="translate(-757.806 -407.223)" fill="#ffb9b9"/>
  <path id="Pfad_3178" data-name="Pfad 3178" d="M1008.73,687.562l.464,10.655h5.1l-.695-10.655Z" transform="translate(-797.053 -543.281)" fill="#ffb9b9"/>
  <path id="Pfad_3179" data-name="Pfad 3179" d="M1004.25,496.486l2.316,7.644,3.474,37.06s3.243.927,5.559-.232l.463-5.1.927-29.185s4.4-2.316,3.938-5.559-1.621-7.644-1.621-7.644Z" transform="translate(-798.595 -395.982)" fill="#2f2e41"/>
  <path id="Pfad_3180" data-name="Pfad 3180" d="M994.332,754.075h-1.39s-3.938,4.169-5.327,4.633-8.57,4.4-2.779,5.1a13.368,13.368,0,0,0,9.5-2.316,5.292,5.292,0,0,0,4.4.232c2.548-.927,1.158-3.706,1.158-3.706s-1.293-4.236-1.342-4.2S997.111,755.928,994.332,754.075Z" transform="translate(-781.497 -601.687)" fill="#2f2e41"/>
  <circle id="Ellipse_380" data-name="Ellipse 380" cx="5.327" cy="5.327" r="5.327" transform="translate(214.689 62.518)" fill="#ffb9b9"/>
  <path id="Pfad_3181" data-name="Pfad 3181" d="M1064.857,366.115l-2.451,2.043-.329.273-.232,2.779h-9.033s1.232-1.068,2.376-2.173c.023-.025.049-.053.076-.079.155-.151.294-.29.419-.415l.19-.195c.095-.1.188-.195.28-.29a.008.008,0,0,0,0,0,9.03,9.03,0,0,0,.667-.783l0,0a2.705,2.705,0,0,0,.155-.229c.695-1.158-.926-3.474-.926-3.474l5.1-2.548c.178,2.511,2.3,4.188,3.252,4.818C1064.683,366.021,1064.857,366.115,1064.857,366.115Z" transform="translate(-836.967 -291.322)" fill="#ffb9b9"/>
  <path id="Pfad_3182" data-name="Pfad 3182" d="M1105.28,424.068c-3.474.927-3.706-6.022-3.706-6.022l-4.742-9.484a21.93,21.93,0,0,1-2.043-6.362l-1.09-6.853-.331.4v0l-.6.3-3.618-5.791-1.015-1.621v-1.853l3.474-1.621H1093s.03,0,.083-.009c.639-.067,4.8-.345,5.012,3.715.084,1.594.077,2.914.033,3.95a30.585,30.585,0,0,0,.808,8.526,10.487,10.487,0,0,0,.78,2.348c.927,1.621,4.169,14.361,4.169,14.361S1108.755,423.141,1105.28,424.068Z" transform="translate(-864.881 -310.361)" fill="#ffb9b9"/>
  <path id="Pfad_3183" data-name="Pfad 3183" d="M1006.311,359.746l-.878,1.6-.519.947-2.54,4.633s-.72.588-1.888,1.348a19.709,19.709,0,0,1-8.3,3.284c-5.1.463-.232-15.982-.232-15.982s1.621-6.486,3.938-5.791.463,3.011-1.158,7.412a16.87,16.87,0,0,0-.232,9.265,65.042,65.042,0,0,0,7.412-5.327,5.236,5.236,0,0,1,3.252-1.568h0a2.948,2.948,0,0,1,.776.06A1.751,1.751,0,0,1,1006.311,359.746Z" transform="translate(-787.222 -282.404)" fill="#ffb9b9"/>
  <path id="Pfad_3184" data-name="Pfad 3184" d="M1068.364,390.822a5.88,5.88,0,0,1-.95,1.077,11.18,11.18,0,0,0,.95-1.077Z" transform="translate(-848.505 -314.87)" fill="#d0cde1"/>
  <path id="Pfad_3185" data-name="Pfad 3185" d="M1054.345,394.564l-.215.283-3.375,5.855a46.715,46.715,0,0,0-7.644-2.085,4.542,4.542,0,0,0-4.63,2.078l.924-3.7-.5-1.663c-.058-.195-.125-.41-.2-.653-.695-2.316,1.853-4.864,1.853-4.864l3.02-3.189h0a2.949,2.949,0,0,1,.776.06c-.125.125-.264.264-.419.415-.028.025-.053.053-.076.079-.887.906-.426,1.158-.012,1.225a2.04,2.04,0,0,0,.415.021c.966.139,3.081-.709,4.632-1.418,1.056-.482,1.853-.9,1.853-.9l2.022-1.853.3-.278c.278.183.454.278.454.278h.232s.03,0,.083-.009l-1.055.783a3.921,3.921,0,0,0-1.577,3.4h0Z" transform="translate(-825.643 -309.463)" fill="#d0cde1"/>
  <path id="Pfad_3186" data-name="Pfad 3186" d="M959.953,457.331l-3.386,1.322s-18.386-7.113-21.166-1.322,9.728,19.688,9.728,19.688l5.559-2.548-2.316-6.949s13.434,11.35,18.993,5.1,1.853-15.1,1.853-15.1S965.744,454.783,959.953,457.331Z" transform="translate(-743.875 -365.628)" fill="#2f2e41"/>
  <path id="Pfad_3187" data-name="Pfad 3187" d="M999.71,571.656l-2.085,1.621s1.853,7.412,1.158,8.57-2.085,4.4.463,4.169,5.327-4.169,5.559-5.559a50.479,50.479,0,0,1,1.853-5.559s2.779-6.486.695-6.717-5.4-.387-5.4-.387Z" transform="translate(-793.361 -454.706)" fill="#2f2e41"/>
  <path id="Pfad_3188" data-name="Pfad 3188" d="M1056.419,314.615a4.388,4.388,0,0,0-3.463-1.767h-.164c-3.167,0-5.735,2.866-5.735,6.4h1.061l.171-1.3.251,1.3h6.3l.527-1.1-.132,1.1h1.238q.867,4.3-2.491,8.609h2.109l1.055-2.207-.264,2.207h4.021l.791-5.077A8.58,8.58,0,0,0,1056.419,314.615Z" transform="translate(-832.42 -253.258)" fill="#2f2e41"/>
  <circle id="Ellipse_381" data-name="Ellipse 381" cx="19.096" cy="19.096" r="19.096" transform="translate(184.671 4.741)" fill="#f0ff65"/>
  <path id="Pfad_3189" data-name="Pfad 3189" d="M767.986,567.032c-.353,2.81-.642,5.515-.879,8.094h7.672q.419-4.067,1.05-8.094Z" transform="translate(-611.216 -454.103)" fill="#3f3d56"/>
  <path id="Pfad_3190" data-name="Pfad 3190" d="M770.465,672.734q-.247-4.027-.2-8.094h-7.777c-.126,3.1-.176,5.823-.185,8.094Z" transform="translate(-607.42 -531.229)" fill="#3f3d56"/>
  <path id="Pfad_3191" data-name="Pfad 3191" d="M828,239.675a244.408,244.408,0,0,1,12.661-28.494l-6.525-3.882a145.853,145.853,0,0,0-15.806,32.376Z" transform="translate(-651.694 -169.858)" fill="#3f3d56"/>
  <path id="Pfad_3192" data-name="Pfad 3192" d="M764.185,615.836c-.24,2.886-.414,5.6-.538,8.094h7.721q.112-4.047.472-8.094Z" transform="translate(-608.482 -492.666)" fill="#3f3d56"/>
  <path id="Pfad_3193" data-name="Pfad 3193" d="M773.859,518.228c-.471,2.769-.88,5.473-1.233,8.094h7.912q.689-4.089,1.555-8.094Z" transform="translate(-615.577 -415.541)" fill="#3f3d56"/>
  <path id="Pfad_3194" data-name="Pfad 3194" d="M805.357,371.816q-1.365,4.06-2.514,8.094h9.315c.921-2.8,1.864-5.506,2.81-8.094Z" transform="translate(-639.452 -299.852)" fill="#3f3d56"/>
  <path id="Pfad_3195" data-name="Pfad 3195" d="M781.907,469.424q-.9,4.115-1.613,8.094h8.333q.933-4.115,2.008-8.094Z" transform="translate(-621.635 -376.978)" fill="#3f3d56"/>
  <path id="Pfad_3196" data-name="Pfad 3196" d="M762.318,713.444c.025,3.488.141,5.451.141,5.451l-.083,1.569h9.085q-.545-3.48-.832-7.02Z" transform="translate(-607.431 -569.791)" fill="#3f3d56"/>
  <path id="Pfad_3197" data-name="Pfad 3197" d="M792.315,420.62q-1.118,4.085-2.035,8.094h8.834q1.161-4.15,2.422-8.094Z" transform="translate(-629.525 -338.415)" fill="#3f3d56"/>
  <path id="Pfad_3198" data-name="Pfad 3198" d="M787.868,77.623a71.068,71.068,0,0,0-9.657-15.517l-1.656,2.544.141-4.226a33.206,33.206,0,0,0-3.5-3.206L770.938,60.7l.166-4.971a20.8,20.8,0,0,0-4.3-2.122l-1.673,2.571.1-3.045a17.134,17.134,0,0,0-13.267,2.23l-1.651-.246,2.831-1.182a20.808,20.808,0,0,0-1.312-4.611l-4.92-.734,3.828-1.6a33.2,33.2,0,0,0-2.523-4.017l-4.182-.624,2.8-1.17a71.071,71.071,0,0,0-13.52-12.3s-.449,3.919-.7,9.384l4.108,4.2-4.22-1.091c-.044,1.678-.063,3.445-.042,5.248l3.029,3.1-2.98-.771c.043,1.378.114,2.764.216,4.134a16.315,16.315,0,0,0-7.845.045l.1,3.045L723.315,53.6a20.8,20.8,0,0,0-4.3,2.122l.166,4.971-2.263-3.477a33.206,33.206,0,0,0-3.5,3.206l.141,4.226-1.656-2.544a71.068,71.068,0,0,0-9.657,15.517s3.936-.266,9.356-1.006l3.392-4.8-.312,4.348c1.659-.259,3.4-.56,5.169-.905l2.5-3.539-.22,3.07c2.468-.533,4.943-1.158,7.281-1.886l1.679,1.562-3-.626a20.805,20.805,0,0,0-1.526,4.544l3.642,3.388-4.061-.847a33.2,33.2,0,0,0-.191,4.74l3.1,2.88-2.971-.62a71.064,71.064,0,0,0,4.193,17.789s2.587-2.978,5.884-7.343l-1.011-5.789,2.863,3.287c.986-1.359,2-2.805,3-4.3L740.27,87.3l2.022,2.321a73.614,73.614,0,0,0,5.327-9.661,80.821,80.821,0,0,0,5.8,6.761l1.549-2.66.071,4.333c1.266,1.283,2.536,2.513,3.759,3.662l2.193-3.767.1,5.876c4.059,3.667,7.16,6.1,7.16,6.1a71.069,71.069,0,0,0,.771-18.26l-2.8,1.168,2.5-3.411a33.205,33.205,0,0,0-1.08-4.619l-3.829,1.6,1.821-2.485q1.173.283,2.354.538l-.22-3.07,2.5,3.539c1.769.346,3.511.646,5.169.905l-.312-4.348,3.392,4.8C783.934,77.357,787.868,77.623,787.868,77.623Z" transform="translate(-559.97 -28.879)" fill="#fafcff"/>
  <path id="Pfad_3199" data-name="Pfad 3199" d="M685.668,543.343c.249,1.984.453,3.893.62,5.713h-5.415q-.3-2.871-.741-5.713Z" transform="translate(-542.491 -435.385)" fill="#3f3d56"/>
  <path id="Pfad_3200" data-name="Pfad 3200" d="M685.409,617.956q.174-2.843.141-5.713h5.49c.089,2.189.124,4.111.13,5.713Z" transform="translate(-546.661 -489.826)" fill="#3f3d56"/>
  <path id="Pfad_3201" data-name="Pfad 3201" d="M607.132,312.267a172.5,172.5,0,0,0-8.937-20.113l4.606-2.74a102.96,102.96,0,0,1,11.157,22.853Z" transform="translate(-477.749 -234.742)" fill="#3f3d56"/>
  <path id="Pfad_3202" data-name="Pfad 3202" d="M689.757,577.793c.169,2.037.292,3.95.38,5.713h-5.45q-.079-2.857-.333-5.713Z" transform="translate(-545.828 -462.606)" fill="#3f3d56"/>
  <path id="Pfad_3203" data-name="Pfad 3203" d="M679.542,508.893c.333,1.955.621,3.863.87,5.713h-5.585q-.487-2.886-1.1-5.713Z" transform="translate(-537.433 -408.164)" fill="#3f3d56"/>
  <path id="Pfad_3204" data-name="Pfad 3204" d="M650.244,405.543q.964,2.866,1.775,5.713h-6.575c-.65-1.978-1.316-3.887-1.984-5.713Z" transform="translate(-513.515 -326.502)" fill="#3f3d56"/>
  <path id="Pfad_3205" data-name="Pfad 3205" d="M671.539,474.443q.636,2.9,1.139,5.713H666.8q-.659-2.9-1.417-5.713Z" transform="translate(-530.834 -380.944)" fill="#3f3d56"/>
  <path id="Pfad_3206" data-name="Pfad 3206" d="M688.551,646.693c-.018,2.462-.1,3.848-.1,3.848l.058,1.108H682.1q.385-2.457.587-4.956Z" transform="translate(-544.044 -517.048)" fill="#3f3d56"/>
  <path id="Pfad_3207" data-name="Pfad 3207" d="M661.76,439.993q.789,2.883,1.437,5.713H656.96q-.819-2.93-1.71-5.713Z" transform="translate(-522.832 -353.723)" fill="#3f3d56"/>
  <path id="Pfad_3208" data-name="Pfad 3208" d="M467.252,197.878a50.164,50.164,0,0,1,6.817-10.953l1.169,1.8-.1-2.983a23.437,23.437,0,0,1,2.468-2.263l1.6,2.454-.117-3.509a14.685,14.685,0,0,1,3.034-1.5l1.181,1.815-.072-2.149a12.1,12.1,0,0,1,9.365,1.574l1.165-.174-2-.834a14.686,14.686,0,0,1,.926-3.255l3.473-.518-2.7-1.128a23.436,23.436,0,0,1,1.781-2.835l2.952-.44-1.977-.826a50.167,50.167,0,0,1,9.543-8.681s.317,2.766.493,6.624l-2.9,2.966,2.979-.77c.031,1.185.045,2.432.03,3.7l-2.138,2.188,2.1-.544c-.031.973-.08,1.951-.152,2.918a11.516,11.516,0,0,1,5.538.032l-.072,2.149,1.181-1.815a14.684,14.684,0,0,1,3.034,1.5l-.117,3.509,1.6-2.454a23.443,23.443,0,0,1,2.468,2.263l-.1,2.983,1.169-1.8a50.163,50.163,0,0,1,6.817,10.953s-2.778-.188-6.6-.71l-2.394-3.387.22,3.069c-1.171-.183-2.4-.395-3.649-.639l-1.766-2.5.156,2.167c-1.742-.377-3.489-.818-5.14-1.332l-1.185,1.1,2.12-.442a14.685,14.685,0,0,1,1.077,3.208l-2.571,2.391,2.866-.6a23.437,23.437,0,0,1,.135,3.346l-2.185,2.033,2.1-.437a50.166,50.166,0,0,1-2.96,12.557s-1.826-2.1-4.153-5.183l.713-4.086-2.021,2.32c-.7-.959-1.412-1.98-2.12-3.038l.526-3.013-1.427,1.638a51.959,51.959,0,0,1-3.76-6.819,57.047,57.047,0,0,1-4.094,4.772l-1.093-1.878-.05,3.059c-.894.906-1.79,1.774-2.654,2.585l-1.548-2.659-.068,4.147c-2.865,2.588-5.054,4.309-5.054,4.309a50.164,50.164,0,0,1-.544-12.889l1.978.824-1.764-2.408a23.437,23.437,0,0,1,.762-3.26l2.7,1.126-1.285-1.754q-.828.2-1.661.379l.156-2.167-1.766,2.5c-1.249.244-2.478.456-3.649.639l.22-3.069-2.394,3.387C470.03,197.69,467.252,197.878,467.252,197.878Z" transform="translate(-374.284 -135.227)" fill="#fafcff"/>
  <ellipse id="Ellipse_382" data-name="Ellipse 382" cx="30.952" cy="2.938" rx="30.952" ry="2.938" transform="translate(48.691 148.275)" fill="#3f3d56"/>
  <ellipse id="Ellipse_383" data-name="Ellipse 383" cx="30.952" cy="2.938" rx="30.952" ry="2.938" transform="translate(123.186 148.275)" fill="#3f3d56"/>
  <path id="Pfad_3209" data-name="Pfad 3209" d="M669.411,533.094s2.235,15.518-8.495,24.692a22.562,22.562,0,0,1-24.969,2.73,31.114,31.114,0,0,1-9.311-7.464,40.085,40.085,0,0,1-3.2-4.26A50.889,50.889,0,0,1,619.714,542q-1.007-2.2-1.924-4.709c-.117-.321-.227-.636-.332-.949-5.571-16.559,5.265-21.389,15.212-22.548a51.084,51.084,0,0,1,6.287-.317,56.368,56.368,0,0,1,7.372.52s.2,0,.571.017a44.292,44.292,0,0,1,5.651.627C660.235,515.992,672,520.172,669.411,533.094Z" transform="translate(-491.771 -411.785)" fill="#fafcff"/>
  <path id="Pfad_3210" data-name="Pfad 3210" d="M349,537.3c-4.9,13.445-11.951,20.034-18.158,23.226a22.562,22.562,0,0,1-24.969-2.73,21.936,21.936,0,0,1-1.889-1.819,22.851,22.851,0,0,1-3.15-4.335,27,27,0,0,1-2.537-6.314,33.9,33.9,0,0,1-1.085-7.393,29.577,29.577,0,0,1,.166-4.831c-2.419-12.1,7.733-16.532,15.344-18.156a45.183,45.183,0,0,1,6.679-.9c.674-.038,1.06-.04,1.06-.04a57.933,57.933,0,0,1,12.081-.359C343.056,514.5,355.645,519.072,349,537.3Z" transform="translate(-239.772 -411.795)" fill="#fafcff"/>
  <path id="Pfad_3211" data-name="Pfad 3211" d="M320.151,516.16l-21.1,31.279a33.9,33.9,0,0,1-1.085-7.393l15.51-22.986A45.183,45.183,0,0,1,320.151,516.16Z" transform="translate(-240.518 -413.906)" fill="#fff" opacity="0.2"/>
  <path id="Pfad_3212" data-name="Pfad 3212" d="M346.93,513.638l-28.558,42.328a22.853,22.853,0,0,1-3.15-4.335L340.949,513.5A55.08,55.08,0,0,1,346.93,513.638Z" transform="translate(-254.156 -411.783)" fill="#fff" opacity="0.2"/>
  <path id="Pfad_3213" data-name="Pfad 3213" d="M644.671,513.478,625.428,542q-1.007-2.2-1.924-4.709c-.117-.321-.227-.636-.332-.948l15.212-22.548A51.085,51.085,0,0,1,644.671,513.478Z" transform="translate(-497.484 -411.785)" fill="#fff" opacity="0.2"/>
  <path id="Pfad_3214" data-name="Pfad 3214" d="M680.768,516.677l-25.914,38.41a40.092,40.092,0,0,1-3.2-4.26l23.465-34.778A44.281,44.281,0,0,1,680.768,516.677Z" transform="translate(-519.988 -413.82)" fill="#fff" opacity="0.2"/>
  <path id="Pfad_3215" data-name="Pfad 3215" d="M405.646,531.639h-4.8c2.126-17.425-23.316-17.627-23.316-17.627a58.02,58.02,0,0,0-12.171-.351v-.069H315.623v.052a58.077,58.077,0,0,0-11.961.367s-25.442.2-23.317,17.627h-4.593v4.617h4.635c-.046,5.016.949,14.929,8.686,21.545a22.562,22.562,0,0,0,24.969,2.73c6.207-3.192,13.26-9.781,18.158-23.226,1.678-4.606,2.128-8.34,1.694-11.363a133.35,133.35,0,0,1,13.4,0c-.434,3.023.016,6.757,1.694,11.363,4.9,13.445,11.951,20.034,18.158,23.226a22.562,22.562,0,0,0,24.969-2.73c7.737-6.616,8.733-16.529,8.686-21.545h4.845Zm-75.658,5.752c-4.661,12.794-11.46,18.779-17.291,21.541a20.471,20.471,0,0,1-21.639-2.524c-7.361-5.985-8.341-15.182-8.314-19.87.013-1.863-.071-3.723-.145-5.584-.581-14.628,21.369-14.8,21.369-14.8s35.781-5.548,26.021,21.238Zm17.5-12.5a89.082,89.082,0,0,0-13.787,0c-1.151-5.138-5.032-8.034-9.64-9.62h33.066c-4.608,1.586-8.488,4.482-9.64,9.62Zm51.328,5.994c-.076,1.878-.159,3.756-.147,5.634.029,4.732-.961,14.016-8.39,20.053a20.652,20.652,0,0,1-21.83,2.554c-5.888-2.785-12.754-8.824-17.461-21.744-9.848-27.034,26.262-21.434,26.262-21.434S399.4,516.121,398.816,530.885Z" transform="translate(-222.969 -411.798)" fill="#3f3d56"/>
  <path id="Pfad_3219" data-name="Pfad 3219" d="M276.258,354.448a1.334,1.334,0,0,1-.594,1.093l-.05.031H253.2l.09-.275c.015-.048,1.656-4.81,8.918-3.891.684-.235,7.37-2.417,11.371.036C275.357,352.53,276.258,353.541,276.258,354.448Z" transform="translate(-205.151 -282.842)" fill="#f1f1f1"/>
  <path id="Pfad_3220" data-name="Pfad 3220" d="M474.258,431.448a1.334,1.334,0,0,1-.594,1.093l-.05.031H451.2l.09-.275c.015-.048,1.656-4.81,8.918-3.891.684-.235,7.37-2.417,11.371.036C473.357,429.53,474.258,430.541,474.258,431.448Z" transform="translate(-361.602 -343.684)" fill="#f1f1f1"/>
  <path id="Pfad_3221" data-name="Pfad 3221" d="M519.258,121.448a1.334,1.334,0,0,1-.594,1.093l-.05.031H496.2l.09-.275c.015-.048,1.656-4.81,8.918-3.891.684-.235,7.37-2.417,11.371.036C518.357,119.53,519.258,120.541,519.258,121.448Z" transform="translate(-397.159 -98.736)" fill="#f1f1f1"/>
  <path id="Pfad_3222" data-name="Pfad 3222" d="M30.3,652.883l1.917,5.935A30.721,30.721,0,0,0,31.3,670.6c.822,6.209.365,6.391.365,6.391s-8.21-.473-7.389,1.993S33.126,680,33.126,680s1.542-.415,2.272-4.8,2.567-12.824,2.567-12.824l-1.727-7.969Z" transform="translate(-24.218 -521.939)" fill="#ffb8b8"/>
  <path id="Pfad_3223" data-name="Pfad 3223" d="M43.159,595.015s-3.47,1.278-3.47,4.748,1.278,8.217,2.1,8.491,6.3,4.017,7.3,1.37S43.159,595.015,43.159,595.015Z" transform="translate(-36.443 -476.214)" fill="#d0cde1"/>
  <path id="Pfad_3224" data-name="Pfad 3224" d="M161.772,757.806l7.3-.274,5.57-.822L173,762.188l-13.513.365Z" transform="translate(-126.022 -597.918)" fill="#ffb8b8"/>
  <path id="Pfad_3225" data-name="Pfad 3225" d="M239.639,779.508s-.091-2.009-.913-1.917-.274-.73.457-.913,2.83-1.1,2.83-1.1l8.309.548s5.387,4.748,3.2,7.3-7.852.274-7.852.274l-6.117.091S237.539,780.512,239.639,779.508Z" transform="translate(-193.388 -618.89)" fill="#2f2e41"/>
  <path id="Pfad_3226" data-name="Pfad 3226" d="M236.068,709.563l2.648,12.417,5.478-1.1-3.1-15.522-3.287-1.735Z" transform="translate(-186.53 -555.975)" fill="#ffb8b8"/>
  <path id="Pfad_3227" data-name="Pfad 3227" d="M70.812,658.225s-15.339,6.939-8.856,13.969c0,0,0,3.287,6.848,2.648s20.087-1.826,20.726-1.461,2.648-7.213.913-7.578-3.835-.822-3.835-.822,1.826-.274,1.826-1.826c0,0,5.2-.365,6.756-3.652s3.013-5.752,3.013-5.752l3.561,9.13s4.109-7.578,7.213-4.2c0,0-3.47-21.822-6.117-23.83s-4.474-2.648-6.939-.822-4.748,6.483-4.748,6.483Z" transform="translate(-52.774 -506.19)" fill="#2f2e41"/>
  <path id="Pfad_3228" data-name="Pfad 3228" d="M262.354,801.759a20.574,20.574,0,0,0-1.826,1.552c-.73.73-1.735.365-1.826,0s-1.735.274-1.917,2.922-1.278,5.022,1.643,5.843,2.83,3.2,2.83,3.2a9.849,9.849,0,0,0,7.4.457c4.109-1.37,2.648-2.83,2.648-2.83l-5.478-9.039S264.363,801.12,262.354,801.759Z" transform="translate(-207.704 -639.498)" fill="#2f2e41"/>
  <path id="Pfad_3229" data-name="Pfad 3229" d="M200.392,586.313s8.765,3.013,9.678,3.652,5.022,3.652,3.013,5.2-3.652,2.557-7.578,1.37S197.2,591.7,197.2,591.7Z" transform="translate(-160.897 -469.338)" fill="#ffb8b8"/>
  <path id="Pfad_3230" data-name="Pfad 3230" d="M170.655,566.608s3.47-.639,5.935.73a17.826,17.826,0,0,1,4.565,4.109s-2.283,4.839-3.926,5.569-4.656-2.922-4.656-2.922Z" transform="translate(-139.926 -453.651)" fill="#d0cde1"/>
  <path id="Pfad_3231" data-name="Pfad 3231" d="M93.406,552.908s.091,3.561-.274,3.926,4.383,11.139,9.587,6.391,1.187-6.665,1.187-6.665-1.917-3.561-1.826-3.926-8.491,0-8.491,0Z" transform="translate(-78.655 -442.599)" fill="#ffb8b8"/>
  <path id="Pfad_3232" data-name="Pfad 3232" d="M93.406,552.908s.091,3.561-.274,3.926,4.383,11.139,9.587,6.391,1.187-6.665,1.187-6.665-1.917-3.561-1.826-3.926-8.491,0-8.491,0Z" transform="translate(-78.655 -442.599)" opacity="0.1"/>
  <path id="Pfad_3233" data-name="Pfad 3233" d="M96.661,582.365s3.47,2.374,4.93,1.826,3.287-2.922,3.47-3.1,9.5,18.535,9.5,18.535-1.37,6.848-5.022,8.856-3.606,3.607-4.063,4.976-6.346-4.337-6.346-4.337L95.382,593.23v-9.678Z" transform="translate(-80.449 -465.207)" fill="#d0cde1"/>
  <path id="Pfad_3234" data-name="Pfad 3234" d="M61.081,566.867a2.958,2.958,0,0,0-2.328.776c-1.187,1-6.756,4.748-6.483,5.113a52.594,52.594,0,0,1,3.287,7.669c.548,2.1,1.37,2.374,1.37,2.374s1.917,1.37,1.643,2.374-1.461,14.7.183,17.713,1.37,5.661.913,6.391,4.383-2.1,4.383-2.1,7.213-5.843,7.761-7.578a20.41,20.41,0,0,0,.73-3.652S67.883,577.5,66.423,576.5,61.081,566.867,61.081,566.867Z" transform="translate(-46.376 -453.955)" fill="#575a89"/>
  <path id="Pfad_3235" data-name="Pfad 3235" d="M136.252,563.184s2.25-1.4,2.706-1.031,4.748.365,4.839.73.274,9.13,3.378,11.413,1.1,6.848,1.1,6.848l2.283,3.652s-12.417,11.96-11.6,7.852c.046-.228,0-.274,0-.274s-4.839-20.726-4.2-21.822S136.558,564.489,136.252,563.184Z" transform="translate(-111.516 -450.2)" fill="#575a89"/>
  <path id="Pfad_3236" data-name="Pfad 3236" d="M146.6,607.2l-12.417,4.291s-12.326,2.922-10.409,6.3,10.043-2.374,10.043-2.374l16.536-1.853S156.914,608.02,146.6,607.2Z" transform="translate(-102.72 -485.841)" fill="#ffb8b8"/>
  <circle id="Ellipse_389" data-name="Ellipse 389" cx="6.756" cy="6.756" r="6.756" transform="translate(12.925 100.175)" fill="#ffb8b8"/>
  <path id="Pfad_3237" data-name="Pfad 3237" d="M83.246,491.267,82,490.813a8.887,8.887,0,0,1,6.249-2.386L87.222,487.4a4.638,4.638,0,0,1,4.772,1.477,20.3,20.3,0,0,1,3.438,4.389h1.338l-.559,1.117,1.955,1.117-2.007-.2a5.638,5.638,0,0,1-.19,2.894l-.454,1.25a36.042,36.042,0,0,1-1.818-4.09v1.136s-1.25-1.023-1.25-1.7l-.682.8-.341-1.25-4.2,1.25.682-1.023-2.613.341,1.023-1.25s-2.954,1.477-3.068,2.727a6.535,6.535,0,0,1-1.591,2.84l-.682-1.136S79.951,492.971,83.246,491.267Z" transform="translate(-68.945 -391.051)" fill="#2f2e41"/>
  <path id="Pfad_3238" data-name="Pfad 3238" d="M126.613,532.86a2.937,2.937,0,0,1-.844,2.453,2.241,2.241,0,0,1-2.481.271,3.091,3.091,0,0,1-.925-.742,3.979,3.979,0,0,1-.318-.423,5.052,5.052,0,0,1-.37-.675q-.1-.219-.191-.468c-.012-.032-.023-.063-.033-.094-.554-1.645.523-2.125,1.511-2.24a5.084,5.084,0,0,1,.625-.031,5.61,5.61,0,0,1,.732.052l.057,0a4.4,4.4,0,0,1,.561.062C125.7,531.161,126.87,531.576,126.613,532.86Z" transform="translate(-100.929 -425.562)" fill="#fafcff"/>
  <path id="Pfad_3239" data-name="Pfad 3239" d="M94.781,533.278a3.93,3.93,0,0,1-1.8,2.307,2.242,2.242,0,0,1-2.481-.271,2.186,2.186,0,0,1-.188-.181A2.27,2.27,0,0,1,90,534.7a2.682,2.682,0,0,1-.252-.627,3.368,3.368,0,0,1-.108-.734,2.939,2.939,0,0,1,.016-.48c-.24-1.2.768-1.642,1.524-1.8a4.492,4.492,0,0,1,.664-.089c.067,0,.105,0,.105,0a5.752,5.752,0,0,1,1.2-.036C94.19,531.012,95.441,531.467,94.781,533.278Z" transform="translate(-75.893 -425.563)" fill="#fafcff"/>
  <path id="Pfad_3240" data-name="Pfad 3240" d="M91.914,531.177l-2.1,3.108a3.368,3.368,0,0,1-.108-.734l1.541-2.284A4.49,4.49,0,0,1,91.914,531.177Z" transform="translate(-75.967 -425.772)" fill="#fff" opacity="0.2"/>
  <path id="Pfad_3241" data-name="Pfad 3241" d="M94.575,530.926l-2.837,4.205a2.273,2.273,0,0,1-.313-.431l2.556-3.788A5.469,5.469,0,0,1,94.575,530.926Z" transform="translate(-77.322 -425.561)" fill="#fff" opacity="0.2"/>
  <path id="Pfad_3242" data-name="Pfad 3242" d="M124.155,530.911l-1.912,2.834q-.1-.219-.191-.468c-.012-.032-.023-.063-.033-.094l1.511-2.24A5.084,5.084,0,0,1,124.155,530.911Z" transform="translate(-101.496 -425.562)" fill="#fff" opacity="0.2"/>
  <path id="Pfad_3243" data-name="Pfad 3243" d="M127.741,531.228l-2.574,3.816a3.985,3.985,0,0,1-.318-.423l2.331-3.455a4.4,4.4,0,0,1,.561.062Z" transform="translate(-103.732 -425.764)" fill="#fff" opacity="0.2"/>
  <path id="Pfad_3244" data-name="Pfad 3244" d="M100.409,532.715h-.477c.211-1.731-2.316-1.751-2.316-1.751a5.763,5.763,0,0,0-1.209-.035v-.007H91.465v.005a5.769,5.769,0,0,0-1.188.037s-2.528.02-2.316,1.751H87.5v.459h.46a2.773,2.773,0,0,0,.863,2.14,2.241,2.241,0,0,0,2.481.271,3.93,3.93,0,0,0,1.8-2.307,2.357,2.357,0,0,0,.168-1.129,13.266,13.266,0,0,1,1.331,0,2.357,2.357,0,0,0,.168,1.129,3.93,3.93,0,0,0,1.8,2.307,2.241,2.241,0,0,0,2.481-.271,2.773,2.773,0,0,0,.863-2.14h.481Zm-7.516.571a3.526,3.526,0,0,1-1.718,2.14,2.034,2.034,0,0,1-2.15-.251A2.507,2.507,0,0,1,88.2,533.2c0-.185-.007-.37-.014-.555-.058-1.453,2.123-1.47,2.123-1.47s3.555-.551,2.585,2.11Zm1.738-1.242a8.845,8.845,0,0,0-1.37,0,1.331,1.331,0,0,0-.958-.956h3.285a1.332,1.332,0,0,0-.958.956Zm5.1.6c-.008.187-.016.373-.015.56a2.529,2.529,0,0,1-.833,1.992,2.052,2.052,0,0,1-2.169.254,3.557,3.557,0,0,1-1.735-2.16c-.978-2.686,2.609-2.129,2.609-2.129s2.2.017,2.142,1.484Z" transform="translate(-74.224 -425.563)" fill="#3f3d56"/>
</svg>
